<svg id="Line" height="512" viewBox="0 0 36 36" width="512" xmlns="http://www.w3.org/2000/svg"><path d="m27.623 4.167c-6.917 0-11.667-3.583-15-3.583s-10.333 1.916-10.333 17.249 9.417 17.583 13.083 17.583c17.167.001 24.5-31.249 12.25-31.249z" fill="#efefef"/><path d="m3 4.784c-.827 0-1.5-.673-1.5-1.5s.673-1.5 1.5-1.5 1.5.673 1.5 1.5-.673 1.5-1.5 1.5zm0-2c-.276 0-.5.224-.5.5s.224.5.5.5.5-.224.5-.5-.224-.5-.5-.5z" fill="#a4afc1"/><path d="m28.382 11.531.121-.121c.478-.478.747-1.126.747-1.802v-.309c0-1.408-1.141-2.549-2.549-2.549-.852 0-1.648.426-2.121 1.135l-.15.225c-.609.913-1.726 1.306-2.791 1.044-2.426-.597-4.852-.597-7.277 0-1.065.262-2.183-.131-2.791-1.044l-.15-.225c-.474-.709-1.27-1.135-2.122-1.135-1.408 0-2.549 1.141-2.549 2.549v.308c0 .676.269 1.324.747 1.802l.121.121c.647.647.888 1.59.65 2.473-.719 2.664-.719 5.328 0 7.992.238.883-.003 1.826-.65 2.473l-.121.122c-.478.478-.747 1.126-.747 1.802v.308c0 1.408 1.141 2.549 2.549 2.549.852 0 1.648-.426 2.121-1.135l.15-.225c.609-.913 1.726-1.306 2.791-1.044 2.426.597 4.852.597 7.277 0 1.065-.262 2.183.131 2.791 1.044l.15.225c.473.709 1.269 1.135 2.121 1.135 1.408 0 2.549-1.141 2.549-2.549v-.308c0-.676-.269-1.324-.747-1.802l-.121-.121c-.647-.647-.888-1.59-.65-2.473.719-2.664.719-5.328 0-7.992-.237-.883.004-1.826.651-2.473z" fill="#f3f3f1"/><path d="m10.75 23.286v-10.572c0-.532.432-.964.964-.964h12.572c.532 0 .964.432.964.964v10.572c0 .532-.432.964-.964.964h-12.572c-.532 0-.964-.432-.964-.964z" fill="#2fdf84"/><path d="m10.27 14c-.72 2.67-.72 5.33 0 8 .24.88-.01 1.82-.65 2.47l-.12.12c-.48.48-.75 1.13-.75 1.8v.31c0 1.05.64 1.96 1.55 2.34-.31.14-.65.21-1 .21-1.41 0-2.55-1.14-2.55-2.55v-.31c0-.67.27-1.32.75-1.8l.12-.12c.64-.65.89-1.59.65-2.47-.72-2.67-.72-5.33 0-8 .24-.88-.01-1.82-.65-2.47l-.12-.12c-.48-.48-.75-1.13-.75-1.8v-.31c0-.7.29-1.34.75-1.8s1.1-.75 1.8-.75c.35 0 .69.07 1 .21-.3.13-.57.31-.8.54-.46.46-.75 1.1-.75 1.8v.31c0 .67.27 1.32.75 1.8l.12.12c.64.65.89 1.59.65 2.47z" fill="#d5dbe1"/><path d="m13.71 24.25h-2c-.53 0-.96-.43-.96-.96v-10.58c0-.53.43-.96.96-.96h2c-.53 0-.96.43-.96.96v10.58c0 .53.43.96.96.96z" fill="#00b871"/><path d="m24.286 25h-12.572c-.945 0-1.714-.769-1.714-1.714v-10.572c0-.945.769-1.714 1.714-1.714h12.572c.945 0 1.714.769 1.714 1.714v10.572c0 .945-.769 1.714-1.714 1.714zm-12.572-12.5c-.118 0-.214.096-.214.214v10.572c0 .118.096.214.214.214h12.572c.118 0 .214-.096.214-.214v-10.572c0-.118-.096-.214-.214-.214z"/><path d="m26.701 30c-1.105 0-2.131-.549-2.745-1.469l-.15-.227c-.424-.636-1.202-.925-1.988-.73-2.532.623-5.101.623-7.635 0-.783-.193-1.563.095-1.988.731l-.149.225c-.616.921-1.642 1.47-2.747 1.47-1.819 0-3.299-1.479-3.299-3.299v-.309c0-.868.352-1.719.966-2.332l.119-.12c.453-.452.628-1.122.458-1.749-.751-2.781-.751-5.602 0-8.383.169-.627-.006-1.297-.457-1.747l-.123-.124c-.611-.611-.963-1.461-.963-2.33v-.308c0-1.82 1.48-3.299 3.299-3.299 1.105 0 2.131.549 2.745 1.469l.15.227c.424.637 1.202.924 1.988.73 2.533-.623 5.102-.622 7.635 0 .784.194 1.564-.094 1.988-.731l.149-.225c.616-.921 1.642-1.47 2.747-1.47 1.819 0 3.299 1.479 3.299 3.299v.309c0 .868-.352 1.719-.966 2.332l-.119.12c0 .001-.001.001-.002.002-.451.45-.626 1.12-.457 1.747.751 2.781.751 5.602 0 8.383-.169.627.006 1.297.457 1.747l.123.124c.612.611.964 1.461.964 2.33v.309c0 1.819-1.48 3.298-3.299 3.298zm-4.418-3.982c1.105 0 2.156.533 2.771 1.456l.15.227c.334.5.894.8 1.497.8.992 0 1.799-.807 1.799-1.799v-.309c0-.474-.192-.937-.527-1.271l-.123-.124c-.828-.827-1.151-2.053-.842-3.196.681-2.522.681-5.079 0-7.602-.309-1.144.015-2.368.843-3.197l.12-.121c.337-.337.529-.8.529-1.273v-.31c0-.992-.807-1.799-1.799-1.799-.603 0-1.163.3-1.497.801l-.149.225c-.768 1.152-2.211 1.697-3.595 1.357-2.296-.564-4.624-.564-6.919 0-1.386.34-2.828-.206-3.595-1.356l-.151-.227c-.334-.5-.894-.8-1.497-.8-.991 0-1.798.807-1.798 1.799v.309c0 .474.192.937.527 1.271l.123.124c.828.827 1.151 2.053.842 3.196-.681 2.522-.681 5.079 0 7.602.309 1.144-.015 2.369-.844 3.198l-.119.12c-.337.337-.529.8-.529 1.273v.309c0 .992.807 1.799 1.799 1.799.603 0 1.163-.3 1.497-.801l.149-.225c.767-1.152 2.212-1.697 3.595-1.357 2.296.564 4.624.564 6.919 0 .275-.067.551-.099.824-.099z"/><path d="m19.998 20.808-4.485-4.037-4.248 4.024-1.031-1.09 4.75-4.5c.283-.27.726-.273 1.018-.013l5 4.5z"/><path d="m19.98 19.826-.96-1.152 3-2.5c.288-.239.708-.229.984.021l2.75 2.5-1.009 1.109-2.267-2.061z"/></svg>