<svg width="15" height="16" viewBox="0 0 15 16" fill="none" xmlns="http://www.w3.org/2000/svg">
<g id="Group">
<g id="Group_2">
<g id="Group_3">
<g id="Group_4">
<g id="Group_5">
<path id="Vector" d="M7.69824 6.0938H12.0092M7.74251 0.266602V1.76047V10.3605M7.74251 0.760468C10.0988 0.760468 12.0092 2.67087 12.0092 5.02713V10.3605H7.74251C7.74251 10.3605 7.74251 2.42713 7.74251 0.760468Z" stroke="#3C3C3C" stroke-width="0.592593"/>
</g>
</g>
</g>
</g>
<g id="Group_6">
<g id="Group_7">
<g id="Group_8">
<g id="Group_9">
<path id="Vector_2" d="M7.78418 6.09478H3.47325M7.73991 0.267578V1.76144V10.3614M7.73991 0.761445C5.38365 0.761445 3.47325 2.67184 3.47325 5.02811V10.3614H7.73991C7.73991 10.3614 7.73991 2.42811 7.73991 0.761445Z" stroke="#3C3C3C" stroke-width="0.592593"/>
</g>
</g>
</g>
</g>
<g id="Group_10">
<g id="Group_11">
<g id="Group_12">
<path id="Vector_3" d="M13.0752 10.3604V15.6937" stroke="#3C3C3C" stroke-width="0.592593"/>
</g>
<g id="Group_13">
<path id="Vector_4" d="M10.9424 10.3604V15.6937" stroke="#3C3C3C" stroke-width="0.592593"/>
</g>
<g id="Group_14">
<path id="Vector_5" d="M8.80957 10.3604V15.6937" stroke="#3C3C3C" stroke-width="0.592593"/>
</g>
<g id="Group_15">
<path id="Vector_6" d="M6.67578 10.3604V15.6937" stroke="#3C3C3C" stroke-width="0.592593"/>
</g>
<g id="Group_16">
<path id="Vector_7" d="M4.54199 10.3604V15.6937" stroke="#3C3C3C" stroke-width="0.592593"/>
</g>
<g id="Group_17">
<path id="Vector_8" d="M2.40918 10.3604V15.6937" stroke="#3C3C3C" stroke-width="0.592593"/>
</g>
<g id="Group_18">
<path id="Vector_9" d="M0.80957 15.6934H14.6762" stroke="#3C3C3C" stroke-width="0.592593"/>
</g>
<g id="Group_19">
<path id="Vector_10" d="M0.80957 10.3604H14.6762" stroke="#3C3C3C" stroke-width="0.592593"/>
</g>
</g>
</g>
</g>
</svg>
