<svg width="20" height="20" viewBox="0 0 20 20" fill="none" xmlns="http://www.w3.org/2000/svg">
<g id="Bed">
<path id="Vector" d="M5.62533 3.33301H14.3753C14.9589 3.33298 15.5205 3.55558 15.9456 3.95542C16.3706 4.35525 16.6272 4.90219 16.6628 5.48467L16.667 5.62467V8.41967C17.1212 8.54862 17.5246 8.81464 17.822 9.18139C18.1194 9.54815 18.2963 9.99777 18.3287 10.4688L18.3337 10.6247V16.8747C18.3336 17.033 18.2735 17.1855 18.1653 17.3012C18.0572 17.4169 17.9092 17.4872 17.7513 17.498C17.5933 17.5088 17.4371 17.4592 17.3142 17.3593C17.1914 17.2594 17.1111 17.1165 17.0895 16.9597L17.0837 16.8747V14.9997H2.91699V16.8747C2.91699 17.0257 2.86229 17.1716 2.76302 17.2855C2.66375 17.3993 2.52662 17.4733 2.37699 17.4938L2.29199 17.4997C2.14096 17.4997 1.99504 17.445 1.88122 17.3457C1.76739 17.2464 1.69337 17.1093 1.67283 16.9597L1.66699 16.8747V10.6247C1.66699 9.57551 2.37199 8.69134 3.33366 8.41884V5.62467C3.33363 5.0411 3.55624 4.4795 3.95607 4.05443C4.3559 3.62935 4.90284 3.37283 5.48533 3.33717L5.62533 3.33301ZM16.042 9.58301H3.95866C3.70078 9.58289 3.45202 9.67843 3.26052 9.85115C3.06902 10.0239 2.9484 10.2615 2.92199 10.518L2.91699 10.6247V13.7497H17.0837V10.6247C17.0836 10.3669 16.9879 10.1184 16.8152 9.92706C16.6425 9.73574 16.405 9.61523 16.1487 9.58884L16.042 9.58301ZM14.3753 4.58301H5.62533C5.36744 4.58289 5.11869 4.67843 4.92719 4.85115C4.73569 5.02387 4.61507 5.26148 4.58866 5.51801L4.58366 5.62467V8.33301H5.83366C5.83366 8.11199 5.92146 7.90003 6.07774 7.74375C6.23402 7.58747 6.44598 7.49967 6.66699 7.49967H8.33366C8.53777 7.4997 8.73477 7.57464 8.8873 7.71027C9.03983 7.8459 9.13728 8.0328 9.16116 8.23551L9.16699 8.33301H10.8337C10.8337 8.11199 10.9215 7.90003 11.0777 7.74375C11.234 7.58747 11.446 7.49967 11.667 7.49967H13.3337C13.5378 7.4997 13.7348 7.57464 13.8873 7.71027C14.0398 7.8459 14.1373 8.0328 14.1612 8.23551L14.167 8.33301H15.417V5.62467C15.4171 5.36679 15.3216 5.11803 15.1488 4.92654C14.9761 4.73504 14.7385 4.61441 14.482 4.58801L14.3753 4.58301Z" fill="black"/>
</g>
</svg>
