<svg width="16" height="19" viewBox="0 0 16 19" fill="none" xmlns="http://www.w3.org/2000/svg">
<g id="Bell">
<path id="Union" d="M3.70616 14.3249L3.79346 13.6953H3.79346L3.70616 14.3249ZM12.3387 14.3249L12.426 14.9544L12.3387 14.3249ZM14.2594 10.1755L13.7135 10.5011L14.2594 10.1755ZM3.49953 5.85326C3.49953 3.35536 5.52448 1.33042 8.02238 1.33042V0.059231C4.82242 0.059231 2.22835 2.65331 2.22835 5.85326H3.49953ZM3.49953 7.62665V5.85326H2.22835V7.62665H3.49953ZM2.02573 11.6144C2.02573 11.2064 2.13734 10.8264 2.33133 10.5011L1.23954 9.85C0.931404 10.3667 0.754544 10.9709 0.754544 11.6144H2.02573ZM3.79346 13.6953C2.77682 13.5543 2.02573 12.6705 2.02573 11.6144H0.754544C0.754544 13.2752 1.94447 14.7222 3.61886 14.9544L3.79346 13.6953ZM8.02241 14.0609C6.75802 14.0609 5.12447 13.8798 3.79346 13.6953L3.61886 14.9544C4.9602 15.1404 6.66588 15.3321 8.02241 15.3321V14.0609ZM12.2514 13.6953C10.9204 13.8798 9.28681 14.0609 8.02241 14.0609V15.3321C9.37895 15.3321 11.0846 15.1404 12.426 14.9544L12.2514 13.6953ZM14.0191 11.6144C14.0191 12.6705 13.268 13.5543 12.2514 13.6953L12.426 14.9544C14.1004 14.7222 15.2903 13.2752 15.2903 11.6144H14.0191ZM13.7135 10.5011C13.9075 10.8264 14.0191 11.2064 14.0191 11.6144H15.2903C15.2903 10.9709 15.1134 10.3667 14.8053 9.84997L13.7135 10.5011ZM12.5452 5.85326V7.62656H13.8164V5.85326H12.5452ZM8.02238 1.33042C10.5203 1.33042 12.5452 3.35536 12.5452 5.85326H13.8164C13.8164 2.65331 11.2223 0.059231 8.02238 0.059231V1.33042ZM14.8053 9.84997C14.5435 9.41101 14.3057 9.05929 14.1097 8.66652C13.9219 8.29045 13.8164 7.95494 13.8164 7.62656H12.5452C12.5452 8.23067 12.7402 8.7692 12.9723 9.23426C13.1961 9.68263 13.4976 10.1391 13.7135 10.5011L14.8053 9.84997ZM2.22835 7.62665C2.22835 7.95502 2.12282 8.29052 1.93511 8.66658C1.73906 9.05934 1.50131 9.41105 1.23954 9.85L2.33133 10.5011C2.54717 10.1392 2.84867 9.68267 3.07247 9.23431C3.30461 8.76926 3.49953 8.23074 3.49953 7.62665H2.22835Z" fill="#89939E"/>
<path id="Ellipse 33" d="M9.86475 16.6558C9.46868 17.2514 8.79141 17.644 8.02245 17.644C7.25349 17.644 6.57622 17.2514 6.18015 16.6558" stroke="#89939E" stroke-width="1.27119" stroke-linecap="round"/>
</g>
</svg>
