<svg width="21" height="20" viewBox="0 0 21 20" fill="none" xmlns="http://www.w3.org/2000/svg">
<g id="Group">
<g id="Group_2">
<g id="Group_3">
<path id="Vector" d="M19.3332 0.666992C19.6699 0.666992 19.9939 0.793659 20.2405 1.02233C20.4865 1.25166 20.6379 1.56499 20.6632 1.90033L20.6665 2.00033V3.33366C20.6665 3.67033 20.5399 3.99433 20.3112 4.241C20.0819 4.48766 19.7685 4.63833 19.4332 4.66366L19.3332 4.667V10.667H20.6665V12.0003H19.3332V18.0003C19.3332 18.337 19.2065 18.661 18.9779 18.9077C18.7485 19.1537 18.4352 19.305 18.0999 19.3303L17.9999 19.3337H3.33317C2.99651 19.3337 2.67251 19.207 2.42584 18.9777C2.17917 18.749 2.02851 18.4357 2.00317 18.1003L1.99984 18.0003V12.0003H0.666504V10.667H1.99984V4.667L1.89984 4.66366C1.5825 4.63966 1.28384 4.503 1.0585 4.27833C0.833171 4.05366 0.695171 3.75566 0.670504 3.43833L0.666504 3.33366V2.00033C0.666504 1.66366 0.79317 1.33966 1.02184 1.09299C1.25117 0.846326 1.5645 0.695659 1.89984 0.670326L1.99984 0.666992H19.3332ZM17.9999 12.0003H3.33317V18.0003H4.66651V16.0003C4.66651 15.3043 4.93851 14.6363 5.42384 14.1383C5.90984 13.6403 6.57118 13.3517 7.26651 13.3343C7.96184 13.317 8.63651 13.5723 9.14651 14.045C9.65651 14.5183 9.96185 15.1723 9.99651 15.867L9.99985 16.0003V18.0003H11.3332V16.0003C11.3332 15.3043 11.6052 14.6363 12.0905 14.1383C12.5765 13.6403 13.2379 13.3517 13.9332 13.3343C14.6285 13.317 15.3032 13.5723 15.8132 14.045C16.3232 14.5183 16.6285 15.1723 16.6632 15.867L16.6665 16.0003V18.0003H17.9999V12.0003ZM7.33318 14.667C6.99651 14.667 6.67251 14.7937 6.42584 15.0223C6.17918 15.2517 6.02851 15.565 6.00318 15.9003L5.99984 16.0003V18.0003H8.66651V16.0003C8.66651 15.647 8.52585 15.3077 8.27584 15.0577C8.02584 14.8077 7.68651 14.667 7.33318 14.667ZM13.9999 14.667C13.6632 14.667 13.3392 14.7937 13.0925 15.0223C12.8465 15.2517 12.6952 15.565 12.6699 15.9003L12.6665 16.0003V18.0003H15.3332V16.0003C15.3332 15.647 15.1925 15.3077 14.9425 15.0577C14.6925 14.8077 14.3532 14.667 13.9999 14.667ZM17.9999 4.667H3.33317V10.667H4.66651V8.667C4.66651 7.971 4.93851 7.303 5.42384 6.805C5.90984 6.307 6.57118 6.01833 7.26651 6.001C7.96184 5.98366 8.63651 6.239 9.14651 6.71166C9.65651 7.185 9.96185 7.839 9.99651 8.53367L9.99985 8.667V10.667H11.3332V8.667C11.3332 7.971 11.6052 7.303 12.0905 6.805C12.5765 6.307 13.2379 6.01833 13.9332 6.001C14.6285 5.98366 15.3032 6.239 15.8132 6.71166C16.3232 7.185 16.6285 7.839 16.6632 8.53367L16.6665 8.667V10.667H17.9999V4.667ZM7.33318 7.33367C6.99651 7.33367 6.67251 7.46033 6.42584 7.689C6.17918 7.91833 6.02851 8.23167 6.00318 8.567L5.99984 8.667V10.667H8.66651V8.667C8.66651 8.31367 8.52585 7.97433 8.27584 7.72433C8.02584 7.47433 7.68651 7.33367 7.33318 7.33367ZM13.9999 7.33367C13.6632 7.33367 13.3392 7.46033 13.0925 7.689C12.8465 7.91833 12.6952 8.23167 12.6699 8.567L12.6665 8.667V10.667H15.3332V8.667C15.3332 8.31367 15.1925 7.97433 14.9425 7.72433C14.6925 7.47433 14.3532 7.33367 13.9999 7.33367ZM19.3332 2.00033H1.99984V3.33366H19.3332V2.00033Z" fill="#717171"/>
</g>
</g>
</g>
</svg>
