<svg width="36" height="36" viewBox="0 0 36 36" fill="none" xmlns="http://www.w3.org/2000/svg">
<g id="buy" clip-path="url(#clip0_2261_11966)">
<path id="Vector" d="M14.2811 14.9688V13.7188H28.4686V14.9688H14.2811Z" fill="#94C1FF" stroke="#2D76E0" stroke-width="0.4375"/>
<path id="Vector_2" d="M14.2811 16.6562V15.4063H28.4686V16.6562H14.2811Z" fill="#94C1FF" stroke="#2D76E0" stroke-width="0.4375"/>
<path id="Vector_3" d="M14.2811 13.2812V12.0313H28.4686V13.2812H14.2811Z" fill="#94C1FF" stroke="#2D76E0" stroke-width="0.4375"/>
<path id="Vector_4" d="M13.8436 15.1875V16.6562H12.5936V4.15625H30.1561V16.6562H28.9061V15.1875V13.5V11.8125V10.125V8.4375V6.75V6.53125H28.6874H14.0624H13.8436V6.75V8.4375V10.125V11.8125V13.5V15.1875Z" fill="white" stroke="#2D76E0" stroke-width="0.4375"/>
<path id="Vector_5" d="M14.2811 11.5938V10.3438H28.4686V11.5938H14.2811Z" fill="#94C1FF" stroke="#2D76E0" stroke-width="0.4375"/>
<path id="Vector_6" d="M14.2811 8.21875V6.96875H28.4686V8.21875H14.2811Z" fill="#94C1FF" stroke="#2D76E0" stroke-width="0.4375"/>
<path id="Vector_7" d="M12.0311 2.46875H30.7186V3.71875H30.3749H12.3749H12.0311V2.46875Z" fill="#94C1FF" stroke="#2D76E0" stroke-width="0.4375"/>
<path id="Vector_8" d="M28.6874 8.4375H14.0624V10.125H28.6874V8.4375Z" fill="#94C1FF"/>
<path id="Vector_9" d="M6.74988 18.5625V19.125V32.0625V32.625H5.068H5.06238V18.5625H5.068H6.74988Z" fill="white"/>
<path id="Vector_10" d="M5.06238 32.625V33.75H0.562378V17.4375H5.06238V18.5625V32.625Z" fill="#94C1FF"/>
<path id="Vector_11" d="M33.1874 21.375C33.6826 21.3747 34.164 21.5378 34.557 21.8391C34.9499 22.1404 35.2325 22.563 35.3607 23.0413C35.4889 23.5196 35.4557 24.0268 35.2661 24.4843C35.0766 24.9417 34.7413 25.3238 34.3124 25.5712L19.1249 33.75L6.74988 32.0625V19.125H11.2499L20.0755 20.8463C20.5971 20.9374 21.0698 21.2096 21.4104 21.615C21.7509 22.0204 21.9376 22.533 21.9374 23.0625L32.8049 21.4088C32.9311 21.3861 33.0591 21.3748 33.1874 21.375Z" fill="#D7E9FF"/>
<path id="Vector_12" d="M2.25996 32.0625C2.11077 32.0632 1.96741 32.0047 1.8614 31.8997C1.7554 31.7947 1.69544 31.6519 1.69471 31.5027C1.69398 31.3536 1.75254 31.2102 1.85752 31.1042C1.96249 30.9982 2.10528 30.9382 2.25446 30.9375H2.25996C2.40914 30.9375 2.55221 30.9968 2.6577 31.1023C2.76319 31.2077 2.82246 31.3508 2.82246 31.5C2.82246 31.6492 2.76319 31.7923 2.6577 31.8977C2.55221 32.0032 2.40914 32.0625 2.25996 32.0625ZM34.3137 26.1365C34.1899 26.1366 34.0695 26.0958 33.9712 26.0206C33.873 25.9453 33.8022 25.8397 33.7701 25.7202C33.7379 25.6006 33.7461 25.4738 33.7933 25.3594C33.8405 25.245 33.9242 25.1493 34.0313 25.0873C34.353 24.9015 34.6044 24.6147 34.7466 24.2714C34.8887 23.9282 34.9137 23.5476 34.8175 23.1888C34.7214 22.8299 34.5096 22.5128 34.2149 22.2866C33.9202 22.0603 33.5591 21.9376 33.1876 21.9375C33.0384 21.9375 32.8953 21.8782 32.7898 21.7727C32.6843 21.6673 32.6251 21.5242 32.6251 21.375C32.6251 21.2258 32.6843 21.0827 32.7898 20.9773C32.8953 20.8718 33.0384 20.8125 33.1876 20.8125C33.8066 20.8126 34.4084 21.0169 34.8995 21.3937C35.3907 21.7705 35.7438 22.2989 35.9041 22.8968C36.0645 23.4947 36.0231 24.1289 35.7864 24.7009C35.5497 25.2729 35.1309 25.7509 34.5949 26.0607C34.5096 26.1104 34.4125 26.1366 34.3137 26.1365Z" fill="#2D76E0"/>
<path id="Vector_13" d="M19.1254 34.3138C19.0001 34.3139 18.8783 34.2722 18.7793 34.1952C18.6804 34.1183 18.61 34.0104 18.5794 33.8889C18.5487 33.7674 18.5595 33.639 18.6101 33.5243C18.6606 33.4096 18.7481 33.3151 18.8585 33.2558L34.046 25.0787C34.1774 25.0081 34.3314 24.9926 34.4742 25.0356C34.6171 25.0786 34.737 25.1765 34.8076 25.3079C34.8782 25.4392 34.8938 25.5933 34.8509 25.7361C34.808 25.879 34.7101 25.9989 34.5788 26.0696L19.3913 34.2468C19.3096 34.2908 19.2183 34.3139 19.1254 34.3138Z" fill="#2D76E0"/>
<path id="Vector_14" d="M19.1255 34.3126C19.1 34.3126 19.0745 34.3109 19.0492 34.3077L6.67474 32.6202C6.527 32.5999 6.39333 32.5218 6.30312 32.4031C6.21291 32.2843 6.17352 32.1346 6.19361 31.9869C6.2137 31.8391 6.29162 31.7054 6.41027 31.615C6.52891 31.5247 6.67856 31.4851 6.82635 31.505L19.2008 33.1925C19.3421 33.2117 19.4708 33.2839 19.561 33.3944C19.6512 33.5048 19.696 33.6454 19.6864 33.7877C19.6769 33.93 19.6136 34.0634 19.5095 34.1608C19.4054 34.2582 19.2681 34.3125 19.1255 34.3126Z" fill="#2D76E0"/>
<path id="Vector_15" d="M6.75044 33.1864H5.06677C4.91759 33.1864 4.77451 33.1271 4.66903 33.0217C4.56354 32.9162 4.50427 32.7731 4.50427 32.6239C4.50427 32.4747 4.56354 32.3316 4.66903 32.2262C4.77451 32.1207 4.91759 32.0614 5.06677 32.0614H6.18794V19.125H5.06677C4.91759 19.125 4.77451 19.0657 4.66903 18.9602C4.56354 18.8548 4.50427 18.7117 4.50427 18.5625C4.50427 18.4133 4.56354 18.2702 4.66903 18.1648C4.77451 18.0593 4.91759 18 5.06677 18H6.75044C6.82432 18 6.89749 18.0145 6.96575 18.0427C7.03402 18.071 7.09604 18.1124 7.14828 18.1647C7.20053 18.2169 7.24196 18.2789 7.27021 18.3472C7.29846 18.4155 7.31298 18.4886 7.31294 18.5625V32.6239C7.31298 32.6978 7.29846 32.7709 7.27021 32.8392C7.24196 32.9075 7.20053 32.9695 7.14828 33.0217C7.09604 33.074 7.03402 33.1154 6.96575 33.1437C6.89749 33.1719 6.82432 33.1864 6.75044 33.1864ZM21.9368 23.625C21.7951 23.6248 21.6586 23.5712 21.5547 23.4747C21.4509 23.3782 21.3873 23.2461 21.3766 23.1047C21.366 22.9634 21.4092 22.8232 21.4974 22.7123C21.5857 22.6014 21.7126 22.5279 21.8528 22.5066L32.7188 20.852C32.8663 20.8296 33.0166 20.8667 33.1367 20.9551C33.2568 21.0434 33.3369 21.1759 33.3593 21.3234C33.3818 21.4708 33.3447 21.6211 33.2563 21.7412C33.1679 21.8613 33.0354 21.9414 32.888 21.9639L22.022 23.6184C21.9938 23.6228 21.9653 23.625 21.9368 23.625Z" fill="#2D76E0"/>
<path id="Vector_16" d="M19.6874 25.8731C19.5382 25.8731 19.3951 25.8138 19.2896 25.7084C19.1841 25.6029 19.1249 25.4598 19.1249 25.3106C19.1249 25.1614 19.1841 25.0184 19.2896 24.9129C19.3951 24.8074 19.5382 24.7481 19.6874 24.7481C20.1097 24.748 20.5166 24.5896 20.8278 24.3041C21.139 24.0187 21.3319 23.6269 21.3684 23.2062C21.4049 22.7855 21.2823 22.3664 21.0249 22.0316C20.7675 21.6968 20.3939 21.4707 19.978 21.3979C19.8311 21.3724 19.7003 21.2896 19.6144 21.1678C19.5285 21.046 19.4945 20.895 19.5198 20.7481C19.5452 20.6012 19.6278 20.4704 19.7495 20.3843C19.8713 20.2983 20.0222 20.2642 20.1691 20.2893C20.8628 20.41 21.4859 20.7865 21.9155 21.3443C22.3451 21.9021 22.5498 22.6007 22.4893 23.3022C22.4288 24.0036 22.1074 24.6569 21.5886 25.1329C21.0699 25.6089 20.3914 25.873 19.6874 25.8731Z" fill="#2D76E0"/>
<path id="Vector_17" d="M20.0746 21.4079C20.0383 21.408 20.002 21.4045 19.9664 21.3975L11.1422 19.677C10.9958 19.6485 10.8667 19.5629 10.7833 19.4392C10.7 19.3155 10.6692 19.1637 10.6978 19.0173C10.7263 18.8709 10.8119 18.7418 10.9356 18.6585C11.0593 18.5751 11.2111 18.5443 11.3575 18.5729L20.1817 20.2934C20.3189 20.3202 20.4411 20.397 20.5247 20.509C20.6083 20.621 20.6472 20.7601 20.6338 20.8992C20.6204 21.0383 20.5558 21.1675 20.4524 21.2615C20.349 21.3555 20.2144 21.4077 20.0746 21.4079Z" fill="#2D76E0"/>
<path id="Vector_18" d="M11.2499 19.6875H6.75049C6.6013 19.6875 6.45823 19.6282 6.35274 19.5227C6.24725 19.4173 6.18799 19.2742 6.18799 19.125C6.18799 18.9758 6.24725 18.8327 6.35274 18.7273C6.45823 18.6218 6.6013 18.5625 6.75049 18.5625H11.2499C11.3991 18.5625 11.5422 18.6218 11.6477 18.7273C11.7532 18.8327 11.8124 18.9758 11.8124 19.125C11.8124 19.2742 11.7532 19.4173 11.6477 19.5227C11.5422 19.6282 11.3991 19.6875 11.2499 19.6875ZM19.4512 25.8618C19.4369 25.8618 19.4221 25.8613 19.4073 25.8602L12.3315 25.3109C12.1828 25.2993 12.0447 25.2292 11.9477 25.1159C11.8506 25.0026 11.8026 24.8554 11.8141 24.7066C11.8256 24.5579 11.8957 24.4198 12.009 24.3227C12.1223 24.2257 12.2696 24.1776 12.4183 24.1891L19.4941 24.7385C19.6391 24.7496 19.7742 24.8164 19.8709 24.925C19.9677 25.0336 20.0187 25.1754 20.0131 25.3208C20.0076 25.4661 19.946 25.6036 19.8412 25.7045C19.7364 25.8054 19.5967 25.8618 19.4512 25.8618ZM32.8024 21.9694C32.6613 21.9693 32.5253 21.9161 32.4216 21.8205C32.3178 21.7249 32.2538 21.5938 32.2422 21.4532C32.2306 21.3125 32.2722 21.1727 32.3589 21.0613C32.4456 20.95 32.5709 20.8753 32.7101 20.852C32.8678 20.8257 33.0275 20.8125 33.1874 20.8125C33.3366 20.8125 33.4797 20.8718 33.5852 20.9773C33.6907 21.0827 33.7499 21.2258 33.7499 21.375C33.7499 21.5242 33.6907 21.6673 33.5852 21.7727C33.4797 21.8782 33.3366 21.9375 33.1874 21.9375C33.0897 21.9374 32.9921 21.9455 32.8957 21.9617C32.8649 21.9669 32.8336 21.9695 32.8024 21.9694Z" fill="#2D76E0"/>
<path id="Vector_19" d="M19.6874 25.875C19.5875 25.8752 19.4877 25.8695 19.3885 25.858C19.3152 25.8497 19.2441 25.8271 19.1795 25.7913C19.1149 25.7556 19.0579 25.7075 19.0119 25.6497C18.9659 25.592 18.9317 25.5257 18.9113 25.4548C18.8909 25.3838 18.8847 25.3095 18.8931 25.2361C18.9005 25.1624 18.9227 25.091 18.9581 25.026C18.9936 24.9609 19.0417 24.9037 19.0997 24.8575C19.1576 24.8113 19.2242 24.7772 19.2955 24.7572C19.3668 24.7371 19.4414 24.7315 19.5149 24.7407C19.5722 24.7468 19.6298 24.7499 19.6874 24.75C19.8366 24.75 19.9796 24.8093 20.0851 24.9148C20.1906 25.0202 20.2499 25.1633 20.2499 25.3125C20.2499 25.4617 20.1906 25.6048 20.0851 25.7102C19.9796 25.8157 19.8366 25.875 19.6874 25.875ZM5.06294 34.3119H0.562378C0.413194 34.3119 0.27012 34.2527 0.16463 34.1472C0.0591412 34.0417 -0.00012207 33.8986 -0.00012207 33.7494C-0.00012207 33.6003 0.0591412 33.4572 0.16463 33.3517C0.27012 33.2462 0.413194 33.1869 0.562378 33.1869H4.50044V18H0.562378C0.413194 18 0.27012 17.9407 0.16463 17.8352C0.0591412 17.7298 -0.00012207 17.5867 -0.00012207 17.4375C-0.00012207 17.2883 0.0591412 17.1452 0.16463 17.0398C0.27012 16.9343 0.413194 16.875 0.562378 16.875H5.06294C5.13682 16.875 5.20998 16.8895 5.27825 16.9177C5.34651 16.946 5.40854 16.9874 5.46078 17.0397C5.51302 17.0919 5.55446 17.1539 5.58271 17.2222C5.61096 17.2905 5.62548 17.3636 5.62544 17.4375V33.7494C5.62548 33.8233 5.61096 33.8965 5.58271 33.9647C5.55446 34.033 5.51303 34.095 5.46078 34.1473C5.40854 34.1995 5.34652 34.241 5.27825 34.2692C5.20999 34.2975 5.13682 34.312 5.06294 34.3119ZM30.3749 17.4375H12.3749C12.301 17.4375 12.2278 17.423 12.1596 17.3948C12.0913 17.3665 12.0293 17.3251 11.977 17.2728C11.9248 17.2206 11.8834 17.1586 11.8551 17.0903C11.8269 17.022 11.8123 16.9489 11.8124 16.875V3.9375C11.8123 3.86362 11.8269 3.79046 11.8551 3.72219C11.8834 3.65393 11.9248 3.5919 11.977 3.53966C12.0293 3.48742 12.0913 3.44599 12.1596 3.41773C12.2278 3.38948 12.301 3.37496 12.3749 3.375H30.3749C30.4488 3.37496 30.5219 3.38948 30.5902 3.41773C30.6585 3.44599 30.7205 3.48742 30.7727 3.53966C30.825 3.5919 30.8664 3.65393 30.8946 3.72219C30.9229 3.79046 30.9374 3.86362 30.9374 3.9375V16.875C30.9374 16.9489 30.9229 17.022 30.8946 17.0903C30.8664 17.1586 30.825 17.2206 30.7727 17.2728C30.7205 17.3251 30.6585 17.3665 30.5902 17.3948C30.5219 17.423 30.4488 17.4375 30.3749 17.4375ZM12.9374 16.3125H29.8124V4.5H12.9374V16.3125Z" fill="#2D76E0"/>
<path id="Vector_20" d="M28.6874 17.4375H14.0624C13.9885 17.4375 13.9153 17.423 13.8471 17.3948C13.7788 17.3665 13.7168 17.3251 13.6645 17.2728C13.6123 17.2206 13.5709 17.1586 13.5426 17.0903C13.5144 17.022 13.4998 16.9489 13.4999 16.875V6.75C13.4998 6.67612 13.5144 6.60296 13.5426 6.53469C13.5709 6.46643 13.6123 6.4044 13.6645 6.35216C13.7168 6.29992 13.7788 6.25849 13.8471 6.23023C13.9153 6.20198 13.9885 6.18746 14.0624 6.1875H28.6874C28.7613 6.18746 28.8344 6.20198 28.9027 6.23023C28.971 6.25849 29.033 6.29992 29.0852 6.35216C29.1375 6.4044 29.1789 6.46643 29.2071 6.53469C29.2354 6.60296 29.2499 6.67612 29.2499 6.75V16.875C29.2499 16.9489 29.2354 17.022 29.2071 17.0903C29.1789 17.1586 29.1375 17.2206 29.0852 17.2728C29.033 17.3251 28.971 17.3665 28.9027 17.3948C28.8344 17.423 28.7613 17.4375 28.6874 17.4375ZM14.6249 16.3125H28.1249V7.3125H14.6249V16.3125Z" fill="#2D76E0"/>
<path id="Vector_21" d="M28.6874 9H14.0624C13.9132 9 13.7701 8.94074 13.6646 8.83525C13.5591 8.72976 13.4999 8.58668 13.4999 8.4375C13.4999 8.28832 13.5591 8.14524 13.6646 8.03975C13.7701 7.93426 13.9132 7.875 14.0624 7.875H28.6874C28.8366 7.875 28.9796 7.93426 29.0851 8.03975C29.1906 8.14524 29.2499 8.28832 29.2499 8.4375C29.2499 8.58668 29.1906 8.72976 29.0851 8.83525C28.9796 8.94074 28.8366 9 28.6874 9ZM28.6874 10.6875H14.0624C13.9132 10.6875 13.7701 10.6282 13.6646 10.5227C13.5591 10.4173 13.4999 10.2742 13.4999 10.125C13.4999 9.97582 13.5591 9.83274 13.6646 9.72725C13.7701 9.62176 13.9132 9.5625 14.0624 9.5625H28.6874C28.8366 9.5625 28.9796 9.62176 29.0851 9.72725C29.1906 9.83274 29.2499 9.97582 29.2499 10.125C29.2499 10.2742 29.1906 10.4173 29.0851 10.5227C28.9796 10.6282 28.8366 10.6875 28.6874 10.6875ZM28.6874 12.375H14.0624C13.9132 12.375 13.7701 12.3157 13.6646 12.2102C13.5591 12.1048 13.4999 11.9617 13.4999 11.8125C13.4999 11.6633 13.5591 11.5202 13.6646 11.4148C13.7701 11.3093 13.9132 11.25 14.0624 11.25H28.6874C28.8366 11.25 28.9796 11.3093 29.0851 11.4148C29.1906 11.5202 29.2499 11.6633 29.2499 11.8125C29.2499 11.9617 29.1906 12.1048 29.0851 12.2102C28.9796 12.3157 28.8366 12.375 28.6874 12.375ZM28.6874 14.0625H14.0624C13.9132 14.0625 13.7701 14.0032 13.6646 13.8977C13.5591 13.7923 13.4999 13.6492 13.4999 13.5C13.4999 13.3508 13.5591 13.2077 13.6646 13.1023C13.7701 12.9968 13.9132 12.9375 14.0624 12.9375H28.6874C28.8366 12.9375 28.9796 12.9968 29.0851 13.1023C29.1906 13.2077 29.2499 13.3508 29.2499 13.5C29.2499 13.6492 29.1906 13.7923 29.0851 13.8977C28.9796 14.0032 28.8366 14.0625 28.6874 14.0625ZM28.6874 15.75H14.0624C13.9132 15.75 13.7701 15.6907 13.6646 15.5852C13.5591 15.4798 13.4999 15.3367 13.4999 15.1875C13.4999 15.0383 13.5591 14.8952 13.6646 14.7898C13.7701 14.6843 13.9132 14.625 14.0624 14.625H28.6874C28.8366 14.625 28.9796 14.6843 29.0851 14.7898C29.1906 14.8952 29.2499 15.0383 29.2499 15.1875C29.2499 15.3367 29.1906 15.4798 29.0851 15.5852C28.9796 15.6907 28.8366 15.75 28.6874 15.75ZM30.9374 4.5H11.8124C11.7385 4.50004 11.6653 4.48552 11.5971 4.45727C11.5288 4.42901 11.4668 4.38758 11.4145 4.33534C11.3623 4.2831 11.3209 4.22107 11.2926 4.15281C11.2644 4.08454 11.2498 4.01138 11.2499 3.9375V2.25C11.2498 2.17612 11.2644 2.10296 11.2926 2.03469C11.3209 1.96643 11.3623 1.9044 11.4145 1.85216C11.4668 1.79992 11.5288 1.75849 11.5971 1.73023C11.6653 1.70198 11.7385 1.68746 11.8124 1.6875H30.9374C31.0113 1.68746 31.0844 1.70198 31.1527 1.73023C31.221 1.75849 31.283 1.79992 31.3352 1.85216C31.3875 1.9044 31.4289 1.96643 31.4571 2.03469C31.4854 2.10296 31.4999 2.17612 31.4999 2.25V3.9375C31.4999 4.01138 31.4854 4.08454 31.4571 4.15281C31.4289 4.22107 31.3875 4.2831 31.3352 4.33534C31.283 4.38758 31.221 4.42901 31.1527 4.45727C31.0844 4.48552 31.0113 4.50004 30.9374 4.5ZM12.3749 3.375H30.3749V2.8125H12.3749V3.375ZM30.9374 17.4375H11.8124C11.6632 17.4375 11.5201 17.3782 11.4146 17.2727C11.3091 17.1673 11.2499 17.0242 11.2499 16.875C11.2499 16.7258 11.3091 16.5827 11.4146 16.4773C11.5201 16.3718 11.6632 16.3125 11.8124 16.3125H30.9374C31.0866 16.3125 31.2296 16.3718 31.3351 16.4773C31.4406 16.5827 31.4999 16.7258 31.4999 16.875C31.4999 17.0242 31.4406 17.1673 31.3351 17.2727C31.2296 17.3782 31.0866 17.4375 30.9374 17.4375Z" fill="#2D76E0"/>
</g>
<defs>
<clipPath id="clip0_2261_11966">
<rect width="36" height="36" fill="white"/>
</clipPath>
</defs>
</svg>
