<svg width="16" height="16" viewBox="0 0 16 16" fill="none" xmlns="http://www.w3.org/2000/svg">
<g id="vuesax/outline/call-outgoing">
<g id="call-outgoing">
<path id="Vector" d="M8.83179 12.863C8.68859 12.9662 8.54494 13.0657 8.40101 13.1615C8.54631 13.064 8.69081 12.9627 8.83432 12.8577M8.83179 12.863L14.646 6.74065M8.83179 12.863C9.59098 12.3049 10.3248 11.6816 11.02 10.9996M8.83179 12.863L11.3727 11.354M8.83432 12.8577C8.83439 12.8577 8.83447 12.8576 8.83455 12.8575L8.53935 12.454L8.83408 12.8579C8.83416 12.8578 8.83424 12.8578 8.83432 12.8577ZM8.83432 12.8577C9.59472 12.3028 10.3337 11.6733 11.0178 10.996L11.0213 10.9925L11.0213 10.9924C11.7054 10.3016 12.3285 9.56901 12.8771 8.81474C13.4298 8.05477 13.8696 7.2886 14.1863 6.5427L14.1865 6.54214C14.2073 6.4929 14.2275 6.44368 14.247 6.39448M14.247 6.39448C14.5302 5.67484 14.666 4.9925 14.666 4.36065C14.666 5.01243 14.5223 5.7005 14.247 6.39448ZM14.247 6.39448C14.2271 6.44503 14.2065 6.49576 14.1852 6.54667M14.1852 6.54667C14.1853 6.54648 14.1853 6.54628 14.1854 6.54609L14.646 6.74065M14.1852 6.54667C14.1851 6.54688 14.185 6.54708 14.1849 6.54729L14.646 6.74065M14.1852 6.54667C13.8757 7.27912 13.4361 8.04596 12.8811 8.82059M14.646 6.74065C14.3193 7.51398 13.8593 8.31398 13.286 9.11399C12.7193 9.88732 12.0793 10.6407 11.3727 11.354M12.8811 8.82059C12.8817 8.81988 12.8822 8.81916 12.8827 8.81845L13.286 9.11397L12.8796 8.82273C12.8801 8.82201 12.8806 8.8213 12.8811 8.82059ZM12.8811 8.82059C12.33 9.57248 11.7074 10.3054 11.02 10.9996M11.02 10.9996C11.0208 10.9988 11.0216 10.9979 11.0225 10.9971L11.3727 11.354M11.02 10.9996C11.0191 11.0004 11.0183 11.0013 11.0175 11.0021L11.3727 11.354M10.4068 6.94872C10.3434 7.05972 10.2471 7.20819 10.102 7.39925C10.2414 7.21681 10.346 7.05979 10.4195 6.92721L10.4241 6.91591C10.4228 6.9184 10.4217 6.92064 10.4207 6.92259L10.4199 6.92426L10.4137 6.93667L10.4068 6.94872ZM10.4742 6.79054L10.4764 6.78512C10.4767 6.78366 10.4771 6.78222 10.4775 6.78079L10.4742 6.79054ZM10.3538 6.30814L10.4589 6.41788C10.4429 6.39021 10.4229 6.36469 10.3991 6.34087L10.3991 6.34094L10.3923 6.33387L9.89553 5.81726C9.74337 5.66464 9.61651 5.50761 9.52413 5.35159C9.43493 5.20523 9.3808 5.04613 9.37938 4.87429C9.37936 4.87642 9.37935 4.87854 9.37935 4.88065C9.37935 5.03368 9.42281 5.19237 9.52143 5.35674L9.52572 5.36388L9.52976 5.37116C9.60056 5.4986 9.7211 5.6553 9.8929 5.8271L9.89299 5.82702L9.90045 5.83481L10.3538 6.30814ZM11.5934 1.52825C11.5299 1.56861 11.4722 1.61452 11.4205 1.6659C11.4734 1.61431 11.531 1.5684 11.5934 1.52825ZM12.1203 1.34338C11.9995 1.35808 11.8806 1.38954 11.7745 1.43422C11.8822 1.39048 11.9984 1.35836 12.1203 1.34338ZM12.2727 1.33398C12.7782 1.33398 13.2191 1.54951 13.6003 1.9037C13.1818 1.50965 12.7338 1.33398 12.2727 1.33398ZM14.4273 3.07015C14.2863 2.71271 14.0671 2.37287 13.7693 2.06815C14.063 2.37025 14.2804 2.70405 14.4239 3.06907C14.4778 3.20286 14.5223 3.33872 14.5578 3.47668C14.5226 3.33788 14.479 3.20234 14.4273 3.07015ZM1.52087 12.9415C1.50716 12.9128 1.49426 12.8839 1.48217 12.8548C1.49561 12.8887 1.51014 12.9224 1.52578 12.9559C1.64458 13.2105 1.78963 13.4277 1.97459 13.6295L1.97678 13.6319C2.31283 14.0033 2.6653 14.2554 3.06616 14.4169L3.06736 14.4173C3.46731 14.5796 3.90344 14.6673 4.36602 14.6673C5.03941 14.6673 5.76619 14.5064 6.53761 14.1803C6.78705 14.0742 7.03798 13.9549 7.28945 13.823C7.04044 13.9526 6.79051 14.07 6.54054 14.1746C5.33484 14.689 4.11943 14.847 3.06796 14.4092C2.65507 14.239 2.29486 13.9806 1.9754 13.623C1.7879 13.4186 1.6409 13.1971 1.52087 12.9415Z" fill="white" stroke="white"/>
<path id="Vector_2" d="M2.66719 6.36602C2.94052 6.36602 3.16719 6.13935 3.16719 5.86602L3.16719 3.16602L5.86719 3.16602C6.14052 3.16602 6.36719 2.93935 6.36719 2.66602C6.36719 2.39268 6.14052 2.16602 5.86719 2.16602L2.66719 2.16602C2.39385 2.16602 2.16719 2.39268 2.16719 2.66602L2.16719 5.86602C2.16719 6.13935 2.39385 6.36602 2.66719 6.36602Z" fill="white"/>
</g>
</g>
</svg>
