<svg width="30" height="27" viewBox="0 0 30 27" fill="none" xmlns="http://www.w3.org/2000/svg">
<g id="Camera">
<path id="Rectangle 74" d="M1.64355 11.8223C1.64355 8.93389 3.98507 6.59238 6.87348 6.59238V6.59238C7.71033 6.59238 8.46666 6.09366 8.79631 5.32447L9.20566 4.36931C9.83056 2.91121 11.2643 1.96582 12.8506 1.96582H14.8623H16.8739C18.4603 1.96582 19.894 2.91121 20.5189 4.36931L20.9283 5.32447C21.2579 6.09366 22.0142 6.59238 22.8511 6.59238V6.59238C25.7395 6.59238 28.081 8.93389 28.081 11.8223V18.4892C28.081 22.1395 25.1219 25.0986 21.4716 25.0986H8.25292C4.60267 25.0986 1.64355 22.1395 1.64355 18.4892V11.8223Z" stroke="#717171" stroke-width="1.98281"/>
<circle id="Ellipse 33" cx="3.96562" cy="3.96562" r="3.96562" transform="matrix(-1 0 0 1 18.8281 10.5576)" stroke="#717171" stroke-width="1.98281"/>
</g>
</svg>
