<svg width="24" height="21" viewBox="0 0 24 21" fill="none" xmlns="http://www.w3.org/2000/svg">
<g id="Group">
<g id="Group_2">
<g id="Group_3">
<path id="Vector" d="M19.3115 16.3604H22.6004V18.827C22.6004 19.2809 22.2321 19.6492 21.7782 19.6492H20.1337C19.6799 19.6492 19.3115 19.2809 19.3115 18.827V16.3604Z" stroke="#717171" stroke-width="1.64444"/>
</g>
<g id="Group_4">
<path id="Vector_2" d="M1.22266 16.3604H4.51155V18.827C4.51155 19.2809 4.14319 19.6492 3.68932 19.6492H2.04488C1.59101 19.6492 1.22266 19.2809 1.22266 18.827V16.3604Z" stroke="#717171" stroke-width="1.64444"/>
</g>
</g>
<g id="Group_5">
<g id="Group_6">
<path id="Vector_3" d="M4.51154 8.13477H19.3115C21.1278 8.13477 22.6004 9.60737 22.6004 11.4237V15.5348C22.6004 15.9886 22.2321 16.357 21.7782 16.357H2.04488C1.59101 16.357 1.22266 15.9886 1.22266 15.5348V11.4237C1.22266 9.60737 2.69526 8.13477 4.51154 8.13477Z" stroke="#717171" stroke-width="1.64444"/>
</g>
<g id="Group_7">
<path id="Vector_4" d="M19.3115 11.4238C19.7653 11.4238 20.1337 11.7922 20.1337 12.2461C20.1337 12.6999 19.7653 13.0683 19.3115 13.0683C18.8576 13.0683 18.4893 12.6999 18.4893 12.2461C18.4893 11.7922 18.8576 11.4238 19.3115 11.4238Z" fill="#717171"/>
</g>
<g id="Group_8">
<path id="Vector_5" d="M4.51119 11.4238C4.96505 11.4238 5.33341 11.7922 5.33341 12.2461C5.33341 12.6999 4.96505 13.0683 4.51119 13.0683C4.05732 13.0683 3.68896 12.6999 3.68896 12.2461C3.68896 11.7922 4.05732 11.4238 4.51119 11.4238Z" fill="#717171"/>
</g>
<g id="Group_9">
<path id="Vector_6" d="M5.90317 1.55762H17.9191C18.262 1.55762 18.5687 1.77057 18.6887 2.09124L20.9556 8.1354H2.8667L5.13357 2.09124C5.25361 1.77057 5.5603 1.55762 5.90317 1.55762Z" stroke="#717171" stroke-width="1.64444"/>
</g>
<g id="Group_10">
<path id="Vector_7" d="M0.400391 5.66895H2.86706V7.31339H0.400391V5.66895Z" fill="#717171"/>
</g>
<g id="Group_11">
<path id="Vector_8" d="M20.9561 5.66895H23.4227V7.31339H20.9561V5.66895Z" fill="#717171"/>
</g>
<g id="Group_12">
<path id="Vector_9" d="M6.97852 12.2461H16.8452" stroke="#717171" stroke-width="1.64444"/>
</g>
</g>
</g>
</svg>
