<svg width="24" height="24" viewBox="0 0 24 24" fill="none" xmlns="http://www.w3.org/2000/svg">
<g id="Cctv">
<path id="Vector" d="M20.916 9.56438C20.9688 9.4443 20.9975 9.31499 21.0003 9.18383C21.0031 9.05268 20.98 8.92225 20.9323 8.80002C20.8847 8.6778 20.8134 8.56616 20.7226 8.47151C20.6318 8.37685 20.5232 8.30103 20.403 8.24838L7.328 2.49238C6.333 2.05438 5.108 2.54338 4.683 3.53438L2.473 8.68838C2.26509 9.17591 2.25909 9.72601 2.45632 10.218C2.65354 10.7099 3.03789 11.1035 3.525 11.3124L9.563 13.9004L8.323 17.0004H4V14.0004H2V22.0004H4V19.0004H8.323C9.146 19.0004 9.875 18.5064 10.179 17.7424L11.401 14.6884L16.606 16.9184C16.8484 17.0224 17.1221 17.0264 17.3674 16.9296C17.6128 16.8328 17.81 16.6429 17.916 16.4014L18.228 15.6914L19.929 16.3714L21.929 11.3714L20.393 10.7584L20.916 9.56438ZM16.482 14.6904L4.313 9.47538L6.521 4.32338L18.683 9.67738L16.482 14.6904Z" fill="#717171"/>
</g>
</svg>
