<svg width="14" height="14" viewBox="0 0 14 14" fill="none" xmlns="http://www.w3.org/2000/svg">
<g id="Edit 2">
<path id="Union" fill-rule="evenodd" clip-rule="evenodd" d="M11.2803 1.38654C10.7075 0.81616 9.77918 0.816509 9.20684 1.38732L4.78018 5.803C4.42613 6.15611 4.21798 6.62879 4.19691 7.12753L4.1339 8.61944C4.1052 9.29877 4.65007 9.86514 5.33234 9.86517L6.80016 9.86523C7.33906 9.86526 7.85515 9.64847 8.23144 9.26401L12.6225 4.76376C13.183 4.19103 13.1771 3.27551 12.6093 2.71L11.2803 1.38654ZM9.77253 1.95065C10.0327 1.69119 10.4546 1.69103 10.715 1.9503L12.044 3.27375C12.3021 3.53081 12.3048 3.94695 12.05 4.20728L11.1681 5.10833L8.88554 2.83528L9.77253 1.95065ZM8.32028 3.39904L5.34587 6.36633C5.13344 6.57819 5.00855 6.86181 4.99591 7.16105L4.93289 8.65296C4.92333 8.8794 5.10495 9.06819 5.33237 9.0682L6.80019 9.06826C7.12354 9.06828 7.43319 8.9382 7.65896 8.70753L10.6097 5.67889L8.32028 3.39904Z" fill="#89939E"/>
<path id="Rectangle 74" d="M11.8516 7.49023V9.86523C11.8516 11.5048 10.5224 12.834 8.88281 12.834H4.13281C2.49322 12.834 1.16406 11.5048 1.16406 9.86523V5.11523C1.16406 3.47564 2.49322 2.14648 4.13281 2.14648H6.50781" stroke="#89939E" stroke-width="0.890625" stroke-linecap="round"/>
</g>
</svg>
