<svg width="19" height="20" viewBox="0 0 19 20" fill="none" xmlns="http://www.w3.org/2000/svg">
<g id="Group">
<g id="Group_2">
<g id="Group_3">
<path id="Vector" d="M4.66683 0.666992C6.27616 0.666992 7.59016 1.93433 7.6635 3.52566L7.66683 3.66699V6.79899L11.2702 4.13099C11.4888 3.96899 11.7815 3.95833 12.0095 4.09499L12.0835 4.14633L15.6668 7.01366V4.66699H17.0002V8.08033L18.7502 9.47966L17.9168 10.521L17.0002 9.78699L16.9995 12.667H18.3335C18.6755 12.667 18.9575 12.9243 18.9955 13.2557L19.0002 13.3337V18.667C19.0002 19.009 18.7428 19.291 18.4115 19.329L18.3335 19.3337H0.333496V18.0003H5.3635L6.53016 16.667H0.333496V15.3337H7.66683V15.3683L8.8635 14.0003H0.333496V12.667H1.66683V3.66699C1.66683 2.01033 3.01016 0.666992 4.66683 0.666992ZM12.8635 14.0003H10.6355L7.1355 18.0003H9.3635L12.8635 14.0003ZM17.6668 15.107L15.1355 18.0003H17.6668V15.107ZM16.8635 14.0003H14.6355L11.1355 18.0003H13.3635L16.8635 14.0003ZM15.6668 8.72033L11.6508 5.50766L7.66683 8.45833V12.667H9.66616L9.66683 10.0003C9.66683 9.65833 9.92416 9.37633 10.2555 9.33833L10.3335 9.33366H13.0002C13.3422 9.33366 13.6242 9.59099 13.6622 9.92233L13.6668 10.0003L13.6662 12.667H15.6662L15.6668 8.72033ZM4.66683 2.00033C3.7835 2.00033 3.06016 2.68833 3.0035 3.55766L3.00016 3.66699V12.667H6.3335V3.66699C6.3335 2.74633 5.5875 2.00033 4.66683 2.00033ZM12.3335 10.667H11.0002V12.667H12.3335V10.667Z" fill="#717171"/>
</g>
</g>
</g>
</svg>
