<svg width="19" height="20" viewBox="0 0 19 20" fill="none" xmlns="http://www.w3.org/2000/svg">
<g id="Group">
<g id="Group_2">
<g id="Group_3">
<path id="Vector" d="M17.6668 4.00326H12.3335V2.00326C12.3328 1.64992 12.1922 1.31059 11.9422 1.06059C11.6928 0.811255 11.3535 0.670589 11.0002 0.669922H1.66683C1.3135 0.670589 0.974164 0.810589 0.724163 1.06059C0.474163 1.31059 0.334163 1.64992 0.333496 2.00326V18.0033C0.334163 18.3566 0.47483 18.6959 0.724163 18.9453C0.974164 19.1953 1.3135 19.3359 1.66683 19.3366H17.6668C18.0202 19.3359 18.3588 19.1953 18.6089 18.9453C18.8589 18.6953 18.9995 18.3566 19.0002 18.0033V5.33659C18.9995 4.98326 18.8589 4.64393 18.6089 4.39393C18.3595 4.14459 18.0202 4.00393 17.6668 4.00326ZM7.66684 18.0033H5.00017V14.6699H7.66684V18.0033ZM11.0002 18.0033H9.00017V14.6699C8.99951 14.3166 8.85884 13.9773 8.60884 13.7279C8.3595 13.4779 8.02017 13.3373 7.66684 13.3366H5.00017C4.64683 13.3373 4.3075 13.4779 4.0575 13.7279C3.80817 13.9773 3.6675 14.3166 3.66683 14.6699V18.0033H1.66683L1.66616 2.00326H11.0002V18.0033ZM17.6668 18.0033H12.3335V5.33659H17.6668V18.0033ZM15.6668 10.0033C15.6668 10.1353 15.6275 10.2639 15.5542 10.3739C15.4815 10.4833 15.3768 10.5686 15.2555 10.6193C15.1335 10.6699 14.9995 10.6826 14.8702 10.6573C14.7408 10.6313 14.6222 10.5679 14.5288 10.4746C14.4355 10.3813 14.3722 10.2626 14.3462 10.1333C14.3208 10.0039 14.3335 9.86993 14.3842 9.74793C14.4348 9.6266 14.5202 9.52193 14.6295 9.44926C14.7395 9.37593 14.8682 9.3366 15.0002 9.3366C15.1768 9.3366 15.3468 9.4066 15.4715 9.53193C15.5968 9.6566 15.6668 9.8266 15.6668 10.0033ZM14.3335 7.3366C14.3335 7.2046 14.3728 7.07593 14.4462 6.96593C14.5188 6.8566 14.6235 6.77126 14.7448 6.7206C14.8668 6.66993 15.0008 6.65726 15.1302 6.6826C15.2595 6.7086 15.3782 6.77193 15.4715 6.86526C15.5648 6.9586 15.6282 7.07726 15.6542 7.2066C15.6795 7.33593 15.6668 7.46993 15.6162 7.59193C15.5655 7.71326 15.4802 7.81793 15.3708 7.8906C15.2608 7.96393 15.1322 8.00326 15.0002 8.00326C14.8235 8.00326 14.6535 7.93326 14.5288 7.80793C14.4035 7.68326 14.3335 7.51326 14.3335 7.3366ZM9.00017 10.0033C9.00017 10.1353 8.96084 10.2639 8.88751 10.3739C8.81484 10.4833 8.71017 10.5686 8.58884 10.6193C8.46684 10.6699 8.33284 10.6826 8.20351 10.6573C8.07417 10.6313 7.9555 10.5679 7.86217 10.4746C7.76884 10.3813 7.7055 10.2626 7.6795 10.1333C7.65417 10.0039 7.66684 9.86993 7.7175 9.74793C7.76817 9.6266 7.8535 9.52193 7.96284 9.44926C8.07284 9.37593 8.2015 9.3366 8.3335 9.3366C8.51017 9.3366 8.68017 9.4066 8.80484 9.53193C8.93017 9.6566 9.00017 9.8266 9.00017 10.0033ZM9.00017 7.3366C9.00017 7.4686 8.96084 7.59726 8.88751 7.70726C8.81484 7.8166 8.71017 7.90193 8.58884 7.9526C8.46684 8.00326 8.33284 8.01593 8.20351 7.9906C8.07417 7.9646 7.9555 7.90126 7.86217 7.80793C7.76884 7.7146 7.7055 7.59593 7.6795 7.4666C7.65417 7.33726 7.66684 7.20326 7.7175 7.08126C7.76817 6.95993 7.8535 6.85526 7.96284 6.7826C8.07284 6.70926 8.2015 6.66993 8.3335 6.66993C8.51017 6.66993 8.68017 6.73993 8.80484 6.86526C8.93017 6.98993 9.00017 7.15993 9.00017 7.3366ZM9.00017 4.66993C9.00017 4.80193 8.96084 4.93059 8.88751 5.04059C8.81484 5.14993 8.71017 5.23526 8.58884 5.28593C8.46684 5.33659 8.33284 5.34926 8.20351 5.32393C8.07417 5.29793 7.9555 5.23459 7.86217 5.14126C7.76884 5.04793 7.7055 4.92926 7.6795 4.79993C7.65417 4.67059 7.66684 4.53659 7.7175 4.41459C7.76817 4.29326 7.8535 4.18859 7.96284 4.11593C8.07284 4.04259 8.2015 4.00326 8.3335 4.00326C8.51017 4.00326 8.68017 4.07326 8.80484 4.19859C8.93017 4.32326 9.00017 4.49326 9.00017 4.66993ZM5.00017 10.0033C5.00017 10.1353 4.96083 10.2639 4.8875 10.3739C4.81483 10.4833 4.71017 10.5686 4.58883 10.6193C4.46683 10.6699 4.33283 10.6826 4.2035 10.6573C4.07417 10.6313 3.9555 10.5679 3.86217 10.4746C3.76883 10.3813 3.7055 10.2626 3.6795 10.1333C3.65417 10.0039 3.66683 9.86993 3.7175 9.74793C3.76817 9.6266 3.8535 9.52193 3.96283 9.44926C4.07283 9.37593 4.2015 9.3366 4.3335 9.3366C4.51017 9.3366 4.68017 9.4066 4.80483 9.53193C4.93017 9.6566 5.00017 9.8266 5.00017 10.0033ZM5.00017 7.3366C5.00017 7.4686 4.96083 7.59726 4.8875 7.70726C4.81483 7.8166 4.71017 7.90193 4.58883 7.9526C4.46683 8.00326 4.33283 8.01593 4.2035 7.9906C4.07417 7.9646 3.9555 7.90126 3.86217 7.80793C3.76883 7.7146 3.7055 7.59593 3.6795 7.4666C3.65417 7.33726 3.66683 7.20326 3.7175 7.08126C3.76817 6.95993 3.8535 6.85526 3.96283 6.7826C4.07283 6.70926 4.2015 6.66993 4.3335 6.66993C4.51017 6.66993 4.68017 6.73993 4.80483 6.86526C4.93017 6.98993 5.00017 7.15993 5.00017 7.3366ZM5.00017 4.66993C5.00017 4.80193 4.96083 4.93059 4.8875 5.04059C4.81483 5.14993 4.71017 5.23526 4.58883 5.28593C4.46683 5.33659 4.33283 5.34926 4.2035 5.32393C4.07417 5.29793 3.9555 5.23459 3.86217 5.14126C3.76883 5.04793 3.7055 4.92926 3.6795 4.79993C3.65417 4.67059 3.66683 4.53659 3.7175 4.41459C3.76817 4.29326 3.8535 4.18859 3.96283 4.11593C4.07283 4.04259 4.2015 4.00326 4.3335 4.00326C4.51017 4.00326 4.68017 4.07326 4.80483 4.19859C4.93017 4.32326 5.00017 4.49326 5.00017 4.66993Z" fill="#717171"/>
</g>
</g>
</g>
</svg>
