<svg width="21" height="20" viewBox="0 0 21 20" fill="none" xmlns="http://www.w3.org/2000/svg">
<g id="Group">
<g id="Group_2">
<g id="Group_3">
<path id="Vector" d="M12.1032 0.855215L12.2198 0.964548L20.9345 9.52588L19.9998 10.4765L18.7998 9.29788L18.8005 18.3345C18.8005 19.0372 18.2565 19.6132 17.5665 19.6639L17.4672 19.6679H4.13384C3.43117 19.6679 2.85517 19.1239 2.80384 18.4339L2.8005 18.3345L2.79984 9.29855L1.60117 10.4765L0.666504 9.52588L9.37184 0.973215C10.1138 0.215881 11.3105 0.173882 12.1032 0.855215ZM10.3792 1.85788L10.3152 1.91588L4.13317 7.98855L4.13384 18.3345L7.4665 18.3339L7.46717 11.6679C7.46717 10.9652 8.01117 10.3892 8.70117 10.3379L8.8005 10.3345H12.8005C13.5032 10.3345 14.0792 10.8785 14.1305 11.5685L14.1338 11.6679L14.1332 18.3339L17.4672 18.3345L17.4665 7.98788L11.2672 1.89721C11.0245 1.65922 10.6458 1.64455 10.3792 1.85788ZM12.8005 11.6679H8.8005L8.79984 18.3339H12.7998L12.8005 11.6679Z" fill="#717171"/>
</g>
</g>
</g>
</svg>
