<svg width="60" height="60" viewBox="0 0 60 60" fill="none" xmlns="http://www.w3.org/2000/svg">
<rect width="60" height="60" rx="8" fill="#E7F0FA" fill-opacity="0.4"/>
<path d="M36 46.1256H24C17.07 46.1256 15.78 42.9006 15.45 39.7656L14.325 27.7506C14.16 26.1756 14.115 23.8506 15.675 22.1106C17.025 20.6106 19.26 19.8906 22.5 19.8906H37.5C40.755 19.8906 42.99 20.6256 44.325 22.1106C45.885 23.8506 45.84 26.1756 45.675 27.7656L44.55 39.7506C44.22 42.9006 42.93 46.1256 36 46.1256ZM22.5 22.1256C19.965 22.1256 18.225 22.6206 17.34 23.6106C16.605 24.4206 16.365 25.6656 16.56 27.5256L17.685 39.5406C17.94 41.9106 18.585 43.8756 24 43.8756H36C41.4 43.8756 42.06 41.9106 42.315 39.5256L43.44 27.5406C43.635 25.6656 43.395 24.4206 42.66 23.6106C41.775 22.6206 40.035 22.1256 37.5 22.1256H22.5Z" fill="#2D76E0"/>
<path d="M36 22.125C35.385 22.125 34.875 21.615 34.875 21V19.8C34.875 17.13 34.875 16.125 31.2 16.125H28.8C25.125 16.125 25.125 17.13 25.125 19.8V21C25.125 21.615 24.615 22.125 24 22.125C23.385 22.125 22.875 21.615 22.875 21V19.8C22.875 17.16 22.875 13.875 28.8 13.875H31.2C37.125 13.875 37.125 17.16 37.125 19.8V21C37.125 21.615 36.615 22.125 36 22.125Z" fill="#2D76E0"/>
<path d="M30 37.125C25.875 37.125 25.875 34.575 25.875 33.045V31.5C25.875 29.385 26.385 28.875 28.5 28.875H31.5C33.615 28.875 34.125 29.385 34.125 31.5V33C34.125 34.56 34.125 37.125 30 37.125ZM28.125 31.125C28.125 31.245 28.125 31.38 28.125 31.5V33.045C28.125 34.59 28.125 34.875 30 34.875C31.875 34.875 31.875 34.635 31.875 33.03V31.5C31.875 31.38 31.875 31.245 31.875 31.125C31.755 31.125 31.62 31.125 31.5 31.125H28.5C28.38 31.125 28.245 31.125 28.125 31.125Z" fill="#2D76E0"/>
<path d="M33 34.1563C32.445 34.1563 31.95 33.7363 31.89 33.1663C31.815 32.5513 32.25 31.9813 32.865 31.9063C36.825 31.4113 40.62 29.9113 43.815 27.5863C44.31 27.2113 45.015 27.3313 45.39 27.8413C45.75 28.3363 45.645 29.0413 45.135 29.4163C41.625 31.9663 37.485 33.6013 33.135 34.1563C33.09 34.1563 33.045 34.1563 33 34.1563Z" fill="#2D76E0"/>
<path d="M27 34.1713C26.955 34.1713 26.91 34.1713 26.865 34.1713C22.755 33.7063 18.75 32.2063 15.285 29.8363C14.775 29.4913 14.64 28.7863 14.985 28.2763C15.33 27.7663 16.035 27.6313 16.545 27.9763C19.71 30.1363 23.355 31.5013 27.105 31.9363C27.72 32.0113 28.17 32.5663 28.095 33.1813C28.05 33.7513 27.57 34.1713 27 34.1713Z" fill="#2D76E0"/>
</svg>
