<svg width="36" height="36" viewBox="0 0 36 36" fill="none" xmlns="http://www.w3.org/2000/svg">
<g id="investation 1">
<path id="Vector" fill-rule="evenodd" clip-rule="evenodd" d="M18 3.375C12.4121 3.375 7.87495 7.91213 7.87495 13.5C7.87495 15.417 8.40933 17.2114 9.33633 18.7391C6.6217 18.666 4.3087 19.503 4.3087 19.503C3.86208 19.6672 3.56733 20.0936 3.57183 20.5695C3.57183 20.5695 3.68208 27.0653 7.6837 30.2344C11.2792 33.0829 16.8401 32.3033 17.9111 32.1199C18.3341 32.2031 24.4665 33.3461 28.3196 30.2929C32.3201 27.1238 32.4067 20.5987 32.4067 20.5987C32.4101 20.1262 32.1165 19.7033 31.6743 19.5379C31.6743 19.5379 29.367 18.6941 26.6568 18.7515C27.5883 17.2204 28.125 15.4226 28.125 13.5C28.125 7.91213 23.5878 3.375 18 3.375ZM22.2615 22.6856L22.2603 22.6868C20.5571 24.3833 19.8146 27.0619 19.4917 28.9328L24.0873 24.3371C24.5261 23.8984 25.2393 23.8984 25.6781 24.3371C26.1168 24.7759 26.1168 25.4891 25.6781 25.9279L21.4121 30.1939C23.1446 30.1714 25.2866 29.8249 26.9223 28.5289C29.3973 26.5691 29.979 23.0096 30.1151 21.4076C28.9136 21.0836 26.514 20.6314 24.3438 21.3908L24.3427 21.3896C23.7071 21.9015 23.0096 22.338 22.2615 22.6856ZM11.6797 21.4088C9.50283 20.6123 7.0807 21.0555 5.86795 21.3761C6.01195 22.977 6.60933 26.5129 9.08095 28.4715C10.6008 29.6753 12.5527 30.0656 14.2076 30.1388L10.0946 26.0258C9.65583 25.5859 9.65583 24.8738 10.0946 24.4339C10.5333 23.9951 11.2466 23.9951 11.6853 24.4339L16.5487 29.2972C16.2562 27.4207 15.516 24.462 13.6642 22.6519C12.9532 22.3144 12.2883 21.8948 11.6797 21.4088ZM17.0493 23.5811C17.4307 24.3236 17.739 25.0999 17.9865 25.857C18.2306 25.0999 18.5355 24.3259 18.9146 23.5845C18.6142 23.6374 17.3621 23.6374 17.0493 23.5811ZM16.875 5.70487C13.0601 6.25163 10.125 9.5355 10.125 13.5C10.125 17.4645 13.0601 20.7484 16.875 21.2951V19.1081H15.75C15.129 19.1081 14.625 18.6041 14.625 17.9831C14.625 17.3621 15.129 16.8581 15.75 16.8581H19.125C19.746 16.8581 20.25 16.3541 20.25 15.7331C20.25 15.1121 19.746 14.6081 19.125 14.6081H16.875C15.012 14.6081 13.5 13.0961 13.5 11.2331C13.5 9.37125 15.012 7.85813 16.875 7.85813V5.70487ZM19.125 5.70487V7.85813H20.25C20.871 7.85813 21.375 8.36213 21.375 8.98313C21.375 9.60413 20.871 10.1081 20.25 10.1081H16.875C16.254 10.1081 15.75 10.6121 15.75 11.2331C15.75 11.8541 16.254 12.3581 16.875 12.3581H19.125C20.988 12.3581 22.5 13.8712 22.5 15.7331C22.5 17.5961 20.988 19.1081 19.125 19.1081V21.2951C22.9398 20.7484 25.875 17.4645 25.875 13.5C25.875 9.5355 22.9398 6.25163 19.125 5.70487Z" fill="url(#paint0_linear_2261_22210)"/>
</g>
<defs>
<linearGradient id="paint0_linear_2261_22210" x1="5.62498" y1="21.9375" x2="32.625" y2="20.25" gradientUnits="userSpaceOnUse">
<stop stop-color="#2D76E0"/>
<stop offset="1" stop-color="#9BC9FF"/>
</linearGradient>
</defs>
</svg>
