<svg width="21" height="20" viewBox="0 0 21 20" fill="none" xmlns="http://www.w3.org/2000/svg">
<g id="map-marker-radius" clip-path="url(#clip0_381_1073)">
<path id="Vector" d="M10.2272 1.82227C12.9472 1.82227 15.1577 4.00809 15.1577 6.71161C15.1577 10.3766 10.2272 15.7918 10.2272 15.7918C10.2272 15.7918 5.2968 10.3766 5.2968 6.71161C5.2968 4.00809 7.50728 1.82227 10.2272 1.82227ZM10.2272 5.10922C9.79136 5.10922 9.37333 5.28237 9.06512 5.59059C8.75691 5.8988 8.58376 6.31682 8.58376 6.7527C8.58376 7.18858 8.75691 7.6066 9.06512 7.91481C9.37333 8.22303 9.79136 8.39618 10.2272 8.39618C10.6631 8.39618 11.0811 8.22303 11.3893 7.91481C11.6976 7.6066 11.8707 7.18858 11.8707 6.7527C11.8707 6.31682 11.6976 5.8988 11.3893 5.59059C11.0811 5.28237 10.6631 5.10922 10.2272 5.10922ZM16.8011 15.7918C16.8011 17.6079 13.8593 19.0788 10.2272 19.0788C6.59515 19.0788 3.65332 17.6079 3.65332 15.7918C3.65332 14.7318 4.65584 13.7868 6.20893 13.1869L6.73484 13.9347C5.84736 14.3045 5.2968 14.814 5.2968 15.381C5.2968 16.515 7.50728 17.4353 10.2272 17.4353C12.9472 17.4353 15.1577 16.515 15.1577 15.381C15.1577 14.814 14.6071 14.3045 13.7196 13.9347L14.2455 13.1869C15.7986 13.7868 16.8011 14.7318 16.8011 15.7918Z" fill="#89939E"/>
</g>
<defs>
<clipPath id="clip0_381_1073">
<rect width="19.7217" height="19.7217" fill="white" transform="translate(0.366211 0.178711)"/>
</clipPath>
</defs>
</svg>
