<svg width="21" height="21" viewBox="0 0 21 21" fill="none" xmlns="http://www.w3.org/2000/svg">
<g id="vuesax/linear/messages">
<g id="messages">
<g id="Group">
<path id="Vector" d="M15.5761 9.14429V12.5341C15.5761 12.7545 15.5676 12.9663 15.5422 13.1697C15.3473 15.4578 13.9998 16.5934 11.5167 16.5934H11.1778C10.9659 16.5934 10.7625 16.6951 10.6354 16.8646L9.61845 18.2206C9.16929 18.8222 8.44047 18.8222 7.99132 18.2206L6.97436 16.8646C6.86419 16.7205 6.61844 16.5934 6.432 16.5934H6.09302C3.38963 16.5934 2.03369 15.924 2.03369 12.5341V9.14429C2.03369 6.66124 3.17777 5.31378 5.45743 5.11887C5.66082 5.09344 5.87268 5.08496 6.09302 5.08496H11.5167C14.2201 5.08496 15.5761 6.4409 15.5761 9.14429Z" stroke="#89939E" stroke-width="1.27119" stroke-miterlimit="10" stroke-linecap="round" stroke-linejoin="round"/>
</g>
<path id="Vector_2" d="M18.966 5.75415V9.14398C18.966 11.6355 17.8219 12.9745 15.5423 13.1694C15.5677 12.966 15.5762 12.7542 15.5762 12.5338V9.14398C15.5762 6.44059 14.2202 5.08465 11.5168 5.08465H6.09311C5.87277 5.08465 5.66091 5.09314 5.45752 5.11856C5.65243 2.8389 6.99989 1.69482 9.48294 1.69482H14.9067C17.6101 1.69482 18.966 3.05076 18.966 5.75415Z" stroke="#89939E" stroke-width="1.27119" stroke-miterlimit="10" stroke-linecap="round" stroke-linejoin="round"/>
<path id="Vector_3" d="M11.7759 11.2289H11.7835" stroke="#89939E" stroke-width="1.69492" stroke-linecap="round" stroke-linejoin="round"/>
<path id="Vector_4" d="M8.80956 11.2289H8.81719" stroke="#89939E" stroke-width="1.69492" stroke-linecap="round" stroke-linejoin="round"/>
<path id="Vector_5" d="M5.84374 11.2289H5.85137" stroke="#89939E" stroke-width="1.69492" stroke-linecap="round" stroke-linejoin="round"/>
</g>
</g>
</svg>
