<svg width="36" height="36" viewBox="0 0 36 36" fill="none" xmlns="http://www.w3.org/2000/svg">
<g id="rent 1">
<path id="Vector" fill-rule="evenodd" clip-rule="evenodd" d="M19.626 2.99819L34.236 13.6133C35.23 14.3355 35.454 15.7294 34.7327 16.7249C34.3836 17.2067 33.8669 17.5238 33.2794 17.6174C32.6925 17.7109 32.1024 17.5714 31.6215 17.222L18.44 7.64472C18.3919 7.60973 18.334 7.59087 18.2746 7.59087C18.2151 7.59087 18.1572 7.60973 18.1092 7.64472L4.92732 17.2219C3.93318 17.9442 2.5367 17.7192 1.81614 16.7248C1.09473 15.7292 1.31896 14.335 2.31311 13.6127L16.9671 2.96655C17.7656 2.38647 18.8339 2.39786 19.6204 2.9939L19.626 2.99819ZM20.0642 20.2942C20.84 20.2942 21.4713 20.9245 21.4713 21.7004V33.4559H15.0778V27.6221L16.0148 26.3201L16.9085 27.561C16.9345 27.5971 16.9687 27.6265 17.0084 27.6468C17.048 27.667 17.0919 27.6776 17.1364 27.6775H18.6185C18.6737 27.6777 18.7276 27.6616 18.7737 27.6312C18.8198 27.6009 18.8559 27.5577 18.8775 27.507L19.7055 25.5621C19.7257 25.5141 19.7322 25.4615 19.7244 25.4101C19.7166 25.3586 19.6947 25.3103 19.6612 25.2705L18.2212 23.5718C18.1948 23.5406 18.162 23.5156 18.1249 23.4984C18.0879 23.4812 18.0476 23.4722 18.0068 23.4721H15.0778V21.7004C15.0778 20.9251 15.7086 20.2942 16.484 20.2942H20.0642ZM4.65479 25.5753C4.65479 26.1195 4.21218 26.5619 3.66796 26.5619C3.12388 26.5619 2.68182 26.1193 2.68182 25.5753C2.68182 25.0313 3.12388 24.5888 3.66796 24.5888C4.21218 24.5888 4.65479 25.0311 4.65479 25.5753Z" fill="#2D76E0"/>
<path id="Vector_2" fill-rule="evenodd" clip-rule="evenodd" d="M3.66769 26.2817C3.27893 26.2817 2.96281 25.9653 2.96281 25.5764C2.96281 25.1876 3.27893 24.8711 3.66769 24.8711C4.0568 24.8711 4.37327 25.1876 4.37327 25.5764C4.37327 25.9652 4.0568 26.2817 3.66769 26.2817ZM3.66769 23.7461C2.65892 23.7461 1.83759 24.5674 1.83759 25.5764C1.83759 26.5855 2.65892 27.4067 3.66769 27.4067C4.67681 27.4067 5.49813 26.5855 5.49813 25.5764C5.49813 24.5674 4.67681 23.7461 3.66769 23.7461ZM34.5047 16.5609C34.1996 16.9821 33.7491 17.2591 33.2349 17.3406C32.721 17.4229 32.2069 17.2998 31.7866 16.9954L18.605 7.41827C18.5088 7.34837 18.3929 7.3107 18.274 7.31062C18.1579 7.31062 18.0418 7.34648 17.9436 7.41827L4.76175 16.9955C3.89297 17.6247 2.67361 17.4299 2.04361 16.5609C1.41368 15.6911 1.60838 14.4719 2.47814 13.8413L17.1322 3.19516C17.8311 2.68835 18.7626 2.69791 19.4502 3.21914C19.4529 3.22202 19.4566 3.22406 19.4595 3.22617L34.0705 13.8419C34.9399 14.4719 35.135 15.6911 34.5047 16.5609ZM29.3727 30.1502V16.632L18.274 8.56851L7.17565 16.632V21.6473C7.7764 22.032 8.28954 22.5565 8.66705 23.192H14.2336V21.7015C14.2336 20.4612 15.2434 19.4515 16.4837 19.4515H20.0639C21.3052 19.4515 22.3146 20.4611 22.3146 21.7015V33.1757H26.3473C28.0156 33.1757 29.3727 31.8187 29.3727 30.1502ZM7.17565 30.1502V29.5055C7.7764 29.1209 8.28954 28.5963 8.66705 27.96H12.6503C12.7394 27.9601 12.8273 27.939 12.9066 27.8984C12.9859 27.8577 13.0544 27.7988 13.1064 27.7265L13.7719 26.8026L14.2336 27.4438V33.1757H10.2013C8.53268 33.1757 7.17565 31.8187 7.17565 30.1502ZM21.1898 33.1757H15.3588V27.7139L16.0146 26.8026L16.6801 27.7265C16.7321 27.7989 16.8006 27.8578 16.8799 27.8984C16.9592 27.939 17.0471 27.9601 17.1362 27.96H18.6183C18.7286 27.9602 18.8366 27.9278 18.9286 27.8671C19.0207 27.8063 19.0929 27.7198 19.1361 27.6183L19.9641 25.6734C20.0047 25.5775 20.0179 25.4721 20.0023 25.3691C19.9867 25.2661 19.9428 25.1694 19.8755 25.0898L18.4355 23.3911C18.3827 23.3288 18.317 23.2788 18.2429 23.2444C18.1689 23.21 18.0882 23.1922 18.0066 23.192H15.3588V21.7015C15.3588 21.0813 15.8637 20.5765 16.4837 20.5765H20.0639C20.6849 20.5765 21.1898 21.0813 21.1898 21.7015V33.1757ZM1.1254 25.5764C1.1254 27.5262 2.71172 29.1125 4.66057 29.1125C6.01296 29.1125 7.22705 28.3594 7.82984 27.1472C7.8763 27.0534 7.94804 26.9745 8.03696 26.9194C8.12587 26.8642 8.22843 26.835 8.33306 26.8351H12.3621L13.3155 25.511C13.3675 25.4386 13.4361 25.3796 13.5154 25.3388C13.5948 25.2981 13.6827 25.2769 13.7719 25.2769C13.8611 25.2769 13.9489 25.2982 14.0283 25.3389C14.1076 25.3796 14.1761 25.4386 14.2281 25.511L14.8935 26.435L15.5586 25.511C15.6106 25.4386 15.6791 25.3796 15.7584 25.3389C15.8377 25.2982 15.9256 25.2769 16.0147 25.2769C16.1039 25.2769 16.1918 25.2981 16.2712 25.3388C16.3506 25.3796 16.4191 25.4386 16.4712 25.511L17.4245 26.8351H18.2466L18.7929 25.5526L17.746 24.3172H8.33299C8.22835 24.3172 8.12578 24.288 8.03687 24.2328C7.94795 24.1776 7.87622 24.0987 7.82977 24.0049C7.22705 22.7935 6.01296 22.0404 4.6605 22.0404C2.71172 22.0403 1.1254 23.6266 1.1254 25.5764ZM34.7313 12.9314L20.1253 2.31913C19.0403 1.50077 17.5728 1.48586 16.4711 2.28461L1.81805 12.9307C0.44604 13.9248 0.138845 15.8493 1.13236 17.2212C2.12651 18.5922 4.05117 18.8995 5.42283 17.906V17.9052L6.05079 17.4497V21.1249C5.60055 20.9856 5.13188 20.9149 4.66057 20.9154C2.09072 20.9154 0.000610352 23.0066 0.000610352 25.5765C0.000610352 28.1464 2.09079 30.2376 4.66057 30.2376C5.13185 30.2376 5.60046 30.167 6.05079 30.028V30.1504C6.05079 32.439 7.91274 34.3009 10.2013 34.3009H26.3474C28.6359 34.3009 30.4979 32.439 30.4979 30.1504V17.4498L31.1255 17.9062C31.6559 18.2901 32.2795 18.4912 32.9214 18.4912C33.0846 18.4912 33.2482 18.4777 33.413 18.4518C34.2228 18.3224 34.9347 17.8851 35.4153 17.2214C36.4098 15.8494 36.1023 13.9248 34.7313 12.9314Z" fill="#2D76E0"/>
</g>
</svg>
