<svg width="21" height="20" viewBox="0 0 21 20" fill="none" xmlns="http://www.w3.org/2000/svg">
<g id="Shower">
<path id="Vector" d="M2.9751 9.99967H3.80843M17.1418 9.99967C17.3628 9.99967 17.5747 9.91188 17.731 9.7556C17.8873 9.59932 17.9751 9.38735 17.9751 9.16634V5.83301C17.9751 4.99967 17.4751 3.33301 15.4751 3.33301C13.4751 3.33301 12.9751 4.99967 12.9751 5.83301M17.1418 9.99967V11.6663C17.1418 12.6147 16.6559 14.373 14.8543 14.8672M17.1418 9.99967H3.80843M3.80843 9.99967V11.6663C3.80843 12.6147 4.29426 14.373 6.09593 14.8672M5.4751 16.6663L6.09593 14.8672M6.09593 14.8672C6.40426 14.9522 6.75176 14.9997 7.14176 14.9997H13.8084C14.1614 15.0027 14.5132 14.9582 14.8543 14.8672M15.4751 16.6663L14.8543 14.8672M12.9751 5.83301H11.3084M12.9751 5.83301H14.6418" stroke="black" stroke-linecap="round" stroke-linejoin="round"/>
</g>
</svg>
