<svg width="30" height="30" viewBox="0 0 30 30" fill="none" xmlns="http://www.w3.org/2000/svg">
<g id="Verified">
<g id="Group">
<path id="Vector" d="M13.1512 3.27902C13.3855 3.02163 13.671 2.816 13.9894 2.6753C14.3077 2.53459 14.6519 2.46191 15 2.46191C15.3481 2.46191 15.6923 2.53459 16.0106 2.6753C16.329 2.816 16.6145 3.02163 16.8487 3.27902L18.1237 4.67902C18.3713 4.95079 18.6758 5.16462 19.0154 5.30528C19.355 5.44593 19.7215 5.50995 20.0887 5.49277L21.98 5.40527C22.3275 5.3889 22.6747 5.44525 22.9992 5.57071C23.3237 5.69617 23.6184 5.88799 23.8646 6.13389C24.1107 6.37979 24.3028 6.67436 24.4286 6.99875C24.5544 7.32315 24.611 7.67022 24.595 8.01777L24.5062 9.91027C24.4891 10.2775 24.5531 10.644 24.6937 10.9836C24.8344 11.3233 25.0482 11.6277 25.32 11.8753L26.72 13.1503C26.9774 13.3846 27.183 13.67 27.3237 13.9884C27.4644 14.3067 27.5371 14.651 27.5371 14.999C27.5371 15.3471 27.4644 15.6913 27.3237 16.0097C27.183 16.328 26.9774 16.6135 26.72 16.8478L25.32 18.1228C25.0482 18.3703 24.8344 18.6748 24.6937 19.0144C24.5531 19.3541 24.4891 19.7206 24.5062 20.0878L24.5937 21.979C24.6101 22.3266 24.5538 22.6737 24.4283 22.9982C24.3028 23.3227 24.111 23.6175 23.8651 23.8636C23.6192 24.1097 23.3247 24.3018 23.0003 24.4276C22.6759 24.5534 22.3288 24.6101 21.9812 24.594L20.0887 24.5053C19.7215 24.4881 19.355 24.5521 19.0154 24.6928C18.6758 24.8334 18.3713 25.0473 18.1237 25.319L16.8487 26.719C16.6145 26.9764 16.329 27.182 16.0106 27.3227C15.6923 27.4635 15.3481 27.5361 15 27.5361C14.6519 27.5361 14.3077 27.4635 13.9894 27.3227C13.671 27.182 13.3855 26.9764 13.1512 26.719L11.8762 25.319C11.6287 25.0473 11.3242 24.8334 10.9846 24.6928C10.645 24.5521 10.2785 24.4881 9.91125 24.5053L8.02 24.5928C7.67246 24.6091 7.32533 24.5528 7.00082 24.4273C6.67631 24.3019 6.38155 24.1101 6.13542 23.8642C5.88928 23.6183 5.69718 23.3237 5.57141 22.9993C5.44564 22.6749 5.38896 22.3278 5.405 21.9803L5.49375 20.0878C5.51093 19.7206 5.44691 19.3541 5.30625 19.0144C5.1656 18.6748 4.95177 18.3703 4.68 18.1228L3.28 16.8478C3.02261 16.6135 2.81698 16.328 2.67627 16.0097C2.53557 15.6913 2.46289 15.3471 2.46289 14.999C2.46289 14.651 2.53557 14.3067 2.67627 13.9884C2.81698 13.67 3.02261 13.3846 3.28 13.1503L4.68 11.8753C4.95177 11.6277 5.1656 11.3233 5.30625 10.9836C5.44691 10.644 5.51093 10.2775 5.49375 9.91027L5.40625 8.01902C5.38987 7.67149 5.44622 7.32436 5.57169 6.99984C5.69715 6.67533 5.88897 6.38058 6.13487 6.13444C6.38077 5.88831 6.67534 5.69621 6.99973 5.57043C7.32412 5.44466 7.6712 5.38798 8.01875 5.40402L9.91125 5.49277C10.2785 5.50995 10.645 5.44593 10.9846 5.30528C11.3242 5.16462 11.6287 4.95079 11.8762 4.67902L13.1512 3.27902V3.27902Z" stroke="#2D76E0" stroke-width="1.5"/>
<path id="Vector_2" d="M11.249 14.9971L13.749 17.4971L18.749 12.4971" stroke="#2D76E0" stroke-width="1.5" stroke-linecap="round" stroke-linejoin="round"/>
</g>
</g>
</svg>
