<svg xmlns="http://www.w3.org/2000/svg" enable-background="new 0 0 468.668 468.668" viewBox="0 0 468.668 468.668"><path fill="#f0ebf8" d="M456.809,247.717c-4.333-8.608-4.341-18.794-0.034-27.416c15.98-31.991,15.654-72.457-4.287-107.242c-21.874-38.156-61.426-59.142-100.407-57.43c-9.922,0.436-19.497-4.081-25.505-11.99c-19.843-26.122-53.825-43.346-92.418-43.346c-38.682,0-72.73,17.303-92.553,43.526c-6.003,7.941-15.591,12.48-25.538,12.077C77.197,54.323,37.813,75.3,16.004,113.343c-20,34.888-20.27,75.491-4.145,107.527c4.333,8.608,4.341,18.794,0.034,27.416c-15.98,31.991-15.654,72.457,4.287,107.242c21.874,38.156,61.426,59.142,100.407,57.43c9.922-0.436,19.497,4.081,25.505,11.99c19.843,26.122,53.825,43.346,92.418,43.346c38.682,0,72.73-17.303,92.553-43.526c6.003-7.941,15.591-12.48,25.538-12.077c38.87,1.573,78.253-19.404,100.062-57.447C472.664,320.355,472.934,279.752,456.809,247.717z"/><path fill="#ff8a80" d="M82.11,173.613l7.747,1.642l-8.959,2.541c-4.718,1.338-8.321,5.159-9.38,9.948l-1.661,7.511l-1.661-7.511c-1.059-4.789-4.662-8.61-9.38-9.948l-8.959-2.541l7.747-1.642c5.016-1.063,8.977-4.907,10.19-9.889l2.063-8.47l2.063,8.47C73.133,168.706,77.094,172.55,82.11,173.613z" opacity=".6"/><circle cx="264.157" cy="47.211" r="7" fill="#91ddf2" opacity=".5"/><ellipse cx="69.857" cy="297.82" fill="#fff099" rx="64.857" ry="64.886"/><path fill="#fffae6" d="M23,297.82c0-32.779,24.3-59.865,55.857-64.25c-2.943-0.409-5.945-0.636-9-0.636C34.037,232.934,5,261.984,5,297.82c0,35.836,29.037,64.886,64.857,64.886c3.055,0,6.057-0.227,9-0.636C47.3,357.685,23,330.599,23,297.82z"/><ellipse cx="32.024" cy="297.82" fill="#5b5b7f" rx="7.567" ry="7.57"/><rect width="219.253" height="129.846" x="9.339" y="5.298" fill="#c9f2cb"/><ellipse cx="74.785" cy="70.211" fill="#9795af" rx="6.854" ry="6.857"/><ellipse cx="163.326" cy="70.211" fill="#9795af" rx="6.854" ry="6.857"/><path fill="#f5f5f5" d="M44.722,99.259C35.021,88.675,23.03,81.848,9.405,79.787l-0.066,0.024v55.332h50.848l0.146-0.224C58.397,122.021,53.256,108.569,44.722,99.259z"/><path fill="#fff" d="M9.405,79.787l-0.066,0.024v55.332h16V84.692C20.333,82.302,15.01,80.635,9.405,79.787z"/><path fill="#f5f5f5" d="M44.549,36.061c7.773-8.234,12.908-19.342,15.37-30.763H9.339V55.17l0.027,0.002C22.996,53.116,34.77,46.42,44.549,36.061z"/><path fill="#fff" d="M9.339,5.297V55.17l0.027,0.002c5.648-0.852,10.972-2.512,15.973-4.888V5.297H9.339z"/><path fill="#f5f5f5" d="M178.933,5.297c2.368,11.436,7.321,22.555,15.127,30.801c8.5,8.979,23.066,16.194,34.532,19.061V5.297H178.933z"/><path fill="#fff" d="M228.592,5.297h-16v43.847c5.417,2.688,11.003,4.764,16,6.014V5.297z"/><path fill="#9795af" d="M228.593,0.298H9.339c-2.762,0-5,2.238-5,5v129.846c0,2.762,2.238,5,5,5h25.289h25.559h168.405c2.762,0,5-2.238,5-5V5.298C233.593,2.536,231.354,0.298,228.593,0.298z M223.592,10.298v38.099c-8.891-3.197-19.327-8.792-25.9-15.736c-5.489-5.798-9.702-13.448-12.352-22.362H223.592z M14.34,10.298h39.102c-2.728,8.768-7.071,16.549-12.529,22.33c0,0,0,0,0,0.001c-7.811,8.273-16.728,13.775-26.573,16.408V10.298z M34.628,130.144H14.339v-27.321h0.001V85.913c9.991,2.666,18.951,8.274,26.696,16.725c6.13,6.688,10.854,16.508,13.321,27.506H34.628z M64.563,130.144c-2.688-13.546-8.462-25.87-16.156-34.264C38.829,85.429,27.119,78.5,14.339,75.642V59.317c12.683-2.806,24.055-9.452,33.846-19.825v0.001c7.109-7.531,12.585-17.788,15.657-29.195h111.131c3.003,11.626,8.298,21.676,15.457,29.237c8.604,9.089,22.191,15.99,33.163,19.4v71.208H64.563z"/><line x1="117.371" x2="117.371" y1="40.211" y2="49.243" fill="#c9f2cb"/><line x1="120.74" x2="120.74" y1="91.179" y2="100.211" fill="#c9f2cb"/><path fill="#c9f2cb" d="M109.387,91.179h11.343c5.765,0,10.438-4.694,10.438-10.484v0c0-5.79-4.673-10.484-10.438-10.484h-3.35c-5.765,0-10.438-4.694-10.438-10.484v0c0-5.79,4.673-10.484,10.438-10.484h11.343"/><path fill="#9795af" d="M136.168,80.695c0-8.538-6.925-15.484-15.438-15.484h-3.35c-2.999,0-5.438-2.46-5.438-5.483c0-3.024,2.439-5.484,5.438-5.484h11.343c2.762,0,5-2.238,5-5s-2.238-5-5-5h-6.354v-4.032c0-2.762-2.238-5-5-5s-5,2.238-5,5v4.886c-6.057,2.094-10.428,7.854-10.428,14.631c0,8.537,6.926,15.483,15.438,15.483h3.35c2.998,0,5.438,2.46,5.438,5.484c0,3.023-2.439,5.483-5.438,5.483h-11.344c-2.762,0-5,2.238-5,5s2.238,5,5,5h6.354v4.032c0,2.762,2.238,5,5,5s5-2.238,5-5v-4.885C131.798,93.232,136.168,87.472,136.168,80.695z"/><g><path fill="#90caf9" d="M104.612,206.392L104.6,410.563h341.369l0.012-204.169c0.001-11.875-9.645-21.501-21.543-21.501H126.155C114.258,184.893,104.613,194.518,104.612,206.392z"/><path fill="#b7dcfb" d="M144.155,184.893h-18c-11.897,0-21.542,9.625-21.543,21.499L104.6,410.563h18l0.012-204.171C122.613,194.518,132.258,184.893,144.155,184.893z"/><rect width="264.316" height="187.106" x="143.133" y="223.457" fill="#efefef"/><rect width="18" height="187.106" x="143.133" y="223.457" fill="#fff"/><path fill="#fff7dc" d="M369.843,372.076H181.416V100.994c0-15.254,12.392-27.62,27.678-27.62h192.087l-31.339,51.513V372.076z"/><path fill="#fffdf8" d="M227.095,73.375h-18c-15.286,0-27.678,12.366-27.678,27.619v271.082h18V100.994C199.417,85.741,211.809,73.375,227.095,73.375z"/><path fill="#b1f0a8" d="M264.157,132.764c-25.236,0-45.693,20.477-45.693,45.737s20.457,45.737,45.693,45.737c25.236,0,45.693-20.477,45.693-45.737h-45.693V132.764z"/><path fill="#dff9d9" d="M236.464,178.501c0-18.862,11.409-35.052,27.693-42.046v-3.691c-25.236,0-45.693,20.477-45.693,45.737c0,25.26,20.458,45.737,45.693,45.737c3.081,0,6.09-0.31,9-0.892C252.232,219.161,236.464,200.676,236.464,178.501z"/><path fill="#ff8a80" d="M286.424,110.475v45.737h45.693C332.117,130.953,311.66,110.475,286.424,110.475z"/><path fill="#ffa8a4" d="M286.424,110.476v45.737h18v-42.046C298.9,111.794,292.816,110.476,286.424,110.476z"/><path fill="#b9a5e5" d="M398.113,73.375L398.113,73.375c-15.613,0-28.27,12.657-28.27,28.27v47.913h56.54v-47.913C426.383,86.032,413.726,73.375,398.113,73.375z"/><path fill="#d1c4ee" d="M407.113,74.847c-2.828-0.949-5.852-1.472-9-1.472l0,0c-15.613,0-28.27,12.657-28.27,28.27v47.913h18v-47.913C387.843,89.18,395.914,78.606,407.113,74.847z"/><path fill="#cce3ff" d="M444.405,463.375H107.706c-10.639,0-19.263-8.633-19.263-19.282v-33.53h375.226v33.53C463.668,454.742,455.044,463.375,444.405,463.375z"/><path fill="#ebf5ff" d="M106.442,444.093v-33.531h-18v33.531c0,10.649,8.625,19.282,19.263,19.282h18C115.067,463.375,106.442,454.742,106.442,444.093z"/><path fill="#5b5b7f" d="M281.953 440.425h-22.62c-2.762 0-5-2.238-5-5s2.238-5 5-5h22.62c2.762 0 5 2.238 5 5S284.715 440.425 281.953 440.425zM332.117 266.185H218.464c-2.762 0-5-2.238-5-5s2.238-5 5-5h113.653c2.762 0 5 2.238 5 5S334.879 266.185 332.117 266.185zM332.117 302.82h-14.985c-2.762 0-5-2.238-5-5s2.238-5 5-5h14.985c2.762 0 5 2.238 5 5S334.879 302.82 332.117 302.82zM292.769 302.82h-74.305c-2.762 0-5-2.238-5-5s2.238-5 5-5h74.305c2.762 0 5 2.238 5 5S295.53 302.82 292.769 302.82zM233.45 339.455h-14.986c-2.762 0-5-2.238-5-5s2.238-5 5-5h14.986c2.762 0 5 2.238 5 5S236.212 339.455 233.45 339.455zM332.117 339.455h-74.305c-2.762 0-5-2.238-5-5s2.238-5 5-5h74.305c2.762 0 5 2.238 5 5S334.879 339.455 332.117 339.455z"/></g><g><path fill="#5b5b7f" d="M397.569 33.116H289.625c-2.762 0-5-2.238-5-5s2.238-5 5-5h107.944c2.762 0 5 2.238 5 5S400.331 33.116 397.569 33.116zM436.302 33.116h-9.017c-2.762 0-5-2.238-5-5s2.238-5 5-5h9.017c2.762 0 5 2.238 5 5S439.063 33.116 436.302 33.116z"/></g><g><path fill="#5b5b7f" d="M90.4 311.221c0-10.146-8.252-18.4-18.395-18.4h-4.298c-4.629 0-8.395-3.769-8.395-8.4s3.766-8.4 8.395-8.4h14.556c2.762 0 5-2.238 5-5s-2.238-5-5-5h-9.568v-6.545c0-2.762-2.238-5-5-5s-5 2.238-5 5v7.257c-7.711 2.19-13.382 9.281-13.382 17.688 0 10.146 8.252 18.4 18.395 18.4h4.298c4.629 0 8.395 3.769 8.395 8.4s-3.766 8.399-8.395 8.399H57.45c-2.762 0-5 2.238-5 5s2.238 5 5 5h9.568v6.545c0 2.762 2.238 5 5 5s5-2.238 5-5v-7.257C84.729 326.717 90.4 319.626 90.4 311.221zM264.157 229.237c-27.952 0-50.693-22.76-50.693-50.736s22.741-50.737 50.693-50.737c2.762 0 5 2.238 5 5v40.737h40.693c2.762 0 5 2.238 5 5C314.851 206.478 292.109 229.237 264.157 229.237zM259.157 138.069c-20.088 2.476-35.693 19.664-35.693 40.432 0 22.462 18.255 40.736 40.693 40.736 20.748 0 37.92-15.623 40.389-35.736h-40.389c-2.762 0-5-2.238-5-5V138.069z"/><path fill="#5b5b7f" d="M332.117,161.213h-45.693c-2.762,0-5-2.238-5-5v-45.737c0-2.762,2.238-5,5-5c27.952,0,50.693,22.761,50.693,50.737C337.117,158.975,334.879,161.213,332.117,161.213z M291.424,151.213h35.389c-2.268-18.473-16.938-33.158-35.389-35.432V151.213z"/><path fill="#5b5b7f" d="M463.668,405.563h-12.699l0.012-199.168c0.295-14.258-12.289-26.797-26.543-26.502h-49.596v-25.335h51.54c2.762,0,5-2.238,5-5v-47.913c0-16.665-12.317-30.504-28.326-32.9c-0.587-0.238-1.221-0.369-1.875-0.369H209.095c-18.02,0-32.679,14.633-32.679,32.619v78.898h-50.261c-14.635,0-26.542,11.888-26.543,26.499l-0.002,28.229c-9.034-4.277-19.115-6.687-29.754-6.687C31.338,227.934,0,259.284,0,297.82c0,38.535,31.338,69.886,69.856,69.886c10.637,0,20.715-2.409,29.746-6.683l-0.003,44.54H88.442c-2.762,0-5,2.238-5,5v33.53c0,13.39,10.885,24.282,24.264,24.282h336.699c13.379,0,24.263-10.893,24.263-24.282v-33.53C468.668,407.801,466.43,405.563,463.668,405.563z M374.843,101.645c0-12.831,10.438-23.27,23.27-23.27s23.271,10.438,23.271,23.27v42.913h-46.54V101.645z M374.843,189.893h49.596c8.88-0.185,16.726,7.619,16.543,16.502l-0.013,199.168h-28.524l0.01-182.106c0.053-2.686-2.315-5.053-5-5h-32.611V189.893z M186.416,100.994c0-12.473,10.174-22.619,22.679-22.619h165.271c-5.885,6.004-9.522,14.219-9.522,23.27v265.432H186.416V100.994z M181.416,377.076h188.427c2.762,0,5-2.238,5-5v-143.62h27.611l-0.01,177.106H148.129l0.009-177.106h28.278v143.62C176.416,374.838,178.654,377.076,181.416,377.076z M109.612,206.392c0.001-9.098,7.422-16.499,16.543-16.499h50.261v28.563h-33.278c-2.762,0-5,2.238-5,5l-0.009,182.106H109.6L109.612,206.392z M69.856,357.706C36.852,357.706,10,330.842,10,297.82s26.852-59.887,59.856-59.887c10.828,0,20.982,2.906,29.753,7.959l-0.007,103.858C90.834,354.801,80.681,357.706,69.856,357.706z M458.668,444.093c0,7.875-6.398,14.282-14.263,14.282H107.706c-7.865,0-14.264-6.407-14.264-14.282v-28.53h365.226V444.093z"/></g></svg>