<svg width="177" height="177" viewBox="12 12 155 130" fill="none" xmlns="http://www.w3.org/2000/svg">
<path d="M35.8956 138.322C65.5573 153.817 113.645 153.817 143.306 138.322C172.968 122.827 172.964 97.704 143.306 82.2094C113.648 66.7148 65.5573 66.7148 35.8956 82.2094C6.23394 97.704 6.23748 122.838 35.8956 138.322Z" fill="#F5F5F5"/>
<path d="M150.319 111.436C145.862 113.56 138.637 113.56 134.173 111.436C129.709 109.312 129.713 105.864 134.173 103.74C138.633 101.616 145.855 101.616 150.319 103.74C154.783 105.864 154.779 109.308 150.319 111.436Z" fill="#E0E0E0"/>
<path d="M55.3798 71.9965C49.7335 75.2569 45.1598 83.1829 45.1598 89.6965C45.1598 96.2101 49.7335 98.8545 55.3798 95.5977C61.0261 92.3409 65.5997 84.4113 65.5997 77.8977C65.5997 71.3841 61.0225 68.7362 55.3798 71.9965ZM54.516 90.5355C53.8196 90.9746 53.0229 91.2293 52.2008 91.2754C50.2184 91.2754 50.0025 88.9354 50.0025 87.9301C50.0025 84.0007 52.877 79.027 56.2789 77.0623C56.9736 76.6221 57.7694 76.3674 58.5905 76.3224C60.5765 76.3224 60.7889 78.6623 60.7889 79.6677C60.7712 83.5936 57.9002 88.5708 54.516 90.5355Z" fill="#455A64"/>
<path d="M58.856 76.3436C58.7621 76.3309 58.6676 76.3238 58.5728 76.3224C58.0756 76.3394 57.5858 76.4486 57.1285 76.6445C57.1737 76.9623 57.1962 77.2829 57.1958 77.6039C57.1958 81.5297 54.3213 86.507 50.9194 88.4681C50.6415 88.6295 50.3515 88.7692 50.0521 88.8859C50.1171 89.4772 50.3262 90.0437 50.6609 90.5355C50.8349 90.7738 51.0646 90.9659 51.33 91.0948C51.5953 91.2238 51.8883 91.2858 52.1831 91.2754C53.0055 91.231 53.8026 90.9762 54.4983 90.5355C57.9002 88.5708 60.7712 83.5936 60.7712 79.6677C60.7712 78.7119 60.5765 76.556 58.856 76.3436Z" fill="#263238"/>
<path d="M62.5907 71.2744L57.5215 68.3468C55.663 67.26 53.1 67.4087 50.268 69.03C44.604 72.2903 40.048 80.2164 40.048 86.73C40.048 89.9514 41.1667 92.2205 42.9791 93.3038L43.0287 93.3392H43.057L48.0555 96.2243H48.0803C47.2105 95.6823 46.513 94.9038 46.0696 93.9799C45.6809 93.1848 45.4215 92.3327 45.3014 91.4559C45.2091 90.8609 45.1618 90.2597 45.1598 89.6576C45.1598 83.1404 49.7335 75.2144 55.3798 71.9576C55.9021 71.6581 56.4464 71.399 57.0082 71.1823C57.8278 70.8484 58.6953 70.6464 59.5782 70.5841C60.6256 70.5017 61.6742 70.7281 62.5943 71.2354L62.5907 71.2744Z" fill="#37474F"/>
<path d="M54.3744 46.6183L49.606 43.8641L42.4234 48.0095L25.7535 107.209L30.5254 109.963L37.609 105.871L54.3744 46.6183Z" fill="#37474F"/>
<path d="M37.609 105.871L30.5254 109.963L47.2201 50.7494L54.3744 46.6183L37.609 105.871Z" fill="#455A64"/>
<path d="M30.5254 109.963L47.2201 50.7494L42.4234 48.0095L25.7535 107.209L30.5254 109.963Z" fill="#263238"/>
<path d="M27.612 62.4562C21.9692 65.7166 17.392 73.6426 17.392 80.1562C17.392 86.6698 21.9763 89.3177 27.612 86.0609C33.2477 82.8041 37.832 74.8745 37.832 68.3609C37.832 61.8473 33.276 59.1994 27.612 62.4562ZM26.7412 80.9952C26.045 81.4349 25.2481 81.6896 24.426 81.7351C22.4401 81.7351 22.2277 79.3951 22.2277 78.3898C22.2277 74.4639 25.0986 69.4867 28.5005 67.522C29.1962 67.0812 29.9934 66.8265 30.8157 66.7821C32.7981 66.7821 33.014 69.122 33.014 70.1274C33.014 74.0533 30.1396 79.0305 26.7412 80.9952Z" fill="#455A64"/>
<path d="M31.0989 66.8033C31.005 66.7907 30.9104 66.7836 30.8157 66.7821C30.3169 66.799 29.8258 66.9095 29.3678 67.1078C29.413 67.4244 29.4354 67.7438 29.4351 68.0636C29.4351 71.9894 26.5642 76.9667 23.1622 78.9278C22.8862 79.0881 22.5987 79.2278 22.302 79.3456C22.3666 79.9387 22.577 80.5067 22.9144 80.9987C23.0888 81.2364 23.3186 81.4278 23.584 81.5561C23.8493 81.6845 24.1421 81.7459 24.4366 81.7351C25.2587 81.6896 26.0556 81.4349 26.7518 80.9952C30.1502 79.0305 33.0247 74.0533 33.0247 70.1274C33.014 69.1716 32.8158 67.0157 31.0989 66.8033Z" fill="#263238"/>
<path d="M34.8336 61.7341L29.7643 58.8065C27.9129 57.7268 25.3499 57.8755 22.5179 59.5145C16.8539 62.7713 12.2944 70.6973 12.2944 77.2145C12.2944 80.4359 13.4166 82.705 15.2255 83.7883L15.2751 83.8237H15.3034L20.2948 86.73H20.3231C19.4524 86.1897 18.7537 85.4124 18.3089 84.4892C17.9207 83.6926 17.6614 82.8395 17.5407 81.9616C17.4483 81.3666 17.4009 80.7654 17.3991 80.1633C17.3991 73.6462 21.9763 65.7201 27.6191 62.4633C28.1421 62.1653 28.6864 61.9061 29.2475 61.688C30.0684 61.3541 30.937 61.1521 31.8211 61.0898C32.8673 61.0077 33.9147 61.2341 34.8336 61.7411V61.7341Z" fill="#37474F"/>
<path d="M107.421 128.375L110.767 134.693C113.43 134.272 115.997 133.381 118.349 132.063L110.26 130.247C109.436 130.718 108.459 128.194 107.421 128.375Z" fill="#407BFF"/>
<path opacity="0.2" d="M107.421 128.375L110.767 134.693C113.43 134.272 115.997 133.381 118.349 132.063L110.26 130.247C109.436 130.718 108.459 128.194 107.421 128.375Z" fill="black"/>
<path d="M100.564 124.64C102.182 123.705 104.398 123.341 106.494 123.532L108.282 113.266L106.494 110.08L97.2686 111.291L87.3566 125.805L87.6646 126.247L98.589 127.04C98.766 126.162 99.4032 125.316 100.564 124.64Z" fill="#407BFF"/>
<path opacity="0.7" d="M100.564 124.64C102.182 123.705 104.398 123.341 106.494 123.532L108.282 113.266L106.494 110.08L97.2686 111.291L87.3566 125.805L87.6646 126.247L98.589 127.04C98.766 126.162 99.4032 125.316 100.564 124.64Z" fill="black"/>
<path d="M108.282 106.289V104.476L106.494 110.983L106.497 112.795L108.282 106.289Z" fill="#407BFF"/>
<path opacity="0.7" d="M108.282 106.289V104.476L106.494 110.983L106.497 112.795L108.282 106.289Z" fill="black"/>
<path d="M100.564 112.091C102.182 111.16 104.398 110.791 106.494 110.983L108.282 104.476C98.3058 103.566 88.939 107.492 87.3601 113.252C87.3141 113.415 87.2645 113.638 87.2362 113.8L98.5925 114.491C98.766 113.613 99.4032 112.763 100.564 112.091Z" fill="#407BFF"/>
<path opacity="0.6" d="M100.564 112.091C102.182 111.16 104.398 110.791 106.494 110.983L108.282 104.476C98.3058 103.566 88.939 107.492 87.3601 113.252C87.3141 113.415 87.2645 113.638 87.2362 113.8L98.5925 114.491C98.766 113.613 99.4032 112.763 100.564 112.091Z" fill="black"/>
<path d="M98.5925 121.893V114.491L87.2362 113.8V121.203L98.5925 121.893Z" fill="#407BFF"/>
<path opacity="0.8" d="M98.5925 121.893V114.491L87.2362 113.8V121.203L98.5925 121.893Z" fill="black"/>
<path d="M110.271 113.903C111.645 114.7 112.31 115.744 112.271 116.785L123.702 116.901C123.865 111.574 117.397 107.124 108.282 106.281L106.494 112.788C107.817 112.889 109.105 113.269 110.271 113.903V113.903Z" fill="#407BFF"/>
<path opacity="0.8" d="M110.271 113.903C111.645 114.7 112.31 115.744 112.271 116.785L123.702 116.901C123.865 111.574 117.397 107.124 108.282 106.281L106.494 112.788C107.817 112.889 109.105 113.269 110.271 113.903V113.903Z" fill="white"/>
<path d="M112.271 116.785V124.668L123.702 124.785V116.901L112.271 116.785Z" fill="#407BFF"/>
<path opacity="0.6" d="M112.271 116.785V124.668L123.702 124.785V116.901L112.271 116.785Z" fill="white"/>
<path d="M112.275 116.785V124.608C112.275 123.596 111.609 122.58 110.271 121.804C109.209 121.188 107.878 123.677 106.497 123.55V112.795C109.62 113.061 112.331 114.636 112.275 116.785Z" fill="#407BFF"/>
<path opacity="0.6" d="M112.275 116.785V124.608C112.275 123.596 111.609 122.58 110.271 121.804C109.209 121.188 107.878 123.677 106.497 123.55V112.795C109.62 113.061 112.331 114.636 112.275 116.785Z" fill="white"/>
<path d="M112.278 120.296H98.5571V129.522H112.278V120.296Z" fill="#E0E0E0"/>
<path d="M100.564 123.146C97.8845 121.599 97.8845 119.089 100.564 117.542C103.244 115.995 107.591 115.995 110.271 117.542C112.951 119.089 112.947 121.599 110.271 123.146C107.595 124.693 103.244 124.693 100.564 123.146Z" fill="#FAFAFA"/>
<path d="M112.271 124.668C112.236 125.656 111.563 129.49 110.271 130.24L118.36 132.056C121.9 130.017 123.627 127.663 123.712 124.778L112.271 124.668Z" fill="#37474F"/>
<path d="M123.702 118.629V124.785L118.349 132.063V125.911L123.702 118.629Z" fill="#37474F"/>
<path d="M112.271 118.512C112.236 119.5 111.563 120.48 110.271 121.234L118.36 125.904C121.9 123.865 123.627 121.511 123.712 118.625L112.271 118.512Z" fill="#455A64"/>
<path d="M118.349 125.911V132.063L110.26 127.394L110.271 121.234L118.349 125.911Z" fill="#263238"/>
<path d="M118.349 127.854L110.767 130.484V134.693L118.349 132.063V127.854Z" fill="#407BFF"/>
<path opacity="0.2" d="M118.349 127.854L110.767 130.484V134.693L118.349 132.063V127.854Z" fill="black"/>
<path d="M107.421 124.166L110.767 130.484C113.43 130.062 115.997 129.172 118.349 127.854L110.26 123.192C109.377 123.677 108.416 124.006 107.421 124.166V124.166Z" fill="#407BFF"/>
<path d="M107.418 124.166V126.084L110.767 134.693V130.484L107.418 124.166Z" fill="#407BFF"/>
<path opacity="0.4" d="M107.418 124.166V126.084L110.767 134.693V130.484L107.418 124.166Z" fill="black"/>
<path d="M102.182 129.564C100.667 128.686 98.3908 128.194 98.5925 127.051L87.1336 121.553C87.1336 121.553 87.1336 124.279 87.1336 124.658C87.1583 129.968 94.1321 134.545 103.51 135.111C105.936 135.278 108.374 135.143 110.767 134.708V131.624C108.42 132.021 104.037 130.626 102.182 129.564Z" fill="#407BFF"/>
<path opacity="0.5" d="M102.182 129.564C100.667 128.686 98.3908 128.194 98.5925 127.051L87.1336 121.553C87.1336 121.553 87.1336 124.279 87.1336 124.658C87.1583 129.968 94.1321 134.545 103.51 135.111C105.936 135.278 108.374 135.143 110.767 134.708V131.624C108.42 132.021 104.037 130.626 102.182 129.564Z" fill="black"/>
<path d="M100.564 124.304C99.0492 123.429 98.3908 122.243 98.5925 121.1L87.2362 120.41C86.1742 126.208 93.4666 131.405 103.52 132.014C105.947 132.179 108.384 132.043 110.777 131.61L107.432 125.291C105.074 125.702 102.419 125.376 100.564 124.304Z" fill="#407BFF"/>
<path opacity="0.3" d="M100.564 124.304C99.0492 123.429 98.3908 122.243 98.5925 121.1L87.2362 120.41C86.1742 126.208 93.4666 131.405 103.52 132.014C105.947 132.179 108.384 132.043 110.777 131.61L107.432 125.291C105.074 125.702 102.419 125.376 100.564 124.304Z" fill="black"/>
<path d="M59.118 108.324C59.4135 106.13 59.2837 103.899 58.7357 101.754C58.148 99.4138 56.9657 97.7854 55.5674 96.9287C54.1691 96.0721 51.6238 96.9712 53.6558 99.7076C55.6877 102.444 57.7516 105.927 57.971 108.558L59.118 108.324Z" fill="#37474F"/>
<path d="M58.7251 108.579C58.7018 108.578 58.6789 108.573 58.6576 108.564C58.6363 108.555 58.617 108.541 58.6009 108.525C58.5848 108.508 58.5722 108.488 58.5637 108.466C58.5552 108.445 58.5511 108.422 58.5516 108.398C58.6507 103.559 56.3816 98.6917 54.3036 97.573C54.2618 97.551 54.2305 97.5132 54.2166 97.4681C54.2026 97.4229 54.2072 97.3741 54.2293 97.3323C54.2513 97.2905 54.2891 97.2592 54.3342 97.2453C54.3794 97.2313 54.4282 97.2359 54.47 97.258C56.6542 98.4262 59.0224 103.442 58.9198 108.405C58.9199 108.43 58.9149 108.455 58.9048 108.477C58.8948 108.5 58.8801 108.52 58.8617 108.536C58.8433 108.553 58.8215 108.565 58.798 108.572C58.7744 108.58 58.7496 108.582 58.7251 108.579Z" fill="white"/>
<path d="M59.2915 116.884C57.0613 118.179 54.5266 116.99 54.0877 114.501C53.9354 113.634 53.7832 112.731 52.9796 112.239C52.307 111.822 51.4008 111.768 50.8238 111.209C50.0025 110.409 50.4698 109.379 50.9866 108.568C51.4681 107.832 51.8575 106.972 51.4043 106.129C51.1264 105.687 50.9063 105.211 50.7494 104.713C50.6731 104.465 50.6627 104.201 50.7192 103.947C50.7756 103.693 50.8971 103.458 51.0716 103.265C51.4964 102.862 52.1654 102.879 52.7354 103.018C53.6595 103.265 54.5098 103.732 55.2134 104.38C55.7125 104.809 55.9957 105.244 56.7143 105.375C57.2453 105.471 57.7976 105.375 58.3215 105.499C58.6518 105.589 58.9591 105.748 59.2228 105.966C59.4866 106.184 59.7007 106.455 59.8508 106.763C60.3712 107.779 60.2048 108.961 60.1234 110.055C60.0419 111.149 59.9393 112.137 59.8118 113.174C59.7056 114.052 59.5853 114.944 59.4578 115.804C59.4366 115.939 59.4118 116.82 59.2915 116.884Z" fill="#455A64"/>
<path d="M59.5039 115.659C59.4615 115.658 59.4207 115.643 59.3889 115.615C59.3571 115.587 59.3363 115.549 59.3304 115.507C58.5551 109.949 53.8753 104.777 52.1336 103.888C52.1129 103.878 52.0945 103.863 52.0795 103.845C52.0645 103.827 52.0531 103.807 52.046 103.785C52.039 103.762 52.0363 103.739 52.0383 103.716C52.0403 103.693 52.0468 103.67 52.0575 103.649C52.0682 103.629 52.0828 103.61 52.1006 103.595C52.1184 103.58 52.139 103.569 52.1612 103.562C52.1834 103.555 52.2067 103.552 52.2299 103.554C52.2531 103.556 52.2757 103.563 52.2964 103.573C54.1408 104.515 58.8773 109.694 59.6809 115.461C59.6869 115.507 59.6743 115.554 59.6457 115.591C59.6172 115.628 59.5751 115.653 59.5286 115.659H59.5039Z" fill="white"/>
<path d="M52.5867 109.641C52.5398 109.65 52.491 109.641 52.4512 109.614C52.4113 109.588 52.3837 109.546 52.3743 109.499C52.3649 109.452 52.3746 109.404 52.4011 109.364C52.4277 109.324 52.469 109.296 52.5159 109.287C53.9198 108.743 55.4315 108.534 56.9303 108.678C56.9534 108.68 56.976 108.686 56.9966 108.697C57.0172 108.707 57.0355 108.722 57.0503 108.74C57.0652 108.758 57.0763 108.778 57.0831 108.801C57.0898 108.823 57.092 108.846 57.0896 108.869C57.0874 108.892 57.0806 108.915 57.0696 108.936C57.0586 108.956 57.0436 108.975 57.0255 108.989C57.0073 109.004 56.9865 109.015 56.9641 109.022C56.9417 109.029 56.9181 109.031 56.8949 109.028C55.4509 108.904 53.9977 109.112 52.6469 109.637C52.627 109.641 52.6068 109.642 52.5867 109.641Z" fill="white"/>
<path d="M59.7871 118.194C59.4724 117.982 59.2122 117.698 59.0276 117.367C58.8431 117.035 58.7394 116.665 58.7251 116.285V62.789C58.7453 62.398 58.8579 62.0175 59.0535 61.6784C59.2492 61.3394 59.5224 61.0515 59.8508 60.8384L123.072 24.341C123.406 24.1639 123.778 24.0674 124.156 24.0594C124.535 24.0514 124.91 24.1321 125.252 24.295C125.567 24.5043 125.828 24.7856 126.012 25.1155C126.197 25.4455 126.301 25.8146 126.314 26.1925V79.7066C126.294 80.0976 126.181 80.4781 125.986 80.8172C125.79 81.1562 125.517 81.4441 125.189 81.6572L61.9677 118.155C61.6327 118.331 61.2608 118.427 60.882 118.434C60.5032 118.441 60.1282 118.358 59.7871 118.194V118.194Z" fill="#407BFF"/>
<path d="M65.0687 65.136L59.0507 61.6668C58.8473 62.0029 58.734 62.3857 58.7215 62.7784V116.285C58.7108 116.668 58.8036 117.047 58.9904 117.381C59.1771 117.715 59.4507 117.993 59.7822 118.184C60.1138 118.376 60.4909 118.474 60.8738 118.469C61.2566 118.464 61.6309 118.355 61.9571 118.155L65.0581 116.363L65.0687 65.136Z" fill="#407BFF"/>
<path opacity="0.2" d="M65.0687 65.136L59.0507 61.6668C58.8473 62.0029 58.734 62.3857 58.7215 62.7784V116.285C58.7108 116.668 58.8036 117.047 58.9904 117.381C59.1771 117.715 59.4507 117.993 59.7822 118.184C60.1138 118.376 60.4909 118.474 60.8738 118.469C61.2566 118.464 61.6309 118.355 61.9571 118.155L65.0581 116.363L65.0687 65.136Z" fill="black"/>
<path d="M61.9677 62.0597L125.181 25.5446C125.805 25.1906 126.307 25.4774 126.307 26.1925V79.7066C126.287 80.0976 126.174 80.4781 125.979 80.8172C125.783 81.1562 125.51 81.4441 125.181 81.6572L61.9677 118.155C61.3482 118.509 60.8455 118.222 60.8455 117.503V64.0103C60.8654 63.6197 60.9774 63.2393 61.1724 62.9003C61.3675 62.5613 61.64 62.2732 61.9677 62.0597Z" fill="#407BFF"/>
<g opacity="0.5">
<path d="M61.9677 62.0597L125.181 25.5446C125.805 25.1906 126.307 25.4774 126.307 26.1925V79.7066C126.287 80.0976 126.174 80.4781 125.979 80.8172C125.783 81.1562 125.51 81.4441 125.181 81.6572L61.9677 118.155C61.3482 118.509 60.8455 118.222 60.8455 117.503V64.0103C60.8654 63.6197 60.9774 63.2393 61.1724 62.9003C61.3675 62.5613 61.64 62.2732 61.9677 62.0597Z" fill="white"/>
</g>
<path opacity="0.4" d="M67.1786 105.389C67.243 101.531 67.5136 97.6786 67.9892 93.8489C68.4813 89.6894 69.4902 82.6696 73.5046 80.3545C77.5189 78.0393 79.0234 82.2236 79.6004 84.2874C80.3545 86.9601 84.2768 85.268 84.8255 80.8571C85.3742 76.4463 85.7246 62.4102 90.4258 59.695C95.1269 56.9798 96.6491 63.5147 97.1836 65.3378C98.2456 68.9203 101.325 67.9326 102.334 65.5573C103.343 63.1819 106.087 62.6049 107.124 65.9431C108.161 69.2813 108.805 73.1152 112.168 71.1469C115.117 69.4194 113.761 66.2723 116.639 64.7749C117.478 64.343 119.149 64.5838 119.525 67.0476C119.867 69.6526 120.018 72.2793 119.974 74.9064L67.1786 105.389Z" fill="white"/>
<path d="M67.1786 105.651C67.1097 105.65 67.044 105.622 66.9956 105.573C66.9473 105.524 66.9202 105.458 66.9202 105.389C66.985 101.518 67.2556 97.6527 67.7308 93.81C68.1273 90.4576 69.0583 82.6094 73.3736 80.1173C74.6515 79.381 75.8056 79.2146 76.8074 79.6217C78.142 80.1633 79.1367 81.6643 79.8518 84.2237C80.0642 84.9742 80.5598 85.3636 81.243 85.3105C82.6165 85.2043 84.2343 83.5015 84.5671 80.8324C84.6556 80.1244 84.7405 79.1544 84.8361 78.0322C85.36 71.9682 86.2521 61.819 90.2983 59.4755C91.5409 58.7675 92.6807 58.6047 93.6932 59.0153C95.9198 59.918 96.8792 63.2987 97.3358 64.9236C97.3712 65.0546 97.4031 65.1714 97.435 65.2776C97.8279 66.6193 98.5536 67.4016 99.4775 67.4405C100.494 67.5078 101.584 66.6724 102.094 65.4688C102.66 64.1342 103.764 63.3094 104.869 63.366C105.973 63.4226 106.894 64.336 107.372 65.8829C107.485 66.2369 107.595 66.6157 107.701 66.9839C108.292 68.9911 108.844 70.8779 109.984 71.3381C110.533 71.554 111.206 71.423 112.037 70.9381C113.425 70.1239 113.807 69.0017 114.183 67.8122C114.558 66.6228 114.986 65.359 116.519 64.5625C116.8 64.4246 117.11 64.3546 117.423 64.3583C117.736 64.362 118.043 64.4392 118.321 64.5838C118.859 64.8563 119.549 65.5042 119.779 67.0264C120.124 69.6466 120.275 72.2887 120.233 74.9312C120.233 74.9656 120.227 74.9997 120.213 75.0314C120.2 75.0631 120.18 75.0917 120.155 75.1153C120.13 75.1389 120.101 75.1571 120.068 75.1687C120.036 75.1803 120.001 75.185 119.967 75.1825C119.898 75.1807 119.833 75.1518 119.785 75.1021C119.737 75.0524 119.711 74.9859 119.712 74.917C119.757 72.3053 119.608 69.6938 119.266 67.1042C119.068 65.798 118.516 65.2634 118.087 65.0475C117.883 64.9405 117.657 64.8829 117.426 64.8792C117.196 64.8755 116.967 64.9259 116.76 65.0263C115.415 65.7343 115.057 66.8175 114.678 67.9751C114.275 69.2035 113.857 70.4743 112.299 71.3876C111.319 71.9576 110.501 72.0956 109.793 71.8195C108.42 71.2744 107.828 69.2601 107.202 67.129C107.096 66.775 106.989 66.3962 106.876 66.0352C106.465 64.7112 105.722 63.9289 104.844 63.8828C103.966 63.8368 103.046 64.559 102.571 65.6741C101.97 67.0901 100.688 68.0317 99.4457 67.9609C98.7731 67.922 97.5553 67.5397 96.9358 65.4263C96.904 65.3236 96.8721 65.2033 96.8332 65.0723C96.3977 63.5288 95.488 60.311 93.4949 59.5039C92.6418 59.1499 91.6541 59.3021 90.5567 59.9322C86.7335 62.1412 85.8379 72.5134 85.3565 78.0853C85.2574 79.211 85.1724 80.1845 85.0839 80.9173C84.7299 83.852 82.8643 85.7282 81.2819 85.8485C80.3509 85.9193 79.6288 85.3706 79.3526 84.383C78.6836 82.0076 77.788 80.62 76.6091 80.135C75.7666 79.781 74.7648 79.9474 73.632 80.5987C69.5433 82.9599 68.6335 90.6275 68.2477 93.902C67.775 97.7212 67.5055 101.563 67.4405 105.411C67.4352 105.476 67.4052 105.538 67.3567 105.582C67.3081 105.627 67.2445 105.652 67.1786 105.651V105.651Z" fill="#F5F5F5"/>
<path d="M74.6621 80.3049C74.618 80.3049 74.5757 80.2874 74.5445 80.2562C74.5133 80.225 74.4958 80.1827 74.4958 80.1385V79.8128C74.4923 79.7892 74.4939 79.7651 74.5006 79.7421C74.5073 79.7192 74.5188 79.698 74.5345 79.6799C74.5501 79.6618 74.5694 79.6473 74.5911 79.6373C74.6129 79.6274 74.6365 79.6223 74.6604 79.6223C74.6843 79.6223 74.7079 79.6274 74.7296 79.6373C74.7513 79.6473 74.7707 79.6618 74.7863 79.6799C74.8019 79.698 74.8134 79.7192 74.8201 79.7421C74.8268 79.7651 74.8285 79.7892 74.825 79.8128V80.1385C74.825 80.182 74.8079 80.2238 74.7775 80.2549C74.7471 80.286 74.7056 80.304 74.6621 80.3049V80.3049Z" fill="#F5F5F5"/>
<path d="M74.6621 99.9484C74.6403 99.9484 74.6187 99.9441 74.5985 99.9357C74.5783 99.9273 74.5599 99.9151 74.5445 99.8996C74.529 99.8842 74.5168 99.8658 74.5084 99.8457C74.5001 99.8255 74.4958 99.8038 74.4958 99.782V99.12C74.5016 99.0805 74.5214 99.0444 74.5516 99.0183C74.5818 98.9922 74.6204 98.9778 74.6604 98.9778C74.7003 98.9778 74.7389 98.9922 74.7691 99.0183C74.7993 99.0444 74.8192 99.0805 74.825 99.12V99.7749C74.8259 99.797 74.8224 99.8192 74.8147 99.8399C74.807 99.8607 74.7952 99.8797 74.7801 99.8959C74.7649 99.9121 74.7466 99.925 74.7264 99.934C74.7061 99.943 74.6843 99.9479 74.6621 99.9484V99.9484ZM74.6621 98.6386C74.618 98.6386 74.5757 98.621 74.5445 98.5898C74.5133 98.5586 74.4958 98.5163 74.4958 98.4722V97.8173C74.5016 97.7778 74.5214 97.7417 74.5516 97.7156C74.5818 97.6895 74.6204 97.6751 74.6604 97.6751C74.7003 97.6751 74.7389 97.6895 74.7691 97.7156C74.7993 97.7417 74.8192 97.7778 74.825 97.8173V98.4722C74.825 98.5157 74.8079 98.5575 74.7775 98.5886C74.7471 98.6197 74.7056 98.6376 74.6621 98.6386V98.6386ZM74.6621 97.3288C74.6403 97.3288 74.6187 97.3245 74.5985 97.3161C74.5783 97.3077 74.5599 97.2955 74.5445 97.28C74.529 97.2646 74.5168 97.2462 74.5084 97.2261C74.5001 97.2059 74.4958 97.1842 74.4958 97.1624V96.511C74.4923 96.4874 74.4939 96.4633 74.5006 96.4403C74.5073 96.4174 74.5188 96.3961 74.5345 96.3781C74.5501 96.36 74.5694 96.3455 74.5911 96.3355C74.6129 96.3256 74.6365 96.3204 74.6604 96.3204C74.6843 96.3204 74.7079 96.3256 74.7296 96.3355C74.7513 96.3455 74.7707 96.36 74.7863 96.3781C74.8019 96.3961 74.8134 96.4174 74.8201 96.4403C74.8268 96.4633 74.8285 96.4874 74.825 96.511V97.1624C74.825 97.2059 74.8079 97.2477 74.7775 97.2788C74.7471 97.3099 74.7056 97.3278 74.6621 97.3288V97.3288ZM74.6621 96.019C74.6186 96.019 74.5768 96.0019 74.5457 95.9715C74.5146 95.9411 74.4967 95.8996 74.4958 95.8561V95.2012C74.4923 95.1776 74.4939 95.1535 74.5006 95.1305C74.5073 95.1076 74.5188 95.0864 74.5345 95.0683C74.5501 95.0502 74.5694 95.0357 74.5911 95.0257C74.6129 95.0158 74.6365 95.0106 74.6604 95.0106C74.6843 95.0106 74.7079 95.0158 74.7296 95.0257C74.7513 95.0357 74.7707 95.0502 74.7863 95.0683C74.8019 95.0864 74.8134 95.1076 74.8201 95.1305C74.8268 95.1535 74.8285 95.1776 74.825 95.2012V95.8561C74.8241 95.899 74.8066 95.9399 74.7763 95.9703C74.7459 96.0006 74.705 96.0181 74.6621 96.019V96.019ZM74.6621 94.7092C74.6186 94.7092 74.5768 94.6921 74.5457 94.6617C74.5146 94.6312 74.4967 94.5898 74.4958 94.5463V93.8914C74.4923 93.8678 74.4939 93.8437 74.5006 93.8207C74.5073 93.7978 74.5188 93.7765 74.5345 93.7585C74.5501 93.7404 74.5694 93.7259 74.5911 93.7159C74.6129 93.706 74.6365 93.7008 74.6604 93.7008C74.6843 93.7008 74.7079 93.706 74.7296 93.7159C74.7513 93.7259 74.7707 93.7404 74.7863 93.7585C74.8019 93.7765 74.8134 93.7978 74.8201 93.8207C74.8268 93.8437 74.8285 93.8678 74.825 93.8914V94.5463C74.8241 94.5892 74.8066 94.6301 74.7763 94.6605C74.7459 94.6908 74.705 94.7083 74.6621 94.7092V94.7092ZM74.6621 93.3994C74.6186 93.3994 74.5768 93.3823 74.5457 93.3519C74.5146 93.3215 74.4967 93.28 74.4958 93.2365V92.5816C74.4923 92.558 74.4939 92.5339 74.5006 92.5109C74.5073 92.488 74.5188 92.4668 74.5345 92.4487C74.5501 92.4306 74.5694 92.4161 74.5911 92.4061C74.6129 92.3962 74.6365 92.391 74.6604 92.391C74.6843 92.391 74.7079 92.3962 74.7296 92.4061C74.7513 92.4161 74.7707 92.4306 74.7863 92.4487C74.8019 92.4668 74.8134 92.488 74.8201 92.5109C74.8268 92.5339 74.8285 92.558 74.825 92.5816V93.2365C74.8241 93.2794 74.8066 93.3203 74.7763 93.3507C74.7459 93.381 74.705 93.3985 74.6621 93.3994V93.3994ZM74.6621 92.0896C74.6186 92.0896 74.5768 92.0725 74.5457 92.0421C74.5146 92.0116 74.4967 91.9702 74.4958 91.9267V91.2718C74.4923 91.2482 74.4939 91.2241 74.5006 91.2011C74.5073 91.1782 74.5188 91.1569 74.5345 91.1389C74.5501 91.1208 74.5694 91.1063 74.5911 91.0963C74.6129 91.0864 74.6365 91.0812 74.6604 91.0812C74.6843 91.0812 74.7079 91.0864 74.7296 91.0963C74.7513 91.1063 74.7707 91.1208 74.7863 91.1389C74.8019 91.1569 74.8134 91.1782 74.8201 91.2011C74.8268 91.2241 74.8285 91.2482 74.825 91.2718V91.9267C74.8241 91.9696 74.8066 92.0105 74.7763 92.0409C74.7459 92.0712 74.705 92.0887 74.6621 92.0896V92.0896ZM74.6621 90.7798C74.6405 90.7802 74.6189 90.7764 74.5987 90.7684C74.5786 90.7604 74.5602 90.7485 74.5447 90.7333C74.5292 90.7182 74.5169 90.7001 74.5085 90.6801C74.5001 90.6601 74.4958 90.6386 74.4958 90.6169V89.962C74.4923 89.9384 74.4939 89.9143 74.5006 89.8913C74.5073 89.8684 74.5188 89.8472 74.5345 89.8291C74.5501 89.811 74.5694 89.7965 74.5911 89.7865C74.6129 89.7766 74.6365 89.7714 74.6604 89.7714C74.6843 89.7714 74.7079 89.7766 74.7296 89.7865C74.7513 89.7965 74.7707 89.811 74.7863 89.8291C74.8019 89.8472 74.8134 89.8684 74.8201 89.8913C74.8268 89.9143 74.8285 89.9384 74.825 89.962V90.624C74.8232 90.666 74.8052 90.7056 74.7748 90.7346C74.7445 90.7636 74.7041 90.7798 74.6621 90.7798V90.7798ZM74.6621 89.47C74.6405 89.4704 74.6189 89.4666 74.5987 89.4586C74.5786 89.4506 74.5602 89.4387 74.5447 89.4235C74.5292 89.4084 74.5169 89.3903 74.5085 89.3703C74.5001 89.3503 74.4958 89.3288 74.4958 89.3071V88.6522C74.4923 88.6286 74.4939 88.6045 74.5006 88.5815C74.5073 88.5586 74.5188 88.5374 74.5345 88.5193C74.5501 88.5012 74.5694 88.4867 74.5911 88.4767C74.6129 88.4668 74.6365 88.4616 74.6604 88.4616C74.6843 88.4616 74.7079 88.4668 74.7296 88.4767C74.7513 88.4867 74.7707 88.5012 74.7863 88.5193C74.8019 88.5374 74.8134 88.5586 74.8201 88.5815C74.8268 88.6045 74.8285 88.6286 74.825 88.6522V89.3071C74.825 89.3285 74.8208 89.3497 74.8126 89.3694C74.8044 89.3892 74.7924 89.4072 74.7773 89.4223C74.7622 89.4374 74.7442 89.4494 74.7245 89.4576C74.7047 89.4658 74.6835 89.47 74.6621 89.47V89.47ZM74.6621 88.1602C74.6405 88.1606 74.6189 88.1568 74.5987 88.1488C74.5786 88.1408 74.5602 88.1289 74.5447 88.1137C74.5292 88.0986 74.5169 88.0805 74.5085 88.0605C74.5001 88.0405 74.4958 88.019 74.4958 87.9973V87.3424C74.5016 87.3029 74.5214 87.2668 74.5516 87.2407C74.5818 87.2146 74.6204 87.2002 74.6604 87.2002C74.7003 87.2002 74.7389 87.2146 74.7691 87.2407C74.7993 87.2668 74.8192 87.3029 74.825 87.3424V87.9973C74.8214 88.038 74.8027 88.0759 74.7726 88.1034C74.7424 88.131 74.703 88.1462 74.6621 88.146V88.1602ZM74.6621 86.8539C74.618 86.8539 74.5757 86.8364 74.5445 86.8052C74.5133 86.774 74.4958 86.7317 74.4958 86.6875V86.022C74.5016 85.9825 74.5214 85.9464 74.5516 85.9203C74.5818 85.8942 74.6204 85.8798 74.6604 85.8798C74.7003 85.8798 74.7389 85.8942 74.7691 85.9203C74.7993 85.9464 74.8192 85.9825 74.825 86.022V86.6769C74.8264 86.6993 74.8233 86.7218 74.8158 86.743C74.8083 86.7642 74.7966 86.7837 74.7814 86.8002C74.7662 86.8167 74.7478 86.83 74.7273 86.8393C74.7068 86.8485 74.6846 86.8535 74.6621 86.8539V86.8539ZM74.6621 85.5441C74.618 85.5441 74.5757 85.5266 74.5445 85.4954C74.5133 85.4642 74.4958 85.4219 74.4958 85.3777V84.7228C74.5016 84.6833 74.5214 84.6472 74.5516 84.6211C74.5818 84.595 74.6204 84.5807 74.6604 84.5807C74.7003 84.5807 74.7389 84.595 74.7691 84.6211C74.7993 84.6472 74.8192 84.6833 74.825 84.7228V85.3777C74.825 85.4212 74.8079 85.463 74.7775 85.4941C74.7471 85.5252 74.7056 85.5432 74.6621 85.5441V85.5441ZM74.6621 84.2343C74.618 84.2343 74.5757 84.2168 74.5445 84.1856C74.5133 84.1544 74.4958 84.1121 74.4958 84.0679V83.413C74.5016 83.3735 74.5214 83.3374 74.5516 83.3113C74.5818 83.2852 74.6204 83.2709 74.6604 83.2709C74.7003 83.2709 74.7389 83.2852 74.7691 83.3113C74.7993 83.3374 74.8192 83.3735 74.825 83.413V84.0679C74.8274 84.0909 74.8251 84.1142 74.8181 84.1362C74.811 84.1582 74.7995 84.1786 74.7842 84.1959C74.7688 84.2132 74.7501 84.2271 74.7291 84.2368C74.7081 84.2465 74.6853 84.2516 74.6621 84.252V84.2343ZM74.6621 82.9245C74.618 82.9245 74.5757 82.907 74.5445 82.8758C74.5133 82.8446 74.4958 82.8023 74.4958 82.7581V82.1032C74.5016 82.0637 74.5214 82.0276 74.5516 82.0015C74.5818 81.9754 74.6204 81.9611 74.6604 81.9611C74.7003 81.9611 74.7389 81.9754 74.7691 82.0015C74.7993 82.0276 74.8192 82.0637 74.825 82.1032V82.7581C74.825 82.8016 74.8079 82.8434 74.7775 82.8745C74.7471 82.9056 74.7056 82.9236 74.6621 82.9245V82.9245ZM74.6621 81.6147C74.618 81.6147 74.5757 81.5972 74.5445 81.566C74.5133 81.5348 74.4958 81.4925 74.4958 81.4483V80.7934C74.5016 80.7539 74.5214 80.7178 74.5516 80.6917C74.5818 80.6656 74.6204 80.6512 74.6604 80.6512C74.7003 80.6512 74.7389 80.6656 74.7691 80.6917C74.7993 80.7178 74.8192 80.7539 74.825 80.7934V81.4483C74.825 81.4918 74.8079 81.5336 74.7775 81.5647C74.7471 81.5958 74.7056 81.6138 74.6621 81.6147V81.6147Z" fill="#F5F5F5"/>
<path d="M74.6621 100.932C74.6403 100.932 74.6187 100.928 74.5985 100.92C74.5783 100.911 74.5599 100.899 74.5445 100.884C74.529 100.868 74.5168 100.85 74.5084 100.83C74.5001 100.81 74.4958 100.788 74.4958 100.766V100.437C74.5016 100.397 74.5214 100.361 74.5516 100.335C74.5818 100.309 74.6204 100.295 74.6604 100.295C74.7003 100.295 74.7389 100.309 74.7691 100.335C74.7993 100.361 74.8192 100.397 74.825 100.437V100.766C74.825 100.81 74.8079 100.851 74.7775 100.883C74.7471 100.914 74.7057 100.932 74.6621 100.932V100.932Z" fill="#F5F5F5"/>
<path d="M91.6471 59.7446C91.6042 59.7437 91.5633 59.7262 91.5329 59.6959C91.5026 59.6655 91.4851 59.6246 91.4842 59.5817V59.2525C91.4807 59.2289 91.4824 59.2048 91.4891 59.1818C91.4958 59.1589 91.5073 59.1376 91.5229 59.1196C91.5385 59.1015 91.5579 59.087 91.5796 59.077C91.6013 59.0671 91.6249 59.0619 91.6488 59.0619C91.6727 59.0619 91.6963 59.0671 91.7181 59.077C91.7398 59.087 91.7591 59.1015 91.7747 59.1196C91.7904 59.1376 91.8019 59.1589 91.8086 59.1818C91.8153 59.2048 91.8169 59.2289 91.8134 59.2525V59.5817C91.8125 59.6253 91.7946 59.6667 91.7635 59.6971C91.7324 59.7276 91.6906 59.7446 91.6471 59.7446V59.7446Z" fill="#F5F5F5"/>
<path d="M91.6471 90.4505C91.6036 90.4496 91.5621 90.4317 91.5317 90.4006C91.5013 90.3695 91.4842 90.3277 91.4842 90.2842V89.6186C91.4807 89.595 91.4824 89.5709 91.4891 89.5479C91.4958 89.525 91.5073 89.5038 91.5229 89.4857C91.5385 89.4676 91.5579 89.4531 91.5796 89.4432C91.6013 89.4332 91.6249 89.4281 91.6488 89.4281C91.6727 89.4281 91.6963 89.4332 91.7181 89.4432C91.7398 89.4531 91.7591 89.4676 91.7747 89.4857C91.7904 89.5038 91.8019 89.525 91.8086 89.5479C91.8153 89.5709 91.8169 89.595 91.8134 89.6186V90.27C91.8154 90.293 91.8126 90.3162 91.8051 90.338C91.7976 90.3599 91.7857 90.3799 91.77 90.3969C91.7544 90.4139 91.7353 90.4274 91.7142 90.4367C91.693 90.4459 91.6702 90.4506 91.6471 90.4505V90.4505ZM91.6471 89.116C91.6036 89.115 91.5621 89.0971 91.5317 89.066C91.5013 89.0349 91.4842 88.9931 91.4842 88.9496V88.2805C91.49 88.241 91.5098 88.2049 91.5401 88.1788C91.5703 88.1527 91.6089 88.1383 91.6488 88.1383C91.6888 88.1383 91.7274 88.1527 91.7576 88.1788C91.7878 88.2049 91.8076 88.241 91.8134 88.2805V88.9496C91.8134 88.9714 91.8091 88.9931 91.8008 89.0133C91.7924 89.0334 91.7802 89.0518 91.7647 89.0672C91.7493 89.0827 91.7309 89.0949 91.7107 89.1033C91.6905 89.1117 91.6689 89.116 91.6471 89.116V89.116ZM91.6471 87.7778C91.6039 87.7778 91.5624 87.7607 91.5319 87.7301C91.5014 87.6996 91.4842 87.6582 91.4842 87.615V86.9459C91.49 86.9064 91.5098 86.8703 91.5401 86.8442C91.5703 86.8181 91.6089 86.8038 91.6488 86.8038C91.6888 86.8038 91.7274 86.8181 91.7576 86.8442C91.7878 86.8703 91.8076 86.9064 91.8134 86.9459V87.615C91.8154 87.6378 91.8126 87.6609 91.8051 87.6825C91.7976 87.7042 91.7856 87.724 91.7699 87.7407C91.7542 87.7575 91.7351 87.7707 91.7139 87.7795C91.6928 87.7883 91.67 87.7926 91.6471 87.792V87.7778ZM91.6471 86.4433C91.6042 86.4424 91.5633 86.4249 91.5329 86.3946C91.5026 86.3642 91.4851 86.3233 91.4842 86.2804V85.6114C91.49 85.5719 91.5098 85.5358 91.5401 85.5096C91.5703 85.4835 91.6089 85.4692 91.6488 85.4692C91.6888 85.4692 91.7274 85.4835 91.7576 85.5096C91.7878 85.5358 91.8076 85.5719 91.8134 85.6114V86.2804C91.8125 86.3239 91.7946 86.3653 91.7635 86.3958C91.7324 86.4262 91.6906 86.4433 91.6471 86.4433V86.4433ZM91.6471 85.1087C91.6042 85.1078 91.5633 85.0903 91.5329 85.06C91.5026 85.0296 91.4851 84.9887 91.4842 84.9458V84.2768C91.49 84.2373 91.5098 84.2012 91.5401 84.1751C91.5703 84.149 91.6089 84.1346 91.6488 84.1346C91.6888 84.1346 91.7274 84.149 91.7576 84.1751C91.7878 84.2012 91.8076 84.2373 91.8134 84.2768V84.96C91.809 85.001 91.7896 85.0389 91.7589 85.0664C91.7281 85.0938 91.6883 85.1089 91.6471 85.1087V85.1087ZM91.6471 83.7741C91.6042 83.7732 91.5633 83.7558 91.5329 83.7254C91.5026 83.6951 91.4851 83.6542 91.4842 83.6113V82.9422C91.49 82.9027 91.5098 82.8666 91.5401 82.8405C91.5703 82.8144 91.6089 82.8 91.6488 82.8C91.6888 82.8 91.7274 82.8144 91.7576 82.8405C91.7878 82.8666 91.8076 82.9027 91.8134 82.9422V83.6113C91.8125 83.6548 91.7946 83.6962 91.7635 83.7266C91.7324 83.7571 91.6906 83.7741 91.6471 83.7741V83.7741ZM91.6471 82.4395C91.6036 82.4386 91.5621 82.4207 91.5317 82.3896C91.5013 82.3585 91.4842 82.3167 91.4842 82.2731V81.6076C91.4807 81.584 91.4824 81.5599 91.4891 81.5369C91.4958 81.514 91.5073 81.4927 91.5229 81.4747C91.5385 81.4566 91.5579 81.4421 91.5796 81.4321C91.6013 81.4222 91.6249 81.417 91.6488 81.417C91.6727 81.417 91.6963 81.4222 91.7181 81.4321C91.7398 81.4421 91.7591 81.4566 91.7747 81.4747C91.7904 81.4927 91.8019 81.514 91.8086 81.5369C91.8153 81.5599 91.8169 81.584 91.8134 81.6076V82.2731C91.8134 82.295 91.8091 82.3166 91.8008 82.3368C91.7924 82.357 91.7802 82.3753 91.7647 82.3908C91.7493 82.4062 91.7309 82.4185 91.7107 82.4269C91.6905 82.4352 91.6689 82.4395 91.6471 82.4395V82.4395ZM91.6471 81.1049C91.6036 81.104 91.5621 81.0861 91.5317 81.055C91.5013 81.0239 91.4842 80.9821 91.4842 80.9386V80.273C91.4807 80.2494 91.4824 80.2253 91.4891 80.2023C91.4958 80.1794 91.5073 80.1582 91.5229 80.1401C91.5385 80.122 91.5579 80.1075 91.5796 80.0975C91.6013 80.0876 91.6249 80.0825 91.6488 80.0825C91.6727 80.0825 91.6963 80.0876 91.7181 80.0975C91.7398 80.1075 91.7591 80.122 91.7747 80.1401C91.7904 80.1582 91.8019 80.1794 91.8086 80.2023C91.8153 80.2253 91.8169 80.2494 91.8134 80.273V80.9386C91.8134 80.9604 91.8091 80.982 91.8008 81.0022C91.7924 81.0224 91.7802 81.0408 91.7647 81.0562C91.7493 81.0717 91.7309 81.0839 91.7107 81.0923C91.6905 81.1006 91.6689 81.1049 91.6471 81.1049V81.1049ZM91.6471 79.7704C91.6036 79.7694 91.5621 79.7515 91.5317 79.7204C91.5013 79.6893 91.4842 79.6475 91.4842 79.604V78.942C91.4807 78.9184 91.4824 78.8942 91.4891 78.8713C91.4958 78.8484 91.5073 78.8271 91.5229 78.809C91.5385 78.791 91.5579 78.7765 91.5796 78.7665C91.6013 78.7566 91.6249 78.7514 91.6488 78.7514C91.6727 78.7514 91.6963 78.7566 91.7181 78.7665C91.7398 78.7765 91.7591 78.791 91.7747 78.809C91.7904 78.8271 91.8019 78.8484 91.8086 78.8713C91.8153 78.8942 91.8169 78.9184 91.8134 78.942V79.6075C91.8125 79.651 91.7946 79.6924 91.7635 79.7229C91.7324 79.7533 91.6906 79.7704 91.6471 79.7704V79.7704ZM91.6471 78.4358C91.6036 78.4349 91.5621 78.4169 91.5317 78.3858C91.5013 78.3547 91.4842 78.3129 91.4842 78.2694V77.6039C91.4807 77.5802 91.4824 77.5561 91.4891 77.5332C91.4958 77.5102 91.5073 77.489 91.5229 77.4709C91.5385 77.4528 91.5579 77.4383 91.5796 77.4284C91.6013 77.4184 91.6249 77.4133 91.6488 77.4133C91.6727 77.4133 91.6963 77.4184 91.7181 77.4284C91.7398 77.4383 91.7591 77.4528 91.7747 77.4709C91.7904 77.489 91.8019 77.5102 91.8086 77.5332C91.8153 77.5561 91.8169 77.5802 91.8134 77.6039V78.2694C91.8134 78.2913 91.8091 78.3129 91.8008 78.3331C91.7924 78.3533 91.7802 78.3716 91.7647 78.3871C91.7493 78.4025 91.7309 78.4148 91.7107 78.4231C91.6905 78.4315 91.6689 78.4358 91.6471 78.4358V78.4358ZM91.6471 77.1012C91.6036 77.1003 91.5621 77.0823 91.5317 77.0512C91.5013 77.0201 91.4842 76.9783 91.4842 76.9348V76.2693C91.4807 76.2457 91.4824 76.2215 91.4891 76.1986C91.4958 76.1757 91.5073 76.1544 91.5229 76.1363C91.5385 76.1183 91.5579 76.1038 91.5796 76.0938C91.6013 76.0839 91.6249 76.0787 91.6488 76.0787C91.6727 76.0787 91.6963 76.0839 91.7181 76.0938C91.7398 76.1038 91.7591 76.1183 91.7747 76.1363C91.7904 76.1544 91.8019 76.1757 91.8086 76.1986C91.8153 76.2215 91.8169 76.2457 91.8134 76.2693V76.9348C91.8134 76.9567 91.8091 76.9783 91.8008 76.9985C91.7924 77.0187 91.7802 77.037 91.7647 77.0525C91.7493 77.0679 91.7309 77.0802 91.7107 77.0885C91.6905 77.0969 91.6689 77.1012 91.6471 77.1012V77.1012ZM91.6471 75.7631C91.6039 75.7631 91.5624 75.7459 91.5319 75.7154C91.5014 75.6848 91.4842 75.6434 91.4842 75.6002V74.9312C91.49 74.8917 91.5098 74.8556 91.5401 74.8295C91.5703 74.8034 91.6089 74.789 91.6488 74.789C91.6888 74.789 91.7274 74.8034 91.7576 74.8295C91.7878 74.8556 91.8076 74.8917 91.8134 74.9312V75.6002C91.8116 75.6428 91.7931 75.683 91.762 75.7121C91.7309 75.7412 91.6897 75.757 91.6471 75.756V75.7631ZM91.6471 74.4285C91.6039 74.4285 91.5624 74.4113 91.5319 74.3808C91.5014 74.3503 91.4842 74.3088 91.4842 74.2657V73.5966C91.49 73.5571 91.5098 73.521 91.5401 73.4949C91.5703 73.4688 91.6089 73.4544 91.6488 73.4544C91.6888 73.4544 91.7274 73.4688 91.7576 73.4949C91.7878 73.521 91.8076 73.5571 91.8134 73.5966V74.2657C91.8134 74.2873 91.8091 74.3088 91.8007 74.3288C91.7923 74.3488 91.78 74.3669 91.7645 74.3821C91.749 74.3972 91.7306 74.4092 91.7105 74.4171C91.6903 74.4251 91.6687 74.429 91.6471 74.4285V74.4285ZM91.6471 73.0939C91.6042 73.093 91.5633 73.0756 91.5329 73.0452C91.5026 73.0149 91.4851 72.974 91.4842 72.9311V72.262C91.49 72.2225 91.5098 72.1864 91.5401 72.1603C91.5703 72.1342 91.6089 72.1198 91.6488 72.1198C91.6888 72.1198 91.7274 72.1342 91.7576 72.1603C91.7878 72.1864 91.8076 72.2225 91.8134 72.262V72.924C91.8139 72.9461 91.81 72.9682 91.8018 72.9888C91.7937 73.0094 91.7815 73.0281 91.766 73.0439C91.7505 73.0598 91.732 73.0723 91.7116 73.0809C91.6911 73.0895 91.6692 73.0939 91.6471 73.0939V73.0939ZM91.6471 71.7593C91.6042 71.7584 91.5633 71.741 91.5329 71.7106C91.5026 71.6803 91.4851 71.6394 91.4842 71.5965V70.9274C91.49 70.8879 91.5098 70.8518 91.5401 70.8257C91.5703 70.7996 91.6089 70.7853 91.6488 70.7853C91.6888 70.7853 91.7274 70.7996 91.7576 70.8257C91.7878 70.8518 91.8076 70.8879 91.8134 70.9274V71.5965C91.8125 71.64 91.7946 71.6814 91.7635 71.7119C91.7324 71.7423 91.6906 71.7594 91.6471 71.7593V71.7593ZM91.6471 70.4248C91.6042 70.4239 91.5633 70.4064 91.5329 70.3761C91.5026 70.3457 91.4851 70.3048 91.4842 70.2619V69.5929C91.49 69.5534 91.5098 69.5173 91.5401 69.4911C91.5703 69.465 91.6089 69.4507 91.6488 69.4507C91.6888 69.4507 91.7274 69.465 91.7576 69.4911C91.7878 69.5173 91.8076 69.5534 91.8134 69.5929V70.2619C91.8125 70.3054 91.7946 70.3468 91.7635 70.3773C91.7324 70.4077 91.6906 70.4248 91.6471 70.4248V70.4248ZM91.6471 69.0902C91.6036 69.0893 91.5621 69.0713 91.5317 69.0402C91.5013 69.0091 91.4842 68.9673 91.4842 68.9238V68.2583C91.4807 68.2346 91.4824 68.2105 91.4891 68.1876C91.4958 68.1646 91.5073 68.1434 91.5229 68.1253C91.5385 68.1072 91.5579 68.0927 91.5796 68.0828C91.6013 68.0728 91.6249 68.0677 91.6488 68.0677C91.6727 68.0677 91.6963 68.0728 91.7181 68.0828C91.7398 68.0927 91.7591 68.1072 91.7747 68.1253C91.7904 68.1434 91.8019 68.1646 91.8086 68.1876C91.8153 68.2105 91.8169 68.2346 91.8134 68.2583V68.9238C91.8134 68.9457 91.8091 68.9673 91.8008 68.9875C91.7924 69.0077 91.7802 69.026 91.7647 69.0414C91.7493 69.0569 91.7309 69.0692 91.7107 69.0775C91.6905 69.0859 91.6689 69.0902 91.6471 69.0902V69.0902ZM91.6471 67.7556C91.6036 67.7547 91.5621 67.7367 91.5317 67.7056C91.5013 67.6745 91.4842 67.6327 91.4842 67.5892V66.9237C91.4807 66.9001 91.4824 66.876 91.4891 66.853C91.4958 66.8301 91.5073 66.8088 91.5229 66.7907C91.5385 66.7727 91.5579 66.7582 91.5796 66.7482C91.6013 66.7383 91.6249 66.7331 91.6488 66.7331C91.6727 66.7331 91.6963 66.7383 91.7181 66.7482C91.7398 66.7582 91.7591 66.7727 91.7747 66.7907C91.7904 66.8088 91.8019 66.8301 91.8086 66.853C91.8153 66.876 91.8169 66.9001 91.8134 66.9237V67.5892C91.8134 67.6111 91.8091 67.6327 91.8008 67.6529C91.7924 67.6731 91.7802 67.6914 91.7647 67.7069C91.7493 67.7223 91.7309 67.7346 91.7107 67.7429C91.6905 67.7513 91.6689 67.7556 91.6471 67.7556V67.7556ZM91.6471 66.421C91.6036 66.4201 91.5621 66.4022 91.5317 66.3711C91.5013 66.34 91.4842 66.2982 91.4842 66.2546V65.5891C91.4807 65.5655 91.4824 65.5414 91.4891 65.5184C91.4958 65.4955 91.5073 65.4742 91.5229 65.4562C91.5385 65.4381 91.5579 65.4236 91.5796 65.4136C91.6013 65.4037 91.6249 65.3985 91.6488 65.3985C91.6727 65.3985 91.6963 65.4037 91.7181 65.4136C91.7398 65.4236 91.7591 65.4381 91.7747 65.4562C91.7904 65.4742 91.8019 65.4955 91.8086 65.5184C91.8153 65.5414 91.8169 65.5655 91.8134 65.5891V66.2546C91.8134 66.2765 91.8091 66.2981 91.8008 66.3183C91.7924 66.3385 91.7802 66.3568 91.7647 66.3723C91.7493 66.3877 91.7309 66.4 91.7107 66.4084C91.6905 66.4167 91.6689 66.421 91.6471 66.421V66.421ZM91.6471 65.0864C91.6036 65.0855 91.5621 65.0676 91.5317 65.0365C91.5013 65.0054 91.4842 64.9636 91.4842 64.9201V64.2545C91.4807 64.2309 91.4824 64.2068 91.4891 64.1838C91.4958 64.1609 91.5073 64.1397 91.5229 64.1216C91.5385 64.1035 91.5579 64.089 91.5796 64.079C91.6013 64.0691 91.6249 64.064 91.6488 64.064C91.6727 64.064 91.6963 64.0691 91.7181 64.079C91.7398 64.089 91.7591 64.1035 91.7747 64.1216C91.7904 64.1397 91.8019 64.1609 91.8086 64.1838C91.8153 64.2068 91.8169 64.2309 91.8134 64.2545V64.9201C91.8134 64.9419 91.8091 64.9635 91.8008 64.9837C91.7924 65.0039 91.7802 65.0223 91.7647 65.0377C91.7493 65.0532 91.7309 65.0654 91.7107 65.0738C91.6905 65.0821 91.6689 65.0864 91.6471 65.0864V65.0864ZM91.6471 63.7519C91.6036 63.7509 91.5621 63.733 91.5317 63.7019C91.5013 63.6708 91.4842 63.629 91.4842 63.5855V62.9164C91.49 62.8769 91.5098 62.8408 91.5401 62.8147C91.5703 62.7886 91.6089 62.7742 91.6488 62.7742C91.6888 62.7742 91.7274 62.7886 91.7576 62.8147C91.7878 62.8408 91.8076 62.8769 91.8134 62.9164V63.5855C91.8134 63.6073 91.8091 63.629 91.8008 63.6492C91.7924 63.6693 91.7802 63.6877 91.7647 63.7031C91.7493 63.7186 91.7309 63.7308 91.7107 63.7392C91.6905 63.7476 91.6689 63.7519 91.6471 63.7519V63.7519ZM91.6471 62.4137C91.6039 62.4137 91.5624 62.3966 91.5319 62.366C91.5014 62.3355 91.4842 62.2941 91.4842 62.2509V61.596C91.49 61.5565 91.5098 61.5204 91.5401 61.4943C91.5703 61.4682 91.6089 61.4538 91.6488 61.4538C91.6888 61.4538 91.7274 61.4682 91.7576 61.4943C91.7878 61.5204 91.8076 61.5565 91.8134 61.596V62.2651C91.8098 62.3064 91.7906 62.3447 91.7597 62.3724C91.7288 62.4 91.6885 62.4148 91.6471 62.4137V62.4137ZM91.6471 61.0792C91.6039 61.0792 91.5624 61.062 91.5319 61.0315C91.5014 61.0009 91.4842 60.9595 91.4842 60.9163V60.2473C91.49 60.2078 91.5098 60.1717 91.5401 60.1456C91.5703 60.1194 91.6089 60.1051 91.6488 60.1051C91.6888 60.1051 91.7274 60.1194 91.7576 60.1456C91.7878 60.1717 91.8076 60.2078 91.8134 60.2473V60.9163C91.8134 60.938 91.8091 60.9595 91.8007 60.9795C91.7923 60.9995 91.78 61.0176 91.7645 61.0327C91.749 61.0479 91.7306 61.0598 91.7105 61.0678C91.6903 61.0758 91.6687 61.0796 91.6471 61.0792V61.0792Z" fill="#F5F5F5"/>
<path d="M91.6471 91.4453C91.6042 91.4444 91.5633 91.4269 91.5329 91.3966C91.5026 91.3662 91.4851 91.3253 91.4842 91.2824V90.9532C91.4807 90.9296 91.4824 90.9055 91.4891 90.8825C91.4958 90.8596 91.5073 90.8383 91.5229 90.8203C91.5385 90.8022 91.5579 90.7877 91.5796 90.7777C91.6013 90.7678 91.6249 90.7626 91.6488 90.7626C91.6727 90.7626 91.6963 90.7678 91.7181 90.7777C91.7398 90.7877 91.7591 90.8022 91.7747 90.8203C91.7904 90.8383 91.8019 90.8596 91.8086 90.8825C91.8153 90.9055 91.8169 90.9296 91.8134 90.9532V91.2824C91.8125 91.3259 91.7946 91.3674 91.7635 91.3978C91.7324 91.4282 91.6906 91.4453 91.6471 91.4453V91.4453Z" fill="#F5F5F5"/>
<path d="M104.628 64.2227C104.585 64.2218 104.543 64.2038 104.513 64.1727C104.482 64.1416 104.465 64.0998 104.465 64.0563V63.72C104.471 63.6805 104.491 63.6444 104.521 63.6183C104.551 63.5922 104.59 63.5778 104.63 63.5778C104.67 63.5778 104.709 63.5922 104.739 63.6183C104.769 63.6444 104.789 63.6805 104.795 63.72V64.074C104.79 64.115 104.771 64.1529 104.74 64.1804C104.709 64.2078 104.669 64.2229 104.628 64.2227Z" fill="#F5F5F5"/>
<path d="M104.628 83.0059C104.585 83.005 104.544 82.9876 104.514 82.9572C104.484 82.9269 104.466 82.886 104.465 82.8431V82.1705C104.471 82.131 104.491 82.0949 104.521 82.0688C104.551 82.0427 104.59 82.0283 104.63 82.0283C104.67 82.0283 104.709 82.0427 104.739 82.0688C104.769 82.0949 104.789 82.131 104.795 82.1705V82.836C104.795 82.8581 104.791 82.8802 104.783 82.9008C104.775 82.9214 104.763 82.9401 104.747 82.9559C104.732 82.9718 104.713 82.9843 104.693 82.9929C104.672 83.0015 104.65 83.0059 104.628 83.0059V83.0059ZM104.628 81.6643C104.585 81.6634 104.544 81.6459 104.514 81.6156C104.484 81.5852 104.466 81.5443 104.465 81.5014V80.8288C104.471 80.7893 104.491 80.7532 104.521 80.7271C104.551 80.701 104.59 80.6866 104.63 80.6866C104.67 80.6866 104.709 80.701 104.739 80.7271C104.769 80.7532 104.789 80.7893 104.795 80.8288V81.5014C104.794 81.5449 104.776 81.5863 104.745 81.6168C104.714 81.6472 104.672 81.6643 104.628 81.6643V81.6643ZM104.628 80.3226C104.585 80.3217 104.544 80.3043 104.514 80.2739C104.484 80.2436 104.466 80.2027 104.465 80.1598V79.4872C104.471 79.4476 104.491 79.4116 104.521 79.3854C104.551 79.3593 104.59 79.345 104.63 79.345C104.67 79.345 104.709 79.3593 104.739 79.3854C104.769 79.4116 104.789 79.4476 104.795 79.4872V80.1598C104.794 80.2033 104.776 80.2447 104.745 80.2751C104.714 80.3056 104.672 80.3226 104.628 80.3226V80.3226ZM104.628 78.9809C104.585 78.98 104.544 78.9626 104.514 78.9322C104.484 78.9019 104.466 78.861 104.465 78.8181V78.1455C104.471 78.106 104.491 78.0699 104.521 78.0438C104.551 78.0177 104.59 78.0033 104.63 78.0033C104.67 78.0033 104.709 78.0177 104.739 78.0438C104.769 78.0699 104.789 78.106 104.795 78.1455V78.8181C104.794 78.8616 104.776 78.903 104.745 78.9335C104.714 78.9639 104.672 78.9809 104.628 78.9809V78.9809ZM104.628 77.6393C104.585 77.6384 104.544 77.6209 104.514 77.5906C104.484 77.5602 104.466 77.5193 104.465 77.4764V76.818C104.471 76.7785 104.491 76.7424 104.521 76.7163C104.551 76.6902 104.59 76.6758 104.63 76.6758C104.67 76.6758 104.709 76.6902 104.739 76.7163C104.769 76.7424 104.789 76.7785 104.795 76.818V77.4906C104.79 77.5316 104.771 77.5695 104.74 77.597C104.709 77.6244 104.669 77.6395 104.628 77.6393V77.6393ZM104.628 76.2976C104.585 76.2967 104.544 76.2793 104.514 76.2489C104.484 76.2186 104.466 76.1777 104.465 76.1348V75.4622C104.471 75.4227 104.491 75.3866 104.521 75.3605C104.551 75.3344 104.59 75.32 104.63 75.32C104.67 75.32 104.709 75.3344 104.739 75.3605C104.769 75.3866 104.789 75.4227 104.795 75.4622V76.1348C104.794 76.1783 104.776 76.2197 104.745 76.2501C104.714 76.2806 104.672 76.2976 104.628 76.2976V76.2976ZM104.628 74.956C104.585 74.9551 104.544 74.9376 104.514 74.9073C104.484 74.8769 104.466 74.836 104.465 74.7931V74.1205C104.471 74.081 104.491 74.0449 104.521 74.0188C104.551 73.9927 104.59 73.9783 104.63 73.9783C104.67 73.9783 104.709 73.9927 104.739 74.0188C104.769 74.0449 104.789 74.081 104.795 74.1205V74.7931C104.794 74.8366 104.776 74.878 104.745 74.9085C104.714 74.9389 104.672 74.956 104.628 74.956V74.956ZM104.628 73.6143C104.585 73.6134 104.544 73.5959 104.514 73.5656C104.484 73.5353 104.466 73.4944 104.465 73.4515V72.7789C104.471 72.7393 104.491 72.7032 104.521 72.6771C104.551 72.651 104.59 72.6367 104.63 72.6367C104.67 72.6367 104.709 72.651 104.739 72.6771C104.769 72.7032 104.789 72.7393 104.795 72.7789V73.4515C104.797 73.4745 104.794 73.4976 104.786 73.5195C104.779 73.5413 104.767 73.5614 104.751 73.5784C104.736 73.5954 104.717 73.6089 104.695 73.6181C104.674 73.6274 104.651 73.6321 104.628 73.632V73.6143ZM104.628 72.2726C104.585 72.2717 104.544 72.2543 104.514 72.2239C104.484 72.1936 104.466 72.1527 104.465 72.1098V71.4372C104.471 71.3977 104.491 71.3616 104.521 71.3355C104.551 71.3094 104.59 71.295 104.63 71.295C104.67 71.295 104.709 71.3094 104.739 71.3355C104.769 71.3616 104.789 71.3977 104.795 71.4372V72.1098C104.794 72.1533 104.776 72.1947 104.745 72.2252C104.714 72.2556 104.672 72.2726 104.628 72.2726V72.2726ZM104.628 70.931C104.585 70.9301 104.544 70.9126 104.514 70.8823C104.484 70.8519 104.466 70.811 104.465 70.7681V70.092C104.471 70.0525 104.491 70.0164 104.521 69.9903C104.551 69.9642 104.59 69.9498 104.63 69.9498C104.67 69.9498 104.709 69.9642 104.739 69.9903C104.769 70.0164 104.789 70.0525 104.795 70.092V70.7646C104.795 70.7864 104.79 70.8081 104.782 70.8283C104.774 70.8485 104.761 70.8668 104.746 70.8822C104.73 70.8977 104.712 70.91 104.692 70.9183C104.672 70.9267 104.65 70.931 104.628 70.931V70.931ZM104.628 69.5893C104.585 69.5884 104.544 69.571 104.514 69.5406C104.484 69.5103 104.466 69.4694 104.465 69.4265V68.7539C104.471 68.7144 104.491 68.6783 104.521 68.6522C104.551 68.6261 104.59 68.6117 104.63 68.6117C104.67 68.6117 104.709 68.6261 104.739 68.6522C104.769 68.6783 104.789 68.7144 104.795 68.7539V69.4265C104.794 69.47 104.776 69.5114 104.745 69.5418C104.714 69.5723 104.672 69.5893 104.628 69.5893V69.5893ZM104.628 68.2477C104.585 68.2467 104.543 68.2288 104.513 68.1977C104.482 68.1666 104.465 68.1248 104.465 68.0813V67.4122C104.462 67.3886 104.464 67.3645 104.47 67.3415C104.477 67.3186 104.488 67.2973 104.504 67.2793C104.52 67.2612 104.539 67.2467 104.561 67.2367C104.583 67.2268 104.606 67.2216 104.63 67.2216C104.654 67.2216 104.678 67.2268 104.699 67.2367C104.721 67.2467 104.74 67.2612 104.756 67.2793C104.772 67.2973 104.783 67.3186 104.79 67.3415C104.796 67.3645 104.798 67.3886 104.795 67.4122V68.0813C104.795 68.1254 104.777 68.1677 104.746 68.1989C104.715 68.2301 104.672 68.2477 104.628 68.2477V68.2477ZM104.628 66.906C104.585 66.9051 104.543 66.8871 104.513 66.856C104.482 66.8249 104.465 66.7831 104.465 66.7396V66.0706C104.462 66.0469 104.464 66.0228 104.47 65.9999C104.477 65.9769 104.488 65.9557 104.504 65.9376C104.52 65.9195 104.539 65.905 104.561 65.8951C104.583 65.8851 104.606 65.88 104.63 65.88C104.654 65.88 104.678 65.8851 104.699 65.8951C104.721 65.905 104.74 65.9195 104.756 65.9376C104.772 65.9557 104.783 65.9769 104.79 65.9999C104.796 66.0228 104.798 66.0469 104.795 66.0706V66.7396C104.795 66.7837 104.777 66.8261 104.746 66.8573C104.715 66.8885 104.672 66.906 104.628 66.906V66.906ZM104.628 65.5643C104.585 65.5634 104.543 65.5455 104.513 65.5144C104.482 65.4833 104.465 65.4415 104.465 65.398V64.7289C104.462 64.7053 104.464 64.6811 104.47 64.6582C104.477 64.6353 104.488 64.614 104.504 64.5959C104.52 64.5779 104.539 64.5633 104.561 64.5534C104.583 64.5435 104.606 64.5383 104.63 64.5383C104.654 64.5383 104.678 64.5435 104.699 64.5534C104.721 64.5633 104.74 64.5779 104.756 64.5959C104.772 64.614 104.783 64.6353 104.79 64.6582C104.796 64.6811 104.798 64.7053 104.795 64.7289V65.398C104.795 65.4421 104.777 65.4844 104.746 65.5156C104.715 65.5468 104.672 65.5643 104.628 65.5643V65.5643Z" fill="#F5F5F5"/>
<path d="M104.628 84.0077C104.585 84.0068 104.543 83.9889 104.513 83.9578C104.482 83.9267 104.465 83.8849 104.465 83.8414V83.5121C104.471 83.4726 104.491 83.4365 104.521 83.4104C104.551 83.3843 104.59 83.37 104.63 83.37C104.67 83.37 104.709 83.3843 104.739 83.4104C104.769 83.4365 104.789 83.4726 104.795 83.5121V83.8414C104.795 83.8632 104.79 83.8848 104.782 83.905C104.774 83.9252 104.761 83.9435 104.746 83.959C104.73 83.9744 104.712 83.9867 104.692 83.9951C104.672 84.0034 104.65 84.0077 104.628 84.0077V84.0077Z" fill="#F5F5F5"/>
<path d="M117.418 65.1006C117.374 65.1006 117.332 65.0831 117.301 65.0519C117.269 65.0207 117.252 64.9783 117.252 64.9342V64.605C117.258 64.5655 117.278 64.5294 117.308 64.5033C117.338 64.4772 117.377 64.4628 117.416 64.4628C117.456 64.4628 117.495 64.4772 117.525 64.5033C117.555 64.5294 117.575 64.5655 117.581 64.605V64.9342C117.581 64.9777 117.564 65.0195 117.534 65.0506C117.503 65.0817 117.462 65.0997 117.418 65.1006V65.1006Z" fill="#F5F5F5"/>
<path d="M117.418 75.6109C117.374 75.6109 117.332 75.5933 117.301 75.5621C117.269 75.5309 117.252 75.4886 117.252 75.4445V74.7896C117.248 74.7659 117.25 74.7418 117.257 74.7189C117.263 74.6959 117.275 74.6747 117.291 74.6566C117.306 74.6385 117.326 74.624 117.347 74.6141C117.369 74.6041 117.393 74.599 117.416 74.599C117.44 74.599 117.464 74.6041 117.486 74.6141C117.507 74.624 117.527 74.6385 117.542 74.6566C117.558 74.6747 117.57 74.6959 117.576 74.7189C117.583 74.7418 117.585 74.7659 117.581 74.7896V75.4445C117.581 75.488 117.564 75.5298 117.534 75.5609C117.503 75.592 117.462 75.6099 117.418 75.6109V75.6109ZM117.418 74.2975C117.374 74.2975 117.332 74.28 117.301 74.2488C117.269 74.2176 117.252 74.1753 117.252 74.1311V73.4762C117.248 73.4526 117.25 73.4285 117.257 73.4055C117.263 73.3826 117.275 73.3614 117.291 73.3433C117.306 73.3252 117.326 73.3107 117.347 73.3008C117.369 73.2908 117.393 73.2857 117.416 73.2857C117.44 73.2857 117.464 73.2908 117.486 73.3008C117.507 73.3107 117.527 73.3252 117.542 73.3433C117.558 73.3614 117.57 73.3826 117.576 73.4055C117.583 73.4285 117.585 73.4526 117.581 73.4762V74.1311C117.581 74.1747 117.564 74.2165 117.534 74.2476C117.503 74.2787 117.462 74.2966 117.418 74.2975V74.2975ZM117.418 72.9842C117.374 72.9842 117.332 72.9667 117.301 72.9355C117.269 72.9042 117.252 72.8619 117.252 72.8178V72.1629C117.248 72.1393 117.25 72.1152 117.257 72.0922C117.263 72.0693 117.275 72.048 117.291 72.0299C117.306 72.0119 117.326 71.9974 117.347 71.9874C117.369 71.9775 117.393 71.9723 117.416 71.9723C117.44 71.9723 117.464 71.9775 117.486 71.9874C117.507 71.9974 117.527 72.0119 117.542 72.0299C117.558 72.048 117.57 72.0693 117.576 72.0922C117.583 72.1152 117.585 72.1393 117.581 72.1629V72.8178C117.581 72.8613 117.564 72.9031 117.534 72.9342C117.503 72.9653 117.462 72.9833 117.418 72.9842V72.9842ZM117.418 71.6708C117.374 71.6708 117.332 71.6533 117.301 71.6221C117.269 71.5909 117.252 71.5486 117.252 71.5045V70.846C117.258 70.8065 117.278 70.7704 117.308 70.7443C117.338 70.7182 117.377 70.7038 117.416 70.7038C117.456 70.7038 117.495 70.7182 117.525 70.7443C117.555 70.7704 117.575 70.8065 117.581 70.846V71.508C117.58 71.5509 117.563 71.5918 117.532 71.6222C117.502 71.6525 117.461 71.6699 117.418 71.6708V71.6708ZM117.418 70.354C117.397 70.3544 117.375 70.3506 117.355 70.3426C117.335 70.3346 117.316 70.3227 117.301 70.3075C117.285 70.2924 117.273 70.2743 117.265 70.2543C117.256 70.2343 117.252 70.2128 117.252 70.1911V69.5327C117.258 69.4932 117.278 69.4571 117.308 69.431C117.338 69.4049 117.377 69.3905 117.416 69.3905C117.456 69.3905 117.495 69.4049 117.525 69.431C117.555 69.4571 117.575 69.4932 117.581 69.5327V70.1911C117.581 70.2343 117.564 70.2757 117.533 70.3063C117.503 70.3368 117.461 70.354 117.418 70.354V70.354ZM117.418 69.0406C117.375 69.0406 117.333 69.0236 117.302 68.9931C117.271 68.9627 117.253 68.9213 117.252 68.8778V68.2193C117.258 68.1798 117.278 68.1437 117.308 68.1176C117.338 68.0915 117.377 68.0772 117.416 68.0772C117.456 68.0772 117.495 68.0915 117.525 68.1176C117.555 68.1437 117.575 68.1798 117.581 68.2193V68.8778C117.578 68.9188 117.559 68.9571 117.529 68.9852C117.499 69.0133 117.459 69.0293 117.418 69.03V69.0406ZM117.418 67.7273C117.375 67.7273 117.333 67.7103 117.302 67.6798C117.271 67.6494 117.253 67.608 117.252 67.5644V66.906C117.258 66.8665 117.278 66.8304 117.308 66.8043C117.338 66.7782 117.377 66.7638 117.416 66.7638C117.456 66.7638 117.495 66.7782 117.525 66.8043C117.555 66.8304 117.575 66.8665 117.581 66.906V67.5644C117.58 67.6073 117.563 67.6482 117.532 67.6786C117.502 67.7089 117.461 67.7264 117.418 67.7273V67.7273ZM117.418 66.4139C117.375 66.414 117.333 66.3969 117.302 66.3665C117.271 66.336 117.253 66.2946 117.252 66.2511V65.5927C117.258 65.5532 117.278 65.5171 117.308 65.491C117.338 65.4649 117.377 65.4505 117.416 65.4505C117.456 65.4505 117.495 65.4649 117.525 65.491C117.555 65.5171 117.575 65.5532 117.581 65.5927V66.2511C117.58 66.294 117.563 66.3349 117.532 66.3652C117.502 66.3956 117.461 66.413 117.418 66.4139V66.4139Z" fill="#F5F5F5"/>
<path d="M117.418 76.595C117.397 76.5954 117.375 76.5916 117.355 76.5836C117.335 76.5756 117.316 76.5637 117.301 76.5486C117.285 76.5334 117.273 76.5153 117.265 76.4953C117.256 76.4753 117.252 76.4538 117.252 76.4321V76.11C117.248 76.0864 117.25 76.0622 117.257 76.0393C117.263 76.0164 117.275 75.9951 117.291 75.977C117.306 75.959 117.326 75.9444 117.347 75.9345C117.369 75.9246 117.393 75.9194 117.416 75.9194C117.44 75.9194 117.464 75.9246 117.486 75.9345C117.507 75.9444 117.527 75.959 117.542 75.977C117.558 75.9951 117.57 76.0164 117.576 76.0393C117.583 76.0622 117.585 76.0864 117.581 76.11V76.4392C117.579 76.4812 117.561 76.5208 117.531 76.5498C117.501 76.5788 117.46 76.595 117.418 76.595V76.595Z" fill="#F5F5F5"/>
<path d="M107.301 53.5425C107.301 53.2204 107.074 53.0894 106.795 53.2522L102.133 55.932C101.985 56.0289 101.862 56.1592 101.774 56.3123C101.686 56.4655 101.636 56.6371 101.626 56.8135V60.5871C101.626 60.9092 101.853 61.0402 102.133 60.8774L103.864 59.8791L104.589 61.1393C104.6 61.1574 104.616 61.1719 104.635 61.1813C104.653 61.1907 104.674 61.1945 104.695 61.1922C104.716 61.19 104.736 61.1818 104.752 61.1687C104.769 61.1555 104.781 61.138 104.788 61.1181L105.556 58.9021L106.795 58.1941C106.943 58.0983 107.066 57.9688 107.154 57.8162C107.242 57.6635 107.292 57.4921 107.301 57.3161V53.5425Z" fill="#F5F5F5"/>
<path d="M103.244 57.4967C103.197 57.5003 103.151 57.4933 103.107 57.4762C103.063 57.459 103.024 57.4321 102.993 57.3976C102.925 57.3099 102.892 57.2001 102.901 57.0896C102.901 56.9453 102.932 56.8028 102.993 56.6719C103.055 56.5282 103.14 56.3955 103.244 56.2789C103.345 56.1607 103.464 56.0602 103.598 55.9816C103.705 55.9151 103.827 55.8773 103.952 55.8718C103.999 55.8691 104.046 55.8769 104.089 55.8947C104.133 55.9124 104.172 55.9397 104.203 55.9745C104.273 56.0616 104.307 56.1715 104.299 56.2825C104.297 56.4257 104.264 56.5668 104.203 56.6966C104.139 56.8402 104.055 56.9738 103.952 57.0931C103.851 57.2084 103.731 57.3065 103.598 57.3834C103.492 57.452 103.37 57.4911 103.244 57.4967ZM103.131 59.4047C103.132 59.3824 103.138 59.3606 103.149 59.341L105.173 55.224L105.226 55.132C105.248 55.1086 105.273 55.0884 105.301 55.0718L105.715 54.8346C105.723 54.8313 105.731 54.8296 105.74 54.8296C105.748 54.8296 105.757 54.8313 105.765 54.8346C105.771 54.8363 105.777 54.8405 105.781 54.8464C105.785 54.8523 105.787 54.8595 105.786 54.8665C105.785 54.8905 105.778 54.9138 105.765 54.9337L103.722 59.0543C103.722 59.0897 103.687 59.1145 103.676 59.1322C103.657 59.1528 103.634 59.1697 103.609 59.1817L103.191 59.426C103.156 59.472 103.131 59.4472 103.131 59.4047V59.4047ZM103.839 56.7922C103.902 56.7004 103.938 56.5923 103.941 56.4807C103.948 56.4406 103.941 56.3995 103.922 56.3634C103.904 56.3272 103.875 56.2977 103.839 56.2789C103.796 56.2661 103.75 56.2635 103.706 56.2715C103.662 56.2795 103.62 56.2978 103.584 56.3249C103.48 56.3856 103.393 56.4707 103.329 56.5727C103.265 56.6669 103.229 56.7775 103.226 56.8913C103.221 56.9305 103.228 56.9704 103.246 57.0053C103.265 57.0403 103.294 57.0685 103.329 57.086C103.372 57.0989 103.417 57.1017 103.461 57.0943C103.506 57.087 103.547 57.0696 103.584 57.0436C103.693 56.9834 103.786 56.897 103.853 56.7922H103.839ZM104.965 58.3781C104.917 58.3817 104.869 58.3742 104.825 58.3564C104.781 58.3386 104.741 58.3109 104.71 58.2755C104.64 58.1897 104.606 58.081 104.614 57.971C104.616 57.8289 104.649 57.689 104.71 57.5604C104.773 57.4158 104.859 57.282 104.965 57.1639C105.065 57.0466 105.185 56.9472 105.319 56.8701C105.424 56.8015 105.547 56.7624 105.673 56.7568C105.72 56.7543 105.767 56.7619 105.811 56.779C105.855 56.7961 105.894 56.8223 105.927 56.8559C105.997 56.9428 106.031 57.0529 106.023 57.1639C106.021 57.3072 105.988 57.4484 105.927 57.5781C105.862 57.7218 105.776 57.8554 105.673 57.9746C105.571 58.0909 105.452 58.1902 105.319 58.2684C105.216 58.3322 105.099 58.3699 104.979 58.3781H104.965ZM105.57 57.6701C105.635 57.5778 105.671 57.468 105.673 57.3551C105.673 57.2524 105.641 57.1887 105.57 57.1604C105.527 57.1472 105.481 57.1445 105.437 57.1525C105.393 57.1606 105.351 57.179 105.315 57.2064C105.21 57.266 105.123 57.3513 105.06 57.4542C104.997 57.5463 104.962 57.6543 104.957 57.7657C104.957 57.8719 104.993 57.9392 105.06 57.964C105.103 57.9753 105.149 57.977 105.193 57.969C105.237 57.9611 105.278 57.9437 105.315 57.9179C105.422 57.8601 105.515 57.7776 105.584 57.6772L105.57 57.6701Z" fill="#407BFF"/>
<path opacity="0.4" d="M103.244 57.4967C103.197 57.5003 103.151 57.4933 103.107 57.4762C103.063 57.459 103.024 57.4321 102.993 57.3976C102.925 57.3099 102.892 57.2001 102.901 57.0896C102.901 56.9453 102.932 56.8028 102.993 56.6719C103.055 56.5282 103.14 56.3955 103.244 56.2789C103.345 56.1607 103.464 56.0602 103.598 55.9816C103.705 55.9151 103.827 55.8773 103.952 55.8718C103.999 55.8691 104.046 55.8769 104.089 55.8947C104.133 55.9124 104.172 55.9397 104.203 55.9745C104.273 56.0616 104.307 56.1715 104.299 56.2825C104.297 56.4257 104.264 56.5668 104.203 56.6966C104.139 56.8402 104.055 56.9738 103.952 57.0931C103.851 57.2084 103.731 57.3065 103.598 57.3834C103.492 57.452 103.37 57.4911 103.244 57.4967ZM103.131 59.4047C103.132 59.3824 103.138 59.3606 103.149 59.341L105.173 55.224L105.226 55.132C105.248 55.1086 105.273 55.0884 105.301 55.0718L105.715 54.8346C105.723 54.8313 105.731 54.8296 105.74 54.8296C105.748 54.8296 105.757 54.8313 105.765 54.8346C105.771 54.8363 105.777 54.8405 105.781 54.8464C105.785 54.8523 105.787 54.8595 105.786 54.8665C105.785 54.8905 105.778 54.9138 105.765 54.9337L103.722 59.0543C103.722 59.0897 103.687 59.1145 103.676 59.1322C103.657 59.1528 103.634 59.1697 103.609 59.1817L103.191 59.426C103.156 59.472 103.131 59.4472 103.131 59.4047V59.4047ZM103.839 56.7922C103.902 56.7004 103.938 56.5923 103.941 56.4807C103.948 56.4406 103.941 56.3995 103.922 56.3634C103.904 56.3272 103.875 56.2977 103.839 56.2789C103.796 56.2661 103.75 56.2635 103.706 56.2715C103.662 56.2795 103.62 56.2978 103.584 56.3249C103.48 56.3856 103.393 56.4707 103.329 56.5727C103.265 56.6669 103.229 56.7775 103.226 56.8913C103.221 56.9305 103.228 56.9704 103.246 57.0053C103.265 57.0403 103.294 57.0685 103.329 57.086C103.372 57.0989 103.417 57.1017 103.461 57.0943C103.506 57.087 103.547 57.0696 103.584 57.0436C103.693 56.9834 103.786 56.897 103.853 56.7922H103.839ZM104.965 58.3781C104.917 58.3817 104.869 58.3742 104.825 58.3564C104.781 58.3386 104.741 58.3109 104.71 58.2755C104.64 58.1897 104.606 58.081 104.614 57.971C104.616 57.8289 104.649 57.689 104.71 57.5604C104.773 57.4158 104.859 57.282 104.965 57.1639C105.065 57.0466 105.185 56.9472 105.319 56.8701C105.424 56.8015 105.547 56.7624 105.673 56.7568C105.72 56.7543 105.767 56.7619 105.811 56.779C105.855 56.7961 105.894 56.8223 105.927 56.8559C105.997 56.9428 106.031 57.0529 106.023 57.1639C106.021 57.3072 105.988 57.4484 105.927 57.5781C105.862 57.7218 105.776 57.8554 105.673 57.9746C105.571 58.0909 105.452 58.1902 105.319 58.2684C105.216 58.3322 105.099 58.3699 104.979 58.3781H104.965ZM105.57 57.6701C105.635 57.5778 105.671 57.468 105.673 57.3551C105.673 57.2524 105.641 57.1887 105.57 57.1604C105.527 57.1472 105.481 57.1445 105.437 57.1525C105.393 57.1606 105.351 57.179 105.315 57.2064C105.21 57.266 105.123 57.3513 105.06 57.4542C104.997 57.5463 104.962 57.6543 104.957 57.7657C104.957 57.8719 104.993 57.9392 105.06 57.964C105.103 57.9753 105.149 57.977 105.193 57.969C105.237 57.9611 105.278 57.9437 105.315 57.9179C105.422 57.8601 105.515 57.7776 105.584 57.6772L105.57 57.6701Z" fill="black"/>
<path d="M119.889 54.1903C119.889 53.8682 119.663 53.7372 119.383 53.8965L114.721 56.594C114.574 56.6906 114.451 56.8203 114.363 56.9728C114.275 57.1252 114.224 57.2962 114.215 57.4719V61.242C114.215 61.5677 114.441 61.6987 114.721 61.5358L116.466 60.534L117.195 61.7942C117.204 61.8132 117.217 61.8293 117.234 61.8406C117.252 61.852 117.272 61.858 117.293 61.858C117.313 61.858 117.333 61.852 117.351 61.8406C117.368 61.8293 117.382 61.8132 117.39 61.7942L118.158 59.5747L119.401 58.8667C119.548 58.7701 119.67 58.6404 119.758 58.4879C119.846 58.3354 119.897 58.1645 119.907 57.9887L119.889 54.1903Z" fill="#F5F5F5"/>
<path d="M115.832 58.1445C115.785 58.1475 115.737 58.1398 115.693 58.1221C115.649 58.1043 115.61 58.0769 115.577 58.0418C115.51 57.9551 115.478 57.8467 115.485 57.7374C115.487 57.5934 115.519 57.4512 115.577 57.3197C115.641 57.1748 115.727 57.0409 115.832 56.9232C115.934 56.8068 116.053 56.7076 116.186 56.6294C116.293 56.562 116.415 56.5241 116.54 56.5196C116.588 56.5161 116.636 56.5236 116.68 56.5414C116.724 56.5591 116.763 56.5868 116.795 56.6223C116.865 56.7089 116.9 56.8192 116.891 56.9303C116.888 57.0724 116.856 57.2124 116.795 57.3409C116.731 57.4856 116.645 57.6193 116.54 57.7374C116.44 57.8547 116.32 57.9541 116.186 58.0312C116.081 58.0998 115.958 58.1389 115.832 58.1445ZM115.716 60.0526C115.716 60.0286 115.724 60.0054 115.737 59.9853L117.762 55.8683C117.775 55.8355 117.793 55.8046 117.815 55.7762C117.834 55.7518 117.858 55.7314 117.886 55.7161L118.303 55.4753C118.325 55.4753 118.339 55.4576 118.353 55.4753C118.367 55.493 118.371 55.4753 118.371 55.5072C118.371 55.5308 118.365 55.5541 118.353 55.5745L116.317 59.7127C116.305 59.7402 116.289 59.7663 116.271 59.7906C116.253 59.8111 116.232 59.8279 116.208 59.8402L115.786 60.0844C115.758 60.0986 115.716 60.0915 115.716 60.0526ZM116.424 57.44C116.486 57.348 116.522 57.24 116.526 57.1285C116.532 57.0884 116.526 57.0474 116.507 57.0112C116.489 56.975 116.46 56.9455 116.424 56.9267C116.38 56.9139 116.335 56.9113 116.291 56.9193C116.246 56.9273 116.205 56.9456 116.169 56.9728C116.066 57.0335 115.98 57.1186 115.917 57.2206C115.852 57.314 115.816 57.425 115.815 57.5392C115.808 57.5783 115.815 57.6185 115.834 57.6535C115.852 57.6886 115.882 57.7168 115.917 57.7339C115.96 57.7467 116.005 57.7492 116.049 57.7412C116.092 57.7332 116.133 57.7149 116.169 57.6878C116.278 57.6302 116.371 57.5448 116.438 57.44H116.424ZM117.549 59.026C117.502 59.0287 117.454 59.0209 117.41 59.0032C117.366 58.9854 117.327 58.9581 117.294 58.9233C117.228 58.836 117.196 58.7281 117.202 58.6189C117.205 58.476 117.236 58.3351 117.294 58.2047C117.36 58.061 117.446 57.9274 117.549 57.8082C117.651 57.6929 117.77 57.5948 117.903 57.5179C118.01 57.4504 118.131 57.4114 118.257 57.4046C118.304 57.4015 118.352 57.4087 118.396 57.4258C118.44 57.4429 118.48 57.4696 118.512 57.5038C118.582 57.5893 118.616 57.6982 118.608 57.8082C118.606 57.9527 118.574 58.0951 118.512 58.2259C118.447 58.369 118.362 58.5015 118.257 58.6189C118.156 58.7358 118.037 58.8351 117.903 58.9127C117.801 58.9773 117.684 59.0162 117.563 59.026H117.549ZM118.158 58.318C118.222 58.2238 118.258 58.1132 118.261 57.9994C118.266 57.9603 118.259 57.9206 118.24 57.8858C118.222 57.8509 118.193 57.8226 118.158 57.8047C118.114 57.7933 118.068 57.7919 118.023 57.8005C117.979 57.809 117.936 57.8274 117.9 57.8542C117.797 57.9133 117.71 57.9973 117.648 58.0985C117.583 58.1908 117.546 58.3004 117.542 58.4135C117.542 58.5197 117.578 58.5835 117.648 58.6118C117.691 58.623 117.736 58.6247 117.779 58.6168C117.823 58.6088 117.864 58.5914 117.9 58.5658C118.008 58.508 118.102 58.4256 118.172 58.325L118.158 58.318Z" fill="#407BFF"/>
<path opacity="0.4" d="M115.832 58.1445C115.785 58.1475 115.737 58.1398 115.693 58.1221C115.649 58.1043 115.61 58.0769 115.577 58.0418C115.51 57.9551 115.478 57.8467 115.485 57.7374C115.487 57.5934 115.519 57.4512 115.577 57.3197C115.641 57.1748 115.727 57.0409 115.832 56.9232C115.934 56.8068 116.053 56.7076 116.186 56.6294C116.293 56.562 116.415 56.5241 116.54 56.5196C116.588 56.5161 116.636 56.5236 116.68 56.5414C116.724 56.5591 116.763 56.5868 116.795 56.6223C116.865 56.7089 116.9 56.8192 116.891 56.9303C116.888 57.0724 116.856 57.2124 116.795 57.3409C116.731 57.4856 116.645 57.6193 116.54 57.7374C116.44 57.8547 116.32 57.9541 116.186 58.0312C116.081 58.0998 115.958 58.1389 115.832 58.1445ZM115.716 60.0526C115.716 60.0286 115.724 60.0054 115.737 59.9853L117.762 55.8683C117.775 55.8355 117.793 55.8046 117.815 55.7762C117.834 55.7518 117.858 55.7314 117.886 55.7161L118.303 55.4753C118.325 55.4753 118.339 55.4576 118.353 55.4753C118.367 55.493 118.371 55.4753 118.371 55.5072C118.371 55.5308 118.365 55.5541 118.353 55.5745L116.317 59.7127C116.305 59.7402 116.289 59.7663 116.271 59.7906C116.253 59.8111 116.232 59.8279 116.208 59.8402L115.786 60.0844C115.758 60.0986 115.716 60.0915 115.716 60.0526ZM116.424 57.44C116.486 57.348 116.522 57.24 116.526 57.1285C116.532 57.0884 116.526 57.0474 116.507 57.0112C116.489 56.975 116.46 56.9455 116.424 56.9267C116.38 56.9139 116.335 56.9113 116.291 56.9193C116.246 56.9273 116.205 56.9456 116.169 56.9728C116.066 57.0335 115.98 57.1186 115.917 57.2206C115.852 57.314 115.816 57.425 115.815 57.5392C115.808 57.5783 115.815 57.6185 115.834 57.6535C115.852 57.6886 115.882 57.7168 115.917 57.7339C115.96 57.7467 116.005 57.7492 116.049 57.7412C116.092 57.7332 116.133 57.7149 116.169 57.6878C116.278 57.6302 116.371 57.5448 116.438 57.44H116.424ZM117.549 59.026C117.502 59.0287 117.454 59.0209 117.41 59.0032C117.366 58.9854 117.327 58.9581 117.294 58.9233C117.228 58.836 117.196 58.7281 117.202 58.6189C117.205 58.476 117.236 58.3351 117.294 58.2047C117.36 58.061 117.446 57.9274 117.549 57.8082C117.651 57.6929 117.77 57.5948 117.903 57.5179C118.01 57.4504 118.131 57.4114 118.257 57.4046C118.304 57.4015 118.352 57.4087 118.396 57.4258C118.44 57.4429 118.48 57.4696 118.512 57.5038C118.582 57.5893 118.616 57.6982 118.608 57.8082C118.606 57.9527 118.574 58.0951 118.512 58.2259C118.447 58.369 118.362 58.5015 118.257 58.6189C118.156 58.7358 118.037 58.8351 117.903 58.9127C117.801 58.9773 117.684 59.0162 117.563 59.026H117.549ZM118.158 58.318C118.222 58.2238 118.258 58.1132 118.261 57.9994C118.266 57.9603 118.259 57.9206 118.24 57.8858C118.222 57.8509 118.193 57.8226 118.158 57.8047C118.114 57.7933 118.068 57.7919 118.023 57.8005C117.979 57.809 117.936 57.8274 117.9 57.8542C117.797 57.9133 117.71 57.9973 117.648 58.0985C117.583 58.1908 117.546 58.3004 117.542 58.4135C117.542 58.5197 117.578 58.5835 117.648 58.6118C117.691 58.623 117.736 58.6247 117.779 58.6168C117.823 58.6088 117.864 58.5914 117.9 58.5658C118.008 58.508 118.102 58.4256 118.172 58.325L118.158 58.318Z" fill="black"/>
<path d="M94.0649 49.1564C94.0649 48.8343 93.8383 48.7033 93.5587 48.8662L88.8965 51.5601C88.7489 51.657 88.6262 51.7873 88.5382 51.9404C88.4503 52.0936 88.3996 52.2652 88.3903 52.4416V56.2152C88.3903 56.5373 88.6168 56.6683 88.8965 56.5055L90.624 55.5072L91.3532 56.7639C91.3615 56.7829 91.3751 56.799 91.3924 56.8103C91.4097 56.8216 91.4299 56.8277 91.4506 56.8277C91.4713 56.8277 91.4915 56.8216 91.5088 56.8103C91.5261 56.799 91.5397 56.7829 91.5479 56.7639L92.3161 54.5479L93.5587 53.8399C93.7066 53.7441 93.8296 53.6146 93.9176 53.4619C94.0057 53.3093 94.0561 53.1379 94.0649 52.9619V49.1564Z" fill="#F5F5F5"/>
<path d="M90.0045 53.1C89.9579 53.1032 89.9111 53.0959 89.8677 53.0787C89.8242 53.0616 89.7851 53.035 89.7532 53.0009C89.6867 52.9125 89.6541 52.8033 89.6611 52.6929C89.6632 52.5489 89.6945 52.4067 89.7532 52.2752C89.8165 52.1322 89.9013 51.9997 90.0045 51.8822C90.1059 51.7648 90.2254 51.6644 90.3585 51.5849C90.4653 51.5189 90.5871 51.4811 90.7125 51.4751C90.76 51.4716 90.8077 51.4791 90.8519 51.4968C90.8961 51.5146 90.9356 51.5423 90.9674 51.5778C91.0365 51.6649 91.0706 51.7748 91.063 51.8858C91.0605 52.029 91.028 52.1701 90.9674 52.3C90.9019 52.4437 90.8161 52.5772 90.7125 52.6964C90.611 52.8118 90.4915 52.9098 90.3585 52.9867C90.2527 53.0553 90.1305 53.0944 90.0045 53.1ZM89.8912 55.0081C89.8917 54.9852 89.8991 54.9629 89.9125 54.9443L91.9373 50.8238C91.9519 50.7914 91.9697 50.7606 91.9904 50.7317C92.01 50.7073 92.034 50.6869 92.0612 50.6716L92.479 50.4344C92.4867 50.4309 92.4952 50.429 92.5037 50.429C92.5123 50.429 92.5207 50.4309 92.5285 50.4344C92.5285 50.4344 92.5462 50.4344 92.5462 50.4662C92.5471 50.4899 92.5409 50.5133 92.5285 50.5335L90.493 54.6718C90.4803 54.6992 90.4649 54.7253 90.447 54.7496C90.4301 54.7711 90.4083 54.7882 90.3833 54.7992L89.962 55.0435C89.916 55.0682 89.8912 55.0612 89.8912 55.0187V55.0081ZM90.5992 52.3955C90.6627 52.3037 90.6983 52.1956 90.7019 52.084C90.7079 52.0439 90.7013 52.0029 90.6829 51.9667C90.6645 51.9305 90.6352 51.901 90.5992 51.8822C90.5561 51.8694 90.5106 51.8668 90.4663 51.8748C90.422 51.8828 90.3802 51.9011 90.3443 51.9283C90.2416 51.9891 90.1553 52.0742 90.093 52.1761C90.0275 52.2695 89.9917 52.3805 89.9903 52.4947C89.9903 52.5973 90.0222 52.661 90.093 52.6894C90.1355 52.7022 90.1805 52.7047 90.2242 52.6967C90.2679 52.6887 90.3091 52.6704 90.3443 52.6433C90.4585 52.5863 90.5551 52.4995 90.624 52.392L90.5992 52.3955ZM91.7249 53.9815C91.6774 53.985 91.6298 53.9775 91.5856 53.9598C91.5414 53.942 91.5019 53.9143 91.4701 53.8788C91.4036 53.7918 91.3709 53.6836 91.378 53.5744C91.381 53.4327 91.4123 53.2931 91.4701 53.1637C91.5338 53.0191 91.6198 52.8853 91.7249 52.7672C91.8254 52.6499 91.9451 52.5505 92.0789 52.4734C92.1847 52.4048 92.307 52.3657 92.4329 52.3601C92.48 52.3577 92.5271 52.3652 92.571 52.3823C92.615 52.3994 92.6548 52.4256 92.6878 52.4593C92.7563 52.5466 92.7892 52.6566 92.7799 52.7672C92.7792 52.9103 92.7478 53.0515 92.6878 53.1814C92.6224 53.3251 92.5365 53.4587 92.4329 53.5779C92.3313 53.6941 92.2118 53.7933 92.0789 53.8717C91.9773 53.9392 91.8606 53.9806 91.7391 53.9921L91.7249 53.9815ZM92.3338 53.2735C92.3974 53.1804 92.433 53.0711 92.4365 52.9584C92.4421 52.9193 92.4351 52.8794 92.4167 52.8444C92.3983 52.8094 92.3693 52.7812 92.3338 52.7637C92.2902 52.7505 92.244 52.7478 92.1991 52.7558C92.1542 52.7638 92.1118 52.7823 92.0754 52.8097C91.972 52.8698 91.8856 52.955 91.8241 53.0575C91.7586 53.1486 91.7216 53.257 91.7179 53.369C91.7179 53.4752 91.7533 53.5425 91.8241 53.5673C91.8668 53.5785 91.9114 53.5802 91.9549 53.5723C91.9983 53.5643 92.0395 53.5469 92.0754 53.5213C92.1828 53.4666 92.276 53.3878 92.348 53.2912L92.3338 53.2735Z" fill="#407BFF"/>
<path opacity="0.4" d="M90.0045 53.1C89.9579 53.1032 89.9111 53.0959 89.8677 53.0787C89.8242 53.0616 89.7851 53.035 89.7532 53.0009C89.6867 52.9125 89.6541 52.8033 89.6611 52.6929C89.6632 52.5489 89.6945 52.4067 89.7532 52.2752C89.8165 52.1322 89.9013 51.9997 90.0045 51.8822C90.1059 51.7648 90.2254 51.6644 90.3585 51.5849C90.4653 51.5189 90.5871 51.4811 90.7125 51.4751C90.76 51.4716 90.8077 51.4791 90.8519 51.4968C90.8961 51.5146 90.9356 51.5423 90.9674 51.5778C91.0365 51.6649 91.0706 51.7748 91.063 51.8858C91.0605 52.029 91.028 52.1701 90.9674 52.3C90.9019 52.4437 90.8161 52.5772 90.7125 52.6964C90.611 52.8118 90.4915 52.9098 90.3585 52.9867C90.2527 53.0553 90.1305 53.0944 90.0045 53.1ZM89.8912 55.0081C89.8917 54.9852 89.8991 54.9629 89.9125 54.9443L91.9373 50.8238C91.9519 50.7914 91.9697 50.7606 91.9904 50.7317C92.01 50.7073 92.034 50.6869 92.0612 50.6716L92.479 50.4344C92.4867 50.4309 92.4952 50.429 92.5037 50.429C92.5123 50.429 92.5207 50.4309 92.5285 50.4344C92.5285 50.4344 92.5462 50.4344 92.5462 50.4662C92.5471 50.4899 92.5409 50.5133 92.5285 50.5335L90.493 54.6718C90.4803 54.6992 90.4649 54.7253 90.447 54.7496C90.4301 54.7711 90.4083 54.7882 90.3833 54.7992L89.962 55.0435C89.916 55.0682 89.8912 55.0612 89.8912 55.0187V55.0081ZM90.5992 52.3955C90.6627 52.3037 90.6983 52.1956 90.7019 52.084C90.7079 52.0439 90.7013 52.0029 90.6829 51.9667C90.6645 51.9305 90.6352 51.901 90.5992 51.8822C90.5561 51.8694 90.5106 51.8668 90.4663 51.8748C90.422 51.8828 90.3802 51.9011 90.3443 51.9283C90.2416 51.9891 90.1553 52.0742 90.093 52.1761C90.0275 52.2695 89.9917 52.3805 89.9903 52.4947C89.9903 52.5973 90.0222 52.661 90.093 52.6894C90.1355 52.7022 90.1805 52.7047 90.2242 52.6967C90.2679 52.6887 90.3091 52.6704 90.3443 52.6433C90.4585 52.5863 90.5551 52.4995 90.624 52.392L90.5992 52.3955ZM91.7249 53.9815C91.6774 53.985 91.6298 53.9775 91.5856 53.9598C91.5414 53.942 91.5019 53.9143 91.4701 53.8788C91.4036 53.7918 91.3709 53.6836 91.378 53.5744C91.381 53.4327 91.4123 53.2931 91.4701 53.1637C91.5338 53.0191 91.6198 52.8853 91.7249 52.7672C91.8254 52.6499 91.9451 52.5505 92.0789 52.4734C92.1847 52.4048 92.307 52.3657 92.4329 52.3601C92.48 52.3577 92.5271 52.3652 92.571 52.3823C92.615 52.3994 92.6548 52.4256 92.6878 52.4593C92.7563 52.5466 92.7892 52.6566 92.7799 52.7672C92.7792 52.9103 92.7478 53.0515 92.6878 53.1814C92.6224 53.3251 92.5365 53.4587 92.4329 53.5779C92.3313 53.6941 92.2118 53.7933 92.0789 53.8717C91.9773 53.9392 91.8606 53.9806 91.7391 53.9921L91.7249 53.9815ZM92.3338 53.2735C92.3974 53.1804 92.433 53.0711 92.4365 52.9584C92.4421 52.9193 92.4351 52.8794 92.4167 52.8444C92.3983 52.8094 92.3693 52.7812 92.3338 52.7637C92.2902 52.7505 92.244 52.7478 92.1991 52.7558C92.1542 52.7638 92.1118 52.7823 92.0754 52.8097C91.972 52.8698 91.8856 52.955 91.8241 53.0575C91.7586 53.1486 91.7216 53.257 91.7179 53.369C91.7179 53.4752 91.7533 53.5425 91.8241 53.5673C91.8668 53.5785 91.9114 53.5802 91.9549 53.5723C91.9983 53.5643 92.0395 53.5469 92.0754 53.5213C92.1828 53.4666 92.276 53.3878 92.348 53.2912L92.3338 53.2735Z" fill="black"/>
<path d="M77.1401 69.2495C77.1401 68.9273 76.9136 68.7964 76.6339 68.9557L71.9717 71.6531C71.8241 71.7501 71.7014 71.8804 71.6135 72.0335C71.5255 72.1866 71.4749 72.3583 71.4655 72.5346V76.3047C71.4655 76.6304 71.6921 76.7614 71.9717 76.5985L73.7028 75.6002L74.4285 76.8569C74.439 76.875 74.4544 76.8898 74.473 76.8994C74.4915 76.9091 74.5124 76.9132 74.5333 76.9113C74.5541 76.9095 74.574 76.9017 74.5905 76.8889C74.6071 76.8761 74.6196 76.8589 74.6267 76.8392L75.3949 74.6197L76.6339 73.9117C76.7814 73.8155 76.9042 73.6859 76.9922 73.5333C77.0801 73.3808 77.1308 73.2096 77.1401 73.0337V69.2495Z" fill="#F5F5F5"/>
<path d="M73.0833 73.2037C73.0363 73.2074 72.9891 73.2001 72.9454 73.1823C72.9017 73.1645 72.8629 73.1366 72.832 73.101C72.7633 73.0151 72.7304 72.9061 72.7399 72.7966C72.7402 72.6523 72.7716 72.5098 72.832 72.3788C72.8948 72.2345 72.9796 72.1008 73.0833 71.9824C73.1841 71.8654 73.3038 71.7661 73.4373 71.6885C73.5435 71.6212 73.6656 71.5833 73.7913 71.5788C73.8388 71.5753 73.8865 71.5827 73.9307 71.6005C73.9749 71.6183 74.0144 71.646 74.0462 71.6815C74.116 71.7683 74.1501 71.8784 74.1418 71.9894C74.1394 72.1315 74.1068 72.2715 74.0462 72.4001C73.9816 72.5454 73.8957 72.6802 73.7913 72.8001C73.6898 72.9154 73.5703 73.0135 73.4373 73.0904C73.331 73.1579 73.2091 73.1969 73.0833 73.2037ZM72.97 75.1117C72.9713 75.0883 72.9773 75.0655 72.9877 75.0445L75.0126 70.9274C75.0263 70.8946 75.0442 70.8637 75.0657 70.8354C75.086 70.8118 75.1099 70.7915 75.1365 70.7752L75.5542 70.5345C75.5702 70.5288 75.5877 70.5288 75.6038 70.5345C75.6107 70.5362 75.6167 70.5404 75.6206 70.5463C75.6245 70.5522 75.6261 70.5594 75.625 70.5664C75.624 70.5903 75.6167 70.6135 75.6038 70.6336L73.5718 74.7719C73.5541 74.8073 73.5364 74.8321 73.5258 74.8498C73.5058 74.8694 73.4832 74.886 73.4585 74.8993L73.0373 75.1436C72.9913 75.1577 72.97 75.1542 72.97 75.1117V75.1117ZM73.678 72.4992C73.74 72.4069 73.7744 72.2988 73.7771 72.1877C73.7771 72.0815 73.7453 72.0142 73.678 71.9859C73.6349 71.973 73.5894 71.9705 73.5451 71.9785C73.5008 71.9865 73.459 72.0048 73.4231 72.0319C73.3185 72.0915 73.2308 72.1768 73.1683 72.2797C73.1042 72.3739 73.0686 72.4845 73.0656 72.5983C73.06 72.6374 73.0669 72.6773 73.0854 72.7123C73.1038 72.7473 73.1328 72.7755 73.1683 72.793C73.2114 72.8059 73.2569 72.8084 73.3012 72.8004C73.3455 72.7924 73.3872 72.7741 73.4231 72.747C73.5321 72.6882 73.6247 72.603 73.6922 72.4992H73.678ZM74.8037 74.0851C74.7563 74.0879 74.7089 74.0801 74.6648 74.0623C74.6207 74.0446 74.5811 74.0173 74.5489 73.9825C74.4802 73.8964 74.4462 73.7879 74.4533 73.678C74.4557 73.5359 74.4882 73.3959 74.5489 73.2674C74.6134 73.1221 74.6993 72.9873 74.8037 72.8674C74.9058 72.7527 75.0253 72.6547 75.1577 72.5771C75.264 72.5095 75.386 72.4705 75.5117 72.4638C75.5589 72.4606 75.6062 72.4678 75.6502 72.485C75.6943 72.5021 75.734 72.5287 75.7666 72.5629C75.8367 72.6496 75.8709 72.7598 75.8622 72.8709C75.8602 73.0142 75.8276 73.1554 75.7666 73.2851C75.7019 73.4282 75.616 73.5606 75.5117 73.678C75.4119 73.796 75.2921 73.8954 75.1577 73.9718C75.056 74.0381 74.939 74.0771 74.8179 74.0851H74.8037ZM75.4091 73.3771C75.4731 73.2829 75.5087 73.1724 75.5117 73.0585C75.5168 73.0194 75.5096 72.9798 75.4912 72.9449C75.4729 72.9101 75.4442 72.8817 75.4091 72.8638C75.365 72.8525 75.319 72.851 75.2743 72.8596C75.2296 72.8682 75.1874 72.8865 75.1507 72.9134C75.0488 72.9738 74.9626 73.0575 74.8993 73.1576C74.8352 73.2505 74.7995 73.3599 74.7967 73.4727C74.7967 73.5789 74.8285 73.6426 74.8993 73.6709C74.942 73.6822 74.9867 73.6839 75.0301 73.6759C75.0736 73.668 75.1147 73.6506 75.1507 73.6249C75.2592 73.5672 75.3525 73.4847 75.4232 73.3842L75.4091 73.3771Z" fill="#407BFF"/>
<path opacity="0.4" d="M73.0833 73.2037C73.0363 73.2074 72.9891 73.2001 72.9454 73.1823C72.9017 73.1645 72.8629 73.1366 72.832 73.101C72.7633 73.0151 72.7304 72.9061 72.7399 72.7966C72.7402 72.6523 72.7716 72.5098 72.832 72.3788C72.8948 72.2345 72.9796 72.1008 73.0833 71.9824C73.1841 71.8654 73.3038 71.7661 73.4373 71.6885C73.5435 71.6212 73.6656 71.5833 73.7913 71.5788C73.8388 71.5753 73.8865 71.5827 73.9307 71.6005C73.9749 71.6183 74.0144 71.646 74.0462 71.6815C74.116 71.7683 74.1501 71.8784 74.1418 71.9894C74.1394 72.1315 74.1068 72.2715 74.0462 72.4001C73.9816 72.5454 73.8957 72.6802 73.7913 72.8001C73.6898 72.9154 73.5703 73.0135 73.4373 73.0904C73.331 73.1579 73.2091 73.1969 73.0833 73.2037ZM72.97 75.1117C72.9713 75.0883 72.9773 75.0655 72.9877 75.0445L75.0126 70.9274C75.0263 70.8946 75.0442 70.8637 75.0657 70.8354C75.086 70.8118 75.1099 70.7915 75.1365 70.7752L75.5542 70.5345C75.5702 70.5288 75.5877 70.5288 75.6038 70.5345C75.6107 70.5362 75.6167 70.5404 75.6206 70.5463C75.6245 70.5522 75.6261 70.5594 75.625 70.5664C75.624 70.5903 75.6167 70.6135 75.6038 70.6336L73.5718 74.7719C73.5541 74.8073 73.5364 74.8321 73.5258 74.8498C73.5058 74.8694 73.4832 74.886 73.4585 74.8993L73.0373 75.1436C72.9913 75.1577 72.97 75.1542 72.97 75.1117V75.1117ZM73.678 72.4992C73.74 72.4069 73.7744 72.2988 73.7771 72.1877C73.7771 72.0815 73.7453 72.0142 73.678 71.9859C73.6349 71.973 73.5894 71.9705 73.5451 71.9785C73.5008 71.9865 73.459 72.0048 73.4231 72.0319C73.3185 72.0915 73.2308 72.1768 73.1683 72.2797C73.1042 72.3739 73.0686 72.4845 73.0656 72.5983C73.06 72.6374 73.0669 72.6773 73.0854 72.7123C73.1038 72.7473 73.1328 72.7755 73.1683 72.793C73.2114 72.8059 73.2569 72.8084 73.3012 72.8004C73.3455 72.7924 73.3872 72.7741 73.4231 72.747C73.5321 72.6882 73.6247 72.603 73.6922 72.4992H73.678ZM74.8037 74.0851C74.7563 74.0879 74.7089 74.0801 74.6648 74.0623C74.6207 74.0446 74.5811 74.0173 74.5489 73.9825C74.4802 73.8964 74.4462 73.7879 74.4533 73.678C74.4557 73.5359 74.4882 73.3959 74.5489 73.2674C74.6134 73.1221 74.6993 72.9873 74.8037 72.8674C74.9058 72.7527 75.0253 72.6547 75.1577 72.5771C75.264 72.5095 75.386 72.4705 75.5117 72.4638C75.5589 72.4606 75.6062 72.4678 75.6502 72.485C75.6943 72.5021 75.734 72.5287 75.7666 72.5629C75.8367 72.6496 75.8709 72.7598 75.8622 72.8709C75.8602 73.0142 75.8276 73.1554 75.7666 73.2851C75.7019 73.4282 75.616 73.5606 75.5117 73.678C75.4119 73.796 75.2921 73.8954 75.1577 73.9718C75.056 74.0381 74.939 74.0771 74.8179 74.0851H74.8037ZM75.4091 73.3771C75.4731 73.2829 75.5087 73.1724 75.5117 73.0585C75.5168 73.0194 75.5096 72.9798 75.4912 72.9449C75.4729 72.9101 75.4442 72.8817 75.4091 72.8638C75.365 72.8525 75.319 72.851 75.2743 72.8596C75.2296 72.8682 75.1874 72.8865 75.1507 72.9134C75.0488 72.9738 74.9626 73.0575 74.8993 73.1576C74.8352 73.2505 74.7995 73.3599 74.7967 73.4727C74.7967 73.5789 74.8285 73.6426 74.8993 73.6709C74.942 73.6822 74.9867 73.6839 75.0301 73.6759C75.0736 73.668 75.1147 73.6506 75.1507 73.6249C75.2592 73.5672 75.3525 73.4847 75.4232 73.3842L75.4091 73.3771Z" fill="black"/>
<path d="M72.9523 104.494L76.3684 102.522C76.8676 102.235 77.2676 102.359 77.2676 102.798C77.2307 103.072 77.1301 103.333 76.9739 103.562C76.8178 103.79 76.6104 103.978 76.3684 104.111L72.9559 106.083C72.4567 106.37 72.0532 106.246 72.0532 105.807C72.0917 105.534 72.1929 105.273 72.3489 105.045C72.5048 104.817 72.7114 104.629 72.9523 104.494V104.494Z" fill="#F5F5F5"/>
<path d="M89.9408 94.6844L93.3569 92.7126C93.8525 92.4259 94.256 92.5498 94.256 92.9887C94.2175 93.2621 94.1163 93.5229 93.9603 93.7508C93.8044 93.9786 93.5978 94.1673 93.3569 94.3021L89.9408 96.288C89.4452 96.5747 89.0416 96.4508 89.0416 96.0119C89.0786 95.7361 89.179 95.4727 89.3351 95.2424C89.4911 95.012 89.6984 94.821 89.9408 94.6844Z" fill="#F5F5F5"/>
<path d="M102.922 87.2008L106.338 85.229C106.834 84.9423 107.237 85.0662 107.237 85.5052C107.199 85.7786 107.097 86.0394 106.942 86.2672C106.786 86.495 106.579 86.6837 106.338 86.8185L102.922 88.7903C102.426 89.077 102.023 88.9567 102.023 88.5177C102.061 88.2438 102.162 87.9824 102.318 87.7539C102.474 87.5255 102.681 87.3362 102.922 87.2008V87.2008Z" fill="#F5F5F5"/>
<path d="M115.708 79.8093L119.125 77.8375C119.624 77.5508 120.027 77.6711 120.024 78.1101C119.987 78.3846 119.887 78.6468 119.731 78.8755C119.575 79.1042 119.367 79.2931 119.125 79.427L115.712 81.3988C115.213 81.6855 114.809 81.5616 114.809 81.1226C114.848 80.8492 114.949 80.5884 115.105 80.3606C115.261 80.1328 115.467 79.9441 115.708 79.8093V79.8093Z" fill="#F5F5F5"/>
<path d="M139.476 60.4172C138.602 60.3535 137.387 60.3499 136.187 62.3111C134.987 64.2722 131.727 69.6672 131.727 69.6672L133.851 71.1044L137.568 65.8829C137.568 65.8829 137.922 61.7093 138.609 61.1252C139.295 60.5411 139.476 60.4172 139.476 60.4172Z" fill="#F28F8F"/>
<path d="M142.421 99.9055L140.427 100.551L141.366 103.451L143.36 102.805L142.421 99.9055Z" fill="#FFA8A7"/>
<path d="M140.966 102.189C140.979 102.427 140.918 102.663 140.793 102.865C140.476 103.393 140.102 103.884 139.678 104.331C139.08 104.972 138.184 105.747 137.554 106.288C137.2 106.6 137.182 107.071 137.692 107.234C138.641 107.467 139.643 107.327 140.492 106.844C141.129 106.49 142.035 104.926 142.563 104.685C143.172 104.412 143.515 104.274 143.72 103.977C143.876 103.817 143.973 103.61 143.995 103.388C144.018 103.166 143.965 102.943 143.844 102.756C143.558 102.221 143.136 101.4 142.949 101.492L143.002 101.658C142.864 102.094 141.678 102.6 141.069 102.479L140.966 102.189Z" fill="#263238"/>
<path d="M142.995 101.676C142.432 101.502 142.262 101.8 141.653 101.676L140.966 102.189C140.981 102.427 140.92 102.664 140.793 102.865C140.476 103.393 140.102 103.884 139.678 104.331C139.384 104.642 139.023 104.982 138.658 105.315C138.364 105.775 139.345 105.91 139.887 105.754C140.481 105.541 140.994 105.148 141.352 104.628C141.745 104.111 142.814 102.911 142.974 102.504C143.088 102.241 143.096 101.944 142.995 101.676V101.676Z" fill="#FFA8A7"/>
<path d="M149.692 72.3576C149.402 70.2336 148.751 67.7556 147.894 63.943C147.586 62.566 147.186 61.3234 146.202 60.9411C146.202 60.9411 143.501 62.0527 143.501 64.0492C143.501 66.0458 145.685 67.0688 145.685 67.0688L146.931 71.3664L148.907 73.763C149.192 73.6735 149.433 73.478 149.579 73.2167C149.725 72.9553 149.766 72.6479 149.692 72.3576V72.3576Z" fill="#FFA8A7"/>
<path d="M145.473 104.635H143.437V107.598H145.473V104.635Z" fill="#FFA8A7"/>
<path d="M147.006 74.432C147.813 77.8871 147.027 82.5493 146.751 85.4556C146.482 88.2876 146.149 91.5975 146.149 91.5975C146.149 91.5975 147.016 94.5888 146.974 96.9075C146.931 99.3572 145.498 105.255 145.498 105.255C145.186 105.455 144.824 105.562 144.453 105.562C144.083 105.562 143.72 105.455 143.409 105.255C143.409 105.255 143.055 100.299 142.701 97.4951C142.347 94.5569 142.234 92.4188 141.933 90.7019C141.554 88.5779 140.92 79.5226 140.92 79.5226L139.83 88.5C140.484 89.5755 140.993 90.7324 141.345 91.9409C141.791 93.679 142.761 100.578 142.761 100.578C142.154 101.122 141.374 101.432 140.559 101.453C140.559 101.453 136.198 91.0913 135.603 90.0576C134.966 88.9567 134.87 76.8994 135.886 73.8798L147.006 74.432Z" fill="#455A64"/>
<path d="M143.278 60.4632C143.278 60.4632 145.855 60.7853 146.202 60.9411C143.501 62.8421 145.685 67.0688 145.685 67.0688L144.379 70.669L147.002 74.4214C146.248 75.2923 141.451 78.3154 136.304 75.002C136.408 73.2539 136.61 71.513 136.909 69.7876C136.166 66.2476 136.088 65.1183 136.304 64.2864C136.91 61.9465 138.294 60.4526 139.883 60.3641L143.278 60.4632Z" fill="#407BFF"/>
<path opacity="0.7" d="M143.278 60.4632C143.278 60.4632 145.855 60.7853 146.202 60.9411C143.501 62.8421 145.685 67.0688 145.685 67.0688L144.379 70.669L147.002 74.4214C146.248 75.2923 141.451 78.3154 136.304 75.002C136.408 73.2539 136.61 71.513 136.909 69.7876C136.166 66.2476 136.088 65.1183 136.304 64.2864C136.91 61.9465 138.294 60.4526 139.883 60.3641L143.278 60.4632Z" fill="white"/>
<path d="M130.222 66.7963L139.002 69.1114L141.593 80.0075L133.246 77.5826L130.222 66.7963Z" fill="#407BFF"/>
<path d="M134.049 74.0072C133.968 74.2303 133.49 74.8462 132.467 74.8002L132.339 74.3471L134.049 74.0072Z" fill="#407BFF"/>
<path opacity="0.2" d="M134.049 74.0072C133.968 74.2303 133.49 74.8462 132.467 74.8002L132.339 74.3471L134.049 74.0072Z" fill="black"/>
<path d="M136.014 74.34C136.049 74.6303 136.648 75.1684 137.656 75.5047C138.807 75.8905 140.566 75.6852 140.566 75.6852L140.411 75.1436L136.014 74.34Z" fill="#407BFF"/>
<path opacity="0.2" d="M136.014 74.34C136.049 74.6303 136.648 75.1684 137.656 75.5047C138.807 75.8905 140.566 75.6852 140.566 75.6852L140.411 75.1436L136.014 74.34Z" fill="black"/>
<path d="M132.792 68.3751L132.722 68.0423C132.679 67.8547 133.196 67.8476 133.872 68.0211L135.164 68.3574C135.84 68.5344 136.421 68.8247 136.46 69.0088L136.534 69.3451L132.792 68.3751Z" fill="#407BFF"/>
<path opacity="0.3" d="M132.792 68.3751L132.722 68.0423C132.679 67.8547 133.196 67.8476 133.872 68.0211L135.164 68.3574C135.84 68.5344 136.421 68.8247 136.46 69.0088L136.534 69.3451L132.792 68.3751Z" fill="black"/>
<path d="M132.184 67.1113C132.159 66.998 132.368 66.9662 132.651 67.0441L133.164 67.1857C133.164 67.1857 133.008 66.4777 134.148 66.7148C134.451 66.7572 134.738 66.8773 134.98 67.0635C135.223 67.2496 135.413 67.4954 135.532 67.7768L136.078 67.9326C136.382 68.0176 136.655 68.1804 136.69 68.2866L136.754 68.4955L132.233 67.306C132.233 67.306 132.208 67.2281 132.184 67.1113Z" fill="#455A64"/>
<path d="M132.807 67.4724C133.221 67.5751 133.394 67.6282 133.454 67.9149C133.515 68.2016 133.554 68.4778 133.554 68.4778L135.557 69.0088C135.557 69.0088 135.462 68.5946 135.43 68.4353C135.398 68.276 135.465 68.1769 135.784 68.2618L135.812 68.1344L132.676 67.3343L132.807 67.4724Z" fill="#455A64"/>
<path d="M132.75 68.407C132.75 68.407 132.718 68.2583 132.676 68.053C132.633 67.8476 133.15 67.8618 133.826 68.053L135.122 68.3893C135.798 68.5663 136.375 68.8565 136.417 69.0406L136.488 69.3769L132.75 68.407Z" fill="#455A64"/>
<path d="M148.907 73.763L146.931 71.3664C146.931 71.3664 142.485 73.232 141.784 73.2851C141.083 73.3382 140.542 72.6514 140.273 71.9682C140.003 71.285 139.472 71.3699 139.472 71.3699C139.472 71.3699 139.681 72.2372 139.745 72.5169C139.809 72.7966 138.205 73.0196 137.267 72.7045C136.329 72.3895 134.994 72.8461 135.83 74.1205C136.665 75.3949 138.279 75.5365 139.405 75.5365C139.879 75.533 140.352 75.5011 140.821 75.4409C141.175 75.3949 141.529 75.356 141.915 75.3312C144.213 75.1542 147.859 74.0887 148.907 73.763Z" fill="#FFA8A7"/>
<path d="M131.115 69.9823L131.504 71.3735C131.582 71.639 132.601 72.1275 133.246 72.3045C133.89 72.4815 134.598 72.6904 134.308 73.5931C134.024 74.425 132.962 74.6161 132.421 74.5913C131.879 74.5666 131.143 74.0533 130.849 73.2178C130.495 72.1558 130.679 71.023 130.53 70.3858C130.382 69.7486 130.792 69.6141 131.115 69.9823Z" fill="#FFA8A7"/>
<path d="M143.437 106.596V106.303C143.186 107.266 142.684 108.145 141.982 108.851C141.338 109.439 140.464 110.115 140.241 110.767C140.018 111.418 141.274 111.715 142.106 111.634C142.911 111.532 143.653 111.144 144.195 110.54C144.722 109.935 144.712 109.521 144.959 109.188C145.207 108.855 145.774 108.48 145.908 108.094C145.948 107.736 145.908 107.373 145.791 107.032C145.696 106.678 145.593 106.278 145.473 106.324V106.547C145.183 106.778 144.823 106.903 144.453 106.901C144.156 106.883 143.434 106.823 143.437 106.596Z" fill="#263238"/>
<path d="M145.473 106.526C145.324 106.689 145.25 106.288 144.79 106.303C144.492 106.303 143.993 106.529 143.993 106.303H143.437C143.186 107.266 142.684 108.145 141.982 108.851C141.827 108.993 141.66 109.138 141.49 109.287C141.136 109.669 141.246 109.995 142.05 110.069C142.853 110.144 143.558 109.655 144.174 108.908C144.688 108.161 145.123 107.362 145.473 106.526V106.526Z" fill="#FFA8A7"/>
<path d="M141.515 58.7215H141.034C139.804 58.7215 138.624 58.2329 137.754 57.3633C136.885 56.4936 136.396 55.314 136.396 54.0841V53.6133C136.396 52.5683 136.811 51.5662 137.55 50.8273C138.289 50.0884 139.291 49.6733 140.336 49.6733H142.234C143.279 49.6733 144.281 50.0884 145.02 50.8273C145.759 51.5662 146.174 52.5683 146.174 53.6133V54.0593C146.174 55.2952 145.683 56.4805 144.809 57.3548C143.936 58.229 142.751 58.7206 141.515 58.7215V58.7215Z" fill="#263238"/>
<path d="M138.003 51.6521C137.487 51.9566 136.849 53.2558 136.913 55.978C136.966 58.2861 137.713 58.856 138.088 59.0224C138.464 59.1888 139.189 59.0861 139.894 58.9693V60.3535C139.894 60.3535 138.92 61.4863 138.984 62.1235C139.048 62.7607 140.4 62.9093 141.299 62.2863C141.958 61.7765 142.525 61.1589 142.977 60.4597L142.959 57.2737C142.959 57.2737 143.374 57.6772 144.078 57.0613C144.659 56.555 144.853 55.6984 144.4 55.2417C144.283 55.1324 144.142 55.0524 143.988 55.0085C143.834 54.9645 143.672 54.9579 143.515 54.989C143.358 55.0201 143.21 55.0882 143.085 55.1875C142.959 55.2868 142.859 55.4146 142.793 55.5603C141.869 55.5228 140.968 55.2551 140.173 54.7815C139.592 54.4663 139.093 54.0188 138.716 53.4753C138.339 52.9317 138.095 52.3073 138.003 51.6521V51.6521Z" fill="#FFA8A7"/>
<path d="M139.476 55.401C139.473 55.4396 139.478 55.4784 139.49 55.5152C139.502 55.5519 139.521 55.5859 139.547 55.6152C139.572 55.6445 139.603 55.6685 139.638 55.6858C139.672 55.7031 139.71 55.7134 139.749 55.7161C139.828 55.718 139.905 55.6886 139.962 55.6342C140.02 55.5799 140.054 55.505 140.057 55.4258C140.06 55.3488 140.032 55.2737 139.98 55.2169C139.954 55.1888 139.923 55.166 139.889 55.1499C139.854 55.1339 139.817 55.1247 139.779 55.1231C139.702 55.1198 139.627 55.1473 139.57 55.1994C139.513 55.2515 139.479 55.324 139.476 55.401V55.401Z" fill="#263238"/>
<path d="M139.412 57.348L138.74 57.5639C138.766 57.6533 138.826 57.7286 138.908 57.7737C138.989 57.8187 139.085 57.8299 139.175 57.8047C139.221 57.7914 139.265 57.7689 139.302 57.7384C139.339 57.7079 139.37 57.6702 139.392 57.6274C139.414 57.5847 139.428 57.5378 139.431 57.4898C139.434 57.4418 139.428 57.3935 139.412 57.348V57.348Z" fill="#F28F8F"/>
<path d="M137.111 54.516L137.699 54.1089C137.647 54.0313 137.567 53.9773 137.475 53.9588C137.384 53.9402 137.288 53.9585 137.21 54.0098C137.169 54.0355 137.134 54.0693 137.107 54.1092C137.08 54.149 137.061 54.194 137.051 54.2415C137.042 54.2889 137.043 54.3377 137.053 54.3849C137.063 54.4321 137.083 54.4767 137.111 54.516V54.516Z" fill="#263238"/>
<path d="M137.246 55.1886C137.245 55.2455 137.261 55.3014 137.292 55.3492C137.323 55.3971 137.367 55.4348 137.42 55.4576C137.472 55.4805 137.529 55.4875 137.585 55.4778C137.642 55.4681 137.694 55.4421 137.735 55.4031C137.777 55.3641 137.806 55.3137 137.819 55.2583C137.832 55.2028 137.828 55.1448 137.808 55.0914C137.789 55.0379 137.754 54.9915 137.708 54.9578C137.662 54.9241 137.607 54.9046 137.55 54.9019C137.511 54.9004 137.473 54.9068 137.436 54.9205C137.4 54.9341 137.366 54.9549 137.338 54.9816C137.31 55.0083 137.287 55.0403 137.271 55.0758C137.255 55.1114 137.247 55.1497 137.246 55.1886V55.1886Z" fill="#263238"/>
<path d="M138.616 55.0258L138.57 56.771L137.649 56.4842L138.616 55.0258Z" fill="#F28F8F"/>
<path d="M139.894 58.9693C140.637 58.8702 142.163 58.4312 142.4 57.8294C142.305 58.1354 142.119 58.4049 141.865 58.6012C141.409 58.9906 139.894 59.4295 139.894 59.4295V58.9693Z" fill="#F28F8F"/>
<path d="M145.151 68.5415L143.119 71.2956L144.379 70.669L145.151 68.5415Z" fill="#407BFF"/>
<path opacity="0.3" d="M145.151 68.5415L143.119 71.2956L144.379 70.669L145.151 68.5415Z" fill="white"/>
</svg>
