<svg width="607" height="580" viewBox="55 50 300 240" fill="none" xmlns="http://www.w3.org/2000/svg">
<rect width="607" height="580" />
<rect width="607" height="580" />
<path d="M62.1435 122L62 335.672H286.661V122H62.1435Z" fill="white"/>
<path d="M227.418 101.115C227.418 145.897 189.424 182.2 142.556 182.2C95.6973 182.2 57.7041 145.897 57.7041 101.115C57.7041 56.3342 95.6973 20.031 142.556 20.031C189.424 20.031 227.418 56.3331 227.418 101.115Z" fill="#EC5564"/>
<path d="M142.889 101.115L207.531 48.98C191.971 31.2934 168.646 20.031 142.555 20.031C137.56 20.031 132.667 20.4694 127.903 21.2612L142.889 101.115Z" fill="#9ED36A"/>
<path d="M210.615 149.75C221.237 136.21 227.528 119.394 227.528 101.172C227.528 81.2942 220.029 63.099 207.603 49L143 101.172L210.615 149.75Z" fill="#FECD57"/>
<path d="M182.209 224.108H165V274.509H182.209V224.108Z" fill="#4A89DC"/>
<path d="M216.603 191.24H199.403V274.51H216.603V191.24Z" fill="#4A89DC"/>
<path d="M251.008 166.365H233.808V282.509H251.008V166.365Z" fill="#4A89DC"/>
<path d="M285.205 134H268V283.009H285.205V134Z" fill="#4A89DC"/>
<path d="M319.806 100.623H302.606V282.51H319.806V100.623Z" fill="#4A89DC"/>
<path d="M345.206 274H156V282.77H345.206V274Z" fill="#43454F"/>
</svg>
