<svg width="105" height="104" viewBox="0 0 105 104" fill="none" xmlns="http://www.w3.org/2000/svg">
<g filter="url(#filter0_d_13_8185)">
<rect x="6.96118" y="6" width="84" height="84" rx="8" fill="white" shape-rendering="crispEdges"/>
<path d="M34.9612 66C33.8612 66 32.9195 65.6083 32.1362 64.825C31.3528 64.0417 30.9612 63.1 30.9612 62V42C30.9612 40.9 31.3528 39.9583 32.1362 39.175C32.9195 38.3917 33.8612 38 34.9612 38H38.9612V34C38.9612 32.9 39.3528 31.9583 40.1362 31.175C40.9195 30.3917 41.8612 30 42.9612 30H54.9612C56.0612 30 57.0028 30.3917 57.7862 31.175C58.5695 31.9583 58.9612 32.9 58.9612 34V46H62.9612C64.0612 46 65.0028 46.3917 65.7862 47.175C66.5695 47.9583 66.9612 48.9 66.9612 50V62C66.9612 63.1 66.5695 64.0417 65.7862 64.825C65.0028 65.6083 64.0612 66 62.9612 66H50.9612V58H46.9612V66H34.9612ZM34.9612 62H38.9612V58H34.9612V62ZM34.9612 54H38.9612V50H34.9612V54ZM34.9612 46H38.9612V42H34.9612V46ZM42.9612 54H46.9612V50H42.9612V54ZM42.9612 46H46.9612V42H42.9612V46ZM42.9612 38H46.9612V34H42.9612V38ZM50.9612 54H54.9612V50H50.9612V54ZM50.9612 46H54.9612V42H50.9612V46ZM50.9612 38H54.9612V34H50.9612V38ZM58.9612 62H62.9612V58H58.9612V62ZM58.9612 54H62.9612V50H58.9612V54Z" fill="url(#paint0_linear_13_8185)"/>
<rect x="7.46118" y="6.5" width="83" height="83" rx="7.5" stroke="#FFB564" shape-rendering="crispEdges"/>
</g>
<defs>
<filter id="filter0_d_13_8185" x="0.961182" y="0" width="104" height="104" filterUnits="userSpaceOnUse" color-interpolation-filters="sRGB">
<feFlood flood-opacity="0" result="BackgroundImageFix"/>
<feColorMatrix in="SourceAlpha" type="matrix" values="0 0 0 0 0 0 0 0 0 0 0 0 0 0 0 0 0 0 127 0" result="hardAlpha"/>
<feOffset dx="4" dy="4"/>
<feGaussianBlur stdDeviation="5"/>
<feComposite in2="hardAlpha" operator="out"/>
<feColorMatrix type="matrix" values="0 0 0 0 1 0 0 0 0 0.435294 0 0 0 0 0.392157 0 0 0 0.33 0"/>
<feBlend mode="normal" in2="BackgroundImageFix" result="effect1_dropShadow_13_8185"/>
<feBlend mode="normal" in="SourceGraphic" in2="effect1_dropShadow_13_8185" result="shape"/>
</filter>
<linearGradient id="paint0_linear_13_8185" x1="48.9612" y1="30" x2="48.9612" y2="66" gradientUnits="userSpaceOnUse">
<stop stop-color="#FFB763"/>
<stop offset="1" stop-color="#FF6C63"/>
</linearGradient>
</defs>
</svg>
