<svg xmlns="http://www.w3.org/2000/svg" width="25" height="25" id="arrow"><path style="text-indent:0;text-align:start;line-height:normal;text-transform:none;block-progression:tb;marker:none;-inkscape-font-specification:Sans" d="M12.5 0C5.602 0 0 5.602 0 12.5S5.602 25 12.5 25 25 19.398 25 12.5 19.398 0 12.5 0zm0 .938c6.378 0 11.531 5.184 11.531 11.562A11.519 11.519 0 0 1 12.5 24.031 11.519 11.519 0 0 1 .969 12.5C.969 6.122 6.122.937 12.5.937zm2.844 5.718-.688.688L16.281 9H7v1h9.281l-1.625 1.656.688.688L18.219 9.5l-2.875-2.844zm-5.688 7L6.781 16.5l2.875 2.844.688-.688L8.719 17H18v-1H8.719l1.625-1.656-.688-.688z" color="#000" font-family="Sans" font-weight="400" overflow="visible"></path></svg>