<svg width="105" height="104" viewBox="0 0 105 104" fill="none" xmlns="http://www.w3.org/2000/svg">
<g filter="url(#filter0_d_13_8189)">
<rect x="6.7168" y="6" width="84.154" height="84" rx="8" fill="white" shape-rendering="crispEdges"/>
<path d="M54.6688 35.3461C54.0361 35.3461 53.5013 35.1277 53.0645 34.6908C52.6276 34.254 52.4092 33.7192 52.4092 33.0865C52.4092 32.4538 52.6276 31.919 53.0645 31.4821C53.5013 31.0453 54.0361 30.8269 54.6688 30.8269C55.3015 30.8269 55.8363 31.0453 56.2731 31.4821C56.71 31.919 56.9284 32.4538 56.9284 33.0865C56.9284 33.7192 56.71 34.254 56.2731 34.6908C55.8363 35.1277 55.3015 35.3461 54.6688 35.3461ZM54.6688 65.1731C54.0361 65.1731 53.5013 64.9547 53.0645 64.5179C52.6276 64.081 52.4092 63.5462 52.4092 62.9135C52.4092 62.2808 52.6276 61.746 53.0645 61.3092C53.5013 60.8723 54.0361 60.6539 54.6688 60.6539C55.3015 60.6539 55.8363 60.8723 56.2731 61.3092C56.71 61.746 56.9284 62.2808 56.9284 62.9135C56.9284 63.5462 56.71 64.081 56.2731 64.5179C55.8363 64.9547 55.3015 65.1731 54.6688 65.1731ZM61.8996 41.6731C61.2669 41.6731 60.7321 41.4546 60.2953 41.0178C59.8584 40.5809 59.64 40.0461 59.64 39.4134C59.64 38.7807 59.8584 38.246 60.2953 37.8091C60.7321 37.3722 61.2669 37.1538 61.8996 37.1538C62.5323 37.1538 63.0671 37.3722 63.5039 37.8091C63.9408 38.246 64.1592 38.7807 64.1592 39.4134C64.1592 40.0461 63.9408 40.5809 63.5039 41.0178C63.0671 41.4546 62.5323 41.6731 61.8996 41.6731ZM61.8996 58.8462C61.2669 58.8462 60.7321 58.6278 60.2953 58.1909C59.8584 57.754 59.64 57.2193 59.64 56.5866C59.64 55.9539 59.8584 55.4191 60.2953 54.9822C60.7321 54.5454 61.2669 54.3269 61.8996 54.3269C62.5323 54.3269 63.0671 54.5454 63.5039 54.9822C63.9408 55.4191 64.1592 55.9539 64.1592 56.5866C64.1592 57.2193 63.9408 57.754 63.5039 58.1909C63.0671 58.6278 62.5323 58.8462 61.8996 58.8462ZM64.6112 50.2596C63.9785 50.2596 63.4437 50.0412 63.0068 49.6043C62.57 49.1675 62.3515 48.6327 62.3515 48C62.3515 47.3673 62.57 46.8325 63.0068 46.3957C63.4437 45.9588 63.9785 45.7404 64.6112 45.7404C65.2439 45.7404 65.7786 45.9588 66.2155 46.3957C66.6524 46.8325 66.8708 47.3673 66.8708 48C66.8708 48.6327 66.6524 49.1675 66.2155 49.6043C65.7786 50.0412 65.2439 50.2596 64.6112 50.2596ZM30.7168 48C30.7168 43.2699 32.291 39.2025 35.4394 35.798C38.5878 32.3935 42.4518 30.4653 47.0313 30.0134C47.5133 29.9531 47.9276 30.0962 48.2741 30.4427C48.6206 30.7892 48.7938 31.2185 48.7938 31.7307C48.7938 32.2128 48.6356 32.6346 48.3193 32.9961C48.0029 33.3576 47.6037 33.5685 47.1217 33.6288C43.4761 34.0506 40.4332 35.6173 37.9928 38.3288C35.5524 41.0404 34.3322 44.2641 34.3322 48C34.3322 51.766 35.5524 54.9973 37.9928 57.6938C40.4332 60.3903 43.4761 61.9494 47.1217 62.3712C47.6037 62.4315 48.0029 62.6424 48.3193 63.0039C48.6356 63.3654 48.7938 63.7872 48.7938 64.2693C48.7938 64.7815 48.6206 65.2108 48.2741 65.5573C47.9276 65.9038 47.5133 66.0469 47.0313 65.9866C42.4216 65.5347 38.5502 63.6065 35.4168 60.202C32.2835 56.7975 30.7168 52.7301 30.7168 48ZM48.7938 51.6154C47.7996 51.6154 46.9484 51.2614 46.2404 50.5534C45.5324 49.8454 45.1784 48.9942 45.1784 48C45.1784 47.8494 45.1859 47.6912 45.201 47.5255C45.2161 47.3598 45.2537 47.2016 45.314 47.051L42.8284 44.5654C42.497 44.234 42.3313 43.8122 42.3313 43.3C42.3313 42.7878 42.497 42.366 42.8284 42.0346C43.1598 41.7032 43.5816 41.5375 44.0938 41.5375C44.606 41.5375 45.0278 41.7032 45.3592 42.0346L47.8447 44.5202C47.9653 44.49 48.2816 44.4449 48.7938 44.3846C49.788 44.3846 50.6391 44.7386 51.3472 45.4466C52.0552 46.1546 52.4092 47.0058 52.4092 48C52.4092 48.9942 52.0552 49.8454 51.3472 50.5534C50.6391 51.2614 49.788 51.6154 48.7938 51.6154Z" fill="url(#paint0_linear_13_8189)"/>
<rect x="7.2168" y="6.5" width="83.154" height="83" rx="7.5" stroke="#FFB564" shape-rendering="crispEdges"/>
</g>
<defs>
<filter id="filter0_d_13_8189" x="0.716797" y="0" width="104.154" height="104" filterUnits="userSpaceOnUse" color-interpolation-filters="sRGB">
<feFlood flood-opacity="0" result="BackgroundImageFix"/>
<feColorMatrix in="SourceAlpha" type="matrix" values="0 0 0 0 0 0 0 0 0 0 0 0 0 0 0 0 0 0 127 0" result="hardAlpha"/>
<feOffset dx="4" dy="4"/>
<feGaussianBlur stdDeviation="5"/>
<feComposite in2="hardAlpha" operator="out"/>
<feColorMatrix type="matrix" values="0 0 0 0 1 0 0 0 0 0.435294 0 0 0 0 0.392157 0 0 0 0.33 0"/>
<feBlend mode="normal" in2="BackgroundImageFix" result="effect1_dropShadow_13_8189"/>
<feBlend mode="normal" in="SourceGraphic" in2="effect1_dropShadow_13_8189" result="shape"/>
</filter>
<linearGradient id="paint0_linear_13_8189" x1="48.7938" y1="30" x2="48.7938" y2="66" gradientUnits="userSpaceOnUse">
<stop stop-color="#FFB763"/>
<stop offset="1" stop-color="#FF6C63"/>
</linearGradient>
</defs>
</svg>
