<svg id="Layer_3" height="512" viewBox="0 0 64 64" width="512" xmlns="http://www.w3.org/2000/svg" data-name="Layer 3"><path d="m5 12h54v20h-54z" fill="#c0dafc"/><path d="m19 16h6v12h-6z" fill="#f2f2f2"/><path d="m2 32h60v10h-60z" fill="#5e87ca"/><path d="m59 37v-5h-57v7h55a2 2 0 0 0 2-2z" fill="#78a0d4"/><path d="m2 6h60v6h-60z" fill="#5e87ca"/><path d="m59 8v-2h-57v3h56a1 1 0 0 0 1-1z" fill="#78a0d4"/><path d="m29 16h6v12h-6z" fill="#f2f2f2"/><path d="m39 16h6v12h-6z" fill="#f2f2f2"/><path d="m49 16h6v12h-6z" fill="#f2f2f2"/><g fill="#fff"><path d="m49 16h4v10h-4z"/><path d="m39 16h4v10h-4z"/><path d="m29 16h4v10h-4z"/><path d="m19 16h4v10h-4z"/></g><path d="m4 42v20h56v-20" fill="#c0dafc"/><path d="m20 58v-14.429l2.2-1.571h1.8v16z" fill="#5e87ca"/><path d="m44 58v-14.429l-2.2-1.571h-1.8v16z" fill="#5e87ca"/><path d="m41.8 42h-19.6l9.8-7z" fill="#3b5892"/><path d="m32 35 14 10 3-3-17-12-17 12 3 3z" fill="#4c6cb5"/><circle cx="32" cy="11" fill="#f0ae42" r="9"/><path d="m39 10a8.991 8.991 0 0 0 -3.977-7.469 9 9 0 0 0 -8.046 15.938 8.981 8.981 0 0 0 12.023-8.469z" fill="#f9d266"/><path d="m36 9v-1a3 3 0 0 0 -3-3v-1h-2v1a3 3 0 0 0 -3 3v1a3 3 0 0 0 3 3v3a1 1 0 0 1 -1-1v-1h-2v1a3 3 0 0 0 3 3v1h2v-1a3 3 0 0 0 3-3v-1a3 3 0 0 0 -3-3v-3a1 1 0 0 1 1 1v1zm-2 4v1a1 1 0 0 1 -1 1v-3a1 1 0 0 1 1 1zm-3-3a1 1 0 0 1 -1-1v-1a1 1 0 0 1 1-1z" fill="#d5883e"/><path d="m9 16h6v12h-6z" fill="#f2f2f2"/><path d="m18 62v-4h8v4" fill="#4c6cb5"/><path d="m38 62v-4h8v4" fill="#4c6cb5"/><path d="m29 62v-10a3 3 0 0 1 3-3 3 3 0 0 1 3 3v10" fill="#4c6cb5"/><path d="m48 47h8v9h-8z" fill="#f2f2f2"/><path d="m48 47h6v7h-6z" fill="#fff"/><path d="m8 47h8v9h-8z" fill="#f2f2f2"/><path d="m8 47h6v7h-6z" fill="#fff"/><path d="m9 16h4v10h-4z" fill="#fff"/><path d="m31 17v1h2v-1a3 3 0 0 0 3-3v-1a3 3 0 0 0 -3-3v-3a1 1 0 0 1 1 1v1h2v-1a3 3 0 0 0 -3-3v-1h-2v1a3 3 0 0 0 -3 3v1a3 3 0 0 0 3 3v3a1 1 0 0 1 -1-1v-1h-2v1a3 3 0 0 0 3 3zm-1-8v-1a1 1 0 0 1 1-1v3a1 1 0 0 1 -1-1zm3 3a1 1 0 0 1 1 1v1a1 1 0 0 1 -1 1z"/><path d="m62 13a1 1 0 0 0 1-1v-6a1 1 0 0 0 -1-1h-22.019a9.962 9.962 0 0 0 -15.962 0h-22.019a1 1 0 0 0 -1 1v6a1 1 0 0 0 1 1h2v18h-2a1 1 0 0 0 -1 1v10a1 1 0 0 0 1 1h1v19a1 1 0 0 0 1 1h56a1 1 0 0 0 1-1v-19h1a1 1 0 0 0 1-1v-10a1 1 0 0 0 -1-1h-2v-18zm-1-6v4h-19a9.929 9.929 0 0 0 -.841-4zm-21 10h4v10h-4zm-8-14a8 8 0 1 1 -8 8 8.009 8.009 0 0 1 8-8zm-2 17.8a10 10 0 0 0 4 0v6.2h-4zm-27-13.8h19.841a9.929 9.929 0 0 0 -.841 4h-19zm0 26h23.016l-11.334 8h-11.682zm31 28h-4v-9a2 2 0 0 1 4 0zm-2-13a4 4 0 0 0 -4 4v9h-1v-3a1 1 0 0 0 -1-1h-1v-14h14v14h-1a1 1 0 0 0 -1 1v3h-1v-9a4 4 0 0 0 -4-4zm-9.479-5h.479v14h-2v-12.914zm2.479 16v2h-6v-2zm.321-18 6.679-4.771 6.679 4.771zm13.679 18h6v2h-6zm2-2v-14h.479l1.521 1.086v12.914zm-8.419-22.814a1 1 0 0 0 -1.162 0l-13.311 9.508-1.561-1.562 15.453-10.908 15.453 10.908-1.561 1.562zm-27.581 8.814h9.586l2.707 2.707a1 1 0 0 0 1.288.107l.419-.3v11.486h-1a1 1 0 0 0 -1 1v3h-12zm54 18h-12v-3a1 1 0 0 0 -1-1h-1v-11.485l.419.3a1 1 0 0 0 1.288-.107l2.707-2.708h9.586zm2-20h-11.682l-11.334-8h23.016zm-3-10h-22.849l-2.574-1.817a1 1 0 0 0 -1.154 0l-2.574 1.817h-22.849v-18h16.2a9.9 9.9 0 0 0 .639 2h-3.839a1 1 0 0 0 -1 1v12a1 1 0 0 0 1 1h6a1 1 0 0 0 1-1v-9.019a9.991 9.991 0 0 0 2 1.178v7.841a1 1 0 0 0 1 1h6a1 1 0 0 0 1-1v-7.841a9.991 9.991 0 0 0 2-1.178v9.019a1 1 0 0 0 1 1h6a1 1 0 0 0 1-1v-12a1 1 0 0 0 -1-1h-3.841a9.9 9.9 0 0 0 .639-2h16.202zm-34-14v10h-4v-10z"/><path d="m15 15h-6a1 1 0 0 0 -1 1v12a1 1 0 0 0 1 1h6a1 1 0 0 0 1-1v-12a1 1 0 0 0 -1-1zm-1 12h-4v-10h4z"/><path d="m49 29h6a1 1 0 0 0 1-1v-12a1 1 0 0 0 -1-1h-6a1 1 0 0 0 -1 1v12a1 1 0 0 0 1 1zm1-12h4v10h-4z"/><path d="m48 46a1 1 0 0 0 -1 1v9a1 1 0 0 0 1 1h8a1 1 0 0 0 1-1v-9a1 1 0 0 0 -1-1zm7 9h-6v-7h6z"/><path d="m17 56v-9a1 1 0 0 0 -1-1h-8a1 1 0 0 0 -1 1v9a1 1 0 0 0 1 1h8a1 1 0 0 0 1-1zm-2-1h-6v-7h6z"/></svg>