<svg xmlns="http://www.w3.org/2000/svg" viewBox="0 0 64 64"><g data-name="Layer 665"><rect width="4" height="17" x="12" y="20" fill="#aaa" stroke="#aaa" stroke-linecap="round" stroke-linejoin="round" stroke-width="2"/><rect width="5" height="17" x="22" y="20" fill="#aaa" stroke="#aaa" stroke-linecap="round" stroke-linejoin="round" stroke-width="2"/><rect width="4" height="17" x="33" y="20" fill="#aaa" stroke="#aaa" stroke-linecap="round" stroke-linejoin="round" stroke-width="2"/><polygon fill="#aaa" stroke="#aaa" stroke-linecap="round" stroke-linejoin="round" stroke-width="2" points="24.5 6 4 16 45 16 24.5 6"/><rect width="39" height="4" x="5" y="37" fill="#757575" stroke="#757575" stroke-linecap="round" stroke-linejoin="round" stroke-width="2"/><path fill="#6989ff" stroke="#6989ff" stroke-miterlimit="10" stroke-width="2" d="M56.63,55H50.5V50h-5v5H39.87C37.46,55,35,56.68,35,58.74V62H61V58.32C61,56.48,58.77,55,56.63,55Z"/><rect width="45" height="4" x="2" y="41" fill="#aaa" stroke="#aaa" stroke-linecap="round" stroke-linejoin="round" stroke-width="2"/><path fill="#4f4f4f" stroke="#4f4f4f" stroke-linecap="round" stroke-linejoin="round" stroke-width="2" d="M57,46.5l.5-6.1A7.18,7.18,0,0,0,50.56,33H45.44a7.18,7.18,0,0,0-6.94,7.4l.5,6.1"/><rect width="41" height="4" x="4" y="16" fill="#757575" stroke="#757575" stroke-linecap="round" stroke-linejoin="round" stroke-width="2"/><path fill="#ffe082" d="M44.68,41.94c-5,0-5.68-4.33-5.68.48v4a11.86,11.86,0,0,0,2.76,7A8.21,8.21,0,0,0,48,56a8.21,8.21,0,0,0,6.24-2.5,11.86,11.86,0,0,0,2.76-7v-4C57,37.61,49.65,41.94,44.68,41.94Z"/><circle cx="24.5" cy="11.5" r="1.5" fill="#757575" stroke="#757575" stroke-linecap="round" stroke-linejoin="round" stroke-width="2"/></g></svg>