<svg xmlns="http://www.w3.org/2000/svg" viewBox="0 0 64 64"><g data-name="bill  shopping  mail  payment  ecommerce"><path fill="#9bc9ff" d="M30.725,37.055,3,60H61L33.275,37.055A2,2,0,0,0,30.725,37.055Z"/><polygon fill="#9bc9ff" points="11 32.685 3 26 3 60 23.442 43.082 11 32.685"/><polygon fill="#9bc9ff" points="11 19.38 3 26 11 32.685 11 19.38"/><polygon fill="#9bc9ff" points="53 32.685 61 26 61 60 40.558 43.082 53 32.685"/><polygon fill="#9bc9ff" points="53 19.38 61 26 53 32.685 53 19.38"/><path fill="#1e81ce" d="M20,22c-1.221,0-2-.592-2-1a1,1,0,0,0-2,0c0,1.421,1.259,2.571,3,2.9V25a1,1,0,0,0,2,0V23.9c1.741-.327,3-1.477,3-2.9,0-1.682-1.757-3-4-3-1.221,0-2-.592-2-1s.779-1,2-1,2,.592,2,1a1,1,0,0,0,2,0c0-1.421-1.259-2.571-3-2.9V13a1,1,0,0,0-2,0v1.1c-1.741.327-3,1.477-3,2.9,0,1.682,1.757,3,4,3,1.221,0,2,.592,2,1S21.221,22,20,22Z"/><path fill="#1e81ce" d="M61.64,25.23,54,18.91V3a1,1,0,0,0-.61-.92.986.986,0,0,0-1.08.2L48.79,5.62,45.28,2.28a1,1,0,0,0-1.38,0L40.39,5.62,36.88,2.28a1,1,0,0,0-1.38,0L31.99,5.62,28.48,2.28a1,1,0,0,0-1.38,0L23.59,5.62,20.08,2.28a1,1,0,0,0-1.38,0L15.2,5.62,11.69,2.28a.986.986,0,0,0-1.08-.2A1,1,0,0,0,10,3V18.91L2.36,25.23A.992.992,0,0,0,2,26V60a1,1,0,0,0,1,1H61a1,1,0,0,0,1-1V26A.992.992,0,0,0,61.64,25.23ZM54,21.51,59.43,26,54,30.5ZM12,5.33l2.51,2.39a1,1,0,0,0,1.38,0l3.5-3.34L22.9,7.72a1,1,0,0,0,1.38,0l3.51-3.34L31.3,7.72a1,1,0,0,0,1.38,0l3.51-3.34L39.7,7.72a1,1,0,0,0,1.38,0l3.51-3.34,3.52,3.34a.984.984,0,0,0,1.37,0L52,5.33V32.15L40.46,41.7l-6.55-5.42a3.014,3.014,0,0,0-3.82,0L23.54,41.7,12,32.15ZM10,21.51V30.5L4.57,26ZM4,28.13,21.97,43,4,57.87ZM5.78,59,31.36,37.83a1,1,0,0,1,1.28,0L58.22,59ZM60,57.87,42.03,43,60,28.13Z"/><path fill="#1e81ce" d="M27 14H47a1 1 0 0 0 0-2H27a1 1 0 0 0 0 2zM27 18H47a1 1 0 0 0 0-2H27a1 1 0 0 0 0 2zM27 22H47a1 1 0 0 0 0-2H27a1 1 0 0 0 0 2zM27 26H47a1 1 0 0 0 0-2H27a1 1 0 0 0 0 2zM17 30H47a1 1 0 0 0 0-2H17a1 1 0 0 0 0 2zM17 34H47a1 1 0 0 0 0-2H17a1 1 0 0 0 0 2z"/></g></svg>