<svg xmlns="http://www.w3.org/2000/svg" width="32" height="32" id="box"><path style="line-height:normal;text-indent:0;text-align:start;text-decoration-line:none;text-decoration-style:solid;text-decoration-color:#000;text-transform:none;block-progression:tb;white-space:normal;isolation:auto;mix-blend-mode:normal;solid-color:#000;solid-opacity:1" fill-rule="evenodd" d="M16.178 3a.5.5 0 0 0-.006.002.5.5 0 0 0-.01 0 .5.5 0 0 0-.17.043L4.434 7.988a.5.5 0 0 0-.422.5V23.49a.5.5 0 0 0 .043.207.5.5 0 0 0 .002.006.5.5 0 0 0 .013.027.5.5 0 0 0 .256.239l11.567 4.945a.5.5 0 0 0 .341.092.5.5 0 0 0 .246-.08l11.594-4.957a.5.5 0 0 0 .307-.395.5.5 0 0 0 .004-.027.5.5 0 0 0 .002-.024.5.5 0 0 0 0-.025.5.5 0 0 0 0-.008V8.488a.5.5 0 0 0-.414-.498L16.406 3.045a.5.5 0 0 0-.031-.014.5.5 0 0 0-.004-.002.5.5 0 0 0-.045-.011.5.5 0 0 0-.015-.004.5.5 0 0 0-.034-.008.5.5 0 0 0-.015-.002.5.5 0 0 0-.033-.002.5.5 0 0 0-.051-.002zm.021 1.045 2.451 1.047L8.262 9.535a.5.5 0 0 0-.03.014L5.78 8.5 16.2 4.045zm3.723 1.592 2.974 1.271-10.582 4.526a.5.5 0 0 0-.3.51.5.5 0 0 0-.002.058v5.35l-1.084-1.627a.5.5 0 0 0-.639-.17l-1.277.638v-5.89l10.91-4.666zm4.246 1.814L26.621 8.5 16.2 12.955l-2.451-1.047 10.39-4.443a.5.5 0 0 0 .03-.014zM5.012 9.258l3 1.283v6.461a.5.5 0 0 0 .724.447l1.604-.803 1.728 2.592a.5.5 0 0 0 .256.233.5.5 0 0 0 .045.015.5.5 0 0 0 .002.002.5.5 0 0 0 .098.018.5.5 0 0 0 .05.002.5.5 0 0 0 .05-.002.5.5 0 0 0 .05-.01.5.5 0 0 0 .03-.008.5.5 0 0 0 .017-.004.5.5 0 0 0 .346-.54v-6.262l2.687 1.148v13.914l-10.687-4.57V9.258zm22.375.002v13.914l-10.688 4.572V13.83l10.688-4.57zM21.11 20.752a.5.5 0 0 0-.006.002.5.5 0 0 0-.18.043l-2.915 1.246a.5.5 0 0 0 .392.92l2.918-1.246a.5.5 0 0 0-.209-.965zm2.91.75a.5.5 0 0 0-.177.043l-2.918 1.246-2.916 1.248a.5.5 0 0 0 .392.92l2.918-1.248 2.916-1.248a.5.5 0 0 0-.215-.961z" color="#000" enable-background="accumulate" font-family="sans-serif" font-weight="400" overflow="visible"></path></svg>