<svg width="107" height="104" viewBox="0 0 107 104" fill="none" xmlns="http://www.w3.org/2000/svg">
<g filter="url(#filter0_d_13_8181)">
<rect x="6.69897" y="6" width="86.19" height="84" rx="8" fill="white" shape-rendering="crispEdges"/>
<path d="M38.994 62.4H60.594V58.8H38.994V62.4ZM38.994 55.2H60.594V51.6H38.994V55.2ZM38.994 48H60.594V46.38L57.984 44.4H41.604L38.994 46.38V48ZM46.284 40.8H53.304L49.794 38.145L46.284 40.8ZM37.194 66C36.684 66 36.2565 65.8275 35.9115 65.4825C35.5665 65.1375 35.394 64.71 35.394 64.2V49.125L33.594 50.52C33.174 50.82 32.724 50.94 32.244 50.88C31.764 50.82 31.374 50.58 31.074 50.16C30.774 49.74 30.654 49.29 30.714 48.81C30.774 48.33 30.999 47.94 31.389 47.64L35.394 44.58V40.8C35.394 40.29 35.5665 39.8625 35.9115 39.5175C36.2565 39.1725 36.684 39 37.194 39C37.704 39 38.1315 39.1725 38.4765 39.5175C38.8215 39.8625 38.994 40.29 38.994 40.8V41.835L48.714 34.455C48.864 34.335 49.029 34.2375 49.209 34.1625C49.389 34.0875 49.584 34.05 49.794 34.05C50.004 34.05 50.199 34.0875 50.379 34.1625C50.559 34.2375 50.724 34.335 50.874 34.455L68.199 47.64C68.589 47.94 68.814 48.33 68.874 48.81C68.934 49.29 68.814 49.74 68.514 50.16C68.214 50.55 67.824 50.775 67.344 50.835C66.864 50.895 66.429 50.775 66.039 50.475L64.194 49.125V64.2C64.194 64.71 64.0215 65.1375 63.6765 65.4825C63.3315 65.8275 62.904 66 62.394 66H37.194ZM37.734 37.2C37.074 37.2 36.5415 36.9225 36.1365 36.3675C35.7315 35.8125 35.709 35.22 36.069 34.59C36.549 33.75 37.2015 33.075 38.0265 32.565C38.8515 32.055 39.774 31.8 40.794 31.8C41.124 31.8 41.439 31.725 41.739 31.575C42.039 31.425 42.264 31.185 42.414 30.855C42.564 30.585 42.7665 30.375 43.0215 30.225C43.2765 30.075 43.569 30 43.899 30C44.589 30 45.114 30.285 45.474 30.855C45.834 31.425 45.849 32.01 45.519 32.61C45.039 33.45 44.3865 34.125 43.5615 34.635C42.7365 35.145 41.814 35.4 40.794 35.4C40.464 35.4 40.149 35.4825 39.849 35.6475C39.549 35.8125 39.324 36.045 39.174 36.345C39.024 36.645 38.814 36.8625 38.544 36.9975C38.274 37.1325 38.004 37.2 37.734 37.2Z" fill="url(#paint0_linear_13_8181)"/>
<rect x="7.19897" y="6.5" width="85.19" height="83" rx="7.5" stroke="#FFB564" shape-rendering="crispEdges"/>
</g>
<defs>
<filter id="filter0_d_13_8181" x="0.698975" y="0" width="106.19" height="104" filterUnits="userSpaceOnUse" color-interpolation-filters="sRGB">
<feFlood flood-opacity="0" result="BackgroundImageFix"/>
<feColorMatrix in="SourceAlpha" type="matrix" values="0 0 0 0 0 0 0 0 0 0 0 0 0 0 0 0 0 0 127 0" result="hardAlpha"/>
<feOffset dx="4" dy="4"/>
<feGaussianBlur stdDeviation="5"/>
<feComposite in2="hardAlpha" operator="out"/>
<feColorMatrix type="matrix" values="0 0 0 0 1 0 0 0 0 0.435294 0 0 0 0 0.392157 0 0 0 0.33 0"/>
<feBlend mode="normal" in2="BackgroundImageFix" result="effect1_dropShadow_13_8181"/>
<feBlend mode="normal" in="SourceGraphic" in2="effect1_dropShadow_13_8181" result="shape"/>
</filter>
<linearGradient id="paint0_linear_13_8181" x1="49.794" y1="30" x2="49.794" y2="66" gradientUnits="userSpaceOnUse">
<stop stop-color="#FFB763"/>
<stop offset="1" stop-color="#FF6C63"/>
</linearGradient>
</defs>
</svg>
