<svg width="19" height="19" viewBox="0 0 19 19" fill="none" xmlns="http://www.w3.org/2000/svg">
<path d="M16.2083 0.875H2.79167C1.7375 0.875 0.875 1.7375 0.875 2.79167V16.2083C0.875 17.2625 1.7375 18.125 2.79167 18.125H16.2083C17.2625 18.125 18.125 17.2625 18.125 16.2083V2.79167C18.125 1.7375 17.2625 0.875 16.2083 0.875ZM10.4871 4.76583L11.5029 3.75L12.8542 5.10125L14.2054 3.75L15.2212 4.76583L13.87 6.11708L15.2212 7.46833L14.2054 8.48417L12.8542 7.1425L11.5029 8.49375L10.4871 7.47792L11.8383 6.12667L10.4871 4.76583ZM3.98958 5.39833H8.78125V6.83583H3.98958V5.39833ZM9.02083 13.3333H7.10417V15.25H5.66667V13.3333H3.75V11.8958H5.66667V9.97917H7.10417V11.8958H9.02083V13.3333ZM15.25 14.5312H10.4583V13.0937H15.25V14.5312ZM15.25 12.1354H10.4583V10.6979H15.25V12.1354Z" fill="white"/>
</svg>
