<svg xmlns="http://www.w3.org/2000/svg" data-name="Layer 1" viewBox="0 0 168 168" id="investor"><path fill="#0bceb2" d="M74,36.38442H94a2,2,0,0,0,0-4H74a2,2,0,0,0,0,4Z"></path><path fill="#2d4356" d="M74,44.38442H94a2,2,0,0,0,0-4H74a2,2,0,0,0,0,4Z"></path><path fill="#0bceb2" d="M74,52.38442H94a2,2,0,0,0,0-4H74a2,2,0,0,0,0,4Z"></path><path fill="#2d4356" d="M74,60.38442H94a2,2,0,0,0,0-4H74a2,2,0,0,0,0,4Z"></path><path fill="#0bceb2" d="M74 68.38442H94a2 2 0 0 0 0-4H74a2 2 0 0 0 0 4zM43 78.38442a2 2 0 0 0-4 0v4a2 2 0 0 0 4 0z"></path><path fill="#2d4356" d="M51,78.38442a2,2,0,0,0-4,0v4a2,2,0,0,0,4,0Z"></path><path fill="#0bceb2" d="M57,84.38442a2.0001,2.0001,0,0,0,2-2v-4a2,2,0,1,0-4,0v4A2.00008,2.00008,0,0,0,57,84.38442Z"></path><path fill="#2d4356" d="M43,90.38442a2,2,0,1,0-4,0v4a2,2,0,0,0,4,0Z"></path><path fill="#0bceb2" d="M51,90.38442a2,2,0,1,0-4,0v4a2,2,0,0,0,4,0Z"></path><path fill="#2d4356" d="M55,94.38442a2,2,0,0,0,4,0v-4a2,2,0,1,0-4,0Z"></path><path fill="#0bceb2" d="M43,102.38442a2,2,0,0,0-4,0v4a2,2,0,0,0,4,0Z"></path><path fill="#2d4356" d="M51 102.38442a2 2 0 0 0-4 0v4a2 2 0 0 0 4 0zM43 114.38442a2 2 0 0 0-4 0v4a2 2 0 0 0 4 0z"></path><path fill="#0bceb2" d="M51 114.38442a2 2 0 0 0-4 0v4a2 2 0 0 0 4 0zM43 126.38442a2 2 0 0 0-4 0v4a2 2 0 0 0 4 0z"></path><path fill="#2d4356" d="M51 126.38442a2 2 0 0 0-4 0v4a2 2 0 0 0 4 0zM41 136.38442a2.00008 2.00008 0 0 0-2 2v4a2 2 0 0 0 4 0v-4A2.0001 2.0001 0 0 0 41 136.38442z"></path><path fill="#0bceb2" d="M49 136.38442a2.00008 2.00008 0 0 0-2 2v4a2 2 0 0 0 4 0v-4A2.0001 2.0001 0 0 0 49 136.38442zM111 72.38442a2.0001 2.0001 0 0 0 2-2v-4a2 2 0 1 0-4 0v4A2.00008 2.00008 0 0 0 111 72.38442z"></path><path fill="#2d4356" d="M119,72.38442a2.0001,2.0001,0,0,0,2-2v-4a2,2,0,1,0-4,0v4A2.00008,2.00008,0,0,0,119,72.38442Z"></path><path fill="#0bceb2" d="M127,72.38442a2.0001,2.0001,0,0,0,2-2v-4a2,2,0,1,0-4,0v4A2.00008,2.00008,0,0,0,127,72.38442Z"></path><path fill="#2d4356" d="M109,82.38442a2,2,0,0,0,4,0v-4a2,2,0,1,0-4,0Z"></path><path fill="#0bceb2" d="M117,82.38442a2,2,0,0,0,4,0v-4a2,2,0,1,0-4,0Z"></path><path fill="#2d4356" d="M125,82.38442a2,2,0,0,0,4,0v-4a2,2,0,1,0-4,0Z"></path><path fill="#0bceb2" d="M109,94.38442a2,2,0,0,0,4,0v-4a2,2,0,1,0-4,0Z"></path><path fill="#2d4356" d="M117,94.38442a2,2,0,0,0,4,0v-4a2,2,0,1,0-4,0Z"></path><path fill="#0bceb2" d="M125 94.38442a2 2 0 0 0 4 0v-4a2 2 0 1 0-4 0zM117 106.38442a2 2 0 0 0 4 0v-4a2 2 0 0 0-4 0z"></path><path fill="#2d4356" d="M125 106.38442a2 2 0 0 0 4 0v-4a2 2 0 0 0-4 0zM117 118.38442a2 2 0 0 0 4 0v-4a2 2 0 0 0-4 0z"></path><path fill="#0bceb2" d="M125 118.38442a2 2 0 0 0 4 0v-4a2 2 0 0 0-4 0zM117 130.38442a2 2 0 0 0 4 0v-4a2 2 0 0 0-4 0z"></path><path fill="#2d4356" d="M125 130.38442a2 2 0 0 0 4 0v-4a2 2 0 0 0-4 0zM117 142.38442a2 2 0 0 0 4 0v-4a2 2 0 0 0-4 0z"></path><path fill="#0bceb2" d="M125 142.38442a2 2 0 0 0 4 0v-4a2 2 0 0 0-4 0zM84.001 78.38442A14 14 0 1 0 98 92.38492 14.017 14.017 0 0 0 84.001 78.38442zm0 24A10 10 0 1 1 94 92.38492 10.01151 10.01151 0 0 1 84.001 102.38442zM91.55179 123.08462c-.7989-.9697-1.55079-1.8911-2.126-2.707l1.78221-6.3521a1.99985 1.99985 0 0 0-2.68551-2.3906l-1.9336.7949-.5918-1.0366a2.0021 2.0021 0 0 0-1.7373-1.0088h-.5176a2.00186 2.00186 0 0 0-1.7373 1.0088l-.5918 1.0371-1.9356-.7954A2.00023 2.00023 0 0 0 76.792 114.025l1.791 6.3872c-.57811.791-1.38281 1.7403-2.17771 2.6719-.7246.8496-1.4737 1.728-2.1084 2.5552-3.2256 4.2168-6.6787 9.8774-4.7373 16.2749A15.3251 15.3251 0 0 0 81.584 152.21062a16.58164 16.58164 0 0 0 2.38959.1733c.001 0 2.1221-.1094 2.6875-.2104a15.35912 15.35912 0 0 0 11.8203-10.2583c1.9034-6.2769-1.7451-12.168-5.1367-16.6001C92.77729 124.57482 92.15919 123.82342 91.55179 123.08462zm-7.55079-7.1191a1.99983 1.99983 0 0 0 2.25189.9111l-.5605 1.9995h-3.3858l-.5615-2.0005A1.99834 1.99834 0 0 0 84.001 115.96552zM94.65329 140.754a11.26852 11.26852 0 0 1-8.7002 7.4829c-.2666.0474-1.9795.147-1.9795.147a13.085 13.085 0 0 1-1.72559-.1182 11.24719 11.24719 0 0 1-8.86031-7.5117c-1.1182-3.6845.1045-7.478 4.084-12.6821.57031-.7422 1.2861-1.5811 1.9775-2.3926.8389-.9844 1.6446-1.9292 2.292-2.8032h4.5479c.6328.8779 1.3877 1.7949 2.1738 2.7505.57911.7031 1.168 1.4175 1.707 2.1206C92.97949 131.41962 96.02929 136.21692 94.65329 140.754z"></path><path fill="#2d4356" d="M65 64.84582V30.38442a2.00233 2.00233 0 0 1 2-2h34a2.00234 2.00234 0 0 1 2 2v22.4614a9.95757 9.95757 0 0 1 3-.4614h1v-22a6.00656 6.00656 0 0 0-6-6H67a6.00654 6.00654 0 0 0-6 6v34h1A9.95782 9.95782 0 0 1 65 64.84582zM109 105.96692a19.93266 19.93266 0 0 1 2.08979 2.4087A1.99593 1.99593 0 0 0 113 106.38442v-4a2 2 0 0 0-4 0z"></path><path fill="#0bceb2" d="M55,106.38442a1.99591,1.99591,0,0,0,1.91019,1.9912A19.93061,19.93061,0,0,1,59,105.96692v-3.5825a2,2,0,0,0-4,0Z"></path><path fill="#2d4356" d="M74 76.38442h1.792a17.84487 17.84487 0 0 1 16.417 0H94a2 2 0 0 0 0-4H74a2 2 0 0 0 0 4zM72.63569 108.38442h2.9424c.0342-.0215.0684-.0425.1035-.063a18.10361 18.10361 0 0 1-4.9433-3.8086A15.75488 15.75488 0 0 0 57 120.18032v22.2041a2.00008 2.00008 0 0 0 2 2h7.19139c-.1699-.4307-.3252-.8672-.46-1.311a17.01135 17.01135 0 0 1-.5751-2.689H61v-20.2041A11.72977 11.72977 0 0 1 72.63569 108.38442zM97.26169 104.51282a18.06528 18.06528 0 0 1-4.9433 3.8086c.0351.0205.0693.042.1045.063h2.9414A11.72979 11.72979 0 0 1 107 120.18032v20.2041h-4.12991a16.07645 16.07645 0 0 1-.5605 2.6914c-.1348.4439-.2891.8794-.458 1.3086H109a2.0001 2.0001 0 0 0 2-2v-22.2041A15.75489 15.75489 0 0 0 97.26169 104.51282z"></path><path fill="#0bceb2" d="M84.50879,133.49772h-1.0254c-.1572,0-.48339,0-.48339-.5117,0-.4605.26759-.4605.48339-.4605h2.8789a1.995,1.995,0,0,0,.2529-3.9746v-.6665a2,2,0,1,0-4,0v.7251a4.2994,4.2994,0,0,0-2.48919,1.3491A4.51862,4.51862,0,0,0,79,132.986a4.39877,4.39877,0,0,0,4.48339,4.5117h1.0254c.2187,0,.49121,0,.49121.458,0,.521-.332.521-.49121.521h-2.876a2,2,0,0,0,0,4h.9824v.4077a2,2,0,1,0,4,0v-.9219a4.2227,4.2227,0,0,0,1.2569-.9536A4.60388,4.60388,0,0,0,89,137.95572,4.37645,4.37645,0,0,0,84.50879,133.49772Z"></path><path fill="#2d4356" d="M121.05471 35.38442a3 3 0 1 0-3-3A3.00344 3.00344 0 0 0 121.05471 35.38442zm0-4.5a1.5 1.5 0 1 1-1.5 1.5A1.50148 1.50148 0 0 1 121.05471 30.88442zM155.80471 47.63442a2 2 0 1 0 2 2A2.00229 2.00229 0 0 0 155.80471 47.63442zm0 3a1 1 0 1 1 1-1A1.001 1.001 0 0 1 155.80471 50.63442zM39.254 42.85722a2 2 0 1 0 2 2A2.00229 2.00229 0 0 0 39.254 42.85722zm0 3a1 1 0 1 1 1-1A1.001 1.001 0 0 1 39.254 45.85722zM131.30471 3.13442a2 2 0 1 0 2 2A2.00229 2.00229 0 0 0 131.30471 3.13442zm0 3a1 1 0 1 1 1-1A1.001 1.001 0 0 1 131.30471 6.13442zM14.55867 13.35722a2 2 0 1 0-2 2A2.00229 2.00229 0 0 0 14.55867 13.35722zm-3 0a1 1 0 1 1 1 1A1.001 1.001 0 0 1 11.55867 13.35722z"></path><polygon fill="#0bceb2" points="8.142 54.368 9.629 52.413 8.69 51.881 7.735 54.071 7.704 54.071 6.734 51.896 5.779 52.444 7.25 54.353 7.25 54.384 4.949 54.087 4.949 55.151 7.265 54.854 7.265 54.885 5.779 56.794 6.67 57.357 7.688 55.151 7.719 55.151 8.658 57.341 9.644 56.778 8.142 54.9 8.142 54.869 10.504 55.151 10.504 54.087 8.142 54.4 8.142 54.368"></polygon><polygon fill="#0bceb2" points="47.834 18.344 46.978 19.443 47.491 19.768 48.077 18.497 48.095 18.497 48.636 19.759 49.204 19.434 48.339 18.353 48.339 18.335 49.699 18.497 49.699 17.884 48.339 18.065 48.339 18.047 49.195 16.92 48.654 16.614 48.104 17.875 48.086 17.875 47.528 16.623 46.978 16.938 47.825 18.038 47.825 18.056 46.5 17.884 46.5 18.497 47.834 18.326 47.834 18.344"></polygon><polygon fill="#0bceb2" points="163.805 19.098 163.805 18.054 161.488 18.361 161.488 18.331 162.946 16.412 162.025 15.891 161.089 18.039 161.058 18.039 160.107 15.906 159.17 16.443 160.613 18.316 160.613 18.346 158.356 18.054 158.356 19.098 160.628 18.807 160.628 18.837 159.17 20.709 160.045 21.262 161.043 19.098 161.073 19.098 161.994 21.247 162.961 20.694 161.488 18.852 161.488 18.822 163.805 19.098"></polygon><polygon fill="#0bceb2" points="71.748 3.72 73.006 2.066 72.211 1.616 71.404 3.469 71.377 3.469 70.557 1.629 69.748 2.092 70.993 3.707 70.993 3.734 69.047 3.482 69.047 4.382 71.006 4.131 71.006 4.157 69.748 5.772 70.503 6.249 71.364 4.382 71.39 4.382 72.185 6.236 73.019 5.759 71.748 4.17 71.748 4.144 73.746 4.382 73.746 3.482 71.748 3.747 71.748 3.72"></polygon><circle cx="2" cy="150.384" r="2" fill="#2d4356"></circle><path fill="#2d4356" d="M11 148.38442H8a2 2 0 0 0 0 4h3a2 2 0 0 0 0-4zM160 148.38442h-3a2 2 0 0 0 0 4h3a2 2 0 0 0 0-4z"></path><circle cx="166" cy="150.384" r="2" fill="#2d4356"></circle><path fill="#0bceb2" d="M118.15387 156.38442h-8.30774a2.00641 2.00641 0 0 0 0 4h8.30774a2.00641 2.00641 0 0 0 0-4zM58.15387 156.38442H49.84613a2.00641 2.00641 0 0 0 0 4h8.30774a2.00641 2.00641 0 0 0 0-4zM104 156.38442H64a2 2 0 0 0 0 4H79.94v2H72a2 2 0 0 0 0 4H97a2 2 0 0 0 0-4H88.06v-2H104a2 2 0 0 0 0-4z"></path><path fill="#2d4356" d="M150.72131,148.38442H138v-86a6.00656,6.00656,0,0,0-6-6H106a6.00656,6.00656,0,0,0-6,6v21.7915a17.84585,17.84585,0,0,1,0,16.41748v.37158a19.37072,19.37072,0,0,1,4,1.46381V62.38442a2.00229,2.00229,0,0,1,2-2h26a2.00233,2.00233,0,0,1,2,2v86H34v-74a2.00229,2.00229,0,0,1,2-2H62a2.00233,2.00233,0,0,1,2,2v28.04437a19.36814,19.36814,0,0,1,4-1.46381v-.37207a17.84385,17.84385,0,0,1,0-16.4165v-9.792a6.00656,6.00656,0,0,0-6-6H36a6.00656,6.00656,0,0,0-6,6v74H17.27869a2.017,2.017,0,1,0,0,4H150.72131a2.017,2.017,0,1,0,0-4Z"></path></svg>