<svg width="939" height="723" viewBox="0 0 939 723" fill="none" xmlns="http://www.w3.org/2000/svg">
<rect width="939" height="723" fill="white"/>
<path d="M235.312 206.246L140.345 217.432L150.951 307.487L245.919 296.302L235.312 206.246Z" fill="#2F2E41"/>
<path d="M186.773 258.158C212.523 258.158 233.397 237.284 233.397 211.534C233.397 185.784 212.523 164.91 186.773 164.91C161.024 164.91 140.149 185.784 140.149 211.534C140.149 237.284 161.024 258.158 186.773 258.158Z" fill="#FFB6B6"/>
<path d="M156.034 139.22C126.979 147.286 129.685 158.117 120.882 164.942C105.371 176.965 102.205 206.783 113.279 224.91C116.238 229.753 122.028 236.153 120.506 243.979C119.337 249.987 114.405 254.031 113.476 254.768C105.873 260.796 110.519 254.143 107.312 258.814C103.772 263.97 110.886 269.827 107.989 278.655C105.42 286.482 98.2493 286.691 97.8772 291.467C97.2363 299.69 117.359 313.701 136.599 310.147C153.73 306.982 164.836 290.876 167.512 276.625C169.305 267.078 168.68 251.094 160.381 244.263C159.217 243.305 156.074 241.023 152.867 236.848C150.329 233.543 146.988 229.194 148.242 225.772C149.579 222.126 154.73 223.356 157.488 219.703C161.228 214.749 155.276 207.824 155.174 200.054C155.002 186.897 171.576 169.095 191.385 169.228C213.856 169.378 224.816 192.504 225.966 195.036C228.35 200.286 228.937 205.567 230.111 216.129C231.795 231.287 232.85 240.787 229.248 251.093C224.068 265.914 215.186 265.425 213.937 276.137C211.991 292.838 232.07 307.017 234.361 308.593C251.347 320.277 275.08 321.596 278.282 315.041C281.168 309.133 264.653 302.418 263.157 285.281C261.859 270.43 273.304 264.508 269.51 254.651C265.333 243.801 250.377 248.149 242.442 236.258C235.035 225.158 245.35 217.301 240.703 193.301C239.719 188.224 236.38 173.714 225.191 160.266C220.262 154.342 215.249 148.316 206.889 145.821C197.53 143.027 171.403 134.954 156.034 139.22Z" fill="#2F2E41"/>
<path d="M141.207 182.468C143.602 192.466 159.413 195.642 166.058 196.142C168.873 196.354 178.384 197.07 187.151 191.998C190.392 190.123 191.479 188.644 194.952 187.759C199.655 186.56 202.277 188.094 210.074 189.298C218.745 190.637 223.081 191.306 225.003 189.199C228.147 185.755 224.29 176.154 219.415 169.937C210.4 158.44 196.119 156.234 189.458 155.204C181.848 154.028 166.405 151.642 153.629 161.084C151.921 162.347 138.773 172.311 141.207 182.468Z" fill="#2F2E41"/>
<path d="M241.348 705.021C218.228 710.629 194.075 713.594 169.233 713.594C142.327 713.594 116.219 710.118 91.3669 703.566C88.6573 693.539 85.5813 682.434 82.0945 670.152C50.8123 559.871 114.187 481.682 114.187 481.682L129.823 469.345L270.564 488.267C286.944 568.122 276.283 627.377 241.348 705.021Z" fill="#2F2E41"/>
<path d="M218.422 270.995L152.581 264.411L104.847 305.562L119.661 453.704L113.077 481.686L269.449 488.27L261.219 448.766L272.741 303.916L218.422 270.995Z" fill="#6C63FF"/>
<path d="M239.82 348.358H134.475V512.961H239.82V348.358Z" fill="white"/>
<path d="M224.788 370.013H195.353C194.557 370.013 193.909 369.365 193.909 368.569C193.909 367.773 194.557 367.125 195.353 367.125H224.788C225.584 367.125 226.232 367.773 226.232 368.569C226.232 369.365 225.584 370.013 224.788 370.013Z" fill="#6C63FF"/>
<path d="M224.788 381.118H195.353C194.557 381.118 193.909 380.47 193.909 379.674C193.909 378.878 194.557 378.23 195.353 378.23H224.788C225.584 378.23 226.232 378.878 226.232 379.674C226.232 380.47 225.584 381.118 224.788 381.118Z" fill="#6C63FF"/>
<path d="M224.788 392.223H195.353C194.557 392.223 193.909 391.575 193.909 390.779C193.909 389.983 194.557 389.335 195.353 389.335H224.788C225.584 389.335 226.232 389.983 226.232 390.779C226.232 391.575 225.584 392.223 224.788 392.223Z" fill="#6C63FF"/>
<path d="M223.467 431.089H151.891C149.955 431.089 148.38 429.514 148.38 427.578C148.38 425.642 149.955 424.067 151.891 424.067H223.467C225.403 424.067 226.978 425.642 226.978 427.578C226.978 429.514 225.403 431.089 223.467 431.089Z" fill="#E6E6E6"/>
<path d="M183.201 495.02C197.443 499.484 211.289 495.754 214.129 486.69C216.968 477.626 207.724 466.663 193.477 462.2C187.811 460.339 181.781 459.862 175.892 460.809L115.311 442.659L76.8643 470.164L167.962 486.124C172.258 490.264 177.484 493.315 183.201 495.02Z" fill="#FFB6B6"/>
<path d="M111.051 302.27C111.051 302.27 88.9792 314.882 82.6729 341.684L57.4478 448.891C57.4478 448.891 52.7181 464.656 74.0018 472.539C95.2855 480.422 121.299 446.526 121.299 446.526L109.419 434.646L132.335 334.589L111.051 302.27Z" fill="#6C63FF"/>
<path d="M166.781 479.175C151.976 481.058 139.003 474.944 137.807 465.522C136.61 456.1 147.641 446.938 162.452 445.057C168.358 444.224 174.378 444.818 180.007 446.788L242.839 439.604L275.834 473.456L183.35 473.105C178.391 476.423 172.709 478.504 166.781 479.175Z" fill="#FFB6B6"/>
<path d="M271.784 302.164C271.784 302.164 291.287 318.471 292.769 345.964L298.698 455.939C298.698 455.939 300.574 472.292 278.233 476.298C255.893 480.305 236.264 442.354 236.264 442.354L250.052 432.754L245.136 330.225L271.784 302.164Z" fill="#6C63FF"/>
<path d="M183.856 359.881H145.997V405.969H183.856V359.881Z" fill="#6C63FF"/>
<path d="M156.104 394.282L153.503 405.672L153.437 405.969H146.03C146.919 402.216 148.022 397.574 148.532 395.352C149.174 392.652 150.853 390.908 151.923 390.035C152.466 389.558 152.861 389.344 152.861 389.344L156.104 394.282Z" fill="#E6E6E6"/>
<path d="M181.107 405.969H173.897L173.305 393.608L177.255 389.443L177.37 389.328C177.37 389.328 180.35 391.814 180.564 396.011C180.679 398.101 180.909 402.299 181.107 405.969Z" fill="#E6E6E6"/>
<path d="M171.759 374.697L158.882 376.214L160.32 388.425L173.197 386.908L171.759 374.697Z" fill="#2F2E41"/>
<path d="M165.177 381.737C168.669 381.737 171.499 378.906 171.499 375.415C171.499 371.923 168.669 369.093 165.177 369.093C161.686 369.093 158.855 371.923 158.855 375.415C158.855 378.906 161.686 381.737 165.177 381.737Z" fill="#FFB6B6"/>
<path d="M161.009 365.609C157.069 366.703 157.436 368.171 156.242 369.097C154.139 370.727 153.71 374.77 155.212 377.228C155.613 377.885 156.398 378.752 156.191 379.814C156.033 380.628 155.364 381.177 155.238 381.277C154.207 382.094 154.837 381.192 154.402 381.825C153.922 382.524 154.887 383.318 154.494 384.516C154.146 385.577 153.174 385.605 153.123 386.253C153.036 387.368 155.765 389.268 158.374 388.786C160.697 388.357 162.202 386.173 162.565 384.24C162.808 382.946 162.724 380.778 161.598 379.852C161.44 379.722 161.014 379.413 160.579 378.847C160.235 378.399 159.782 377.809 159.952 377.345C160.134 376.851 160.832 377.017 161.206 376.522C161.713 375.85 160.906 374.911 160.892 373.858C160.869 372.074 163.116 369.66 165.802 369.678C168.849 369.698 170.335 372.834 170.491 373.177C170.815 373.889 170.894 374.605 171.053 376.037C171.282 378.093 171.425 379.381 170.936 380.778C170.234 382.788 169.03 382.722 168.86 384.174C168.596 386.439 171.319 388.361 171.63 388.575C173.933 390.159 177.151 390.338 177.585 389.449C177.976 388.648 175.737 387.738 175.534 385.414C175.358 383.4 176.91 382.597 176.396 381.261C175.829 379.789 173.801 380.379 172.725 378.767C171.721 377.262 173.12 376.196 172.49 372.942C172.356 372.253 171.903 370.286 170.386 368.463C169.718 367.659 169.038 366.842 167.905 366.504C166.636 366.125 163.093 365.03 161.009 365.609Z" fill="#2F2E41"/>
<path d="M158.999 371.473C159.323 372.829 161.467 373.259 162.368 373.327C162.75 373.356 164.04 373.453 165.228 372.765C165.668 372.511 165.815 372.311 166.286 372.19C166.924 372.028 167.279 372.236 168.337 372.399C169.512 372.581 170.1 372.671 170.361 372.386C170.787 371.919 170.264 370.617 169.603 369.774C168.381 368.215 166.444 367.916 165.541 367.776C164.509 367.617 162.415 367.293 160.683 368.574C160.451 368.745 158.669 370.096 158.999 371.473Z" fill="#2F2E41"/>
<path d="M177.518 389.607L176.218 405.969H153.519L153.503 405.673L151.923 390.035L151.906 389.854L156.713 385.723L158.194 384.439L159.198 383.583L161.782 383.846L169.222 384.587H169.239L171.741 386.101L175.477 388.373L177.255 389.443L177.518 389.607Z" fill="#E6E6E6"/>
<path d="M355.606 402.581C357.458 405.667 359.967 408.31 362.954 410.324C365.942 412.339 369.336 413.675 372.897 414.24C376.459 414.804 380.101 414.583 383.568 413.592C387.034 412.6 390.24 410.863 392.961 408.502L469 452L466.166 406.655L394.392 372.3C390.113 368.005 384.402 365.424 378.343 365.048C372.283 364.671 366.295 366.525 361.514 370.258C356.733 373.99 353.491 379.342 352.402 385.299C351.313 391.257 352.453 397.406 355.606 402.581Z" fill="#FFB8B8"/>
<path d="M575.22 577.192C552.741 608.676 553.545 661.35 559.816 719H666.098L670.719 708.21L676.88 719H777C777 719 769.298 572.568 755.436 567.944C741.573 563.32 575.22 577.192 575.22 577.192Z" fill="#2F2E41"/>
<path d="M666 248C695.823 248 720 223.823 720 194C720 164.177 695.823 140 666 140C636.177 140 612 164.177 612 194C612 223.823 636.177 248 666 248Z" fill="#FFB8B8"/>
<path d="M705.453 262L716.006 282.224L789 314.759L769.813 500.415L761.737 519.64L766.1 536.336L755.581 548.658C766.14 558.211 767.482 568.211 761.737 578.555L728.124 586.254C728.124 586.254 541.223 602.871 556.975 573.92C574.185 542.288 578.568 448.868 540.574 398.946C508.318 356.564 533.082 301.569 533.082 301.569L609.594 278.707L637.736 262L705.453 262Z" fill="#3F3D56"/>
<path d="M690.079 115.046C690.332 114.51 690.74 114.063 691.25 113.76C691.76 113.458 692.348 113.315 692.94 113.349C668.253 111.873 642.25 114.749 621.597 128.344C616.593 131.638 611.876 135.567 606.431 137.956C606.174 138.072 605.951 138.252 605.784 138.478C605.618 138.705 605.512 138.971 605.479 139.251C605.445 139.53 605.484 139.814 605.593 140.074C605.701 140.334 605.875 140.561 606.097 140.734L606.695 141.203C606.931 141.388 607.112 141.634 607.218 141.914C607.324 142.194 607.351 142.498 607.295 142.793C607.24 143.087 607.106 143.361 606.906 143.585C606.706 143.808 606.449 143.972 606.162 144.06C605.863 144.151 605.596 144.325 605.393 144.563C605.19 144.8 605.059 145.091 605.016 145.4C604.973 145.71 605.019 146.025 605.149 146.309C605.279 146.593 605.487 146.834 605.75 147.004L610.333 149.964C610.563 150.11 610.754 150.312 610.886 150.551C611.018 150.79 611.089 151.059 611.09 151.332C611.092 151.605 611.024 151.875 610.895 152.115C610.765 152.356 610.577 152.56 610.348 152.709C609.959 152.948 609.552 153.155 609.129 153.326C608.866 153.425 608.633 153.59 608.452 153.805C608.271 154.02 608.149 154.278 608.097 154.554C608.044 154.83 608.064 155.114 608.154 155.381C608.244 155.647 608.401 155.885 608.61 156.073C610.595 157.838 612.117 160.062 613.045 162.551C614.572 166.52 614.846 170.843 615.105 175.088C616.683 168.963 623.372 165.358 629.69 164.991C636.008 164.625 642.17 166.708 648.319 168.206C661.711 171.458 675.62 171.993 689.223 169.778C684.603 179.042 688.5 190.092 692.421 199.672L705.113 194.235C722.543 184.402 710.402 225.997 703.885 231.708C717.191 236.318 752.016 185.152 740.813 165.743C734.985 155.647 739.122 142.626 727.664 133.05C722.049 127.142 710.837 129.768 705.113 124.858C702.859 122.926 706.294 117.756 703.197 116.629C702.169 116.255 690.249 114.669 690.079 115.046Z" fill="#2F2E41"/>
<path d="M599 284C589.065 328.065 563.585 430.95 537.734 452.467C536.095 454.013 534.129 455.173 531.982 455.86C441.115 477.976 412 421.562 412 421.562C412 421.562 436.351 409.706 436.969 386.533L486.077 401.756L528.885 305.508L535.184 299.637L535.22 299.602L599 284Z" fill="#3F3D56"/>
<path d="M792.126 690.003C794.727 687.516 796.748 684.493 798.047 681.145C799.346 677.798 799.892 674.208 799.645 670.629C799.397 667.049 798.364 663.567 796.617 660.428C794.871 657.288 792.453 654.568 789.534 652.458L815 569L771.306 581.89L753.822 659.167C750.583 664.277 749.341 670.392 750.333 676.351C751.324 682.311 754.479 687.702 759.201 691.503C763.922 695.304 769.882 697.251 775.95 696.974C782.019 696.698 787.774 694.217 792.126 690.003Z" fill="#FFB8B8"/>
<path d="M768.371 310L788.554 314.691C788.554 314.691 871.976 476.879 851.874 507.783C831.771 538.686 807.144 641 807.144 641C807.144 641 770.72 633.764 756.802 615.222L782.288 493.876L756 391.895L768.371 310Z" fill="#3F3D56"/>
<path d="M395 554.995L395.524 351.493C395.539 347.374 397.069 343.429 399.78 340.525C402.49 337.621 406.16 335.993 409.982 336L552.621 336.426C556.444 336.442 560.105 338.091 562.8 341.012C565.496 343.933 567.006 347.886 567 352.005L566.476 555.507C566.461 559.626 564.931 563.571 562.22 566.475C559.51 569.379 555.841 571.007 552.018 571L409.379 570.574C405.556 570.558 401.895 568.909 399.2 565.988C396.504 563.067 394.994 559.114 395 554.995Z" fill="#E6E6E6"/>
<path d="M406 493.646L406.337 362.54C406.351 358.674 407.785 354.973 410.325 352.247C412.864 349.521 416.302 347.994 419.884 348L542.527 348.367C546.109 348.382 549.539 349.93 552.065 352.671C554.591 355.412 556.006 359.122 556 362.988L555.534 544.46C555.52 548.326 554.085 552.028 551.546 554.753C549.006 557.479 545.568 559.006 541.986 559L466.011 558.773C450.057 558.706 434.778 551.811 423.528 539.602C412.278 527.392 405.974 510.865 406 493.646Z" fill="white"/>
<path d="M532.268 460H436.732C435.212 460 433.754 459.368 432.679 458.243C431.604 457.117 431 455.591 431 454C431 452.409 431.604 450.883 432.679 449.757C433.754 448.632 435.212 448 436.732 448H532.268C533.788 448 535.246 448.632 536.321 449.757C537.396 450.883 538 452.409 538 454C538 455.591 537.396 457.117 536.321 458.243C535.246 459.368 533.788 460 532.268 460Z" fill="#6C63FF"/>
<path d="M457.353 431H436.647C435.149 431 433.713 430.368 432.654 429.243C431.595 428.117 431 426.591 431 425C431 423.409 431.595 421.883 432.654 420.757C433.713 419.632 435.149 419 436.647 419H457.353C458.851 419 460.287 419.632 461.346 420.757C462.405 421.883 463 423.409 463 425C463 426.591 462.405 428.117 461.346 429.243C460.287 430.368 458.851 431 457.353 431Z" fill="#6C63FF"/>
<path d="M532.268 488H436.732C435.212 488 433.754 487.368 432.679 486.243C431.604 485.117 431 483.591 431 482C431 480.409 431.604 478.883 432.679 477.757C433.754 476.632 435.212 476 436.732 476H532.268C533.788 476 535.246 476.632 536.321 477.757C537.396 478.883 538 480.409 538 482C538 483.591 537.396 485.117 536.321 486.243C535.246 487.368 533.788 488 532.268 488Z" fill="#6C63FF"/>
<path d="M532.268 517H436.732C435.212 517 433.754 516.368 432.679 515.243C431.604 514.117 431 512.591 431 511C431 509.409 431.604 507.883 432.679 506.757C433.754 505.632 435.212 505 436.732 505H532.268C533.788 505 535.246 505.632 536.321 506.757C537.396 507.883 538 509.409 538 511C538 512.591 537.396 514.117 536.321 515.243C535.246 516.368 533.788 517 532.268 517Z" fill="#6C63FF"/>
<path d="M457.353 405H436.647C435.149 405 433.713 404.368 432.654 403.243C431.595 402.117 431 400.591 431 399C431 397.409 431.595 395.883 432.654 394.757C433.713 393.632 435.149 393 436.647 393H457.353C458.851 393 460.287 393.632 461.346 394.757C462.405 395.883 463 397.409 463 399C463 400.591 462.405 402.117 461.346 403.243C460.287 404.368 458.851 405 457.353 405Z" fill="#6C63FF"/>
<path d="M457.353 380H436.647C435.149 380 433.713 379.315 432.654 378.096C431.595 376.877 431 375.224 431 373.5C431 371.776 431.595 370.123 432.654 368.904C433.713 367.685 435.149 367 436.647 367H457.353C458.851 367 460.287 367.685 461.346 368.904C462.405 370.123 463 371.776 463 373.5C463 375.224 462.405 376.877 461.346 378.096C460.287 379.315 458.851 380 457.353 380Z" fill="#6C63FF"/>
<g clip-path="url(#clip0_318_4993)">
<path d="M516.572 409.39C522.309 409.39 526.96 404.448 526.96 398.353C526.96 392.257 522.309 387.315 516.572 387.315C510.835 387.315 506.185 392.257 506.185 398.353C506.185 404.448 510.835 409.39 516.572 409.39Z" fill="#FFB6B6"/>
<path d="M510.61 411.021L510.14 405.981L519.512 404.119L525.046 418.435L515.422 430.194L508.564 415.879L510.61 411.021Z" fill="#FFB6B6"/>
<path d="M509.989 408.505L512.038 408.997C512.038 408.997 510.427 403.57 510.974 403.052C511.521 402.534 512.86 403.35 512.86 403.35L514.268 405.027L515.983 403.172C515.983 403.172 517.845 400.713 518.573 400.022C519.302 399.331 518.132 396.767 518.132 396.767C518.132 396.767 528.946 393.669 524.922 388.096C524.922 388.096 522.562 383.726 521.794 385.15C521.026 386.573 520.11 384.313 520.11 384.313L517.312 384.878C517.312 384.878 511.791 381.419 506.551 388.818C501.311 396.218 509.989 408.505 509.989 408.505Z" fill="#2F2E41"/>
<path d="M536.11 425.453C530.433 430.343 523.41 433 516 433C509.235 433 502.79 430.784 497.399 426.676C497.409 426.568 497.419 426.462 497.427 426.356C497.57 424.695 497.698 423.079 497.782 421.739C498.108 416.538 509.528 413.072 509.528 413.072C509.528 413.072 509.58 413.127 509.683 413.223C510.314 413.811 512.872 415.943 517.36 416.538C521.361 417.07 522.678 414.548 523.076 413.34C523.197 412.972 523.233 412.726 523.233 412.726L534.979 418.619C535.745 419.783 536.045 422.288 536.104 425.104C536.106 425.22 536.109 425.335 536.11 425.453Z" fill="#6C63FF"/>
<path d="M547 399C547 417.283 533.065 432 516 432C498.935 432 485 417.283 485 399C485 380.717 498.935 366 516 366C533.065 366 547 380.717 547 399Z" stroke="#6C63FF" stroke-width="2"/>
</g>
<defs>
<clipPath id="clip0_318_4993">
<rect width="64" height="68" fill="white" transform="translate(484 365)"/>
</clipPath>
</defs>
</svg>
