<svg xmlns="http://www.w3.org/2000/svg" width="128" height="128" viewBox="0 0 33.867 33.867"><g transform="translate(-436.195 -269.112)"><path fill="#00a1ff" d="m 441.21718,280.75338 7.65781,-1.5875 c 1.43528,-0.29754 2.64584,1.18004 2.64584,2.64584 v 17.4625 c 0,1.46579 -1.18004,2.64583 -2.64584,2.64583 h -7.65781 c -1.46579,0 -2.64583,-1.18004 -2.64583,-2.64583 v -15.3293 c 0,-1.46579 0.74493,-2.79747 2.64583,-3.19154 z" paint-order="markers fill stroke"/><path fill="#daeeff" d="M447.64322 294.75105c.73085.00069 1.32383-.59141 1.32324-1.32324-.00039-.7309-.59339-1.32303-1.32399-1.32258l-3.88548.00001c-.7301.00037-1.32189.59216-1.32226 1.32226.00034.73009.59211 1.32188 1.32228 1.32228zM447.64322 288.13647c.73085.00069 1.32383-.59141 1.32324-1.32325-.00039-.7309-.59339-1.32302-1.32399-1.32258l-3.88548.00001c-.7301.00037-1.32189.59217-1.32226 1.32226.00034.7301.59211 1.32188 1.32228 1.32229z" color="#000" font-family="sans-serif" font-weight="400" overflow="visible" paint-order="markers fill stroke" style="line-height:normal;font-variant-ligatures:normal;font-variant-position:normal;font-variant-caps:normal;font-variant-numeric:normal;font-variant-alternates:normal;font-variant-east-asian:normal;font-feature-settings:normal;font-variation-settings:normal;text-indent:0;text-align:start;text-decoration-line:none;text-decoration-style:solid;text-decoration-color:#000;text-transform:none;text-orientation:mixed;shape-padding:0;shape-margin:0;inline-size:0;isolation:auto;mix-blend-mode:normal"/><path fill="#ffb43f" d="m 449.62542,270.17005 c -1.4658,0 -2.61919,1.18028 -2.64584,2.64583 v 29.10417 h 18.05988 c 1.46579,0 2.64583,-1.18004 2.64583,-2.64583 v -26.45834 c -0.006,-1.46578 -1.18004,-2.64583 -2.64583,-2.64583 z" paint-order="markers fill stroke"/><path fill="#fff" d="m 456.61078,292.49789 c -1.4658,0 -2.64584,1.18004 -2.64584,2.64583 v 6.77633 h 6.73499 v -6.77633 c 0,-1.46579 -1.18004,-2.64583 -2.64583,-2.64583 z" paint-order="markers fill stroke"/><path d="M25.990488 11.478621c.730858.0007 1.323832-.59141 1.323245-1.323245-.000389-.7309011-.593391-1.3230251-1.323994-1.3225801l-10.764646.000007c-.730102.000382-1.321886.592166-1.322261 1.3222631.000331.730093.592117 1.321879 1.322282 1.322282zM22.96514 17.505818c-.730858.0007-1.323832-.59141-1.323245-1.323245.000389-.730901.593391-1.323025 1.323994-1.32258l2.827146.000007c.730102.000382 1.321886.592166 1.322261 1.322263-.000331.730093-.592117 1.321879-1.322282 1.322282zM15.226077 17.505818c-.730858.0007-1.323832-.59141-1.323245-1.323245.000389-.730901.593391-1.323025 1.323994-1.32258l2.827146.000007c.730102.000382 1.321886.592166 1.322261 1.322263-.000331.730093-.592117 1.321879-1.322282 1.322282z" color="#000" font-family="sans-serif" font-weight="400" overflow="visible" paint-order="markers fill stroke" style="line-height:normal;font-variant-ligatures:normal;font-variant-position:normal;font-variant-caps:normal;font-variant-numeric:normal;font-variant-alternates:normal;font-variant-east-asian:normal;font-feature-settings:normal;font-variation-settings:normal;text-indent:0;text-align:start;text-decoration-line:none;text-decoration-style:solid;text-decoration-color:#000;text-transform:none;text-orientation:mixed;shape-padding:0;shape-margin:0;inline-size:0;isolation:auto;mix-blend-mode:normal" fill="#fff" transform="translate(436.724 269.112)"/></g></svg>