<svg width="786" height="508" viewBox="0 0 786 508" fill="none" xmlns="http://www.w3.org/2000/svg">
<g clip-path="url(#clip0_391_4934)">
<path d="M548.005 342.431C467.231 342.435 396.953 282.179 386.57 199.994L388.555 199.743C398.809 280.914 468.231 340.426 548.007 340.431C554.785 340.431 561.556 340.004 568.28 339.152C656.266 328.037 718.805 247.413 707.689 159.427L709.674 159.176C720.927 248.255 657.611 329.883 568.531 341.136C561.723 341.998 554.868 342.43 548.005 342.431Z" fill="#3F3D56"/>
<path d="M612.417 80.6382C607.154 66.7254 607.633 51.2917 613.75 37.7325C619.866 24.1732 631.119 13.599 645.031 8.33616C658.944 3.07327 674.378 3.55277 687.937 9.66918C701.496 15.7856 712.07 27.0379 717.333 40.9507L715.462 41.6587C710.387 28.2421 700.19 17.3912 687.115 11.4929C674.039 5.5946 659.156 5.13214 645.739 10.2073C632.323 15.2824 621.472 25.4793 615.574 38.5549C609.675 51.6305 609.213 66.5136 614.288 79.9302L612.417 80.6382Z" fill="#3F3D56"/>
<path d="M774.889 178.53H673.224C670.499 178.527 667.887 177.443 665.961 175.516C664.034 173.59 662.95 170.978 662.947 168.253V33.6369C662.95 30.9123 664.034 28.3001 665.961 26.3735C667.887 24.4469 670.499 23.3632 673.224 23.3601H774.889C777.614 23.3632 780.226 24.4469 782.152 26.3735C784.079 28.3001 785.163 30.9123 785.166 33.6369V168.253C785.163 170.978 784.079 173.59 782.152 175.516C780.226 177.443 777.614 178.527 774.889 178.53Z" fill="#E6E6E6"/>
<path d="M734.497 170.464H680.371C677.819 170.462 675.373 169.447 673.568 167.642C671.764 165.838 670.749 163.392 670.746 160.84V41.0499C670.749 38.4982 671.764 36.0518 673.568 34.2475C675.373 32.4431 677.819 31.4282 680.371 31.4254H767.744C770.295 31.4282 772.742 32.4432 774.546 34.2475C776.35 36.0518 777.365 38.4982 777.368 41.0499V127.593C777.355 138.96 772.834 149.857 764.797 157.894C756.76 165.931 745.863 170.452 734.497 170.464Z" fill="white"/>
<path d="M759.026 91.498H689.086C688.481 91.498 687.901 91.2577 687.473 90.83C687.045 90.4022 686.805 89.822 686.805 89.217C686.805 88.6121 687.045 88.0319 687.473 87.6041C687.901 87.1764 688.481 86.936 689.086 86.936H759.026C759.631 86.936 760.211 87.1764 760.639 87.6041C761.067 88.0319 761.307 88.6121 761.307 89.217C761.307 89.822 761.067 90.4022 760.639 90.83C760.211 91.2577 759.631 91.498 759.026 91.498Z" fill="#E4E4E4"/>
<path d="M759.027 100.511H689.087C688.483 100.51 687.904 100.269 687.477 99.8415C687.05 99.4139 686.811 98.8344 686.811 98.2302C686.811 97.6261 687.05 97.0465 687.477 96.6189C687.904 96.1912 688.483 95.9504 689.087 95.9491H759.027C759.632 95.9491 760.213 96.1894 760.64 96.6172C761.068 97.045 761.309 97.6252 761.309 98.2302C761.309 98.8352 761.068 99.4154 760.64 99.8432C760.213 100.271 759.632 100.511 759.027 100.511Z" fill="#E4E4E4"/>
<path d="M719.403 109.525H689.086C688.481 109.525 687.901 109.284 687.473 108.857C687.045 108.429 686.805 107.849 686.805 107.244C686.805 106.639 687.045 106.058 687.473 105.631C687.901 105.203 688.481 104.963 689.086 104.963H719.403C720.008 104.963 720.589 105.203 721.016 105.631C721.444 106.058 721.684 106.639 721.684 107.244C721.684 107.849 721.444 108.429 721.016 108.857C720.589 109.284 720.008 109.525 719.403 109.525Z" fill="#E4E4E4"/>
<path d="M759.026 54.6902H689.086C688.481 54.6902 687.901 54.4498 687.473 54.0221C687.045 53.5943 686.805 53.0141 686.805 52.4092C686.805 51.8042 687.045 51.224 687.473 50.7963C687.901 50.3685 688.481 50.1282 689.086 50.1282H759.026C759.631 50.1282 760.211 50.3685 760.639 50.7963C761.067 51.224 761.307 51.8042 761.307 52.4092C761.307 53.0141 761.067 53.5943 760.639 54.0221C760.211 54.4498 759.631 54.6902 759.026 54.6902Z" fill="#6C63FF"/>
<path d="M759.026 63.7034H689.086C688.481 63.7034 687.901 63.4631 687.473 63.0353C687.045 62.6075 686.805 62.0273 686.805 61.4223C686.805 60.8174 687.045 60.2371 687.473 59.8094C687.901 59.3816 688.481 59.1412 689.086 59.1412H759.026C759.631 59.1412 760.212 59.3816 760.639 59.8094C761.067 60.2371 761.307 60.8174 761.307 61.4223C761.307 62.0273 761.067 62.6075 760.639 63.0353C760.212 63.4631 759.631 63.7034 759.026 63.7034Z" fill="#6C63FF"/>
<path d="M719.404 72.7168H689.087C688.483 72.7155 687.904 72.4746 687.477 72.047C687.05 71.6193 686.811 71.0398 686.811 70.4357C686.811 69.8315 687.05 69.252 687.477 68.8244C687.904 68.3967 688.483 68.1558 689.087 68.1545H719.404C720.009 68.1558 720.588 68.3967 721.014 68.8244C721.441 69.252 721.681 69.8315 721.681 70.4357C721.681 71.0398 721.441 71.6193 721.014 72.047C720.588 72.4746 720.009 72.7155 719.404 72.7168Z" fill="#6C63FF"/>
<path d="M388.086 174.017C379.276 150.695 380.089 124.828 390.346 102.105C400.602 79.3814 419.463 61.6613 442.782 52.8406C466.1 44.0198 491.967 44.8204 514.695 55.0664C537.423 65.3124 555.152 84.1649 563.984 107.479L562.113 108.187C557.84 96.879 551.381 86.5235 543.105 77.712C534.83 68.9006 524.899 61.8059 513.881 56.8333C502.862 51.8606 490.972 49.1074 478.89 48.7308C466.807 48.3543 454.769 50.3619 443.462 54.6388C432.156 58.9158 421.802 65.3784 412.994 73.6574C404.186 81.9365 397.095 91.8698 392.126 102.89C387.157 113.91 384.408 125.801 384.036 137.884C383.664 149.966 385.676 162.004 389.957 173.309L388.086 174.017Z" fill="#3F3D56"/>
<path d="M562.907 20.6869C568.179 20.6869 572.453 16.413 572.453 11.1409C572.453 5.86875 568.179 1.59485 562.907 1.59485C557.635 1.59485 553.361 5.86875 553.361 11.1409C553.361 16.413 557.635 20.6869 562.907 20.6869Z" fill="#E6E6E6"/>
<path d="M575.907 295.687C581.179 295.687 585.453 291.413 585.453 286.141C585.453 280.869 581.179 276.595 575.907 276.595C570.635 276.595 566.361 280.869 566.361 286.141C566.361 291.413 570.635 295.687 575.907 295.687Z" fill="#E6E6E6"/>
<path d="M330.907 68.6869C336.179 68.6869 340.453 64.413 340.453 59.1409C340.453 53.8687 336.179 49.5948 330.907 49.5948C325.635 49.5948 321.361 53.8687 321.361 59.1409C321.361 64.413 325.635 68.6869 330.907 68.6869Z" fill="#E6E6E6"/>
<path d="M462.699 451.388H244.166C238.31 451.381 232.695 449.052 228.554 444.91C224.412 440.769 222.083 435.154 222.076 429.298V139.935C222.083 134.078 224.412 128.463 228.554 124.322C232.695 120.181 238.31 117.851 244.166 117.845H462.699C468.556 117.851 474.171 120.181 478.312 124.322C482.454 128.463 484.783 134.078 484.79 139.935V429.298C484.783 435.154 482.454 440.769 478.312 444.911C474.171 449.052 468.556 451.381 462.699 451.388Z" fill="#E6E6E6"/>
<path d="M379.292 433.477H259.528C254.195 433.471 249.083 431.35 245.312 427.579C241.541 423.808 239.42 418.696 239.414 413.363V155.87C239.42 150.537 241.541 145.424 245.312 141.654C249.083 137.883 254.195 135.762 259.528 135.756H447.338C452.671 135.762 457.784 137.883 461.554 141.654C465.325 145.424 467.446 150.537 467.452 155.87V345.317C467.426 368.69 458.129 391.099 441.601 407.626C425.074 424.154 402.665 433.451 379.292 433.477Z" fill="white"/>
<path d="M428.603 185.19H278.264C277.619 185.191 276.981 185.065 276.385 184.819C275.789 184.573 275.248 184.212 274.792 183.756C274.336 183.301 273.974 182.76 273.727 182.165C273.481 181.569 273.354 180.931 273.354 180.287C273.354 179.642 273.481 179.004 273.727 178.409C273.974 177.814 274.336 177.273 274.792 176.817C275.248 176.362 275.789 176.001 276.385 175.755C276.981 175.509 277.619 175.383 278.264 175.384H428.603C429.248 175.383 429.886 175.509 430.482 175.755C431.078 176.001 431.619 176.362 432.075 176.817C432.531 177.273 432.893 177.814 433.14 178.409C433.386 179.004 433.514 179.642 433.514 180.287C433.514 180.931 433.386 181.569 433.14 182.165C432.893 182.76 432.531 183.301 432.075 183.756C431.619 184.212 431.078 184.573 430.482 184.819C429.886 185.065 429.248 185.191 428.603 185.19Z" fill="#6C63FF"/>
<path d="M428.604 204.564H278.265C276.964 204.564 275.717 204.048 274.797 203.128C273.878 202.209 273.361 200.962 273.361 199.661C273.361 198.361 273.878 197.114 274.797 196.194C275.717 195.274 276.964 194.758 278.265 194.758H428.604C429.905 194.758 431.152 195.274 432.072 196.194C432.991 197.114 433.508 198.361 433.508 199.661C433.508 200.962 432.991 202.209 432.072 203.128C431.152 204.048 429.905 204.564 428.604 204.564Z" fill="#6C63FF"/>
<path d="M343.433 223.939H278.265C276.964 223.939 275.717 223.422 274.797 222.503C273.878 221.583 273.361 220.336 273.361 219.036C273.361 217.735 273.878 216.488 274.797 215.568C275.717 214.649 276.964 214.132 278.265 214.132H343.433C344.734 214.132 345.981 214.649 346.901 215.568C347.82 216.488 348.337 217.735 348.337 219.036C348.337 220.336 347.82 221.583 346.901 222.503C345.981 223.422 344.734 223.939 343.433 223.939Z" fill="#6C63FF"/>
<path d="M428.603 264.516H278.264C277.619 264.517 276.981 264.391 276.385 264.145C275.789 263.899 275.248 263.538 274.792 263.083C274.336 262.627 273.974 262.087 273.727 261.491C273.481 260.896 273.354 260.258 273.354 259.613C273.354 258.969 273.481 258.331 273.727 257.735C273.974 257.14 274.336 256.599 274.792 256.144C275.248 255.688 275.789 255.327 276.385 255.081C276.981 254.835 277.619 254.709 278.264 254.71H428.603C429.248 254.709 429.886 254.835 430.482 255.081C431.078 255.327 431.619 255.688 432.075 256.144C432.531 256.599 432.893 257.14 433.14 257.735C433.386 258.331 433.514 258.969 433.514 259.613C433.514 260.258 433.386 260.896 433.14 261.491C432.893 262.087 432.531 262.627 432.075 263.083C431.619 263.538 431.078 263.899 430.482 264.145C429.886 264.391 429.248 264.517 428.603 264.516Z" fill="#E4E4E4"/>
<path d="M428.604 283.891H278.265C276.964 283.891 275.717 283.374 274.797 282.455C273.878 281.535 273.361 280.288 273.361 278.988C273.361 277.687 273.878 276.44 274.797 275.52C275.717 274.601 276.964 274.084 278.265 274.084H428.604C429.905 274.084 431.152 274.601 432.072 275.52C432.991 276.44 433.508 277.687 433.508 278.988C433.508 280.288 432.991 281.535 432.072 282.455C431.152 283.374 429.905 283.891 428.604 283.891Z" fill="#E4E4E4"/>
<path d="M343.433 303.265H278.265C276.964 303.265 275.717 302.749 274.797 301.829C273.878 300.91 273.361 299.662 273.361 298.362C273.361 297.062 273.878 295.814 274.797 294.895C275.717 293.975 276.964 293.459 278.265 293.459H343.433C344.734 293.459 345.981 293.975 346.901 294.895C347.82 295.814 348.337 297.062 348.337 298.362C348.337 299.662 347.82 300.91 346.901 301.829C345.981 302.749 344.734 303.265 343.433 303.265Z" fill="#E4E4E4"/>
<path d="M631.076 236.53H520.406C517.44 236.526 514.596 235.347 512.499 233.25C510.402 231.152 509.222 228.309 509.219 225.343V78.8035C509.222 75.8375 510.402 72.994 512.499 70.8968C514.596 68.7995 517.44 67.6198 520.406 67.6165H631.076C634.041 67.6198 636.885 68.7995 638.982 70.8968C641.079 72.994 642.259 75.8375 642.263 78.8035V225.343C642.259 228.309 641.079 231.152 638.982 233.25C636.885 235.347 634.041 236.526 631.076 236.53Z" fill="#E6E6E6"/>
<path d="M590.049 227.706H528.185C525.419 227.702 522.767 226.602 520.811 224.646C518.855 222.691 517.755 220.039 517.752 217.273V86.873C517.755 84.107 518.855 81.4552 520.811 79.4993C522.767 77.5434 525.419 76.4431 528.185 76.4399H623.296C626.062 76.443 628.714 77.5432 630.67 79.4991C632.626 81.4551 633.726 84.107 633.729 86.873V184.026C633.716 195.607 629.11 206.709 620.921 214.898C612.732 223.086 601.63 227.693 590.049 227.706Z" fill="white"/>
<path d="M613.808 101.721H537.672C537.014 101.721 536.382 101.46 535.917 100.994C535.451 100.528 535.189 99.8969 535.189 99.2384C535.189 98.5798 535.451 97.9483 535.917 97.4826C536.382 97.017 537.014 96.7554 537.672 96.7554H613.808C614.466 96.7554 615.098 97.017 615.564 97.4826C616.029 97.9483 616.291 98.5798 616.291 99.2384C616.291 99.8969 616.029 100.528 615.564 100.994C615.098 101.46 614.466 101.721 613.808 101.721Z" fill="#E4E4E4"/>
<path d="M613.809 111.533H537.673C537.016 111.532 536.385 111.27 535.921 110.804C535.456 110.338 535.195 109.708 535.195 109.05C535.195 108.392 535.456 107.761 535.921 107.296C536.385 106.83 537.016 106.568 537.673 106.567H613.809C614.466 106.568 615.097 106.83 615.561 107.296C616.026 107.761 616.287 108.392 616.287 109.05C616.287 109.708 616.026 110.338 615.561 110.804C615.097 111.27 614.466 111.532 613.809 111.533Z" fill="#E4E4E4"/>
<path d="M570.676 121.345H537.673C537.016 121.343 536.385 121.081 535.921 120.616C535.456 120.15 535.195 119.519 535.195 118.862C535.195 118.204 535.456 117.573 535.921 117.107C536.385 116.642 537.016 116.38 537.673 116.378H570.676C571.334 116.38 571.964 116.642 572.429 117.107C572.894 117.573 573.154 118.204 573.154 118.862C573.154 119.519 572.894 120.15 572.429 120.616C571.964 121.081 571.334 121.343 570.676 121.345Z" fill="#E4E4E4"/>
<path d="M613.808 141.894H537.672C537.014 141.894 536.382 141.632 535.917 141.167C535.451 140.701 535.189 140.07 535.189 139.411C535.189 138.752 535.451 138.121 535.917 137.655C536.382 137.19 537.014 136.928 537.672 136.928H613.808C614.466 136.928 615.098 137.19 615.564 137.655C616.029 138.121 616.291 138.752 616.291 139.411C616.291 140.07 616.029 140.701 615.564 141.167C615.098 141.632 614.466 141.894 613.808 141.894Z" fill="#6C63FF"/>
<path d="M593.808 151.706H537.673C537.014 151.706 536.382 151.444 535.917 150.978C535.451 150.513 535.189 149.881 535.189 149.223C535.189 148.564 535.451 147.932 535.917 147.467C536.382 147.001 537.014 146.739 537.673 146.739H593.808C594.466 146.739 595.098 147.001 595.564 147.467C596.029 147.932 596.291 148.564 596.291 149.223C596.291 149.881 596.029 150.513 595.564 150.978C595.098 151.444 594.466 151.706 593.808 151.706Z" fill="#6C63FF"/>
<path d="M570.676 161.517H537.673C537.016 161.516 536.385 161.254 535.921 160.788C535.456 160.323 535.195 159.692 535.195 159.034C535.195 158.376 535.456 157.746 535.921 157.28C536.385 156.815 537.016 156.552 537.673 156.551H570.676C571.334 156.552 571.964 156.815 572.429 157.28C572.894 157.746 573.154 158.376 573.154 159.034C573.154 159.692 572.894 160.323 572.429 160.788C571.964 161.254 571.334 161.516 570.676 161.517Z" fill="#6C63FF"/>
<path d="M129.396 286.875C130.243 285.953 130.878 284.857 131.256 283.663C131.634 282.469 131.745 281.206 131.582 279.965C131.419 278.723 130.986 277.532 130.313 276.476C129.64 275.42 128.744 274.524 127.688 273.852L134.708 244.231L119.849 249.659L115.461 276.955C114.449 278.805 114.151 280.962 114.623 283.017C115.095 285.072 116.305 286.882 118.022 288.105C119.74 289.328 121.846 289.878 123.943 289.651C126.039 289.425 127.979 288.437 129.396 286.875Z" fill="#FFB8B8"/>
<path d="M165.127 162.748L159.164 178.082C159.164 178.082 161.72 193.415 157.46 196.823C153.201 200.23 154.905 200.23 154.905 202.786C154.758 204.619 154.227 206.401 153.346 208.015C152.466 209.63 151.255 211.041 149.793 212.157C146.386 214.712 131.052 266.677 131.052 266.677H115.718C116.214 262.717 116.214 258.71 115.718 254.75C114.867 248.787 118.274 233.453 119.978 230.898C121.682 228.342 119.978 224.935 119.978 219.823C119.978 214.712 123.385 212.157 123.385 203.638C123.385 195.119 133.608 128.673 132.756 121.006C131.904 113.339 141.275 106.524 141.275 106.524H149.793L165.127 162.748Z" fill="#6C63FF"/>
<path d="M201.207 195.271L215.38 258.521L124.557 252.871L149.254 190.754L201.207 195.271Z" fill="#FFB8B8"/>
<path d="M3.23471 432.994C5.93835 442.769 10.1597 452.059 15.7447 460.524C28.2247 479.394 46.0847 493.824 65.7147 505.374C67.0747 506.184 68.4547 506.974 69.8347 507.754H83.6047L84.0847 506.654V506.644L84.6446 505.374L84.7147 505.224L84.7447 505.374L85.2947 507.754H92.0546C92.6145 506.964 93.1646 506.174 93.7046 505.374C94.4946 504.204 95.2546 503.024 95.9746 501.824C97.2455 499.725 98.3811 497.548 99.3745 495.304C99.4946 495.054 99.5946 494.804 99.6946 494.554L99.2446 494.064L101.114 485.884L97.3545 485.264L101.475 472.554C101.325 472.084 101.154 471.614 100.975 471.144C98.6645 465.294 94.3245 460.924 89.1745 457.254C83.8745 453.464 77.7045 450.424 72.0347 447.264C69.3745 445.774 66.7547 444.204 64.2046 442.544V442.534C60.9446 440.424 57.7812 438.167 54.7146 435.764C54.6622 435.731 54.6121 435.694 54.5646 435.654C54.5222 435.624 54.4821 435.59 54.4446 435.554C40.6964 424.813 29.0625 411.613 20.1345 396.624L20.1307 396.623L20.1274 396.621L20.1252 396.618L20.1245 396.614C19.8246 396.134 19.5447 395.654 19.2647 395.164V395.154C15.6085 388.866 12.4618 382.295 9.85466 375.504V375.494C9.65458 374.994 9.47467 374.494 9.28467 373.994C9.02467 374.434 8.77467 374.874 8.53467 375.314L8.5308 375.315L8.52752 375.317L8.52537 375.32L8.52466 375.324C-1.17533 392.674 -2.09537 413.574 3.23471 432.994Z" fill="#F0F0F0"/>
<path d="M8.52426 375.324C8.42712 384.584 9.38999 393.824 11.3941 402.864C12.2948 407.001 13.4164 411.087 14.7542 415.104C17.3512 422.963 20.7455 430.536 24.8841 437.704C25.1141 438.094 25.3342 438.474 25.5742 438.854V438.864C27.3429 441.846 29.2621 444.737 31.3242 447.524C34.4449 451.965 38.3002 455.84 42.7242 458.984C46.3377 461.372 50.4242 462.951 54.7042 463.614C55.5042 463.764 56.3242 463.874 57.1542 463.974C60.4642 464.364 63.8842 464.514 67.1642 465.214C68.8255 465.542 70.4431 466.062 71.9843 466.764C77.2643 469.214 80.2342 474.344 81.5342 479.824C81.7642 480.784 81.9442 481.754 82.0842 482.724C83.1742 490.174 81.9742 497.914 82.5942 505.374C82.6641 506.164 82.7542 506.964 82.8641 507.754H83.6042L84.0842 506.654V506.644C84.0342 506.224 83.9942 505.804 83.9542 505.374C83.7142 501.709 83.6841 498.033 83.8641 494.364C83.9041 492.714 83.9342 491.054 83.9141 489.394C83.8941 488.064 83.8442 486.734 83.7442 485.414V485.404C83.6741 484.584 83.5942 483.774 83.4842 482.964C83.1666 480.484 82.5556 478.05 81.6641 475.714C80.7942 473.307 79.425 471.111 77.6464 469.27C75.8678 467.43 73.7201 465.986 71.3442 465.034C69.8928 464.49 68.3973 464.072 66.8741 463.784C63.5242 463.144 60.0642 462.984 56.6942 462.564C56.3342 462.524 55.9742 462.474 55.6241 462.414C55.1741 462.344 54.7342 462.264 54.2943 462.184C49.8849 461.401 45.7202 459.597 42.1341 456.914C37.8725 453.54 34.1674 449.518 31.1541 444.994C29.5142 442.644 27.9541 440.244 26.5042 437.774C26.5042 437.773 26.504 437.771 26.5035 437.77C26.503 437.769 26.5023 437.768 26.5013 437.767C26.5004 437.766 26.4993 437.765 26.4981 437.765C26.4968 437.764 26.4955 437.764 26.4942 437.764C26.4241 437.644 26.3542 437.534 26.2842 437.414L26.2742 437.394C20.0547 426.765 15.5144 415.239 12.8141 403.224C12.7241 402.784 12.6241 402.344 12.5242 401.904C10.6682 393.229 9.77278 384.375 9.8542 375.504V375.494C9.8542 375.074 9.86408 374.664 9.87409 374.244C9.89409 373.384 8.56416 373.194 8.54426 374.054C8.53426 374.474 8.52427 374.894 8.53427 375.314C8.53294 375.314 8.53162 375.314 8.53039 375.315C8.52916 375.315 8.52805 375.316 8.52711 375.317C8.52617 375.318 8.52543 375.319 8.52494 375.32C8.52445 375.322 8.52422 375.323 8.52426 375.324Z" fill="white"/>
<path d="M26.1451 438.583C22.3346 440.519 17.9602 441.036 13.803 440.044C9.64586 439.052 5.97672 436.615 3.45083 433.167C2.94214 432.468 4.00499 431.645 4.51436 432.345C6.86054 435.56 10.2786 437.83 14.1516 438.746C18.0246 439.662 22.0975 439.163 25.6351 437.34C26.4043 436.944 26.91 438.19 26.1451 438.583Z" fill="white"/>
<path d="M54.1656 462.583C56.9501 454.302 56.5111 445.275 52.936 437.303C52.5812 436.514 53.8252 436.005 54.1796 436.793C57.8843 445.096 58.3221 454.49 55.4055 463.101C55.127 463.922 53.8886 463.399 54.1656 462.583Z" fill="white"/>
<path d="M12.1386 402.027C13.769 401.585 15.2642 400.746 16.4899 399.583C17.7157 398.421 18.6335 396.972 19.161 395.368C19.429 394.544 20.6672 395.068 20.401 395.886C19.8099 397.657 18.7943 399.255 17.443 400.542C16.0916 401.83 14.4455 402.766 12.6487 403.27C12.4833 403.332 12.3006 403.329 12.1378 403.261C11.9749 403.192 11.8441 403.065 11.7719 402.904C11.7052 402.739 11.7063 402.554 11.775 402.39C11.8436 402.226 11.9743 402.095 12.1386 402.027Z" fill="white"/>
<path d="M64.2052 442.534V442.544C64.5153 449.685 65.4082 456.789 66.8751 463.784V463.794C66.9551 464.274 67.0651 464.744 67.1651 465.214C69.5787 476.033 72.9624 486.613 77.2752 496.824C78.4651 499.704 79.7118 502.554 81.0152 505.374C81.3751 506.174 81.7452 506.964 82.1251 507.754H83.6052L84.0852 506.654V506.644L84.6451 505.374L84.7152 505.224L84.7452 505.374L85.2952 507.754H99.5951L102.375 505.374L106.425 501.904L100.765 495.724L99.8351 494.704L99.6951 494.554L99.2451 494.064L101.115 485.884L97.3551 485.264L101.475 472.554L103.425 466.544L103.915 465.034L106.765 456.244L115.365 457.854L116.765 452.954C114.187 446.979 112.042 440.827 110.345 434.544C110.335 434.494 110.315 434.454 110.305 434.404C105.762 417.482 104.399 399.864 106.285 382.444V382.434C106.345 381.874 106.415 381.304 106.495 380.754V380.734C107.352 373.515 108.797 366.378 110.815 359.394C110.955 358.864 111.115 358.344 111.265 357.824C110.805 358.024 110.355 358.214 109.895 358.414L109.885 358.424H109.865C109.135 358.744 108.405 359.084 107.695 359.444C90.6353 367.734 78.0853 383.294 70.9553 401.234C70.9353 401.284 70.9153 401.324 70.8953 401.374C67.1749 410.779 64.9578 420.71 64.3253 430.804C64.0855 434.71 64.0454 438.625 64.2052 442.534Z" fill="#F0F0F0"/>
<path d="M90.1543 507.754H91.7344C92.2344 506.944 92.7744 506.154 93.3144 505.374C94.1744 504.164 95.0611 502.981 95.9744 501.824C96.7644 500.824 97.5544 499.834 98.3444 498.844C99.1643 497.814 99.9744 496.784 100.764 495.724L99.8344 494.704C99.6844 494.904 99.5344 495.104 99.3743 495.304C96.8144 498.674 94.0445 501.914 91.6743 505.374C91.1443 506.154 90.6343 506.944 90.1543 507.754Z" fill="white"/>
<path d="M111.596 358.383C111.336 358.713 111.066 359.053 110.816 359.393C108.866 361.923 107.023 364.533 105.286 367.223C102.193 371.969 99.4459 376.932 97.066 382.073C96.876 382.473 96.686 382.883 96.506 383.293C91.4131 394.526 88.0937 406.482 86.666 418.733C86.646 418.853 86.636 418.963 86.626 419.083C86.296 421.943 86.0827 424.813 85.986 427.693C85.6671 433.116 86.2036 438.556 87.576 443.813C87.776 444.503 87.996 445.183 88.236 445.843C88.8376 447.46 89.5909 449.017 90.486 450.493C91.1291 451.57 91.844 452.602 92.626 453.583C93.096 454.183 93.586 454.773 94.106 455.343C94.406 455.673 94.716 456.003 95.026 456.333C95.286 456.583 95.536 456.843 95.796 457.093C98.496 459.713 101.476 462.143 103.916 465.033L103.426 466.543C101.076 463.563 98.046 461.093 95.316 458.493C93.6021 456.881 92.0421 455.114 90.656 453.213C90.476 452.953 90.286 452.693 90.116 452.423C89.1895 451.069 88.3894 449.633 87.726 448.133C87.386 447.383 87.076 446.613 86.796 445.813C85.1622 440.643 84.4183 435.232 84.596 429.813C84.6282 426.341 84.8351 422.874 85.216 419.423C85.256 418.973 85.306 418.533 85.366 418.083C86.38 409.869 88.2296 401.781 90.886 393.943C94.2481 384 98.8725 374.529 104.646 365.763C106.296 363.253 108.046 360.803 109.896 358.413C110.136 358.083 110.386 357.763 110.646 357.433C111.176 356.753 112.126 357.703 111.596 358.383Z" fill="white"/>
<path d="M85.8436 419.549C81.6358 418.8 77.8312 416.58 75.1093 413.285C72.3873 409.99 70.9252 405.835 70.9841 401.562C70.9881 401.387 71.0597 401.221 71.1836 401.099C71.3075 400.976 71.4741 400.907 71.6484 400.904C71.8227 400.902 71.991 400.968 72.1179 401.088C72.2447 401.207 72.3202 401.371 72.3284 401.545C72.2662 405.525 73.6286 409.395 76.1695 412.458C78.7104 415.521 82.2627 417.575 86.185 418.249C87.0372 418.397 86.6909 419.696 85.8436 419.549Z" fill="white"/>
<path d="M93.7662 455.582C100.975 450.646 106.059 443.175 108.004 434.658C108.196 433.814 109.496 434.156 109.304 434.999C107.264 443.859 101.957 451.623 94.4439 456.743C93.7275 457.23 93.0536 456.067 93.7662 455.582Z" fill="white"/>
<path d="M96.6683 381.928C98.236 382.557 99.9354 382.787 101.614 382.597C103.292 382.407 104.897 381.803 106.285 380.839C106.994 380.343 107.668 381.506 106.962 382C105.425 383.057 103.651 383.722 101.797 383.936C99.9434 384.15 98.0652 383.907 96.3268 383.228C96.1576 383.178 96.0139 383.065 95.9249 382.912C95.8358 382.76 95.8082 382.579 95.8476 382.407C95.8936 382.235 96.0057 382.089 96.1594 381.999C96.313 381.909 96.4959 381.884 96.6683 381.928Z" fill="white"/>
<path d="M186.082 487.193L196.284 487.192L201.138 447.841H186.08L186.082 487.193Z" fill="#FFB8B8"/>
<path d="M182.627 482.16L198.755 481.197V488.107L214.088 498.696C214.845 499.219 215.416 499.971 215.716 500.841C216.016 501.711 216.03 502.654 215.756 503.532C215.482 504.411 214.935 505.179 214.193 505.725C213.452 506.27 212.556 506.564 211.635 506.564H192.435L189.125 499.729L187.833 506.564H180.594L182.627 482.16Z" fill="#2F2E41"/>
<path d="M89.6562 482.117L99.6273 484.279L112.712 446.851L97.9973 443.66L89.6562 482.117Z" fill="#FFB8B8"/>
<path d="M87.3486 476.466L103.314 478.944L101.849 485.697L114.588 499.297C115.217 499.968 115.616 500.823 115.724 501.737C115.833 502.651 115.647 503.576 115.193 504.376C114.739 505.177 114.041 505.812 113.201 506.187C112.361 506.563 111.423 506.661 110.523 506.466L91.7594 502.395L89.9741 495.014L87.2623 501.419L80.1875 499.885L87.3486 476.466Z" fill="#2F2E41"/>
<path d="M17.8047 506.564C17.8042 506.72 17.8347 506.875 17.8943 507.02C17.954 507.165 18.0416 507.296 18.1522 507.407C18.2628 507.517 18.3942 507.605 18.5388 507.664C18.6834 507.724 18.8383 507.755 18.9948 507.754H299.285C299.6 507.754 299.903 507.629 300.126 507.406C300.349 507.182 300.475 506.88 300.475 506.564C300.475 506.248 300.349 505.946 300.126 505.723C299.903 505.499 299.6 505.374 299.285 505.374H18.9948C18.8383 505.374 18.6834 505.404 18.5388 505.464C18.3942 505.523 18.2628 505.611 18.1522 505.722C18.0416 505.832 17.954 505.964 17.8943 506.108C17.8347 506.253 17.8042 506.408 17.8047 506.564Z" fill="#CCCCCC"/>
<path d="M217.698 311.411C210.538 350.761 208.748 367.751 208.748 367.751C208.748 367.751 214.118 374.011 210.538 377.591C206.958 381.171 210.538 388.321 210.538 388.321L201.166 463.16L199.166 474.16L180.398 471.511L183.166 461.16L178.348 389.221C178.348 389.221 174.768 382.061 176.558 380.271C178.348 378.481 174.768 367.751 174.768 367.751L170.298 282.791L142.568 375.801C142.568 375.801 145.258 379.381 142.568 382.061C139.888 384.741 134.528 398.161 134.528 398.161L114.166 452.16L110.166 460.16L108.038 459.151L98.6776 457.391L96.9576 457.071L93.8976 456.491L91.9276 456.121L91.2576 456.001L88.0176 455.391L88.9976 451.041L96.1658 440.16L103.458 386.791L103.778 385.361L104.118 383.851C104.118 383.851 102.328 379.381 105.007 376.691C105.792 375.871 106.364 374.873 106.676 373.782C106.988 372.692 107.03 371.542 106.797 370.431C106.71 370.338 106.629 370.237 106.557 370.131C106.241 369.697 106.023 369.199 105.917 368.671C105.677 367.551 105.887 365.981 107.697 364.171C108.207 363.63 108.635 363.017 108.967 362.351C111.687 357.201 113.057 346.291 113.057 346.291C113.057 346.291 115.477 259.881 123.397 246.681C123.817 245.991 132.225 232.745 132.665 232.475C141.605 227.115 211.379 233.518 211.379 233.518C211.379 233.518 215.598 244.851 215.788 246.031C216.818 252.661 223.768 278.031 217.698 311.411Z" fill="#2F2E41"/>
<path d="M290.101 119.299C289.944 120.541 289.517 121.734 288.849 122.794C288.181 123.853 287.289 124.753 286.236 125.43C285.182 126.108 283.993 126.546 282.752 126.714C281.511 126.882 280.248 126.776 279.053 126.403L260.965 150.888L255.518 136.036L273.529 115.062C274.289 113.095 275.743 111.475 277.617 110.509C279.491 109.542 281.654 109.297 283.697 109.819C285.74 110.342 287.52 111.595 288.701 113.342C289.881 115.089 290.379 117.209 290.101 119.299Z" fill="#FFB8B8"/>
<path d="M125.06 223.014C123.402 223.014 122.46 222.689 122.095 221.992C121.56 220.968 122.489 219.631 123.564 218.083C124.362 217.071 124.991 215.938 125.427 214.726C126.071 212.154 130.411 147.179 127.815 134.197C127.214 131.193 127.731 127.342 129.351 122.753C133.775 110.217 139.814 106.365 151.845 98.691C152.821 98.068 153.838 97.4173 154.896 96.7389C156.263 95.86 156.187 92.9459 156.107 89.86C156.017 86.4303 155.925 82.8834 157.605 80.6666L157.714 80.5221L157.89 80.4811C161.954 79.5416 175.623 77.7975 183.717 80.4938L183.829 80.5318L183.913 80.6148C185.836 82.5377 186.011 86.2623 186.18 89.8638C186.319 92.8208 186.45 95.6128 187.538 96.8258C195.855 106.096 205.288 105.916 205.383 105.914L205.851 105.9L205.897 106.365C209.515 143.163 215.347 198.703 216.586 200.888C216.651 200.988 216.687 201.104 216.691 201.223C216.694 201.342 216.665 201.46 216.607 201.564C214.787 204.963 131.31 223.014 125.06 223.014Z" fill="#6C63FF"/>
<path d="M179.384 70.0648C193.008 70.0648 204.052 59.0209 204.052 45.3975C204.052 31.7741 193.008 20.7301 179.384 20.7301C165.761 20.7301 154.717 31.7741 154.717 45.3975C154.717 59.0209 165.761 70.0648 179.384 70.0648Z" fill="#FFB8B8"/>
<path d="M195.865 90.4881C194.695 88.8183 188.765 68.4207 186.166 62.1596C185.9 63.5052 182.92 68.7221 182.85 70.1104L182.825 70.6247L182.314 70.6908C181.546 70.7888 163.403 72.991 153.962 62.2848C148.368 55.9432 147.099 46.4311 150.186 34.007C149.624 33.8968 149.086 33.6896 148.596 33.3947C147.78 32.8296 147.096 32.0932 146.594 31.2369C146.091 30.3805 145.781 29.4249 145.686 28.4365L145.163 28.5767C142.501 29.2948 139.498 30.2452 137.559 32.4389C135.399 34.8786 135.015 38.1935 134.607 41.7026C134.448 43.378 134.184 45.0416 133.816 46.6837C132.501 51.9907 128.797 56.9615 122.809 61.4584C116.78 65.9859 110.633 68.5759 104.538 69.1552C97.3403 69.8421 90.3984 67.477 85.9749 62.834C81.042 57.6575 79.7518 49.693 82.9061 43.8969L83.4137 42.9633L83.9713 43.868C86.7791 48.425 92.9145 50.8863 98.8928 49.8518C104.019 48.9651 109.1 45.7104 113.201 40.6873C116.945 36.102 119.527 30.6867 122.025 25.4494C124.565 20.1243 127.191 14.6175 130.974 9.94508C135.241 4.67472 140.566 1.23291 145.969 0.252468C149.903 -0.458532 153.414 0.34748 155.602 2.46841C157.149 4.06213 158.064 6.16248 158.18 8.37997C159.526 8.07926 160.929 8.15988 162.231 8.61276C163.487 9.12381 164.582 9.9652 165.398 11.0478C166.215 12.1303 166.724 13.4137 166.87 14.7619C174.798 10.5923 185.289 11.2708 190.715 14.3992C192.987 15.7093 194.292 17.3592 194.523 19.1998C200.932 19.5577 207.825 25.8007 207.825 34.6458V35.2617H207.21C202.137 35.2617 197.506 38.179 194.822 43.065C193.246 45.9125 192.465 49.1319 192.563 52.385C192.661 55.6381 193.634 58.8048 195.379 61.5522C197.278 64.4663 198.574 67.731 199.192 71.154C199.81 74.5769 199.736 78.0889 198.976 81.483L196.661 91.6249L195.865 90.4881Z" fill="#2F2E41"/>
<path d="M224.18 182.742L207.92 173.595C179.566 153.942 172.581 138.335 171.708 128.698C170.776 118.416 176.254 112.792 176.488 112.558L176.615 112.465L191.273 104.976C193.134 104.025 195.177 103.48 197.266 103.378C199.354 103.277 201.44 103.62 203.386 104.385C205.331 105.151 207.092 106.321 208.551 107.819C210.01 109.316 211.134 111.107 211.848 113.072L225.406 150.36L240.438 139.273L246.849 136.747L252.022 129.83L266.229 121.544L276.783 131.043L263.51 157.587L256.136 159.465L254.572 163.494L254.433 163.583L224.18 182.742Z" fill="#6C63FF"/>
<path d="M302.821 393.384H288.466C288.078 393.383 287.705 393.237 287.43 392.975C287.155 392.714 287 392.36 287 391.991V373.192C287 372.823 287.155 372.469 287.43 372.208C287.705 371.947 288.078 371.8 288.466 371.799H302.821C303.21 371.8 303.583 371.947 303.858 372.208C304.132 372.469 304.287 372.823 304.288 373.192V391.991C304.287 392.36 304.132 392.714 303.858 392.975C303.583 393.237 303.21 393.383 302.821 393.384Z" fill="#6C63FF"/>
<path d="M328.999 393.384H314.644C314.255 393.383 313.883 393.236 313.608 392.975C313.333 392.714 313.178 392.36 313.178 391.991V355.362C313.178 354.992 313.333 354.638 313.608 354.377C313.883 354.116 314.255 353.969 314.644 353.969H328.999C329.388 353.969 329.76 354.116 330.035 354.377C330.31 354.638 330.465 354.992 330.465 355.362V391.991C330.465 392.36 330.31 392.714 330.035 392.975C329.76 393.236 329.388 393.383 328.999 393.384Z" fill="#6C63FF"/>
<path d="M355.179 393.384H340.824C340.435 393.383 340.062 393.237 339.787 392.975C339.513 392.714 339.358 392.36 339.357 391.991V373.192C339.358 372.823 339.513 372.469 339.787 372.208C340.062 371.947 340.435 371.8 340.824 371.799H355.179C355.567 371.8 355.94 371.947 356.215 372.208C356.49 372.469 356.645 372.823 356.645 373.192V391.991C356.645 392.36 356.49 392.714 356.215 392.975C355.94 393.237 355.567 393.383 355.179 393.384Z" fill="#6C63FF"/>
<path d="M381.355 393.383H366.999C366.62 393.391 366.252 393.256 365.977 393.006C365.702 392.757 365.543 392.415 365.533 392.054V348.26C365.543 347.899 365.702 347.556 365.977 347.307C366.252 347.058 366.62 346.922 366.999 346.93H381.355C381.734 346.922 382.102 347.058 382.377 347.307C382.652 347.556 382.811 347.899 382.821 348.26V392.054C382.811 392.415 382.652 392.757 382.377 393.006C382.102 393.256 381.734 393.391 381.355 393.383Z" fill="#6C63FF"/>
<path d="M407.532 393.384H393.177C392.788 393.383 392.416 393.236 392.141 392.975C391.866 392.714 391.711 392.36 391.711 391.991V335.654C391.711 335.285 391.866 334.931 392.141 334.67C392.416 334.409 392.788 334.262 393.177 334.261H407.532C407.921 334.262 408.294 334.409 408.569 334.67C408.843 334.931 408.998 335.285 408.998 335.654V391.991C408.998 392.36 408.843 392.714 408.569 392.975C408.294 393.236 407.921 393.383 407.532 393.384Z" fill="#6C63FF"/>
<path d="M295.643 366.169C297.28 366.169 298.607 364.908 298.607 363.353C298.607 361.799 297.28 360.538 295.643 360.538C294.007 360.538 292.68 361.799 292.68 363.353C292.68 364.908 294.007 366.169 295.643 366.169Z" fill="#3F3D56"/>
<path d="M321.821 347.869C323.458 347.869 324.785 346.608 324.785 345.053C324.785 343.498 323.458 342.238 321.821 342.238C320.184 342.238 318.857 343.498 318.857 345.053C318.857 346.608 320.184 347.869 321.821 347.869Z" fill="#3F3D56"/>
<path d="M348.001 366.169C349.637 366.169 350.964 364.908 350.964 363.353C350.964 361.799 349.637 360.538 348.001 360.538C346.364 360.538 345.037 361.799 345.037 363.353C345.037 364.908 346.364 366.169 348.001 366.169Z" fill="#3F3D56"/>
<path d="M374.178 338.953C375.815 338.953 377.142 337.693 377.142 336.138C377.142 334.583 375.815 333.323 374.178 333.323C372.542 333.323 371.215 334.583 371.215 336.138C371.215 337.693 372.542 338.953 374.178 338.953Z" fill="#3F3D56"/>
<path d="M400.358 328.631C401.995 328.631 403.322 327.37 403.322 325.815C403.322 324.26 401.995 323 400.358 323C398.721 323 397.395 324.26 397.395 325.815C397.395 327.37 398.721 328.631 400.358 328.631Z" fill="#3F3D56"/>
<path d="M348.063 363.984L321.822 345.313L295.94 363.729L295.348 362.978L321.822 344.14L347.938 362.723L373.89 335.743L373.994 335.703L400.172 325.683L400.542 326.554L374.467 336.534L348.063 363.984Z" fill="#3F3D56"/>
<path d="M544.115 213.384H534.937C534.689 213.384 534.451 213.293 534.275 213.132C534.099 212.971 534 212.753 534 212.525V200.938C534 200.71 534.099 200.492 534.275 200.331C534.451 200.17 534.689 200.08 534.937 200.079H544.115C544.364 200.08 544.602 200.17 544.778 200.331C544.954 200.492 545.052 200.71 545.053 200.938V212.525C545.053 212.753 544.954 212.971 544.778 213.132C544.602 213.293 544.364 213.384 544.115 213.384Z" fill="#6C63FF"/>
<path d="M560.852 213.384H551.674C551.425 213.383 551.187 213.293 551.011 213.132C550.835 212.971 550.737 212.753 550.736 212.525V189.947C550.737 189.72 550.835 189.501 551.011 189.34C551.187 189.18 551.425 189.089 551.674 189.089H560.852C561.1 189.089 561.338 189.18 561.514 189.34C561.69 189.501 561.789 189.72 561.789 189.947V212.525C561.789 212.753 561.69 212.971 561.514 213.132C561.338 213.293 561.1 213.383 560.852 213.384Z" fill="#6C63FF"/>
<path d="M577.59 213.384H568.412C568.164 213.384 567.925 213.293 567.75 213.132C567.574 212.971 567.475 212.753 567.475 212.525V200.938C567.475 200.71 567.574 200.492 567.75 200.331C567.925 200.17 568.164 200.08 568.412 200.079H577.59C577.838 200.08 578.077 200.17 578.253 200.331C578.428 200.492 578.527 200.71 578.527 200.938V212.525C578.527 212.753 578.428 212.971 578.253 213.132C578.077 213.293 577.838 213.384 577.59 213.384Z" fill="#6C63FF"/>
<path d="M594.326 213.384H585.148C584.906 213.388 584.67 213.305 584.495 213.151C584.319 212.998 584.217 212.786 584.211 212.564V185.57C584.217 185.348 584.319 185.136 584.495 184.983C584.67 184.829 584.906 184.746 585.148 184.75H594.326C594.569 184.746 594.804 184.829 594.98 184.983C595.156 185.136 595.258 185.348 595.264 185.57V212.564C595.258 212.786 595.156 212.998 594.98 213.151C594.804 213.305 594.569 213.388 594.326 213.384Z" fill="#6C63FF"/>
<path d="M611.063 213.384H601.885C601.636 213.383 601.398 213.293 601.222 213.132C601.046 212.971 600.948 212.753 600.947 212.525V177.8C600.948 177.572 601.046 177.354 601.222 177.193C601.398 177.032 601.636 176.942 601.885 176.941H611.063C611.311 176.942 611.549 177.032 611.725 177.193C611.901 177.354 612 177.572 612 177.8V212.525C612 212.753 611.901 212.971 611.725 213.132C611.549 213.293 611.311 213.383 611.063 213.384Z" fill="#6C63FF"/>
<path d="M539.526 196.609C540.572 196.609 541.42 195.832 541.42 194.873C541.42 193.915 540.572 193.138 539.526 193.138C538.479 193.138 537.631 193.915 537.631 194.873C537.631 195.832 538.479 196.609 539.526 196.609Z" fill="#3F3D56"/>
<path d="M556.262 185.329C557.308 185.329 558.157 184.552 558.157 183.593C558.157 182.635 557.308 181.858 556.262 181.858C555.216 181.858 554.367 182.635 554.367 183.593C554.367 184.552 555.216 185.329 556.262 185.329Z" fill="#3F3D56"/>
<path d="M573 196.609C574.047 196.609 574.895 195.832 574.895 194.873C574.895 193.915 574.047 193.138 573 193.138C571.954 193.138 571.105 193.915 571.105 194.873C571.105 195.832 571.954 196.609 573 196.609Z" fill="#3F3D56"/>
<path d="M589.737 179.834C590.783 179.834 591.631 179.057 591.631 178.098C591.631 177.14 590.783 176.363 589.737 176.363C588.69 176.363 587.842 177.14 587.842 178.098C587.842 179.057 588.69 179.834 589.737 179.834Z" fill="#3F3D56"/>
<path d="M606.475 173.471C607.521 173.471 608.37 172.694 608.37 171.735C608.37 170.777 607.521 170 606.475 170C605.428 170 604.58 170.777 604.58 171.735C604.58 172.694 605.428 173.471 606.475 173.471Z" fill="#3F3D56"/>
<path d="M573.041 195.262L556.264 183.753L539.716 195.105L539.338 194.642L556.264 183.03L572.961 194.485L589.554 177.855L589.621 177.83L606.357 171.654L606.594 172.191L589.923 178.342L573.041 195.262Z" fill="#3F3D56"/>
<path d="M696.078 155.934H687.841C687.618 155.934 687.404 155.853 687.247 155.708C687.089 155.564 687 155.368 687 155.164V144.765C687 144.561 687.089 144.365 687.247 144.22C687.404 144.076 687.618 143.995 687.841 143.995H696.078C696.301 143.995 696.515 144.076 696.672 144.22C696.83 144.365 696.919 144.561 696.919 144.765V155.164C696.919 155.368 696.83 155.564 696.673 155.708C696.515 155.853 696.301 155.934 696.078 155.934Z" fill="#6C63FF"/>
<path d="M711.097 155.934H702.861C702.638 155.934 702.424 155.853 702.266 155.708C702.109 155.564 702.02 155.368 702.02 155.164V134.901C702.02 134.697 702.109 134.501 702.266 134.357C702.424 134.212 702.638 134.131 702.861 134.131H711.097C711.32 134.131 711.534 134.212 711.692 134.357C711.85 134.501 711.938 134.697 711.939 134.901V155.164C711.938 155.368 711.85 155.564 711.692 155.708C711.534 155.853 711.32 155.934 711.097 155.934Z" fill="#6C63FF"/>
<path d="M726.119 155.934H717.882C717.659 155.934 717.445 155.853 717.288 155.708C717.13 155.564 717.041 155.368 717.041 155.164V144.765C717.041 144.561 717.13 144.365 717.288 144.22C717.445 144.076 717.659 143.995 717.882 143.995H726.119C726.342 143.995 726.556 144.076 726.714 144.22C726.871 144.365 726.96 144.561 726.96 144.765V155.164C726.96 155.368 726.871 155.564 726.714 155.708C726.556 155.853 726.342 155.934 726.119 155.934Z" fill="#6C63FF"/>
<path d="M741.138 155.934H732.902C732.684 155.938 732.473 155.863 732.315 155.726C732.158 155.588 732.066 155.398 732.061 155.199V130.973C732.066 130.773 732.158 130.584 732.315 130.446C732.473 130.308 732.684 130.233 732.902 130.237H741.138C741.356 130.233 741.567 130.308 741.725 130.446C741.883 130.584 741.974 130.773 741.98 130.973V155.199C741.974 155.398 741.883 155.588 741.725 155.726C741.567 155.863 741.356 155.938 741.138 155.934Z" fill="#6C63FF"/>
<path d="M756.16 155.934H747.923C747.7 155.934 747.486 155.853 747.329 155.708C747.171 155.564 747.082 155.368 747.082 155.164V124C747.082 123.796 747.171 123.6 747.329 123.455C747.486 123.311 747.7 123.23 747.923 123.229H756.16C756.383 123.23 756.597 123.311 756.755 123.455C756.912 123.6 757.001 123.796 757.001 124V155.164C757.001 155.368 756.912 155.564 756.755 155.708C756.597 155.853 756.383 155.934 756.16 155.934Z" fill="#6C63FF"/>
<path d="M691.958 140.88C692.897 140.88 693.659 140.183 693.659 139.322C693.659 138.462 692.897 137.765 691.958 137.765C691.019 137.765 690.258 138.462 690.258 139.322C690.258 140.183 691.019 140.88 691.958 140.88Z" fill="#3F3D56"/>
<path d="M706.978 130.757C707.917 130.757 708.678 130.059 708.678 129.199C708.678 128.339 707.917 127.642 706.978 127.642C706.039 127.642 705.277 128.339 705.277 129.199C705.277 130.059 706.039 130.757 706.978 130.757Z" fill="#3F3D56"/>
<path d="M722.001 140.88C722.94 140.88 723.702 140.183 723.702 139.322C723.702 138.462 722.94 137.765 722.001 137.765C721.062 137.765 720.301 138.462 720.301 139.322C720.301 140.183 721.062 140.88 722.001 140.88Z" fill="#3F3D56"/>
<path d="M737.021 125.825C737.96 125.825 738.721 125.128 738.721 124.268C738.721 123.407 737.96 122.71 737.021 122.71C736.082 122.71 735.32 123.407 735.32 124.268C735.32 125.128 736.082 125.825 737.021 125.825Z" fill="#3F3D56"/>
<path d="M752.042 120.115C752.981 120.115 753.743 119.417 753.743 118.557C753.743 117.697 752.981 117 752.042 117C751.103 117 750.342 117.697 750.342 118.557C750.342 119.417 751.103 120.115 752.042 120.115Z" fill="#3F3D56"/>
<path d="M722.038 139.671L706.982 129.343L692.131 139.53L691.791 139.115L706.982 128.694L721.966 138.974L736.857 124.049L736.917 124.027L751.937 118.484L752.149 118.966L737.188 124.487L722.038 139.671Z" fill="#3F3D56"/>
</g>
<defs>
<clipPath id="clip0_391_4934">
<rect width="785.166" height="507.754" fill="white"/>
</clipPath>
</defs>
</svg>
