<svg xmlns="http://www.w3.org/2000/svg" width="32" height="32" id="construction"><g transform="translate(264 -1166.362)"><path d="M-240.5 1170.697v-2.835h-14.045l-4.955 4.966v14.034h2.783m2.172-14.033" style="isolation:auto;mix-blend-mode:normal;solid-color:#000;solid-opacity:1" fill="#e9eded" color="#000" enable-background="accumulate" overflow="visible"></path><path d="m-237.5 1167.863-23 23h23v-23zm-3 7.466v12.534h-12.531l12.531-12.534z" style="isolation:auto;mix-blend-mode:normal;solid-color:#000;solid-opacity:1" fill="#c9dcfb" stroke="#000" stroke-linejoin="round" color="#000" enable-background="accumulate" overflow="visible"></path><rect width="16" height="4" x="-256.5" y="1192.862" fill="#f44336" stroke="#000" stroke-linejoin="round" color="#000" enable-background="accumulate" overflow="visible" rx="0" ry="0" style="isolation:auto;mix-blend-mode:normal;solid-color:#000;solid-opacity:1"></rect><path style="isolation:auto;mix-blend-mode:normal;solid-color:#000;solid-opacity:1" fill="#e9eded" stroke="#000" stroke-linejoin="round" d="M-240.5 1192.862v4h2.5c.831 0 1.5-.669 1.5-1.5v-1c0-.83-.669-1.5-1.5-1.5h-2.5z" color="#000" enable-background="accumulate" overflow="visible"></path><path style="isolation:auto;mix-blend-mode:normal;solid-color:#000;solid-opacity:1" fill="#ffd384" stroke="#000" stroke-linejoin="round" d="M-256.5 1192.862v4l-4-2z" color="#000" enable-background="accumulate" overflow="visible"></path><path fill="none" stroke="#000" d="M-256 1194.862h15"></path><path style="isolation:auto;mix-blend-mode:normal;solid-color:#000;solid-opacity:1" fill="#b0bec5" stroke="#000" stroke-linecap="round" stroke-linejoin="round" d="M-254.5 1167.896v4.966h0-4.955" color="#000" enable-background="accumulate" overflow="visible"></path><path fill="none" stroke="#000" stroke-linecap="round" d="M-251.493 1170.862h7.993M-251.493 1173.862h7.993M-256.493 1176.862h9.95M-256.493 1179.862h6.92M-256.493 1182.862h3.954"></path><path fill="none" stroke="#000" d="M-237 1187.862h-2M-237 1185.862h-2M-237 1183.862h-2M-237 1181.862h-2M-237 1179.862h-2M-237 1177.862h-2M-237 1175.862h-2M-237 1173.862h-2M-240.5 1189.362v2M-242.5 1189.362v2M-244.5 1189.362v2M-246.5 1189.362v2M-248.5 1189.362v2M-250.5 1189.362v2M-252.5 1189.362v2M-254.5 1189.362v2M-256.5 1189.362v2M-237 1171.862h-2"></path><path style="isolation:auto;mix-blend-mode:normal;solid-color:#000;solid-opacity:1" fill="none" stroke="#000" stroke-linecap="round" stroke-linejoin="round" d="M-240.5 1170.697v-2.835h-14.045l-4.955 4.966v14.034h2.783" color="#000" enable-background="accumulate" overflow="visible"></path></g></svg>