<svg id="Repair_Service" height="512" viewBox="0 0 64 64" width="512" xmlns="http://www.w3.org/2000/svg" data-name="Repair Service"><path d="m48 61v-10.54a5.991 5.991 0 0 0 -4.28-5.74l-2.16-.65a5.007 5.007 0 0 1 -3.56-4.79v-5.28h-12v5.28a5.007 5.007 0 0 1 -3.56 4.79l-2.16.65a5.991 5.991 0 0 0 -4.28 5.74v10.54z" fill="#365e7d"/><path d="m40.71 43.72a13.2 13.2 0 0 1 -17.42 0 4.986 4.986 0 0 0 2.71-4.44v-5.28h12v5.28a4.986 4.986 0 0 0 2.71 4.44z" fill="#ffcbbe"/><path d="m32 39a10 10 0 0 1 -10-10v-13h20v13a10 10 0 0 1 -10 10z" fill="#ffddce"/><path d="m20 19h2a0 0 0 0 1 0 0v5a0 0 0 0 1 0 0h-2a2 2 0 0 1 -2-2v-1a2 2 0 0 1 2-2z" fill="#ffcbbe"/><path d="m44 19h2a0 0 0 0 1 0 0v5a0 0 0 0 1 0 0h-2a2 2 0 0 1 -2-2v-1a2 2 0 0 1 2-2z" fill="#ffcbbe" transform="matrix(-1 0 0 -1 88 43)"/><path d="m35 31c0 1.1-1.343 2-3 2s-3-.9-3-2" fill="none"/><path d="m43 19h-22v-5a11 11 0 0 1 11-11 11 11 0 0 1 11 11z" fill="#365e7d"/><path d="m42 19h-20l3-6h13z" fill="#a7daf7"/><path d="m11 27.34v5.66l2 1 2-1v-5.65a5.99 5.99 0 0 1 2.186 9.944 3.936 3.936 0 0 0 -1.186 2.826v16.88h-6v-16.87a4.061 4.061 0 0 0 -1.227-2.877 5.991 5.991 0 0 1 2.227-9.913z" fill="#d8d7da"/><path d="m45 44v17h-26v-16l5-2 1 9h14l1-9z" fill="#ffc740"/><path d="m8 49h3a0 0 0 0 1 0 0v5a0 0 0 0 1 0 0h-5a0 0 0 0 1 0 0v-3a2 2 0 0 1 2-2z" fill="#ffddce"/><path d="m12 61h-6v-8h6a4 4 0 0 1 4 4 4 4 0 0 1 -4 4z" fill="#ffddce"/><path d="m48 44h6a0 0 0 0 1 0 0v11a3 3 0 0 1 -3 3 3 3 0 0 1 -3-3v-11a0 0 0 0 1 0 0z" fill="#8cc63e"/><path d="m53 35v9h-4v-9l-1-1 1-6h4l1 6z" fill="#e9e9ea"/><path d="m53 49h5a0 0 0 0 1 0 0v5a0 0 0 0 1 0 0h-3a2 2 0 0 1 -2-2v-3a0 0 0 0 1 0 0z" fill="#ffddce" transform="matrix(-1 0 0 -1 111 103)"/><path d="m52 61h6v-8h-6a4 4 0 0 0 -4 4 4 4 0 0 0 4 4z" fill="#ffddce"/><path d="m23 57h19v4h-19z" fill="#ffaf40"/><path d="m28 26a1 1 0 0 0 1-1v-1a1 1 0 0 0 -2 0v1a1 1 0 0 0 1 1z"/><path d="m36 26a1 1 0 0 0 1-1v-1a1 1 0 0 0 -2 0v1a1 1 0 0 0 1 1z"/><path d="m32 34c2.243 0 4-1.318 4-3h-2c0 .408-.779 1-2 1s-2-.592-2-1h-2c0 1.682 1.757 3 4 3z"/><path d="m56 48h-1v-4a1 1 0 0 0 -1-1v-7.59l.71-.7a1.011 1.011 0 0 0 .28-.87l-1-6a1 1 0 0 0 -.99-.84h-4a1 1 0 0 0 -.99.84l-1 6a1.011 1.011 0 0 0 .28.87l.71.7v7.59a1 1 0 0 0 -1 1v1.57a7.028 7.028 0 0 0 -2.99-1.81l-2.16-.65a3.978 3.978 0 0 1 -2.85-3.83v-1.8a10.988 10.988 0 0 0 4-8.48v-4h1a3.009 3.009 0 0 0 3-3v-1a3.009 3.009 0 0 0 -3-3v-4a12 12 0 0 0 -24 0v4a3.009 3.009 0 0 0 -3 3v1a3.009 3.009 0 0 0 3 3h1v4a10.988 10.988 0 0 0 4 8.48v1.8a3.978 3.978 0 0 1 -2.85 3.83l-2.16.65a7.028 7.028 0 0 0 -2.99 1.81v-5.45a2.909 2.909 0 0 1 .89-2.11 6.991 6.991 0 0 0 -2.56-11.6.99.99 0 0 0 -1.33.94v5.03l-1 .5-1-.5v-5.04a.99.99 0 0 0 -1.33-.94 6.99 6.99 0 0 0 -2.61 11.56 3.035 3.035 0 0 1 .94 2.17v7.87h-1a3.009 3.009 0 0 0 -3 3v10a1 1 0 0 0 1 1h6a4.924 4.924 0 0 0 3-1.03v.03a1 1 0 0 0 1 1h32a1 1 0 0 0 1-1v-.03a4.924 4.924 0 0 0 3 1.03h6a1 1 0 0 0 1-1v-10a3.009 3.009 0 0 0 -3-3zm-13-28h1a1 1 0 0 1 1 1v1a1 1 0 0 1 -1 1h-1zm-36 31a1 1 0 0 1 1-1h2v2h-3zm5 9h-5v-6h5a3 3 0 0 1 0 6zm3-19.88v12.91a4.924 4.924 0 0 0 -3-1.03v-3a1 1 0 0 0 -1-1v-7.87a5.04 5.04 0 0 0 -1.53-3.59 4.988 4.988 0 0 1 .53-7.54v4a.977.977 0 0 0 .55.89l2 1a.956.956 0 0 0 .9 0l2-1a.977.977 0 0 0 .55-.89v-4a5.025 5.025 0 0 1 2 4 4.936 4.936 0 0 1 -1.51 3.57 4.929 4.929 0 0 0 -1.49 3.55zm3 19.88h-1v-9.54a4.985 4.985 0 0 1 1-3zm3-37h-1a1 1 0 0 1 -1-1v-1a1 1 0 0 1 1-1h1zm1-9a10 10 0 0 1 20 0v3.2l-3.17-4.75a1 1 0 0 0 -.83-.45h-13a.988.988 0 0 0 -.89.55l-2.11 4.21zm18.13 4h-16.51l2-4h11.84zm-17.13 11v-9h18v9a9 9 0 0 1 -18 0zm9 17a12.03 12.03 0 0 1 -6.9-2.11l-.02-.22a5.929 5.929 0 0 0 1.92-4.39v-.49a10.936 10.936 0 0 0 10 0v.49a5.929 5.929 0 0 0 1.92 4.39l-.02.22a12.03 12.03 0 0 1 -6.9 2.11zm6.62.39-.52 4.61h-12.2l-.52-4.61a14.415 14.415 0 0 0 13.24 0zm1.38 13.61h-16v-2h16zm4 0h-2v-3a1 1 0 0 0 -1-1h-18a1 1 0 0 0 -1 1v3h-2v-14.1a5.594 5.594 0 0 1 .57-.22l2.16-.65c.13-.04.26-.11.39-.15a.647.647 0 0 1 .09.08l.8 7.15a.989.989 0 0 0 .99.89h14a.989.989 0 0 0 .99-.89l.8-7.15a.647.647 0 0 1 .09-.08c.13.04.26.11.39.15l2.16.65a4.816 4.816 0 0 1 .57.22zm3 0h-1v-12.54a4.985 4.985 0 0 1 1 3zm2.85-31h2.3l.78 4.66-.64.63a1.033 1.033 0 0 0 -.29.71v8h-2v-8a1.033 1.033 0 0 0 -.29-.71l-.64-.63zm-.85 16h4v3a1 1 0 0 0 -1 1v3a4.924 4.924 0 0 0 -3 1.03zm8 15h-5a3 3 0 0 1 0-6h5zm0-8h-3v-2h2a1 1 0 0 1 1 1z"/></svg>