<svg xmlns="http://www.w3.org/2000/svg" viewBox="0 0 101.01 115.48" id="e-learning"><g data-name="Layer 2"><g data-name="Layer 1"><path d="M10.61 5.71a4.11 4.11 0 1 0 4.11 4.11 4.12 4.12 0 0 0-4.11-4.11zm0 5.75a1.64 1.64 0 1 1 1.64-1.64 1.64 1.64 0 0 1-1.64 1.64zm14.01-4.55a4.11 4.11 0 1 0 1.21 2.91 4.08 4.08 0 0 0-1.21-2.91zm-2.9 4.55a1.64 1.64 0 1 1 1.64-1.64 1.63 1.63 0 0 1-1.64 1.64zm11.11-5.75a4.11 4.11 0 1 0 4.11 4.11 4.11 4.11 0 0 0-4.11-4.11zm0 5.75a1.64 1.64 0 1 1 1.64-1.64 1.64 1.64 0 0 1-1.64 1.64z"></path><path d="M50.69 98.54V101h2.24v-2.46Zm-33 0V101h2.21v-2.46ZM94.72 0H6.29A6.29 6.29 0 0 0 0 6.29v88.43A6.29 6.29 0 0 0 6.29 101h6.58v-2.46H6.29a3.82 3.82 0 0 1-3.82-3.82v-75h96.07v75a3.82 3.82 0 0 1-3.82 3.82h-3.94V101h4a6.29 6.29 0 0 0 6.22-6.28V6.29A6.29 6.29 0 0 0 94.72 0Zm3.82 17.26H2.47v-11a3.82 3.82 0 0 1 3.82-3.79h88.43a3.82 3.82 0 0 1 3.82 3.82ZM83.68 98.54V101H86v-2.46Z"></path><path fill="#76d1ff" d="M94.72 2.47H6.29a3.82 3.82 0 0 0-3.82 3.82v11h96.07v-11a3.82 3.82 0 0 0-3.82-3.82ZM10.61 13.93a4.11 4.11 0 1 1 4.11-4.11 4.12 4.12 0 0 1-4.11 4.11Zm11.11 0a4.11 4.11 0 1 1 4.11-4.11 4.11 4.11 0 0 1-4.11 4.11Zm11.11 0a4.11 4.11 0 1 1 4.11-4.11 4.11 4.11 0 0 1-4.11 4.11Z"></path><path fill="#f7941e" d="M34.47 9.82a1.64 1.64 0 1 1-1.64-1.64 1.63 1.63 0 0 1 1.64 1.64Z"></path><path fill="#39b54a" d="M23.36 9.82a1.64 1.64 0 1 1-1.64-1.64 1.64 1.64 0 0 1 1.64 1.64Z"></path><path fill="#f15a29" d="M12.25 9.82a1.64 1.64 0 1 1-1.64-1.64 1.64 1.64 0 0 1 1.64 1.64Z"></path><path d="M91.89 61.65h-6v-2.38a1.11 1.11 0 0 0-.81-1.13c-.74-.19-1.48-.37-2.22-.52s-1.58-.31-2.38-.43l-.94-.13h-.22c-.39 0-.78-.1-1.18-.13l-.81-.08h-.25c-.52 0-1-.07-1.57-.09s-1.22 0-1.83 0h-2.62c-.79 0-1.61.12-2.44.23l-1.26.18c-.42.07-.85.14-1.28.23s-.87.18-1.3.29-.88.22-1.31.35-.83.24-1.24.38l-.74.26c-.86.32-1.72.68-2.57 1.09-.54.26-1.07.54-1.6.85-.22.12-.45.26-.67.4l-.67.43-.67.46-.58.43c-.29.21-.57.44-.85.67l-.59.51c-.39.34-.77.71-1.15 1.09l-.34.39-.36-.37C45.11 58 36.3 56.67 30 56.67h-.1a45.26 45.26 0 0 0-11.41 1.47 1.11 1.11 0 0 0-.79 1.11v2.38h-5.94a1.12 1.12 0 0 0-1.12 1.12v51.61a1.12 1.12 0 0 0 1.12 1.12 1.07 1.07 0 0 0 .54-.15c1-.55 10.24-5.2 23.94-5.2A63 63 0 0 1 51.49 112h.32a1.28 1.28 0 0 0 .33 0 62.28 62.28 0 0 1 15.38-1.94c13.15 0 22.41 4.38 23.8 5.26a1.12 1.12 0 0 0 1.68-1V62.76a1.12 1.12 0 0 0-1.11-1.11Zm-49 46.65a57.71 57.71 0 0 0-7.07-.43 58.61 58.61 0 0 0-22.3 4.38l-.69.29V63.88h4.86v41a1.14 1.14 0 0 0 .32.8 1.11 1.11 0 0 0 .79.33.58.58 0 0 0 .18 0 72 72 0 0 1 10.17-.82h.73a42.48 42.48 0 0 1 13.23 2.11Zm7-.23c-3.53-2.31-10-5.07-20.73-5.07a71 71 0 0 0-8.73.56l-.56.07V60.15l.39-.09A45.18 45.18 0 0 1 30 59c6.1 0 14.62 1.41 20.54 8.09l.13.14v41.33Zm3 .49V67.21l.13-.14c.19-.21.38-.42.57-.61s.38-.4.58-.58l.62-.58.51-.44A22.66 22.66 0 0 1 57.94 63c.21-.14.43-.27.65-.39.51-.3 1-.57 1.56-.82.37-.18.74-.35 1.11-.5h.06c.38-.16.76-.31 1.14-.44l.31-.11a4.73 4.73 0 0 1 .53-.18q.65-.22 1.29-.39l.22-.06c.39-.11.77-.2 1.16-.28h.09c.44-.11.87-.19 1.3-.26s.86-.15 1.29-.21c.36 0 .72-.1 1.07-.12l1.46-.24h2.42a45.82 45.82 0 0 1 9.69 1.08l.39.09v43.48l-.56-.07a72 72 0 0 0-8.68-.58c-10.63 0-17.15 2.76-20.74 5.08ZM90.77 101v11.53l-.69-.29a58.67 58.67 0 0 0-29.44-4l-.21-1a42.81 42.81 0 0 1 14-2.11 71.6 71.6 0 0 1 10.23.8 1.12 1.12 0 0 0 1.27-.93 1.09 1.09 0 0 0 0-.18v-41h4.86v34.66Z"></path><path fill="#f7941e" d="m43.15 107.32-.22 1a57.71 57.71 0 0 0-7.07-.43 58.61 58.61 0 0 0-22.3 4.38l-.69.29V63.88h4.86v41a1.14 1.14 0 0 0 .32.8 1.11 1.11 0 0 0 .79.33.59.59 0 0 0 .18 0 72 72 0 0 1 10.17-.82h.73a42.48 42.48 0 0 1 13.23 2.13Z"></path><path fill="#f7941e" d="M50.67 84.8A122.16 122.16 0 0 1 19.9 103V60.15l.39-.09A45.18 45.18 0 0 1 30 59c6.1 0 14.62 1.41 20.54 8.09l.13.14Z"></path><path fill="#e2821a" d="M83.68 60.15v43.48l-.56-.07a72 72 0 0 0-8.68-.58c-10.63 0-17.15 2.76-20.74 5.08l-.77.5V82.87A74.93 74.93 0 0 0 71.18 59h2.42a45.82 45.82 0 0 1 9.69 1.08Z"></path><path fill="#f7941e" d="M71.18 59a74.93 74.93 0 0 1-18.25 23.87V67.21l.13-.14.57-.61.58-.58.62-.58.51-.44a22.66 22.66 0 0 1 2.6-1.86l.65-.39c.51-.3 1-.57 1.56-.82.37-.18.74-.34 1.11-.5h.06l1.14-.44.31-.11.53-.18 1.29-.39.22-.06c.39-.1.78-.2 1.16-.28h.09c.44-.1.87-.18 1.3-.26s.86-.14 1.29-.21l1.07-.12zm19.64 4.88v48.66l-.69-.29a58.67 58.67 0 0 0-29.44-4l-.21-1a42.81 42.81 0 0 1 14-2.11 71.59 71.59 0 0 1 10.23.8 1.12 1.12 0 0 0 1.27-.93 1.09 1.09 0 0 0 0-.18v-41z"></path><path d="M56 28.61a1.24 1.24 0 0 1-1.23 1.24H10.81a1.23 1.23 0 1 1 0-2.47h43.91A1.23 1.23 0 0 1 56 28.61zm37 7a1.24 1.24 0 0 1-1.23 1.24h-81a1.23 1.23 0 1 1 0-2.47h81A1.23 1.23 0 0 1 93 35.61zm0 7a1.24 1.24 0 0 1-1.23 1.24h-81a1.23 1.23 0 1 1 0-2.47h81A1.23 1.23 0 0 1 93 42.61z"></path><path fill="#76d1ff" d="M70.23 51h6a1.12 1.12 0 0 1 1.12 1.11v4.73a44.63 44.63 0 0 1 5.53.8v-6.79H70.23ZM10.81 34.38h72.06V19.73H2.47v27.92a1.06 1.06 0 0 1 .35-.18A45.26 45.26 0 0 1 14.23 46h.12a35 35 0 0 1 13.13 2.38h55.39v-4.53H10.81a1.23 1.23 0 1 1 0-2.47h72.06v-4.53H10.81a1.23 1.23 0 1 1 0-2.47ZM56 28.61a1.24 1.24 0 0 1-1.23 1.24H10.81a1.23 1.23 0 1 1 0-2.47h43.91A1.23 1.23 0 0 1 56 28.61ZM35.77 53.93l.36.37.35-.37a24.06 24.06 0 0 1 3.71-3.08h-8.08a23.27 23.27 0 0 1 3.66 3.08Z"></path><path fill="#45add6" d="M77.34 52.09v4.73c-1.21-.1-2.43-.15-3.65-.15h-.11c-6.22 0-15 1.38-21.43 7.93l-.35.4-.36-.37C45.11 58 36.3 56.67 30 56.67h-.1a45.26 45.26 0 0 0-11.41 1.47 1.11 1.11 0 0 0-.79 1.11v2.38h-5.94a1.12 1.12 0 0 0-1.12 1.12v35.79H6.29a3.82 3.82 0 0 1-3.82-3.82V47.65a1.06 1.06 0 0 1 .35-.18A45.26 45.26 0 0 1 14.23 46h.12a35 35 0 0 1 13.13 2.38H10.81a1.23 1.23 0 1 0 0 2.47h21.3a23.27 23.27 0 0 1 3.66 3.08l.36.37.35-.37a24.06 24.06 0 0 1 3.71-3.08h30V51h6a1.12 1.12 0 0 1 1.15 1.09zm21.2-32.36v75a3.82 3.82 0 0 1-3.82 3.82H93V62.76a1.12 1.12 0 0 0-1.12-1.11h-6v-2.38a1.11 1.11 0 0 0-.81-1.13c-.74-.19-1.48-.37-2.22-.52v-6.77h8.91a1.23 1.23 0 0 0 0-2.47h-8.89v-4.53h8.91a1.23 1.23 0 0 0 0-2.47h-8.91v-4.53h8.91a1.23 1.23 0 0 0 0-2.47h-8.91V19.73z"></path><path d="M93 49.61a1.24 1.24 0 0 1-1.23 1.24h-81a1.23 1.23 0 1 1 0-2.47h81A1.23 1.23 0 0 1 93 49.61Z"></path><path fill="#e2821a" d="m50.7 108.58-.78-.51c-3.53-2.31-10-5.07-20.73-5.07a71 71 0 0 0-8.73.56l-.56.07V103a122.16 122.16 0 0 0 30.77-18.2V108.54Z"></path><path fill="none" d="M52.93 82.87c-.75.66-1.5 1.3-2.26 1.93"></path></g></g></svg>