<svg width="802" height="598" viewBox="0 0 802 598" fill="none" xmlns="http://www.w3.org/2000/svg">
<g clip-path="url(#clip0_391_5089)">
<path d="M403.315 60.934C413.772 60.934 422.249 52.457 422.249 42C422.249 31.543 413.772 23.0659 403.315 23.0659C392.858 23.0659 384.381 31.543 384.381 42C384.381 52.457 392.858 60.934 403.315 60.934Z" fill="#6C63FF"/>
<path d="M401.438 49.2228C401.012 49.2235 400.598 49.0857 400.257 48.8302L400.236 48.8143L395.786 45.4104C394.919 44.7459 394.755 43.5047 395.42 42.6379C396.084 41.7712 397.326 41.6072 398.192 42.2717L401.075 44.4819L407.885 35.5965C408.55 34.7301 409.79 34.5663 410.657 35.2304L410.615 35.2896L410.658 35.2309C411.524 35.8959 411.687 37.136 411.024 38.0027L403.013 48.4493C402.637 48.9371 402.056 49.2222 401.44 49.2204L401.438 49.2228Z" fill="white"/>
<path d="M403.315 188.934C413.772 188.934 422.249 180.457 422.249 170C422.249 159.543 413.772 151.066 403.315 151.066C392.858 151.066 384.381 159.543 384.381 170C384.381 180.457 392.858 188.934 403.315 188.934Z" fill="#6C63FF"/>
<path d="M401.438 177.223C401.012 177.223 400.598 177.086 400.257 176.83L400.236 176.814L395.786 173.41C394.919 172.746 394.755 171.505 395.42 170.638C396.084 169.771 397.326 169.607 398.192 170.272L401.075 172.482L407.885 163.596C408.55 162.73 409.79 162.566 410.657 163.23L410.615 163.29L410.658 163.231C411.524 163.896 411.687 165.136 411.024 166.003L403.013 176.449C402.637 176.937 402.056 177.222 401.44 177.22L401.438 177.223Z" fill="white"/>
<path d="M409.864 282.959C409.632 277.029 414.251 272.033 420.181 271.801C420.813 271.776 421.446 271.807 422.073 271.894L439.414 237.872L449.212 255.128L431.243 284.79C430.037 290.634 424.322 294.393 418.478 293.187C413.588 292.178 410.027 287.949 409.864 282.959Z" fill="#FFB7B7"/>
<path d="M490.71 497.194L477.101 497.193L470.627 444.702L490.712 444.703L490.71 497.194Z" fill="#FFB7B7"/>
<path d="M494.179 510.385L450.299 510.384V509.829C450.299 500.396 457.946 492.75 467.378 492.75H467.379L494.18 492.751L494.179 510.385Z" fill="#2F2E41"/>
<path d="M564.483 497.194L550.874 497.193L544.4 444.702L564.485 444.703L564.483 497.194Z" fill="#FFB7B7"/>
<path d="M567.953 510.385L524.072 510.384V509.829C524.073 500.396 531.719 492.75 541.152 492.75H541.153L567.954 492.751L567.953 510.385Z" fill="#2F2E41"/>
<path d="M430.767 253.349L424.826 263.25C424.826 263.25 434.728 263.25 436.708 278.102L444.629 268.201L430.767 253.349Z" fill="#E5E5E5"/>
<path d="M534.732 232.556C534.732 232.556 550.574 274.142 553.544 299.886C556.515 325.63 561.466 393.95 561.466 393.95L571.367 482.073L543.643 486.034L531.761 396.92L505.027 308.797L499.086 396.92L494.135 477.122L468.392 478.112L466.411 394.94L455.52 288.994L461.46 238.496L534.732 232.556Z" fill="#2F2E41"/>
<path d="M515.424 106.312L525.326 113.242L538.198 242.952L457.996 244.932L468.888 154.829L478.789 129.085L485.936 119.636L515.424 106.312Z" fill="#E5E5E5"/>
<path d="M517.404 199.386L520.434 109.819C520.434 109.819 526.316 110.272 528.296 113.243C530.276 116.213 562.951 122.154 562.951 122.154L557.01 214.238C557.01 214.238 581.764 287.509 572.853 291.47C563.941 295.43 548.099 294.44 548.099 294.44L517.404 199.386Z" fill="#2F2E41"/>
<path d="M469.383 187.999L479.886 127.634L456.511 143.442L462.451 187.009L457.501 216.713C457.501 216.713 438.688 298.896 444.629 301.866C450.57 304.837 457.501 301.866 457.501 301.866L469.383 218.694V187.999Z" fill="#2F2E41"/>
<path d="M463.442 141.462L456.511 143.442L453.54 183.048L448.59 217.703L424.826 260.28C424.826 260.28 436.708 252.359 441.659 275.132L467.829 229.568L463.442 141.462Z" fill="#2F2E41"/>
<path d="M517.3 274.839C518.223 268.976 523.724 264.972 529.586 265.896C530.211 265.994 530.826 266.148 531.425 266.354L555.04 236.345L561.303 255.175L537.917 280.785C535.599 286.284 529.263 288.862 523.764 286.544C519.164 284.605 516.491 279.766 517.3 274.839Z" fill="#FFB7B7"/>
<path d="M557.506 264.24L548.595 275.132L536.713 254.339L541.663 245.428L557.506 264.24Z" fill="#E5E5E5"/>
<path d="M555.526 125.619L563.447 121.659C563.447 121.659 569.388 129.58 570.378 136.511C571.368 143.442 576.319 152.353 576.319 157.304C576.319 162.255 590.181 208.792 590.181 208.792L558.496 273.152C558.496 273.152 551.565 249.388 536.713 247.408L561.467 212.753L547.604 187.999L555.526 125.619Z" fill="#2F2E41"/>
<path d="M726.922 510.996H345.922C345.37 510.996 344.922 510.548 344.922 509.996C344.922 509.444 345.37 508.996 345.922 508.996H726.922C727.474 508.996 727.922 509.444 727.922 509.996C727.922 510.548 727.474 510.996 726.922 510.996Z" fill="#CBCBCB"/>
<path d="M365 212H0V128H365V212Z" fill="white"/>
<path d="M52.6775 155.774C50.7133 155.774 49.1211 157.367 49.1211 159.331C49.1211 161.295 50.7133 162.887 52.6775 162.887H312.337C314.301 162.887 315.893 161.295 315.893 159.331C315.893 157.367 314.301 155.774 312.337 155.774H52.6775Z" fill="#6C63FF"/>
<path d="M52.6772 177.113C50.713 177.109 49.1174 178.698 49.1133 180.662C49.1091 182.626 50.698 184.221 52.6622 184.226H216.822C218.786 184.226 220.378 182.633 220.378 180.669C220.378 178.705 218.786 177.113 216.822 177.113L52.6772 177.113Z" fill="#6C63FF"/>
<path d="M365 212H0V128H365V212ZM6 206H359V134H6V206Z" fill="#E5E5E5"/>
<path d="M365 340H0V256H365V340Z" fill="white"/>
<path d="M52.6775 283.774C50.7133 283.774 49.1211 285.367 49.1211 287.331C49.1211 289.295 50.7133 290.887 52.6775 290.887H312.337C314.301 290.887 315.893 289.295 315.893 287.331C315.893 285.367 314.301 283.774 312.337 283.774H52.6775Z" fill="#E6E6E6"/>
<path d="M52.6772 305.113C50.713 305.109 49.1174 306.698 49.1133 308.662C49.1091 310.626 50.698 312.221 52.6622 312.226H216.822C218.786 312.226 220.378 310.633 220.378 308.669C220.378 306.705 218.786 305.113 216.822 305.113H52.6772Z" fill="#E6E6E6"/>
<path d="M365 340H0V256H365V340ZM6 334H359V262H6V334Z" fill="#E5E5E5"/>
<path d="M368 84H3V0H368V84Z" fill="white"/>
<path d="M55.6769 27.7744C53.7127 27.778 52.1234 29.3732 52.127 31.3373C52.1305 33.2964 53.7178 34.8837 55.6769 34.8872H315.336C317.3 34.8836 318.89 33.2885 318.886 31.3243C318.883 29.3653 317.295 27.778 315.336 27.7744H55.6769Z" fill="#6C63FF"/>
<path d="M55.6772 49.1128C53.713 49.1087 52.1174 50.6976 52.1133 52.6617C52.1092 54.6259 53.698 56.2215 55.6622 56.2256H219.822C221.786 56.2292 223.381 54.6398 223.384 52.6757C223.388 50.7115 221.799 49.1164 219.834 49.1128C219.83 49.1128 219.826 49.1128 219.822 49.1128L55.6772 49.1128Z" fill="#6C63FF"/>
<path d="M368 84H3V0H368V84ZM9 78H362V6H9V78Z" fill="#E5E5E5"/>
<path d="M739.248 597.457V525.117C739.248 525.117 767.44 576.403 739.248 597.457Z" fill="#F1F1F1"/>
<path d="M740.989 597.445L687.699 548.523C687.699 548.523 744.544 562.439 740.989 597.445Z" fill="#F1F1F1"/>
<path d="M487.587 107.953C502.556 107.953 514.69 95.8186 514.69 80.8501C514.69 65.8815 502.556 53.7471 487.587 53.7471C472.619 53.7471 460.484 65.8815 460.484 80.8501C460.484 95.8186 472.619 107.953 487.587 107.953Z" fill="#FFB6B6"/>
<path d="M511.262 101.674C511.262 101.674 519.289 85.4166 519.146 79.21C519.003 73.0034 514.617 57.0318 512.767 55.9785C510.916 54.9253 490.957 44.7916 485.548 47.8385C480.139 50.8853 470.62 61.3067 460.353 64.1261C457.449 64.9235 459.984 79.842 459.984 79.842L471.999 78.1041C471.999 78.1041 484.525 66.857 485.066 74.5156C485.608 82.1742 497.224 78.9844 497.224 78.9844L497.367 85.191L502.121 85.4468L503.43 78.8414C503.43 78.8414 505.567 92.3079 502.806 99.3119C500.045 106.316 511.262 101.674 511.262 101.674Z" fill="#2F2E41"/>
</g>
<defs>
<clipPath id="clip0_391_5089">
<rect width="801.921" height="597.457" fill="white"/>
</clipPath>
</defs>
</svg>
