<svg width="500" height="500" viewBox="0 0 500 500" fill="none" xmlns="http://www.w3.org/2000/svg">
<path d="M500 382.4H0V382.65H500V382.4Z" fill="#EBEBEB"/>
<path d="M449.9 398.49H416.78V398.74H449.9V398.49Z" fill="#EBEBEB"/>
<path d="M273.22 395.36H260.33V395.61H273.22V395.36Z" fill="#EBEBEB"/>
<path d="M349.67 396.42H322.53V396.67H349.67V396.42Z" fill="#EBEBEB"/>
<path d="M415.78 389.21H359.67V389.46H415.78V389.21Z" fill="#EBEBEB"/>
<path d="M78.99 400.78H52.46V401.03H78.99V400.78Z" fill="#EBEBEB"/>
<path d="M110.89 400.78H87.8896V401.03H110.89V400.78Z" fill="#EBEBEB"/>
<path d="M191.81 395.24H131V395.49H191.81V395.24Z" fill="#EBEBEB"/>
<path d="M237 337.8H43.91C42.3973 337.797 40.9475 337.195 39.8788 336.124C38.8102 335.053 38.21 333.603 38.21 332.09V60.66C38.2231 59.156 38.8292 57.718 39.8964 56.6582C40.9637 55.5985 42.4059 55.0026 43.91 55H237C238.514 55 239.967 55.6016 241.038 56.6724C242.108 57.7433 242.71 59.1956 242.71 60.71V332.09C242.71 333.604 242.108 335.057 241.038 336.128C239.967 337.198 238.514 337.8 237 337.8ZM43.91 55.2C42.4636 55.2026 41.0774 55.7791 40.0556 56.8027C39.0338 57.8264 38.46 59.2136 38.46 60.66V332.09C38.46 333.536 39.0338 334.924 40.0556 335.947C41.0774 336.971 42.4636 337.547 43.91 337.55H237C238.447 337.547 239.834 336.971 240.858 335.948C241.881 334.924 242.457 333.537 242.46 332.09V60.66C242.457 59.2127 241.881 57.8255 240.858 56.8021C239.834 55.7787 238.447 55.2026 237 55.2H43.91Z" fill="#EBEBEB"/>
<path d="M453.31 337.8H260.21C258.696 337.797 257.246 337.195 256.175 336.125C255.105 335.054 254.503 333.604 254.5 332.09V60.66C254.516 59.1551 255.124 57.7171 256.193 56.6576C257.262 55.5981 258.705 55.0025 260.21 55H453.31C454.812 55.0052 456.252 55.6022 457.317 56.6617C458.382 57.7212 458.987 59.1578 459 60.66V332.09C459 333.601 458.401 335.05 457.335 336.121C456.268 337.191 454.821 337.795 453.31 337.8ZM260.21 55.2C258.763 55.2026 257.375 55.7787 256.352 56.8021C255.329 57.8255 254.753 59.2127 254.75 60.66V332.09C254.753 333.537 255.329 334.924 256.352 335.948C257.375 336.971 258.763 337.547 260.21 337.55H453.31C454.757 337.547 456.145 336.971 457.168 335.948C458.191 334.924 458.767 333.537 458.77 332.09V60.66C458.767 59.2127 458.191 57.8255 457.168 56.8021C456.145 55.7787 454.757 55.2026 453.31 55.2H260.21Z" fill="#EBEBEB"/>
<path d="M319.42 263.81H344.65C345.472 263.807 346.26 263.48 346.842 262.9C347.425 262.319 347.754 261.532 347.76 260.71C347.757 259.886 347.428 259.097 346.846 258.514C346.263 257.931 345.474 257.603 344.65 257.6H319.42C318.596 257.603 317.806 257.931 317.223 258.514C316.641 259.097 316.312 259.886 316.31 260.71C316.315 261.532 316.645 262.319 317.227 262.9C317.809 263.48 318.597 263.807 319.42 263.81Z" fill="#F5F5F5"/>
<path d="M250 427.56C357.083 427.56 443.89 422.492 443.89 416.24C443.89 409.988 357.083 404.92 250 404.92C142.918 404.92 56.1104 409.988 56.1104 416.24C56.1104 422.492 142.918 427.56 250 427.56Z" fill="#F5F5F5"/>
<path d="M64.8383 272.081L63.8252 272.2L65.6255 287.595L66.6386 287.477L64.8383 272.081Z" fill="#407BFF"/>
<path d="M67.31 293.203L66.2969 293.321L67.2052 301.088L68.2183 300.97L67.31 293.203Z" fill="#407BFF"/>
<path d="M134.59 240.69L133.39 237.32C132.564 235.004 130.977 233.036 128.888 231.739C126.799 230.442 124.332 229.892 121.89 230.18L74.0999 235.77C71.237 236.106 68.6247 237.565 66.8375 239.827C65.0504 242.088 64.2347 244.967 64.5699 247.83L78.1699 364.13C78.2828 365.103 78.5864 366.044 79.0632 366.899C79.5401 367.754 80.1809 368.507 80.949 369.115C81.7171 369.722 82.5974 370.172 83.5396 370.439C84.4818 370.706 85.4673 370.784 86.4399 370.67L257.44 350.67C258.414 350.56 259.357 350.258 260.215 349.782C261.073 349.306 261.828 348.666 262.437 347.897C263.047 347.129 263.499 346.248 263.767 345.304C264.035 344.361 264.114 343.374 264 342.4L252.2 241.86C251.972 239.897 250.973 238.106 249.424 236.879C247.875 235.653 245.902 235.092 243.94 235.32L144.64 246.94C142.505 247.187 140.349 246.704 138.524 245.569C136.699 244.434 135.312 242.714 134.59 240.69Z" fill="#407BFF"/>
<path d="M139.362 190.115L85.334 200.882L100.167 275.318L154.195 264.552L139.362 190.115Z" fill="#407BFF"/>
<path opacity="0.7" d="M139.362 190.115L85.334 200.882L100.167 275.318L154.195 264.552L139.362 190.115Z" fill="white"/>
<g opacity="0.4">
<path d="M132.15 208L98.8697 214.64C98.0944 214.79 97.291 214.629 96.6339 214.191C95.9768 213.753 95.5189 213.074 95.3597 212.3C95.2092 211.525 95.3705 210.721 95.8085 210.064C96.2466 209.407 96.9261 208.949 97.6997 208.79L131 202.18C131.775 202.029 132.578 202.191 133.235 202.629C133.893 203.067 134.35 203.746 134.51 204.52C134.651 205.294 134.483 206.092 134.041 206.743C133.6 207.393 132.921 207.845 132.15 208Z" fill="#407BFF"/>
<path d="M134.6 220.33L101.32 227C100.546 227.148 99.7452 226.985 99.0903 226.547C98.4355 226.109 97.9791 225.431 97.8197 224.66C97.6722 223.886 97.8348 223.085 98.2727 222.431C98.7105 221.776 99.3883 221.319 100.16 221.16L133.44 214.53C134.214 214.382 135.014 214.545 135.669 214.983C136.324 215.421 136.78 216.098 136.94 216.87C137.076 217.638 136.908 218.428 136.471 219.074C136.034 219.72 135.363 220.17 134.6 220.33Z" fill="#407BFF"/>
<path d="M137.05 232.64L103.77 239.27C102.996 239.418 102.195 239.255 101.541 238.817C100.886 238.379 100.429 237.701 100.27 236.93C100.122 236.156 100.285 235.355 100.723 234.701C101.161 234.046 101.838 233.589 102.61 233.43L135.89 226.79C136.664 226.642 137.464 226.805 138.119 227.243C138.774 227.681 139.231 228.359 139.39 229.13C139.54 229.905 139.379 230.709 138.941 231.366C138.503 232.023 137.823 232.481 137.05 232.64Z" fill="#407BFF"/>
<path d="M139.51 245L106.23 251.63C105.455 251.78 104.651 251.619 103.994 251.181C103.337 250.743 102.879 250.063 102.72 249.29C102.57 248.515 102.731 247.711 103.169 247.054C103.607 246.397 104.286 245.939 105.06 245.78L138.34 239.15C139.115 238.999 139.919 239.161 140.576 239.599C141.233 240.037 141.691 240.716 141.85 241.49C142.001 242.265 141.839 243.069 141.401 243.726C140.963 244.383 140.284 244.841 139.51 245Z" fill="#407BFF"/>
<path d="M132.86 259.07L108.68 263.89C107.906 264.037 107.105 263.875 106.451 263.437C105.796 262.999 105.339 262.321 105.18 261.55C105.029 260.775 105.191 259.971 105.629 259.314C106.067 258.657 106.746 258.199 107.52 258.04L131.7 253.22C132.474 253.072 133.275 253.235 133.929 253.673C134.584 254.111 135.041 254.788 135.2 255.56C135.35 256.335 135.189 257.139 134.751 257.796C134.313 258.453 133.634 258.911 132.86 259.07Z" fill="#407BFF"/>
</g>
<path d="M216.344 175.77L161.763 183.237L172.05 258.437L226.632 250.97L216.344 175.77Z" fill="#407BFF"/>
<path opacity="0.7" d="M216.344 175.77L161.763 183.237L172.05 258.437L226.632 250.97L216.344 175.77Z" fill="white"/>
<g opacity="0.4">
<path d="M208.06 193.2L174.44 197.8C173.657 197.903 172.865 197.693 172.236 197.215C171.607 196.738 171.192 196.032 171.08 195.25C170.977 194.467 171.188 193.675 171.665 193.046C172.142 192.417 172.848 192.002 173.63 191.89L207.25 187.29C208.033 187.187 208.825 187.398 209.454 187.875C210.083 188.352 210.498 189.058 210.61 189.84C210.713 190.623 210.503 191.415 210.025 192.044C209.548 192.673 208.842 193.088 208.06 193.2Z" fill="#407BFF"/>
<path d="M209.76 205.63L176.14 210.23C175.357 210.333 174.565 210.123 173.936 209.645C173.307 209.168 172.892 208.462 172.78 207.68C172.68 206.899 172.892 206.11 173.369 205.483C173.846 204.856 174.55 204.442 175.33 204.33L208.95 199.73C209.732 199.627 210.522 199.836 211.151 200.311C211.78 200.787 212.196 201.49 212.31 202.27C212.413 203.053 212.203 203.845 211.725 204.474C211.248 205.103 210.542 205.519 209.76 205.63Z" fill="#407BFF"/>
<path d="M187.101 221.4L177.841 222.67C177.058 222.773 176.266 222.563 175.637 222.085C175.008 221.608 174.592 220.902 174.481 220.12C174.378 219.337 174.588 218.545 175.065 217.916C175.543 217.287 176.249 216.872 177.031 216.76L186.301 215.49C187.082 215.39 187.871 215.602 188.498 216.079C189.125 216.556 189.539 217.26 189.651 218.04C189.753 218.823 189.543 219.615 189.066 220.244C188.588 220.873 187.882 221.288 187.101 221.4Z" fill="#407BFF"/>
<path d="M205.07 218.94L195.8 220.21C195.019 220.31 194.23 220.099 193.603 219.621C192.976 219.144 192.562 218.44 192.45 217.66C192.348 216.877 192.558 216.085 193.035 215.456C193.512 214.827 194.219 214.412 195 214.3L204.26 213.04C205.042 212.937 205.832 213.146 206.461 213.621C207.09 214.097 207.506 214.8 207.62 215.58C207.723 216.363 207.513 217.155 207.036 217.784C206.558 218.413 205.852 218.828 205.07 218.94Z" fill="#407BFF"/>
<path d="M213.16 230.5L179.54 235.1C178.758 235.203 177.966 234.993 177.337 234.515C176.708 234.038 176.292 233.332 176.18 232.55C176.081 231.769 176.292 230.98 176.769 230.353C177.246 229.726 177.951 229.312 178.73 229.2L212.35 224.59C213.133 224.487 213.925 224.698 214.554 225.175C215.183 225.652 215.599 226.358 215.71 227.14C215.813 227.923 215.603 228.715 215.126 229.344C214.648 229.973 213.942 230.388 213.16 230.5Z" fill="#407BFF"/>
<path d="M205.68 244.19L181.24 247.53C180.46 247.63 179.672 247.42 179.046 246.945C178.419 246.47 178.004 245.768 177.89 244.99C177.787 244.209 177.996 243.418 178.471 242.789C178.946 242.161 179.65 241.744 180.43 241.63L204.87 238.29C205.65 238.19 206.438 238.4 207.064 238.875C207.691 239.35 208.106 240.052 208.22 240.83C208.323 241.611 208.114 242.402 207.639 243.031C207.163 243.659 206.46 244.076 205.68 244.19Z" fill="#407BFF"/>
</g>
<path d="M164.841 186.742L109.959 191.524L116.548 267.138L171.43 262.356L164.841 186.742Z" fill="#407BFF"/>
<path opacity="0.8" d="M164.841 186.742L109.959 191.524L116.548 267.138L171.43 262.356L164.841 186.742Z" fill="white"/>
<g opacity="0.4">
<path d="M155.71 203.76L121.9 206.7C121.114 206.764 120.333 206.515 119.729 206.008C119.124 205.501 118.744 204.776 118.67 203.99C118.609 203.205 118.859 202.428 119.366 201.825C119.873 201.223 120.596 200.844 121.38 200.77L155.19 197.77C155.977 197.706 156.757 197.955 157.362 198.462C157.966 198.969 158.347 199.694 158.42 200.48C158.459 200.874 158.419 201.271 158.304 201.649C158.188 202.027 157.999 202.379 157.747 202.684C157.495 202.988 157.186 203.24 156.836 203.425C156.487 203.61 156.104 203.724 155.71 203.76Z" fill="#407BFF"/>
<path d="M156.8 216.26L122.99 219.26C122.203 219.324 121.423 219.076 120.819 218.568C120.214 218.061 119.834 217.336 119.76 216.55C119.696 215.764 119.945 214.983 120.452 214.379C120.959 213.774 121.684 213.394 122.47 213.32L156.28 210.32C157.066 210.256 157.847 210.505 158.451 211.012C159.056 211.519 159.436 212.244 159.51 213.03C159.574 213.817 159.325 214.597 158.818 215.202C158.311 215.806 157.586 216.186 156.8 216.26Z" fill="#407BFF"/>
<path d="M157.891 228.76L124.081 231.76C123.294 231.824 122.514 231.576 121.909 231.068C121.305 230.561 120.924 229.836 120.851 229.05C120.787 228.264 121.035 227.483 121.543 226.879C122.05 226.274 122.775 225.894 123.561 225.82L157.371 222.82C158.157 222.756 158.937 223.005 159.542 223.512C160.147 224.019 160.527 224.744 160.601 225.53C160.665 226.317 160.416 227.097 159.909 227.702C159.402 228.306 158.676 228.686 157.891 228.76Z" fill="#407BFF"/>
<path d="M159 241.26L125.19 244.26C124.403 244.324 123.623 244.076 123.019 243.568C122.414 243.061 122.034 242.336 121.96 241.55C121.896 240.764 122.145 239.983 122.652 239.379C123.159 238.774 123.884 238.394 124.67 238.32L158.48 235.38C159.267 235.316 160.047 235.565 160.651 236.072C161.256 236.579 161.636 237.304 161.71 238.09C161.758 238.867 161.502 239.632 160.996 240.223C160.49 240.815 159.775 241.186 159 241.26Z" fill="#407BFF"/>
<path d="M150.83 254.57L126.26 256.71C125.469 256.783 124.681 256.538 124.069 256.03C123.458 255.522 123.074 254.792 123 254C122.936 253.214 123.185 252.433 123.692 251.829C124.199 251.224 124.924 250.844 125.71 250.77L150.28 248.63C151.067 248.566 151.847 248.815 152.451 249.322C153.056 249.829 153.436 250.554 153.51 251.34C153.574 252.122 153.33 252.898 152.829 253.502C152.328 254.106 151.61 254.489 150.83 254.57Z" fill="#407BFF"/>
</g>
<path d="M231.716 183.068L176.689 185.721L180.344 261.533L235.37 258.88L231.716 183.068Z" fill="#407BFF"/>
<path opacity="0.8" d="M231.716 183.068L176.689 185.721L180.344 261.533L235.37 258.88L231.716 183.068Z" fill="white"/>
<g opacity="0.4">
<path d="M221.94 199.7L188.05 201.34C187.263 201.373 186.494 201.094 185.91 200.565C185.326 200.035 184.974 199.297 184.93 198.51C184.898 197.723 185.176 196.954 185.706 196.37C186.235 195.786 186.973 195.434 187.76 195.39L221.66 193.75C222.448 193.717 223.217 193.996 223.801 194.525C224.384 195.055 224.736 195.793 224.78 196.58C224.813 197.369 224.533 198.14 224.001 198.724C223.47 199.308 222.729 199.659 221.94 199.7Z" fill="#407BFF"/>
<path d="M222.55 212.24L188.65 213.87C187.862 213.903 187.094 213.624 186.51 213.095C185.926 212.565 185.574 211.827 185.53 211.04C185.497 210.251 185.777 209.481 186.309 208.897C186.841 208.312 187.581 207.962 188.37 207.92L222.26 206.28C223.049 206.247 223.819 206.527 224.403 207.059C224.988 207.591 225.338 208.331 225.38 209.12C225.413 209.908 225.134 210.677 224.605 211.26C224.075 211.844 223.337 212.196 222.55 212.24Z" fill="#407BFF"/>
<path d="M198.6 226L189.26 226.45C188.473 226.483 187.704 226.204 187.12 225.675C186.536 225.145 186.184 224.407 186.14 223.62C186.108 222.833 186.386 222.064 186.916 221.48C187.445 220.896 188.183 220.544 188.97 220.5L198.31 220.04C199.099 220.007 199.87 220.287 200.454 220.819C201.038 221.351 201.389 222.091 201.43 222.88C201.463 223.668 201.185 224.437 200.655 225.02C200.125 225.604 199.387 225.956 198.6 226Z" fill="#407BFF"/>
<path d="M216.711 225.08L207.371 225.53C206.583 225.563 205.814 225.284 205.23 224.755C204.647 224.225 204.295 223.487 204.251 222.7C204.218 221.912 204.496 221.144 205.026 220.56C205.556 219.976 206.294 219.624 207.081 219.58L216.421 219.13C217.208 219.097 217.977 219.376 218.561 219.905C219.145 220.435 219.497 221.173 219.541 221.96C219.573 222.748 219.295 223.516 218.765 224.1C218.236 224.684 217.498 225.036 216.711 225.08Z" fill="#407BFF"/>
<path d="M223.76 237.31L189.86 238.94C189.072 238.973 188.304 238.694 187.72 238.165C187.136 237.635 186.784 236.897 186.74 236.11C186.707 235.321 186.987 234.551 187.519 233.967C188.05 233.383 188.791 233.032 189.58 232.99L223.47 231.35C224.259 231.318 225.029 231.597 225.613 232.129C226.198 232.661 226.548 233.401 226.59 234.19C226.623 234.978 226.344 235.747 225.815 236.33C225.285 236.914 224.547 237.266 223.76 237.31Z" fill="#407BFF"/>
<path d="M215.1 250.29L190.47 251.48C189.683 251.513 188.914 251.234 188.33 250.705C187.746 250.175 187.394 249.437 187.35 248.65C187.317 247.863 187.596 247.094 188.126 246.51C188.655 245.926 189.393 245.574 190.18 245.53L214.81 244.34C215.598 244.307 216.367 244.586 216.95 245.116C217.534 245.645 217.886 246.383 217.93 247.17C217.963 247.958 217.684 248.727 217.155 249.31C216.625 249.894 215.887 250.246 215.1 250.29Z" fill="#407BFF"/>
</g>
<path d="M149.85 242.84L148.97 239.55C148.353 237.273 146.922 235.302 144.947 234.012C142.973 232.721 140.593 232.201 138.26 232.55L90.4697 238.14C87.5704 238.496 84.9002 239.896 82.9598 242.08C81.0194 244.263 79.9421 247.079 79.9297 250L82.6397 363.85C82.6559 364.788 82.8726 365.711 83.2754 366.558C83.6781 367.405 84.2576 368.156 84.9747 368.761C85.6918 369.365 86.5301 369.809 87.433 370.062C88.336 370.316 89.2828 370.373 90.2097 370.23L261.21 350.23C263.195 349.989 265.025 349.033 266.356 347.54C267.687 346.047 268.427 344.12 268.44 342.12L266.1 243.7C266.082 242.762 265.864 241.838 265.46 240.991C265.056 240.144 264.476 239.394 263.758 238.789C263.04 238.185 262.201 237.741 261.298 237.488C260.394 237.235 259.447 237.177 258.52 237.32L159.23 248.93C157.192 249.241 155.11 248.793 153.381 247.67C151.651 246.547 150.395 244.829 149.85 242.84Z" fill="#407BFF"/>
<path opacity="0.3" d="M149.85 242.84L148.97 239.55C148.353 237.273 146.922 235.302 144.947 234.012C142.973 232.721 140.593 232.201 138.26 232.55L90.4697 238.14C87.5704 238.496 84.9002 239.896 82.9598 242.08C81.0194 244.263 79.9421 247.079 79.9297 250L82.6397 363.85C82.6559 364.788 82.8726 365.711 83.2754 366.558C83.6781 367.405 84.2576 368.156 84.9747 368.761C85.6918 369.365 86.5301 369.809 87.433 370.062C88.336 370.316 89.2828 370.373 90.2097 370.23L261.21 350.23C263.195 349.989 265.025 349.033 266.356 347.54C267.687 346.047 268.427 344.12 268.44 342.12L266.1 243.7C266.082 242.762 265.864 241.838 265.46 240.991C265.056 240.144 264.476 239.394 263.758 238.789C263.04 238.185 262.201 237.741 261.298 237.488C260.394 237.235 259.447 237.177 258.52 237.32L159.23 248.93C157.192 249.241 155.11 248.793 153.381 247.67C151.651 246.547 150.395 244.829 149.85 242.84Z" fill="black"/>
<path d="M316.999 188.11C316.259 191.82 315.469 195.48 314.579 199.11C313.689 202.74 312.819 206.41 311.849 210.04L310.369 215.47L310.179 216.17C310.089 216.47 309.989 216.77 309.869 217.08C309.614 217.761 309.278 218.409 308.869 219.01C308.374 219.757 307.739 220.402 306.999 220.91C306.185 221.462 305.248 221.806 304.269 221.91C302.789 222.018 301.308 221.702 299.999 221C299.006 220.459 298.074 219.812 297.219 219.07C295.674 217.719 294.306 216.176 293.149 214.48L295.999 212C297.36 213.058 298.797 214.014 300.299 214.86C300.952 215.23 301.643 215.529 302.359 215.75C302.969 215.95 303.509 215.92 303.509 215.82C303.509 215.72 303.409 215.82 303.359 215.82C303.309 215.82 303.359 215.82 303.359 215.65C303.359 215.48 303.479 215.3 303.549 215.04L303.779 213.93L304.939 208.47L307.289 197.55C308.049 193.91 308.869 190.26 309.659 186.66L316.999 188.11Z" fill="#FFC3BD"/>
<path d="M313.68 176.68C305.15 183.21 305.5 195.52 305.5 195.52L320.75 199.17C320.75 199.17 325.44 186.79 323.54 182.26C321.56 177.54 318.49 173 313.68 176.68Z" fill="#263238"/>
<path d="M296.759 212.15L291.149 206.54L288.149 215.32C288.149 215.32 292.889 217.87 297.419 215.46L296.759 212.15Z" fill="#FFC3BD"/>
<path d="M283.38 205.67L282.35 212.61L288.12 215.32L291.15 206.54L283.38 205.67Z" fill="#FFC3BD"/>
<path d="M363.119 408.86L354.539 409.7L345.609 389.27L354.189 388.43L363.119 408.86Z" fill="#FFC3BD"/>
<path d="M418.4 378.66L411.95 384.71L398.04 369.42L404.49 363.37L418.4 378.66Z" fill="#FFC3BD"/>
<path d="M408.999 381.81L413.839 373.09C413.921 372.937 414.055 372.819 414.217 372.759C414.379 372.698 414.558 372.698 414.719 372.76L422.169 375.6C422.354 375.677 422.519 375.793 422.656 375.939C422.792 376.084 422.896 376.257 422.961 376.446C423.026 376.635 423.051 376.835 423.033 377.034C423.016 377.233 422.957 377.426 422.859 377.6C421.119 380.6 420.129 381.98 417.999 385.82C416.689 388.18 414.139 393.59 412.329 396.82C410.519 400.05 407.199 398.47 407.659 396.95C409.729 390.13 409.339 386.34 408.759 383.34C408.66 382.818 408.745 382.277 408.999 381.81Z" fill="#263238"/>
<path d="M353.4 407.05H363.94C364.13 407.05 364.314 407.113 364.464 407.229C364.614 407.345 364.722 407.507 364.77 407.69L367.06 416.02C367.116 416.217 367.126 416.424 367.088 416.625C367.049 416.826 366.965 417.015 366.84 417.177C366.716 417.339 366.555 417.47 366.371 417.559C366.187 417.648 365.985 417.693 365.78 417.69C362.06 417.69 360.3 417.69 355.67 417.69H341.51C337.65 417.69 336.85 413.8 338.44 413.44C345.59 411.86 349.7 409.68 351.91 407.6C352.32 407.236 352.852 407.039 353.4 407.05Z" fill="#263238"/>
<path opacity="0.2" d="M345.62 389.28L350.22 399.81H359.17L354.2 388.44L345.62 389.28Z" fill="black"/>
<path opacity="0.2" d="M404.49 363.38L398.04 369.43L405.22 377.31L411.67 371.25L404.49 363.38Z" fill="black"/>
<path d="M316.26 175.42C316.26 175.42 312.4 177.11 325.34 228.31L361.28 225.2C359.42 210.63 358.62 201.61 363.01 170.98C357.89 170.375 352.733 170.144 347.58 170.29C342.113 170.372 336.659 170.843 331.26 171.7C326.2 172.685 321.193 173.927 316.26 175.42Z" fill="#263238"/>
<path d="M347.58 170C347.58 170 349.58 170 352.02 170C353.47 172.23 348.77 182 341.02 188.39C339.839 184.838 337.671 181.695 334.77 179.33L347.58 170Z" fill="white"/>
<path d="M331.26 171.57C331.26 171.57 330.35 171.7 328.18 172.2C326.73 174.43 324.28 183.96 328.55 188.82C329.625 185.135 331.782 181.857 334.74 179.41L331.26 171.57Z" fill="white"/>
<path d="M344.37 152.05C343.8 157.39 343.6 167.05 347.58 170.29C347.58 170.29 343.33 174.63 334.74 179.41C328.49 175.09 331.26 171.7 331.26 171.7C336.99 169.8 336.46 165.47 335.09 161.47L344.37 152.05Z" fill="#FFC3BD"/>
<path d="M334.59 179.44C334.59 179.44 339.86 173.7 342.59 174.8C345.32 175.9 343.21 177.87 342.97 179.72C342.73 181.57 344.03 186.49 340.38 185.21C336.73 183.93 334.59 179.44 334.59 179.44Z" fill="#407BFF"/>
<path d="M334.38 179.32C334.38 179.32 331.89 174.92 329.2 175.51C326.51 176.1 328.11 177.64 328.35 179.3C328.66 181.42 326.42 185.5 329.66 184.3C332.9 183.1 334.38 179.32 334.38 179.32Z" fill="#407BFF"/>
<g opacity="0.2">
<path d="M333 178.37C332.964 179.257 333.135 180.141 333.5 180.95C333.831 180.433 334.122 179.892 334.37 179.33C334.001 178.703 333.576 178.111 333.1 177.56C333.017 177.822 332.984 178.096 333 178.37Z" fill="black"/>
<path d="M336.51 177.58C335.38 178.58 334.6 179.44 334.6 179.44C334.89 180.04 335.224 180.619 335.6 181.17C336.204 180.564 336.56 179.755 336.6 178.9C336.696 178.46 336.664 178.003 336.51 177.58Z" fill="black"/>
</g>
<path d="M334.53 181.24C333.78 181.24 333.32 180.43 333.27 178.5C333.22 176.57 334.7 177.64 334.7 177.64C334.7 177.64 336.7 176.64 336.34 178.95C336.08 180.78 335.3 181.24 334.53 181.24Z" fill="#407BFF"/>
<path opacity="0.2" d="M340.59 155.9L335.1 161.47C335.429 162.398 335.68 163.351 335.85 164.32C338.06 163.81 341.26 161.51 341.29 159.15C341.254 158.034 341.017 156.933 340.59 155.9Z" fill="black"/>
<path d="M335.88 134C335.88 134 329.88 142.31 328.88 146C324.8 148.38 323.98 136.67 326.14 129.45C332.88 133.68 335.88 134 335.88 134Z" fill="#263238"/>
<path d="M349.07 143.71C346.84 152.24 346.07 155.9 340.85 159.47C332.98 164.85 322.99 160.25 322.62 151.22C322.29 143.1 325.99 130.51 335.12 128.74C337.132 128.332 339.215 128.446 341.17 129.073C343.125 129.7 344.887 130.817 346.286 132.319C347.686 133.821 348.677 135.657 349.164 137.652C349.651 139.646 349.619 141.732 349.07 143.71Z" fill="#FFC3BD"/>
<path d="M353.709 140.3C353.709 140.3 349.419 147.25 348.839 150.3C345.729 152.41 344.419 143.15 345.729 137.3C347.159 132.09 353.709 140.3 353.709 140.3Z" fill="#263238"/>
<path d="M352 135.47C350.76 136.41 349.45 132.94 350.68 130.28C348.31 130.43 345.46 129.02 346.07 126.73C341.4 128.3 339.67 123.55 340.21 120.26C340.86 116.26 344.34 115.41 346.39 116.46C346.39 114.67 350.91 110.94 352.63 113.86C355.82 112.73 360.96 113.08 360.85 117C362.96 117.06 369.19 119.45 366.85 125C369.6 125.16 371.09 128.65 369.56 131.29C370.162 131.609 370.679 132.069 371.067 132.63C371.455 133.191 371.701 133.837 371.787 134.514C371.872 135.191 371.793 135.878 371.557 136.518C371.321 137.158 370.934 137.731 370.43 138.19C371.7 140.83 367.849 144.76 365.799 144.29C364.239 146.68 361.85 148.48 360.29 146.44C357.29 148.65 353.839 145.84 354.609 143.68C351.209 143.16 347.74 137.49 352 135.47Z" fill="#263238"/>
<path d="M357.079 127.07C359.319 130.81 359.129 135.07 356.669 136.52C354.209 137.97 350.379 136.17 348.139 132.43C345.899 128.69 346.079 124.43 348.549 122.98C351.019 121.53 354.839 123.34 357.079 127.07Z" fill="#407BFF"/>
<path d="M336.28 133C336.15 134.07 333.2 133.79 332.35 131.9C331.13 133.18 328.26 133.84 327.28 132.45C325.62 135.57 322.28 134.75 321.42 133.26C320.56 131.77 319.99 129 321.72 128.45C320.72 127.59 321.02 123.54 323.64 124.05C324.74 121.89 327.75 119.44 329.95 121.35C331.15 120.35 335.95 118.27 337.89 122.08C338.315 121.789 338.801 121.599 339.311 121.523C339.82 121.447 340.341 121.487 340.832 121.641C341.324 121.795 341.775 122.059 342.15 122.412C342.525 122.765 342.816 123.199 343 123.68C346.11 122.87 347.46 125.23 347.45 126.51C349.66 127.11 349.81 130.93 348.45 131.75C348.98 133.68 348.7 135.75 346.67 135.57C346.28 138.17 342.8 138.57 341.98 137.16C339.72 138.61 335.11 136.09 336.28 133Z" fill="#263238"/>
<path d="M331 125.62C333.53 122.12 342.76 120.62 350.75 125.91C357.95 130.64 357.48 141.63 351.75 141.04C346.02 140.45 340.36 133.74 340.36 133.74L331 125.62Z" fill="#263238"/>
<path d="M349.77 151.41C348.973 152.914 347.615 154.042 345.99 154.55C343.82 155.2 342.7 153.28 343.26 151.21C343.77 149.35 345.5 146.77 347.69 147.03C348.168 147.094 348.622 147.276 349.012 147.559C349.401 147.843 349.713 148.22 349.92 148.655C350.127 149.091 350.221 149.571 350.195 150.052C350.169 150.533 350.023 151 349.77 151.41Z" fill="#FFC3BD"/>
<path d="M325.34 228.31C325.34 228.31 313.18 282.11 321.34 320.04C326.78 345.44 346.34 396.75 346.34 396.75L361.68 396.36C361.68 396.36 346.83 342.51 343.76 321.36C338.51 285.14 351.66 226.07 351.66 226.07L325.34 228.31Z" fill="#407BFF"/>
<path opacity="0.2" d="M339.36 239.18L347 251.27C344.69 265.605 343.224 280.063 342.61 294.57C331.86 275.27 337 249.39 339.36 239.18Z" fill="black"/>
<path d="M344.18 397.55L363.12 397.06L362.03 391.25L342.7 392.16L344.18 397.55Z" fill="#263238"/>
<path d="M333.2 227.74C333.2 227.74 340.33 284.79 355.8 315.94C368.29 341.1 401.62 376.94 401.62 376.94L410.14 368.16C410.14 368.16 387.63 329.24 378.35 312.53C355.58 271.53 374.19 240.28 361.28 225.23L333.2 227.74Z" fill="#407BFF"/>
<path d="M400.759 378.09L411.759 367.37L408.109 362.4L396.439 374.04L400.759 378.09Z" fill="#263238"/>
<path d="M361.64 223.05L363.54 226.13C363.69 226.36 363.41 226.64 363 226.68L325.3 229.94C324.98 229.94 324.7 229.83 324.66 229.63L324.06 226.44C324.01 226.22 324.28 226.01 324.63 225.98L361.03 222.83C361.142 222.809 361.257 222.818 361.365 222.857C361.472 222.896 361.567 222.962 361.64 223.05Z" fill="#407BFF"/>
<path opacity="0.5" d="M361.64 223.05L363.54 226.13C363.69 226.36 363.41 226.64 363 226.68L325.3 229.94C324.98 229.94 324.7 229.83 324.66 229.63L324.06 226.44C324.01 226.22 324.28 226.01 324.63 225.98L361.03 222.83C361.142 222.809 361.257 222.818 361.365 222.857C361.472 222.896 361.567 222.962 361.64 223.05Z" fill="white"/>
<path d="M357.1 227.54L358.1 227.46C358.29 227.46 358.43 227.33 358.41 227.21L357.59 223.07C357.59 222.94 357.39 222.86 357.19 222.88L356.19 222.96C355.99 222.96 355.85 223.09 355.88 223.21L356.7 227.35C356.73 227.47 356.91 227.56 357.1 227.54Z" fill="#407BFF"/>
<path d="M328.07 230.05L329.07 229.97C329.26 229.97 329.4 229.84 329.38 229.72L328.56 225.58C328.524 225.508 328.465 225.451 328.392 225.416C328.32 225.382 328.238 225.373 328.16 225.39L327.16 225.47C326.96 225.47 326.82 225.6 326.85 225.72L327.67 229.86C327.7 230 327.88 230.07 328.07 230.05Z" fill="#407BFF"/>
<path d="M342.59 228.8L343.59 228.71C343.79 228.71 343.93 228.58 343.9 228.46L343.08 224.32C343.08 224.2 342.88 224.11 342.69 224.13L341.69 224.22C341.5 224.22 341.36 224.35 341.38 224.47L342.2 228.61C342.22 228.73 342.39 228.81 342.59 228.8Z" fill="#407BFF"/>
<path d="M334.63 143.42C334.49 144.12 334.01 144.62 333.55 144.53C333.09 144.44 332.83 143.79 332.96 143.09C333.09 142.39 333.59 141.89 334.05 141.98C334.51 142.07 334.77 142.71 334.63 143.42Z" fill="#263238"/>
<path d="M326.669 141.849C326.807 141.144 326.546 140.5 326.085 140.409C325.625 140.319 325.139 140.816 325.001 141.521C324.862 142.225 325.123 142.87 325.584 142.96C326.045 143.051 326.53 142.553 326.669 141.849Z" fill="#263238"/>
<path d="M326.3 140.5L324.7 139.68C324.7 139.68 325.31 141.17 326.3 140.5Z" fill="#263238"/>
<path d="M329.41 143.61C328.474 145.093 327.336 146.439 326.03 147.61C326.333 147.944 326.707 148.207 327.123 148.38C327.54 148.553 327.99 148.631 328.44 148.61L329.41 143.61Z" fill="#ED847E"/>
<path d="M331.69 151.91C333.167 151.926 334.596 151.383 335.69 150.39C335.711 150.374 335.729 150.354 335.741 150.331C335.754 150.307 335.761 150.282 335.762 150.255C335.763 150.229 335.759 150.202 335.749 150.178C335.739 150.153 335.724 150.131 335.704 150.113C335.685 150.095 335.662 150.082 335.637 150.074C335.611 150.066 335.585 150.064 335.559 150.067C335.532 150.071 335.507 150.08 335.485 150.094C335.463 150.109 335.444 150.128 335.43 150.15C334.757 150.743 333.953 151.17 333.084 151.394C332.215 151.618 331.306 151.634 330.43 151.44C330.407 151.436 330.384 151.436 330.362 151.441C330.34 151.445 330.319 151.455 330.3 151.468C330.282 151.481 330.266 151.497 330.254 151.517C330.242 151.536 330.233 151.558 330.23 151.58C330.224 151.603 330.223 151.626 330.227 151.649C330.231 151.672 330.24 151.693 330.254 151.712C330.267 151.732 330.284 151.747 330.304 151.759C330.324 151.771 330.347 151.778 330.37 151.78C330.804 151.871 331.246 151.915 331.69 151.91Z" fill="#263238"/>
<path d="M339.4 140.69C339.463 140.689 339.525 140.672 339.58 140.64C339.66 140.592 339.717 140.515 339.739 140.425C339.762 140.335 339.748 140.24 339.7 140.16C339.369 139.598 338.909 139.123 338.358 138.776C337.806 138.428 337.18 138.217 336.53 138.16C336.484 138.159 336.438 138.166 336.395 138.183C336.352 138.199 336.313 138.224 336.28 138.255C336.246 138.287 336.219 138.325 336.2 138.367C336.182 138.409 336.171 138.454 336.17 138.5C336.169 138.546 336.176 138.592 336.193 138.635C336.209 138.678 336.234 138.717 336.265 138.751C336.297 138.784 336.335 138.811 336.377 138.83C336.419 138.848 336.464 138.859 336.51 138.86C337.047 138.919 337.561 139.105 338.012 139.402C338.462 139.7 338.835 140.1 339.1 140.57C339.137 140.613 339.183 140.646 339.235 140.667C339.288 140.688 339.344 140.696 339.4 140.69Z" fill="#263238"/>
<path d="M324.48 137.87C324.536 137.883 324.594 137.883 324.65 137.87C325.114 137.595 325.637 137.434 326.176 137.399C326.715 137.364 327.254 137.457 327.75 137.67C327.831 137.704 327.922 137.706 328.005 137.676C328.087 137.646 328.156 137.586 328.196 137.508C328.236 137.429 328.246 137.339 328.222 137.254C328.199 137.169 328.145 137.096 328.07 137.05C327.471 136.779 326.816 136.656 326.159 136.693C325.503 136.729 324.865 136.924 324.3 137.26C324.221 137.306 324.164 137.381 324.14 137.469C324.115 137.556 324.126 137.65 324.17 137.73C324.204 137.779 324.251 137.818 324.306 137.843C324.36 137.868 324.42 137.877 324.48 137.87Z" fill="#263238"/>
<path d="M364.54 179.16C365.22 179.82 365.69 180.34 366.22 180.93C366.75 181.52 367.22 182.1 367.7 182.69C368.65 183.88 369.56 185.1 370.41 186.35C372.101 188.87 373.598 191.514 374.89 194.26C376.179 197.019 377.22 199.887 378 202.83C378.39 204.3 378.74 205.83 379 207.3C379.496 209.424 379.253 211.653 378.31 213.62C377.761 214.653 377.002 215.559 376.08 216.28C375.281 216.895 374.403 217.399 373.47 217.78C371.865 218.399 370.183 218.796 368.47 218.96C365.432 219.252 362.37 219.212 359.34 218.84C353.54 218.166 347.815 216.95 342.24 215.21L343.16 211.58C345.88 212.03 348.68 212.45 351.44 212.74C354.2 213.03 356.98 213.29 359.71 213.35C362.355 213.445 365.003 213.298 367.62 212.91C368.747 212.727 369.844 212.39 370.88 211.91C371.515 211.67 372.039 211.203 372.35 210.6C372.434 210.37 372.475 210.125 372.47 209.88C372.484 209.7 372.484 209.52 372.47 209.34C372.47 209.14 372.4 208.96 372.31 208.59C372.03 207.3 371.66 206.03 371.26 204.77C370.446 202.258 369.444 199.811 368.26 197.45C367.071 195.075 365.708 192.793 364.18 190.62C363.43 189.52 362.64 188.45 361.82 187.42C361.41 186.9 360.98 186.42 360.56 185.91C360.14 185.4 359.66 184.91 359.33 184.55L364.54 179.16Z" fill="#FFC3BD"/>
<path d="M345.45 212.13L338.45 208.42L338.13 217.69C338.13 217.69 343.13 218.01 345.99 215.69L345.45 212.13Z" fill="#FFC3BD"/>
<path d="M333.17 262L338.95 199.19L326.6 189.73L288.9 186.26L282.35 257.32L333.17 262Z" fill="#407BFF"/>
<path opacity="0.8" d="M333.17 262L338.95 199.19L326.6 189.73L288.9 186.26L282.35 257.32L333.17 262Z" fill="white"/>
<path d="M338.95 199.19L326.6 189.73L329.84 201.05L338.95 199.19Z" fill="#407BFF"/>
<path d="M286.77 268.3C295.275 268.3 302.17 261.405 302.17 252.9C302.17 244.395 295.275 237.5 286.77 237.5C278.265 237.5 271.37 244.395 271.37 252.9C271.37 261.405 278.265 268.3 286.77 268.3Z" fill="#407BFF"/>
<path d="M294.378 262.525C299.7 258.321 300.606 250.598 296.402 245.277C292.197 239.955 284.475 239.049 279.153 243.254C273.832 247.458 272.926 255.18 277.13 260.502C281.334 265.824 289.057 266.729 294.378 262.525Z" fill="white"/>
<path d="M294.36 251.82L288.94 251.19L289.57 245.77L285.69 245.31L285.06 250.73L279.64 250.09L279.18 253.98L284.6 254.62L283.96 260.03L287.85 260.49L288.48 255.07L293.9 255.71L294.36 251.82Z" fill="#407BFF"/>
<path opacity="0.4" d="M329.73 212.21C329.68 212.76 329.522 213.294 329.265 213.783C329.008 214.271 328.657 214.704 328.233 215.057C327.808 215.41 327.318 215.676 326.791 215.839C326.264 216.003 325.709 216.061 325.16 216.01L297.66 213.48C296.551 213.376 295.528 212.837 294.816 211.98C294.103 211.123 293.76 210.019 293.86 208.91C293.91 208.36 294.068 207.826 294.325 207.337C294.582 206.849 294.933 206.416 295.357 206.063C295.782 205.71 296.271 205.444 296.799 205.28C297.326 205.117 297.88 205.059 298.43 205.11L325.93 207.64C326.48 207.69 327.014 207.848 327.503 208.105C327.991 208.362 328.424 208.713 328.777 209.137C329.13 209.562 329.396 210.052 329.559 210.579C329.723 211.106 329.781 211.66 329.73 212.21Z" fill="#407BFF"/>
<path opacity="0.4" d="M320.36 223.56C320.31 224.11 320.152 224.644 319.895 225.133C319.638 225.621 319.287 226.054 318.863 226.407C318.438 226.76 317.948 227.026 317.421 227.19C316.894 227.353 316.34 227.411 315.79 227.36L296.57 225.59C296.02 225.54 295.486 225.382 294.997 225.125C294.509 224.868 294.075 224.517 293.723 224.093C293.37 223.668 293.104 223.178 292.94 222.651C292.777 222.124 292.719 221.57 292.77 221.02C292.82 220.47 292.978 219.936 293.235 219.447C293.492 218.959 293.843 218.526 294.267 218.173C294.692 217.82 295.181 217.554 295.709 217.391C296.236 217.227 296.79 217.169 297.34 217.22L316.56 219C317.667 219.104 318.688 219.642 319.4 220.496C320.112 221.351 320.457 222.452 320.36 223.56Z" fill="#407BFF"/>
<path d="M334.17 208.97L335.22 215.9L338.12 217.69L338.44 208.42L334.17 208.97Z" fill="#FFC3BD"/>
<path d="M363 171C367.41 171.78 373.59 184.42 373.59 184.42L362.48 194.42C362.48 194.42 353.64 184.78 354.11 179.04C354.52 174.19 357.4 170 363 171Z" fill="#263238"/>
<path d="M407.28 386.5C407.395 386.498 407.509 386.481 407.62 386.45C408.68 386.09 409.37 384.14 409.69 383.01C409.696 382.977 409.694 382.944 409.684 382.912C409.673 382.88 409.655 382.852 409.63 382.83C409.603 382.808 409.569 382.796 409.535 382.796C409.5 382.796 409.467 382.808 409.44 382.83C409.12 382.99 406.3 384.5 406.21 385.61C406.197 385.731 406.218 385.853 406.271 385.963C406.324 386.073 406.407 386.165 406.51 386.23C406.728 386.406 407 386.501 407.28 386.5ZM409.28 383.32C408.79 384.88 408.16 385.91 407.56 386.11C407.424 386.152 407.279 386.158 407.141 386.126C407.002 386.094 406.874 386.027 406.77 385.93C406.716 385.899 406.672 385.854 406.644 385.799C406.615 385.744 406.604 385.682 406.61 385.62C406.61 384.94 408.26 383.87 409.23 383.32H409.28Z" fill="#407BFF"/>
<path d="M406.84 383.76C407.8 383.756 408.747 383.534 409.61 383.11C409.634 383.094 409.654 383.071 409.668 383.045C409.682 383.019 409.69 382.99 409.69 382.96C409.691 382.929 409.683 382.898 409.667 382.872C409.651 382.845 409.628 382.824 409.6 382.81C409.51 382.76 407.28 381.53 406.08 381.96C405.929 382.004 405.79 382.083 405.675 382.191C405.561 382.299 405.473 382.432 405.42 382.58C405.345 382.72 405.32 382.882 405.349 383.038C405.378 383.195 405.459 383.336 405.58 383.44C405.952 383.684 406.396 383.797 406.84 383.76ZM409.13 382.96C408.18 383.37 406.33 383.62 405.81 383.18C405.72 383.1 405.63 382.98 405.75 382.71C405.785 382.611 405.844 382.521 405.92 382.448C405.996 382.375 406.089 382.321 406.19 382.29C407 382 408.5 382.65 409.13 383V382.96Z" fill="#407BFF"/>
<path d="M348.729 408.75C349.696 408.727 350.658 408.603 351.599 408.38C351.632 408.368 351.661 408.346 351.681 408.318C351.701 408.289 351.712 408.255 351.712 408.22C351.712 408.185 351.701 408.151 351.681 408.122C351.661 408.094 351.632 408.072 351.599 408.06C351.169 407.85 347.339 406.06 346.379 406.74C346.291 406.797 346.221 406.879 346.177 406.974C346.133 407.07 346.116 407.176 346.129 407.28C346.132 407.476 346.18 407.668 346.27 407.842C346.361 408.016 346.491 408.166 346.649 408.28C347.275 408.654 348.004 408.819 348.729 408.75ZM350.999 408.15C349.869 408.36 347.769 408.64 346.899 407.99C346.788 407.902 346.696 407.792 346.631 407.666C346.565 407.54 346.527 407.402 346.519 407.26C346.511 407.216 346.516 407.17 346.534 407.129C346.551 407.088 346.581 407.054 346.619 407.03C347.149 406.66 349.409 407.45 350.999 408.15Z" fill="#407BFF"/>
<path d="M351.56 408.39C351.599 408.402 351.641 408.402 351.68 408.39C351.705 408.368 351.723 408.34 351.732 408.308C351.741 408.276 351.74 408.242 351.73 408.21C351.73 408.05 350.83 404.28 348.73 404.52C348.21 404.59 348.06 404.84 348.04 405.05C347.91 406.05 350.32 407.94 351.47 408.42L351.56 408.39ZM348.94 404.82C350.27 404.82 351.04 407.02 351.3 407.9C350.05 407.24 348.3 405.67 348.41 405.06C348.41 405.01 348.41 404.87 348.8 404.83L348.94 404.82Z" fill="#407BFF"/>
<path d="M334.239 142.06L332.649 141.24C332.649 141.24 333.259 142.73 334.239 142.06Z" fill="#263238"/>
</svg>
