<svg width="444" height="444" viewBox="0 0 444 444" fill="none" xmlns="http://www.w3.org/2000/svg">
<rect width="444" height="444" fill="black"/>
<g clip-path="url(#clip0_1324_13338)">
<path d="M158.244 204.843H172.845C182.113 204.843 188.084 212.318 188.084 222.558C188.084 228.187 186.192 233.14 182.553 236.194C179.978 238.329 176.636 239.544 172.268 239.544H158.244V204.843V204.843ZM171.782 233.482C178.383 233.482 180.958 229.456 180.958 222.558C180.958 215.661 177.95 210.86 171.979 210.86H165.286V233.475H171.782V233.482Z" fill="white"/>
<path d="M189.132 227.116C189.132 219.687 194.419 213.966 202.137 213.966C209.856 213.966 215.143 219.694 215.143 227.116C215.143 234.538 209.856 240.266 202.137 240.266C194.419 240.266 189.132 234.538 189.132 227.116ZM208.45 227.116C208.45 222.262 206.171 218.965 202.137 218.965C198.104 218.965 195.825 222.262 195.825 227.116C195.825 231.97 198.058 235.222 202.137 235.222C206.217 235.222 208.45 231.97 208.45 227.116Z" fill="white"/>
<path d="M216.503 227.116C216.503 219.687 221.357 213.966 228.931 213.966C235.388 213.966 239.368 217.704 240.242 223.09H233.785C233.344 220.902 231.65 219.254 229.219 219.254C225.239 219.254 223.203 222.315 223.203 227.116C223.203 231.917 225.094 234.979 229.121 234.979C231.787 234.979 233.686 233.573 234.119 230.755H240.478C240.045 236.042 235.912 240.266 229.265 240.266C221.402 240.266 216.503 234.538 216.503 227.116V227.116Z" fill="white"/>
<path d="M257.934 239.544V236.635H257.79C256.088 238.914 254.151 240.228 250.657 240.228C245.127 240.228 242.02 236.688 242.02 231.249V214.643H248.575V230.124C248.575 233.034 249.89 234.637 252.7 234.637C255.807 234.637 257.699 232.305 257.699 229.008V214.643H264.3V239.544H257.942H257.934Z" fill="white"/>
<path d="M296.449 204.995H303.051V211.163H296.449V204.995ZM296.449 214.65H303.051V239.544H296.449V214.643V214.65Z" fill="white"/>
<path d="M305.793 240.274H312.349C312.88 241.823 314.293 243.039 317.347 243.039C321.085 243.039 322.877 241.246 322.877 237.843V235.123H322.733C321.275 236.771 319.383 238.033 316.23 238.033C310.7 238.033 305.261 233.664 305.261 226.144C305.261 218.623 309.728 213.959 316.033 213.959C319.14 213.959 321.419 215.174 322.923 217.256H323.022V214.635H329.38V237.638C329.38 241.132 328.263 243.51 326.418 245.211C324.328 247.156 321.13 248.03 317.438 248.03C310.647 248.03 306.469 245.12 305.793 240.266V240.274ZM323.219 226.007C323.219 222.368 321.275 219.261 317.302 219.261C313.951 219.261 311.718 221.882 311.718 226.053C311.718 230.223 313.951 232.753 317.347 232.753C321.518 232.753 323.219 229.691 323.219 226.007V226.007Z" fill="white"/>
<path d="M338.663 218.038H338.808C340.509 215.372 342.788 213.959 346.184 213.959C351.327 213.959 354.776 217.841 354.776 223.28V239.537H348.174V224.245C348.174 221.578 346.625 219.679 343.852 219.679C340.942 219.679 338.808 222.011 338.808 225.407V239.529H332.206V214.643H338.663V218.038Z" fill="white"/>
<path d="M281.408 218.623C276.265 217.507 273.834 216.679 273.834 213.868C273.834 211.391 276.311 209.788 280.094 209.788C283.55 209.788 286.186 211.406 286.733 214.643H293.502C292.81 207.904 287.812 204.205 280.147 204.205C272.482 204.205 266.845 207.745 266.845 214.589C266.845 221.821 272.527 223.47 278.734 224.875C284.021 226.091 287.326 226.767 287.326 230.162C287.326 233.368 284.173 234.629 280.58 234.629C275.627 234.629 273.249 232.981 272.763 228.803H265.873C266.116 236.133 271.456 240.304 280.868 240.304C288.685 240.304 294.36 236.369 294.36 229.334C294.36 221.859 288.533 220.158 281.4 218.608L281.408 218.623Z" fill="white"/>
<path d="M357.458 219.246C356.007 219.246 354.829 218.069 354.829 216.618C354.829 215.167 356.007 213.989 357.458 213.989C358.908 213.989 360.086 215.167 360.086 216.618C360.086 218.069 358.908 219.246 357.458 219.246ZM357.458 214.407C356.234 214.407 355.247 215.402 355.247 216.618C355.247 217.833 356.242 218.828 357.458 218.828C358.673 218.828 359.668 217.833 359.668 216.618C359.668 215.402 358.673 214.407 357.458 214.407V214.407Z" fill="white"/>
<path d="M356.553 215.265H357.412C357.769 215.265 358.012 215.265 358.247 215.463C358.414 215.6 358.544 215.812 358.544 216.124C358.544 216.64 358.164 216.815 358.012 216.861L358.612 217.955H358.035L357.503 216.959H357.055V217.955H356.553V215.273V215.265ZM357.055 215.698V216.542H357.229C357.404 216.542 357.465 216.542 357.564 216.534C357.678 216.534 358.035 216.511 358.035 216.116C358.035 216.055 358.035 215.858 357.822 215.752C357.715 215.698 357.586 215.698 357.29 215.698H357.055V215.698Z" fill="white"/>
<path d="M141 193H83V251H141V193Z" fill="#D5FF00"/>
<path d="M132.94 237.311H91.0522V242.948H132.94V237.311Z" fill="black"/>
<path d="M112.004 234.082L115.992 230.102L128.116 217.97L124.083 213.944L114.822 223.212V200.247H109.178L109.186 223.212L99.9178 213.944L95.8916 217.97L108.016 230.102L112.004 234.082Z" fill="black"/>
</g>
<defs>
<clipPath id="clip0_1324_13338">
<rect width="277.078" height="58" fill="white" transform="translate(83 193)"/>
</clipPath>
</defs>
</svg>
