<svg width="68" height="78" viewBox="0 0 68 78" fill="none" xmlns="http://www.w3.org/2000/svg">
<path d="M57.6368 5.96799V75.8533C57.6368 76.6011 57.0383 77.206 56.2983 77.206H2.06904C1.329 77.206 0.730469 76.6011 0.730469 75.8533V5.96799C0.730469 5.22022 1.329 4.61342 2.06904 4.61342H56.2981C57.0383 4.61342 57.6368 5.22022 57.6368 5.96799Z" fill="#407BFF"/>
<path opacity="0.3" d="M58 6.32485V74.677C58 75.4084 57.4005 76 56.6592 76H2.34078C1.59952 76 1 75.4084 1 74.677V6.32485C1 5.59348 1.59952 5 2.34078 5H56.659C57.4005 5 58 5.59348 58 6.32485Z" fill="#407BFF"/>
<path d="M57.6368 6.00033V74.8096C57.6368 75.547 57.0496 76.142 56.3232 76.142H3.10809C2.38194 76.142 1.79448 75.5471 1.79448 74.8096V6.00033C1.79448 5.26293 2.38176 4.66615 3.10809 4.66615H56.3232C57.0494 4.66598 57.6368 5.26275 57.6368 6.00033Z" fill="#407BFF"/>
<path opacity="0.3" d="M52.3977 8.32223H5.23733V68.8637H52.3977V8.32223Z" fill="black"/>
<path d="M52.3977 8.32223H6.30133V67.7997H52.3977V8.32223Z" fill="white"/>
<path d="M36.2761 1.91693V4.7674C36.2761 5.49355 35.6869 6.08102 34.9625 6.08102H23.7369C23.0125 6.08102 22.4233 5.49373 22.4233 4.7674V1.91693C22.4233 1.79863 22.4382 1.68244 22.4702 1.57346C22.6203 1.0143 23.1308 0.603321 23.7369 0.603321H34.9625C35.5686 0.603321 36.079 1.0143 36.2291 1.57346C36.2611 1.68227 36.2761 1.79863 36.2761 1.91693Z" fill="#B2B6BA"/>
<path opacity="0.4" d="M36.2761 1.91693V4.7674C36.2761 5.49355 35.6869 6.08102 34.9625 6.08102H23.7369C23.0125 6.08102 22.4233 5.49373 22.4233 4.7674V1.91693C22.4233 1.79863 22.4382 1.68244 22.4702 1.57346C22.6203 1.0143 23.1308 0.603321 23.7369 0.603321H34.9625C35.5686 0.603321 36.079 1.0143 36.2291 1.57346C36.2611 1.68227 36.2761 1.79863 36.2761 1.91693Z" fill="#B2B6BA"/>
<path opacity="0.5" d="M36.2761 1.91693V4.7674C36.2761 5.49355 35.6869 6.08101 34.9625 6.08101H23.7369C23.0125 6.08101 22.4233 5.49373 22.4233 4.7674V1.91693C22.4233 1.79863 22.4382 1.68244 22.4702 1.57346H36.2291C36.2611 1.68226 36.2761 1.79863 36.2761 1.91693Z" fill="#B2B6BA"/>
<path opacity="0.2" d="M39.9541 4.66598V9.73639C39.9541 10.0816 39.6595 10.3613 39.2898 10.3613C38.9334 10.3613 38.6444 10.0948 38.6293 9.76082C38.6236 9.76082 38.618 9.76275 38.6105 9.76275H37.689C37.6758 10.095 37.3868 10.3613 37.0284 10.3613C36.67 10.3613 36.381 10.0948 36.3678 9.76275H35.4278C35.4146 10.095 35.1238 10.3613 34.7654 10.3613C34.4089 10.3613 34.118 10.0948 34.1048 9.76275H33.1647C33.1516 10.095 32.8626 10.3613 32.5024 10.3613C32.1459 10.3613 31.8569 10.0948 31.8438 9.76275H30.9037C30.8887 10.095 30.5997 10.3613 30.2413 10.3613C29.8848 10.3613 29.5939 10.0948 29.5807 9.76275H28.6407C28.6275 10.095 28.3367 10.3613 27.9783 10.3613C27.6218 10.3613 27.3329 10.0948 27.3177 9.76275H26.3777C26.3645 10.095 26.0755 10.3613 25.7171 10.3613C25.3587 10.3613 25.0697 10.0948 25.0565 9.76275H24.1164C24.0995 10.095 23.8125 10.3613 23.4541 10.3613C23.0976 10.3613 22.8067 10.0948 22.7935 9.76275H21.8534C21.8385 10.095 21.5495 10.3613 21.1911 10.3613C20.8346 10.3613 20.5456 10.0948 20.5324 9.76275H19.6092C19.6036 9.76275 19.598 9.76082 19.5904 9.76082C19.5772 10.0948 19.2882 10.3613 18.9298 10.3613C18.5621 10.3613 18.2655 10.0816 18.2655 9.73639V4.66598H39.9541Z" fill="black"/>
<path d="M39.9541 3.54941V9.57695C39.9541 9.92219 39.6651 10.2019 39.3048 10.2019C38.9557 10.2019 38.6723 9.93537 38.6593 9.60139C38.6537 9.60139 38.6481 9.60332 38.6405 9.60332H37.7398C37.7266 9.93555 37.4433 10.2019 37.0924 10.2019C36.7433 10.2019 36.4599 9.93537 36.4469 9.60332H35.5274C35.5142 9.93555 35.2309 10.2019 34.88 10.2019C34.5309 10.2019 34.2476 9.93537 34.2345 9.60332H33.315C33.3019 9.93555 33.0185 10.2019 32.6676 10.2019C32.3185 10.2019 32.0352 9.93537 32.0222 9.60332H31.1027C31.0895 9.93555 30.8061 10.2019 30.4553 10.2019C30.1062 10.2019 29.8228 9.93537 29.8098 9.60332H28.8903C28.8771 9.93555 28.5937 10.2019 28.2429 10.2019C27.8938 10.2019 27.6104 9.93537 27.5974 9.60332H26.6779C26.6647 9.93555 26.3813 10.2019 26.0305 10.2019C25.6814 10.2019 25.398 9.93537 25.385 9.60332H24.4655C24.4506 9.93555 24.169 10.2019 23.8181 10.2019C23.469 10.2019 23.1856 9.93537 23.1726 9.60332H22.2531C22.2382 9.93555 21.9566 10.2019 21.6057 10.2019C21.2566 10.2019 20.9733 9.93537 20.9603 9.60332H20.0576C20.052 9.60332 20.0464 9.60139 20.0407 9.60139C20.0276 9.93537 19.7442 10.2019 19.3933 10.2019C19.0349 10.2019 18.744 9.92219 18.744 9.57695V3.54941C18.744 3.0465 19.3332 2.63746 20.0576 2.63746H38.641C39.3667 2.63746 39.9541 3.0465 39.9541 3.54941Z" fill="#B2B6BA"/>
<path opacity="0.5" d="M39.9541 3.54942V4.61342C39.9541 4.11051 39.3668 3.70147 38.6405 3.70147H20.0571C19.3327 3.70147 18.7435 4.11051 18.7435 4.61342V3.54942C18.7435 3.0465 19.3327 2.63746 20.0571 2.63746H38.6405C39.3667 2.63746 39.9541 3.0465 39.9541 3.54942Z" fill="#B2B6BA"/>
<path opacity="0.5" d="M39.9541 6.85023H18.7435V8.05117H39.9541V6.85023Z" fill="#B2B6BA"/>
<path opacity="0.7" d="M23.7128 16.3259H10.2942V36.2263H23.7128V16.3259Z" fill="#263238"/>
<path opacity="0.7" d="M48.5029 16.3259H27.4654V17.5768H48.5029V16.3259Z" fill="#3D3D3D"/>
<path opacity="0.7" d="M48.5029 18.9858H27.4654V20.2367H48.5029V18.9858Z" fill="#3D3D3D"/>
<path opacity="0.7" d="M48.5029 21.6457H27.4654V22.8966H48.5029V21.6457Z" fill="#3D3D3D"/>
<path opacity="0.7" d="M48.5029 24.3058H27.4654V25.5567H48.5029V24.3058Z" fill="#3D3D3D"/>
<path opacity="0.7" d="M48.5029 26.9658H27.4654V28.2166H48.5029V26.9658Z" fill="#3D3D3D"/>
<path opacity="0.7" d="M48.5029 29.6259H27.4654V30.8767H48.5029V29.6259Z" fill="#3D3D3D"/>
<path opacity="0.7" d="M48.5029 32.2858H27.4654V33.5366H48.5029V32.2858Z" fill="#3D3D3D"/>
<path opacity="0.7" d="M48.5029 34.9459H27.4654V36.1967H48.5029V34.9459Z" fill="#3D3D3D"/>
<path opacity="0.7" d="M48.5029 41.0063H10.2942V42.2571H48.5029V41.0063Z" fill="#3D3D3D"/>
<path opacity="0.7" d="M48.5029 43.6662H10.2942V44.9171H48.5029V43.6662Z" fill="#3D3D3D"/>
<path opacity="0.7" d="M48.5029 46.3263H10.2942V47.5772H48.5029V46.3263Z" fill="#3D3D3D"/>
<path opacity="0.7" d="M48.5036 48.9862H10.2949V50.2371H48.5036V48.9862Z" fill="#3D3D3D"/>
<path opacity="0.2" d="M57.6368 39.371V45.1226C54.6043 47.8735 47.3139 54.5035 45.6025 56.2149C43.4276 58.3898 40.3313 58.8908 40.3313 58.8908L37.3457 59.328L57.6368 39.371Z" fill="black"/>
<path opacity="0.7" d="M50.7 65.0398H8.09711V65.6652H50.7V65.0398Z" fill="#3D3D3D"/>
<path d="M40.8193 57.465L37.1073 59.4886L39.1295 55.776L40.8193 57.465Z" fill="#4D4D4D"/>
<path d="M54.2281 45.0841L41.6699 57.6422C41.2625 58.0497 39.7725 58.4129 39.4486 58.0887L38.5071 57.1472C38.1831 56.8233 38.5461 55.3333 38.9536 54.9259L51.5117 42.3677C51.9192 41.9603 52.5114 41.8933 52.8354 42.2174L54.3771 43.7592C54.7025 44.0844 54.6355 44.6766 54.2281 45.0841Z" fill="#263238"/>
<path opacity="0.5" d="M39.4683 58.1059C39.4604 58.1007 39.4549 58.0954 39.4484 58.0887L38.5076 57.1479C38.1826 56.8229 38.5461 55.334 38.9534 54.9268L51.5128 42.3674C51.9203 41.9599 52.5119 41.8936 52.8357 42.2174L53.8136 43.1953C53.4898 42.8715 52.8979 42.9379 52.4907 43.3452L39.9313 55.9046C39.5319 56.304 39.1749 57.7465 39.4683 58.1059Z" fill="#263238"/>
<path d="M67.418 32.6059L55.162 44.8619C54.783 45.2409 54.1441 45.217 53.7343 44.807L51.7889 42.8617C51.3792 42.4519 51.3551 41.8129 51.7341 41.434L63.9901 29.178C64.3701 28.7979 65.0091 28.822 65.4188 29.2318L67.3642 31.1771C67.774 31.5869 67.7981 32.2257 67.418 32.6059Z" fill="#D51920"/>
<path d="M52.8422 43.9146L51.7886 42.861C51.3799 42.4523 51.356 41.8126 51.7341 41.4345L63.9908 29.1778C64.3703 28.7983 65.0098 28.8222 65.4185 29.2309L66.4721 30.2845C66.062 29.8744 65.4238 29.8519 65.0444 30.2314L52.7877 42.4881C52.4096 42.8664 52.4321 43.5047 52.8422 43.9146Z" fill="#D51920"/>
<path opacity="0.7" d="M32.2839 59.1184C32.7852 56.869 28.4362 56.7526 27.4654 56.2662C29.3176 56.3912 35.1488 61.4685 36.7618 58.9593C37.9826 57.0604 35.9797 54.2779 36.2295 53.5474C35.7104 55.0661 35.3715 65.8429 32.571 64.9092C31.3162 64.4908 30.155 60.3498 31.9705 59.9631C34.2212 59.4837 34.7948 62.5207 35.4587 62.7023C35.362 62.3226 36.8038 59.3926 37.3455 59.3288C36.5775 59.4194 41.7174 61.8638 41.5435 61.7759C45.5698 63.8123 42.5413 59.4083 44.8328 59.4206C45.1126 59.441 45.911 60.0223 46.2037 60.1731" stroke="#407BFF" stroke-width="2.1351" stroke-miterlimit="10"/>
<path opacity="0.5" d="M17.687 53.5483C14.5138 53.5483 11.9411 56.121 11.9411 59.2942C11.9411 62.4674 14.5138 65.0401 17.687 65.0401C20.8622 65.0401 23.4349 62.4674 23.4349 59.2942C23.4349 56.121 20.8622 53.5483 17.687 53.5483ZM17.687 63.6216C15.2982 63.6216 13.3597 61.685 13.3597 59.2942C13.3597 56.9034 15.2982 54.9651 17.687 54.9651C20.0778 54.9651 22.0162 56.9036 22.0162 59.2942C22.0162 61.6848 20.0777 63.6216 17.687 63.6216Z" fill="#D51920"/>
<path opacity="0.5" d="M17.6877 61.7987C19.0713 61.7987 20.193 60.6771 20.193 59.2935C20.193 57.9099 19.0713 56.7883 17.6877 56.7883C16.3041 56.7883 15.1825 57.9099 15.1825 59.2935C15.1825 60.6771 16.3041 61.7987 17.6877 61.7987Z" fill="#D51920"/>
</svg>
