<svg width="213" height="157" viewBox="0 0 213 157" fill="none" xmlns="http://www.w3.org/2000/svg">
<path d="M126.467 4.19513H123.548V1.09438C123.548 0.547192 123.001 0 122.454 0C121.907 0 121.36 0.547192 121.36 1.09438V4.19513H118.258C117.711 4.19513 117.164 4.74233 117.164 5.28952C117.164 5.8367 117.711 6.38389 118.258 6.38389H121.36V9.48464C121.36 10.0318 121.907 10.579 122.454 10.579C123.001 10.579 123.548 10.0318 123.548 9.48464V6.38389H126.649C127.196 6.38389 127.743 5.8367 127.743 5.28952C127.561 4.74233 127.014 4.19513 126.467 4.19513Z" fill="#FFB5D7"/>
<path d="M17.0697 147.456L15.6034 146.075L17.0716 144.516C17.3307 144.242 17.3149 143.708 17.0399 143.449C16.765 143.189 16.231 143.205 15.9719 143.481L14.5037 145.038L12.9458 143.57C12.6708 143.311 12.1367 143.327 11.8777 143.601C11.6186 143.877 11.6344 144.411 11.9093 144.67L13.4673 146.138L11.9991 147.696C11.74 147.97 11.7558 148.505 12.0307 148.764C12.3057 149.023 12.8397 149.007 13.0988 148.732L14.567 147.174L16.1249 148.643C16.3999 148.902 16.9339 148.885 17.193 148.611C17.3605 148.249 17.3446 147.715 17.0697 147.456Z" fill="#B2ABFF"/>
<path d="M208.993 69.1851C210.477 69.1851 211.777 67.886 211.777 66.4011C211.777 64.9164 210.477 63.6172 208.993 63.6172C207.508 63.6172 206.209 64.9164 206.209 66.4011C206.209 68.0715 207.508 69.1851 208.993 69.1851Z" fill="#EAA8FF"/>
<path d="M181.094 132.892C183.321 132.892 185.269 130.944 185.269 128.717C185.269 126.489 183.321 124.541 181.094 124.541C178.866 124.541 176.918 126.489 176.918 128.717C176.918 131.223 178.866 132.892 181.094 132.892Z" fill="#FFDE92"/>
<g opacity="0.5">
<path d="M10.707 31.1988L13.7235 37.9773L16.8459 31.5053L25.8595 8.04688L10.707 31.1988Z" fill="#729CF6"/>
<path d="M13.7231 37.9779L20.5935 28.2129L17.5903 29.5715L13.7231 37.9779Z" fill="#A8CCFF"/>
<path d="M10.7071 31.1988L4.45312 28.8907L25.8595 8.04688L10.7071 31.1988Z" fill="#9BC4FF"/>
<path d="M25.8593 8.04688L16.8457 31.5053L26.2992 34.4145L25.8593 8.04688Z" fill="#98C2FF"/>
<path d="M13.5148 43.0174C13.4337 43.0595 13.3528 43.1018 13.3105 43.0208C13.0249 43.0665 12.7749 42.7843 12.7292 42.4989C12.7122 41.4769 12.7374 40.5359 12.886 39.6339C12.9214 39.3062 13.2457 39.1371 13.5734 39.1726C13.9011 39.208 14.07 39.5323 14.0347 39.86C13.8861 40.7622 13.8187 41.6219 13.8746 42.5207C13.878 42.725 13.677 42.9329 13.5148 43.0174Z" fill="#BAD8FF"/>
<path d="M66.6655 74.396C66.5387 74.1528 66.2498 73.9941 65.9643 74.0397C64.3394 74.6802 62.5454 74.9964 60.6247 75.0693C60.3393 75.115 60.0572 75.365 60.1029 75.6505C60.0675 75.9782 60.3986 76.2181 60.684 76.1724C62.728 76.1383 64.603 75.7799 66.4324 75.1359C66.6334 74.9282 66.7921 74.6393 66.6655 74.396ZM57.8088 75.4025C57.8442 75.0748 57.5941 74.7928 57.3475 74.7151C55.5433 74.4181 53.7358 73.9166 52.087 73.1263C51.798 72.9676 51.4737 73.1365 51.315 73.4255C51.1562 73.7143 51.3251 74.0386 51.6141 74.1973C53.3863 75.0265 55.2361 75.609 57.1214 75.8638C57.2446 75.9027 57.3257 75.8604 57.4068 75.8182C57.6112 75.8147 57.7311 75.6491 57.8088 75.4025ZM49.4161 72.3531C49.5748 72.0641 49.5291 71.7786 49.3214 71.5777L49.1559 71.4578C47.789 70.4174 46.4611 69.2537 45.2531 67.9245C45.0453 67.7234 44.7176 67.688 44.5165 67.8959C44.3156 68.1036 44.2801 68.4313 44.5302 68.7135C45.7805 70.1238 47.2317 71.3263 48.5985 72.3666L48.8064 72.5677C48.9719 72.6876 49.1762 72.6842 49.3384 72.5997C49.2151 72.5608 49.335 72.3952 49.4161 72.3531ZM42.8928 66.1646C43.0939 65.9568 43.2104 65.5868 43.0026 65.3859C41.9567 63.9721 40.9497 62.435 40.0203 60.6513C39.8936 60.408 39.5236 60.2916 39.2803 60.4184C39.0371 60.545 38.9206 60.915 39.0474 61.1583C39.9767 62.942 41.0261 64.5601 42.0719 65.9738C42.1986 66.217 42.5264 66.2525 42.7696 66.1258C42.8118 66.2069 42.8118 66.2069 42.8928 66.1646ZM38.2243 58.3914C38.4676 58.2646 38.6262 57.9757 38.4572 57.6514C38.3728 57.4893 38.3306 57.4082 38.246 57.246C38.8135 56.9503 39.3389 56.5735 39.8641 56.1968C40.1074 56.07 40.1817 55.619 39.9739 55.418C39.8472 55.1748 39.3961 55.1005 39.1951 55.3084C38.7509 55.6429 38.2644 55.8963 37.8202 56.2309C37.3099 55.0535 36.7995 53.8763 36.2857 52.4944C36.1591 52.2512 35.8701 52.0924 35.5847 52.1381C35.3415 52.2649 35.1827 52.5537 35.2283 52.8392C35.7421 54.221 36.2946 55.4794 36.805 56.6567C35.9942 57.0792 35.1413 57.4205 34.3271 57.6385C34.0416 57.6842 33.9251 58.0542 33.9707 58.3396C34.0164 58.6252 34.3864 58.7416 34.6718 58.696C35.567 58.4357 36.4201 58.0943 37.2309 57.6719C37.2731 57.753 37.3575 57.9151 37.3998 57.9962C37.6111 58.4016 37.9 58.5604 38.2243 58.3914ZM31.8137 58.9482C31.768 58.6627 31.518 58.3806 31.2324 58.4262C30.1293 58.4855 28.984 58.4637 27.8776 58.3187C27.2221 58.2478 26.5244 58.0959 25.7845 57.8629C25.5379 57.7852 25.2135 57.9542 25.0548 58.2431C24.9772 58.4897 25.1461 58.814 25.435 58.9728C26.1749 59.2058 26.8726 59.3577 27.6514 59.4673C28.8812 59.6513 30.0265 59.6731 31.2917 59.5293C31.3728 59.487 31.3728 59.487 31.4539 59.4448C31.6583 59.4414 31.8171 59.1525 31.8137 58.9482ZM42.4838 53.904C43.8908 52.4493 44.9277 50.8781 45.7569 49.106C45.9157 48.8171 45.7467 48.4928 45.4578 48.334C45.1689 48.1753 44.8446 48.3444 44.6858 48.6332C43.9766 50.2398 42.9396 51.811 41.6527 53.1C41.4516 53.3079 41.4585 53.7167 41.6663 53.9176C41.8318 54.0376 42.0784 54.1153 42.2406 54.0308C42.445 54.0274 42.4027 53.9463 42.4838 53.904ZM22.9972 57.4596C23.156 57.1707 23.068 56.8041 22.8213 56.7265C21.2536 55.8939 19.8024 54.6914 18.5132 53.4043C18.3055 53.2034 17.9778 53.168 17.6956 53.418C17.4947 53.6259 17.4592 53.9536 17.7092 54.2356C19.0829 55.6848 20.6152 56.8451 22.2675 57.8398C22.4331 57.9597 22.6374 57.9563 22.7995 57.8718C22.8772 57.6252 22.9583 57.5829 22.9972 57.4596ZM46.8054 45.7763C46.9608 45.2831 46.9928 44.7509 47.0671 44.2998C47.2476 42.8656 47.0581 41.315 46.6676 39.972C46.6221 39.6866 46.2908 39.4468 45.9665 39.6157C45.6811 39.6614 45.4413 39.9925 45.6102 40.3169C45.9584 41.5787 46.0634 42.9672 45.9217 44.2781C45.8475 44.7291 45.7732 45.1802 45.6989 45.6312C45.6635 45.9589 45.7902 46.2022 46.1602 46.3187C46.2836 46.3575 46.3647 46.3153 46.5268 46.2308C46.689 46.1464 46.8088 45.9807 46.8054 45.7763ZM35.1703 49.3644C34.4808 47.2496 34.1258 45.5789 34.0174 43.986C33.9718 43.7006 33.7217 43.4185 33.4363 43.4641C33.1508 43.5098 32.8687 43.7598 32.9144 44.0454C33.065 45.7194 33.3811 47.5133 34.1129 49.7092C34.1586 49.9947 34.5286 50.1112 34.814 50.0655C34.814 50.0655 34.814 50.0655 34.8951 50.0233C35.0573 49.9388 35.216 49.6499 35.1703 49.3644ZM16.273 51.479C16.5163 51.3522 16.6327 50.9823 16.4638 50.658C16.0025 49.9705 15.6223 49.2408 15.3232 48.4689C14.9396 47.5347 14.5559 46.6006 14.3767 45.6632C14.331 45.3776 13.9999 45.1378 13.6756 45.3069C13.3901 45.3524 13.1504 45.6836 13.3193 46.0079C13.5408 47.0265 13.9667 48.0417 14.3502 48.9758C14.6915 49.8288 15.1528 50.5162 15.5753 51.327C15.702 51.5702 15.9487 51.6479 16.273 51.479ZM45.0727 37.5043C45.2736 37.2965 45.3901 36.9266 45.1823 36.7255C44.1787 35.3929 42.9387 34.5957 41.42 34.253C40.8456 34.14 40.3135 34.108 39.8236 34.1571C39.5381 34.2026 39.2561 34.4528 39.3016 34.7382C39.3473 35.0237 39.5974 35.3057 39.8829 35.26C40.2917 35.2532 40.7815 35.2042 41.1515 35.3207C42.3813 35.5047 43.3747 36.2241 44.2516 37.3136C44.3784 37.5568 44.7061 37.5922 44.9493 37.4654C44.9916 37.5465 44.9916 37.5465 45.0727 37.5043ZM34.2096 40.7934C34.5911 39.1513 35.709 37.5378 36.9995 36.4531C37.2005 36.2454 37.317 35.8754 37.1091 35.6745C36.9014 35.4734 36.5314 35.3569 36.3305 35.5647C34.7968 36.7761 33.5588 38.5552 33.1419 40.5248C33.1065 40.8526 33.2332 41.0959 33.6031 41.2123C33.7265 41.2511 33.8076 41.2089 34.0119 41.2055C34.0508 41.0822 34.1707 40.9166 34.2096 40.7934Z" fill="#BAD8FF"/>
<path d="M69.3899 73.4907C69.1467 73.6175 68.9 73.5398 68.6922 73.3388C68.5655 73.0956 68.6009 72.7679 68.802 72.5601C69.5705 72.0565 70.1734 71.4331 70.7764 70.8096C70.9774 70.6019 71.344 70.5139 71.594 70.796C71.8019 70.997 71.8897 71.3636 71.6076 71.6136C70.9659 72.3604 70.2396 72.9449 69.4322 73.5718C69.471 73.4485 69.471 73.4485 69.3899 73.4907Z" fill="#DDECFF"/>
</g>
<path opacity="0.6" d="M60.6725 151.8L60.6724 40.29C60.6724 38.0134 62.5178 36.168 64.7943 36.168H152.386C154.662 36.168 156.508 38.0134 156.508 40.2899V151.8C156.508 154.076 154.662 155.921 152.386 155.921H64.7946C62.5181 155.921 60.6725 154.076 60.6725 151.8Z" fill="#729CF6"/>
<path d="M97.728 57.2578H141.079" stroke="white" stroke-width="6.702" stroke-linecap="round"/>
<path d="M81.9025 63.1018C86.104 63.1018 89.51 59.6958 89.51 55.4943C89.51 51.2927 86.104 47.8867 81.9025 47.8867C77.7009 47.8867 74.2949 51.2927 74.2949 55.4943C74.2949 59.6958 77.7009 63.1018 81.9025 63.1018Z" fill="white"/>
<path d="M76.6382 81.8613H141.664" stroke="white" stroke-width="6.702" stroke-linecap="round"/>
<path d="M76.6382 107.639H141.664" stroke="white" stroke-width="6.702" stroke-linecap="round"/>
<path d="M76.6382 133.414H141.664" stroke="white" stroke-width="6.702" stroke-linecap="round"/>
<g opacity="0.3">
<path d="M12.8872 126.28V125.454C12.8872 121.068 16.443 117.512 20.8293 117.512H61.9474V134.223H20.8293C16.443 134.223 12.8872 130.667 12.8872 126.28Z" fill="#B0C3FA"/>
<path d="M175.367 125.454V126.28C175.367 130.667 171.811 134.223 167.424 134.223H156.414V117.512H167.424C171.811 117.512 175.367 121.068 175.367 125.454Z" fill="#B0C3FA"/>
<path d="M44.7969 77.3295V76.5026C44.7969 72.1164 48.3527 68.5605 52.739 68.5605H60.6718V85.2716H52.739C48.3527 85.2716 44.7969 81.7157 44.7969 77.3295Z" fill="#B0C3FA"/>
<path d="M191.92 76.5026V77.3295C191.92 81.7157 188.364 85.2716 183.977 85.2716H156.499V68.5605H183.977C188.364 68.5605 191.92 72.1164 191.92 76.5026Z" fill="#B0C3FA"/>
<path d="M207.844 109.219V110.046C207.844 114.433 204.29 117.989 199.903 117.989H156.529V101.277H199.903C204.29 101.277 207.844 104.833 207.844 109.219Z" fill="#B0C3FA"/>
<path d="M50.707 103.244L48.3408 101.277H60.6718V117.989H48.3408L51.3525 114.859C54.5517 111.535 54.2548 106.193 50.707 103.244Z" fill="#B0C3FA"/>
<path d="M16.2988 92.5065V93.3334C16.2988 97.7196 19.8546 101.275 24.2409 101.275H60.6723V84.5645H24.2409C19.8546 84.5645 16.2988 88.1203 16.2988 92.5065Z" fill="#B0C3FA"/>
<path d="M163.753 86.8496L166.149 84.5645H156.411V101.275H166.149L163.15 97.6995C160.459 94.4897 160.722 89.7411 163.753 86.8496Z" fill="#B0C3FA"/>
</g>
</svg>
