<svg width="310" height="273" viewBox="0 0 310 273" fill="none" xmlns="http://www.w3.org/2000/svg">
<path d="M277 65.3125V78.375L0 209V26.125C0 11.6962 13.7792 0 30.7778 0H106.639C116.929 0 126.54 4.36549 132.248 11.6335L153.887 39.1875H246.221C263.219 39.1875 277 50.8837 277 65.3125Z" fill="#407BFF"/>
<path d="M308.385 111.318L267.053 218.651C262.832 229.609 250.987 237 237.643 237H31.0229C9.86384 237 -5.07665 219.057 1.61471 201.682L42.9471 94.3486C47.1678 83.3912 59.0129 76 72.3569 76H278.977C300.136 76 315.077 93.9434 308.385 111.318Z" fill="#84AAFF"/>
<mask id="path-3-inside-1_418_5137" fill="white">
<path d="M190.355 187.645C185.712 183.002 180.2 179.319 174.134 176.806C168.068 174.293 161.566 173 155 173C148.434 173 141.932 174.293 135.866 176.806C129.8 179.319 124.288 183.002 119.645 187.645L155 223L190.355 187.645Z"/>
</mask>
<path d="M190.355 187.645C185.712 183.002 180.2 179.319 174.134 176.806C168.068 174.293 161.566 173 155 173C148.434 173 141.932 174.293 135.866 176.806C129.8 179.319 124.288 183.002 119.645 187.645L155 223L190.355 187.645Z" stroke="#2F407D" stroke-width="10" mask="url(#path-3-inside-1_418_5137)"/>
<mask id="path-4-inside-2_418_5137" fill="white">
<path d="M186.82 191.18C182.641 187.002 177.68 183.687 172.221 181.425C166.761 179.164 160.909 178 155 178C149.091 178 143.239 179.164 137.779 181.425C132.32 183.687 127.359 187.002 123.18 191.18L155 223L186.82 191.18Z"/>
</mask>
<path d="M186.82 191.18C182.641 187.002 177.68 183.687 172.221 181.425C166.761 179.164 160.909 178 155 178C149.091 178 143.239 179.164 137.779 181.425C132.32 183.687 127.359 187.002 123.18 191.18L155 223L186.82 191.18Z" stroke="#84AAFF" stroke-width="10" mask="url(#path-4-inside-2_418_5137)"/>
<circle cx="112" cy="142" r="6" fill="#2F407D"/>
<circle cx="199" cy="142" r="6" fill="#2F407D"/>
</svg>
