<svg xmlns="http://www.w3.org/2000/svg" data-name="Layer 1" viewBox="0 0 32 32"><path d="M28,8.41H24.12V7.35A3.1,3.1,0,0,0,21,4.26H4A3.09,3.09,0,0,0,.89,7.35v10A3.08,3.08,0,0,0,4,20.47H7.88v1.07A3.09,3.09,0,0,0,11,24.62h10l2.71,2.71a1.39,1.39,0,0,0,2.37-1V24.62h2a3.08,3.08,0,0,0,3.08-3.08v-10A3.09,3.09,0,0,0,28,8.41ZM4,18.72a1.33,1.33,0,0,1-1.32-1.33v-10A1.33,1.33,0,0,1,4,6H21a1.34,1.34,0,0,1,1.33,1.33v10A1.34,1.34,0,0,1,21,18.72H4Z"/><path d="M9 10.77a1.6 1.6 0 101.6 1.6A1.6 1.6 0 009 10.77zM15.12 10.77a1.6 1.6 0 101.6 1.6A1.6 1.6 0 0015.12 10.77z"/></svg>