<svg width="1374" height="651" viewBox="0 0 1374 651" fill="none" xmlns="http://www.w3.org/2000/svg">
<rect width="1374" height="651" fill="#2196F3"/>
<ellipse cx="687" cy="325.5" rx="687" ry="325.5" fill="white"/>
<path d="M408.637 109.506C408.264 106.553 407.508 103.661 406.39 100.902C406.247 100.38 405.997 99.8939 405.656 99.4741C405.315 99.0542 404.891 98.7099 404.41 98.4631C403.766 98.2959 403.092 98.2883 402.445 98.4412L392.358 99.9846C391.513 100.023 390.705 100.337 390.056 100.879C388.742 102.261 390.036 104.485 389.996 106.392C389.95 108.535 388.046 110.275 385.981 110.851C383.873 111.277 381.698 111.25 379.601 110.772L365.496 108.58C369.65 107.253 373.348 104.786 376.167 101.459C378.023 99.26 379.01 95.1547 376.328 94.1134C375.531 93.8947 374.7 93.828 373.878 93.9167C367.487 93.9664 362.458 88.6307 356.476 86.3835C352.647 85.0382 348.49 84.9381 344.601 86.0975C340.712 87.257 337.289 89.6166 334.821 92.8389L342.335 93.2012C343.042 93.1621 343.743 93.3491 344.336 93.7349C345.983 95.0879 343.936 97.6866 344.168 99.8052C344.469 102.558 348.124 103.145 350.879 103.424C353.634 103.702 357.129 105.94 355.804 108.372C341.957 113.141 327.867 99.0484 313.325 100.783C309.644 101.222 306.169 102.668 302.575 103.577C280.625 109.131 257.932 94.3129 235.508 97.4511C230.523 98.301 225.623 99.5931 220.867 101.312C217.815 102.314 214.632 103.397 212.414 105.721C210.197 108.045 209.353 112.02 211.454 114.45C205.663 114.927 199.835 114.373 194.238 112.813C195.751 113.655 197.01 114.888 197.883 116.384C198.755 117.879 199.209 119.582 199.197 121.314C190.156 122.788 181.355 125.472 173.029 129.292C174.583 131.876 176.398 134.294 178.445 136.507L167 143.86C170.867 144.834 172.866 150.107 170.617 153.4C174.627 151.617 177.112 147.002 181.399 146.067C184.208 145.454 187.066 146.603 189.73 147.682C192.395 148.762 195.324 149.808 198.082 148.998C200.841 148.188 202.875 144.612 201.122 142.333C212.913 138.893 225.097 136.989 237.375 136.669C238.322 136.55 239.283 136.732 240.121 137.19C241.719 138.299 241.298 140.694 241.212 142.637C241.126 144.58 242.641 147.134 244.378 146.258C242.334 148.03 244.081 151.366 246.041 153.229C248.002 155.093 250.365 157.664 249.165 160.087C248.851 160.72 248.32 161.226 248.019 161.864C247.129 163.749 248.542 165.945 250.208 167.196C251.874 168.448 253.915 169.322 255.072 171.055C256.229 172.788 255.704 175.82 253.634 176.062L247.752 168.594C245.742 170.678 244.364 173.289 243.778 176.124C250.016 181.223 250.954 191.602 245.732 197.737C243.063 200.872 239.268 202.778 235.956 205.223C232.644 207.669 229.579 211.151 229.587 215.268C229.602 222.381 229.02 228.989 231.686 235.584C236.601 247.744 242.276 259.584 248.676 271.032C250.357 274.038 252.529 277.333 255.934 277.85C251.631 267.374 247.757 256.735 244.313 245.933C246.556 245.942 249.149 246.12 250.464 247.937C251.553 249.442 251.319 251.489 251.657 253.315C252.088 255.085 252.805 256.772 253.782 258.31L274.331 294.914C276.035 297.949 277.989 301.206 281.245 302.435C283.326 303.221 285.735 303.073 287.65 304.204C289.152 305.09 290.164 306.664 291.695 307.499C296.024 309.861 302.043 305.332 306.089 308.151C307.245 308.958 307.981 310.238 309.047 311.161C312.783 314.397 318.912 312.232 323.226 314.646C326.005 316.202 327.446 319.313 328.929 322.132C332.643 329.194 338.652 336.113 346.611 336.675C349.111 336.852 351.665 336.378 354.109 336.934C356.553 337.49 358.959 339.623 358.566 342.098C357.894 346.342 359.991 350.99 359.428 355.249C358.402 363.009 347.396 366.419 346.45 374.189C346.243 375.89 346.567 377.646 346.162 379.311C345.666 381.352 344.133 383.013 343.588 385.042C342.556 388.886 345.31 392.712 348.336 395.298C351.362 397.884 354.971 400.114 356.625 403.735C358.373 407.561 357.514 412.023 358.083 416.192C359.324 425.292 367.185 432.039 375.274 436.389C377.738 437.714 380.385 438.997 381.98 441.296C384.062 444.297 383.855 448.253 384.55 451.839C386.253 460.62 393.645 467.856 393.855 476.799C394.004 483.155 390.471 488.921 388.36 494.918C386.382 500.665 385.666 506.77 386.261 512.818C386.857 518.866 388.75 524.714 391.811 529.964C393.39 532.63 395.278 535.144 396.395 538.034C398.388 543.191 397.742 549.054 399.579 554.269C402.009 561.164 408.685 566.859 408.046 574.141C411.077 580.435 417.77 583.527 424.5 585.401L436.561 588.758C438.871 589.401 441.284 590.049 443.636 589.584C445.987 589.118 448.232 587.165 448.171 584.769C442.256 583.435 436.152 582.016 431.276 578.412C426.4 574.808 423.06 568.389 424.91 562.615C425.768 559.938 427.593 556.846 425.858 554.633C424.864 553.367 423.048 553.036 421.927 551.88C420.179 550.077 420.78 547.049 422.036 544.875C423.293 542.701 425.109 540.759 425.616 538.299C425.872 536.924 425.701 535.503 425.126 534.227C424.551 532.951 423.6 531.881 422.4 531.162C424.636 530.317 426.67 529.012 428.37 527.331C429.94 525.538 430.665 522.774 429.43 520.736C433.098 521.201 437.427 521.429 439.835 518.623C441.758 516.383 441.625 513.034 440.866 510.181C440.106 507.328 438.822 504.557 438.782 501.605C447.243 502.006 455.721 501.719 464.135 500.746C462.919 496.648 460.154 493.186 456.427 491.092C460.238 490.447 463.709 485.885 464.913 482.213C466.117 478.541 465.81 474.54 465.066 470.748C464.78 469.771 464.741 468.739 464.952 467.744C465.381 466.377 466.724 465.542 467.967 464.828L486.882 453.966C488.01 453.4 489.033 452.645 489.906 451.733C491.888 449.405 491.594 445.891 490.58 443.008C489.565 440.124 487.94 437.412 487.549 434.38C486.38 425.313 496.086 418.807 499.362 410.271C500.648 406.922 500.91 403.281 501.159 399.701C501.426 395.857 501.446 391.392 498.494 388.914C495.664 386.54 491.243 387.069 488.283 384.86C485.568 382.835 484.632 378.902 481.666 377.266C478.973 375.781 475.597 376.726 472.601 376.027C467.328 374.797 464.009 368.719 458.623 368.156C455.584 367.839 452.145 369.324 449.654 367.554C447.46 365.995 447.372 362.861 446.954 360.201C446.222 356.068 444.241 352.258 441.277 349.285C438.314 346.312 434.511 344.318 430.379 343.573C427.246 343.07 423.836 343.261 421.17 341.539C418.471 339.796 417.234 336.532 415.114 334.117C411.697 330.226 406.315 328.843 401.274 327.658L380.769 322.837C377.129 321.982 372.436 321.528 370.483 324.717C369.905 325.931 369.495 327.218 369.266 328.543C368.534 330.94 367.061 333.043 365.059 334.551C363.057 336.058 360.628 336.891 358.122 336.931C356.404 334 353.619 331.846 350.35 330.918C348.271 330.339 346.046 330.274 344.062 329.422C342.982 328.895 342.021 328.153 341.238 327.241C340.455 326.33 339.866 325.268 339.507 324.121C339.148 322.974 339.027 321.766 339.152 320.57C339.276 319.375 339.643 318.218 340.23 317.169C341.412 315.064 341.869 312.629 341.529 310.239C341.19 307.848 340.073 305.636 338.351 303.944C334.864 300.813 329.82 300.057 325.144 300.37C323.919 297.698 325.967 294.683 328.173 292.741C330.38 290.799 333.059 288.89 333.54 285.99C334.296 281.429 328.475 277.964 324.056 279.325C319.637 280.685 316.817 284.977 314.952 289.208C313.883 291.636 312.973 294.192 311.286 296.239C309.598 298.286 306.881 299.752 304.311 299.095C300.672 298.165 299.267 293.842 298.461 290.173C297.381 285.251 296.294 280.261 296.52 275.228C296.747 270.194 298.444 265.025 302.156 261.617C308.204 256.064 317.484 256.608 325.647 257.494C323.718 255.321 324.195 251.659 326.259 249.614C327.348 248.646 328.657 247.958 330.072 247.611C331.487 247.263 332.966 247.266 334.379 247.619C336.839 248.131 339.055 249.456 340.671 251.38C342.99 254.209 343.65 258.027 345.403 261.238C347.157 264.448 351.1 267.186 354.327 265.464C357.114 263.976 357.557 260.111 356.863 257.029C356.169 253.946 354.696 250.949 354.947 247.799C355.426 241.79 361.656 238.172 367.153 235.697C372.651 233.222 378.945 229.894 379.816 223.928C379.846 222.76 380.066 221.605 380.469 220.508C381.078 219.539 381.925 218.742 382.93 218.193C398.974 207.59 415.285 196.858 433.622 191.065C434.576 190.763 434.688 191.098 435.66 190.862C437.021 190.076 436.12 187.9 434.815 187.023C433.51 186.147 431.766 185.475 431.435 183.939C431.192 182.809 431.858 181.7 432.03 180.558C432.455 177.751 429.097 175.159 426.489 176.281C425.016 174.331 427.931 172.064 430.288 171.415C437.365 169.467 444.629 168.281 451.958 167.875C452.804 167.741 453.67 167.888 454.424 168.294C455.655 169.147 455.498 171.103 454.625 172.32C453.753 173.537 452.396 174.301 451.309 175.331C450.121 176.488 449.274 177.949 448.86 179.555C448.446 181.16 448.481 182.849 448.961 184.436C452.787 186.382 456.946 188.385 461.184 187.7C465.421 187.014 469.182 182.253 467.191 178.451C465.336 174.91 459.764 174.111 458.806 170.23C457.685 165.686 464.117 161.645 462.668 157.195C462.033 155.245 460.09 154.098 458.6 152.691C456.839 150.965 455.642 148.748 455.164 146.329C454.687 143.911 454.952 141.404 455.925 139.139C453.497 139.566 451.002 139.405 448.649 138.669C446.296 137.932 444.154 136.643 442.403 134.908C439.168 131.643 436.588 126.494 431.995 126.64C427.78 126.774 424.149 131.691 420.208 130.191C419.239 129.822 418.216 129.071 417.277 129.511C416.969 129.711 416.711 129.978 416.521 130.293C416.332 130.607 416.216 130.96 416.184 131.326C415.182 136.114 416.905 141.57 414.295 145.708C411.455 150.211 404.886 150.835 401.444 154.895C399.575 157.099 398.851 160.069 397.133 162.393C395.415 164.717 391.769 166.194 389.707 164.169C390.72 162.086 390.997 159.721 390.492 157.461C389.987 155.2 388.73 153.178 386.927 151.724C385.013 150.475 382.95 149.472 380.786 148.737C378.368 147.713 376.067 146.431 373.925 144.913C372.852 144.266 371.98 143.333 371.406 142.218C370.953 140.823 371.014 139.311 371.578 137.957C372.624 134.959 374.468 132.305 376.912 130.279C379.356 128.254 382.307 126.934 385.446 126.463C388.19 126.089 391.385 126.221 393.202 124.13C394.163 123.023 394.667 121.35 396.062 120.9C396.955 120.721 397.881 120.835 398.703 121.226L408.949 124.832C410.092 125.348 411.35 125.556 412.598 125.435C413.217 125.352 413.782 125.038 414.179 124.555C414.576 124.073 414.775 123.459 414.738 122.835C414.411 121.134 411.793 120.317 412.031 118.601C412.164 118.045 412.463 117.542 412.888 117.16C416.586 113.224 421.108 110.155 426.13 108.172C431.152 106.188 436.551 105.34 441.94 105.687C443.233 107.811 441.188 110.326 439.486 112.139C437.784 113.952 436.417 117.192 438.475 118.587C439.318 119.018 440.256 119.229 441.203 119.202C443.725 119.543 446.176 120.287 448.463 121.404C452.004 122.945 455.476 124.63 458.881 126.461C458.58 124.216 458.293 121.852 459.144 119.753C459.995 117.654 462.413 116.008 464.525 116.825C466.56 117.613 467.604 120.308 469.773 120.555C472.666 120.884 473.807 116.611 472.599 113.962C471.39 111.313 468.998 109.095 468.798 106.19C468.664 104.231 469.409 101.8 467.844 100.614C467.287 100.258 466.655 100.036 465.997 99.9662L426.914 92.7741C424.593 92.347 421.239 92.6743 421.136 95.0319C421.079 96.3479 422.255 97.6499 421.734 98.8598C421.178 100.151 419.353 100.033 418.023 100.49C415.96 101.199 414.925 103.648 415.123 105.821C415.486 107.979 416.322 110.031 417.571 111.828C415.029 110.765 411.179 110.57 408.637 109.506Z" fill="#3F3D56"/>
<path d="M377.452 76.3291C374.987 75.5135 372.332 75.4755 369.845 76.2203C367.358 76.965 365.16 78.4566 363.55 80.4926C362.906 81.3399 362.366 82.508 362.904 83.4255C363.677 84.7409 365.645 84.2214 367.096 83.7508C369.229 82.9889 371.55 82.9335 373.717 83.5929C375.079 84.0607 376.298 84.8875 377.667 85.3376C378.333 85.6162 379.062 85.7082 379.777 85.6038C380.491 85.4994 381.164 85.2025 381.722 84.7449C382.661 83.787 382.72 82.2979 382.722 80.9564C382.787 80.5075 382.751 80.0498 382.617 79.6165C382.483 79.1833 382.253 78.7855 381.946 78.4522C381.398 78.135 380.782 77.9529 380.15 77.9212C378.734 77.6591 377.454 76.9111 376.531 75.8063" fill="#3F3D56"/>
<path d="M391.545 72.4054C390.993 72.3754 390.443 72.4877 389.948 72.7317C389.452 72.9757 389.028 73.343 388.715 73.7985C388.403 74.2539 388.213 74.7821 388.163 75.3322C388.114 75.8823 388.207 76.4359 388.433 76.9398C390.127 77.4017 391.897 77.5171 393.636 77.279C394.504 77.1443 395.312 76.7558 395.959 76.1625C396.607 75.5691 397.064 74.7975 397.273 73.9448C395.225 74.3175 393.112 73.9138 391.345 72.8126" fill="#3F3D56"/>
<path d="M438.828 65.8522C434.218 66.8324 429.74 68.3537 425.486 70.3845C427.491 71.1553 429.196 72.5498 430.349 74.3625C431.501 76.1752 432.041 78.3102 431.889 80.453C431.709 81.2756 431.73 82.1295 431.95 82.9423C432.44 84.1303 433.859 84.576 435.108 84.8809C437.351 85.5635 439.692 85.8624 442.035 85.7651C443.206 85.7038 444.344 85.3513 445.345 84.7395C446.347 84.1277 447.179 83.2759 447.769 82.2613C448.108 81.2982 448.506 80.3569 448.961 79.4426C451.953 74.8856 460.842 80.3957 464.055 75.9913C465.186 74.4398 465.083 72.1043 466.558 70.8749C467.321 70.3392 468.206 70.0017 469.132 69.8927C475.592 68.6092 482.118 67.6797 488.68 67.1086C491.789 66.838 495.842 65.7216 495.868 62.6008C484.157 60.3007 472.014 61.9343 461.327 67.2475C457.476 69.1761 452.384 73.2328 448.675 70.676C447.286 69.7187 447.355 67.1409 445.443 66.0645C443.489 64.9639 440.903 65.4115 438.828 65.8522Z" fill="#3F3D56"/>
<path d="M477.127 73.0143L482.625 74.0706C481.613 74.0258 480.603 74.1973 479.662 74.5736C478.722 74.95 477.873 75.5226 477.171 76.2532C476.469 76.9838 475.932 77.8557 475.594 78.8105C475.256 79.7654 475.125 80.7814 475.211 81.7907C480.359 83.5105 485.972 81.8369 491.395 82.0655C496.818 82.2941 503.127 86.1678 502.202 91.5161C501.922 93.1332 500.988 94.7493 501.473 96.3169C501.814 97.4156 502.783 98.1953 503.33 99.2072C504.47 101.316 503.559 103.983 502.119 105.9C500.68 107.817 498.746 109.346 497.483 111.383C494.341 116.45 496.126 123 497.997 128.66C498.539 130.799 499.538 132.795 500.926 134.509C503.699 137.457 508.218 137.714 512.265 137.773C515.21 137.816 518.584 137.67 520.447 135.388C522.879 132.409 521.178 127.76 522.779 124.264C524.233 121.088 527.938 119.725 531.295 118.759C537.444 116.989 543.71 115.484 549.524 112.81C556.742 109.49 563.489 104.315 571.423 103.888C573.649 103.768 575.93 104.031 578.074 103.421C580.218 102.811 582.255 100.957 582.092 98.7339C581.954 96.8343 580.347 95.4394 579.091 94.0074C577.835 92.5754 576.849 90.3734 578.003 88.8583L598.8 84.9739C597.325 80.9564 596.177 75.6654 599.564 73.0504C600.787 72.1069 602.423 71.7298 603.464 70.5891C605.237 68.645 604.345 65.2961 602.298 63.6428C600.251 61.9894 597.482 61.6056 594.86 61.3878C585.741 60.6304 576.57 61.1309 567.433 61.6317C549.574 62.6106 531.714 63.5896 513.854 64.5686C510.258 64.7657 506.107 64.4646 502.81 65.6912C500.018 66.7296 498.033 68.6358 494.841 69.3055C488.947 70.5418 482.461 69.7052 477.127 73.0143Z" fill="#3F3D56"/>
<path d="M575.612 116.467C575.052 116.379 574.479 116.509 574.012 116.83C573.703 117.17 573.519 117.606 573.491 118.064C573.136 120.088 573.559 122.171 574.674 123.897C575.243 124.743 576.027 125.422 576.947 125.863C577.866 126.303 578.886 126.49 579.902 126.403C582.378 126.087 584.202 123.976 586.478 122.945C589.985 121.358 604.88 118.885 594.577 113.318C591.026 111.399 588.731 113.093 585.932 114.356C582.748 115.985 579.18 116.715 575.612 116.467Z" fill="#3F3D56"/>
<path d="M665.861 69.8717C664.658 70.3632 663.652 71.2394 662.999 72.3633C662.698 72.934 662.628 73.5985 662.804 74.2192C662.979 74.84 663.387 75.3695 663.942 75.6983C664.391 75.8612 664.867 75.9368 665.345 75.9209L670.237 76.0671C672.316 76.1292 674.912 76.5718 675.47 78.5746C675.885 80.0617 674.957 81.9727 676.077 83.0354C676.557 83.4076 677.135 83.633 677.741 83.6845C679.352 84.0985 681.035 84.1528 682.67 83.8436C686.23 82.8889 684.359 80.7164 685.48 78.7819C687.196 75.8221 686.899 77.6138 689.921 75.9175C692.153 74.6647 695.038 72.3921 693.175 69.1992C689.935 63.6467 670.642 67.4863 665.861 69.8717Z" fill="#3F3D56"/>
<path d="M762.421 67.0801L759.58 67.4592C753.174 68.314 746.732 69.1767 740.562 71.1004C743.233 72.1563 746.035 72.8439 748.891 73.1441C750.463 73.2212 752.025 73.4432 753.556 73.8073C756.281 74.6186 759.027 76.7135 761.66 75.6403C763.292 74.975 763.825 73.2753 765.177 72.3745C766.111 71.7525 769.653 70.7457 770.048 70.1179C773.249 65.0426 764.881 66.7518 762.421 67.0801Z" fill="#3F3D56"/>
<path d="M774.895 79.9912C771.1 82.1129 767.58 84.6912 764.412 87.6684C763.077 88.923 761.714 90.4835 761.835 92.3114C761.996 94.7408 764.583 96.1499 766.825 97.0992L775.907 100.944C777.008 99.3912 776 97.2478 774.861 95.7219C773.723 94.196 772.37 92.4306 772.873 90.5943C773.447 88.4989 776.002 87.7848 778.144 87.4238C781.635 86.8357 791.052 86.8828 789.92 81.2571C788.587 74.6284 778.399 78.0326 774.895 79.9912Z" fill="#3F3D56"/>
<path d="M773.069 455.118C772.204 457.621 772.122 460.57 773.617 462.755C775.295 465.207 778.654 466.121 781.559 465.499C784.453 464.729 787.032 463.071 788.933 460.758C790.672 458.821 792.102 456.627 793.174 454.254C794.67 450.557 795.725 446.696 796.318 442.752L799.137 427.948C799.767 424.639 799.743 414.496 793.662 417.801C792.001 418.704 788.154 425.832 786.413 427.853C783.275 431.497 782.86 435.032 781.208 439.445C779.139 444.974 774.981 449.581 773.069 455.118Z" fill="#3F3D56"/>
<path d="M1094.25 530.876C1092.26 530.099 1090.33 529.18 1088.47 528.125C1086.61 533.245 1085.62 538.642 1085.54 544.09L1099.16 536.385C1101.21 535.226 1103.53 533.615 1103.48 531.262C1103.5 530.972 1103.44 530.682 1103.31 530.422C1103.18 530.163 1102.98 529.944 1102.73 529.789C1102.43 529.667 1102.1 529.629 1101.78 529.677C1099.76 529.845 1097.92 530.839 1096.01 531.529C1094.11 532.22 1091.88 532.585 1090.13 531.56" fill="#3F3D56"/>
<path d="M1166.08 535.45C1164.58 535.857 1163.12 536.381 1161.71 537.017C1158.59 538.607 1156.46 541.626 1153.65 543.72C1150.96 545.724 1147.72 546.824 1144.54 547.894C1143.6 548.721 1144.03 550.386 1145.05 551.112C1146.14 551.733 1147.39 552.015 1148.65 551.92C1151.95 551.993 1155.43 552.025 1158.32 550.43C1159.95 549.372 1161.48 548.161 1162.88 546.814C1166.26 543.991 1170.32 542.128 1174.35 540.329C1175.81 539.776 1177.16 538.967 1178.34 537.939C1180.87 535.449 1181.05 531.608 1177.4 530.761C1174.46 530.076 1168.88 534.543 1166.08 535.45Z" fill="#3F3D56"/>
<path d="M1197.81 514.719C1197.98 513.006 1197.75 511.278 1197.15 509.666C1196.55 508.054 1195.58 506.599 1194.34 505.413C1194.3 508.84 1194.2 512.492 1192.27 515.326C1190.9 517.346 1188.74 518.71 1187.24 520.634C1185.73 522.558 1185.06 525.607 1186.83 527.295C1187.96 528.153 1189.33 528.627 1190.75 528.645C1194.26 529.059 1198.33 529.289 1200.79 526.751C1202.14 525.365 1202.79 523.313 1204.43 522.294C1205.05 522.038 1205.59 521.647 1206.03 521.151C1206.71 520.075 1205.63 518.655 1204.42 518.267C1203.21 517.879 1201.87 518.062 1200.66 517.693C1199.44 517.325 1198.32 515.956 1198.95 514.847" fill="#3F3D56"/>
<path d="M1141.41 389.048C1139.57 389.497 1137.66 389.609 1135.77 389.381C1132.64 388.806 1130.21 386.448 1127.68 384.515C1121.68 379.944 1114.38 377.394 1106.84 377.231C1099.98 377.102 1093.05 378.961 1086.31 377.664C1086.75 380.113 1088.85 381.95 1091.08 383.042C1093.32 384.134 1095.79 384.683 1098.03 385.753C1101.63 387.483 1104.49 390.452 1106.07 394.117C1106.8 395.806 1107.25 397.644 1108.35 399.119C1110.59 402.134 1114.84 402.796 1118.58 402.549C1123.47 402.228 1128.57 400.822 1133.12 402.643C1136.6 404.036 1139.09 407.08 1141.99 409.447C1144.9 411.814 1148.99 413.57 1152.32 411.863C1148.86 410.741 1145.84 408.542 1143.72 405.587C1141.59 402.631 1140.47 399.073 1140.51 395.433C1143.78 395.734 1153.2 395.617 1152.69 390.06C1152.26 385.351 1144.22 388.54 1141.41 389.048Z" fill="#3F3D56"/>
<path d="M1098.62 427.365C1099.21 424.181 1102.38 421.368 1101.39 418.286C1100.71 416.154 1098.24 415.102 1096 415.049C1093.76 414.996 1091.56 415.663 1089.32 415.726C1087.87 415.649 1086.41 415.669 1084.95 415.788C1080.51 416.518 1077.77 421.175 1073.58 422.83C1071.04 423.837 1068.18 423.644 1065.53 424.34C1059.52 425.92 1055.72 431.599 1051.52 436.178C1044.73 443.543 1035.89 448.7 1026.13 450.982C1022.72 451.773 1019.04 452.279 1016.33 454.498C1012.73 457.437 1011.85 462.475 1011.05 467.051C1008.83 479.687 1005.46 492.09 1000.95 504.102L1015.22 505.924C1017.94 506.27 1020.75 506.609 1023.36 505.805C1025.26 505.089 1027.06 504.13 1028.71 502.954C1035.07 499.008 1042.18 496.44 1049.59 495.417C1053.33 494.904 1057.25 494.81 1060.76 496.199C1064.26 497.588 1067.27 500.738 1067.57 504.499C1069.08 504.027 1070.7 503.976 1072.24 504.351C1073.78 504.727 1075.2 505.514 1076.33 506.63C1078.56 508.907 1080.03 511.828 1080.51 514.981C1080.89 516.933 1081.26 519.272 1083.07 520.091C1084.55 520.76 1086.25 520.04 1087.86 519.911C1093.35 519.472 1097.9 525.869 1103.3 524.767C1109.08 523.586 1110.5 514.924 1116.14 513.189C1119.38 512.193 1123.93 513.404 1125.48 510.39C1126.85 507.733 1124.12 504.667 1124.4 501.692C1124.75 498.029 1129.07 496.474 1132.4 494.911C1143.88 489.523 1149.33 474.066 1143.77 462.667C1140.47 455.913 1133.98 450.596 1132.78 443.176C1131.86 437.467 1134.11 430.81 1130.47 426.317C1128.62 424.031 1125.49 422.769 1124.39 420.041C1123.69 418.324 1123.97 416.376 1123.6 414.563C1123.22 412.749 1121.64 410.852 1119.85 411.322C1114.65 412.687 1112.99 428.747 1110.21 432.649C1105.98 438.581 1097.29 434.674 1098.62 427.365Z" fill="#3F3D56"/>
<path d="M1002.53 395.116C1000.75 394.618 998.814 394.128 997.112 394.839C995.409 395.551 994.415 398.051 995.782 399.291C1006.47 398.874 1017.22 398.461 1027.82 399.913C1040.03 401.585 1052.12 405.728 1064.38 404.509C1057.37 402.442 1050.25 400.79 1043.05 399.56L1031.05 397.267C1027.83 396.592 1024.57 396.089 1021.3 395.76C1014.45 395.195 1009.26 397.005 1002.53 395.116Z" fill="#3F3D56"/>
<path d="M1013.23 357.89C1012.34 357.816 1011.24 357.752 1010.79 358.515C1010.35 359.244 1010.85 360.207 1010.61 361.025C1010.29 362.141 1008.83 362.427 1007.68 362.275C1006.52 362.123 1005.28 361.759 1004.26 362.314C1003.74 362.668 1003.35 363.18 1003.15 363.773C1002.95 364.367 1002.94 365.01 1003.14 365.606C1003.55 366.79 1004.23 367.866 1005.11 368.756C1006.62 370.659 1008.34 372.384 1010.24 373.9C1013.91 376.611 1018.89 377.918 1021.2 381.854C1021.53 382.617 1022.03 383.293 1022.67 383.825C1023.78 384.529 1025.23 383.994 1026.42 383.447L1030.62 381.532C1031.37 381.26 1032.04 380.801 1032.58 380.199C1033.53 378.899 1032.94 377.052 1032.14 375.652C1031.34 374.252 1030.31 372.803 1030.48 371.198C1030.79 368.337 1034.47 367.242 1035.98 364.793C1037.51 362.325 1036.51 359.146 1036.69 356.249C1036.89 352.863 1039.02 348.457 1035.6 345.927C1032.69 343.776 1029.91 345.763 1027.82 348.138C1023.41 353.144 1021.33 358.567 1013.23 357.89Z" fill="#3F3D56"/>
<path d="M1038.68 307.288C1040.11 310.028 1043.09 311.663 1044.65 314.332C1046.34 317.224 1046.15 320.962 1047.99 323.765C1049.87 326.642 1053.66 328.169 1054.71 331.441C1055.87 335.013 1053.25 339.354 1055.34 342.475C1055.73 342.985 1056.22 343.409 1056.78 343.72C1057.34 344.03 1057.96 344.221 1058.6 344.28C1059.24 344.339 1059.88 344.264 1060.49 344.061C1061.1 343.858 1061.66 343.53 1062.13 343.099C1063.01 342.142 1063.48 340.88 1063.44 339.581C1063.4 338.282 1062.86 337.049 1061.93 336.146C1060.69 335.02 1058.92 334.534 1057.89 333.219C1057.35 332.461 1056.99 331.59 1056.84 330.673C1056.28 328.028 1056.37 325.286 1057.1 322.684C1057.38 322.023 1057.45 321.295 1057.3 320.594C1056.84 319.245 1055.01 319.15 1053.73 318.524C1050.82 317.103 1050.89 312.995 1051.4 309.795C1051.06 311.925 1043.48 308.302 1042.68 307.096C1041.1 304.699 1041.96 300.076 1041.65 297.427C1038.24 299.069 1036.93 303.937 1038.68 307.288Z" fill="#3F3D56"/>
<path d="M962.24 349.449C960.84 347.882 958.731 346.242 956.853 347.187C955.421 347.908 955.027 349.89 955.588 351.393C956.272 352.852 957.325 354.107 958.643 355.035C962.556 358.261 966.769 361.174 970.182 364.925C976.29 371.637 979.526 380.695 986.169 386.879C987.505 388.313 989.273 389.27 991.203 389.603C993.139 389.783 995.312 388.545 995.535 386.614C995.718 385.023 994.609 383.599 993.525 382.42C990.945 379.614 988.12 377.03 985.683 374.097C984.558 372.97 983.851 371.494 983.679 369.911C983.667 368.332 985.107 366.679 986.637 367.07C984.776 366.594 983.396 363.494 980.665 362.911C978.382 362.424 977.83 363.837 975.114 362.672C969.933 360.45 965.868 353.511 962.24 349.449Z" fill="#3F3D56"/>
<path d="M1083.97 196.803C1082.49 196.361 1081.02 195.839 1079.59 195.239C1075.75 194.085 1070.66 196.912 1071.17 200.895C1071.51 203.542 1073.98 205.326 1075.34 207.622C1077.35 211.026 1076.82 215.344 1075.76 219.157C1075.49 220.337 1075 221.453 1074.3 222.439C1073.32 223.479 1072.15 224.321 1070.85 224.918C1065.66 227.831 1061.08 231.723 1057.36 236.379C1056.96 236.809 1056.68 237.339 1056.55 237.914C1056.36 239.259 1057.72 240.239 1058.48 241.361C1060.18 243.852 1058.95 247.205 1059.12 250.216C1059.09 250.641 1059.18 251.067 1059.36 251.451C1059.55 251.836 1059.83 252.166 1060.17 252.412C1061.2 252.932 1062.41 252.049 1062.96 251.044C1064.81 247.71 1063.42 242.357 1066.87 240.749C1067.52 240.445 1068.32 240.317 1068.75 239.743C1069.44 238.833 1068.78 237.485 1069.13 236.397C1069.65 234.764 1071.89 234.69 1073.6 234.763C1076.56 234.886 1079.51 234.493 1082.33 233.601C1083.43 233.338 1084.44 232.757 1085.21 231.929C1086.25 230.641 1086.15 228.809 1085.95 227.171C1084.92 219.006 1082.33 211.114 1078.33 203.922C1081.36 204.309 1084.66 204.645 1087.28 203.064C1088.75 202.179 1090.5 199.532 1089.78 197.73C1088.63 194.881 1086.55 197.279 1083.97 196.803Z" fill="#3F3D56"/>
<path d="M695.123 241.71C695.486 243.656 695.843 245.706 695.205 247.581C694.567 249.456 692.56 251.022 690.664 250.448C689.193 250.002 688.344 248.523 687.299 247.396C681.491 241.125 668.387 244.756 664.799 236.998C663.335 233.832 664.33 230.039 663.331 226.697C662.701 224.765 661.447 223.098 659.767 221.956C658.086 220.814 656.074 220.263 654.046 220.389C652.196 220.656 650.396 221.194 648.703 221.984C637.358 226.528 625.449 229.506 613.302 230.839C610.993 230.979 608.709 231.395 606.499 232.076C601.512 233.884 598.104 238.509 595.678 243.227C593.253 247.946 591.462 253.054 588.211 257.247C584.793 261.653 580.005 264.738 575.538 268.075C573.817 269.184 572.384 270.686 571.357 272.457C570.389 274.445 570.443 276.757 570.518 278.967L571.431 305.811C571.549 309.264 571.696 312.84 573.241 315.93C575.171 319.788 578.983 322.315 581.628 325.724C584.327 329.227 585.733 333.554 585.608 337.974C585.551 339.752 585.375 341.853 586.759 342.97C587.601 343.515 588.586 343.799 589.589 343.784L625.901 346.755C632.288 347.278 639.367 348.138 643.537 353.004C645.505 355.301 647.087 358.604 650.101 358.85C651.394 358.956 652.652 358.425 653.946 358.323C657.209 358.064 660.075 360.541 661.884 363.269C664.623 367.427 665.865 372.392 665.409 377.349C665.112 380.461 664.148 383.486 663.94 386.605C663.148 398.473 673.209 408.784 673.404 420.676C673.518 427.672 670.198 434.208 666.96 440.41C672.185 448.326 667.907 458.867 669.987 468.121C671.961 476.9 679.281 483.773 681.105 492.585C681.94 496.619 681.988 501.584 685.546 503.662C687.107 504.422 688.837 504.769 690.57 504.668C701.027 504.791 711.363 502.438 720.735 497.8C725.134 495.617 729.693 492.359 730.461 487.509C731.08 483.598 729.097 479.223 731.115 475.816C733.494 471.801 739.589 472.119 743.089 469.032C748.768 464.024 744.34 454.472 746.641 447.259C748.709 440.775 755.828 437.33 759.357 431.51C760.746 429.007 761.742 426.306 762.312 423.501C763.929 416.797 764.935 409.961 765.318 403.075C765.413 398.892 765.721 394.716 766.243 390.564C770.047 366.926 793.416 351.098 801.003 328.39C801.727 326.221 802.068 323.332 800.138 322.105C798.994 321.559 797.697 321.424 796.464 321.721L779.725 323.831C777.646 324.093 775.443 324.338 773.533 323.475C771.624 322.611 770.255 320.196 771.268 318.361C774.111 313.211 768.263 306.704 765.665 301.426C758.668 287.216 750.335 273.703 740.78 261.07C740.169 260.42 739.786 259.588 739.689 258.701L744.44 258.859C742.836 253.105 740.19 246.808 734.599 244.703C731.449 243.517 727.961 243.927 724.599 244.11C714.972 244.636 704.651 243.183 695.123 241.71Z" fill="#3F3D56"/>
<path d="M724.607 112.034C727.126 114.709 729.949 117.545 733.594 118.012C740.032 118.835 744.661 112.178 747.608 106.395C747.717 107.869 748.397 109.243 749.504 110.223C750.61 111.204 752.055 111.714 753.531 111.646C755.121 111.379 756.637 110.786 757.986 109.904C770.742 102.934 785.029 99.2402 799.565 99.156C799.426 98.0548 799.699 96.941 800.332 96.0294C800.965 95.1179 801.914 94.4731 802.994 94.2196C805.95 93.6337 808.612 96.1888 810.038 98.8431C811.463 101.497 812.352 104.574 814.617 106.561C816.883 108.547 821.268 108.461 822.163 105.584C823.022 102.822 820.144 100.466 817.753 98.8379C815.363 97.2094 812.843 94.1954 814.453 91.7923C826.666 89.0888 838.955 86.375 851.453 85.8377C853.58 85.9117 855.7 85.5465 857.681 84.7648C859.587 83.8295 861.102 81.7065 860.589 79.6463C857.862 80.2874 855.005 80.1017 852.384 79.113C849.763 78.1242 847.495 76.3772 845.871 74.0947C863.212 72.6637 881.656 71.444 897.024 79.6036C898.868 83.5626 889.469 86.8565 891.984 90.4273C892.786 91.5662 894.393 91.6997 895.786 91.7256C906.465 91.9239 917.206 92.1183 927.765 90.5059C931.624 89.9167 935.521 89.0849 939.395 89.5627C945.848 90.3586 951.367 94.664 957.715 96.0678C960.299 96.6391 963.196 96.6585 965.374 95.1556C967.553 93.6528 968.489 90.2308 966.704 88.2772C972.681 82.4191 982.601 83.871 990.487 86.6755C998.372 89.4801 1005.84 94.003 1014.19 94.6281C1020.17 95.0764 1026.24 93.4666 1032.15 94.4898C1035.87 95.1328 1039.33 96.786 1042.96 97.8017C1049.83 99.7227 1057.1 99.3172 1064.23 99.4097C1082.43 99.6548 1100.43 103.231 1117.34 109.962C1119.53 110.678 1121.55 111.869 1123.24 113.45C1124.81 115.135 1125.61 117.753 1124.56 119.802L1107.08 117.249C1108.73 120.489 1112.99 121.042 1116.45 122.16C1119.91 123.278 1123.49 127.097 1121.41 130.079C1117.67 128.886 1114.27 132.633 1112.38 136.08C1110.48 139.528 1108.18 143.656 1104.25 143.866C1100.73 144.054 1096.48 141.06 1094.19 143.733C1097.36 147.729 1100.07 152.064 1102.27 156.66C1104.54 161.378 1106.15 167.323 1103.09 171.568C1102.61 172.326 1101.88 172.892 1101.02 173.17C1098.52 173.803 1096.9 170.745 1095.11 168.891C1092.85 166.555 1089.43 165.894 1086.37 164.798C1083.31 163.703 1080.09 161.548 1079.85 158.307C1079.7 156.291 1080.77 154.416 1081.55 152.553C1082.87 149.412 1083.45 146.009 1083.24 142.609C1083.06 139.874 1082.3 137.029 1080.33 135.118C1078.37 133.207 1074.98 132.6 1072.87 134.351C1071.88 135.167 1071.1 136.474 1069.82 136.523C1067.56 136.609 1065.83 132.673 1064.01 134.016C1064.22 135.448 1063.93 136.909 1063.17 138.144C1057.75 142.859 1049.42 140.864 1042.43 142.53C1039.11 143.481 1035.93 144.87 1032.97 146.661C1031.87 147.134 1030.93 147.924 1030.27 148.931C1029.4 150.626 1030.36 152.797 1031.9 153.924C1033.53 154.924 1035.36 155.55 1037.26 155.755C1045.78 157.369 1054.42 159.867 1061.15 165.339C1067.88 170.811 1072.29 179.857 1070.16 188.262L1053.36 172.209C1054 178.949 1054.36 185.708 1054.44 192.486C1054.55 193.81 1054.37 195.141 1053.91 196.386C1052.71 199.032 1049.47 199.922 1046.62 200.506C1045.83 200.656 1045.08 200.972 1044.42 201.433C1043.76 201.894 1043.21 202.49 1042.79 203.181C1042.38 203.871 1042.11 204.642 1042.02 205.442C1041.92 206.242 1042 207.052 1042.24 207.821C1043.25 211.115 1045.77 213.684 1048.08 216.243C1050.39 218.802 1052.66 221.711 1052.96 225.143C1053.26 228.576 1050.67 232.445 1047.23 232.206C1044.63 232.025 1042.69 229.693 1041.58 227.329C1040.47 224.965 1039.81 222.331 1038.14 220.323C1033.09 214.243 1021.73 216.848 1017.2 210.367C1016.05 211.676 1015.25 213.259 1014.88 214.964C1014.51 216.67 1014.58 218.442 1015.08 220.113C1017.19 218.794 1020.08 220.019 1021.66 221.935C1023.24 223.852 1023.99 226.309 1025.23 228.461C1026.91 231.365 1029.58 233.94 1029.81 237.286C1029.75 238.551 1029.77 239.819 1029.88 241.081C1030.29 243.108 1032 244.564 1033.19 246.258C1035.96 250.201 1035.82 255.617 1034.04 260.091C1032.26 264.564 1029.06 268.302 1025.89 271.926C1020.35 278.256 1014.7 284.549 1008.13 289.806C1006.26 291.306 1004.26 292.781 1003.09 294.878C1001.93 296.975 1001.87 299.919 1003.66 301.514C1002.38 301.578 1000.08 302.209 998.793 302.273C998.342 297.127 998.244 291.956 998.499 286.796C993.437 284.365 987.986 290.875 988.639 296.453C989.292 302.031 993.327 306.507 996.199 311.333C998.299 314.862 999.861 318.977 999.159 323.023C998.458 327.07 994.846 330.803 990.755 330.446C984.247 329.878 981.525 320.536 975.081 319.467C974.512 319.333 973.916 319.392 973.385 319.635C972.428 320.16 972.262 321.44 972.208 322.53C971.944 327.879 971.716 333.441 973.804 338.373C976.859 345.588 984.751 351.647 983.095 359.305C974.177 355.16 969.541 345.159 967.436 335.553C965.33 325.947 964.979 315.862 961.206 306.781C958.34 310.453 952.317 307.417 949.699 303.564C947.217 299.911 945.689 295.686 943.281 291.984C940.872 288.282 937.183 284.967 932.772 284.763C928.146 284.55 924.135 287.724 920.607 290.723C917.706 293.189 914.727 295.752 913.032 299.162C910.564 304.122 911.21 309.971 911.091 315.51C910.962 321.499 909.693 327.817 905.612 332.201C901.53 336.586 893.996 338.113 889.494 334.161C887.144 332.099 886.006 329.017 884.992 326.058C880.106 311.798 876.037 297.271 872.804 282.547C872.048 285.908 869.097 290.239 866.278 288.26C865.645 287.727 865.133 287.067 864.774 286.322C859.516 277.41 849.778 272.065 839.939 268.859C830.1 265.654 819.749 264.159 810.019 260.636C804.566 258.662 799.359 256.068 794.498 252.905C793.259 254.726 792.535 256.847 792.404 259.046C792.272 261.244 792.738 263.437 793.752 265.392C795.91 269.213 800.794 271.424 804.975 270.089C807.135 269.398 808.96 267.899 811.103 267.158C813.247 266.417 816.124 266.781 817.062 268.846C817.959 270.823 816.603 273.214 817.276 275.279C818.3 278.422 823.042 278.664 824.699 281.525C825.933 283.654 824.918 286.48 823.157 288.198C821.395 289.915 819.045 290.857 816.895 292.053C809.919 295.932 804.958 302.554 798.861 307.706C792.765 312.859 784.163 316.62 776.897 313.315C778.629 304.545 768.182 298.106 766.26 289.376C765.627 286.502 765.955 283.45 765.052 280.65C763.745 276.595 760.148 273.807 757.197 270.735C753.617 266.968 750.829 262.522 748.996 257.66C747.163 252.797 746.322 247.617 746.524 242.425C746.683 238.817 747.346 235.15 746.524 231.633C745.702 228.116 742.79 224.712 739.182 224.871C730.941 225.235 720.559 225.848 716.235 218.823C714.692 216.316 714.021 212.643 716.252 210.722C717.826 209.367 720.149 209.495 722.216 209.698L740.784 211.525C745.127 211.952 749.822 212.305 753.548 210.034C757.275 207.764 758.89 201.737 755.439 199.066C752.918 197.114 748.4 197.22 747.667 194.117C747.057 191.533 749.917 188.6 748.372 186.441C747.265 184.892 744.774 185.322 743.265 186.483C741.756 187.643 740.661 189.341 738.972 190.22C736.009 191.762 732.469 190.295 729.281 189.297C726.093 188.3 721.82 188.215 720.273 191.176C718.544 194.487 721.807 198.826 720.091 202.144C717.822 206.531 710.138 204.033 706.952 207.807C703.296 212.137 709.44 218.593 708.207 224.124C706.633 224.904 704.883 225.262 703.129 225.164C701.375 225.065 699.677 224.513 698.2 223.562C696.747 222.574 695.589 221.211 694.849 219.617C694.11 218.023 693.816 216.259 693.999 214.512C694.304 212.023 695.602 209.483 694.732 207.132C694.03 205.231 692.121 204.099 690.347 203.118L672.302 193.147C670.627 196.255 672.745 200.108 675.394 202.442C678.043 204.776 681.36 206.534 683.1 209.606C684.201 211.735 684.448 214.203 683.79 216.507C683.133 218.811 681.62 220.777 679.562 222.004C679.304 222.182 679.01 222.302 678.702 222.356C678.393 222.41 678.076 222.396 677.773 222.316C677.485 222.147 677.234 221.922 677.035 221.654C676.836 221.386 676.692 221.081 676.613 220.756C673.429 212.609 668.649 204.576 661.007 200.32C653.365 196.064 642.384 196.939 637.373 204.108C636.183 205.811 635.384 207.752 634.347 209.553C628.838 219.118 617.027 223.648 605.993 223.352C604.914 223.411 603.84 223.159 602.9 222.625C601.117 221.393 601.197 218.78 601.47 216.63L602.628 207.505C602.861 205.673 603.198 203.648 604.648 202.504C606.692 200.892 609.641 201.909 612.244 201.872C614.216 201.78 616.113 201.083 617.676 199.877C619.239 198.67 620.393 197.013 620.982 195.128C621.508 193.225 621.505 191.215 620.972 189.314C620.44 187.412 619.399 185.692 617.962 184.339C616.769 183.218 615.167 181.811 615.797 180.3C616.049 179.882 616.389 179.524 616.793 179.252C617.198 178.979 617.657 178.799 618.139 178.723C622.815 177.365 627.756 177.009 632.354 175.407C636.952 173.805 641.411 170.527 642.5 165.781C642.834 164.326 642.986 162.564 644.292 161.843C644.948 161.567 645.652 161.423 646.363 161.42C648.856 161.066 651.126 159.791 652.726 157.846C654.326 155.902 655.14 153.429 655.008 150.914C657.211 149.375 660.299 150.507 662.43 152.145C664.562 153.783 666.444 155.947 669.038 156.653C673.873 157.968 678.544 153.688 683.554 153.668C685.661 153.66 687.842 154.405 689.824 153.691C691.833 152.967 693.033 150.966 694.575 149.489C696.118 148.011 698.823 147.11 700.247 148.701L699.035 139.719C701.477 140.336 704.023 140.424 706.501 139.976C708.98 139.528 711.334 138.554 713.405 137.121L697.733 131.826C697.188 131.69 696.684 131.421 696.268 131.042C695.129 129.816 696.26 127.904 697.187 126.509C699.403 123.173 699.775 117.677 696.13 116.016C693.643 114.882 690.787 116.243 688.399 117.574L676.96 123.952C676.597 126.127 679.256 127.359 680.903 128.823C681.9 129.709 682.606 130.876 682.927 132.171C683.249 133.465 683.171 134.827 682.705 136.076C682.239 137.326 681.405 138.405 680.314 139.172C679.223 139.939 677.926 140.359 676.592 140.375C677.345 141.354 677.869 142.491 678.123 143.699C678.378 144.908 678.357 146.159 678.063 147.359L670.367 147.913C669.503 148.086 668.606 147.911 667.871 147.425C667.048 146.694 667.159 145.413 666.969 144.329C666.508 141.712 663.946 139.878 661.331 139.408C658.715 138.937 656.04 139.54 653.45 140.135C652.351 140.531 651.143 140.503 650.063 140.057C649.444 139.655 648.973 139.061 648.723 138.366C647.588 135.613 648.649 132.377 650.472 130.023C652.296 127.669 654.792 125.948 657.034 123.989C662.395 119.285 666.333 113.176 668.405 106.351C672.642 104.576 677.028 102.164 681.265 100.389C687.797 97.0817 695.122 95.6625 702.416 96.2907L716.764 96.5647C721.012 96.6459 725.375 96.7499 729.303 98.3693C733.231 99.9888 736.683 103.492 736.954 107.732C737.036 108.212 736.994 108.705 736.833 109.164C736.672 109.624 736.397 110.035 736.034 110.359C735.479 110.662 734.851 110.803 734.22 110.768C730.258 110.907 728.569 111.894 724.607 112.034Z" fill="#3F3D56"/>
<path d="M610.244 157.001C610.804 156.471 611.208 155.796 611.41 155.051C611.612 154.306 611.605 153.52 611.389 152.779C610.025 152.252 608.541 152.117 607.104 152.388C605.667 152.66 604.335 153.327 603.257 154.314C602.407 155.174 601.674 156.142 601.078 157.194C599.193 160.27 597.525 163.944 598.618 167.383C598.707 167.758 598.87 168.111 599.098 168.422C599.325 168.733 599.612 168.996 599.943 169.195C600.432 169.391 600.96 169.474 601.487 169.436C603.564 169.434 605.639 169.306 607.7 169.054C608.966 168.899 610.437 168.542 610.926 167.364C611.569 165.815 610.013 164.063 610.466 162.449C610.765 161.727 611.217 161.079 611.792 160.55C612.077 160.284 612.296 159.955 612.432 159.589C612.568 159.223 612.617 158.831 612.574 158.443C612.391 157.686 611.231 157.256 610.814 157.914" fill="#3F3D56"/>
<path d="M621.014 143.038C619.169 142.614 617.267 142.495 615.384 142.684C614.967 142.672 614.554 142.766 614.184 142.957C613.825 143.221 613.565 143.598 613.444 144.028C613.047 145.304 613.144 146.684 613.718 147.892C614.292 149.1 615.3 150.048 616.541 150.546C617.218 150.702 617.866 150.962 618.462 151.318C620.054 152.554 619.039 155.079 619.341 157.072C619.679 159.31 621.845 161.188 621.448 163.417C621.135 165.172 619.26 166.562 619.562 168.32C619.878 170.16 622.214 170.713 624.076 170.861C625.155 171.05 626.265 170.923 627.274 170.494C628.284 169.803 629.003 168.762 629.291 167.572C630.053 165.304 630.374 162.91 630.235 160.52C630.227 159.434 629.954 158.365 629.44 157.408C628.879 156.649 628.257 155.938 627.581 155.28C624.014 151.131 627.77 144.942 621.014 143.038Z" fill="#3F3D56"/>
<path opacity="0.8" d="M1090.08 468.073C1090.08 468.073 816.875 311.251 699.258 340.964C699.258 340.964 449.992 367.789 421.104 426.804C421.104 426.804 341.867 179.19 312.979 170.936" stroke="#2196F3" stroke-width="2" stroke-miterlimit="10"/>
<path opacity="0.8" d="M421.104 426.804C466.913 304.648 879.604 169.285 879.604 169.285C821.002 184.142 699.258 340.964 699.258 340.964C699.258 340.964 441.739 153.603 312.979 170.936C312.979 170.936 880.016 189.507 1090.08 468.073" stroke="#2196F3" stroke-width="2" stroke-miterlimit="10"/>
<path d="M312.979 182.904C319.589 182.904 324.947 177.546 324.947 170.936C324.947 164.326 319.589 158.968 312.979 158.968C306.369 158.968 301.011 164.326 301.011 170.936C301.011 177.546 306.369 182.904 312.979 182.904Z" fill="#2196F3"/>
<path d="M421.104 438.772C427.714 438.772 433.072 433.414 433.072 426.804C433.072 420.194 427.714 414.836 421.104 414.836C414.494 414.836 409.136 420.194 409.136 426.804C409.136 433.414 414.494 438.772 421.104 438.772Z" fill="#2196F3"/>
<path d="M879.604 181.253C886.214 181.253 891.572 175.895 891.572 169.285C891.572 162.675 886.214 157.317 879.604 157.317C872.994 157.317 867.636 162.675 867.636 169.285C867.636 175.895 872.994 181.253 879.604 181.253Z" fill="#2196F3"/>
<path d="M1090.08 480.041C1096.69 480.041 1102.04 474.683 1102.04 468.073C1102.04 461.463 1096.69 456.105 1090.08 456.105C1083.47 456.105 1078.11 461.463 1078.11 468.073C1078.11 474.683 1083.47 480.041 1090.08 480.041Z" fill="#2196F3"/>
<path d="M699.258 352.932C705.867 352.932 711.226 347.574 711.226 340.964C711.226 334.355 705.867 328.996 699.258 328.996C692.648 328.996 687.29 334.355 687.29 340.964C687.29 347.574 692.648 352.932 699.258 352.932Z" fill="#2196F3"/>
</svg>
