<svg width="683" height="683" viewBox="0 0 683 683" fill="none" xmlns="http://www.w3.org/2000/svg">
<g clip-path="url(#clip0_1_8)">
<path d="M141.133 19.7063C85 30.373 37.2667 71.0397 19.6667 123.573C13.1333 143.173 11.8 151.573 11.9333 175.706C11.9333 195.706 12.3333 199.84 15.2667 211.173C27.5333 256.906 54.0667 291.573 93 312.64C98.4667 315.573 103 318.106 103 318.373C103 318.64 83.4 332.106 59.4 348.373C35.2667 364.64 14.6 379.173 13.4 380.64C11.1333 383.173 11 390.106 11 486.373C11 582.906 11.1333 589.573 13.4 592.373C15.1333 594.506 38.3333 602.373 114.733 626.506L213.8 657.706H439.8H665.8L669 654.373L672.333 651.173V491.04C672.333 333.44 672.333 331.04 669.667 328.373C666.467 325.173 666.467 325.173 629.133 318.506L598.333 312.906L597.933 309.306L597.533 305.706L607.4 306.506C617 307.306 617.267 307.306 620.067 303.706C622.867 300.106 623 298.773 623 269.573C623 239.973 622.867 239.173 620.067 235.84C617.267 232.906 608.2 230.506 533.667 213.706C452.6 195.306 434.733 191.306 399.4 183.173C389.933 181.04 369.8 176.373 354.333 172.906C339 169.44 326.2 166.506 325.933 166.373C325.8 166.24 325 161.306 324.333 155.44C319.8 119.173 303.267 86.9063 275.933 60.9062C255.4 41.4396 233.8 29.4396 206.067 22.2396C189.4 17.8396 157.8 16.6396 141.133 19.7063ZM192.467 41.1729C270.333 55.9729 319.4 132.373 299.8 208.373C293.267 233.84 281.133 254.24 261.267 273.173C219.133 313.306 158.467 322.106 106.6 295.573C93.1333 288.773 86.6 283.973 73.9333 271.84C55.4 253.973 43.1333 233.04 36.7333 208.373C17.5333 133.306 64.8667 57.7063 141 41.7063C156.067 38.6396 177.667 38.3729 192.467 41.1729ZM466.867 220.506C540.467 237.173 600.867 251.173 601.133 251.44C601.533 251.706 601.533 259.173 601.4 267.973L601 283.84L581.667 280.106C518.067 267.706 317 228.106 316.733 227.84C316.6 227.84 317.933 222.773 319.8 216.64C321.533 210.64 323.4 201.706 323.8 196.906L324.733 188.24L328.867 189.173C331.133 189.573 393.267 203.706 466.867 220.506ZM312.333 254.773V261.173L307.667 260.64C305.133 260.373 302.733 259.573 302.333 259.04C301.133 257.04 307.133 248.373 309.8 248.373C311.933 248.373 312.333 249.306 312.333 254.773ZM348.067 255.84L359 258.106V263.973C359 269.573 358.733 269.973 356.067 269.306C354.333 268.773 348.6 267.84 343.4 266.906L333.667 265.306V259.573C333.667 252.773 333.133 252.906 348.067 255.84ZM459.533 277.84C500.6 285.84 535.4 292.773 536.733 293.173C539.267 293.973 540.067 301.706 537.533 301.706C536.067 301.706 435 283.573 398.733 276.773L380.333 273.306V268.24C380.333 264.373 380.867 263.04 382.467 263.04C383.667 263.04 418.333 269.706 459.533 277.84ZM515 430.373C612.867 448.106 672.329 440.373 665.8 423.573C667.933 424.24 571.4 336.106 571.4 473.973L569.4 636.373H613.667H576.333V557.706C576.333 489.173 576.6 479.04 578.333 479.04C579.4 479.04 570.333 475.706 571.4 473.973C573.133 471.44 583.34 471.706 583.074 455.173C582.674 435.173 580.333 429.573 580.333 429.573C576.867 427.04 578.2 427.173 434.333 411.706C410.2 409.04 379.667 405.84 366.733 404.373C337 401.04 336.867 401.04 333 405.04C329.8 408.106 329.667 408.773 329.667 428.64C329.667 450.773 330.467 453.84 337.133 456.373L312.333 422.512L340.333 547.04V636.373H283.667H351L348.067 538.906L299.8 235.84L235.267 316.906C248.333 310.773 265.4 299.04 276.333 288.64C281.8 283.44 282.6 424.506 283.667 424.373C284.733 424.373 417.133 412.773 515 430.373ZM571.4 299.706C575.8 300.506 576.333 301.04 576.333 304.64V308.64L569.4 307.706C560.467 306.506 560.333 306.373 560.333 301.44C560.333 297.973 560.733 297.573 563.4 298.106C565 298.506 568.6 299.306 571.4 299.706ZM235.267 417.973C254.467 421.44 167.933 328.373 219.4 327.973L156.9 328.373V477.206V625.44L192.467 632.506C190.733 631.973 192.067 628.373 182.733 625.44L165.667 620.106V542.64C165.667 470.773 165.8 465.04 168.067 462.64C170.067 460.506 170.333 457.306 170.333 440.373C170.333 423.173 170.067 420.373 167.933 417.973C166.6 416.506 164.067 414.906 162.467 414.506C157.933 413.44 60.4667 441.04 57 444.373C54.7333 446.64 54.2 449.173 53.8 460.773C53.6667 468.24 54.0667 477.306 55 481.04C55.9333 485.573 56.3333 502.906 56.0667 536.64L55.6667 585.44L44.3333 581.84L66.1667 592.773L73.9333 428.64L32.6 391.206L19.6667 462.64C47.1333 443.973 127.173 422.246 128.373 422.512C129.44 422.912 231.133 417.173 235.267 417.973ZM451.667 435.04C505.933 440.906 553.133 445.973 556.733 446.506L563 447.306V452.506C563 457.706 563 457.84 558.733 457.173C556.333 456.773 510.6 452.24 457 447.04C403.533 441.84 357.667 437.306 355.4 436.906C351.133 436.24 351 435.973 351 430.373C351 427.04 351.533 424.373 352.067 424.373C352.6 424.373 397.4 429.173 451.667 435.04ZM149.4 443.306L149 447.44L115 455.173C78.6 463.44 75 463.973 75 461.306C72.804 452.506 87.2667 456.106 110.733 449.44C130.333 443.84 147.133 439.306 148.067 439.173C149.267 439.04 149.667 440.373 149.4 443.306ZM409 463.706C428.867 465.573 447 467.44 449.4 467.84L453.667 468.506V552.373V636.373H407.667H361.667V547.573V458.906L367.4 459.573C370.467 459.973 389.267 461.84 409 463.706ZM552.067 477.706H555V557.04V636.373H515H475V553.306V470.24L512.067 473.973C532.333 475.973 550.333 477.573 552.067 477.706ZM144.333 541.706C144.333 591.973 143.933 612.373 142.867 612.373C142.067 612.373 135.533 610.506 128.2 608.24L115 604.106V540.506V476.773L127.4 474.106C134.067 472.506 140.733 471.306 142.067 471.173C144.2 471.04 144.333 475.306 144.333 541.706ZM93.6667 539.04C93.6667 583.973 93.2667 596.373 92.0667 596.373C91.1333 596.373 87.6667 595.573 84.3333 594.506L78.3333 592.773V538.906V485.173L85 483.573C88.7333 482.773 92.0667 481.973 92.7333 481.84C93.2667 481.84 93.6667 507.44 93.6667 539.04Z" fill="black" fill-opacity="0.26"/>
<path d="M73.6029 88.8C68.9363 92.4 68.8029 100.267 73.2029 104.4C75.7363 106.8 77.8696 107.333 84.5363 107.333C89.0696 107.333 92.8029 107.6 92.8029 107.867C92.8029 108.133 97.8696 131.333 104.136 159.333L115.603 210.267L110.936 215.467C108.27 218.267 105.87 222.267 105.336 224.267C104.936 226.4 104.27 228.8 104.003 229.867C103.203 232.533 106.136 242.133 109.07 246.4C110.536 248.4 114.003 251.2 116.803 252.667C121.736 255.2 124.936 255.333 182.803 255.333C241.736 255.333 243.603 255.2 246.136 252.667C248.936 249.867 249.603 243.467 247.47 239.333C244.803 234.4 239.47 234 182.136 234C151.603 234 126.27 233.6 125.736 233.2C125.336 232.8 125.336 231.6 125.736 230.533C126.27 228.933 135.736 228.667 182.936 228.667H239.336L242.67 225.6C245.603 223.067 247.07 218 254.136 186.667C264.003 142.4 264.136 138.8 256.27 130.267C249.336 122.533 250.803 122.667 181.47 122L117.47 121.333L114.536 108C112.936 100.8 111.07 93.3333 110.27 91.7333C108.27 87.3333 103.603 86 89.6029 86C79.0696 86 76.6696 86.4 73.6029 88.8ZM240.803 145.733C240.803 148 105.336 130.267 228.003 204.933C227.336 207.2 223.336 137.267 181.47 137.267L136.803 207.333V215.467C130.136 186.8 241.603 223.733 239.336 210.267C241.88 223.733 137.07 159.667 193.47 159.667C249.203 159.667 240.803 143.467 240.803 145.733Z" fill="black" fill-opacity="0.26"/>
<path d="M350.934 212.4C345.734 217.867 347.467 226.4 354.267 229.067C359.6 231.2 420.934 244 425.6 244C431.067 244 434.134 242 435.734 237.6C437.734 232 434.8 226 429.067 224.133C422 221.867 361.467 209.333 357.467 209.333C355.334 209.333 352.534 210.667 350.934 212.4Z" fill="black" fill-opacity="0.26"/>
<path d="M496 240.4C490.934 242.933 488.667 248.533 490.667 253.467C491.6 255.6 493.467 258 494.8 258.667C496.134 259.467 511.334 262.933 528.534 266.667C561.6 273.6 564.934 273.733 567.867 268.133C568.667 266.667 569.334 263.733 569.334 261.6C569.334 254.267 565.867 252.8 531.467 245.467C514 241.733 499.6 238.667 499.467 238.667C499.467 238.667 497.867 239.467 496 240.4Z" fill="black" fill-opacity="0.26"/>
</g>
<defs>
<clipPath id="clip0_1_8">
<rect width="682.667" height="682.667" fill="white"/>
</clipPath>
</defs>
</svg>
