<svg width="50" height="44" viewBox="0 0 50 44" fill="none" xmlns="http://www.w3.org/2000/svg">
<path d="M42.3335 4.5H35.8335V17.4997H42.3335V4.5Z" fill="#C0392B"/>
<path d="M25 4.56738L5.5 23.9998V27.9258V39.5738V43.4998H7.66667H25H42.3333H44.5V39.5738V27.9258V23.9998L25 4.56738Z" fill="#BDC3C7"/>
<path d="M25 5.79993L5.5 25.0833V29.2V29.4166L25 9.91665L44.5 29.4166V29.2V25.0833L25 5.79993Z" fill="#95A5A6"/>
<path d="M25 0.166626L0.486328 24.6498L3.55108 27.6832L25 6.23313L46.4478 27.6832L49.5137 24.6498L25 0.166626Z" fill="#E74C3C"/>
<path d="M29.3332 19.6666C29.3332 20.8159 28.8766 21.9181 28.064 22.7307C27.2513 23.5434 26.1491 23.9999 24.9998 23.9999C23.8506 23.9999 22.7484 23.5434 21.9357 22.7307C21.1231 21.9181 20.6665 20.8159 20.6665 19.6666C20.6665 18.5173 21.1231 17.4151 21.9357 16.6025C22.7484 15.7898 23.8506 15.3333 24.9998 15.3333C26.1491 15.3333 27.2513 15.7898 28.064 16.6025C28.8766 17.4151 29.3332 18.5173 29.3332 19.6666Z" fill="#3498DB"/>
<path d="M29.3332 30.5H20.6665V43.5H29.3332V30.5Z" fill="#E67E22"/>
<path d="M28.2502 38.0833C28.2502 38.3707 28.136 38.6462 27.9329 38.8494C27.7297 39.0525 27.4541 39.1667 27.1668 39.1667C26.8795 39.1667 26.604 39.0525 26.4008 38.8494C26.1976 38.6462 26.0835 38.3707 26.0835 38.0833C26.0835 37.796 26.1976 37.5205 26.4008 37.3173C26.604 37.1141 26.8795 37 27.1668 37C27.4541 37 27.7297 37.1141 27.9329 37.3173C28.136 37.5205 28.2502 37.796 28.2502 38.0833Z" fill="#D35400"/>
<path d="M24.9998 15.3333C22.6057 15.3333 20.6665 17.2833 20.6665 19.6666C20.6665 19.8833 20.712 20.3166 20.8008 20.7499C21.2818 18.7999 22.9805 17.4999 24.9998 17.4999C27.0192 17.4999 28.7178 18.7999 29.1988 20.7499C29.2877 20.3166 29.3332 19.8833 29.3332 19.6666C29.3332 17.2833 27.394 15.3333 24.9998 15.3333Z" fill="#2980B9"/>
<path d="M28.2502 37C28.2502 37.2873 28.136 37.5628 27.9329 37.766C27.7297 37.9692 27.4541 38.0833 27.1668 38.0833C26.8795 38.0833 26.604 37.9692 26.4008 37.766C26.1976 37.5628 26.0835 37.2873 26.0835 37C26.0835 36.7126 26.1976 36.4371 26.4008 36.2339C26.604 36.0308 26.8795 35.9166 27.1668 35.9166C27.4541 35.9166 27.7297 36.0308 27.9329 36.2339C28.136 36.4371 28.2502 36.7126 28.2502 37Z" fill="#F1C40F"/>
<path d="M29.3332 28.3333H20.6665V30.4999H29.3332V28.3333Z" fill="#D35400"/>
</svg>
