<svg width="1440" height="654" viewBox="0 0 1440 654" fill="none" xmlns="http://www.w3.org/2000/svg">
<path d="M-0.709556 652.295C-1.09872 652.687 -1.09653 653.32 -0.704649 653.71C-0.312772 654.099 0.32039 654.096 0.709556 653.705L-0.709556 652.295ZM227.181 392.173L227.072 391.179L227.181 392.173ZM700.389 537.491L699.953 536.591L700.389 537.491ZM849.636 163.949L849.063 163.129L849.636 163.949ZM1190.41 207.265L1189.88 208.117L1190.41 207.265ZM1440 0L1428.99 3.48895L1437.52 11.2771L1440 0ZM2.88816 651.492C3.27397 651.097 3.26638 650.464 2.87121 650.078C2.47603 649.692 1.84291 649.7 1.4571 650.095L2.88816 651.492ZM5.66288 645.713C5.28392 646.115 5.3024 646.747 5.70415 647.126C6.10591 647.505 6.7388 647.487 7.11776 647.085L5.66288 645.713ZM11.1807 642.702C11.5527 642.294 11.5232 641.662 11.1149 641.29C10.7066 640.918 10.0741 640.947 9.7022 641.356L11.1807 642.702ZM13.727 636.856C13.3626 637.271 13.4037 637.902 13.8187 638.267C14.2337 638.631 14.8656 638.59 15.23 638.175L13.727 636.856ZM19.2016 633.565C19.558 633.143 19.5051 632.512 19.0832 632.156C18.6614 631.799 18.0304 631.852 17.674 632.274L19.2016 633.565ZM21.4473 627.722C21.0989 628.15 21.164 628.78 21.5925 629.128C22.0211 629.477 22.6509 629.412 22.9993 628.983L21.4473 627.722ZM26.8211 624.184C27.1607 623.748 27.083 623.12 26.6475 622.78C26.2119 622.44 25.5836 622.518 25.2439 622.954L26.8211 624.184ZM28.8832 618.187C28.5525 618.63 28.6431 619.256 29.0855 619.587C29.5279 619.918 30.1545 619.827 30.4852 619.385L28.8832 618.187ZM34.0351 614.53C34.3564 614.081 34.2527 613.457 33.8035 613.135C33.3543 612.814 32.7297 612.918 32.4084 613.367L34.0351 614.53ZM35.8826 608.397C35.5711 608.853 35.6883 609.475 36.1444 609.787C36.6004 610.098 37.2227 609.981 37.5341 609.525L35.8826 608.397ZM40.8478 604.559C41.1493 604.096 41.0187 603.477 40.556 603.175C40.0933 602.874 39.4737 603.004 39.1722 603.467L40.8478 604.559ZM42.4345 598.336C42.1435 598.805 42.2881 599.421 42.7575 599.712C43.2269 600.003 43.8434 599.859 44.1344 599.389L42.4345 598.336ZM47.2486 594.238C47.5289 593.762 47.3705 593.149 46.8947 592.869C46.4189 592.589 45.8058 592.747 45.5255 593.223L47.2486 594.238ZM48.5244 587.998C48.2549 588.48 48.4273 589.089 48.9094 589.359C49.3915 589.628 50.0008 589.456 50.2702 588.974L48.5244 587.998ZM53.1623 583.657C53.4206 583.169 53.2343 582.564 52.7462 582.306C52.2581 582.047 51.6529 582.234 51.3946 582.722L53.1623 583.657ZM54.1383 577.391C53.8912 577.885 54.0912 578.486 54.5851 578.733C55.079 578.98 55.6797 578.78 55.9269 578.286L54.1383 577.391ZM58.5812 572.828C58.8171 572.328 58.6035 571.732 58.1041 571.497C57.6048 571.261 57.0087 571.474 56.7728 571.974L58.5812 572.828ZM59.2691 566.533C59.0443 567.037 59.2711 567.629 59.7756 567.853C60.2801 568.078 60.8713 567.851 61.096 567.347L59.2691 566.533ZM63.5065 561.772C63.7202 561.263 63.4806 560.677 62.9713 560.463C62.4621 560.25 61.876 560.489 61.6623 560.999L63.5065 561.772ZM63.922 555.45C63.719 555.964 63.9708 556.545 64.4844 556.748C64.998 556.951 65.579 556.699 65.782 556.186L63.922 555.45ZM67.9541 550.523C68.1467 550.005 67.8833 549.429 67.3657 549.237C66.8481 549.044 66.2723 549.307 66.0797 549.825L67.9541 550.523ZM68.1207 544.178C67.9378 544.699 68.212 545.27 68.7331 545.453C69.2542 545.636 69.8249 545.362 70.0078 544.84L68.1207 544.178ZM71.9601 539.117C72.1339 538.593 71.8499 538.027 71.3257 537.853C70.8014 537.68 70.2356 537.964 70.0617 538.488L71.9601 539.117ZM71.9124 532.755C71.7468 533.281 72.0396 533.843 72.5665 534.008C73.0934 534.174 73.6547 533.881 73.8204 533.354L71.9124 532.755ZM75.5859 527.6C75.7444 527.071 75.4441 526.513 74.915 526.355C74.386 526.196 73.8286 526.497 73.6701 527.026L75.5859 527.6ZM75.3725 521.221C75.2199 521.752 75.5265 522.306 76.0573 522.459C76.5881 522.611 77.1421 522.305 77.2947 521.774L75.3725 521.221ZM78.9287 515.994C79.0768 515.462 78.7656 514.91 78.2336 514.762C77.7015 514.614 77.1501 514.925 77.002 515.457L78.9287 515.994ZM78.6086 509.621C78.4632 510.154 78.7774 510.704 79.3102 510.849C79.843 510.995 80.3927 510.68 80.5381 510.148L78.6086 509.621ZM82.1179 504.329C82.2624 503.796 81.9473 503.246 81.4143 503.102C80.8812 502.958 80.332 503.273 80.1875 503.806L82.1179 504.329ZM81.7652 498.002C81.6195 498.534 81.9333 499.084 82.466 499.23C82.9987 499.376 83.5487 499.062 83.6943 498.529L81.7652 498.002ZM85.3079 492.699C85.4573 492.167 85.1473 491.615 84.6156 491.466C84.0839 491.316 83.5318 491.626 83.3824 492.158L85.3079 492.699ZM85.0457 486.362C84.8899 486.892 85.1932 487.448 85.7231 487.603C86.2529 487.759 86.8087 487.456 86.9645 486.926L85.0457 486.362ZM88.7069 481.177C88.872 480.65 88.5787 480.089 88.0517 479.924C87.5246 479.759 86.9635 480.052 86.7984 480.579L88.7069 481.177ZM88.6805 474.807C88.5027 475.33 88.7824 475.898 89.3053 476.076C89.8281 476.254 90.3962 475.974 90.574 475.451L88.6805 474.807ZM92.5872 469.809C92.7811 469.292 92.5192 468.716 92.0021 468.522C91.4849 468.328 90.9085 468.59 90.7146 469.107L92.5872 469.809ZM92.9463 463.476C92.7327 463.986 92.9724 464.572 93.4817 464.785C93.991 464.999 94.577 464.759 94.7906 464.25L92.9463 463.476ZM97.2329 458.773C97.4697 458.274 97.2572 457.678 96.7583 457.441C96.2593 457.204 95.6629 457.417 95.4261 457.916L97.2329 458.773ZM98.1744 452.495C97.9113 452.98 98.0917 453.587 98.5773 453.85C99.063 454.113 99.6699 453.933 99.9329 453.447L98.1744 452.495ZM102.927 448.289C103.219 447.82 103.075 447.203 102.606 446.911C102.138 446.62 101.521 446.763 101.229 447.232L102.927 448.289ZM104.615 442.163C104.293 442.612 104.396 443.237 104.845 443.559C105.294 443.881 105.919 443.778 106.24 443.329L104.615 442.163ZM109.869 438.619C110.221 438.193 110.161 437.563 109.736 437.211C109.31 436.859 108.68 436.918 108.328 437.344L109.869 438.619ZM112.378 432.787C111.997 433.186 112.012 433.819 112.411 434.201C112.811 434.582 113.444 434.567 113.825 434.167L112.378 432.787ZM118.108 429.986C118.516 429.615 118.546 428.982 118.174 428.574C117.802 428.165 117.17 428.135 116.761 428.507L118.108 429.986ZM121.37 424.589C120.938 424.933 120.866 425.562 121.209 425.994C121.553 426.427 122.182 426.499 122.614 426.155L121.37 424.589ZM127.405 422.595C127.858 422.28 127.97 421.657 127.655 421.203C127.339 420.75 126.716 420.638 126.263 420.953L127.405 422.595ZM131.386 417.613C130.915 417.901 130.767 418.517 131.055 418.988C131.343 419.459 131.958 419.608 132.429 419.319L131.386 417.613ZM137.557 416.371C138.043 416.108 138.224 415.502 137.961 415.016C137.698 414.53 137.092 414.349 136.606 414.612L137.557 416.371ZM142.107 411.811C141.609 412.05 141.399 412.647 141.637 413.145C141.876 413.643 142.473 413.854 142.971 413.615L142.107 411.811ZM148.327 411.19C148.835 410.973 149.071 410.385 148.853 409.877C148.636 409.369 148.048 409.134 147.541 409.351L148.327 411.19ZM153.248 407.043C152.732 407.24 152.474 407.818 152.671 408.334C152.868 408.85 153.446 409.108 153.962 408.911L153.248 407.043ZM159.505 406.902C160.027 406.723 160.305 406.154 160.126 405.631C159.946 405.109 159.377 404.831 158.855 405.011L159.505 406.902ZM164.736 403.095C164.208 403.258 163.912 403.818 164.075 404.346C164.238 404.873 164.798 405.169 165.325 405.006L164.736 403.095ZM170.954 403.354C171.486 403.205 171.796 402.653 171.648 402.121C171.499 401.59 170.948 401.279 170.416 401.427L170.954 403.354ZM176.38 399.845C175.845 399.98 175.52 400.523 175.655 401.059C175.79 401.594 176.334 401.919 176.869 401.784L176.38 399.845ZM182.61 400.406C183.148 400.283 183.485 399.746 183.362 399.208C183.238 398.67 182.702 398.333 182.164 398.456L182.61 400.406ZM188.089 397.166C187.548 397.278 187.2 397.807 187.312 398.348C187.425 398.889 187.954 399.236 188.495 399.124L188.089 397.166ZM194.465 397.945C195.008 397.843 195.365 397.32 195.263 396.778C195.161 396.235 194.638 395.878 194.095 395.98L194.465 397.945ZM199.929 394.933C199.385 395.027 199.019 395.543 199.112 396.088C199.205 396.632 199.722 396.998 200.266 396.905L199.929 394.933ZM206.29 395.924C206.836 395.839 207.21 395.328 207.125 394.782C207.041 394.236 206.53 393.863 205.984 393.947L206.29 395.924ZM211.953 393.065C211.406 393.142 211.025 393.648 211.102 394.194C211.179 394.741 211.685 395.122 212.232 395.045L211.953 393.065ZM218.108 394.256C218.656 394.186 219.043 393.685 218.973 393.138C218.903 392.59 218.402 392.202 217.854 392.272L218.108 394.256ZM223.95 391.531C223.401 391.594 223.008 392.09 223.071 392.639C223.135 393.188 223.631 393.581 224.18 393.517L223.95 391.531ZM230.226 392.873C230.776 392.823 231.181 392.337 231.131 391.787C231.082 391.237 230.595 390.831 230.045 390.881L230.226 392.873ZM236.003 390.455C235.451 390.484 235.028 390.955 235.057 391.506C235.086 392.058 235.556 392.481 236.108 392.452L236.003 390.455ZM242.005 392.25C242.557 392.241 242.997 391.787 242.989 391.234C242.98 390.682 242.525 390.242 241.973 390.251L242.005 392.25ZM247.931 390.26C247.379 390.25 246.923 390.689 246.912 391.241C246.902 391.793 247.341 392.249 247.893 392.26L247.931 390.26ZM253.794 392.474C254.345 392.503 254.816 392.08 254.845 391.529C254.875 390.977 254.451 390.506 253.9 390.477L253.794 392.474ZM259.851 390.891C259.3 390.844 258.816 391.252 258.769 391.802C258.721 392.352 259.129 392.837 259.679 392.884L259.851 390.891ZM265.543 393.48C266.092 393.545 266.589 393.152 266.653 392.604C266.717 392.055 266.325 391.558 265.776 391.494L265.543 393.48ZM271.711 392.281C271.164 392.2 270.656 392.578 270.576 393.124C270.495 393.67 270.872 394.179 271.419 394.259L271.711 392.281ZM277.226 395.201C277.769 395.297 278.288 394.933 278.384 394.39C278.48 393.846 278.117 393.327 277.573 393.231L277.226 395.201ZM283.433 394.347C282.892 394.236 282.364 394.585 282.254 395.126C282.143 395.667 282.492 396.196 283.033 396.306L283.433 394.347ZM288.82 397.564C289.358 397.689 289.895 397.353 290.019 396.815C290.143 396.277 289.807 395.74 289.269 395.616L288.82 397.564ZM295.038 397.019C294.503 396.882 293.958 397.205 293.821 397.74C293.684 398.275 294.007 398.82 294.542 398.957L295.038 397.019ZM300.273 400.492C300.805 400.641 301.357 400.331 301.506 399.799C301.654 399.267 301.344 398.715 300.812 398.567L300.273 400.492ZM306.519 400.23C305.991 400.07 305.432 400.369 305.272 400.898C305.112 401.426 305.411 401.984 305.939 402.145L306.519 400.23ZM311.575 403.914C312.101 404.085 312.665 403.797 312.835 403.272C313.006 402.747 312.718 402.182 312.193 402.012L311.575 403.914ZM317.871 403.916C317.349 403.736 316.78 404.012 316.599 404.534C316.419 405.056 316.696 405.626 317.218 405.806L317.871 403.916ZM322.762 407.778C323.281 407.968 323.855 407.701 324.044 407.182C324.234 406.663 323.967 406.089 323.448 405.899L322.762 407.778ZM329.025 407.99C328.509 407.792 327.931 408.049 327.733 408.565C327.535 409.08 327.792 409.659 328.308 409.857L329.025 407.99ZM333.836 412.031C334.349 412.237 334.931 411.988 335.137 411.476C335.343 410.963 335.095 410.381 334.582 410.175L333.836 412.031ZM340.062 412.424C339.553 412.211 338.967 412.451 338.754 412.96C338.54 413.47 338.78 414.056 339.29 414.269L340.062 412.424ZM344.747 416.598C345.254 416.818 345.843 416.586 346.063 416.08C346.283 415.573 346.051 414.984 345.544 414.764L344.747 416.598ZM350.99 417.173C350.487 416.946 349.895 417.171 349.668 417.674C349.442 418.178 349.666 418.77 350.17 418.997L350.99 417.173ZM355.543 421.451C356.044 421.683 356.638 421.466 356.871 420.965C357.103 420.464 356.885 419.869 356.384 419.637L355.543 421.451ZM361.779 422.175C361.281 421.937 360.684 422.149 360.446 422.647C360.208 423.145 360.42 423.742 360.918 423.98L361.779 422.175ZM366.251 426.558C366.747 426.801 367.346 426.595 367.589 426.099C367.831 425.603 367.626 425.004 367.13 424.761L366.251 426.558ZM372.448 427.396C371.954 427.148 371.353 427.348 371.106 427.842C370.858 428.335 371.058 428.936 371.552 429.184L372.448 427.396ZM376.854 431.869C377.345 432.121 377.948 431.927 378.2 431.435C378.451 430.943 378.257 430.341 377.765 430.089L376.854 431.869ZM383.039 432.815C382.549 432.56 381.945 432.75 381.69 433.239C381.434 433.729 381.624 434.333 382.113 434.589L383.039 432.815ZM387.353 437.348C387.841 437.607 388.447 437.422 388.706 436.934C388.965 436.446 388.779 435.841 388.292 435.582L387.353 437.348ZM393.543 438.394C393.057 438.131 392.451 438.313 392.188 438.799C391.926 439.285 392.107 439.891 392.593 440.154L393.543 438.394ZM397.796 442.982C398.281 443.247 398.889 443.069 399.154 442.585C399.419 442.101 399.241 441.493 398.757 441.228L397.796 442.982ZM403.957 444.093C403.474 443.825 402.865 444 402.598 444.483C402.33 444.966 402.504 445.574 402.987 445.842L403.957 444.093ZM408.177 448.736C408.659 449.006 409.268 448.834 409.538 448.353C409.809 447.871 409.637 447.262 409.155 446.991L408.177 448.736ZM414.325 449.905C413.845 449.633 413.234 449.802 412.962 450.282C412.69 450.763 412.859 451.373 413.34 451.645L414.325 449.905ZM418.494 454.577C418.974 454.851 419.585 454.684 419.859 454.204C420.133 453.725 419.966 453.114 419.486 452.84L418.494 454.577ZM424.644 455.797C424.165 455.522 423.554 455.686 423.279 456.165C423.003 456.644 423.168 457.255 423.647 457.531L424.644 455.797ZM428.784 460.495C429.262 460.772 429.874 460.608 430.15 460.13C430.427 459.652 430.264 459.041 429.786 458.764L428.784 460.495ZM434.921 461.743C434.444 461.466 433.832 461.628 433.554 462.105C433.276 462.582 433.438 463.195 433.916 463.472L434.921 461.743ZM439.044 466.46C439.521 466.738 440.134 466.577 440.412 466.1C440.69 465.623 440.529 465.011 440.052 464.732L439.044 466.46ZM445.18 467.728C444.704 467.45 444.091 467.61 443.812 468.087C443.533 468.563 443.694 469.176 444.171 469.455L445.18 467.728ZM449.293 472.453C449.77 472.732 450.382 472.572 450.661 472.095C450.94 471.618 450.78 471.006 450.304 470.727L449.293 472.453ZM455.422 473.724C454.945 473.445 454.333 473.605 454.054 474.082C453.775 474.558 453.935 475.171 454.411 475.45L455.422 473.724ZM459.542 478.452C460.018 478.73 460.631 478.57 460.91 478.093C461.188 477.616 461.028 477.004 460.551 476.725L459.542 478.452ZM465.676 479.718C465.199 479.44 464.587 479.601 464.309 480.078C464.03 480.555 464.192 481.168 464.669 481.446L465.676 479.718ZM469.79 484.428C470.268 484.705 470.88 484.543 471.157 484.066C471.435 483.588 471.273 482.976 470.795 482.699L469.79 484.428ZM475.94 485.681C475.462 485.405 474.85 485.568 474.574 486.046C474.298 486.524 474.461 487.136 474.939 487.412L475.94 485.681ZM480.085 490.378C480.564 490.653 481.175 490.488 481.45 490.009C481.725 489.53 481.56 488.919 481.081 488.644L480.085 490.378ZM486.214 491.582C485.735 491.308 485.124 491.475 484.85 491.955C484.577 492.435 484.744 493.046 485.224 493.319L486.214 491.582ZM490.408 496.261C490.889 496.533 491.499 496.363 491.77 495.883C492.042 495.402 491.872 494.792 491.392 494.52L490.408 496.261ZM496.561 497.425C496.079 497.156 495.47 497.328 495.201 497.81C494.931 498.292 495.103 498.902 495.586 499.171L496.561 497.425ZM500.76 502.047C501.244 502.314 501.852 502.138 502.119 501.655C502.386 501.171 502.211 500.563 501.727 500.296L500.76 502.047ZM506.949 503.16C506.464 502.896 505.857 503.075 505.592 503.56C505.328 504.045 505.507 504.652 505.992 504.917L506.949 503.16ZM511.216 507.74C511.703 508.001 512.309 507.818 512.57 507.331C512.831 506.845 512.648 506.238 512.161 505.977L511.216 507.74ZM517.38 508.753C516.891 508.495 516.286 508.682 516.029 509.171C515.771 509.659 515.959 510.264 516.447 510.522L517.38 508.753ZM521.74 513.285C522.23 513.538 522.834 513.346 523.087 512.856C523.341 512.365 523.149 511.762 522.658 511.508L521.74 513.285ZM527.925 514.202C527.432 513.953 526.831 514.15 526.581 514.643C526.332 515.136 526.529 515.738 527.022 515.987L527.925 514.202ZM532.332 518.642C532.827 518.887 533.427 518.684 533.672 518.188C533.916 517.693 533.713 517.094 533.218 516.849L532.332 518.642ZM538.564 519.456C538.067 519.216 537.469 519.426 537.23 519.923C536.99 520.421 537.2 521.019 537.697 521.258L538.564 519.456ZM543.051 523.797C543.552 524.03 544.147 523.814 544.38 523.314C544.614 522.814 544.398 522.218 543.898 521.985L543.051 523.797ZM549.288 524.463C548.784 524.235 548.192 524.459 547.964 524.962C547.737 525.465 547.96 526.057 548.464 526.285L549.288 524.463ZM553.913 528.706C554.419 528.926 555.008 528.695 555.229 528.189C555.45 527.682 555.218 527.093 554.712 526.872L553.913 528.706ZM560.121 529.186C559.612 528.972 559.026 529.212 558.812 529.721C558.599 530.231 558.839 530.817 559.348 531.03L560.121 529.186ZM564.887 533.301C565.4 533.506 565.982 533.257 566.187 532.744C566.393 532.232 566.144 531.65 565.631 531.444L564.887 533.301ZM571.14 533.598C570.624 533.401 570.047 533.66 569.85 534.176C569.653 534.692 569.912 535.27 570.428 535.467L571.14 533.598ZM575.987 537.528C576.506 537.715 577.079 537.446 577.267 536.926C577.454 536.407 577.184 535.834 576.665 535.647L575.987 537.528ZM582.281 537.609C581.758 537.432 581.191 537.712 581.014 538.236C580.837 538.759 581.118 539.326 581.641 539.503L582.281 537.609ZM587.278 541.344C587.805 541.51 588.366 541.217 588.532 540.69C588.698 540.163 588.405 539.602 587.878 539.436L587.278 541.344ZM593.551 541.151C593.02 540.997 592.466 541.303 592.312 541.833C592.159 542.364 592.464 542.918 592.995 543.072L593.551 541.151ZM598.745 544.662C599.279 544.803 599.826 544.484 599.967 543.95C600.107 543.415 599.788 542.868 599.254 542.728L598.745 544.662ZM604.954 544.149C604.417 544.023 603.878 544.356 603.752 544.894C603.625 545.431 603.959 545.97 604.496 546.096L604.954 544.149ZM610.355 547.388C610.896 547.499 611.424 547.151 611.535 546.61C611.647 546.069 611.298 545.54 610.757 545.429L610.355 547.388ZM616.535 546.526C615.991 546.432 615.473 546.796 615.378 547.34C615.283 547.884 615.648 548.402 616.192 548.497L616.535 546.526ZM622.098 549.429C622.645 549.506 623.15 549.125 623.228 548.578C623.305 548.031 622.924 547.525 622.377 547.448L622.098 549.429ZM628.234 548.173C627.685 548.115 627.192 548.513 627.134 549.062C627.076 549.611 627.473 550.104 628.023 550.162L628.234 548.173ZM633.954 550.684C634.505 550.722 634.982 550.306 635.021 549.755C635.059 549.204 634.643 548.727 634.092 548.688L633.954 550.684ZM639.996 548.985C639.444 548.968 638.983 549.402 638.966 549.954C638.949 550.506 639.382 550.967 639.935 550.984L639.996 548.985ZM645.889 551.048C646.441 551.043 646.884 550.591 646.879 550.038C646.874 549.486 646.422 549.043 645.869 549.048L645.889 551.048ZM651.768 548.866C651.217 548.895 650.793 549.366 650.822 549.917C650.851 550.469 651.321 550.893 651.872 550.864L651.768 548.866ZM657.831 550.421C658.381 550.368 658.784 549.88 658.731 549.33C658.677 548.78 658.189 548.378 657.639 548.431L657.831 550.421ZM663.478 547.733C662.932 547.811 662.552 548.317 662.63 548.864C662.708 549.411 663.214 549.791 663.761 549.713L663.478 547.733ZM669.66 548.729C670.203 548.626 670.558 548.102 670.455 547.56C670.351 547.017 669.828 546.661 669.285 546.765L669.66 548.729ZM675.04 545.524C674.503 545.653 674.172 546.193 674.301 546.73C674.431 547.267 674.971 547.598 675.508 547.469L675.04 545.524ZM681.271 545.934C681.801 545.779 682.106 545.224 681.951 544.694C681.796 544.164 681.241 543.859 680.711 544.014L681.271 545.934ZM686.348 542.218C685.826 542.398 685.549 542.968 685.73 543.49C685.91 544.012 686.479 544.289 687.001 544.108L686.348 542.218ZM692.563 542.038C693.076 541.833 693.326 541.251 693.121 540.738C692.916 540.225 692.334 539.975 691.821 540.18L692.563 542.038ZM697.251 537.86C696.748 538.089 696.526 538.682 696.755 539.185C696.984 539.688 697.577 539.909 698.08 539.68L697.251 537.86ZM703.539 536.967C704.02 536.696 704.19 536.086 703.918 535.605C703.646 535.124 703.036 534.955 702.555 535.226L703.539 536.967ZM707.542 531.994C707.097 532.32 707.001 532.946 707.328 533.391C707.655 533.837 708.281 533.932 708.726 533.605L707.542 531.994ZM713.466 529.721C713.875 529.35 713.905 528.717 713.534 528.308C713.163 527.899 712.531 527.869 712.122 528.24L713.466 529.721ZM716.328 524.057C715.953 524.463 715.979 525.096 716.385 525.47C716.791 525.845 717.423 525.819 717.798 525.413L716.328 524.057ZM721.8 520.718C722.143 520.285 722.069 519.656 721.636 519.313C721.203 518.971 720.574 519.044 720.231 519.478L721.8 520.718ZM723.763 514.698C723.448 515.152 723.562 515.775 724.016 516.09C724.47 516.404 725.093 516.291 725.407 515.837L723.763 514.698ZM728.739 510.727C729.029 510.256 728.882 509.64 728.412 509.351C727.941 509.062 727.325 509.208 727.036 509.679L728.739 510.727ZM730.075 504.467C729.808 504.95 729.983 505.558 730.466 505.826C730.949 506.093 731.558 505.918 731.825 505.435L730.075 504.467ZM734.645 500.09C734.893 499.596 734.694 498.995 734.201 498.747C733.708 498.498 733.107 498.697 732.858 499.19L734.645 500.09ZM735.497 493.71C735.266 494.212 735.485 494.806 735.987 495.037C736.488 495.268 737.082 495.049 737.314 494.548L735.497 493.71ZM739.749 489.055C739.966 488.547 739.729 487.959 739.221 487.743C738.714 487.526 738.126 487.762 737.909 488.27L739.749 489.055ZM740.227 482.63C740.024 483.144 740.275 483.725 740.788 483.928C741.302 484.132 741.883 483.881 742.087 483.367L740.227 482.63ZM744.233 477.766C744.425 477.248 744.161 476.673 743.644 476.48C743.126 476.288 742.55 476.552 742.358 477.07L744.233 477.766ZM744.418 471.339C744.237 471.86 744.512 472.43 745.034 472.612C745.555 472.794 746.125 472.519 746.307 471.997L744.418 471.339ZM748.235 466.305C748.407 465.78 748.122 465.215 747.598 465.042C747.073 464.87 746.508 465.155 746.335 465.679L748.235 466.305ZM748.188 459.898C748.024 460.425 748.318 460.986 748.845 461.151C749.372 461.315 749.933 461.021 750.097 460.494L748.188 459.898ZM751.856 454.722C752.014 454.192 751.712 453.635 751.183 453.478C750.653 453.321 750.097 453.622 749.939 454.151L751.856 454.722ZM751.627 448.345C751.476 448.876 751.784 449.429 752.315 449.58C752.847 449.731 753.4 449.423 753.551 448.892L751.627 448.345ZM755.177 443.048C755.322 442.515 755.008 441.965 754.475 441.82C753.942 441.675 753.393 441.989 753.247 442.522L755.177 443.048ZM754.803 436.703C754.663 437.237 754.983 437.784 755.517 437.924C756.051 438.064 756.598 437.745 756.738 437.211L754.803 436.703ZM758.259 431.307C758.395 430.771 758.071 430.227 757.535 430.092C757 429.956 756.456 430.28 756.32 430.816L758.259 431.307ZM757.772 424.991C757.64 425.527 757.968 426.069 758.505 426.2C759.041 426.332 759.583 426.004 759.714 425.467L757.772 424.991ZM761.143 419.553C761.271 419.016 760.94 418.477 760.402 418.349C759.865 418.221 759.326 418.553 759.198 419.09L761.143 419.553ZM760.577 413.224C760.452 413.762 760.787 414.299 761.325 414.424C761.863 414.549 762.4 414.214 762.525 413.676L760.577 413.224ZM763.878 407.775C764 407.237 763.662 406.701 763.124 406.579C762.585 406.457 762.05 406.795 761.927 407.333L763.878 407.775ZM763.254 401.418C763.135 401.957 763.475 402.491 764.014 402.611C764.553 402.73 765.087 402.39 765.207 401.851L763.254 401.418ZM766.503 395.959C766.621 395.419 766.279 394.887 765.74 394.769C765.2 394.651 764.667 394.993 764.549 395.533L766.503 395.959ZM765.832 389.605C765.716 390.145 766.06 390.677 766.6 390.793C767.14 390.909 767.672 390.565 767.788 390.025L765.832 389.605ZM769.049 384.117C769.164 383.577 768.819 383.046 768.278 382.932C767.738 382.817 767.207 383.162 767.093 383.702L769.049 384.117ZM768.342 377.786C768.228 378.327 768.574 378.857 769.115 378.971C769.655 379.084 770.185 378.738 770.299 378.198L768.342 377.786ZM771.541 372.264C771.654 371.724 771.307 371.194 770.766 371.081C770.225 370.968 769.696 371.315 769.583 371.856L771.541 372.264ZM770.813 365.944C770.701 366.485 771.048 367.014 771.589 367.126C772.13 367.239 772.659 366.891 772.771 366.351L770.813 365.944ZM774.001 360.422C774.113 359.881 773.765 359.352 773.224 359.24C772.684 359.128 772.154 359.475 772.042 360.016L774.001 360.422ZM773.27 354.092C773.158 354.633 773.505 355.162 774.046 355.274C774.587 355.387 775.116 355.039 775.228 354.498L773.27 354.092ZM776.457 348.577C776.57 348.036 776.222 347.507 775.682 347.395C775.141 347.282 774.611 347.629 774.499 348.17L776.457 348.577ZM775.734 342.246C775.621 342.787 775.967 343.317 776.508 343.43C777.049 343.543 777.578 343.196 777.691 342.655L775.734 342.246ZM778.934 336.733C779.048 336.193 778.702 335.662 778.162 335.549C777.621 335.435 777.091 335.78 776.977 336.321L778.934 336.733ZM778.23 330.404C778.115 330.944 778.459 331.476 779 331.591C779.54 331.706 780.071 331.361 780.186 330.821L778.23 330.404ZM781.453 324.905C781.569 324.365 781.226 323.833 780.686 323.717C780.146 323.601 779.614 323.944 779.498 324.484L781.453 324.905ZM780.784 318.565C780.665 319.105 781.007 319.638 781.547 319.756C782.086 319.874 782.619 319.533 782.737 318.993L780.784 318.565ZM784.037 313.106C784.157 312.567 783.818 312.032 783.279 311.912C782.74 311.792 782.205 312.132 782.085 312.671L784.037 313.106ZM783.418 306.745C783.296 307.284 783.633 307.82 784.172 307.942C784.71 308.065 785.246 307.727 785.369 307.189L783.418 306.745ZM786.721 301.305C786.846 300.767 786.511 300.229 785.973 300.104C785.435 299.979 784.898 300.314 784.773 300.852L786.721 301.305ZM786.16 294.959C786.032 295.497 786.363 296.036 786.901 296.164C787.438 296.292 787.977 295.96 788.105 295.423L786.16 294.959ZM789.527 289.537C789.658 289 789.33 288.459 788.793 288.328C788.257 288.196 787.715 288.525 787.584 289.061L789.527 289.537ZM789.037 283.214C788.902 283.75 789.226 284.293 789.762 284.428C790.297 284.563 790.841 284.239 790.976 283.703L789.037 283.214ZM792.484 277.818C792.623 277.283 792.303 276.737 791.768 276.598C791.234 276.459 790.688 276.779 790.549 277.314L792.484 277.818ZM792.097 271.471C791.953 272.004 792.269 272.553 792.802 272.697C793.335 272.84 793.884 272.525 794.028 271.991L792.097 271.471ZM795.627 266.165C795.776 265.633 795.466 265.081 794.934 264.932C794.402 264.784 793.85 265.094 793.701 265.626L795.627 266.165ZM795.367 259.786C795.213 260.317 795.518 260.872 796.048 261.026C796.578 261.18 797.133 260.876 797.288 260.345L795.367 259.786ZM798.997 254.595C799.157 254.066 798.859 253.508 798.331 253.347C797.802 253.187 797.244 253.485 797.083 254.014L798.997 254.595ZM798.894 248.182C798.727 248.708 799.018 249.27 799.544 249.437C800.071 249.605 800.633 249.313 800.8 248.787L798.894 248.182ZM802.655 243.086C802.829 242.562 802.546 241.996 802.022 241.821C801.498 241.647 800.932 241.93 800.757 242.454L802.655 243.086ZM802.732 236.679C802.549 237.2 802.823 237.771 803.344 237.954C803.865 238.137 804.436 237.862 804.619 237.341L802.732 236.679ZM806.657 231.685C806.849 231.167 806.585 230.592 806.067 230.4C805.549 230.208 804.974 230.472 804.782 230.99L806.657 231.685ZM806.947 225.309C806.746 225.823 806.999 226.404 807.513 226.605C808.027 226.807 808.607 226.554 808.809 226.04L806.947 225.309ZM811.07 220.453C811.283 219.943 811.042 219.357 810.533 219.145C810.023 218.932 809.438 219.172 809.225 219.682L811.07 220.453ZM811.627 214.114C811.402 214.618 811.628 215.209 812.133 215.434C812.637 215.659 813.229 215.433 813.453 214.928L811.627 214.114ZM815.984 209.449C816.223 208.951 816.012 208.353 815.514 208.115C815.016 207.877 814.419 208.087 814.18 208.585L815.984 209.449ZM816.878 203.157C816.624 203.648 816.817 204.251 817.307 204.504C817.798 204.757 818.401 204.565 818.655 204.074L816.878 203.157ZM821.51 198.762C821.78 198.281 821.608 197.671 821.126 197.401C820.645 197.131 820.035 197.303 819.765 197.785L821.51 198.762ZM822.834 192.541C822.546 193.013 822.694 193.628 823.165 193.916C823.636 194.205 824.252 194.056 824.54 193.585L822.834 192.541ZM827.784 188.53C828.093 188.072 827.971 187.451 827.513 187.142C827.055 186.834 826.434 186.955 826.125 187.413L827.784 188.53ZM829.659 182.434C829.328 182.876 829.418 183.503 829.86 183.834C830.302 184.165 830.929 184.075 831.26 183.633L829.659 182.434ZM834.962 178.961C835.318 178.538 835.263 177.907 834.84 177.552C834.418 177.197 833.787 177.251 833.431 177.674L834.962 178.961ZM837.532 173.098C837.15 173.497 837.163 174.13 837.562 174.512C837.961 174.894 838.594 174.88 838.976 174.481L837.532 173.098ZM843.227 170.344C843.637 169.974 843.668 169.342 843.298 168.932C842.928 168.522 842.295 168.49 841.886 168.861L843.227 170.344ZM846.614 164.92C846.175 165.256 846.092 165.883 846.428 166.322C846.763 166.76 847.391 166.844 847.829 166.508L846.614 164.92ZM852.658 163.102C853.119 162.797 853.245 162.177 852.94 161.716C852.635 161.256 852.014 161.13 851.554 161.435L852.658 163.102ZM856.665 158.224C856.191 158.507 856.035 159.121 856.318 159.595C856.6 160.07 857.214 160.225 857.688 159.943L856.665 158.224ZM862.852 157.029C863.339 156.769 863.523 156.163 863.263 155.676C863.003 155.189 862.397 155.005 861.91 155.265L862.852 157.029ZM867.293 152.541C866.795 152.779 866.584 153.377 866.823 153.875C867.061 154.373 867.659 154.583 868.157 154.345L867.293 152.541ZM873.565 151.896C874.073 151.679 874.309 151.091 874.092 150.583C873.874 150.076 873.287 149.84 872.779 150.057L873.565 151.896ZM878.361 147.802C877.845 147.999 877.586 148.577 877.783 149.093C877.979 149.609 878.557 149.868 879.073 149.671L878.361 147.802ZM884.681 147.659C885.204 147.482 885.485 146.915 885.309 146.391C885.132 145.868 884.565 145.587 884.042 145.764L884.681 147.659ZM889.765 143.948C889.235 144.105 888.934 144.662 889.091 145.191C889.249 145.721 889.806 146.022 890.335 145.864L889.765 143.948ZM896.08 144.263C896.614 144.123 896.935 143.577 896.795 143.043C896.656 142.508 896.11 142.188 895.576 142.327L896.08 144.263ZM901.41 140.909C900.872 141.031 900.534 141.566 900.656 142.105C900.777 142.644 901.313 142.982 901.851 142.86L901.41 140.909ZM907.681 141.637C908.223 141.532 908.578 141.008 908.473 140.465C908.368 139.923 907.843 139.569 907.301 139.674L907.681 141.637ZM913.223 138.617C912.678 138.706 912.309 139.22 912.398 139.765C912.487 140.31 913.001 140.68 913.546 140.59L913.223 138.617ZM919.431 139.712C919.978 139.638 920.362 139.134 920.287 138.587C920.213 138.04 919.71 137.656 919.162 137.73L919.431 139.712ZM925.144 137.001C924.595 137.061 924.198 137.554 924.258 138.104C924.317 138.653 924.811 139.049 925.36 138.99L925.144 137.001ZM931.276 138.422C931.826 138.377 932.235 137.893 932.189 137.343C932.143 136.792 931.66 136.383 931.11 136.429L931.276 138.422ZM937.126 136C936.574 136.033 936.154 136.506 936.187 137.058C936.22 137.609 936.693 138.029 937.244 137.996L937.126 136ZM943.177 137.71C943.729 137.69 944.16 137.226 944.14 136.674C944.119 136.122 943.655 135.691 943.103 135.712L943.177 137.71ZM949.124 135.554C948.572 135.563 948.131 136.017 948.139 136.57C948.148 137.122 948.603 137.563 949.155 137.554L949.124 135.554ZM955.104 137.523C955.656 137.526 956.106 137.08 956.109 136.528C956.112 135.976 955.666 135.526 955.114 135.523L955.104 137.523ZM961.129 135.613C960.577 135.599 960.118 136.036 960.105 136.588C960.091 137.14 960.528 137.598 961.08 137.612L961.129 135.613ZM967.033 137.814C967.584 137.838 968.051 137.41 968.075 136.859C968.099 136.307 967.671 135.84 967.119 135.816L967.033 137.814ZM973.121 136.131C972.57 136.097 972.096 136.516 972.062 137.067C972.028 137.619 972.448 138.093 972.999 138.127L973.121 136.131ZM978.946 138.543C979.496 138.586 979.978 138.175 980.021 137.625C980.064 137.074 979.653 136.593 979.102 136.549L978.946 138.543ZM985.087 137.07C984.537 137.018 984.049 137.421 983.996 137.971C983.944 138.52 984.347 139.009 984.897 139.061L985.087 137.07ZM990.83 139.674C991.379 139.736 991.873 139.34 991.934 138.791C991.996 138.242 991.6 137.748 991.051 137.687L990.83 139.674ZM997.013 138.398C996.466 138.328 995.965 138.716 995.895 139.264C995.826 139.812 996.214 140.312 996.761 140.382L997.013 138.398ZM1002.67 141.178C1003.22 141.255 1003.73 140.875 1003.81 140.328C1003.88 139.782 1003.5 139.275 1002.96 139.198L1002.67 141.178ZM1008.89 140.085C1008.35 140 1007.84 140.373 1007.75 140.918C1007.66 141.464 1008.04 141.976 1008.58 142.061L1008.89 140.085ZM1014.47 143.027C1015.02 143.12 1015.53 142.754 1015.63 142.21C1015.72 141.666 1015.35 141.149 1014.81 141.056L1014.47 143.027ZM1020.72 142.108C1020.18 142.008 1019.65 142.366 1019.55 142.91C1019.45 143.453 1019.81 143.974 1020.35 144.075L1020.72 142.108ZM1026.22 145.2C1026.76 145.308 1027.29 144.956 1027.39 144.414C1027.5 143.872 1027.15 143.346 1026.61 143.238L1026.22 145.2ZM1032.48 144.446C1031.94 144.331 1031.41 144.676 1031.3 145.216C1031.18 145.757 1031.53 146.288 1032.07 146.402L1032.48 144.446ZM1037.9 147.677C1038.44 147.799 1038.98 147.46 1039.1 146.922C1039.22 146.383 1038.88 145.848 1038.34 145.726L1037.9 147.677ZM1044.19 147.08C1043.65 146.952 1043.11 147.284 1042.98 147.821C1042.85 148.358 1043.19 148.898 1043.72 149.026L1044.19 147.08ZM1049.52 150.443C1050.06 150.578 1050.6 150.252 1050.74 149.717C1050.87 149.181 1050.55 148.638 1050.01 148.503L1049.52 150.443ZM1055.82 149.996C1055.29 149.856 1054.74 150.175 1054.6 150.709C1054.46 151.243 1054.78 151.79 1055.31 151.93L1055.82 149.996ZM1061.08 153.484C1061.61 153.631 1062.16 153.319 1062.31 152.786C1062.46 152.254 1062.14 151.703 1061.61 151.556L1061.08 153.484ZM1067.38 153.182C1066.85 153.03 1066.3 153.336 1066.14 153.867C1065.99 154.397 1066.3 154.952 1066.83 155.104L1067.38 153.182ZM1072.56 156.79C1073.09 156.948 1073.65 156.648 1073.81 156.119C1073.97 155.59 1073.67 155.033 1073.14 154.874L1072.56 156.79ZM1078.87 156.628C1078.34 156.464 1077.78 156.758 1077.61 157.285C1077.45 157.812 1077.74 158.373 1078.27 158.538L1078.87 156.628ZM1083.97 160.35C1084.49 160.521 1085.06 160.233 1085.23 159.707C1085.4 159.182 1085.11 158.618 1084.58 158.448L1083.97 160.35ZM1090.27 160.327C1089.75 160.151 1089.18 160.432 1089.01 160.956C1088.83 161.479 1089.11 162.046 1089.64 162.222L1090.27 160.327ZM1095.29 164.16C1095.82 164.341 1096.39 164.066 1096.57 163.544C1096.75 163.023 1096.47 162.453 1095.95 162.271L1095.29 164.16ZM1101.6 164.272C1101.08 164.085 1100.5 164.354 1100.32 164.874C1100.13 165.393 1100.4 165.966 1100.92 166.154L1101.6 164.272ZM1106.54 168.213C1107.05 168.406 1107.63 168.143 1107.82 167.626C1108.01 167.108 1107.75 166.532 1107.23 166.339L1106.54 168.213ZM1112.83 168.461C1112.32 168.263 1111.74 168.52 1111.54 169.035C1111.34 169.55 1111.6 170.129 1112.11 170.328L1112.83 168.461ZM1117.69 172.509C1118.2 172.713 1118.78 172.462 1118.98 171.949C1119.19 171.436 1118.94 170.854 1118.43 170.65L1117.69 172.509ZM1123.98 172.893C1123.47 172.684 1122.88 172.928 1122.67 173.439C1122.46 173.95 1122.71 174.534 1123.22 174.744L1123.98 172.893ZM1128.74 177.046C1129.25 177.261 1129.84 177.024 1130.05 176.515C1130.27 176.006 1130.03 175.42 1129.52 175.204L1128.74 177.046ZM1135.02 177.57C1134.52 177.349 1133.93 177.58 1133.7 178.086C1133.48 178.592 1133.71 179.182 1134.22 179.403L1135.02 177.57ZM1139.69 181.827C1140.19 182.054 1140.78 181.829 1141.01 181.326C1141.24 180.822 1141.01 180.23 1140.51 180.003L1139.69 181.827ZM1145.96 182.495C1145.46 182.262 1144.86 182.48 1144.63 182.981C1144.4 183.482 1144.62 184.077 1145.12 184.309L1145.96 182.495ZM1150.52 186.857C1151.02 187.095 1151.62 186.884 1151.86 186.386C1152.1 185.888 1151.88 185.291 1151.39 185.052L1150.52 186.857ZM1156.78 187.676C1156.29 187.431 1155.69 187.635 1155.44 188.13C1155.2 188.625 1155.4 189.225 1155.9 189.469L1156.78 187.676ZM1161.23 192.142C1161.72 192.392 1162.32 192.196 1162.57 191.704C1162.82 191.212 1162.63 190.61 1162.14 190.359L1161.23 192.142ZM1167.48 193.122C1166.99 192.865 1166.38 193.053 1166.13 193.542C1165.87 194.031 1166.06 194.636 1166.55 194.893L1167.48 193.122ZM1171.79 197.693C1172.27 197.956 1172.88 197.776 1173.15 197.291C1173.41 196.805 1173.23 196.198 1172.74 195.935L1171.79 197.693ZM1178.02 198.849C1177.54 198.579 1176.93 198.75 1176.66 199.232C1176.39 199.713 1176.56 200.323 1177.04 200.593L1178.02 198.849ZM1182.21 203.541C1182.69 203.818 1183.3 203.656 1183.58 203.178C1183.85 202.7 1183.69 202.088 1183.21 201.811L1182.21 203.541ZM1188.4 204.874C1187.92 204.589 1187.31 204.742 1187.02 205.215C1186.74 205.688 1186.89 206.303 1187.36 206.587L1188.4 204.874ZM1192.52 209.681C1193 209.956 1193.61 209.789 1193.89 209.31C1194.16 208.831 1194 208.22 1193.52 207.945L1192.52 209.681ZM1198.66 210.683C1198.16 210.439 1197.56 210.642 1197.32 211.138C1197.07 211.633 1197.28 212.232 1197.77 212.477L1198.66 210.683ZM1203.24 214.944C1203.75 215.154 1204.33 214.91 1204.54 214.399C1204.75 213.888 1204.51 213.303 1204 213.094L1203.24 214.944ZM1209.4 215.084C1208.88 214.913 1208.31 215.2 1208.14 215.725C1207.97 216.25 1208.26 216.814 1208.78 216.986L1209.4 215.084ZM1214.59 218.628C1215.13 218.756 1215.67 218.424 1215.8 217.887C1215.93 217.35 1215.59 216.811 1215.06 216.682L1214.59 218.628ZM1220.75 217.791C1220.2 217.709 1219.69 218.084 1219.61 218.631C1219.53 219.177 1219.9 219.686 1220.45 219.769L1220.75 217.791ZM1226.4 220.402C1226.95 220.436 1227.42 220.017 1227.46 219.466C1227.49 218.915 1227.07 218.44 1226.52 218.406L1226.4 220.402ZM1232.34 218.509C1231.79 218.524 1231.35 218.983 1231.37 219.535C1231.38 220.088 1231.84 220.523 1232.39 220.508L1232.34 218.509ZM1238.36 220.087C1238.91 220.025 1239.3 219.529 1239.24 218.98C1239.18 218.432 1238.68 218.038 1238.13 218.1L1238.36 220.087ZM1243.88 217.194C1243.34 217.302 1242.99 217.829 1243.1 218.371C1243.21 218.912 1243.74 219.263 1244.28 219.155L1243.88 217.194ZM1250.08 217.747C1250.61 217.596 1250.92 217.043 1250.77 216.512C1250.62 215.981 1250.06 215.673 1249.53 215.824L1250.08 217.747ZM1255.08 214.02C1254.56 214.21 1254.3 214.784 1254.49 215.303C1254.68 215.821 1255.25 216.088 1255.77 215.899L1255.08 214.02ZM1261.31 213.658C1261.81 213.434 1262.04 212.844 1261.82 212.339C1261.59 211.834 1261 211.606 1260.5 211.83L1261.31 213.658ZM1265.75 209.307C1265.26 209.561 1265.07 210.164 1265.32 210.654C1265.57 211.145 1266.18 211.337 1266.67 211.083L1265.75 209.307ZM1271.91 208.184C1272.38 207.904 1272.54 207.291 1272.26 206.815C1271.98 206.339 1271.37 206.18 1270.89 206.461L1271.91 208.184ZM1275.84 203.378C1275.38 203.681 1275.25 204.301 1275.56 204.762C1275.86 205.224 1276.48 205.353 1276.94 205.05L1275.84 203.378ZM1281.84 201.675C1282.29 201.353 1282.39 200.728 1282.07 200.279C1281.75 199.831 1281.12 199.73 1280.68 200.052L1281.84 201.675ZM1285.38 196.52C1284.94 196.861 1284.87 197.489 1285.21 197.924C1285.55 198.359 1286.17 198.437 1286.61 198.097L1285.38 196.52ZM1291.21 194.371C1291.63 194.016 1291.69 193.385 1291.33 192.962C1290.98 192.539 1290.35 192.484 1289.92 192.839L1291.21 194.371ZM1294.4 188.964C1293.98 189.332 1293.95 189.964 1294.32 190.376C1294.68 190.788 1295.32 190.823 1295.73 190.455L1294.4 188.964ZM1300.07 186.467C1300.47 186.088 1300.49 185.455 1300.11 185.053C1299.73 184.652 1299.09 184.634 1298.69 185.013L1300.07 186.467ZM1302.94 180.894C1302.55 181.283 1302.55 181.916 1302.94 182.308C1303.33 182.7 1303.96 182.701 1304.35 182.312L1302.94 180.894ZM1308.48 178.108C1308.87 177.709 1308.85 177.076 1308.46 176.694C1308.06 176.311 1307.43 176.323 1307.04 176.721L1308.48 178.108ZM1311.1 172.416C1310.72 172.822 1310.75 173.454 1311.15 173.829C1311.56 174.204 1312.19 174.178 1312.57 173.772L1311.1 172.416ZM1316.53 169.398C1316.89 168.985 1316.86 168.353 1316.45 167.986C1316.03 167.619 1315.4 167.656 1315.03 168.069L1316.53 169.398ZM1318.92 163.617C1318.56 164.036 1318.61 164.667 1319.03 165.027C1319.45 165.387 1320.08 165.34 1320.44 164.921L1318.92 163.617ZM1324.25 160.416C1324.61 159.992 1324.55 159.361 1324.13 159.008C1323.7 158.654 1323.07 158.711 1322.72 159.135L1324.25 160.416ZM1326.47 154.566C1326.13 154.995 1326.19 155.624 1326.62 155.972C1327.05 156.32 1327.68 156.254 1328.03 155.825L1326.47 154.566ZM1331.72 151.219C1332.06 150.786 1331.98 150.157 1331.55 149.814C1331.12 149.472 1330.49 149.546 1330.15 149.979L1331.72 151.219ZM1333.79 145.315C1333.45 145.753 1333.53 146.381 1333.97 146.718C1334.41 147.056 1335.04 146.975 1335.37 146.538L1333.79 145.315ZM1338.95 141.852C1339.29 141.412 1339.2 140.785 1338.76 140.451C1338.32 140.118 1337.69 140.205 1337.36 140.646L1338.95 141.852ZM1340.91 135.908C1340.58 136.351 1340.67 136.978 1341.12 137.307C1341.56 137.636 1342.19 137.543 1342.52 137.1L1340.91 135.908ZM1346.01 132.351C1346.34 131.905 1346.24 131.279 1345.79 130.953C1345.35 130.628 1344.72 130.726 1344.4 131.172L1346.01 132.351ZM1347.86 126.382C1347.54 126.83 1347.64 127.455 1348.09 127.777C1348.54 128.1 1349.17 127.997 1349.49 127.549L1347.86 126.382ZM1352.92 122.744C1353.24 122.294 1353.13 121.669 1352.68 121.35C1352.23 121.03 1351.61 121.137 1351.29 121.587L1352.92 122.744ZM1354.69 116.758C1354.37 117.211 1354.48 117.834 1354.94 118.151C1355.39 118.468 1356.01 118.358 1356.33 117.906L1354.69 116.758ZM1359.71 113.057C1360.02 112.603 1359.91 111.98 1359.46 111.666C1359 111.351 1358.38 111.464 1358.06 111.918L1359.71 113.057ZM1361.42 107.059C1361.11 107.514 1361.22 108.136 1361.68 108.449C1362.13 108.762 1362.75 108.647 1363.07 108.191L1361.42 107.059ZM1366.41 103.313C1366.72 102.856 1366.6 102.234 1366.14 101.923C1365.69 101.612 1365.07 101.729 1364.76 102.185L1366.41 103.313ZM1368.08 97.3036C1367.77 97.7606 1367.88 98.3825 1368.34 98.6925C1368.8 99.0025 1369.42 98.8833 1369.73 98.4262L1368.08 97.3036ZM1373.04 93.5304C1373.35 93.0726 1373.23 92.451 1372.77 92.142C1372.32 91.8329 1371.7 91.9535 1371.39 92.4112L1373.04 93.5304ZM1374.69 87.5127C1374.38 87.9709 1374.5 88.5923 1374.96 88.9007C1375.42 89.2091 1376.04 89.0877 1376.35 88.6296L1374.69 87.5127ZM1379.64 83.7296C1379.95 83.2712 1379.83 82.6499 1379.37 82.3418C1378.91 82.0337 1378.29 82.1555 1377.98 82.6139L1379.64 83.7296ZM1381.28 77.7049C1380.97 78.1633 1381.1 78.7846 1381.55 79.0927C1382.01 79.4008 1382.63 79.2789 1382.94 78.8206L1381.28 77.7049ZM1386.23 73.9288C1386.54 73.4707 1386.42 72.8493 1385.96 72.5409C1385.5 72.2325 1384.88 72.3539 1384.57 72.8121L1386.23 73.9288ZM1387.88 67.8991C1387.57 68.3569 1387.7 68.9785 1388.15 69.2875C1388.61 69.5965 1389.23 69.476 1389.54 69.0183L1387.88 67.8991ZM1392.84 64.145C1393.15 63.688 1393.03 63.0661 1392.57 62.7561C1392.12 62.4461 1391.49 62.5653 1391.18 63.0223L1392.84 64.145ZM1394.52 58.115C1394.21 58.5712 1394.33 59.1934 1394.78 59.5047C1395.24 59.8161 1395.86 59.6988 1396.17 59.2426L1394.52 58.115ZM1399.5 54.3917C1399.81 53.9367 1399.7 53.3141 1399.24 53.001C1398.79 52.6879 1398.16 52.8028 1397.85 53.2578L1399.5 54.3917ZM1401.23 48.374C1400.91 48.8274 1401.03 49.4506 1401.48 49.7659C1401.93 50.0811 1402.56 49.9691 1402.87 49.5157L1401.23 48.374ZM1406.24 44.6992C1406.56 44.2476 1406.45 43.6238 1406 43.3059C1405.55 42.9881 1404.92 43.0965 1404.6 43.5482L1406.24 44.6992ZM1408.04 38.7006C1407.72 39.15 1407.82 39.7746 1408.27 40.0955C1408.72 40.4164 1409.35 40.3122 1409.67 39.8628L1408.04 38.7006ZM1413.1 35.0975C1413.42 34.6506 1413.32 34.0253 1412.88 33.7008C1412.43 33.3763 1411.8 33.4755 1411.48 33.9224L1413.1 35.0975ZM1415 29.1251C1414.67 29.569 1414.76 30.1952 1415.2 30.5239C1415.65 30.8526 1416.28 30.7592 1416.6 30.3154L1415 29.1251ZM1420.12 25.6245C1420.45 25.1843 1420.36 24.5571 1419.92 24.2236C1419.48 23.8902 1418.85 23.9768 1418.52 24.4171L1420.12 25.6245ZM1422.15 19.6873C1421.81 20.1233 1421.89 20.7516 1422.32 21.0906C1422.76 21.4295 1423.39 21.3508 1423.73 20.9148L1422.15 19.6873ZM1427.35 16.3277C1427.69 15.8965 1427.62 15.2672 1427.19 14.922C1426.76 14.5768 1426.13 14.6465 1425.78 15.0776L1427.35 16.3277ZM1429.56 10.4426C1429.21 10.8678 1429.27 11.4982 1429.69 11.8506C1430.12 12.203 1430.75 12.144 1431.1 11.7188L1429.56 10.4426ZM1434.88 7.24422C1435.24 6.82589 1435.19 6.19446 1434.77 5.83388C1434.36 5.4733 1433.72 5.52012 1433.36 5.93845L1434.88 7.24422ZM1437.3 1.4726C1436.93 1.88264 1436.96 2.51497 1437.37 2.88495C1437.78 3.25494 1438.42 3.22247 1438.79 2.81243L1437.3 1.4726ZM0 653L0.709556 653.705C1.44293 652.966 2.16911 652.229 2.88816 651.492L2.17263 650.794L1.4571 650.095C0.742022 650.827 0.0198343 651.561 -0.709556 652.295L0 653ZM6.39032 646.399L7.11776 647.085C8.49963 645.62 9.85372 644.159 11.1807 642.702L10.4415 642.029L9.7022 641.356C8.38303 642.804 7.03683 644.256 5.66288 645.713L6.39032 646.399ZM14.4785 637.515L15.23 638.175C16.5834 636.634 17.907 635.097 19.2016 633.565L18.4378 632.919L17.674 632.274C16.3875 633.796 15.0722 635.323 13.727 636.856L14.4785 637.515ZM22.2233 628.352L22.9993 628.983C24.3042 627.378 25.5778 625.778 26.8211 624.184L26.0325 623.569L25.2439 622.954C24.0089 624.537 22.7437 626.127 21.4473 627.722L22.2233 628.352ZM29.6842 618.786L30.4852 619.385C31.6989 617.761 32.8819 616.143 34.0351 614.53L33.2217 613.949L32.4084 613.367C31.2633 614.968 30.0886 616.575 28.8832 618.187L29.6842 618.786ZM36.7084 608.961L37.5341 609.525C38.6692 607.863 39.7733 606.208 40.8478 604.559L40.01 604.013L39.1722 603.467C38.1056 605.104 37.0095 606.747 35.8826 608.397L36.7084 608.961ZM43.2845 598.863L44.1344 599.389C45.2036 597.665 46.2412 595.948 47.2486 594.238L46.387 593.73L45.5255 593.223C44.5257 594.919 43.4958 596.624 42.4345 598.336L43.2845 598.863ZM49.3973 588.486L50.2702 588.974C51.2655 587.193 52.229 585.421 53.1623 583.657L52.2784 583.189L51.3946 582.722C50.4683 584.472 49.5122 586.231 48.5244 587.998L49.3973 588.486ZM55.0326 577.839L55.9269 578.286C56.8423 576.457 57.7265 574.637 58.5812 572.828L57.677 572.401L56.7728 571.974C55.9244 573.77 55.0469 575.576 54.1383 577.391L55.0326 577.839ZM60.1825 566.94L61.096 567.347C61.9288 565.478 62.7315 563.619 63.5065 561.772L62.5844 561.386L61.6623 560.999C60.8928 562.832 60.0958 564.677 59.2691 566.533L60.1825 566.94ZM64.852 555.818L65.782 556.186C66.533 554.285 67.2562 552.398 67.9541 550.523L67.0169 550.174L66.0797 549.825C65.3863 551.688 64.6679 553.563 63.922 555.45L64.852 555.818ZM69.0643 544.509L70.0078 544.84C70.6823 542.919 71.3321 541.011 71.9601 539.117L71.0109 538.803L70.0617 538.488C69.4372 540.371 68.7911 542.268 68.1207 544.178L69.0643 544.509ZM72.8664 533.055L73.8204 533.354C74.4284 531.42 75.0159 529.502 75.5859 527.6L74.628 527.313L73.6701 527.026C73.1024 528.92 72.5175 530.83 71.9124 532.755L72.8664 533.055ZM76.3336 521.498L77.2947 521.774C77.8536 519.83 78.3971 517.903 78.9287 515.994L77.9653 515.725L77.002 515.457C76.4716 517.362 75.9296 519.283 75.3725 521.221L76.3336 521.498ZM79.5733 509.884L80.5381 510.148C81.0725 508.188 81.5979 506.248 82.1179 504.329L81.1527 504.067L80.1875 503.806C79.6674 505.725 79.1425 507.664 78.6086 509.621L79.5733 509.884ZM82.7298 498.265L83.6943 498.529C84.232 496.563 84.7683 494.62 85.3079 492.699L84.3452 492.429L83.3824 492.158C82.8412 494.085 82.3036 496.033 81.7652 498.002L82.7298 498.265ZM86.0051 486.644L86.9645 486.926C87.5352 484.984 88.1143 483.068 88.7069 481.177L87.7526 480.878L86.7984 480.579C86.2018 482.483 85.6192 484.411 85.0457 486.362L86.0051 486.644ZM89.6273 475.129L90.574 475.451C91.2233 473.542 91.8924 471.662 92.5872 469.809L91.6509 469.458L90.7146 469.107C90.0118 470.981 89.3357 472.881 88.6805 474.807L89.6273 475.129ZM93.8685 463.863L94.7906 464.25C95.5693 462.393 96.3813 460.568 97.2329 458.773L96.3295 458.345L95.4261 457.916C94.5603 459.74 93.7359 461.594 92.9463 463.476L93.8685 463.863ZM99.0536 452.971L99.9329 453.447C100.882 451.695 101.878 449.976 102.927 448.289L102.078 447.76L101.229 447.232C100.158 448.955 99.1415 450.709 98.1744 452.495L99.0536 452.971ZM105.428 442.746L106.24 443.329C107.389 441.727 108.597 440.157 109.869 438.619L109.098 437.981L108.328 437.344C107.026 438.918 105.79 440.525 104.615 442.163L105.428 442.746ZM113.102 433.477L113.825 434.167C115.184 432.743 116.61 431.35 118.108 429.986L117.434 429.247L116.761 428.507C115.229 429.902 113.769 431.329 112.378 432.787L113.102 433.477ZM121.992 425.372L122.614 426.155C124.142 424.942 125.737 423.755 127.405 422.595L126.834 421.774L126.263 420.953C124.561 422.137 122.932 423.349 121.37 424.589L121.992 425.372ZM131.908 418.466L132.429 419.319C134.074 418.314 135.782 417.331 137.557 416.371L137.081 415.491L136.606 414.612C134.8 415.588 133.062 416.589 131.386 417.613L131.908 418.466ZM142.539 412.713L142.971 413.615C144.698 412.788 146.483 411.979 148.327 411.19L147.934 410.27L147.541 409.351C145.671 410.151 143.86 410.971 142.107 411.811L142.539 412.713ZM153.605 407.977L153.962 408.911C155.757 408.225 157.604 407.556 159.505 406.902L159.18 405.956L158.855 405.011C156.933 405.671 155.065 406.349 153.248 407.043L153.605 407.977ZM165.031 404.051L165.325 405.006C167.155 404.442 169.03 403.891 170.954 403.354L170.685 402.39L170.416 401.427C168.475 401.969 166.583 402.525 164.736 403.095L165.031 404.051ZM176.625 400.814L176.869 401.784C178.74 401.313 180.653 400.853 182.61 400.406L182.387 399.431L182.164 398.456C180.193 398.907 178.266 399.37 176.38 399.845L176.625 400.814ZM188.292 398.145L188.495 399.124C190.444 398.72 192.434 398.327 194.465 397.945L194.28 396.962L194.095 395.98C192.052 396.364 190.05 396.759 188.089 397.166L188.292 398.145ZM200.098 395.919L200.266 396.905C202.237 396.568 204.245 396.241 206.29 395.924L206.137 394.935L205.984 393.947C203.928 394.266 201.91 394.595 199.929 394.933L200.098 395.919ZM212.093 394.055L212.232 395.045C214.159 394.774 216.117 394.511 218.108 394.256L217.981 393.264L217.854 392.272C215.855 392.528 213.888 392.792 211.953 393.065L212.093 394.055ZM224.065 392.524L224.18 393.517C225.208 393.398 226.245 393.281 227.29 393.167L227.181 392.173L227.072 391.179C226.023 391.294 224.982 391.411 223.95 391.531L224.065 392.524ZM227.181 392.173L227.29 393.167C228.268 393.059 229.246 392.961 230.226 392.873L230.135 391.877L230.045 390.881C229.054 390.971 228.062 391.07 227.072 391.179L227.181 392.173ZM236.055 391.454L236.108 392.452C238.071 392.349 240.037 392.282 242.005 392.25L241.989 391.25L241.973 390.251C239.981 390.283 237.991 390.35 236.003 390.455L236.055 391.454ZM247.912 391.26L247.893 392.26C249.858 392.298 251.825 392.369 253.794 392.474L253.847 391.475L253.9 390.477C251.909 390.371 249.919 390.298 247.931 390.26L247.912 391.26ZM259.765 391.888L259.679 392.884C261.632 393.052 263.587 393.251 265.543 393.48L265.66 392.487L265.776 391.494C263.8 391.262 261.824 391.061 259.851 390.891L259.765 391.888ZM271.565 393.27L271.419 394.259C273.353 394.545 275.288 394.859 277.226 395.201L277.399 394.216L277.573 393.231C275.618 392.886 273.664 392.569 271.711 392.281L271.565 393.27ZM283.233 395.326L283.033 396.306C284.961 396.699 286.889 397.119 288.82 397.564L289.044 396.59L289.269 395.616C287.323 395.167 285.377 394.743 283.433 394.347L283.233 395.326ZM294.79 397.988L294.542 398.957C296.451 399.445 298.361 399.957 300.273 400.492L300.543 399.53L300.812 398.567C298.887 398.027 296.962 397.511 295.038 397.019L294.79 397.988ZM306.229 401.188L305.939 402.145C307.817 402.713 309.695 403.303 311.575 403.914L311.884 402.963L312.193 402.012C310.301 401.397 308.41 400.803 306.519 400.23L306.229 401.188ZM317.545 404.861L317.218 405.806C319.065 406.445 320.913 407.102 322.762 407.778L323.105 406.839L323.448 405.899C321.589 405.22 319.73 404.559 317.871 403.916L317.545 404.861ZM328.666 408.923L328.308 409.857C330.15 410.565 331.993 411.289 333.836 412.031L334.209 411.103L334.582 410.175C332.729 409.43 330.877 408.701 329.025 407.99L328.666 408.923ZM339.676 413.347L339.29 414.269C341.108 415.031 342.927 415.807 344.747 416.598L345.146 415.681L345.544 414.764C343.717 413.97 341.889 413.189 340.062 412.424L339.676 413.347ZM350.58 418.085L350.17 418.997C351.96 419.802 353.751 420.62 355.543 421.451L355.963 420.544L356.384 419.637C354.586 418.803 352.788 417.981 350.99 417.173L350.58 418.085ZM361.349 423.078L360.918 423.98C362.695 424.828 364.473 425.687 366.251 426.558L366.69 425.66L367.13 424.761C365.346 423.888 363.563 423.026 361.779 422.175L361.349 423.078ZM372 428.29L371.552 429.184C373.319 430.069 375.086 430.965 376.854 431.869L377.31 430.979L377.765 430.089C375.993 429.182 374.22 428.284 372.448 427.396L372 428.29ZM382.576 433.702L382.113 434.589C383.86 435.5 385.607 436.42 387.353 437.348L387.822 436.465L388.292 435.582C386.541 434.652 384.79 433.729 383.039 432.815L382.576 433.702ZM393.068 439.274L392.593 440.154C394.328 441.09 396.062 442.033 397.796 442.982L398.277 442.105L398.757 441.228C397.019 440.276 395.281 439.332 393.543 438.394L393.068 439.274ZM403.472 444.967L402.987 445.842C404.717 446.801 406.447 447.766 408.177 448.736L408.666 447.864L409.155 446.991C407.423 446.02 405.69 445.054 403.957 444.093L403.472 444.967ZM413.832 450.775L413.34 451.645C415.058 452.618 416.776 453.596 418.494 454.577L418.99 453.709L419.486 452.84C417.766 451.858 416.046 450.879 414.325 449.905L413.832 450.775ZM424.146 456.664L423.647 457.531C425.36 458.516 427.072 459.504 428.784 460.495L429.285 459.629L429.786 458.764C428.072 457.772 426.359 456.783 424.644 455.797L424.146 456.664ZM434.418 462.608L433.916 463.472C435.626 464.466 437.335 465.463 439.044 466.46L439.548 465.596L440.052 464.732C438.343 463.735 436.632 462.738 434.921 461.743L434.418 462.608ZM444.676 468.592L444.171 469.455C445.879 470.454 447.586 471.453 449.293 472.453L449.798 471.59L450.304 470.727C448.597 469.727 446.889 468.728 445.18 467.728L444.676 468.592ZM454.917 474.587L454.411 475.45C456.122 476.451 457.832 477.452 459.542 478.452L460.046 477.588L460.551 476.725C458.842 475.726 457.133 474.725 455.422 473.724L454.917 474.587ZM465.172 480.582L464.669 481.446C466.377 482.442 468.084 483.436 469.79 484.428L470.293 483.563L470.795 482.699C469.09 481.708 467.384 480.714 465.676 479.718L465.172 480.582ZM475.44 486.547L474.939 487.412C476.655 488.405 478.371 489.393 480.085 490.378L480.583 489.511L481.081 488.644C479.369 487.66 477.655 486.672 475.94 485.681L475.44 486.547ZM485.719 492.451L485.224 493.319C486.953 494.305 488.681 495.286 490.408 496.261L490.9 495.391L491.392 494.52C489.667 493.546 487.941 492.566 486.214 491.582L485.719 492.451ZM496.073 498.298L495.586 499.171C497.312 500.136 499.037 501.095 500.76 502.047L501.244 501.171L501.727 500.296C500.007 499.346 498.285 498.389 496.561 497.425L496.073 498.298ZM506.471 504.038L505.992 504.917C507.735 505.866 509.476 506.807 511.216 507.74L511.689 506.859L512.161 505.977C510.425 505.047 508.688 504.107 506.949 503.16L506.471 504.038ZM516.914 509.637L516.447 510.522C518.213 511.453 519.977 512.374 521.74 513.285L522.199 512.397L522.658 511.508C520.901 510.6 519.141 509.681 517.38 508.753L516.914 509.637ZM527.474 515.095L527.022 515.987C528.794 516.883 530.564 517.769 532.332 518.642L532.775 517.745L533.218 516.849C531.456 515.978 529.691 515.096 527.925 514.202L527.474 515.095ZM538.131 520.357L537.697 521.258C539.484 522.117 541.269 522.964 543.051 523.797L543.474 522.891L543.898 521.985C542.122 521.155 540.344 520.312 538.564 519.456L538.131 520.357ZM548.876 525.374L548.464 526.285C550.282 527.107 552.098 527.914 553.913 528.706L554.312 527.789L554.712 526.872C552.906 526.085 551.098 525.281 549.288 524.463L548.876 525.374ZM559.735 530.108L559.348 531.03C561.197 531.805 563.043 532.562 564.887 533.301L565.259 532.372L565.631 531.444C563.797 530.71 561.961 529.956 560.121 529.186L559.735 530.108ZM570.784 534.532L570.428 535.467C572.284 536.174 574.137 536.861 575.987 537.528L576.326 536.587L576.665 535.647C574.826 534.984 572.985 534.301 571.14 533.598L570.784 534.532ZM581.961 538.556L581.641 539.503C583.523 540.14 585.402 540.753 587.278 541.344L587.578 540.39L587.878 539.436C586.016 538.85 584.15 538.241 582.281 537.609L581.961 538.556ZM593.273 542.111L592.995 543.072C594.915 543.628 596.831 544.158 598.745 544.662L599 543.695L599.254 542.728C597.357 542.229 595.456 541.703 593.551 541.151L593.273 542.111ZM604.725 545.123L604.496 546.096C606.453 546.556 608.405 546.987 610.355 547.388L610.556 546.408L610.757 545.429C608.827 545.032 606.893 544.605 604.954 544.149L604.725 545.123ZM616.363 547.512L616.192 548.497C618.164 548.84 620.133 549.151 622.098 549.429L622.237 548.438L622.377 547.448C620.434 547.174 618.487 546.867 616.535 546.526L616.363 547.512ZM628.128 549.167L628.023 550.162C630.004 550.372 631.981 550.547 633.954 550.684L634.023 549.686L634.092 548.688C632.144 548.553 630.191 548.381 628.234 548.173L628.128 549.167ZM639.965 549.985L639.935 550.984C641.924 551.045 643.908 551.067 645.889 551.048L645.879 550.048L645.869 549.048C643.917 549.067 641.959 549.046 639.996 548.985L639.965 549.985ZM651.82 549.865L651.872 550.864C653.864 550.76 655.85 550.613 657.831 550.421L657.735 549.426L657.639 548.431C655.688 548.619 653.731 548.764 651.768 548.866L651.82 549.865ZM663.62 548.723L663.761 549.713C665.733 549.431 667.699 549.104 669.66 548.729L669.473 547.747L669.285 546.765C667.355 547.133 665.419 547.456 663.478 547.733L663.62 548.723ZM675.274 546.496L675.508 547.469C677.434 547.005 679.356 546.494 681.271 545.934L680.991 544.974L680.711 544.014C678.826 544.565 676.935 545.068 675.04 545.524L675.274 546.496ZM686.675 543.163L687.001 544.108C688.861 543.466 690.715 542.776 692.563 542.038L692.192 541.109L691.821 540.18C690.002 540.907 688.178 541.586 686.348 542.218L686.675 543.163ZM697.665 538.77L698.08 539.68C698.996 539.263 699.911 538.833 700.825 538.391L700.389 537.491L699.953 536.591C699.054 537.026 698.153 537.449 697.251 537.86L697.665 538.77ZM700.389 537.491L700.825 538.391C701.742 537.947 702.647 537.472 703.539 536.967L703.047 536.097L702.555 535.226C701.699 535.71 700.832 536.165 699.953 536.591L700.389 537.491ZM708.134 532.799L708.726 533.605C710.349 532.413 711.928 531.117 713.466 529.721L712.794 528.981L712.122 528.24C710.632 529.592 709.106 530.844 707.542 531.994L708.134 532.799ZM717.063 524.735L717.798 525.413C719.166 523.93 720.5 522.363 721.8 520.718L721.016 520.098L720.231 519.478C718.96 521.086 717.659 522.614 716.328 524.057L717.063 524.735ZM724.585 515.268L725.407 515.837C726.543 514.196 727.654 512.491 728.739 510.727L727.888 510.203L727.036 509.679C725.968 511.415 724.877 513.089 723.763 514.698L724.585 515.268ZM730.95 504.951L731.825 505.435C732.784 503.701 733.724 501.919 734.645 500.09L733.751 499.64L732.858 499.19C731.948 500.998 731.021 502.757 730.075 504.467L730.95 504.951ZM736.406 494.129L737.314 494.548C738.141 492.755 738.952 490.923 739.749 489.055L738.829 488.663L737.909 488.27C737.12 490.122 736.316 491.936 735.497 493.71L736.406 494.129ZM741.157 482.999L742.087 483.367C742.814 481.531 743.53 479.663 744.233 477.766L743.296 477.418L742.358 477.07C741.659 478.955 740.949 480.809 740.227 482.63L741.157 482.999ZM745.363 471.668L746.307 471.997C746.959 470.125 747.602 468.227 748.235 466.305L747.285 465.992L746.335 465.679C745.705 467.591 745.067 469.478 744.418 471.339L745.363 471.668ZM749.143 460.196L750.097 460.494C750.692 458.591 751.278 456.667 751.856 454.722L750.898 454.436L749.939 454.151C749.363 456.088 748.78 458.004 748.188 459.898L749.143 460.196ZM752.589 448.618L753.551 448.892C754.099 446.961 754.641 445.013 755.177 443.048L754.212 442.785L753.247 442.522C752.714 444.48 752.174 446.422 751.627 448.345L752.589 448.618ZM755.771 436.957L756.738 437.211C757.25 435.257 757.757 433.289 758.259 431.307L757.29 431.061L756.32 430.816C755.82 432.793 755.314 434.756 754.803 436.703L755.771 436.957ZM758.743 425.229L759.714 425.467C760.195 423.508 760.671 421.536 761.143 419.553L760.171 419.322L759.198 419.09C758.726 421.069 758.251 423.036 757.772 424.991L758.743 425.229ZM761.551 413.45L762.525 413.676C762.979 411.719 763.43 409.752 763.878 407.775L762.903 407.554L761.927 407.333C761.48 409.306 761.03 411.27 760.577 413.224L761.551 413.45ZM764.231 401.634L765.207 401.851C765.641 399.895 766.073 397.93 766.503 395.959L765.526 395.746L764.549 395.533C764.12 397.502 763.688 399.464 763.254 401.418L764.231 401.634ZM766.81 389.815L767.788 390.025C768.21 388.062 768.63 386.092 769.049 384.117L768.071 383.91L767.093 383.702C766.674 385.675 766.254 387.643 765.832 389.605L766.81 389.815ZM769.32 377.992L770.299 378.198C770.714 376.224 771.127 374.246 771.541 372.264L770.562 372.06L769.583 371.856C769.17 373.836 768.756 375.814 768.342 377.786L769.32 377.992ZM771.792 366.147L772.771 366.351C773.181 364.377 773.591 362.4 774.001 360.422L773.022 360.219L772.042 360.016C771.633 361.994 771.223 363.97 770.813 365.944L771.792 366.147ZM774.249 354.295L775.228 354.498C775.637 352.525 776.047 350.551 776.457 348.577L775.478 348.374L774.499 348.17C774.088 350.145 773.679 352.119 773.27 354.092L774.249 354.295ZM776.713 342.451L777.691 342.655C778.104 340.68 778.518 338.706 778.934 336.733L777.955 336.527L776.977 336.321C776.561 338.295 776.147 340.27 775.734 342.246L776.713 342.451ZM779.208 330.612L780.186 330.821C780.606 328.846 781.029 326.874 781.453 324.905L780.476 324.694L779.498 324.484C779.073 326.454 778.65 328.428 778.23 330.404L779.208 330.612ZM781.76 318.779L782.737 318.993C783.168 317.026 783.601 315.064 784.037 313.106L783.061 312.888L782.085 312.671C781.648 314.631 781.215 316.596 780.784 318.565L781.76 318.779ZM784.394 306.967L785.369 307.189C785.816 305.221 786.267 303.26 786.721 301.305L785.747 301.078L784.773 300.852C784.318 302.81 783.866 304.775 783.418 306.745L784.394 306.967ZM787.132 295.191L788.105 295.423C788.575 293.453 789.048 291.49 789.527 289.537L788.555 289.299L787.584 289.061C787.105 291.019 786.63 292.985 786.16 294.959L787.132 295.191ZM790.006 283.459L790.976 283.703C791.473 281.731 791.976 279.769 792.484 277.818L791.516 277.566L790.549 277.314C790.039 279.27 789.535 281.237 789.037 283.214L790.006 283.459ZM793.062 271.731L794.028 271.991C794.555 270.036 795.088 268.094 795.627 266.165L794.664 265.895L793.701 265.626C793.16 267.562 792.625 269.51 792.097 271.471L793.062 271.731ZM796.328 260.066L797.288 260.345C797.85 258.413 798.42 256.496 798.997 254.595L798.04 254.304L797.083 254.014C796.504 255.923 795.932 257.847 795.367 259.786L796.328 260.066ZM799.847 248.484L800.8 248.787C801.41 246.869 802.028 244.968 802.655 243.086L801.706 242.77L800.757 242.454C800.127 244.345 799.506 246.254 798.894 248.182L799.847 248.484ZM803.675 237.01L804.619 237.341C805.288 235.434 805.967 233.548 806.657 231.685L805.719 231.338L804.782 230.99C804.088 232.865 803.404 234.761 802.732 236.679L803.675 237.01ZM807.878 225.674L808.809 226.04C809.55 224.151 810.304 222.288 811.07 220.453L810.148 220.067L809.225 219.682C808.453 221.531 807.694 223.407 806.947 225.309L807.878 225.674ZM812.54 214.521L813.453 214.928C814.282 213.069 815.126 211.242 815.984 209.449L815.082 209.017L814.18 208.585C813.313 210.396 812.463 212.239 811.627 214.114L812.54 214.521ZM817.766 203.615L818.655 204.074C819.589 202.264 820.54 200.493 821.51 198.762L820.638 198.274L819.765 197.785C818.784 199.537 817.822 201.328 816.878 203.157L817.766 203.615ZM823.687 193.063L824.54 193.585C825.6 191.853 826.681 190.167 827.784 188.53L826.955 187.971L826.125 187.413C825.005 189.075 823.909 190.785 822.834 192.541L823.687 193.063ZM830.459 183.034L831.26 183.633C832.469 182.018 833.703 180.46 834.962 178.961L834.197 178.318L833.431 177.674C832.146 179.203 830.889 180.791 829.659 182.434L830.459 183.034ZM838.254 173.79L838.976 174.481C840.363 173.033 841.779 171.653 843.227 170.344L842.556 169.603L841.886 168.861C840.401 170.203 838.95 171.616 837.532 173.098L838.254 173.79ZM847.222 165.714L847.829 166.508C848.614 165.908 849.406 165.328 850.208 164.769L849.636 163.949L849.063 163.129C848.237 163.705 847.421 164.303 846.614 164.92L847.222 165.714ZM849.636 163.949L850.208 164.769C851.018 164.203 851.834 163.648 852.658 163.102L852.106 162.269L851.554 161.435C850.716 161.99 849.886 162.554 849.063 163.129L849.636 163.949ZM857.177 159.084L857.688 159.943C859.382 158.934 861.104 157.963 862.852 157.029L862.381 156.147L861.91 155.265C860.135 156.214 858.386 157.2 856.665 158.224L857.177 159.084ZM867.725 153.443L868.157 154.345C869.935 153.494 871.738 152.678 873.565 151.896L873.172 150.977L872.779 150.057C870.926 150.85 869.097 151.677 867.293 152.541L867.725 153.443ZM878.717 148.737L879.073 149.671C880.92 148.968 882.79 148.297 884.681 147.659L884.361 146.711L884.042 145.764C882.127 146.41 880.233 147.089 878.361 147.802L878.717 148.737ZM890.05 144.906L890.335 145.864C892.231 145.3 894.146 144.766 896.08 144.263L895.828 143.295L895.576 142.327C893.62 142.837 891.683 143.377 889.765 143.948L890.05 144.906ZM901.631 141.885L901.851 142.86C903.778 142.424 905.722 142.017 907.681 141.637L907.491 140.656L907.301 139.674C905.321 140.057 903.358 140.469 901.41 140.909L901.631 141.885ZM913.385 139.604L913.546 140.59C915.493 140.272 917.455 139.979 919.431 139.712L919.297 138.721L919.162 137.73C917.169 138 915.189 138.295 913.223 138.617L913.385 139.604ZM925.252 137.996L925.36 138.99C927.32 138.777 929.292 138.588 931.276 138.422L931.193 137.426L931.11 136.429C929.109 136.596 927.121 136.787 925.144 137.001L925.252 137.996ZM937.185 136.998L937.244 137.996C939.212 137.879 941.19 137.784 943.177 137.71L943.14 136.711L943.103 135.712C941.101 135.786 939.108 135.882 937.126 136L937.185 136.998ZM949.139 136.554L949.155 137.554C951.129 137.523 953.113 137.513 955.104 137.523L955.109 136.523L955.114 135.523C953.109 135.513 951.112 135.523 949.124 135.554L949.139 136.554ZM961.104 136.612L961.08 137.612C963.057 137.661 965.042 137.728 967.033 137.814L967.076 136.815L967.119 135.816C965.116 135.729 963.119 135.661 961.129 135.613L961.104 136.612ZM973.06 137.129L972.999 138.127C974.976 138.248 976.958 138.387 978.946 138.543L979.024 137.546L979.102 136.549C977.104 136.392 975.11 136.252 973.121 136.131L973.06 137.129ZM984.992 138.065L984.897 139.061C986.871 139.249 988.848 139.454 990.83 139.674L990.941 138.681L991.051 137.687C989.06 137.465 987.071 137.259 985.087 137.07L984.992 138.065ZM996.887 139.39L996.761 140.382C998.73 140.632 1000.7 140.897 1002.67 141.178L1002.82 140.188L1002.96 139.198C1000.97 138.916 998.992 138.649 997.013 138.398L996.887 139.39ZM1008.74 141.073L1008.58 142.061C1010.55 142.369 1012.51 142.691 1014.47 143.027L1014.64 142.041L1014.81 141.056C1012.84 140.718 1010.86 140.394 1008.89 140.085L1008.74 141.073ZM1020.54 143.092L1020.35 144.075C1022.31 144.436 1024.26 144.812 1026.22 145.2L1026.41 144.219L1026.61 143.238C1024.64 142.848 1022.68 142.471 1020.72 142.108L1020.54 143.092ZM1032.28 145.424L1032.07 146.402C1034.02 146.815 1035.96 147.24 1037.9 147.677L1038.12 146.702L1038.34 145.726C1036.39 145.287 1034.44 144.86 1032.48 144.446L1032.28 145.424ZM1043.96 148.053L1043.72 149.026C1045.66 149.486 1047.59 149.959 1049.52 150.443L1049.77 149.473L1050.01 148.503C1048.07 148.017 1046.13 147.543 1044.19 147.08L1043.96 148.053ZM1055.57 150.963L1055.31 151.93C1057.24 152.437 1059.16 152.956 1061.08 153.484L1061.34 152.52L1061.61 151.556C1059.68 151.025 1057.75 150.505 1055.82 149.996L1055.57 150.963ZM1067.1 154.143L1066.83 155.104C1068.74 155.656 1070.65 156.218 1072.56 156.79L1072.85 155.832L1073.14 154.874C1071.22 154.3 1069.3 153.736 1067.38 153.182L1067.1 154.143ZM1078.57 157.583L1078.27 158.538C1080.18 159.132 1082.07 159.736 1083.97 160.35L1084.28 159.399L1084.58 158.448C1082.68 157.832 1080.78 157.225 1078.87 156.628L1078.57 157.583ZM1089.95 161.275L1089.64 162.222C1091.53 162.859 1093.42 163.505 1095.29 164.16L1095.62 163.215L1095.95 162.271C1094.07 161.614 1092.17 160.966 1090.27 160.327L1089.95 161.275ZM1101.26 165.213L1100.92 166.154C1102.8 166.832 1104.67 167.518 1106.54 168.213L1106.88 167.276L1107.23 166.339C1105.36 165.642 1103.48 164.953 1101.6 164.272L1101.26 165.213ZM1112.47 169.394L1112.11 170.328C1113.98 171.047 1115.84 171.774 1117.69 172.509L1118.06 171.58L1118.43 170.65C1116.57 169.913 1114.71 169.183 1112.83 168.461L1112.47 169.394ZM1123.6 173.818L1123.22 174.744C1125.07 175.504 1126.91 176.271 1128.74 177.046L1129.13 176.125L1129.52 175.204C1127.68 174.427 1125.84 173.656 1123.98 172.893L1123.6 173.818ZM1134.62 178.486L1134.22 179.403C1136.06 180.204 1137.88 181.012 1139.69 181.827L1140.1 180.915L1140.51 180.003C1138.69 179.186 1136.86 178.374 1135.02 177.57L1134.62 178.486ZM1145.54 183.402L1145.12 184.309C1146.93 185.152 1148.74 186.002 1150.52 186.857L1150.95 185.954L1151.39 185.052C1149.59 184.194 1147.78 183.341 1145.96 182.495L1145.54 183.402ZM1156.34 188.572L1155.9 189.469C1157.69 190.355 1159.47 191.246 1161.23 192.142L1161.68 191.25L1162.14 190.359C1160.37 189.46 1158.58 188.565 1156.78 187.676L1156.34 188.572ZM1167.01 194.008L1166.55 194.893C1168.31 195.822 1170.06 196.755 1171.79 197.693L1172.27 196.814L1172.74 195.935C1171.01 194.993 1169.25 194.055 1167.48 193.122L1167.01 194.008ZM1177.53 199.721L1177.04 200.593C1178.79 201.572 1180.51 202.555 1182.21 203.541L1182.71 202.676L1183.21 201.811C1181.51 200.82 1179.78 199.833 1178.02 198.849L1177.53 199.721ZM1187.88 205.731L1187.36 206.587C1188.21 207.097 1189.05 207.607 1189.88 208.117L1190.41 207.265L1190.93 206.412C1190.09 205.898 1189.25 205.386 1188.4 204.874L1187.88 205.731ZM1190.41 207.265L1189.88 208.117C1190.77 208.657 1191.65 209.178 1192.52 209.681L1193.02 208.813L1193.52 207.945C1192.66 207.453 1191.79 206.942 1190.93 206.412L1190.41 207.265ZM1198.21 211.58L1197.77 212.477C1199.6 213.378 1201.42 214.2 1203.24 214.944L1203.62 214.019L1204 213.094C1202.22 212.368 1200.44 211.565 1198.66 210.683L1198.21 211.58ZM1209.09 216.035L1208.78 216.986C1210.73 217.621 1212.66 218.167 1214.59 218.628L1214.83 217.655L1215.06 216.682C1213.18 216.235 1211.3 215.703 1209.4 215.084L1209.09 216.035ZM1220.6 218.78L1220.45 219.769C1222.44 220.069 1224.42 220.279 1226.4 220.402L1226.46 219.404L1226.52 218.406C1224.61 218.287 1222.68 218.083 1220.75 217.791L1220.6 218.78ZM1232.37 219.509L1232.39 220.508C1234.39 220.455 1236.38 220.314 1238.36 220.087L1238.25 219.094L1238.13 218.1C1236.21 218.32 1234.28 218.457 1232.34 218.509L1232.37 219.509ZM1244.08 218.174L1244.28 219.155C1246.22 218.765 1248.16 218.294 1250.08 217.747L1249.81 216.786L1249.53 215.824C1247.66 216.357 1245.78 216.814 1243.88 217.194L1244.08 218.174ZM1255.43 214.959L1255.77 215.899C1257.62 215.221 1259.47 214.473 1261.31 213.658L1260.9 212.744L1260.5 211.83C1258.7 212.627 1256.89 213.358 1255.08 214.02L1255.43 214.959ZM1266.21 210.195L1266.67 211.083C1268.42 210.175 1270.17 209.208 1271.91 208.184L1271.4 207.322L1270.89 206.461C1269.18 207.466 1267.47 208.416 1265.75 209.307L1266.21 210.195ZM1276.39 204.214L1276.94 205.05C1278.58 203.973 1280.22 202.847 1281.84 201.675L1281.26 200.864L1280.68 200.052C1279.07 201.208 1277.46 202.317 1275.84 203.378L1276.39 204.214ZM1285.99 197.309L1286.61 198.097C1288.15 196.894 1289.68 195.651 1291.21 194.371L1290.57 193.605L1289.92 192.839C1288.41 194.105 1286.9 195.333 1285.38 196.52L1285.99 197.309ZM1295.06 189.709L1295.73 190.455C1297.18 189.158 1298.63 187.828 1300.07 186.467L1299.38 185.74L1298.69 185.013C1297.27 186.362 1295.83 187.68 1294.4 188.964L1295.06 189.709ZM1303.65 181.603L1304.35 182.312C1305.73 180.938 1307.11 179.536 1308.48 178.108L1307.76 177.414L1307.04 176.721C1305.68 178.139 1304.31 179.53 1302.94 180.894L1303.65 181.603ZM1311.83 173.094L1312.57 173.772C1313.89 172.337 1315.21 170.878 1316.53 169.398L1315.78 168.734L1315.03 168.069C1313.72 169.54 1312.41 170.99 1311.1 172.416L1311.83 173.094ZM1319.68 164.269L1320.44 164.921C1321.72 163.438 1322.99 161.936 1324.25 160.416L1323.49 159.776L1322.72 159.135C1321.46 160.648 1320.19 162.142 1318.92 163.617L1319.68 164.269ZM1327.25 155.196L1328.03 155.825C1329.26 154.305 1330.49 152.769 1331.72 151.219L1330.93 150.599L1330.15 149.979C1328.93 151.523 1327.7 153.052 1326.47 154.566L1327.25 155.196ZM1334.58 145.927L1335.37 146.538C1336.57 144.988 1337.76 143.426 1338.95 141.852L1338.16 141.249L1337.36 140.646C1336.17 142.214 1334.98 143.771 1333.79 145.315L1334.58 145.927ZM1341.71 136.504L1342.52 137.1C1343.68 135.526 1344.85 133.943 1346.01 132.351L1345.2 131.761L1344.4 131.172C1343.24 132.76 1342.07 134.339 1340.91 135.908L1341.71 136.504ZM1348.68 126.965L1349.49 127.549C1350.63 125.954 1351.78 124.352 1352.92 122.744L1352.1 122.166L1351.29 121.587C1350.15 123.192 1349.01 124.791 1347.86 126.382L1348.68 126.965ZM1355.51 117.332L1356.33 117.906C1357.46 116.295 1358.58 114.678 1359.71 113.057L1358.89 112.487L1358.06 111.918C1356.94 113.536 1355.82 115.15 1354.69 116.758L1355.51 117.332ZM1362.24 107.625L1363.07 108.191C1364.18 106.568 1365.3 104.941 1366.41 103.313L1365.58 102.749L1364.76 102.185C1363.65 103.812 1362.53 105.437 1361.42 107.059L1362.24 107.625ZM1368.9 97.8649L1369.73 98.4262C1370.84 96.7946 1371.94 95.1623 1373.04 93.5304L1372.21 92.9708L1371.39 92.4112C1370.28 94.0421 1369.18 95.6733 1368.08 97.3036L1368.9 97.8649ZM1375.52 88.0711L1376.35 88.6296C1377.45 86.9944 1378.55 85.3606 1379.64 83.7296L1378.81 83.1717L1377.98 82.6139C1376.89 84.2448 1375.79 85.8781 1374.69 87.5127L1375.52 88.0711ZM1382.11 78.2627L1382.94 78.8206C1384.04 77.1858 1385.14 75.5549 1386.23 73.9288L1385.4 73.3705L1384.57 72.8121C1383.48 74.4386 1382.38 76.07 1381.28 77.7049L1382.11 78.2627ZM1388.71 68.4587L1389.54 69.0183C1390.64 67.3872 1391.74 65.7624 1392.84 64.145L1392.01 63.5837L1391.18 63.0223C1390.09 64.6411 1388.99 66.2671 1387.88 67.8991L1388.71 68.4587ZM1395.35 58.6788L1396.17 59.2426C1397.28 57.6164 1398.39 55.999 1399.5 54.3917L1398.68 53.8247L1397.85 53.2578C1396.74 54.8674 1395.63 56.4869 1394.52 58.115L1395.35 58.6788ZM1402.05 48.9448L1402.87 49.5157C1404 47.8979 1405.12 46.292 1406.24 44.6992L1405.42 44.1237L1404.6 43.5482C1403.48 45.1443 1402.36 46.7534 1401.23 48.374L1402.05 48.9448ZM1408.85 39.2817L1409.67 39.8628C1410.81 38.2587 1411.96 36.6698 1413.1 35.0975L1412.29 34.51L1411.48 33.9224C1410.33 35.4993 1409.19 37.0925 1408.04 38.7006L1408.85 39.2817ZM1415.8 29.7202L1416.6 30.3154C1417.78 28.732 1418.95 27.1679 1420.12 25.6245L1419.32 25.0208L1418.52 24.4171C1417.35 25.9666 1416.17 27.5364 1415 29.1251L1415.8 29.7202ZM1422.94 20.301L1423.73 20.9148C1424.94 19.3611 1426.14 17.8315 1427.35 16.3277L1426.57 15.7027L1425.78 15.0776C1424.57 16.5895 1423.36 18.1266 1422.15 19.6873L1422.94 20.301ZM1430.33 11.0807L1431.1 11.7188C1432.36 10.1962 1433.62 8.70398 1434.88 7.24422L1434.12 6.59133L1433.36 5.93845C1432.1 7.40857 1430.83 8.91062 1429.56 10.4426L1430.33 11.0807Z" fill="#C0D6F6" fill-opacity="0.5"/>
</svg>
