<svg width="147" height="146" viewBox="0 0 147 146" fill="none" xmlns="http://www.w3.org/2000/svg">
<path d="M73.234 124.848C104.602 124.848 130.031 123.368 130.031 121.542C130.031 119.717 104.602 118.237 73.234 118.237C41.8657 118.237 16.4366 119.717 16.4366 121.542C16.4366 123.368 41.8657 124.848 73.234 124.848Z" fill="#F5F5F5"/>
<path d="M54.6472 37.4578C54.6483 36.9139 54.6042 36.3709 54.5154 35.8342C54.1228 33.4625 52.904 31.3045 51.0733 29.7398C49.2426 28.175 46.9172 27.3036 44.5057 27.2786H44.4179C42.8001 27.2796 41.2057 27.6641 39.7663 28.4002C38.3269 29.1364 37.0838 30.2032 36.1395 31.5126C35.9842 31.7258 35.8466 31.9448 35.706 32.1638C35.6945 32.1783 35.6847 32.1939 35.6767 32.2105C34.715 33.7959 34.2084 35.6139 34.212 37.4665V37.487C34.218 39.6401 34.9085 41.736 36.1842 43.4736C37.4599 45.2111 39.2552 46.501 41.3123 47.1579C43.3694 47.8148 45.5824 47.805 47.6335 47.1298C49.6847 46.4546 51.4684 45.1488 52.7285 43.4C52.8808 43.1868 53.0214 42.9707 53.1591 42.7488C53.1705 42.7343 53.1804 42.7187 53.1884 42.7021C54.1488 41.1208 54.6535 39.3063 54.6472 37.4578V37.4578ZM34.6485 37.2271C34.6823 35.5599 35.1496 33.9299 36.0048 32.4967H39.2007C38.7123 34.0269 38.4566 35.6214 38.442 37.2271H34.6485ZM39.6489 32.4967H44.207V37.2271H38.8814C38.8911 35.6203 39.15 34.0246 39.6489 32.4967V32.4967ZM44.6464 32.0587V27.702C45.2799 27.7593 45.8867 27.9841 46.404 28.3532C47.4908 29.0949 48.4018 30.3972 49.0404 32.0587H44.6464ZM49.1986 32.4967C49.561 33.5905 49.7969 34.7221 49.9016 35.8693C49.9456 36.3248 49.9661 36.7774 49.9719 37.2271H44.6464V32.4967H49.1986ZM43.5625 27.8247C43.7728 27.7651 43.9888 27.7279 44.207 27.7137V32.0674H39.8129C40.6331 29.8658 41.9631 28.2656 43.5625 27.8159V27.8247ZM44.207 37.6738V42.4042H39.6577C39.2952 41.3077 39.0612 40.173 38.9605 39.0229C38.9195 38.5674 38.896 38.1148 38.8902 37.6651L44.207 37.6738ZM44.207 42.8422V47.1989C43.5735 47.1412 42.9668 46.9165 42.4493 46.5477C41.3655 45.806 40.4544 44.5037 39.8129 42.8422H44.207ZM45.2908 47.085C45.0806 47.1448 44.8645 47.182 44.6464 47.196V42.8335H49.0404C48.2202 45.0264 46.8902 46.6295 45.2908 47.0762V47.085ZM44.6464 42.413V37.668H49.9719C49.9637 39.2749 49.7047 40.8708 49.2044 42.3984L44.6464 42.413ZM50.4113 37.668H54.2195C54.184 39.335 53.7168 40.9645 52.8632 42.3984H49.6526C50.141 40.8682 50.3968 39.2737 50.4113 37.668V37.668ZM54.2195 37.23H50.4113C50.4113 36.7686 50.382 36.3014 50.3381 35.8313C50.2381 34.6995 50.0132 33.5822 49.6673 32.4996H52.8574C53.4738 33.543 53.89 34.6916 54.0848 35.8868C54.1545 36.3305 54.1956 36.7782 54.2078 37.2271L54.2195 37.23ZM50.1565 29.5416C51.1139 30.2291 51.9395 31.0827 52.5937 32.0616H49.5062C48.85 30.2541 47.8628 28.8233 46.653 27.994L46.5592 27.9327C47.851 28.2211 49.0707 28.7674 50.1448 29.5387L50.1565 29.5416ZM42.2853 27.9386C41.052 28.7474 40.0385 30.2191 39.3559 32.0616H36.2801L36.494 31.7492C37.8851 29.8134 39.9425 28.4559 42.2736 27.9356L42.2853 27.9386ZM34.669 37.668H38.4625C38.4625 38.1294 38.4918 38.5966 38.5357 39.0667C38.6371 40.1983 38.8621 41.3154 39.2065 42.3984H35.9989C35.3812 41.3556 34.9649 40.2068 34.7715 39.0112C34.6986 38.5669 34.6575 38.1181 34.6485 37.668H34.669ZM36.2918 42.8364H39.3559C40.0121 44.6439 40.9993 46.0747 42.2091 46.904L42.3058 46.9653C39.8444 46.408 37.6916 44.93 36.2918 42.8364V42.8364ZM46.5768 46.9565C47.8071 46.1506 48.8207 44.676 49.5062 42.8335H52.5761C52.5058 42.9386 52.4355 43.0437 52.3623 43.1459C50.97 45.0826 48.9101 46.4394 46.5768 46.9565Z" fill="#407BFF"/>
<path opacity="0.8" d="M54.6472 37.4578C54.6483 36.9139 54.6042 36.3709 54.5154 35.8342C54.1228 33.4625 52.904 31.3045 51.0733 29.7398C49.2426 28.175 46.9172 27.3036 44.5057 27.2786H44.4179C42.8001 27.2796 41.2057 27.6641 39.7663 28.4002C38.3269 29.1364 37.0838 30.2032 36.1395 31.5126C35.9842 31.7258 35.8466 31.9448 35.706 32.1638C35.6945 32.1783 35.6847 32.1939 35.6767 32.2105C34.715 33.7959 34.2084 35.6139 34.212 37.4665V37.487C34.218 39.6401 34.9085 41.736 36.1842 43.4736C37.4599 45.2111 39.2552 46.501 41.3123 47.1579C43.3694 47.8148 45.5824 47.805 47.6335 47.1298C49.6847 46.4546 51.4684 45.1488 52.7285 43.4C52.8808 43.1868 53.0214 42.9707 53.1591 42.7488C53.1705 42.7343 53.1804 42.7187 53.1884 42.7021C54.1488 41.1208 54.6535 39.3063 54.6472 37.4578V37.4578ZM34.6485 37.2271C34.6823 35.5599 35.1496 33.9299 36.0048 32.4967H39.2007C38.7123 34.0269 38.4566 35.6214 38.442 37.2271H34.6485ZM39.6489 32.4967H44.207V37.2271H38.8814C38.8911 35.6203 39.15 34.0246 39.6489 32.4967V32.4967ZM44.6464 32.0587V27.702C45.2799 27.7593 45.8867 27.9841 46.404 28.3532C47.4908 29.0949 48.4018 30.3972 49.0404 32.0587H44.6464ZM49.1986 32.4967C49.561 33.5905 49.7969 34.7221 49.9016 35.8693C49.9456 36.3248 49.9661 36.7774 49.9719 37.2271H44.6464V32.4967H49.1986ZM43.5625 27.8247C43.7728 27.7651 43.9888 27.7279 44.207 27.7137V32.0674H39.8129C40.6331 29.8658 41.9631 28.2656 43.5625 27.8159V27.8247ZM44.207 37.6738V42.4042H39.6577C39.2952 41.3077 39.0612 40.173 38.9605 39.0229C38.9195 38.5674 38.896 38.1148 38.8902 37.6651L44.207 37.6738ZM44.207 42.8422V47.1989C43.5735 47.1412 42.9668 46.9165 42.4493 46.5477C41.3655 45.806 40.4544 44.5037 39.8129 42.8422H44.207ZM45.2908 47.085C45.0806 47.1448 44.8645 47.182 44.6464 47.196V42.8335H49.0404C48.2202 45.0264 46.8902 46.6295 45.2908 47.0762V47.085ZM44.6464 42.413V37.668H49.9719C49.9637 39.2749 49.7047 40.8708 49.2044 42.3984L44.6464 42.413ZM50.4113 37.668H54.2195C54.184 39.335 53.7168 40.9645 52.8632 42.3984H49.6526C50.141 40.8682 50.3968 39.2737 50.4113 37.668V37.668ZM54.2195 37.23H50.4113C50.4113 36.7686 50.382 36.3014 50.3381 35.8313C50.2381 34.6995 50.0132 33.5822 49.6673 32.4996H52.8574C53.4738 33.543 53.89 34.6916 54.0848 35.8868C54.1545 36.3305 54.1956 36.7782 54.2078 37.2271L54.2195 37.23ZM50.1565 29.5416C51.1139 30.2291 51.9395 31.0827 52.5937 32.0616H49.5062C48.85 30.2541 47.8628 28.8233 46.653 27.994L46.5592 27.9327C47.851 28.2211 49.0707 28.7674 50.1448 29.5387L50.1565 29.5416ZM42.2853 27.9386C41.052 28.7474 40.0385 30.2191 39.3559 32.0616H36.2801L36.494 31.7492C37.8851 29.8134 39.9425 28.4559 42.2736 27.9356L42.2853 27.9386ZM34.669 37.668H38.4625C38.4625 38.1294 38.4918 38.5966 38.5357 39.0667C38.6371 40.1983 38.8621 41.3154 39.2065 42.3984H35.9989C35.3812 41.3556 34.9649 40.2068 34.7715 39.0112C34.6986 38.5669 34.6575 38.1181 34.6485 37.668H34.669ZM36.2918 42.8364H39.3559C40.0121 44.6439 40.9993 46.0747 42.2091 46.904L42.3058 46.9653C39.8444 46.408 37.6916 44.93 36.2918 42.8364V42.8364ZM46.5768 46.9565C47.8071 46.1506 48.8207 44.676 49.5062 42.8335H52.5761C52.5058 42.9386 52.4355 43.0437 52.3623 43.1459C50.97 45.0826 48.9101 46.4394 46.5768 46.9565Z" fill="#FAFAFA"/>
<path d="M121.36 42.3108H29.2614V64.5554H121.36V42.3108Z" fill="#407BFF"/>
<path opacity="0.6" d="M121.36 42.3108H29.2614V64.5554H121.36V42.3108Z" fill="#FAFAFA"/>
<path d="M119.284 44.3811H27.1845V66.6256H119.284V44.3811Z" fill="#407BFF"/>
<path opacity="0.3" d="M119.284 44.3811H27.1845V66.6256H119.284V44.3811Z" fill="black"/>
<path d="M117.207 46.4514H25.1075V68.6959H117.207V46.4514Z" fill="#407BFF"/>
<path opacity="0.1" d="M117.207 46.4514H25.1075V68.6959H117.207V46.4514Z" fill="#FAFAFA"/>
<path d="M112.813 64.3159V50.8314L29.5016 50.8314V64.3159H112.813Z" fill="#407BFF"/>
<path opacity="0.9" d="M112.813 64.3159V50.8314L29.5016 50.8314V64.3159H112.813Z" fill="#FAFAFA"/>
<path d="M98.7985 50.8314V64.3159H99.2877V50.8314H98.7985Z" fill="#407BFF"/>
<path opacity="0.6" d="M98.7985 50.8314V64.3159H99.2877V50.8314H98.7985Z" fill="#FAFAFA"/>
<path d="M31.5785 52.6914V62.4559H32.0677V52.6914H31.5785Z" fill="#407BFF"/>
<path opacity="0.6" d="M31.5785 52.6914V62.4559H32.0677V52.6914H31.5785Z" fill="#FAFAFA"/>
<path d="M105.583 59.276C105.227 59.2759 104.877 59.1883 104.564 59.0212C104.251 58.8541 103.983 58.6125 103.786 58.3178C103.589 58.0232 103.467 57.6846 103.432 57.3319C103.398 56.9793 103.45 56.6236 103.587 56.2963C103.723 55.9689 103.937 55.6801 104.212 55.4553C104.487 55.2305 104.813 55.0767 105.162 55.0075C105.51 54.9384 105.871 54.956 106.211 55.0587C106.551 55.1615 106.861 55.3463 107.112 55.5968V55.5968C107.415 55.8982 107.621 56.2822 107.704 56.7004C107.788 57.1185 107.745 57.552 107.581 57.9458C107.417 58.3397 107.14 58.6763 106.784 58.9131C106.429 59.1499 106.011 59.2762 105.583 59.276V59.276ZM105.583 55.553C105.218 55.5531 104.865 55.6793 104.583 55.91C104.301 56.1408 104.108 56.4618 104.037 56.8184C103.966 57.175 104.022 57.5451 104.194 57.8655C104.366 58.186 104.644 58.4371 104.982 58.5759C105.319 58.7147 105.694 58.7327 106.042 58.6268C106.391 58.5209 106.693 58.2977 106.895 57.9952C107.097 57.6926 107.188 57.3296 107.152 56.9678C107.115 56.6061 106.954 56.2681 106.696 56.0114V56.0114C106.551 55.8627 106.378 55.7443 106.187 55.6631C105.996 55.5818 105.791 55.5394 105.583 55.5384V55.553Z" fill="#407BFF"/>
<path d="M108.386 60.1929C108.348 60.1927 108.309 60.1849 108.273 60.1699C108.238 60.1548 108.205 60.1329 108.178 60.1053L106.699 58.6307C106.668 58.6045 106.643 58.5723 106.626 58.5361C106.608 58.4998 106.598 58.4604 106.597 58.4202C106.595 58.3799 106.602 58.3398 106.617 58.3024C106.631 58.2649 106.654 58.2309 106.682 58.2024C106.711 58.174 106.745 58.1517 106.783 58.137C106.82 58.1223 106.86 58.1156 106.901 58.1171C106.941 58.1187 106.981 58.1285 107.017 58.146C107.053 58.1636 107.086 58.1884 107.112 58.219L108.591 59.6936C108.646 59.7483 108.677 59.8223 108.677 59.8994C108.677 59.9766 108.646 60.0506 108.591 60.1053C108.537 60.1603 108.464 60.1918 108.386 60.1929V60.1929Z" fill="#407BFF"/>
<g opacity="0.6">
<path d="M105.583 59.276C105.227 59.2759 104.877 59.1883 104.564 59.0212C104.251 58.8541 103.983 58.6125 103.786 58.3178C103.589 58.0232 103.467 57.6846 103.432 57.3319C103.398 56.9793 103.45 56.6236 103.587 56.2963C103.723 55.9689 103.937 55.6801 104.212 55.4553C104.487 55.2305 104.813 55.0767 105.162 55.0075C105.51 54.9384 105.871 54.956 106.211 55.0587C106.551 55.1615 106.861 55.3463 107.112 55.5968V55.5968C107.415 55.8982 107.621 56.2822 107.704 56.7004C107.788 57.1185 107.745 57.552 107.581 57.9458C107.417 58.3397 107.14 58.6763 106.784 58.9131C106.429 59.1499 106.011 59.2762 105.583 59.276V59.276ZM105.583 55.553C105.218 55.5531 104.865 55.6793 104.583 55.91C104.301 56.1408 104.108 56.4618 104.037 56.8184C103.966 57.175 104.022 57.5451 104.194 57.8655C104.366 58.186 104.644 58.4371 104.982 58.5759C105.319 58.7147 105.694 58.7327 106.042 58.6268C106.391 58.5209 106.693 58.2977 106.895 57.9952C107.097 57.6926 107.188 57.3296 107.152 56.9678C107.115 56.6061 106.954 56.2681 106.696 56.0114V56.0114C106.551 55.8627 106.378 55.7443 106.187 55.6631C105.996 55.5818 105.791 55.5394 105.583 55.5384V55.553Z" fill="#FAFAFA"/>
<path d="M108.386 60.1929C108.348 60.1927 108.309 60.1849 108.273 60.1699C108.238 60.1548 108.205 60.1329 108.178 60.1053L106.699 58.6307C106.668 58.6045 106.643 58.5723 106.626 58.5361C106.608 58.4998 106.598 58.4604 106.597 58.4202C106.595 58.3799 106.602 58.3398 106.617 58.3024C106.631 58.2649 106.654 58.2309 106.682 58.2024C106.711 58.174 106.745 58.1517 106.783 58.137C106.82 58.1223 106.86 58.1156 106.901 58.1171C106.941 58.1187 106.981 58.1285 107.017 58.146C107.053 58.1636 107.086 58.1884 107.112 58.219L108.591 59.6936C108.646 59.7483 108.677 59.8223 108.677 59.8994C108.677 59.9766 108.646 60.0506 108.591 60.1053C108.537 60.1603 108.464 60.1918 108.386 60.1929V60.1929Z" fill="#FAFAFA"/>
</g>
<path d="M85.7101 28.8642H76.5002V29.092H85.7101V28.8642Z" fill="#407BFF"/>
<path d="M85.7101 29.8307H76.5002V30.0585H85.7101V29.8307Z" fill="#407BFF"/>
<path d="M85.7101 30.8002H76.5002V31.0279H85.7101V30.8002Z" fill="#407BFF"/>
<path d="M85.7101 31.7667H76.5002V31.9944H85.7101V31.7667Z" fill="#407BFF"/>
<path d="M85.7101 32.7332H76.5002V32.961H85.7101V32.7332Z" fill="#407BFF"/>
<path d="M82.5054 33.7026H76.5002V33.9304H82.5054V33.7026Z" fill="#407BFF"/>
<g opacity="0.5">
<path d="M85.7101 28.8642H76.5002V29.092H85.7101V28.8642Z" fill="#FAFAFA"/>
<path d="M85.7101 29.8307H76.5002V30.0585H85.7101V29.8307Z" fill="#FAFAFA"/>
<path d="M85.7101 30.8002H76.5002V31.0279H85.7101V30.8002Z" fill="#FAFAFA"/>
<path d="M85.7101 31.7667H76.5002V31.9944H85.7101V31.7667Z" fill="#FAFAFA"/>
<path d="M85.7101 32.7332H76.5002V32.961H85.7101V32.7332Z" fill="#FAFAFA"/>
<path d="M82.5054 33.7026H76.5002V33.9304H82.5054V33.7026Z" fill="#FAFAFA"/>
</g>
<path d="M30.2749 70.6173H20.4616V70.7633H30.2749V70.6173Z" fill="#407BFF"/>
<path d="M30.2749 71.2363H20.4616V71.3823H30.2749V71.2363Z" fill="#407BFF"/>
<path d="M30.2749 71.8554H20.4616V72.0014H30.2749V71.8554Z" fill="#407BFF"/>
<path d="M30.2749 72.4744H20.4616V72.6204H30.2749V72.4744Z" fill="#407BFF"/>
<path d="M30.2749 73.0934H20.4616V73.2394H30.2749V73.0934Z" fill="#407BFF"/>
<path d="M26.6308 73.7154H20.4616V73.8614H26.6308V73.7154Z" fill="#407BFF"/>
<g opacity="0.4">
<path d="M30.2749 70.6173H20.4616V70.7633H30.2749V70.6173Z" fill="#FAFAFA"/>
<path d="M30.2749 71.2363H20.4616V71.3823H30.2749V71.2363Z" fill="#FAFAFA"/>
<path d="M30.2749 71.8554H20.4616V72.0014H30.2749V71.8554Z" fill="#FAFAFA"/>
<path d="M30.2749 72.4744H20.4616V72.6204H30.2749V72.4744Z" fill="#FAFAFA"/>
<path d="M30.2749 73.0934H20.4616V73.2394H30.2749V73.0934Z" fill="#FAFAFA"/>
<path d="M26.6308 73.7154H20.4616V73.8614H26.6308V73.7154Z" fill="#FAFAFA"/>
</g>
<path d="M62.5272 30.2979C62.0362 30.2979 61.5653 30.4923 61.2181 30.8384C60.8709 31.1845 60.6758 31.6539 60.6758 32.1434V38.2316C60.6758 38.721 60.8709 39.1904 61.2181 39.5365C61.5653 39.8826 62.0362 40.077 62.5272 40.077V40.077C63.0182 40.077 63.4891 39.8826 63.8363 39.5365C64.1835 39.1904 64.3785 38.721 64.3785 38.2316V32.1434C64.3785 31.6539 64.1835 31.1845 63.8363 30.8384C63.4891 30.4923 63.0182 30.2979 62.5272 30.2979V30.2979Z" fill="#407BFF"/>
<path opacity="0.2" d="M62.5272 30.2979C62.0362 30.2979 61.5653 30.4923 61.2181 30.8384C60.8709 31.1845 60.6758 31.6539 60.6758 32.1434V38.2316C60.6758 38.721 60.8709 39.1904 61.2181 39.5365C61.5653 39.8826 62.0362 40.077 62.5272 40.077V40.077C63.0182 40.077 63.4891 39.8826 63.8363 39.5365C64.1835 39.1904 64.3785 38.721 64.3785 38.2316V32.1434C64.3785 31.6539 64.1835 31.1845 63.8363 30.8384C63.4891 30.4923 63.0182 30.2979 62.5272 30.2979V30.2979Z" fill="#FAFAFA"/>
<path d="M67.1673 26.6684C66.6778 26.6707 66.2091 26.8661 65.8638 27.212C65.5185 27.5578 65.3247 28.0259 65.3247 28.5138V38.2316C65.3247 38.721 65.5198 39.1904 65.8669 39.5365C66.2141 39.8826 66.685 40.077 67.1761 40.077V40.077C67.6671 40.077 68.138 39.8826 68.4852 39.5365C68.8324 39.1904 69.0274 38.721 69.0274 38.2316V28.5138C69.0274 28.2707 68.9792 28.03 68.8856 27.8056C68.7921 27.5811 68.6549 27.3772 68.4821 27.2058C68.3092 27.0343 68.1041 26.8985 67.8784 26.8063C67.6528 26.7141 67.4111 26.6672 67.1673 26.6684Z" fill="#407BFF"/>
<path opacity="0.3" d="M67.1673 26.6684C66.6778 26.6707 66.2091 26.8661 65.8638 27.212C65.5185 27.5578 65.3247 28.0259 65.3247 28.5138V38.2316C65.3247 38.721 65.5198 39.1904 65.8669 39.5365C66.2141 39.8826 66.685 40.077 67.1761 40.077V40.077C67.6671 40.077 68.138 39.8826 68.4852 39.5365C68.8324 39.1904 69.0274 38.721 69.0274 38.2316V28.5138C69.0274 28.2707 68.9792 28.03 68.8856 27.8056C68.7921 27.5811 68.6549 27.3772 68.4821 27.2058C68.3092 27.0343 68.1041 26.8985 67.8784 26.8063C67.6528 26.7141 67.4111 26.6672 67.1673 26.6684Z" fill="black"/>
<path d="M71.8044 33.9275C71.3134 33.9275 70.8425 34.1219 70.4953 34.468C70.1481 34.8141 69.9531 35.2835 69.9531 35.7729V38.2316C69.9531 38.721 70.1481 39.1904 70.4953 39.5365C70.8425 39.8826 71.3134 40.077 71.8044 40.077V40.077C72.0478 40.0774 72.2889 40.0299 72.5138 39.9374C72.7388 39.8448 72.9432 39.7089 73.1154 39.5375C73.2877 39.3661 73.4243 39.1625 73.5175 38.9385C73.6107 38.7144 73.6587 38.4742 73.6587 38.2316V35.7729C73.6587 35.5303 73.6107 35.2901 73.5175 35.066C73.4243 34.8419 73.2877 34.6384 73.1154 34.467C72.9432 34.2956 72.7388 34.1597 72.5138 34.0671C72.2889 33.9745 72.0478 33.9271 71.8044 33.9275V33.9275Z" fill="#407BFF"/>
<path opacity="0.6" d="M71.8044 33.9275C71.3134 33.9275 70.8425 34.1219 70.4953 34.468C70.1481 34.8141 69.9531 35.2835 69.9531 35.7729V38.2316C69.9531 38.721 70.1481 39.1904 70.4953 39.5365C70.8425 39.8826 71.3134 40.077 71.8044 40.077V40.077C72.0478 40.0774 72.2889 40.0299 72.5138 39.9374C72.7388 39.8448 72.9432 39.7089 73.1154 39.5375C73.2877 39.3661 73.4243 39.1625 73.5175 38.9385C73.6107 38.7144 73.6587 38.4742 73.6587 38.2316V35.7729C73.6587 35.5303 73.6107 35.2901 73.5175 35.066C73.4243 34.8419 73.2877 34.6384 73.1154 34.467C72.9432 34.2956 72.7388 34.1597 72.5138 34.0671C72.2889 33.9745 72.0478 33.9271 71.8044 33.9275V33.9275Z" fill="#FAFAFA"/>
<path d="M110.908 75.666H118.393L105.615 62.4559L110.908 75.666Z" fill="#407BFF"/>
<g opacity="0.1">
<path d="M110.908 75.666H118.393L105.615 62.4559L110.908 75.666Z" fill="black"/>
</g>
<g style="mix-blend-mode:multiply">
<path d="M103.714 68.693L105.615 62.4559L106.693 68.693H103.714Z" fill="#407BFF"/>
</g>
<path d="M105.615 62.4559V80.9395L106.939 79.6226L110.908 75.666L105.615 62.4559Z" fill="#407BFF"/>
<path opacity="0.3" d="M105.615 62.4559V80.9395L106.939 79.6226L110.908 75.666L105.615 62.4559Z" fill="#FAFAFA"/>
<path d="M118.85 22.8081H102.446C101.614 22.8112 100.818 23.1416 100.229 23.7273C99.6413 24.313 99.3091 25.1067 99.3053 25.9354V34.3801C99.3091 35.2083 99.6409 36.0015 100.228 36.5872C100.816 37.1728 101.612 37.5036 102.443 37.5074H114.479L114.391 40.4595L117.429 37.5074H118.844C119.675 37.5043 120.472 37.174 121.06 36.5882C121.648 36.0025 121.981 35.2088 121.984 34.3801V25.9354C121.981 25.1077 121.649 24.3149 121.062 23.7294C120.475 23.1438 119.68 22.8127 118.85 22.8081V22.8081ZM102.076 26.4056C102.076 26.1732 102.169 25.9504 102.334 25.7861C102.499 25.6219 102.722 25.5296 102.955 25.5296H106.731C106.964 25.5296 107.188 25.6219 107.353 25.7861C107.517 25.9504 107.61 26.1732 107.61 26.4056C107.61 26.6379 107.517 26.8607 107.353 27.025C107.188 27.1893 106.964 27.2816 106.731 27.2816H102.952C102.72 27.2808 102.497 27.1882 102.333 27.024C102.169 26.8598 102.076 26.6374 102.076 26.4056V26.4056ZM117.918 34.5816H111.392C111.265 34.6036 111.136 34.5979 111.012 34.5647C110.888 34.5315 110.773 34.4717 110.675 34.3894C110.577 34.3072 110.498 34.2046 110.444 34.0887C110.389 33.9728 110.361 33.8465 110.361 33.7187C110.361 33.5909 110.389 33.4646 110.444 33.3487C110.498 33.2328 110.577 33.1302 110.675 33.048C110.773 32.9657 110.888 32.9059 111.012 32.8727C111.136 32.8396 111.265 32.8338 111.392 32.8558H117.918C118.045 32.8338 118.174 32.8396 118.298 32.8727C118.422 32.9059 118.537 32.9657 118.635 33.048C118.734 33.1302 118.812 33.2328 118.867 33.3487C118.921 33.4646 118.949 33.5909 118.949 33.7187C118.949 33.8465 118.921 33.9728 118.867 34.0887C118.812 34.2046 118.734 34.3072 118.635 34.3894C118.537 34.4717 118.422 34.5315 118.298 34.5647C118.174 34.5979 118.045 34.6036 117.918 34.5816V34.5816ZM117.918 30.9286H103.831C103.705 30.9507 103.575 30.9449 103.451 30.9117C103.327 30.8786 103.212 30.8187 103.114 30.7365C103.016 30.6543 102.937 30.5516 102.883 30.4358C102.829 30.3199 102.801 30.1936 102.801 30.0658C102.801 29.9379 102.829 29.8117 102.883 29.6958C102.937 29.5799 103.016 29.4773 103.114 29.395C103.212 29.3128 103.327 29.253 103.451 29.2198C103.575 29.1866 103.705 29.1809 103.831 29.2029H117.918C118.045 29.1809 118.174 29.1866 118.298 29.2198C118.422 29.253 118.537 29.3128 118.635 29.395C118.734 29.4773 118.812 29.5799 118.867 29.6958C118.921 29.8117 118.949 29.9379 118.949 30.0658C118.949 30.1936 118.921 30.3199 118.867 30.4358C118.812 30.5516 118.734 30.6543 118.635 30.7365C118.537 30.8187 118.422 30.8786 118.298 30.9117C118.174 30.9449 118.045 30.9507 117.918 30.9286V30.9286ZM117.918 27.2757H109.579C109.345 27.2757 109.122 27.1834 108.957 27.0191C108.792 26.8549 108.7 26.6321 108.7 26.3997C108.7 26.1674 108.792 25.9446 108.957 25.7803C109.122 25.616 109.345 25.5237 109.579 25.5237H117.918C118.151 25.5237 118.375 25.616 118.54 25.7803C118.705 25.9446 118.797 26.1674 118.797 26.3997C118.797 26.6321 118.705 26.8549 118.54 27.0191C118.375 27.1834 118.151 27.2757 117.918 27.2757Z" fill="#407BFF"/>
<path d="M93.1946 49.5758C92.494 47.6573 91.4243 45.8937 90.0456 44.384H66.7542C65.3755 45.8937 64.3058 47.6573 63.6052 49.5758L66.8275 65.5657C69.2926 68.2294 72.6068 69.9604 76.2071 70.4645C79.8073 70.9686 83.4717 70.2147 86.5776 68.331C89.6835 66.4472 92.0394 63.5498 93.2451 60.1309C94.4508 56.712 94.4319 52.9824 93.1917 49.5758H93.1946Z" fill="#407BFF"/>
<path opacity="0.1" d="M93.1946 49.5758C92.494 47.6573 91.4243 45.8937 90.0456 44.384H66.7542C65.3755 45.8937 64.3058 47.6573 63.6052 49.5758L66.8275 65.5657C69.2926 68.2294 72.6068 69.9604 76.2071 70.4645C79.8073 70.9686 83.4717 70.2147 86.5776 68.331C89.6835 66.4472 92.0394 63.5498 93.2451 60.1309C94.4508 56.712 94.4319 52.9824 93.1917 49.5758H93.1946Z" fill="#FAFAFA"/>
<path d="M94.1232 55.6581C93.9569 59.3451 92.4876 62.8546 89.9753 65.5657H66.8333C64.8797 63.4496 63.5461 60.8396 62.9779 58.0201C62.4097 55.2006 62.6287 52.2797 63.611 49.5758H93.1976C93.9081 51.5219 94.2228 53.5895 94.1232 55.6581V55.6581Z" fill="#407BFF"/>
<path opacity="0.9" d="M94.1232 55.6581C93.9569 59.3451 92.4876 62.8546 89.9753 65.5657H66.8333C64.8797 63.4496 63.5461 60.8396 62.9779 58.0201C62.4097 55.2006 62.6287 52.2797 63.611 49.5758H93.1976C93.9081 51.5219 94.2228 53.5895 94.1232 55.6581V55.6581Z" fill="#FAFAFA"/>
<path opacity="0.3" d="M94.1232 55.6581C93.941 59.538 92.3183 63.2118 89.5704 65.9657C86.8225 68.7195 83.1456 70.3567 79.2544 70.5591C75.3631 70.7614 71.5353 69.5146 68.5148 67.0607C65.4943 64.6069 63.4968 61.1213 62.9106 57.2814C62.3243 53.4415 63.1911 49.5214 65.3426 46.283C67.494 43.0446 70.7764 40.7191 74.552 39.7584C78.3275 38.7978 82.3265 39.2706 85.7718 41.0849C89.2172 42.8992 91.8628 45.9255 93.1946 49.5758C93.9052 51.5219 94.2208 53.5894 94.1232 55.6581V55.6581Z" fill="white"/>
<path opacity="0.4" d="M87.2715 41.9779L64.6392 62.5522C64.526 62.3439 64.4146 62.1337 64.3053 61.9215C63.6133 60.5406 63.1324 59.0643 62.8787 57.5415V57.5415L82.4263 39.7704C84.1561 40.2248 85.7949 40.9714 87.2715 41.9779Z" fill="white"/>
<path opacity="0.4" d="M93.3264 49.9524L72.0622 69.2945C69.8565 68.3244 67.9041 66.8618 66.3558 65.0196L89.5915 43.8964C91.2848 45.6037 92.5625 47.6756 93.3264 49.9524V49.9524Z" fill="white"/>
<path d="M94.1174 45.8878C92.3223 42.7851 89.6442 40.2829 86.4221 38.6978C83.1999 37.1127 79.5785 36.5159 76.016 36.9829C72.4535 37.4499 69.1101 38.9598 66.4087 41.3215C63.7073 43.6832 61.7693 46.7905 60.8401 50.2504C59.9109 53.7102 60.032 57.3671 61.1883 60.7582C62.3446 64.1494 64.4841 67.1225 67.3359 69.3013C70.1878 71.4801 73.624 72.7668 77.2096 72.9984C80.7953 73.2301 84.3693 72.3963 87.4794 70.6027C91.6451 68.2004 94.6838 64.2482 95.9284 59.6143C97.173 54.9803 96.5217 50.0434 94.1174 45.8878V45.8878ZM65.9955 62.0763C64.5792 59.6312 63.922 56.8223 64.1071 54.0049C64.2923 51.1875 65.3113 48.4881 67.0355 46.248C68.7597 44.0079 71.1115 42.3277 73.7936 41.42C76.4757 40.5122 79.3676 40.4176 82.1036 41.1481C84.8397 41.8786 87.297 43.4015 89.1648 45.5241C91.0326 47.6466 92.227 50.2737 92.5971 53.0729C92.9671 55.8721 92.4961 58.7179 91.2436 61.2503C89.9912 63.7827 88.0135 65.8881 85.5607 67.3002C83.9322 68.2377 82.1343 68.8464 80.2698 69.0913C78.4053 69.3362 76.5106 69.2125 74.694 68.7274C72.8775 68.2423 71.1745 67.4053 69.6825 66.2641C68.1905 65.1228 66.9387 63.6998 65.9985 62.0763H65.9955Z" fill="#407BFF"/>
<path opacity="0.1" d="M94.1174 45.8878C92.3223 42.7851 89.6442 40.2829 86.4221 38.6978C83.1999 37.1127 79.5785 36.5159 76.016 36.9829C72.4535 37.4499 69.1101 38.9598 66.4087 41.3215C63.7073 43.6832 61.7693 46.7905 60.8401 50.2504C59.9109 53.7102 60.032 57.3671 61.1883 60.7582C62.3446 64.1494 64.4841 67.1225 67.3359 69.3013C70.1878 71.4801 73.624 72.7668 77.2096 72.9984C80.7953 73.2301 84.3693 72.3963 87.4794 70.6027C91.6451 68.2004 94.6838 64.2482 95.9284 59.6143C97.173 54.9803 96.5217 50.0434 94.1174 45.8878V45.8878ZM65.9955 62.0763C64.5792 59.6312 63.922 56.8223 64.1071 54.0049C64.2923 51.1875 65.3113 48.4881 67.0355 46.248C68.7597 44.0079 71.1115 42.3277 73.7936 41.42C76.4757 40.5122 79.3676 40.4176 82.1036 41.1481C84.8397 41.8786 87.297 43.4015 89.1648 45.5241C91.0326 47.6466 92.227 50.2737 92.5971 53.0729C92.9671 55.8721 92.4961 58.7179 91.2436 61.2503C89.9912 63.7827 88.0135 65.8881 85.5607 67.3002C83.9322 68.2377 82.1343 68.8464 80.2698 69.0913C78.4053 69.3362 76.5106 69.2125 74.694 68.7274C72.8775 68.2423 71.1745 67.4053 69.6825 66.2641C68.1905 65.1228 66.9387 63.6998 65.9985 62.0763H65.9955Z" fill="black"/>
<path d="M36.6346 73.5519L38.8784 74.0716L37.0183 75.4557C37.0183 75.4557 35.6854 74.8542 35.6239 73.911L36.6346 73.5519Z" fill="#E4897B"/>
<path d="M40.0795 75.5608L38.4625 76.6354L37.0183 75.4557L38.8784 74.0746L40.0795 75.5608Z" fill="#E4897B"/>
<path d="M65.4624 64.4678C63.0779 66.2198 60.6319 67.8842 58.1741 69.5106C55.7164 71.137 53.2265 72.7226 50.7248 74.279C48.2231 75.8353 45.698 77.3596 43.1641 78.84C41.8986 79.5934 40.6214 80.3234 39.3559 81.065C38.7273 81.464 38.042 81.7662 37.323 81.9615C36.9393 82.0629 36.5471 82.1284 36.1512 82.1571C35.7117 82.1929 35.2694 82.1703 34.8359 82.09C34.5261 82.0289 34.2314 81.9075 33.9687 81.7327C33.7061 81.558 33.4805 81.3333 33.305 81.0716C33.1295 80.8099 33.0075 80.5162 32.946 80.2075C32.8845 79.8987 32.8847 79.5809 32.9465 79.2722C32.9666 79.1729 32.994 79.0753 33.0285 78.9802C33.1699 78.5662 33.367 78.1733 33.6144 77.8122C33.8351 77.4874 34.0862 77.1844 34.3643 76.907C34.8941 76.3841 35.4994 75.9432 36.16 75.5988C37.4401 74.8717 38.7115 74.1388 40.0004 73.4176C42.5665 71.9722 45.1561 70.5647 47.7515 69.1748C50.3469 67.7849 52.9745 66.4388 55.6168 65.1248C58.2591 63.8108 60.9219 62.5318 63.6403 61.3521C64.0506 61.1713 64.5134 61.148 64.9398 61.2866C65.3663 61.4252 65.7263 61.7159 65.9508 62.103C66.1753 62.4901 66.2484 62.9462 66.1561 63.3838C66.0638 63.8213 65.8126 64.2094 65.4507 64.4736L65.4624 64.4678Z" fill="#407BFF"/>
<path opacity="0.1" d="M65.4624 64.4678C63.0779 66.2198 60.6319 67.8842 58.1741 69.5106C55.7164 71.137 53.2265 72.7226 50.7248 74.279C48.2231 75.8353 45.698 77.3596 43.1641 78.84C41.8986 79.5934 40.6214 80.3234 39.3559 81.065C38.7273 81.464 38.042 81.7662 37.323 81.9615C36.9393 82.0629 36.5471 82.1284 36.1512 82.1571C35.7117 82.1929 35.2694 82.1703 34.8359 82.09C34.5261 82.0289 34.2314 81.9075 33.9687 81.7327C33.7061 81.558 33.4805 81.3333 33.305 81.0716C33.1295 80.8099 33.0075 80.5162 32.946 80.2075C32.8845 79.8987 32.8847 79.5809 32.9465 79.2722C32.9666 79.1729 32.994 79.0753 33.0285 78.9802C33.1699 78.5662 33.367 78.1733 33.6144 77.8122C33.8351 77.4874 34.0862 77.1844 34.3643 76.907C34.8941 76.3841 35.4994 75.9432 36.16 75.5988C37.4401 74.8717 38.7115 74.1388 40.0004 73.4176C42.5665 71.9722 45.1561 70.5647 47.7515 69.1748C50.3469 67.7849 52.9745 66.4388 55.6168 65.1248C58.2591 63.8108 60.9219 62.5318 63.6403 61.3521C64.0506 61.1713 64.5134 61.148 64.9398 61.2866C65.3663 61.4252 65.7263 61.7159 65.9508 62.103C66.1753 62.4901 66.2484 62.9462 66.1561 63.3838C66.0638 63.8213 65.8126 64.2094 65.4507 64.4736L65.4624 64.4678Z" fill="black"/>
<path d="M39.8862 59.7198C39.7397 59.9564 39.5727 60.2425 39.4145 60.5112C39.2563 60.7798 39.1011 61.0601 38.9546 61.3434C38.6617 61.9011 38.3687 62.4676 38.0758 63.0428C37.7829 63.618 37.5456 64.2108 37.3054 64.7948C37.1882 65.0868 37.0652 65.3788 36.9568 65.6708L36.7927 66.1176C36.7605 66.2022 36.7547 66.2373 36.7342 66.2986C36.7137 66.3599 36.7049 66.4183 36.6873 66.4767C36.5729 67.0538 36.5151 67.6405 36.5145 68.2287C36.4998 68.8565 36.5145 69.496 36.5496 70.1413C36.5848 70.7866 36.6199 71.4349 36.6785 72.0831C36.7371 72.7314 36.7957 73.3913 36.8572 74.0337L35.7265 74.2644C35.5273 73.6132 35.372 72.965 35.2168 72.308C35.0615 71.651 34.9443 70.991 34.8301 70.3194C34.7158 69.6478 34.6397 68.9733 34.5899 68.2754C34.5289 67.5446 34.5476 66.8093 34.6455 66.0825C34.6631 65.9803 34.6778 65.884 34.7041 65.7905C34.7305 65.6971 34.7568 65.5657 34.7803 65.4985L34.9238 65.0021C35.0176 64.6722 35.1259 64.3451 35.2373 64.021C35.4628 63.3698 35.7089 62.7304 35.9842 62.0996C36.2596 61.4689 36.5525 60.8528 36.8631 60.2454C37.0242 59.9534 37.1941 59.641 37.3669 59.3402C37.5397 59.0395 37.7126 58.7562 37.9293 58.438L39.8862 59.7198Z" fill="#E4897B"/>
<path d="M38.6353 120.012C38.4376 120.006 38.2412 119.978 38.0494 119.93C38.0392 119.929 38.0297 119.924 38.0224 119.916C38.015 119.909 38.0101 119.9 38.0084 119.889C38.0066 119.879 38.0078 119.868 38.0119 119.858C38.0161 119.848 38.023 119.84 38.0319 119.834C38.111 119.781 38.8023 119.337 39.0689 119.457C39.0985 119.471 39.1239 119.492 39.1425 119.519C39.161 119.545 39.172 119.577 39.1743 119.609C39.1881 119.661 39.1871 119.716 39.1716 119.767C39.1561 119.819 39.1266 119.865 39.0864 119.901C38.9544 119.991 38.7942 120.031 38.6353 120.012ZM38.1871 119.854C38.5855 119.933 38.8843 119.919 38.9986 119.813C39.0237 119.789 39.042 119.759 39.0518 119.726C39.0615 119.693 39.0624 119.657 39.0542 119.624C39.0538 119.609 39.0492 119.594 39.041 119.582C39.0327 119.569 39.021 119.56 39.0073 119.554C38.8697 119.492 38.4683 119.685 38.1871 119.854V119.854Z" fill="#407BFF"/>
<path d="M38.0465 119.933C38.0379 119.936 38.0288 119.936 38.0201 119.933C38.0117 119.929 38.0048 119.922 38.0001 119.914C37.9954 119.905 37.9932 119.896 37.9938 119.886C37.9938 119.86 37.9938 119.206 38.2428 118.987C38.2735 118.96 38.3098 118.939 38.3492 118.926C38.3886 118.914 38.4302 118.909 38.4713 118.914C38.5145 118.915 38.5561 118.93 38.5892 118.958C38.6223 118.985 38.6448 119.024 38.6529 119.066C38.7056 119.32 38.2896 119.811 38.067 119.942C38.0596 119.941 38.0525 119.938 38.0465 119.933ZM38.4361 119.01C38.3917 119.011 38.349 119.027 38.316 119.057C38.172 119.269 38.0982 119.52 38.1051 119.775C38.3219 119.6 38.5797 119.232 38.5474 119.078C38.5474 119.051 38.5269 119.022 38.4595 119.013L38.4361 119.01Z" fill="#407BFF"/>
<path d="M49.0111 120.012C48.7698 120.008 48.5294 119.981 48.2934 119.93C48.2822 119.929 48.2717 119.924 48.2637 119.916C48.2558 119.908 48.2507 119.898 48.2495 119.886C48.2482 119.875 48.2503 119.864 48.2555 119.854C48.2607 119.844 48.2688 119.836 48.2788 119.831C48.3813 119.778 49.2894 119.317 49.5677 119.469C49.5944 119.483 49.6172 119.503 49.6336 119.528C49.65 119.553 49.6596 119.582 49.6614 119.612C49.6678 119.66 49.6621 119.709 49.6447 119.754C49.6273 119.8 49.5988 119.84 49.5618 119.872C49.3998 119.98 49.2054 120.03 49.0111 120.012V120.012ZM48.4721 119.854C48.9789 119.939 49.3509 119.916 49.4915 119.793C49.5149 119.771 49.5327 119.744 49.5434 119.714C49.5541 119.684 49.5574 119.652 49.553 119.621C49.5529 119.609 49.5496 119.597 49.5434 119.587C49.5373 119.576 49.5284 119.568 49.5179 119.562C49.3656 119.481 48.8441 119.676 48.4721 119.854Z" fill="#407BFF"/>
<path d="M48.3022 119.933C48.2976 119.935 48.2926 119.936 48.2875 119.936C48.2825 119.936 48.2775 119.935 48.2729 119.933C48.2645 119.929 48.2577 119.922 48.2534 119.914C48.2492 119.905 48.2478 119.896 48.2495 119.886C48.2495 119.86 48.3051 119.247 48.5893 119.01C48.6709 118.942 48.7761 118.909 48.8822 118.917C49.0316 118.932 49.0726 119.008 49.0843 119.069C49.1253 119.326 48.5893 119.816 48.3168 119.945L48.3022 119.933ZM48.8471 119.01C48.7782 119.011 48.7119 119.036 48.6596 119.081C48.4916 119.278 48.3892 119.523 48.3666 119.781C48.642 119.615 49.0082 119.229 48.9818 119.075C48.9818 119.075 48.9818 119.022 48.8764 119.013L48.8471 119.01Z" fill="#407BFF"/>
<path d="M43.3545 50.9511C43.5332 52.3147 43.9404 55.08 42.9503 55.9151C42.9503 55.9151 43.2432 57.305 45.739 57.4656C48.4985 57.6437 47.1451 56.1866 47.1451 56.1866C45.6628 55.7311 45.7742 54.6186 46.1052 53.5908L43.3545 50.9511Z" fill="#E4897B"/>
<path d="M48.4721 48.18C48.4545 48.1796 48.4373 48.1746 48.4223 48.1654C48.4095 48.159 48.3982 48.15 48.389 48.1391C48.3799 48.1281 48.373 48.1155 48.3689 48.1018C48.3648 48.0881 48.3635 48.0738 48.3651 48.0596C48.3668 48.0455 48.3713 48.0318 48.3784 48.0194C48.4545 47.8649 48.5669 47.7311 48.7062 47.6294C48.8455 47.5277 49.0074 47.4612 49.1781 47.4354C49.2043 47.4364 49.2293 47.4469 49.2483 47.4648C49.2674 47.4828 49.2793 47.507 49.2818 47.5331C49.2843 47.5591 49.2772 47.5851 49.2619 47.6064C49.2466 47.6276 49.2241 47.6426 49.1986 47.6486V47.6486C49.065 47.6718 48.9387 47.7256 48.8294 47.8056C48.7201 47.8856 48.6309 47.9898 48.5688 48.1099C48.5605 48.1292 48.5471 48.1458 48.5301 48.1582C48.5131 48.1705 48.493 48.178 48.4721 48.18V48.18Z" fill="#263238"/>
<path d="M49.2601 49.3772C49.4619 49.7782 49.7182 50.1497 50.0217 50.481C49.9347 50.5564 49.8322 50.6119 49.7214 50.6437C49.6106 50.6755 49.4941 50.6827 49.3802 50.6649L49.2601 49.3772Z" fill="#DE5753"/>
<path d="M49.0668 49.0794C49.0843 49.2633 49.1957 49.4006 49.3128 49.3889C49.43 49.3772 49.5179 49.2224 49.5003 49.0385C49.4827 48.8545 49.3714 48.7173 49.2513 48.729C49.1312 48.7406 49.0492 48.8983 49.0668 49.0794Z" fill="#263238"/>
<path d="M49.2132 48.7436L49.6409 48.5771C49.6409 48.5771 49.4359 48.9392 49.2132 48.7436Z" fill="#263238"/>
<path d="M45.7947 119.878H48.0766L48.229 114.616H45.947L45.7947 119.878Z" fill="#E4897B"/>
<path d="M35.4335 119.878H37.7155L38.4478 114.616H36.1688L35.4335 119.878Z" fill="#E4897B"/>
<path d="M37.8561 119.615H35.2929C35.249 119.614 35.2064 119.63 35.173 119.658C35.1396 119.687 35.1177 119.726 35.1113 119.77L34.8184 121.79C34.8126 121.841 34.8177 121.893 34.8333 121.942C34.8489 121.991 34.8747 122.036 34.909 122.074C34.9433 122.112 34.9853 122.143 35.0322 122.164C35.0792 122.185 35.1301 122.196 35.1816 122.196C36.0604 122.182 36.5057 122.129 37.6335 122.129C38.3248 122.129 39.3384 122.199 40.2963 122.199C41.2542 122.199 41.304 121.256 40.9056 121.171C39.1187 120.789 38.8374 120.26 38.234 119.755C38.1286 119.665 37.9947 119.616 37.8561 119.615V119.615Z" fill="#263238"/>
<path d="M48.1528 119.615H45.5925C45.5484 119.614 45.5055 119.629 45.472 119.658C45.4384 119.686 45.4167 119.726 45.4109 119.77L45.118 121.79C45.1127 121.841 45.1182 121.893 45.1341 121.942C45.1501 121.991 45.1762 122.036 45.2107 122.074C45.2452 122.113 45.2873 122.143 45.3344 122.164C45.3816 122.185 45.4326 122.196 45.4842 122.196C46.363 122.182 46.8082 122.129 47.9331 122.129C48.6274 122.129 50.0598 122.199 51.0177 122.199C51.9756 122.199 52.0254 121.256 51.627 121.171C49.8401 120.789 49.1371 120.26 48.5336 119.755C48.4275 119.665 48.2924 119.615 48.1528 119.615V119.615Z" fill="#263238"/>
<path d="M48.226 114.616L48.1499 117.329H45.8679L45.947 114.616H48.226Z" fill="#CE6F64"/>
<path d="M36.1659 114.616H38.4478L38.0699 117.329H35.788L36.1659 114.616Z" fill="#CE6F64"/>
<path d="M40.8587 60.0702C40.4256 60.7447 39.924 61.3729 39.3618 61.9449L39.1011 61.7726L36.2127 59.86C36.2127 59.86 37.7887 56.356 38.9751 56.1779C40.1088 55.9968 40.9349 57.1648 41.3186 58.4146C41.4651 58.8672 41.2219 59.4804 40.8587 60.0702Z" fill="#407BFF"/>
<path opacity="0.6" d="M40.8587 60.0702C40.4256 60.7447 39.924 61.3729 39.3618 61.9449L39.1011 61.7726L36.2127 59.86C36.2127 59.86 37.7887 56.356 38.9751 56.1779C40.1088 55.9968 40.9349 57.1648 41.3186 58.4146C41.4651 58.8672 41.2219 59.4804 40.8587 60.0702Z" fill="#FAFAFA"/>
<path d="M40.8587 60.0702C40.4256 60.7447 39.924 61.3729 39.3618 61.9449L39.1011 61.7726C39.23 60.7214 39.6401 59.679 40.1088 59.349C40.3959 59.3782 40.6507 59.6819 40.8587 60.0702Z" fill="#407BFF"/>
<path opacity="0.4" d="M40.8587 60.0702C40.4256 60.7447 39.924 61.3729 39.3618 61.9449L39.1011 61.7726C39.23 60.7214 39.6401 59.679 40.1088 59.349C40.3959 59.3782 40.6507 59.6819 40.8587 60.0702Z" fill="#FAFAFA"/>
<path d="M50.7394 61.8193C50.6017 62.6953 50.4231 63.7261 50.1828 64.9496C49.8899 66.5147 49.4798 68.3922 48.9613 70.6377L39.7192 70.0537C40.1176 66.3132 40.2728 64.0006 38.9751 56.1896C40.2872 56.0069 41.6109 55.92 42.9356 55.9297C44.3386 55.9205 45.7404 56.0113 47.1305 56.2012C48.9232 56.4932 50.9386 57.0305 50.9386 57.0305C50.9386 57.0305 51.4542 57.232 50.7394 61.8193Z" fill="#407BFF"/>
<path opacity="0.6" d="M50.7394 61.8193C50.6017 62.6953 50.4231 63.7261 50.1828 64.9496C49.8899 66.5147 49.4798 68.3922 48.9613 70.6377L39.7192 70.0537C40.1176 66.3132 40.2728 64.0006 38.9751 56.1896C40.2872 56.0069 41.6109 55.92 42.9356 55.9297C44.3386 55.9205 45.7404 56.0113 47.1305 56.2012C48.9232 56.4932 50.9386 57.0305 50.9386 57.0305C50.9386 57.0305 51.4542 57.232 50.7394 61.8193Z" fill="#FAFAFA"/>
<path d="M50.7394 61.8193C50.6017 62.6953 50.4231 63.7261 50.1828 64.9496C49.6745 63.8719 49.2524 62.7559 48.9203 61.612H50.6369L50.7394 61.8193Z" fill="#407BFF"/>
<path opacity="0.4" d="M50.7394 61.8193C50.6017 62.6953 50.4231 63.7261 50.1828 64.9496C49.6745 63.8719 49.2524 62.7559 48.9203 61.612H50.6369L50.7394 61.8193Z" fill="#FAFAFA"/>
<path d="M42.8507 49.0326C43.1993 51.2606 43.3018 52.2125 44.5468 53.255C46.4186 54.8259 49.0873 53.909 49.4124 51.6198C49.7054 49.5612 49.0843 46.2616 46.7965 45.5783C46.2933 45.4244 45.7589 45.4014 45.2442 45.5115C44.7296 45.6217 44.2517 45.8613 43.8562 46.2075C43.4607 46.5538 43.1607 46.9952 42.9847 47.4897C42.8087 47.9842 42.7625 48.5153 42.8507 49.0326V49.0326Z" fill="#E4897B"/>
<path d="M46.5182 70.48C46.5182 70.48 46.3718 74.5359 46.0202 79.6518C45.7273 83.9442 45.285 88.9782 44.6669 92.9903L44.6493 93.1013C43.5391 100.203 38.6207 116.8 38.6207 116.8H35.5097C35.5097 116.8 38.0729 100.769 38.6353 93.732C40.0619 75.958 36.4881 73.9461 39.7192 70.0274L46.5182 70.48Z" fill="#407BFF"/>
<path opacity="0.3" d="M46.5182 70.48C46.5182 70.48 46.3718 74.5359 46.0202 79.6518C45.7273 83.9442 45.285 88.9782 44.6669 92.9903L44.6493 93.1013C43.5391 100.203 38.6207 116.8 38.6207 116.8H35.5097C35.5097 116.8 38.0729 100.769 38.6353 93.732C40.0619 75.958 36.4881 73.9461 39.7192 70.0274L46.5182 70.48Z" fill="black"/>
<path d="M46.0202 79.6518C45.7273 83.9442 45.285 88.9782 44.6669 92.9903C43.6152 87.7781 41.8869 80.1657 44.207 75.1783C44.7606 76.5945 45.4051 78.1947 46.0202 79.6518Z" fill="#407BFF"/>
<path opacity="0.4" d="M46.0202 79.6518C45.7273 83.9442 45.285 88.9782 44.6669 92.9903C43.6152 87.7781 41.8869 80.1657 44.207 75.1783C44.7606 76.5945 45.4051 78.1947 46.0202 79.6518Z" fill="black"/>
<path d="M48.9613 70.6406C48.9613 70.6406 51.5977 86.2159 51.4395 93.148C51.2843 100.36 48.6332 116.8 48.6332 116.8H45.5515C45.5515 116.8 46.0378 100.778 45.7654 93.697C45.4724 85.9765 42.1916 70.1997 42.1916 70.1997L48.9613 70.6406Z" fill="#407BFF"/>
<path opacity="0.3" d="M48.9613 70.6406C48.9613 70.6406 51.5977 86.2159 51.4395 93.148C51.2843 100.36 48.6332 116.8 48.6332 116.8H45.5515C45.5515 116.8 46.0378 100.778 45.7654 93.697C45.4724 85.9765 42.1916 70.1997 42.1916 70.1997L48.9613 70.6406Z" fill="black"/>
<path d="M45.0242 116.946H49.1576L49.4798 115.565L44.8778 115.597L45.0242 116.946Z" fill="#263238"/>
<path d="M35.0586 116.946H39.1919L39.5141 115.565L35.0879 115.597L35.0586 116.946Z" fill="#263238"/>
<path d="M39.6137 69.496L39.145 70.2961C39.1069 70.3574 39.1802 70.4275 39.2856 70.4333L48.9789 71.0611C49.0609 71.0611 49.1341 71.0319 49.1429 70.9794L49.2806 70.1588C49.2806 70.1034 49.2191 70.0508 49.1283 70.045L39.7543 69.4376C39.728 69.4364 39.7018 69.441 39.6775 69.4511C39.6532 69.4612 39.6314 69.4765 39.6137 69.496V69.496Z" fill="#263238"/>
<path d="M40.803 70.6173L40.554 70.5998C40.5042 70.5998 40.4662 70.5676 40.472 70.5384L40.6595 69.4726C40.6595 69.4434 40.7093 69.4201 40.7591 69.423L41.011 69.4376C41.0608 69.4376 41.096 69.4697 41.093 69.5018L40.9056 70.5647C40.8997 70.5968 40.8528 70.6202 40.803 70.6173Z" fill="#407BFF"/>
<path opacity="0.3" d="M40.803 70.6173L40.554 70.5998C40.5042 70.5998 40.4662 70.5676 40.472 70.5384L40.6595 69.4726C40.6595 69.4434 40.7093 69.4201 40.7591 69.423L41.011 69.4376C41.0608 69.4376 41.096 69.4697 41.093 69.5018L40.9056 70.5647C40.8997 70.5968 40.8528 70.6202 40.803 70.6173Z" fill="black"/>
<path d="M46.8697 71.0086L46.6207 70.994C46.5709 70.994 46.5329 70.9618 46.5387 70.9297L46.7262 69.8668C46.7262 69.8347 46.776 69.8143 46.8287 69.8172L47.0777 69.8318C47.1275 69.8318 47.1656 69.8639 47.1598 69.896L46.9723 70.9589C46.9752 70.991 46.9283 71.0115 46.8697 71.0086Z" fill="#407BFF"/>
<path opacity="0.3" d="M46.8697 71.0086L46.6207 70.994C46.5709 70.994 46.5329 70.9618 46.5387 70.9297L46.7262 69.8668C46.7262 69.8347 46.776 69.8143 46.8287 69.8172L47.0777 69.8318C47.1275 69.8318 47.1656 69.8639 47.1598 69.896L46.9723 70.9589C46.9752 70.991 46.9283 71.0115 46.8697 71.0086Z" fill="black"/>
<path d="M51.463 59.3665C51.8145 60.5345 52.1484 61.7171 52.4736 62.8968L53.4549 66.4271L53.578 66.8651L53.6102 66.9731L53.6248 67.0286V67.0578C53.6353 67.0965 53.648 67.1345 53.6629 67.1717C53.7348 67.3492 53.8336 67.5146 53.9559 67.6622C54.3056 68.0302 54.7108 68.3415 55.1569 68.585C56.1788 69.1362 57.2597 69.5711 58.3792 69.8814L58.2093 71.0202C56.8957 70.9528 55.6018 70.6737 54.3777 70.1939C53.7004 69.9293 53.0763 69.5455 52.5351 69.0609C52.2252 68.7745 51.9674 68.4366 51.7735 68.0623C51.7211 67.9611 51.6751 67.8567 51.6358 67.7498L51.6036 67.671L51.5831 67.6155L51.545 67.5075L51.3897 67.0666C50.9796 65.8986 50.5988 64.7306 50.2385 63.545C49.8782 62.3595 49.5237 61.1915 49.2015 60.0002L51.463 59.3665Z" fill="#E4897B"/>
<path d="M50.9386 57.0188C52.1104 57.4014 53.3407 61.2207 53.3407 61.2207L49.1107 63.037C49.1107 63.037 47.3531 58.7504 48.1323 57.781C48.9115 56.8115 49.594 56.5808 50.9386 57.0188Z" fill="#407BFF"/>
<path opacity="0.6" d="M50.9386 57.0188C52.1104 57.4014 53.3407 61.2207 53.3407 61.2207L49.1107 63.037C49.1107 63.037 47.3531 58.7504 48.1323 57.781C48.9115 56.8115 49.594 56.5808 50.9386 57.0188Z" fill="#FAFAFA"/>
<path d="M48.6772 45.4498C47.9302 44.53 42.1593 43.873 41.8517 46.3784C39.8012 47.8092 41.7463 51.5059 42.0392 52.4461C40.6243 52.8374 36.0663 54.3908 39.4028 57.4101C42.7393 60.4294 47.7427 59.9155 48.7211 56.7911C49.4066 54.6069 47.23 50.9511 47.2769 49.6721C47.3238 48.3932 49.9573 47.012 48.6772 45.4498Z" fill="#263238"/>
<path d="M42.4435 52.9075C42.4328 52.9078 42.4221 52.9056 42.4125 52.9011C42.4028 52.8965 42.3943 52.8897 42.3878 52.8812C41.8576 52.2388 40.0121 48.8633 40.6595 47.2573C40.7599 47.0081 40.9301 46.793 41.1498 46.6377C41.3696 46.4823 41.6295 46.3933 41.8986 46.3813C41.9081 46.3801 41.9177 46.3808 41.9269 46.3834C41.9361 46.386 41.9446 46.3904 41.952 46.3965C41.9594 46.4025 41.9655 46.4099 41.9699 46.4184C41.9743 46.4268 41.977 46.436 41.9777 46.4455C41.9802 46.4645 41.9752 46.4836 41.9637 46.4989C41.9522 46.5142 41.9351 46.5244 41.9162 46.5273C41.6742 46.5362 41.4399 46.6141 41.2411 46.7518C41.0422 46.8895 40.8871 47.0811 40.7942 47.304C40.1703 48.8574 41.9806 52.1541 42.4991 52.7848C42.5084 52.7951 42.5144 52.8079 42.5164 52.8216C42.5184 52.8353 42.5163 52.8492 42.5103 52.8617C42.5044 52.8742 42.4948 52.8846 42.483 52.8917C42.4711 52.8989 42.4573 52.9023 42.4435 52.9016V52.9075Z" fill="#263238"/>
<path d="M46.8199 49.5349C46.8853 49.9613 47.0915 50.3538 47.4058 50.6503C47.8218 51.0474 48.2143 50.7759 48.2524 50.2707C48.2875 49.8181 48.1118 49.0677 47.6197 48.8574C47.1275 48.6472 46.7584 49.0297 46.8199 49.5349Z" fill="#E4897B"/>
<path d="M56.9438 69.5661L58.6077 69.0025L58.347 70.9969C58.347 70.9969 57.6908 71.2889 56.8413 70.553L56.0298 70.0362L56.6684 69.6887C56.756 69.639 56.8482 69.5979 56.9438 69.5661Z" fill="#E4897B"/>
<path d="M59.7706 68.9967L59.2609 70.7399L58.347 70.994L58.6077 69.0025L59.7706 68.9967Z" fill="#E4897B"/>
</svg>
