<svg width="1440" height="1024" viewBox="0 0 1440 1024" fill="none" xmlns="http://www.w3.org/2000/svg">
<rect width="1440" height="1024" fill="white"/>
<rect width="1440" height="1024" fill="white"/>
<rect x="210" y="598" width="95" height="364" fill="#25F9D3"/>
<rect x="389" y="486" width="95" height="476" fill="#25F9D3"/>
<rect x="568" y="522" width="95" height="440" fill="#25F9D3"/>
<rect x="747" y="380" width="95" height="582" fill="#25F9D3"/>
<rect x="903" y="239" width="95" height="723" fill="#25F9D3"/>
<path d="M1105.54 28.4644C1103.58 26.5118 1100.42 26.5118 1098.46 28.4644L1066.64 60.2842C1064.69 62.2368 1064.69 65.4027 1066.64 67.3553C1068.6 69.3079 1071.76 69.3079 1073.72 67.3553L1102 39.071L1130.28 67.3553C1132.24 69.3079 1135.4 69.3079 1137.36 67.3553C1139.31 65.4027 1139.31 62.2368 1137.36 60.2842L1105.54 28.4644ZM1107 1013V31.9999H1097V1013H1107Z" fill="#A09494"/>
<path d="M1015.41 150.448C1015.27 182.981 986.026 209.233 950.081 209.083C914.137 208.933 885.11 182.438 885.246 149.904C885.382 117.371 914.629 91.1217 950.573 91.2718C986.518 91.4219 1015.54 117.914 1015.41 150.448Z" fill="#FFCB5A"/>
<path d="M950.404 131.77L966.675 131.838L966.706 124.473L954.503 124.422L954.549 113.379L946.413 113.345L946.365 124.911C939.362 126.528 934.131 132.225 934.102 139.065C934.068 147.186 941.338 153.823 950.312 153.86C954.797 153.879 958.434 157.194 958.417 161.256C958.4 165.319 954.736 168.604 950.25 168.585L933.979 168.517L933.949 175.882L946.152 175.933L946.106 186.976L954.241 187.01L954.29 175.444C961.292 173.827 966.524 168.13 966.552 161.29C966.586 153.169 959.317 146.532 950.343 146.495C945.857 146.476 942.221 143.161 942.238 139.099C942.255 135.037 945.918 131.752 950.404 131.77Z" fill="white"/>
<path d="M46 1014L1105.95 1014" stroke="#A09494" stroke-width="10"/>
</svg>
