<?xml version="1.0" encoding="UTF-8"?><svg xmlns="http://www.w3.org/2000/svg" xmlns:xlink="http://www.w3.org/1999/xlink" width="16px" height="16px" viewBox="0 0 16 16" version="1.1"><title>issue-closed</title><g id="Octicons" stroke="none" stroke-width="1" fill="none" fill-rule="evenodd"><g id="issue-closed" fill="#000"><path d="M7 10h2v2H7v-2zm2-6H7v5h2V4zm1.5 1.5l-1 1L12 9l4-4.5-1-1L12 7l-1.5-1.5zM8 13.7A5.71 5.71 0 0 1 2.3 8c0-3.14 2.56-5.7 5.7-5.7 1.83 0 3.45.88 4.5 2.2l.92-.92A6.947 6.947 0 0 0 8 1C4.14 1 1 4.14 1 8s3.14 7 7 7 7-3.14 7-7l-1.52 1.52c-.66 2.41-2.86 4.19-5.48 4.19v-.01z" id="Shape"/></g></g><metadata><rdf:RDF xmlns:rdf="http://www.w3.org/1999/02/22-rdf-syntax-ns#" xmlns:rdfs="http://www.w3.org/2000/01/rdf-schema#" xmlns:dc="http://purl.org/dc/elements/1.1/"><rdf:Description about="https://iconscout.com/legal#licenses" dc:title="issue,closed" dc:description="issue,closed" dc:publisher="Iconscout" dc:date="2017-09-14" dc:format="image/svg+xml" dc:language="en"><dc:creator><rdf:Bag><rdf:li>Github</rdf:li></rdf:Bag></dc:creator></rdf:Description></rdf:RDF></metadata></svg>