<svg width="840" height="500" viewBox="0 0 840 500" fill="none" xmlns="http://www.w3.org/2000/svg">
<rect width="840" height="500" fill="white"/>
<rect width="840" height="500" fill="white"/>
<path d="M249.75 418.75V379.225C249.749 374.387 247.815 369.679 244.236 365.801C240.658 361.923 235.625 359.082 229.888 357.7L219.864 355.262C215.09 354.098 210.905 351.722 207.93 348.488C204.955 345.253 203.347 341.33 203.344 337.3V317.5H147.656V337.3C147.653 341.33 146.045 345.253 143.07 348.488C140.095 351.722 135.91 354.098 131.136 355.262L121.112 357.7C115.375 359.082 110.342 361.923 106.764 365.801C103.185 369.679 101.251 374.387 101.25 379.225V418.75H249.75Z" fill="#365E7D"/>
<path d="M215.92 353.95C204.742 361.882 190.375 366.256 175.5 366.256C160.625 366.256 146.257 361.882 135.08 353.95C138.87 352.379 142.049 349.993 144.268 347.055C146.487 344.117 147.659 340.742 147.656 337.3V317.5H203.344V337.3C203.34 340.742 204.513 344.117 206.732 347.055C208.951 349.993 212.13 352.379 215.92 353.95V353.95Z" fill="#FFCBBE"/>
<path d="M175.5 336.25C163.192 336.25 151.389 332.299 142.686 325.267C133.983 318.234 129.094 308.696 129.094 298.75V250H221.906V298.75C221.906 308.696 217.017 318.234 208.314 325.267C199.611 332.299 187.808 336.25 175.5 336.25Z" fill="#FFDDCE"/>
<path d="M119.812 261.25H129.094V280H119.812C117.351 280 114.99 279.21 113.25 277.803C111.509 276.397 110.531 274.489 110.531 272.5V268.75C110.531 266.761 111.509 264.853 113.25 263.447C114.99 262.04 117.351 261.25 119.812 261.25V261.25Z" fill="#FFCBBE"/>
<path d="M231.188 280H221.906V261.25H231.188C233.649 261.25 236.01 262.04 237.75 263.447C239.491 264.853 240.469 266.761 240.469 268.75V272.5C240.469 274.489 239.491 276.397 237.75 277.803C236.01 279.21 233.649 280 231.188 280Z" fill="#FFCBBE"/>
<path d="M226.547 261.25H124.453V242.5C124.453 231.56 129.831 221.068 139.404 213.332C148.978 205.596 161.962 201.25 175.5 201.25C189.038 201.25 202.022 205.596 211.596 213.332C221.169 221.068 226.547 231.56 226.547 242.5V261.25Z" fill="#365E7D"/>
<path d="M221.906 261.25H129.094L143.016 238.75H203.344L221.906 261.25Z" fill="#A7DAF7"/>
<path d="M78.0468 292.525V313.75L87.3281 317.5L96.6093 313.75V292.563C101.072 293.833 105.059 296.002 108.194 298.866C111.329 301.729 113.507 305.192 114.523 308.926C115.539 312.66 115.359 316.542 113.999 320.204C112.639 323.866 110.146 327.187 106.754 329.853C105.006 331.232 103.618 332.88 102.673 334.701C101.728 336.521 101.244 338.476 101.25 340.45V403.75H73.4062V340.488C73.3867 338.474 72.8735 336.484 71.8961 334.632C70.9187 332.781 69.4967 331.104 67.7122 329.699C64.3592 327.02 61.9044 323.696 60.5785 320.04C59.2526 316.384 59.0992 312.515 60.1326 308.798C61.1661 305.08 63.3525 301.637 66.4863 298.79C69.6201 295.943 73.5983 293.787 78.0468 292.525V292.525Z" fill="#D8D7DA"/>
<path d="M235.828 355V418.75H115.172V358.75L138.375 351.25L143.016 385H207.984L212.625 351.25L235.828 355Z" fill="#66C5D2"/>
<path d="M64.125 373.75H78.0469V392.5H54.8438V381.25C54.8438 379.261 55.8216 377.353 57.5622 375.947C59.3027 374.54 61.6635 373.75 64.125 373.75V373.75Z" fill="#FFDDCE"/>
<path d="M82.6875 418.75H54.8438V388.75H82.6875C87.6106 388.75 92.332 390.33 95.8132 393.143C99.2943 395.956 101.25 399.772 101.25 403.75C101.25 407.728 99.2943 411.544 95.8132 414.357C92.332 417.17 87.6106 418.75 82.6875 418.75Z" fill="#FFDDCE"/>
<path d="M249.75 355H277.594V396.25C277.594 399.234 276.127 402.095 273.516 404.205C270.905 406.315 267.364 407.5 263.672 407.5C259.98 407.5 256.438 406.315 253.828 404.205C251.217 402.095 249.75 399.234 249.75 396.25V355Z" fill="#8CC63E"/>
<path d="M272.953 321.25V355H254.391V321.25L249.75 317.5L254.391 295H272.953L277.594 317.5L272.953 321.25Z" fill="#E9E9EA"/>
<path d="M296.156 392.5H272.953V373.75H286.875C289.337 373.75 291.697 374.54 293.438 375.947C295.178 377.353 296.156 379.261 296.156 381.25V392.5Z" fill="#FFDDCE"/>
<path d="M268.312 418.75H296.156V388.75H268.312C263.389 388.75 258.668 390.33 255.187 393.143C251.706 395.956 249.75 399.772 249.75 403.75C249.75 407.728 251.706 411.544 255.187 414.357C258.668 417.17 263.389 418.75 268.312 418.75Z" fill="#FFDDCE"/>
<path d="M133.734 403.75H221.906V418.75H133.734V403.75Z" fill="#346C9F"/>
<path d="M156.938 287.5C158.168 287.5 159.349 287.105 160.219 286.402C161.089 285.698 161.578 284.745 161.578 283.75V280C161.578 279.005 161.089 278.052 160.219 277.348C159.349 276.645 158.168 276.25 156.938 276.25C155.707 276.25 154.526 276.645 153.656 277.348C152.786 278.052 152.297 279.005 152.297 280V283.75C152.297 284.745 152.786 285.698 153.656 286.402C154.526 287.105 155.707 287.5 156.938 287.5Z" fill="black"/>
<path d="M194.062 287.5C195.293 287.5 196.474 287.105 197.344 286.402C198.214 285.698 198.703 284.745 198.703 283.75V280C198.703 279.005 198.214 278.052 197.344 277.348C196.474 276.645 195.293 276.25 194.062 276.25C192.832 276.25 191.651 276.645 190.781 277.348C189.911 278.052 189.422 279.005 189.422 280V283.75C189.422 284.745 189.911 285.698 190.781 286.402C191.651 287.105 192.832 287.5 194.062 287.5Z" fill="black"/>
<path d="M175.5 317.5C185.909 317.5 194.062 312.558 194.062 306.25H184.781C184.781 307.78 181.166 310 175.5 310C169.834 310 166.219 307.78 166.219 306.25H156.938C156.938 312.558 165.091 317.5 175.5 317.5Z" fill="black"/>
<path d="M286.875 370H282.234V355C282.234 354.005 281.745 353.052 280.875 352.348C280.005 351.645 278.825 351.25 277.594 351.25V322.787L280.889 320.162C281.407 319.739 281.795 319.223 282.021 318.657C282.246 318.09 282.304 317.488 282.188 316.9L277.547 294.4C277.371 293.519 276.811 292.718 275.969 292.141C275.127 291.563 274.057 291.247 272.953 291.25H254.391C253.286 291.247 252.217 291.563 251.375 292.141C250.533 292.718 249.973 293.519 249.796 294.4L245.156 316.9C245.04 317.488 245.097 318.09 245.323 318.657C245.549 319.223 245.937 319.739 246.455 320.162L249.75 322.787V351.25C248.519 351.25 247.339 351.645 246.469 352.348C245.598 353.052 245.109 354.005 245.109 355V360.887C241.265 357.717 236.493 355.382 231.234 354.1L221.21 351.663C217.379 350.747 214.019 348.852 211.635 346.263C209.25 343.673 207.969 340.528 207.984 337.3V330.55C213.79 326.684 218.464 321.828 221.674 316.33C224.883 310.832 226.547 304.829 226.547 298.75V283.75H231.188C234.876 283.741 238.411 282.553 241.02 280.445C243.628 278.337 245.098 275.481 245.109 272.5V268.75C245.098 265.769 243.628 262.913 241.02 260.805C238.411 258.697 234.876 257.509 231.188 257.5V242.5C231.188 230.565 225.32 219.119 214.877 210.68C204.434 202.241 190.269 197.5 175.5 197.5C160.731 197.5 146.566 202.241 136.123 210.68C125.68 219.119 119.812 230.565 119.812 242.5V257.5C116.124 257.509 112.589 258.697 109.98 260.805C107.372 262.913 105.902 265.769 105.891 268.75V272.5C105.902 275.481 107.372 278.337 109.98 280.445C112.589 282.553 116.124 283.741 119.812 283.75H124.453V298.75C124.453 304.829 126.117 310.832 129.326 316.33C132.536 321.828 137.21 326.684 143.016 330.55V337.3C143.031 340.528 141.75 343.673 139.365 346.263C136.981 348.852 133.621 350.747 129.79 351.663L119.766 354.1C114.507 355.382 109.735 357.717 105.891 360.887V340.45C105.881 338.974 106.242 337.512 106.952 336.152C107.662 334.791 108.706 333.562 110.021 332.537C113.972 329.424 116.876 325.547 118.456 321.274C120.036 317.001 120.241 312.473 119.052 308.118C117.863 303.763 115.318 299.725 111.659 296.386C108 293.047 103.347 290.518 98.1408 289.037C97.4428 288.831 96.6933 288.765 95.9566 288.844C95.2199 288.923 94.518 289.146 93.9111 289.492C93.3042 289.839 92.8104 290.299 92.4721 290.834C92.1338 291.369 91.9611 291.962 91.9688 292.562V311.425L87.3281 313.3L82.6875 311.425V292.525C82.6952 291.924 82.5225 291.331 82.1842 290.797C81.8459 290.262 81.3521 289.802 80.7452 289.455C80.1382 289.108 79.4363 288.886 78.6996 288.807C77.9629 288.727 77.2134 288.794 76.5155 289C71.3263 290.47 66.6845 292.981 63.0263 296.298C59.3681 299.616 56.8135 303.63 55.6025 307.964C54.3915 312.299 54.5639 316.811 56.1034 321.076C57.6429 325.342 60.499 329.221 64.4034 332.35C65.7675 333.401 66.8564 334.663 67.6057 336.061C68.355 337.459 68.7494 338.964 68.7656 340.488V370H64.125C60.4361 370.009 56.9014 371.197 54.2929 373.305C51.6844 375.413 50.2141 378.269 50.2031 381.25V418.75C50.2031 419.745 50.692 420.698 51.5623 421.402C52.4326 422.105 53.613 422.5 54.8438 422.5H82.6875C87.7283 422.489 92.623 421.131 96.6094 418.638V418.75C96.6094 419.745 97.0983 420.698 97.9686 421.402C98.8389 422.105 100.019 422.5 101.25 422.5H249.75C250.981 422.5 252.161 422.105 253.031 421.402C253.902 420.698 254.391 419.745 254.391 418.75V418.638C258.377 421.131 263.272 422.489 268.312 422.5H296.156C297.387 422.5 298.567 422.105 299.438 421.402C300.308 420.698 300.797 419.745 300.797 418.75V381.25C300.786 378.269 299.316 375.413 296.707 373.305C294.099 371.197 290.564 370.009 286.875 370ZM226.547 265H231.188C232.418 265 233.599 265.395 234.469 266.098C235.339 266.802 235.828 267.755 235.828 268.75V272.5C235.828 273.495 235.339 274.448 234.469 275.152C233.599 275.855 232.418 276.25 231.188 276.25H226.547V265ZM59.4844 381.25C59.4844 380.255 59.9733 379.302 60.8436 378.598C61.7139 377.895 62.8942 377.5 64.125 377.5H73.4062V385H59.4844V381.25ZM82.6875 415H59.4844V392.5H82.6875C86.3798 392.5 89.9209 393.685 92.5318 395.795C95.1426 397.905 96.6094 400.766 96.6094 403.75C96.6094 406.734 95.1426 409.595 92.5318 411.705C89.9209 413.815 86.3798 415 82.6875 415ZM96.6094 340.45V388.862C92.623 386.369 87.7283 385.011 82.6875 385V373.75C82.6875 372.755 82.1986 371.802 81.3283 371.098C80.458 370.395 79.2776 370 78.0469 370V340.488C78.0303 337.975 77.3938 335.49 76.1747 333.178C74.9555 330.867 73.1782 328.775 70.9467 327.025C68.5825 325.13 66.7519 322.846 65.5799 320.327C64.4079 317.809 63.922 315.116 64.1555 312.432C64.389 309.748 65.3363 307.136 66.9327 304.775C68.5292 302.414 70.7373 300.359 73.4062 298.75V313.75C73.3964 314.445 73.6311 315.127 74.083 315.718C74.5349 316.309 75.1854 316.784 75.9586 317.087L85.2398 320.837C85.8825 321.115 86.5997 321.259 87.3281 321.259C88.0565 321.259 88.7737 321.115 89.4164 320.837L98.6977 317.087C99.4709 316.784 100.121 316.309 100.573 315.718C101.025 315.127 101.26 314.445 101.25 313.75V298.75C104.125 300.502 106.459 302.767 108.069 305.37C109.68 307.972 110.522 310.84 110.531 313.75C110.542 316.248 109.926 318.722 108.722 321.023C107.518 323.324 105.749 325.404 103.524 327.137C101.325 328.868 99.5796 330.939 98.3916 333.226C97.2037 335.513 96.5976 337.97 96.6094 340.45ZM110.531 415H105.891V379.225C105.886 375.167 107.514 371.219 110.531 367.975V415ZM124.453 276.25H119.812C118.582 276.25 117.401 275.855 116.531 275.152C115.661 274.448 115.172 273.495 115.172 272.5V268.75C115.172 267.755 115.661 266.802 116.531 266.098C117.401 265.395 118.582 265 119.812 265H124.453V276.25ZM129.094 242.5C129.094 232.554 133.983 223.016 142.686 215.983C151.389 208.951 163.192 205 175.5 205C187.808 205 199.611 208.951 208.314 215.983C217.017 223.016 221.906 232.554 221.906 242.5V254.5L207.195 236.688C206.775 236.172 206.204 235.748 205.532 235.453C204.86 235.159 204.108 235.003 203.344 235H143.016C142.157 234.997 141.315 235.189 140.585 235.553C139.855 235.918 139.266 236.441 138.885 237.062L129.094 252.85V242.5ZM213.228 257.5H136.612L145.893 242.5H200.838L213.228 257.5ZM133.734 298.75V265H217.266V298.75C217.266 307.701 212.865 316.286 205.033 322.615C197.2 328.944 186.577 332.5 175.5 332.5C164.423 332.5 153.8 328.944 145.967 322.615C138.135 316.286 133.734 307.701 133.734 298.75ZM175.5 362.5C164.076 362.572 152.9 359.81 143.48 354.587L143.387 353.762C146.208 351.67 148.457 349.126 149.992 346.291C151.526 343.456 152.311 340.394 152.297 337.3V335.463C159.475 338.444 167.429 340 175.5 340C183.571 340 191.525 338.444 198.703 335.463V337.3C198.689 340.394 199.474 343.456 201.008 346.291C202.543 349.126 204.792 351.67 207.613 353.762L207.52 354.587C198.1 359.81 186.924 362.572 175.5 362.5ZM206.221 363.962L203.808 381.25H147.192L144.779 363.962C154.275 367.93 164.81 370 175.5 370C186.19 370 196.725 367.93 206.221 363.962ZM212.625 415H138.375V407.5H212.625V415ZM231.188 415H221.906V403.75C221.906 402.755 221.417 401.802 220.547 401.098C219.677 400.395 218.496 400 217.266 400H133.734C132.504 400 131.323 400.395 130.453 401.098C129.583 401.802 129.094 402.755 129.094 403.75V415H119.812V362.125C120.675 361.811 121.558 361.536 122.458 361.3L132.481 358.862C133.085 358.712 133.688 358.45 134.291 358.3C134.442 358.389 134.582 358.49 134.709 358.6L138.421 385.413C138.536 386.331 139.07 387.182 139.92 387.799C140.769 388.417 141.873 388.756 143.016 388.75H207.984C209.127 388.756 210.231 388.417 211.08 387.799C211.93 387.182 212.464 386.331 212.579 385.413L216.291 358.6C216.418 358.49 216.558 358.389 216.709 358.3C217.312 358.45 217.915 358.712 218.519 358.862L228.542 361.3C229.445 361.529 230.328 361.805 231.188 362.125V415ZM245.109 415H240.469V367.975C243.486 371.219 245.114 375.167 245.109 379.225V415ZM258.335 298.75H269.009L272.628 316.225L269.658 318.588C268.803 319.303 268.322 320.256 268.312 321.25V351.25H259.031V321.25C259.022 320.256 258.54 319.303 257.685 318.588L254.715 316.225L258.335 298.75ZM254.391 358.75H272.953V370C271.722 370 270.542 370.395 269.672 371.098C268.801 371.802 268.312 372.755 268.312 373.75V385C263.272 385.011 258.377 386.369 254.391 388.862V358.75ZM291.516 415H268.312C264.62 415 261.079 413.815 258.468 411.705C255.857 409.595 254.391 406.734 254.391 403.75C254.391 400.766 255.857 397.905 258.468 395.795C261.079 393.685 264.62 392.5 268.312 392.5H291.516V415ZM291.516 385H277.594V377.5H286.875C288.106 377.5 289.286 377.895 290.156 378.598C291.027 379.302 291.516 380.255 291.516 381.25V385Z" fill="black"/>
<path d="M562.954 293.672C560.288 295.981 557.536 298.219 554.697 300.377C552.143 302.774 549.493 305.099 546.76 307.35L612.678 363.027C616.73 366.449 622.034 368.16 627.344 368.16C629.556 368.16 631.768 367.859 633.888 367.264C636.281 361.173 634.612 354.195 628.872 349.349L562.954 293.672Z" fill="#4DBBEB"/>
<path d="M545.909 306.632C549.115 304.501 552.218 302.268 555.238 299.957C557.974 297.407 560.618 294.786 563.14 292.078L534.655 268.018C531.859 270.512 528.932 272.893 525.88 275.161C523.198 277.738 520.376 280.211 517.424 282.572L545.909 306.632Z" fill="#FFF5CD"/>
<path d="M457.258 81.8823C393.295 89.3099 343.867 135.764 343.867 191.797C343.867 247.837 393.305 294.295 457.277 301.714C479.11 299.175 499.253 292.089 516.311 281.626C527.56 274.729 537.469 266.36 545.634 256.859C561.363 238.568 570.648 216.078 570.648 191.797C570.648 135.764 521.221 89.3099 457.258 81.8823V81.8823Z" fill="#4DBBEB"/>
<path d="M439.281 104.199C496.468 104.199 542.992 143.495 542.992 191.797C542.992 240.099 496.468 279.395 439.281 279.395C382.094 279.395 335.57 240.099 335.57 191.797C335.57 143.495 382.094 104.199 439.281 104.199Z" fill="white"/>
<path d="M456.566 105.422C407.579 112.393 370.141 148.47 370.141 191.797C370.141 235.123 407.579 271.2 456.566 278.172C505.554 271.2 542.992 235.123 542.992 191.797C542.992 148.47 505.554 112.393 456.566 105.422Z" fill="#BEE7F4"/>
<path d="M646.898 334.125L554.608 256.174C569.644 237.047 577.562 214.896 577.562 191.797C577.562 127.394 515.53 75 439.281 75C363.032 75 301 127.394 301 191.797C301 256.199 363.032 308.594 439.281 308.594C466.63 308.594 492.854 301.905 515.501 289.206L541.01 310.752C541.015 310.756 541.018 310.759 541.021 310.763L607.79 367.156C613.016 371.571 619.96 374 627.344 374C634.728 374 641.672 371.571 646.895 367.159C652.121 362.747 655 356.882 655 350.641C655 344.399 652.121 338.534 646.898 334.125V334.125ZM526.755 282.194C533.912 277.248 540.453 271.723 546.306 265.68L565.922 282.248C559.956 288.195 553.412 293.723 546.371 298.762L526.755 282.194ZM314.828 191.797C314.828 133.834 370.656 86.6797 439.281 86.6797C507.906 86.6797 563.734 133.834 563.734 191.797C563.734 214.091 555.54 235.402 540.038 253.428C532.283 262.452 522.933 270.35 512.249 276.899V276.901C490.907 289.993 465.676 296.914 439.281 296.914C370.656 296.914 314.828 249.76 314.828 191.797V191.797ZM637.121 358.899C634.506 361.104 631.036 362.32 627.344 362.32C623.652 362.32 620.181 361.104 617.567 358.899L556.175 307.043C563.175 301.967 569.717 296.444 575.726 290.529L637.121 342.385C639.732 344.591 641.172 347.52 641.172 350.641C641.172 353.761 639.732 356.69 637.121 358.899Z" fill="black"/>
<path d="M549.906 191.797C549.906 140.274 500.282 98.3594 439.281 98.3594C378.281 98.3594 328.656 140.274 328.656 191.797C328.656 243.32 378.281 285.234 439.281 285.234C500.282 285.234 549.906 243.32 549.906 191.797ZM439.281 273.555C385.908 273.555 342.484 236.878 342.484 191.797C342.484 146.716 385.908 110.039 439.281 110.039C492.655 110.039 536.078 146.716 536.078 191.797C536.078 236.878 492.655 273.555 439.281 273.555Z" fill="black"/>
<path d="M512.789 174.275C516.354 173.118 518.134 169.74 516.765 166.729C510.809 153.639 500.444 142.45 486.783 134.368C472.801 126.092 456.375 121.719 439.281 121.719C435.462 121.719 432.367 124.333 432.367 127.559C432.367 130.784 435.462 133.398 439.281 133.398C467.696 133.398 493.648 148.475 503.855 170.917C504.914 173.239 507.533 174.665 510.312 174.665C511.136 174.665 511.973 174.54 512.789 174.275Z" fill="black"/>
<path d="M515.336 185.957C511.52 185.957 508.422 188.574 508.422 191.797C508.422 195.02 511.52 197.637 515.336 197.637C519.152 197.637 522.25 195.02 522.25 191.797C522.25 188.574 519.152 185.957 515.336 185.957Z" fill="black"/>
</svg>
