<svg width="150" height="150" viewBox="0 0 150 150" fill="none" xmlns="http://www.w3.org/2000/svg">
<rect width="150" height="150" fill="white"/>
<rect width="150" height="150" fill="white"/>
<path d="M70.8133 18.6488C71.1987 18.2847 71.8013 18.2847 72.1867 18.6488L131.593 74.7731C132.251 75.3944 131.811 76.5 130.906 76.5H12.0938C11.1891 76.5 10.7495 75.3944 11.4071 74.7731L70.8133 18.6488Z" fill="#2196F3"/>
<rect x="96" y="59" width="1" height="20" fill="white"/>
<rect x="48" y="57" width="1" height="19" fill="white"/>
<rect x="71" y="40" width="1" height="40" fill="white"/>
<rect x="24" y="59" width="2" height="95" transform="rotate(-90 24 59)" fill="white"/>
<rect x="38" y="41" width="2" height="70" transform="rotate(-90 38 41)" fill="white"/>
<path d="M66.88 125H52.24C47.24 125 43.52 124 41.08 122C38.68 120 37.48 116.92 37.48 112.76V94.1C37.48 89.94 38.68 86.86 41.08 84.86C43.52 82.82 47.24 81.8 52.24 81.8H66.88C67.64 81.8 68.18 81.98 68.5 82.34C68.86 82.66 69.04 83.2 69.04 83.96V91.22C69.04 91.98 68.86 92.54 68.5 92.9C68.18 93.22 67.64 93.38 66.88 93.38H54.82C53.58 93.38 52.66 93.64 52.06 94.16C51.46 94.64 51.16 95.38 51.16 96.38V110.66C51.16 111.66 51.46 112.4 52.06 112.88C52.66 113.32 53.58 113.54 54.82 113.54H66.88C67.64 113.54 68.18 113.72 68.5 114.08C68.86 114.4 69.04 114.94 69.04 115.7V122.84C69.04 123.6 68.86 124.16 68.5 124.52C68.18 124.84 67.64 125 66.88 125ZM87.2758 125H77.9758C77.2158 125 76.6558 124.84 76.2958 124.52C75.9758 124.16 75.8158 123.6 75.8158 122.84V83.96C75.8158 83.2 75.9758 82.66 76.2958 82.34C76.6558 81.98 77.2158 81.8 77.9758 81.8H104.736C105.496 81.8 106.036 81.98 106.356 82.34C106.716 82.66 106.896 83.2 106.896 83.96V91.1C106.896 91.86 106.716 92.42 106.356 92.78C106.036 93.1 105.496 93.26 104.736 93.26H89.4358V99.5H99.8758C100.636 99.5 101.176 99.68 101.496 100.04C101.856 100.36 102.036 100.9 102.036 101.66V108.86C102.036 109.62 101.856 110.18 101.496 110.54C101.176 110.86 100.636 111.02 99.8758 111.02H89.4358V122.84C89.4358 123.6 89.2558 124.16 88.8958 124.52C88.5758 124.84 88.0358 125 87.2758 125Z" fill="#2196F3"/>
</svg>
