<svg width="82" height="76" viewBox="0 0 82 76" fill="none" xmlns="http://www.w3.org/2000/svg">
<g clip-path="url(#clip0)">
<path d="M82 0H0V76H82V0Z" fill="#2E73F8"/>
<path d="M40.6303 0.381786C40.8407 0.164486 41.1593 0.164486 41.3697 0.381786L81.6659 41.9949C82.0443 42.386 81.8044 43.1092 81.2958 43.1092H0.704031C0.195631 43.1092 -0.0443358 42.386 0.334329 41.9949L40.6303 0.381786Z" fill="white"/>
<path d="M42.1081 19.7983H41V43.4286H42.1081V19.7983Z" fill="#2E73F8"/>
<path d="M23.8243 31.9328H22.7162V43.4286H23.8243V31.9328Z" fill="#2E73F8"/>
<path d="M8.86487 31.2941V32.5714L72.5811 32.5714V31.2941L8.86487 31.2941Z" fill="#2E73F8"/>
<path d="M8.86487 18.521V19.7983L72.5811 19.7983V18.521L8.86487 18.521Z" fill="#2E73F8"/>
<path d="M60.3919 31.9328H59.2838V43.4286H60.3919V31.9328Z" fill="#2E73F8"/>
<path d="M38.1633 76H30.0519C27.2817 76 25.2206 75.3614 23.8687 74.084C22.539 72.8067 21.8741 70.8397 21.8741 68.1829V56.2656C21.8741 53.6087 22.539 51.6417 23.8687 50.3644C25.2206 49.0615 27.2817 48.4101 30.0519 48.4101H38.1633C38.5844 48.4101 38.8835 48.525 39.0608 48.755C39.2603 48.9593 39.36 49.3042 39.36 49.7896V54.4262C39.36 54.9116 39.2603 55.2693 39.0608 55.4992C38.8835 55.7035 38.5844 55.8057 38.1633 55.8057H31.4814C30.7944 55.8057 30.2846 55.9718 29.9522 56.3039C29.6198 56.6104 29.4535 57.083 29.4535 57.7217V66.8417C29.4535 67.4803 29.6198 67.9529 29.9522 68.2595C30.2846 68.5405 30.7944 68.681 31.4814 68.681H38.1633C38.5844 68.681 38.8835 68.796 39.0608 69.0259C39.2603 69.2303 39.36 69.5751 39.36 70.0605V74.6205C39.36 75.1059 39.2603 75.4635 39.0608 75.6935C38.8835 75.8978 38.5844 76 38.1633 76ZM49.4637 76H44.3109C43.8899 76 43.5796 75.8978 43.3801 75.6935C43.2028 75.4635 43.1142 75.1059 43.1142 74.6205V49.7896C43.1142 49.3042 43.2028 48.9593 43.3801 48.755C43.5796 48.525 43.8899 48.4101 44.3109 48.4101H59.1375C59.5586 48.4101 59.8578 48.525 60.0351 48.755C60.2346 48.9593 60.3343 49.3042 60.3343 49.7896V54.3496C60.3343 54.835 60.2346 55.1926 60.0351 55.4225C59.8578 55.6269 59.5586 55.7291 59.1375 55.7291H50.6604V59.7143H56.4448C56.8659 59.7143 57.1651 59.8293 57.3424 60.0592C57.5419 60.2635 57.6416 60.6084 57.6416 61.0938V65.6921C57.6416 66.1775 57.5419 66.5351 57.3424 66.7651C57.1651 66.9694 56.8659 67.0716 56.4448 67.0716H50.6604V74.6205C50.6604 75.1059 50.5607 75.4635 50.3612 75.6935C50.1839 75.8978 49.8847 76 49.4637 76Z" fill="white"/>
</g>
<defs>
<clipPath id="clip0">
<rect width="82" height="76" fill="white"/>
</clipPath>
</defs>
</svg>
