<svg width="148" height="119" viewBox="0 0 148 119" fill="none" xmlns="http://www.w3.org/2000/svg">
<rect width="148" height="119" fill="white"/>
<path d="M73.3327 0.5978C73.7125 0.257553 74.2875 0.257554 74.6673 0.5978L147.397 65.7552C148.08 66.3675 147.647 67.5 146.729 67.5H1.27064C0.353041 67.5 -0.0800707 66.3675 0.603373 65.7552L73.3327 0.5978Z" fill="url(#paint0_linear)"/>
<rect x="74" y="31" width="2" height="37" fill="white"/>
<rect x="41" y="50" width="2" height="18" fill="white"/>
<rect x="16" y="51" width="2" height="115" transform="rotate(-90 16 51)" fill="white"/>
<rect x="16" y="31" width="2" height="115" transform="rotate(-90 16 31)" fill="white"/>
<rect x="107" y="50" width="2" height="18" fill="white"/>
<path d="M68.88 119H54.24C49.24 119 45.52 118 43.08 116C40.68 114 39.48 110.92 39.48 106.76V88.1C39.48 83.94 40.68 80.86 43.08 78.86C45.52 76.82 49.24 75.8 54.24 75.8H68.88C69.64 75.8 70.18 75.98 70.5 76.34C70.86 76.66 71.04 77.2 71.04 77.96V85.22C71.04 85.98 70.86 86.54 70.5 86.9C70.18 87.22 69.64 87.38 68.88 87.38H56.82C55.58 87.38 54.66 87.64 54.06 88.16C53.46 88.64 53.16 89.38 53.16 90.38V104.66C53.16 105.66 53.46 106.4 54.06 106.88C54.66 107.32 55.58 107.54 56.82 107.54H68.88C69.64 107.54 70.18 107.72 70.5 108.08C70.86 108.4 71.04 108.94 71.04 109.7V116.84C71.04 117.6 70.86 118.16 70.5 118.52C70.18 118.84 69.64 119 68.88 119ZM89.2758 119H79.9758C79.2158 119 78.6558 118.84 78.2958 118.52C77.9758 118.16 77.8158 117.6 77.8158 116.84V77.96C77.8158 77.2 77.9758 76.66 78.2958 76.34C78.6558 75.98 79.2158 75.8 79.9758 75.8H106.736C107.496 75.8 108.036 75.98 108.356 76.34C108.716 76.66 108.896 77.2 108.896 77.96V85.1C108.896 85.86 108.716 86.42 108.356 86.78C108.036 87.1 107.496 87.26 106.736 87.26H91.4358V93.5H101.876C102.636 93.5 103.176 93.68 103.496 94.04C103.856 94.36 104.036 94.9 104.036 95.66V102.86C104.036 103.62 103.856 104.18 103.496 104.54C103.176 104.86 102.636 105.02 101.876 105.02H91.4358V116.84C91.4358 117.6 91.2558 118.16 90.8958 118.52C90.5758 118.84 90.0358 119 89.2758 119Z" fill="url(#paint1_linear)"/>
<defs>
<linearGradient id="paint0_linear" x1="2.5" y1="60.5" x2="109" y2="-38.5" gradientUnits="userSpaceOnUse">
<stop offset="0.0584229" stop-color="#3AA1F2" stop-opacity="0.98"/>
<stop offset="0.270335" stop-color="#37A6E8" stop-opacity="0.79"/>
<stop offset="0.9998" stop-color="#11E95B"/>
<stop offset="0.9999" stop-color="#00FF19"/>
</linearGradient>
<linearGradient id="paint1_linear" x1="59" y1="118.5" x2="115" y2="72.5" gradientUnits="userSpaceOnUse">
<stop stop-color="#3AA1F2"/>
<stop offset="0.750571" stop-color="#32BEB8" stop-opacity="0.945248"/>
<stop offset="1" stop-color="#17EE60" stop-opacity="0.87"/>
</linearGradient>
</defs>
</svg>
