<svg width="311" height="42" viewBox="0 0 311 42" fill="none" xmlns="http://www.w3.org/2000/svg">
<path d="M36.1836 14.4961C34.9531 5.60937 28.1172 0.453124 19.25 0.453124C8.80078 0.453124 0.929688 8.07031 0.929688 21C0.929688 33.9102 8.70313 41.5469 19.25 41.5469C28.7617 41.5469 35.0703 35.3945 36.1836 27.7578L28.8789 27.7187C27.9609 32.4062 24.1328 35.043 19.3477 35.043C12.8633 35.043 8.21484 30.1797 8.21484 21C8.21484 11.9766 12.8242 6.95703 19.3672 6.95703C24.2305 6.95703 28.0391 9.71094 28.8789 14.4961H36.1836ZM55.5928 41.5859C64.3818 41.5859 69.9678 35.3945 69.9678 26.1172C69.9678 16.8203 64.3818 10.6094 55.5928 10.6094C46.8037 10.6094 41.2178 16.8203 41.2178 26.1172C41.2178 35.3945 46.8037 41.5859 55.5928 41.5859ZM55.6318 35.9219C50.7686 35.9219 48.3857 31.5859 48.3857 26.0977C48.3857 20.6094 50.7686 16.2148 55.6318 16.2148C60.417 16.2148 62.7998 20.6094 62.7998 26.0977C62.7998 31.5859 60.417 35.9219 55.6318 35.9219ZM83.0391 23.4219C83.0391 19.0859 85.6562 16.5859 89.3867 16.5859C93.0391 16.5859 95.2266 18.9883 95.2266 22.9922V41H102.297V21.8984C102.316 14.7109 98.2148 10.6094 92.0234 10.6094C87.5312 10.6094 84.4453 12.7578 83.0781 16.0977H82.7266V11H75.9688V41H83.0391V23.4219ZM124.465 11H118.547V3.8125H111.477V11H107.219V16.4687H111.477V33.1484C111.438 38.793 115.539 41.5664 120.852 41.4102C122.863 41.3516 124.25 40.9609 125.012 40.707L123.82 35.1797C123.43 35.2773 122.629 35.4531 121.75 35.4531C119.973 35.4531 118.547 34.8281 118.547 31.9766V16.4687H124.465V11ZM130.378 41H137.448V23.3633C137.448 19.5547 140.319 16.8594 144.206 16.8594C145.397 16.8594 146.882 17.0742 147.487 17.2695V10.7656C146.843 10.6484 145.729 10.5703 144.948 10.5703C141.511 10.5703 138.64 12.5234 137.546 16H137.233V11H130.378V41ZM160.227 41.6055C164.934 41.6055 167.746 39.3984 169.035 36.8789H169.27V41H176.066V20.9219C176.066 12.9922 169.602 10.6094 163.879 10.6094C157.57 10.6094 152.727 13.4219 151.164 18.8906L157.766 19.8281C158.469 17.7773 160.461 16.0195 163.918 16.0195C167.199 16.0195 168.996 17.6992 168.996 20.6484V20.7656C168.996 22.7969 166.867 22.8945 161.574 23.4609C155.754 24.0859 150.188 25.8242 150.188 32.582C150.188 38.4805 154.504 41.6055 160.227 41.6055ZM162.063 36.4102C159.113 36.4102 157.004 35.0625 157.004 32.4648C157.004 29.75 159.367 28.6172 162.531 28.168C164.387 27.9141 168.098 27.4453 169.016 26.7031V30.2383C169.016 33.5781 166.32 36.4102 162.063 36.4102ZM196.262 41.5859C203.801 41.5859 208.605 37.1133 209.113 30.7461H202.355C201.75 33.9688 199.426 35.8242 196.32 35.8242C191.906 35.8242 189.055 32.1328 189.055 26C189.055 19.9453 191.965 16.3125 196.32 16.3125C199.719 16.3125 201.809 18.5 202.355 21.3906H209.113C208.625 14.8867 203.547 10.6094 196.223 10.6094C187.434 10.6094 181.887 16.957 181.887 26.1172C181.887 35.1992 187.297 41.5859 196.262 41.5859ZM229.899 11H223.981V3.8125H216.911V11H212.653V16.4687H216.911V33.1484C216.872 38.793 220.974 41.5664 226.286 41.4102C228.298 41.3516 229.685 40.9609 230.446 40.707L229.255 35.1797C228.864 35.2773 228.063 35.4531 227.185 35.4531C225.407 35.4531 223.981 34.8281 223.981 31.9766V16.4687H229.899V11ZM236.77 41H244.016V24.0078H260.637V17.9336H244.016V7.07422H262.395V0.999999H236.77V41ZM275.754 0.999999H268.684V41H275.754V0.999999ZM296.11 41.5859C304.899 41.5859 310.485 35.3945 310.485 26.1172C310.485 16.8203 304.899 10.6094 296.11 10.6094C287.321 10.6094 281.735 16.8203 281.735 26.1172C281.735 35.3945 287.321 41.5859 296.11 41.5859ZM296.149 35.9219C291.286 35.9219 288.903 31.5859 288.903 26.0977C288.903 20.6094 291.286 16.2148 296.149 16.2148C300.935 16.2148 303.317 20.6094 303.317 26.0977C303.317 31.5859 300.935 35.9219 296.149 35.9219Z" fill="white"/>
</svg>
