<svg width="138" height="138" viewBox="0 0 138 138" fill="none" xmlns="http://www.w3.org/2000/svg">
<path d="M69.4968 124.355C91.4468 124.355 109.241 122.652 109.241 120.551C109.241 118.451 91.4468 116.748 69.4968 116.748C47.5468 116.748 29.7528 118.451 29.7528 120.551C29.7528 122.652 47.5468 124.355 69.4968 124.355Z" fill="#2196F3"/>
<path opacity="0.5" d="M69.4968 124.355C91.4468 124.355 109.241 122.652 109.241 120.551C109.241 118.451 91.4468 116.748 69.4968 116.748C47.5468 116.748 29.7528 118.451 29.7528 120.551C29.7528 122.652 47.5468 124.355 69.4968 124.355Z" fill="white"/>
<path d="M98.5182 24.7324H45.5262V95.1703H98.5182V24.7324Z" fill="white"/>
<path d="M98.532 95.3083H45.54C45.5034 95.3083 45.4683 95.2938 45.4424 95.2679C45.4165 95.242 45.402 95.2069 45.402 95.1703V24.7324C45.402 24.6958 45.4165 24.6607 45.4424 24.6348C45.4683 24.6089 45.5034 24.5944 45.54 24.5944H98.532C98.5686 24.5944 98.6037 24.6089 98.6296 24.6348C98.6555 24.6607 98.67 24.6958 98.67 24.7324V95.1703C98.67 95.2069 98.6555 95.242 98.6296 95.2679C98.6037 95.2938 98.5686 95.3083 98.532 95.3083ZM45.678 95.0323H98.394V24.8704H45.678V95.0323Z" fill="#263238"/>
<path d="M91.6651 61.0264H51.3305V62.6824H91.6651V61.0264Z" fill="#263238"/>
<path d="M91.6651 40.169H58.8073V41.825H91.6651V40.169Z" fill="#263238"/>
<path d="M91.6651 50.5991H51.3305V52.2551H91.6651V50.5991Z" fill="#263238"/>
<path d="M81.3013 81.8809C80.788 82.4329 80.2636 82.9849 79.7281 83.5369H51.336V81.8809H81.3013Z" fill="#263238"/>
<path d="M89.2253 71.4536C88.872 72.0056 88.5104 72.5576 88.1351 73.1096H51.336V71.4536H89.2253Z" fill="#263238"/>
<path d="M65.5942 93.2687C65.5942 93.2687 63.2371 94.4141 56.6352 95.0323H45.6642" stroke="#263238" stroke-linecap="round" stroke-linejoin="round"/>
<path d="M97.37 54.924C97.778 54.3117 98.0248 53.6064 98.0876 52.8733C98.1704 51.9515 98.2312 50.8778 98.2505 50.2237L98.3554 46.6109V54.372L97.37 54.924Z" fill="#263238"/>
<path d="M98.0462 54.0518C98.0462 54.3886 94.9606 62.525 89.2142 71.4398C88.861 71.9918 88.4994 72.5438 88.124 73.0958C86.0649 76.1836 83.7808 79.1154 81.2903 81.8671C80.7769 82.4191 80.2525 82.9711 79.7171 83.5231C75.6737 87.6245 71.0148 91.1159 65.7956 93.1169C66.0937 92.9651 70.6394 90.6715 71.6303 83.5231C71.7039 82.9987 71.7563 82.4467 71.7876 81.8671C71.9201 79.4494 71.6606 76.5514 70.783 73.0958C70.6468 72.5586 70.495 72.0066 70.3276 71.4398C69.0524 67.1315 66.861 62.0255 63.3696 55.9838L62.4698 54.0242L68.3486 55.6802C94.6045 61.7771 98.0324 54.0242 98.0324 54.0242C98.0324 54.0242 98.0462 54.0463 98.0462 54.0518Z" fill="white" stroke="#263238" stroke-linecap="round" stroke-linejoin="round"/>
<path d="M75.4556 78.6131C75.474 79.1018 75.4629 79.5912 75.4225 80.0786Z" fill="white"/>
<path d="M75.4556 78.6131C75.474 79.1018 75.4629 79.5912 75.4225 80.0786" stroke="#263238" stroke-linecap="round" stroke-linejoin="round"/>
<path d="M69.1408 59.8202C72.9551 64.7606 74.8788 73.1096 75.3811 77.0702Z" fill="white"/>
<path d="M69.1408 59.8202C72.9551 64.7606 74.8788 73.1096 75.3811 77.0702" stroke="#263238" stroke-linecap="round" stroke-linejoin="round"/>
<path d="M51.9211 32.4107C51.5493 32.4224 51.1789 32.3593 50.832 32.2251C50.4851 32.0909 50.1686 31.8884 49.9015 31.6295C49.6343 31.3707 49.4219 31.0608 49.2768 30.7182C49.1318 30.3757 49.057 30.0075 49.057 29.6355C49.057 29.2635 49.1318 28.8953 49.2768 28.5528C49.4219 28.2102 49.6343 27.9003 49.9015 27.6415C50.1686 27.3826 50.4851 27.1801 50.832 27.0459C51.1789 26.9117 51.5493 26.8486 51.9211 26.8603C52.0309 26.8603 52.1362 26.9039 52.2139 26.9816C52.2915 27.0592 52.3351 27.1645 52.3351 27.2743C52.3351 27.3841 52.2915 27.4894 52.2139 27.5671C52.1362 27.6447 52.0309 27.6883 51.9211 27.6883C51.535 27.685 51.1567 27.7965 50.8341 28.0086C50.5115 28.2207 50.2591 28.5239 50.1091 28.8797C49.9591 29.2354 49.9181 29.6277 49.9914 30.0068C50.0647 30.3858 50.249 30.7346 50.5209 31.0088C50.7927 31.2829 51.1399 31.4702 51.5183 31.5467C51.8967 31.6232 52.2894 31.5856 52.6464 31.4387C53.0034 31.2917 53.3087 31.0419 53.5235 30.7212C53.7384 30.4004 53.8531 30.023 53.8531 29.6369C53.8531 29.5271 53.8967 29.4218 53.9744 29.3441C54.052 29.2665 54.1573 29.2229 54.2671 29.2229C54.3769 29.2229 54.4822 29.2665 54.5599 29.3441C54.6375 29.4218 54.6811 29.5271 54.6811 29.6369C54.6804 30.3699 54.3898 31.073 53.8728 31.5926C53.3557 32.1122 52.6542 32.4063 51.9211 32.4107V32.4107Z" fill="#263238"/>
<path d="M51.8549 31.2653C49.3184 31.2653 49.1804 25.7839 49.1777 24.6854V24.6523C49.1777 23.5483 49.3074 18.0283 51.8549 18.0283C54.4024 18.0283 54.579 23.9734 54.5928 24.6523L52.3848 24.6937C52.3804 23.4163 52.1945 22.146 51.8328 20.9208C51.5079 22.1335 51.3555 23.386 51.3802 24.6413V24.6744C51.3557 25.9362 51.5137 27.1949 51.8494 28.4114C51.8742 28.3314 51.899 28.2431 51.9266 28.1354L52.1005 27.5365L53.6406 27.9864C53.717 28.0086 53.7882 28.0456 53.8502 28.0954C53.9122 28.1452 53.9638 28.2067 54.002 28.2764C54.0402 28.3462 54.0643 28.4228 54.0728 28.5018C54.0814 28.5809 54.0742 28.6608 54.0518 28.7371V28.7371C53.6047 30.4124 52.8623 31.2653 51.8549 31.2653Z" fill="#BFBFBF" stroke="#263238" stroke-linecap="round" stroke-linejoin="round"/>
<path d="M54.2809 30.0509C54.1711 30.0509 54.0658 30.0073 53.9882 29.9296C53.9105 29.852 53.8669 29.7467 53.8669 29.6369C53.8669 29.1229 53.6639 28.6298 53.3021 28.2649C52.9402 27.8999 52.4488 27.6927 51.9349 27.6883C51.8251 27.6883 51.7198 27.6447 51.6422 27.5671C51.5645 27.4894 51.5209 27.3841 51.5209 27.2743C51.5209 27.1645 51.5645 27.0592 51.6422 26.9816C51.7198 26.9039 51.8251 26.8603 51.9349 26.8603C52.6682 26.8654 53.3698 27.1601 53.8867 27.6802C54.4037 28.2003 54.6942 28.9036 54.6949 29.6369C54.6949 29.7467 54.6513 29.852 54.5737 29.9296C54.496 30.0073 54.3907 30.0509 54.2809 30.0509V30.0509Z" fill="#263238"/>
<path d="M65.0035 32.4107C64.2826 32.3879 63.5989 32.0856 63.097 31.5676C62.5951 31.0497 62.3145 30.3567 62.3145 29.6355C62.3145 28.9143 62.5951 28.2213 63.097 27.7034C63.5989 27.1854 64.2826 26.8831 65.0035 26.8603C65.1133 26.8603 65.2186 26.9039 65.2963 26.9816C65.3739 27.0592 65.4175 27.1645 65.4175 27.2743C65.4175 27.3841 65.3739 27.4894 65.2963 27.5671C65.2186 27.6447 65.1133 27.6883 65.0035 27.6883C64.6181 27.6883 64.2414 27.8026 63.921 28.0167C63.6005 28.2308 63.3508 28.5351 63.2033 28.8912C63.0558 29.2473 63.0172 29.639 63.0924 30.017C63.1676 30.395 63.3532 30.7422 63.6257 31.0147C63.8982 31.2872 64.2454 31.4728 64.6234 31.548C65.0014 31.6232 65.3931 31.5846 65.7492 31.4371C66.1053 31.2896 66.4096 31.0399 66.6237 30.7194C66.8378 30.399 66.9521 30.0223 66.9521 29.6369C66.9521 29.5271 66.9957 29.4218 67.0733 29.3441C67.151 29.2665 67.2563 29.2229 67.3661 29.2229C67.4759 29.2229 67.5812 29.2665 67.6588 29.3441C67.7365 29.4218 67.7801 29.5271 67.7801 29.6369C67.7786 30.3726 67.4855 31.0777 66.9651 31.5976C66.4446 32.1176 65.7392 32.41 65.0035 32.4107Z" fill="#263238"/>
<path d="M64.94 31.2653C62.4036 31.2653 62.2628 25.7839 62.2628 24.6854V24.6523C62.2628 23.5483 62.3898 18.0283 64.94 18.0283C67.4903 18.0283 67.6642 23.9734 67.678 24.6523L65.47 24.6937C65.4658 23.4163 65.2799 22.1459 64.918 20.9208C64.5943 22.1337 64.4428 23.3862 64.4681 24.6413V24.6744C64.4437 25.9416 64.6017 27.2058 64.9373 28.428C64.9649 28.348 64.9897 28.2596 65.0173 28.152L65.1912 27.5531L66.7313 28.003C66.8076 28.0252 66.8789 28.0622 66.9409 28.112C67.0029 28.1617 67.0545 28.2232 67.0927 28.293C67.1309 28.3627 67.1549 28.4393 67.1635 28.5184C67.1721 28.5974 67.1649 28.6774 67.1425 28.7537C66.6899 30.4124 65.9474 31.2653 64.94 31.2653Z" fill="#BFBFBF" stroke="#263238" stroke-linecap="round" stroke-linejoin="round"/>
<path d="M67.3661 30.0509C67.2563 30.0509 67.151 30.0073 67.0733 29.9296C66.9957 29.852 66.9521 29.7467 66.9521 29.6369C66.9514 29.1203 66.7458 28.6251 66.3806 28.2598C66.0153 27.8946 65.5201 27.6891 65.0035 27.6883C64.8937 27.6883 64.7884 27.6447 64.7108 27.5671C64.6331 27.4894 64.5895 27.3841 64.5895 27.2743C64.5895 27.1645 64.6331 27.0592 64.7108 26.9816C64.7884 26.9039 64.8937 26.8603 65.0035 26.8603C65.7397 26.8611 66.4455 27.1538 66.966 27.6744C67.4866 28.1949 67.7793 28.9007 67.7801 29.6369C67.7801 29.7467 67.7365 29.852 67.6588 29.9296C67.5812 30.0073 67.4759 30.0509 67.3661 30.0509V30.0509Z" fill="#263238"/>
<path d="M78.0887 32.4107C77.3678 32.3879 76.6841 32.0856 76.1822 31.5676C75.6803 31.0497 75.3997 30.3567 75.3997 29.6355C75.3997 28.9143 75.6803 28.2213 76.1822 27.7034C76.6841 27.1854 77.3678 26.8831 78.0887 26.8603C78.1985 26.8603 78.3038 26.9039 78.3814 26.9816C78.4591 27.0592 78.5027 27.1645 78.5027 27.2743C78.5027 27.3841 78.4591 27.4894 78.3814 27.5671C78.3038 27.6447 78.1985 27.6883 78.0887 27.6883C77.7033 27.6883 77.3266 27.8026 77.0061 28.0167C76.6857 28.2308 76.4359 28.5351 76.2884 28.8912C76.141 29.2473 76.1024 29.639 76.1776 30.017C76.2527 30.395 76.4383 30.7422 76.7108 31.0147C76.9834 31.2872 77.3306 31.4728 77.7085 31.548C78.0865 31.6232 78.4783 31.5846 78.8344 31.4371C79.1904 31.2896 79.4947 31.0399 79.7088 30.7194C79.923 30.399 80.0372 30.0223 80.0372 29.6369C80.0372 29.5271 80.0809 29.4218 80.1585 29.3441C80.2361 29.2665 80.3414 29.2229 80.4512 29.2229C80.561 29.2229 80.6663 29.2665 80.744 29.3441C80.8216 29.4218 80.8652 29.5271 80.8652 29.6369C80.8638 30.3726 80.5707 31.0777 80.0502 31.5976C79.5298 32.1176 78.8244 32.41 78.0887 32.4107Z" fill="#263238"/>
<path d="M78.0224 31.2653C75.486 31.2653 75.348 25.7839 75.3452 24.6854V24.6523C75.3452 23.5483 75.475 18.0283 78.0224 18.0283C80.5699 18.0283 80.7493 23.9734 80.7604 24.6523L78.5524 24.6937C78.5479 23.4163 78.3621 22.146 78.0004 20.9208C77.6772 22.1375 77.5276 23.3938 77.556 24.6523V24.6854C77.5315 25.9472 77.6896 27.2059 78.0252 28.4225C78.05 28.3424 78.0776 28.2541 78.1025 28.1465L78.2791 27.5476L79.8164 27.9974C79.8928 28.0196 79.964 28.0567 80.026 28.1064C80.0881 28.1562 80.1396 28.2177 80.1778 28.2875C80.216 28.3572 80.2401 28.4338 80.2487 28.5128C80.2572 28.5919 80.2501 28.6719 80.2277 28.7482V28.7482C79.764 30.4124 79.0326 31.2653 78.0224 31.2653Z" fill="#BFBFBF" stroke="#263238" stroke-linecap="round" stroke-linejoin="round"/>
<path d="M80.4512 30.0509C80.3414 30.0509 80.2361 30.0073 80.1585 29.9296C80.0809 29.852 80.0372 29.7467 80.0372 29.6369C80.0365 29.1203 79.831 28.6251 79.4657 28.2598C79.1004 27.8946 78.6052 27.6891 78.0887 27.6883C77.9789 27.6883 77.8736 27.6447 77.7959 27.5671C77.7183 27.4894 77.6747 27.3841 77.6747 27.2743C77.6747 27.1645 77.7183 27.0592 77.7959 26.9816C77.8736 26.9039 77.9789 26.8603 78.0887 26.8603C78.8253 26.8603 79.5318 27.1528 80.053 27.6734C80.5741 28.194 80.8673 28.9002 80.868 29.6369C80.8673 29.7469 80.823 29.8522 80.745 29.9298C80.6669 30.0074 80.5613 30.0509 80.4512 30.0509V30.0509Z" fill="#263238"/>
<path d="M91.1738 32.4107C90.802 32.4224 90.4317 32.3593 90.0847 32.2251C89.7378 32.0909 89.4213 31.8884 89.1542 31.6295C88.887 31.3707 88.6746 31.0608 88.5296 30.7182C88.3845 30.3757 88.3097 30.0075 88.3097 29.6355C88.3097 29.2635 88.3845 28.8953 88.5296 28.5528C88.6746 28.2102 88.887 27.9003 89.1542 27.6415C89.4213 27.3826 89.7378 27.1801 90.0847 27.0459C90.4317 26.9117 90.802 26.8486 91.1738 26.8603C91.2836 26.8603 91.3889 26.9039 91.4666 26.9816C91.5442 27.0592 91.5878 27.1645 91.5878 27.2743C91.5878 27.3841 91.5442 27.4894 91.4666 27.5671C91.3889 27.6447 91.2836 27.6883 91.1738 27.6883C90.7883 27.6878 90.4113 27.8016 90.0905 28.0154C89.7697 28.2292 89.5195 28.5333 89.3716 28.8893C89.2237 29.2453 89.1848 29.6372 89.2596 30.0153C89.3345 30.3935 89.5199 30.741 89.7923 31.0137C90.0647 31.2865 90.4119 31.4724 90.7899 31.5478C91.168 31.6232 91.5599 31.5848 91.9161 31.4374C92.2723 31.29 92.5768 31.0402 92.7911 30.7197C93.0053 30.3992 93.1196 30.0224 93.1196 29.6369C93.1196 29.5271 93.1633 29.4218 93.2409 29.3441C93.3185 29.2665 93.4238 29.2229 93.5336 29.2229C93.6434 29.2229 93.7487 29.2665 93.8264 29.3441C93.904 29.4218 93.9476 29.5271 93.9476 29.6369C93.9469 30.3723 93.6544 31.0774 93.1344 31.5975C92.6144 32.1175 91.9093 32.41 91.1738 32.4107V32.4107Z" fill="#263238"/>
<path d="M91.1076 31.2653C88.5712 31.2653 88.4332 25.7839 88.4304 24.6854V24.6523C88.4304 23.5483 88.5601 18.0283 91.1076 18.0283C93.6551 18.0283 93.84 23.9844 93.84 24.6634L91.632 24.7048C91.6261 23.4274 91.4403 22.1573 91.08 20.9318C90.7536 22.1443 90.6012 23.397 90.6274 24.6523V24.6854C90.6067 25.9494 90.7675 27.2097 91.1048 28.428C91.1324 28.348 91.1573 28.2596 91.1849 28.152L91.3588 27.5531L92.8988 28.003C92.9752 28.0252 93.0464 28.0622 93.1084 28.112C93.1704 28.1617 93.222 28.2232 93.2602 28.293C93.2984 28.3627 93.3225 28.4393 93.3311 28.5184C93.3396 28.5974 93.3325 28.6774 93.3101 28.7537V28.7537C92.8574 30.4124 92.115 31.2653 91.1076 31.2653Z" fill="#BFBFBF" stroke="#263238" stroke-linecap="round" stroke-linejoin="round"/>
<path d="M93.5336 30.0509C93.4238 30.0509 93.3185 30.0073 93.2409 29.9296C93.1633 29.852 93.1196 29.7467 93.1196 29.6369C93.1196 29.1206 92.9147 28.6254 92.5499 28.26C92.1851 27.8947 91.6901 27.6891 91.1738 27.6883C91.064 27.6883 90.9587 27.6447 90.8811 27.5671C90.8035 27.4894 90.7598 27.3841 90.7598 27.2743C90.7598 27.1645 90.8035 27.0592 90.8811 26.9816C90.9587 26.9039 91.064 26.8603 91.1738 26.8603C91.9095 26.8618 92.6146 27.1549 93.1346 27.6753C93.6545 28.1958 93.9469 28.9012 93.9476 29.6369C93.9476 29.7467 93.904 29.852 93.8264 29.9296C93.7487 30.0073 93.6434 30.0509 93.5336 30.0509Z" fill="#263238"/>
<path d="M105.576 94.371C106.858 88.7958 103.378 83.2369 97.8026 81.9549C92.2274 80.6729 86.6685 84.1532 85.3865 89.7284C84.1045 95.3036 87.5848 100.863 93.16 102.145C98.7353 103.427 104.294 99.9462 105.576 94.371Z" fill="#2196F3" stroke="#263238" stroke-miterlimit="10"/>
<path d="M101.527 92.0543C101.527 92.1812 101.502 92.307 101.454 92.4244C101.405 92.5418 101.334 92.6484 101.244 92.7382C101.155 92.8279 101.048 92.8991 100.931 92.9475C100.813 92.9959 100.688 93.0206 100.561 93.0203H96.451V97.1327C96.451 97.3889 96.3492 97.6346 96.168 97.8158C95.9869 97.9969 95.7412 98.0987 95.485 98.0987C95.2288 98.0987 94.9831 97.9969 94.8019 97.8158C94.6207 97.6346 94.519 97.3889 94.519 97.1327V93.012H90.4093C90.1531 93.012 89.9074 92.9102 89.7263 92.7291C89.5451 92.5479 89.4433 92.3022 89.4433 92.046C89.4433 91.7898 89.5451 91.5441 89.7263 91.3629C89.9074 91.1818 90.1531 91.08 90.4093 91.08H94.519V86.9786C94.519 86.7225 94.6207 86.4767 94.8019 86.2956C94.9831 86.1144 95.2288 86.0126 95.485 86.0126C95.7412 86.0126 95.9869 86.1144 96.168 86.2956C96.3492 86.4767 96.451 86.7225 96.451 86.9786V91.08H100.561C100.688 91.08 100.814 91.1053 100.932 91.1543C101.05 91.2034 101.157 91.2753 101.247 91.3659C101.336 91.4564 101.407 91.5639 101.455 91.6821C101.504 91.8002 101.528 91.9267 101.527 92.0543V92.0543Z" fill="white"/>
<path d="M45.816 58.1808C45.816 58.1808 46.6661 63.066 46.5032 63.6732C46.3405 64.1034 46.0519 64.4746 45.6752 64.7386L47.5796 69.265V65.7239C47.5796 65.7239 48.104 57.5267 48.1675 53.8559C48.1945 52.0336 48.1235 50.2112 47.955 48.3966L47.0525 48.5429C47.0525 48.5429 46.0175 56.2129 45.816 58.1808Z" fill="white" stroke="#263238" stroke-linecap="round" stroke-linejoin="round"/>
<path d="M41.8361 117.554L41.3062 113.657L37.7872 113.381L38.1984 117.639C38.7163 118.059 39.3666 118.281 40.033 118.265C40.6993 118.249 41.3384 117.997 41.8361 117.554V117.554Z" fill="white" stroke="#263238" stroke-linecap="round" stroke-linejoin="round"/>
<path d="M37.9693 117.145C37.8534 118.106 37.7402 119.116 38.0162 120.035C38.2922 120.954 39.1009 121.73 39.8958 121.503C40.078 121.454 40.2518 121.352 40.4478 121.319C40.8011 121.258 41.1488 121.446 41.48 121.608C43.4893 122.599 48.7278 122.174 49.1418 121.956C49.2612 121.884 49.3584 121.781 49.4225 121.657C49.4865 121.533 49.515 121.394 49.5047 121.255C49.4944 121.116 49.4457 120.982 49.3641 120.869C49.2825 120.756 49.1712 120.668 49.0424 120.615C46.6385 119.475 46.793 119.762 42.8242 117.513C42.1121 117.11 41.6898 117.303 41.331 117.673C41.0956 117.903 40.8095 118.075 40.4956 118.176C40.1818 118.276 39.8488 118.302 39.5233 118.25C39.1978 118.199 38.8888 118.073 38.6209 117.881C38.353 117.689 38.1336 117.437 37.9804 117.145H37.9693Z" fill="#263238"/>
<path d="M41.6042 108.744C39.8075 110.977 37.5581 113.836 37.5581 113.836L35.9352 110.342C35.9352 110.342 39.7054 105.865 41.6401 101.143C41.6401 102.068 41.7146 103.075 41.7395 103.652C41.8057 105.396 41.6318 107.008 41.6042 108.744Z" fill="#263238"/>
<path d="M37.7899 118.203C37.7816 118.35 37.7232 118.49 37.6243 118.6C37.3152 118.876 36.973 118.376 36.7135 118.048C35.9161 116.988 35.1975 115.871 34.5635 114.706L34.362 112.909L33.7714 113.154H33.6968L33.5257 112.854C32.2175 110.568 33.7796 110.124 35.4439 110.199C35.6344 110.199 36.0318 110.248 36.6721 111.476C36.8443 111.76 36.9983 112.054 37.133 112.357C37.8752 114.21 38.1021 116.23 37.7899 118.203V118.203Z" fill="#263238"/>
<path d="M48.0654 71.1721C48.0037 70.1806 47.9945 69.1866 48.0378 68.1941C48.0559 67.4202 47.895 66.6526 47.5675 65.9512C47.24 65.2498 46.7549 64.6336 46.15 64.1507C46.15 64.1507 44.7037 66.0827 40.572 66.0827H40.365C38.5249 66.0383 36.7002 65.7354 34.9444 65.1829C34.2002 64.9499 33.4703 64.6734 32.7584 64.3549C32.7584 64.3549 32.8412 69.8749 33.0151 75.0058C33.1642 79.0768 34.213 97.3618 34.8754 103.18C35.4274 108.026 37.0668 112.812 37.2628 114.879C37.3566 115.854 39.5563 115.55 40.6079 115.175C41.9879 114.681 42.0845 114.388 42.0845 114.388C42.1756 112.887 41.7754 110.248 41.8085 108.755C45.5731 104.063 51.4298 96.6386 51.5954 95.4932C52.8733 86.595 48.2034 72.094 48.0654 71.1721ZM44.4636 94.0801C44.367 94.6818 43.1167 97.8337 41.7036 101.275C41.7036 99.7519 42.377 98.1649 42.5758 95.7058C42.9539 90.9751 41.9934 85.7698 42.1286 81.9692C42.8932 85.2371 44.6402 92.9513 44.4636 94.0691V94.0801Z" fill="#263238"/>
<path d="M50.3728 96.8926C49.7704 97.4055 49.0671 97.7863 48.3083 98.0104" stroke="#BFBFBF" stroke-linecap="round" stroke-linejoin="round"/>
<path d="M51.2173 96.0011C51.0987 96.1579 50.9715 96.3081 50.8364 96.451" stroke="#BFBFBF" stroke-linecap="round" stroke-linejoin="round"/>
<path d="M42.9815 67.7635C43.3596 69.7756 43.4203 72.4942 42.5951 74.3654C42.389 74.6858 42.1432 74.9789 41.8637 75.2376" stroke="#BFBFBF" stroke-linecap="round" stroke-linejoin="round"/>
<path d="M36.4624 67.5482C36.2388 68.5142 35.8358 70.1068 35.3114 70.9486C34.8084 71.8178 33.9819 72.4528 33.0124 72.715" stroke="#BFBFBF" stroke-linecap="round" stroke-linejoin="round"/>
<path d="M41.5573 69.5851C41.8471 72.8474 41.8333 76.0132 42.1452 81.4973" stroke="#BFBFBF" stroke-linecap="round" stroke-linejoin="round"/>
<path d="M41.3807 67.896C41.411 68.1554 41.4414 68.4121 41.469 68.666" stroke="white" stroke-linecap="round" stroke-linejoin="round"/>
<path d="M44.4774 93.1886C44.6655 94.5323 45.0457 95.8419 45.6062 97.0775" stroke="#BFBFBF" stroke-linecap="round" stroke-linejoin="round"/>
<path d="M44.712 94.4527C44.4698 96.3677 44.5754 98.3106 45.0239 100.188" stroke="#BFBFBF" stroke-linecap="round" stroke-linejoin="round"/>
<path d="M33.8624 72.3838C34.3675 79.9075 35.0686 85.6318 35.6288 91.345" stroke="#BFBFBF" stroke-linecap="round" stroke-linejoin="round"/>
<path d="M35.6482 93.3294C35.6482 93.0948 35.6482 92.8547 35.6482 92.6146" stroke="#BFBFBF" stroke-linecap="round" stroke-linejoin="round"/>
<path d="M38.8774 115.401C38.4882 114.195 35.8 104.913 35.673 101.063C35.5874 98.5099 35.4853 96.6911 35.615 94.2236" stroke="#BFBFBF" stroke-linecap="round" stroke-linejoin="round"/>
<path d="M41.9272 100.406L41.8306 108.716" stroke="#BFBFBF" stroke-linecap="round" stroke-linejoin="round"/>
<path d="M47.3947 43.2271C46.7489 39.9151 44.5492 39.4846 44.0496 39.3272C40.6079 38.2426 38.2536 38.0604 35.5322 39.2527C32.3444 40.6548 31.7041 40.7045 30.7216 44.3422C30.1696 46.3321 31.2542 53.0334 31.9001 55.9507C32.4162 58.2719 32.2865 64.2859 33.2801 65.2492C35.1238 67.0349 37.7375 66.7782 40.2656 66.3311C42.4543 65.9419 46.1086 65.423 46.9393 63.3613C47.058 63.066 47.047 61.8185 47.0056 60.019C46.8731 54.5735 47.2374 51.4492 47.1822 47.9633L47.9219 47.621C47.9219 47.621 47.9854 46.2438 47.3947 43.2271Z" fill="#2196F3"/>
<path opacity="0.2" d="M31.464 50.3093C31.5606 51.4354 31.188 52.6442 31.6765 53.6572C31.8054 53.9444 32.0166 54.1869 32.2834 54.354C32.5502 54.521 32.8606 54.6051 33.1752 54.5956C33.5671 54.5542 33.937 54.3196 34.3289 54.3637C34.8312 54.4162 35.1762 54.8771 35.4715 55.2883C36.0891 56.2406 36.8802 57.0683 37.8037 57.7282C38.7504 58.3492 39.9538 58.661 41.0384 58.3354C40.7519 58.8043 40.4289 59.2501 40.0724 59.6684C40.6741 59.4449 42.0044 58.4761 43.1692 58.4706L46.8869 58.4458C47.127 57.6674 46.5695 56.8146 45.8298 56.4696C45.0901 56.1246 44.2345 56.1688 43.4258 56.2792C42.6172 56.3896 41.8002 56.5552 40.9943 56.4448C39.9149 56.2412 38.9427 55.6612 38.2508 54.8081C37.5678 53.9591 36.987 53.0327 36.5203 52.0481C36.3188 52.429 35.7613 52.4759 35.386 52.2689C35.0314 52.025 34.7354 51.7054 34.5193 51.3332C33.7824 50.2927 32.372 48.5594 31.0721 48.2779C30.8568 48.8327 31.4116 49.6966 31.464 50.3093Z" fill="black"/>
<path opacity="0.2" d="M42.8932 55.8376C44.3339 55.2856 45.2999 53.8559 45.7166 52.3655C45.965 51.4657 46.5253 48.9955 45.9016 48.2255C45.4351 49.5199 45.1122 50.8613 44.6071 52.1474C44.3477 52.8043 44.0717 53.4529 43.7791 54.0794C43.6301 54.3858 43.1968 55.7189 42.8932 55.8376Z" fill="black"/>
<path opacity="0.2" d="M32.4852 60.0383C33.4098 62.2656 35.5405 63.8471 37.8534 64.5288C40.1663 65.2105 42.86 65.1857 45.2309 64.7386C42.1756 66.4691 38.1239 66.6374 34.8533 65.3596C34.2654 65.1305 33.6803 65.3954 33.247 64.9345C32.2534 63.8802 32.2975 61.6998 32.419 60.2425L31.867 60.2674" fill="black"/>
<path opacity="0.2" d="M38.5655 42.6144C38.6705 42.7721 38.8263 42.889 39.0071 42.9456C39.1125 42.9561 39.2188 42.939 39.3156 42.8959C39.4124 42.8529 39.4963 42.7853 39.5591 42.7C39.6843 42.5263 39.7933 42.3415 39.8848 42.148C40.148 41.6802 40.5557 41.3103 41.0467 41.0936C41.3134 41.7348 41.7165 42.3103 42.228 42.78H42.3991C42.6663 42.1371 42.742 41.4308 42.6172 40.7459C42.5935 40.8337 42.5516 40.9155 42.494 40.9859C42.4364 41.0564 42.3646 41.1138 42.2832 41.1544C42.1535 40.8745 41.9823 40.6158 41.7754 40.3871C41.6706 40.2738 41.542 40.1853 41.3988 40.128C41.2555 40.0707 41.1013 40.0461 40.9474 40.0559C40.8172 40.0767 40.6914 40.1187 40.5748 40.1801C39.8075 40.5527 39.2665 41.2841 38.8608 42.021C38.2904 41.602 37.696 41.2168 37.0806 40.8673C37.536 41.458 38.0659 42.0293 38.5655 42.6144Z" fill="black"/>
<path d="M47.3947 43.2271C46.7489 39.9151 44.5492 39.4846 44.0496 39.3272C40.6079 38.2426 38.2536 38.0604 35.5322 39.2527C32.3444 40.6548 31.7041 40.7045 30.7216 44.3422C30.1696 46.3321 31.2542 53.0334 31.9001 55.9507C32.4162 58.2719 32.2865 64.2859 33.2801 65.2492C35.1238 67.0349 37.7375 66.7782 40.2656 66.3311C42.4543 65.9419 46.1086 65.423 46.9393 63.3613C47.058 63.066 47.047 61.8185 47.0056 60.019C46.8731 54.5735 47.2374 51.4492 47.1822 47.9633L47.9219 47.621C47.9219 47.621 47.9854 46.2438 47.3947 43.2271Z" stroke="#263238" stroke-miterlimit="10"/>
<path d="M41.7422 38.5931C42.1565 38.5925 42.5607 38.4649 42.9002 38.2276C43.2397 37.9902 43.4983 37.6544 43.6411 37.2655C44.0386 36.1615 44.2235 32.6453 44.2235 32.005C44.2235 31.3646 43.7184 30.073 43.6163 29.3388C43.5142 28.6046 43.0643 27.0756 43.0643 27.0756L41.7257 25.7839L39.8848 26.5622L37.2793 26.9072C37.2793 26.9072 36.7936 31.1328 36.1284 30.4538C35.4632 29.7749 33.454 30.647 33.5782 32.2478C33.7024 33.8486 35.7503 33.8266 35.7503 33.8266C35.7503 33.8266 36.2581 34.3261 36.5617 35.9904C36.7516 37.0254 36.7582 38.0857 36.581 39.123C36.9092 39.5266 37.3349 39.8397 37.8179 40.0329C38.3008 40.2261 38.8251 40.2929 39.341 40.227C41.1047 40.0034 41.273 38.8056 41.273 38.8056C41.273 38.8056 41.2951 38.6041 41.7422 38.5931Z" fill="white"/>
<path d="M35.7806 31.4888C35.3887 30.9368 33.9811 30.0426 33.6389 31.9139C33.2966 33.7852 35.1652 33.6665 36.145 33.8983C36.8791 35.121 38.353 37.1744 39.595 37.8175C40.365 38.2177 41.3282 38.6814 42.2363 38.5765C43.1443 38.4716 43.5059 37.9279 43.6825 37.0696C43.9271 35.9172 44.0867 34.7484 44.16 33.5726C44.2042 32.8247 44.3339 31.8228 44.0303 31.1135C43.5942 30.0895 43.688 28.9055 43.3541 27.8594C43.0201 26.8134 42.1148 26.0461 41.2758 25.3754" stroke="#263238" stroke-linecap="round" stroke-linejoin="round"/>
<path d="M39.1451 30.8044C39.7192 30.4483 40.2187 30.2938 40.7017 30.8044C40.837 30.8044 41.1488 30.2524 41.1488 30.2524C41.0064 30.0787 40.8143 29.9526 40.5983 29.891C40.3823 29.8293 40.1526 29.8351 39.94 29.9074C39.0982 30.1116 39.1451 30.8044 39.1451 30.8044Z" fill="#263238"/>
<path d="M40.423 34.9582C40.8176 35.5267 41.2372 35.7006 41.9768 35.6371" stroke="#263238" stroke-linecap="round" stroke-linejoin="round"/>
<path d="M40.1387 31.6765C40.2656 31.6765 40.3898 31.867 40.4147 32.1292C40.4395 32.3914 40.3512 32.6122 40.2215 32.6204C40.0918 32.6287 39.9703 32.4272 39.9455 32.1678C39.9206 31.9084 40.02 31.6876 40.1387 31.6765Z" fill="#263238"/>
<path d="M42.9373 31.3067C43.0698 31.3067 43.194 31.4944 43.2133 31.7566C43.2326 32.0188 43.1526 32.2423 43.0201 32.2534C42.8876 32.2644 42.7662 32.0602 42.7441 31.8007C42.722 31.5413 42.8076 31.3205 42.9373 31.3067Z" fill="#263238"/>
<path d="M42.6282 30.5008C42.6282 30.5008 43.263 30.1916 43.5169 30.4152C43.5169 30.4152 43.6991 29.7832 43.2188 29.6369C43.099 29.5871 42.9649 29.5835 42.8425 29.6268C42.7202 29.6701 42.6182 29.7573 42.5564 29.8715L42.5758 30.5532L42.6282 30.5008Z" fill="#263238"/>
<path d="M41.3117 38.5379C41.3282 38.5379 41.193 39.5894 40.7597 39.8848C40.4698 40.1394 40.0967 40.2788 39.7109 40.2767C38.8194 40.354 37.0558 39.8875 36.5893 39.123C36.7607 38.3685 36.7878 37.5885 36.6694 36.8239C36.5893 35.8332 36.4099 34.8531 36.1339 33.8983C36.1339 33.8983 38.444 38.1956 41.3117 38.5379Z" stroke="#263238" stroke-linecap="round" stroke-linejoin="round"/>
<path d="M36.8018 38.3309C36.1946 38.4744 35.6978 38.5075 35.5654 38.9243C35.477 39.2003 35.6785 39.4432 35.8938 39.6722C36.7888 40.6004 37.82 41.3868 38.9519 42.0044C39.4484 41.2568 40.0583 40.591 40.7597 40.031C39.4483 39.7775 38.2033 39.256 37.1027 38.4992L36.8018 38.3309Z" fill="white" stroke="#263238" stroke-linecap="round" stroke-linejoin="round"/>
<path d="M41.3282 38.6207C41.506 38.6248 41.6803 38.6707 41.8371 38.7546C41.9939 38.8385 42.1287 38.9581 42.2308 39.1037C42.4902 39.399 42.7 40.6106 42.435 41.3807C41.8444 40.6962 41.48 39.6612 40.6272 39.9289C41.2951 39.7192 41.3282 38.6207 41.3282 38.6207Z" fill="white" stroke="#263238" stroke-linecap="round" stroke-linejoin="round"/>
<path d="M36.708 34.776C36.708 34.776 37.8286 38.8994 39.1009 39.2914C39.475 39.3967 39.8715 39.392 40.2429 39.278C40.6144 39.164 40.9452 38.9453 41.1958 38.6483C38.847 37.881 36.708 34.776 36.708 34.776Z" fill="#263238"/>
<path d="M37.7706 30.0288C36.995 30.5008 36.4596 31.9139 37.0171 32.6536C37.5746 33.3932 37.0006 33.8321 36.7411 34.0832C36.5434 33.6889 36.371 33.2824 36.225 32.8661C36.0566 32.3748 36.0732 31.9442 35.7972 31.5054C35.6454 31.2625 34.9444 30.8734 34.6656 30.7988C34.2544 30.6884 33.8376 31.1328 33.7051 31.5385C33.6105 31.9563 33.6238 32.3914 33.7438 32.8026C33.1918 32.2092 33.1476 32.0436 33.0924 31.2432C33.0985 30.8063 33.0783 30.3694 33.0317 29.935C32.9434 29.4823 32.7143 29.0628 32.6536 28.6074C32.5487 27.8042 32.9765 27.0397 33.3905 26.3442C33.7522 25.6535 34.2249 25.0269 34.7898 24.4895C35.3148 24.077 35.9067 23.7578 36.5396 23.5456C37.9528 23.0129 39.4818 22.6762 40.975 22.9025C42.4681 23.1288 43.9226 24.0065 44.563 25.3589C44.8079 25.813 44.8814 26.34 44.77 26.8438C44.6979 27.0975 44.5597 27.3275 44.3694 27.5102C44.1792 27.6929 43.9438 27.8218 43.6874 27.8836C43.431 27.9453 43.1628 27.9378 42.9102 27.8618C42.6576 27.7858 42.4298 27.644 42.2501 27.451C42.5575 27.5279 42.882 27.4967 43.1692 27.3626C43.3107 27.2931 43.4308 27.1867 43.5168 27.0545C43.6028 26.9224 43.6514 26.7695 43.6577 26.6119C43.6517 26.508 43.6232 26.4066 43.5743 26.3148C43.5254 26.2229 43.4571 26.1427 43.3742 26.0798C43.2913 26.0168 43.1958 25.9726 43.0942 25.9501C42.9925 25.9276 42.8872 25.9274 42.7855 25.9495C42.688 25.9846 42.5999 26.0417 42.528 26.1164C42.4562 26.1911 42.4025 26.2814 42.3713 26.3802C42.34 26.479 42.332 26.5837 42.3479 26.6861C42.3637 26.7886 42.403 26.886 42.4626 26.9707L41.9851 26.7306L41.9327 27.048L41.3807 26.6588L41.3393 26.9348C41.0854 26.8327 39.3024 26.9348 38.6924 27.0011C38.3866 27.0309 38.0844 27.09 37.7899 27.1777C37.4587 27.2771 37.3649 27.3102 37.3042 27.658C37.133 28.6598 36.9205 29.4685 37.7706 30.0288Z" fill="#263238"/>
<path d="M37.9831 25.0884C37.9314 25.1357 37.8912 25.1942 37.8656 25.2595C37.8401 25.3248 37.8298 25.395 37.8357 25.4649C37.8416 25.5347 37.8634 25.6023 37.8995 25.6624C37.9356 25.7225 37.9849 25.7735 38.0438 25.8115" stroke="#BFBFBF" stroke-linecap="round" stroke-linejoin="round"/>
<path d="M38.5434 25.2098C38.5085 25.2611 38.4899 25.3217 38.4899 25.3837C38.4899 25.4457 38.5085 25.5063 38.5434 25.5576" stroke="#BFBFBF" stroke-linecap="round" stroke-linejoin="round"/>
<path d="M39.1202 25.2071C39.0899 25.3202 39.0568 25.4362 39.0236 25.5493" stroke="#BFBFBF" stroke-linecap="round" stroke-linejoin="round"/>
<path d="M40.572 24.9256C40.4614 25.0099 40.3786 25.1254 40.3343 25.2573C40.29 25.3891 40.2863 25.5312 40.3236 25.6652" stroke="#BFBFBF" stroke-linecap="round" stroke-linejoin="round"/>
<path d="M40.9529 25.7204C40.9348 25.5434 40.9828 25.3659 41.0878 25.2222C41.1928 25.0785 41.3473 24.9787 41.5214 24.9421" stroke="#BFBFBF" stroke-linecap="round" stroke-linejoin="round"/>
<path d="M41.48 25.7784C41.6002 25.5283 41.788 25.3169 42.0221 25.1681C42.2563 25.0194 42.5274 24.9391 42.8048 24.9366" stroke="#BFBFBF" stroke-linecap="round" stroke-linejoin="round"/>
<path d="M41.9354 26.0213C42.0303 25.8582 42.1618 25.7194 42.3195 25.6158C42.4772 25.5122 42.6569 25.4467 42.8443 25.4245C43.0316 25.4023 43.2216 25.424 43.3992 25.4878C43.5768 25.5516 43.7371 25.6558 43.8674 25.7922" stroke="#BFBFBF" stroke-linecap="round" stroke-linejoin="round"/>
<path d="M36.4706 25.6156C36.4337 25.6706 36.4093 25.7332 36.3994 25.7988C36.3895 25.8644 36.3942 25.9314 36.4132 25.995C36.4322 26.0586 36.465 26.1171 36.5093 26.1665C36.5536 26.2159 36.6082 26.2549 36.6694 26.2807" stroke="#BFBFBF" stroke-linecap="round" stroke-linejoin="round"/>
<path d="M37.2959 24.7876C37.1351 25.0546 37.0791 25.3717 37.1388 25.6777C37.1984 25.9836 37.3695 26.2565 37.6188 26.4436" stroke="#BFBFBF" stroke-linecap="round" stroke-linejoin="round"/>
<path d="M35.7641 26.082C35.7493 26.1274 35.745 26.1755 35.7516 26.2228C35.7582 26.27 35.7754 26.3152 35.802 26.3548C35.8286 26.3944 35.8638 26.4275 35.9051 26.4515C35.9463 26.4754 35.9925 26.4897 36.0401 26.4932" stroke="#BFBFBF" stroke-linecap="round" stroke-linejoin="round"/>
<path d="M35.1348 26.4739C35.1189 26.5346 35.1265 26.5991 35.1562 26.6544C35.1859 26.7097 35.2355 26.7517 35.2949 26.772" stroke="#BFBFBF" stroke-linecap="round" stroke-linejoin="round"/>
<path d="M34.5773 26.8658C34.5709 26.883 34.5684 26.9014 34.5698 26.9196C34.5712 26.9379 34.5766 26.9556 34.5855 26.9716C34.5944 26.9876 34.6067 27.0015 34.6215 27.0123C34.6362 27.0231 34.6532 27.0306 34.6711 27.0342" stroke="#BFBFBF" stroke-linecap="round" stroke-linejoin="round"/>
<path d="M46.0589 47.3588C46.1941 52.1033 45.6256 57.0658 39.9869 59.6905" stroke="#263238" stroke-linecap="round" stroke-linejoin="round"/>
<path d="M37.6768 61.8544C40.1337 62.5252 42.6984 62.7071 45.2254 62.3898" stroke="#263238" stroke-linecap="round" stroke-linejoin="round"/>
<path d="M35.731 61.2113C36.0539 61.3355 36.3796 61.4542 36.708 61.5618" stroke="#263238" stroke-linecap="round" stroke-linejoin="round"/>
<path d="M65.4948 54.8688C65.5051 54.7522 65.4873 54.6349 65.4429 54.5266C65.3984 54.4184 65.3287 54.3223 65.2394 54.2466C65.1502 54.1709 65.0441 54.1177 64.9301 54.0915C64.816 54.0653 64.6973 54.0668 64.584 54.096C64.584 54.1236 64.5233 54.1319 64.5288 54.1567C64.7421 54.3236 64.9092 54.5421 65.0146 54.7915C65.1746 54.8026 65.3347 54.8633 65.4948 54.8688Z" stroke="#263238" stroke-linecap="round" stroke-linejoin="round"/>
<path d="M65.2022 55.3573C65.0228 54.8444 64.7669 54.3614 64.4432 53.9249C63.4303 53.1466 63.8719 52.8954 61.9096 52.5449C61.9096 52.567 58.1173 53.5247 56.0528 54.4769C56.0528 54.4769 42.4764 52.8706 42.4764 52.7408L40.3788 49.9808L34.4752 50.8999C34.4752 50.8999 37.6243 56.0142 39.9952 57.3252C39.9952 57.3252 51.3112 57.0492 54.982 57.0299C56.9774 57.0299 58.098 58.0456 60.0604 55.8514C60.0604 55.8514 61.1312 56.9084 61.7688 56.6048C62.1883 56.4889 60.8249 55.3408 60.3584 54.9654C60.5075 55.051 62.6051 56.5 63.7726 56.5414C63.8281 56.5442 63.883 56.5286 63.9287 56.4969C63.9744 56.4651 64.0083 56.4191 64.025 56.3661C64.0418 56.313 64.0404 56.2559 64.0212 56.2037C64.002 56.1515 63.966 56.1072 63.9188 56.0777C63.9188 56.0777 61.0153 54.4493 61.1588 54.2423C61.1588 54.2423 62.7679 54.8219 63.0246 55.1779C64.0982 56.6518 64.8241 56.1356 64.9262 56.0473C65.136 55.8652 64.8434 55.6996 64.8434 55.5284C64.8214 55.5312 65.2519 55.6554 65.2022 55.3573Z" fill="white" stroke="#263238" stroke-linecap="round" stroke-linejoin="round"/>
<path d="M62.1524 53.5247C62.7265 53.751 63.5324 54.1098 63.9161 54.5928C64.6613 55.5312 64.8214 55.5312 64.8214 55.5312" stroke="#263238" stroke-linecap="round" stroke-linejoin="round"/>
<path d="M32.0822 41.1792C32.0822 41.1792 30.2551 42.8352 30.7712 47.2126C31.0472 49.4426 33.7217 53.1466 33.7217 53.1466L40.9998 50.8364C40.9998 50.8364 39.2803 46.9504 37.4587 44.3256" stroke="#263238" stroke-miterlimit="10"/>
<path d="M38.64 44.2456C39.1123 45.335 39.3826 46.5012 39.4376 47.6873" stroke="#263238" stroke-linecap="round" stroke-linejoin="round"/>
<path d="M42.7414 30.3379C42.7414 30.3545 42.0348 31.4419 42.2556 31.7455C43.1333 32.8992 43.2547 34.2626 42.8711 34.3261C42.3632 34.4062 41.9851 33.9977 41.7671 33.8486" stroke="#263238" stroke-linecap="round" stroke-linejoin="round"/>
<path d="M31.5578 51.5734L32.9986 53.3784L41.0026 50.8364L40.02 48.8189C40.02 48.8189 31.4088 51.5734 31.5578 51.5734Z" fill="white" stroke="#263238" stroke-linecap="round" stroke-linejoin="round"/>
<path d="M41.1488 40.0642C41.1488 40.0172 42.1314 45.3275 42.1314 45.3275L41.4773 45.4793" stroke="#263238" stroke-linecap="round" stroke-linejoin="round"/>
<path d="M47.196 47.0939L48.2476 46.7047L48.3138 48.3442L47.1767 48.7664L47.196 47.0939Z" fill="white" stroke="#263238" stroke-linecap="round" stroke-linejoin="round"/>
<path d="M46.6164 44.2428C46.9063 45.7209 47.1 47.2163 47.196 48.7195Z" fill="white"/>
<path d="M46.6164 44.2428C46.9063 45.7209 47.1 47.2163 47.196 48.7195" stroke="#263238" stroke-linecap="round" stroke-linejoin="round"/>
<path d="M46.2797 42.4405C46.3404 42.7883 46.4011 43.1195 46.4646 43.4479Z" fill="white"/>
<path d="M46.2797 42.4405C46.3404 42.7883 46.4011 43.1195 46.4646 43.4479" stroke="#263238" stroke-linecap="round" stroke-linejoin="round"/>
</svg>
