<svg width="127" height="94" viewBox="0 0 127 94" fill="none" xmlns="http://www.w3.org/2000/svg">
<rect x="0.667969" width="94" height="94" rx="47" fill="#2D76E0" fill-opacity="0.3"/>
<circle cx="47.668" cy="47" r="37" fill="#2D76E0"/>
<g clip-path="url(#clip0_7130_83423)">
<path d="M100.668 52V51H98.668V52C98.668 53.8565 99.4055 55.637 100.718 56.9497C102.031 58.2625 103.811 59 105.668 59H108.668V57H105.668C104.342 57 103.07 56.4732 102.132 55.5355C101.195 54.5979 100.668 53.3261 100.668 52Z" fill="white"/>
<path d="M118.668 42V43H120.668V42C120.668 40.1435 119.93 38.363 118.618 37.0503C117.305 35.7375 115.524 35 113.668 35H110.668V37H113.668C114.325 37 114.975 37.1293 115.581 37.3806C116.188 37.6319 116.739 38.0002 117.204 38.4645C117.668 38.9288 118.036 39.48 118.287 40.0866C118.539 40.6932 118.668 41.3434 118.668 42Z" fill="white"/>
<path d="M105.668 42H99.668C98.8723 42 98.1093 42.3161 97.5466 42.8787C96.984 43.4413 96.668 44.2044 96.668 45V47H98.668V45C98.668 44.7348 98.7733 44.4804 98.9609 44.2929C99.1484 44.1054 99.4028 44 99.668 44H105.668C105.933 44 106.188 44.1054 106.375 44.2929C106.563 44.4804 106.668 44.7348 106.668 45V47H108.668V45C108.668 44.2044 108.352 43.4413 107.789 42.8787C107.227 42.3161 106.464 42 105.668 42Z" fill="white"/>
<path d="M102.668 41C103.459 41 104.232 40.7654 104.89 40.3259C105.548 39.8864 106.061 39.2616 106.363 38.5307C106.666 37.7998 106.745 36.9956 106.591 36.2196C106.437 35.4437 106.056 34.731 105.496 34.1716C104.937 33.6122 104.224 33.2312 103.448 33.0769C102.672 32.9225 101.868 33.0017 101.137 33.3045C100.406 33.6072 99.7816 34.1199 99.3421 34.7777C98.9026 35.4355 98.668 36.2089 98.668 37C98.668 38.0609 99.0894 39.0783 99.8395 39.8284C100.59 40.5786 101.607 41 102.668 41ZM102.668 35C103.064 35 103.45 35.1173 103.779 35.3371C104.108 35.5568 104.364 35.8692 104.516 36.2346C104.667 36.6001 104.707 37.0022 104.63 37.3902C104.552 37.7781 104.362 38.1345 104.082 38.4142C103.802 38.6939 103.446 38.8844 103.058 38.9616C102.67 39.0387 102.268 38.9991 101.903 38.8478C101.537 38.6964 101.225 38.44 101.005 38.1111C100.785 37.7822 100.668 37.3956 100.668 37C100.668 36.4696 100.879 35.9609 101.254 35.5858C101.629 35.2107 102.138 35 102.668 35Z" fill="white"/>
<path d="M121.668 56H115.668C114.872 56 114.109 56.3161 113.547 56.8787C112.984 57.4413 112.668 58.2044 112.668 59V61H114.668V59C114.668 58.7348 114.773 58.4804 114.961 58.2929C115.148 58.1054 115.403 58 115.668 58H121.668C121.933 58 122.188 58.1054 122.375 58.2929C122.563 58.4804 122.668 58.7348 122.668 59V61H124.668V59C124.668 58.2044 124.352 57.4413 123.789 56.8787C123.227 56.3161 122.464 56 121.668 56Z" fill="white"/>
<path d="M114.668 51C114.668 51.7911 114.903 52.5645 115.342 53.2223C115.782 53.8801 116.406 54.3928 117.137 54.6955C117.868 54.9983 118.672 55.0775 119.448 54.9231C120.224 54.7688 120.937 54.3878 121.496 53.8284C122.056 53.269 122.437 52.5563 122.591 51.7804C122.745 51.0044 122.666 50.2002 122.363 49.4693C122.061 48.7384 121.548 48.1136 120.89 47.6741C120.232 47.2346 119.459 47 118.668 47C117.607 47 116.59 47.4214 115.84 48.1716C115.089 48.9217 114.668 49.9391 114.668 51ZM120.668 51C120.668 51.3956 120.551 51.7822 120.331 52.1111C120.111 52.44 119.799 52.6964 119.433 52.8478C119.068 52.9991 118.666 53.0387 118.278 52.9616C117.89 52.8844 117.533 52.6939 117.254 52.4142C116.974 52.1345 116.784 51.7781 116.706 51.3902C116.629 51.0022 116.669 50.6001 116.82 50.2346C116.972 49.8692 117.228 49.5568 117.557 49.3371C117.886 49.1173 118.272 49 118.668 49C119.198 49 119.707 49.2107 120.082 49.5858C120.457 49.9609 120.668 50.4696 120.668 51Z" fill="white"/>
</g>
<g clip-path="url(#clip1_7130_83423)">
<path d="M37.668 52V51H35.668V52C35.668 53.8565 36.4055 55.637 37.7182 56.9497C39.031 58.2625 40.8115 59 42.668 59H45.668V57H42.668C41.3419 57 40.0701 56.4732 39.1324 55.5355C38.1948 54.5979 37.668 53.3261 37.668 52Z" fill="white"/>
<path d="M55.668 42V43H57.668V42C57.668 40.1435 56.9305 38.363 55.6177 37.0503C54.305 35.7375 52.5245 35 50.668 35H47.668V37H50.668C51.3246 37 51.9748 37.1293 52.5814 37.3806C53.188 37.6319 53.7392 38.0002 54.2035 38.4645C54.6678 38.9288 55.0361 39.48 55.2874 40.0866C55.5386 40.6932 55.668 41.3434 55.668 42Z" fill="white"/>
<path d="M42.668 42H36.668C35.8723 42 35.1093 42.3161 34.5466 42.8787C33.984 43.4413 33.668 44.2044 33.668 45V47H35.668V45C35.668 44.7348 35.7733 44.4804 35.9609 44.2929C36.1484 44.1054 36.4028 44 36.668 44H42.668C42.9332 44 43.1875 44.1054 43.3751 44.2929C43.5626 44.4804 43.668 44.7348 43.668 45V47H45.668V45C45.668 44.2044 45.3519 43.4413 44.7893 42.8787C44.2267 42.3161 43.4636 42 42.668 42Z" fill="white"/>
<path d="M39.668 41C40.4591 41 41.2325 40.7654 41.8902 40.3259C42.548 39.8864 43.0607 39.2616 43.3635 38.5307C43.6662 37.7998 43.7455 36.9956 43.5911 36.2196C43.4368 35.4437 43.0558 34.731 42.4964 34.1716C41.937 33.6122 41.2243 33.2312 40.4483 33.0769C39.6724 32.9225 38.8681 33.0017 38.1372 33.3045C37.4063 33.6072 36.7816 34.1199 36.3421 34.7777C35.9026 35.4355 35.668 36.2089 35.668 37C35.668 38.0609 36.0894 39.0783 36.8395 39.8284C37.5897 40.5786 38.6071 41 39.668 41ZM39.668 35C40.0635 35 40.4502 35.1173 40.7791 35.3371C41.108 35.5568 41.3644 35.8692 41.5157 36.2346C41.6671 36.6001 41.7067 37.0022 41.6295 37.3902C41.5524 37.7781 41.3619 38.1345 41.0822 38.4142C40.8025 38.6939 40.4461 38.8844 40.0581 38.9616C39.6702 39.0387 39.2681 38.9991 38.9026 38.8478C38.5371 38.6964 38.2248 38.44 38.005 38.1111C37.7853 37.7822 37.668 37.3956 37.668 37C37.668 36.4696 37.8787 35.9609 38.2538 35.5858C38.6288 35.2107 39.1375 35 39.668 35Z" fill="white"/>
<path d="M58.668 56H52.668C51.8723 56 51.1093 56.3161 50.5466 56.8787C49.984 57.4413 49.668 58.2044 49.668 59V61H51.668V59C51.668 58.7348 51.7733 58.4804 51.9609 58.2929C52.1484 58.1054 52.4028 58 52.668 58H58.668C58.9332 58 59.1875 58.1054 59.3751 58.2929C59.5626 58.4804 59.668 58.7348 59.668 59V61H61.668V59C61.668 58.2044 61.3519 57.4413 60.7893 56.8787C60.2267 56.3161 59.4636 56 58.668 56Z" fill="white"/>
<path d="M51.668 51C51.668 51.7911 51.9026 52.5645 52.3421 53.2223C52.7816 53.8801 53.4063 54.3928 54.1372 54.6955C54.8681 54.9983 55.6724 55.0775 56.4483 54.9231C57.2243 54.7688 57.937 54.3878 58.4964 53.8284C59.0558 53.269 59.4368 52.5563 59.5911 51.7804C59.7455 51.0044 59.6662 50.2002 59.3635 49.4693C59.0607 48.7384 58.548 48.1136 57.8902 47.6741C57.2325 47.2346 56.4591 47 55.668 47C54.6071 47 53.5897 47.4214 52.8395 48.1716C52.0894 48.9217 51.668 49.9391 51.668 51ZM57.668 51C57.668 51.3956 57.5507 51.7822 57.3309 52.1111C57.1111 52.44 56.7988 52.6964 56.4333 52.8478C56.0679 52.9991 55.6658 53.0387 55.2778 52.9616C54.8898 52.8844 54.5335 52.6939 54.2538 52.4142C53.9741 52.1345 53.7836 51.7781 53.7064 51.3902C53.6292 51.0022 53.6688 50.6001 53.8202 50.2346C53.9716 49.8692 54.2279 49.5568 54.5568 49.3371C54.8857 49.1173 55.2724 49 55.668 49C56.1984 49 56.7071 49.2107 57.0822 49.5858C57.4573 49.9609 57.668 50.4696 57.668 51Z" fill="white"/>
</g>
<defs>
<clipPath id="clip0_7130_83423">
<rect width="32" height="32" fill="white" transform="translate(94.668 31)"/>
</clipPath>
<clipPath id="clip1_7130_83423">
<rect width="32" height="32" fill="white" transform="translate(31.668 31)"/>
</clipPath>
</defs>
</svg>
