<svg xmlns="http://www.w3.org/2000/svg" enable-background="new 0 0 50 50" viewBox="0 0 50 50" id="construction"><rect width="48" height="29.6" x="1" y="19.2" fill="#E9715F"></rect><path fill="#F4887F" d="M49,25.3v-0.7h-8.8v-5.4h-0.6v5.4h-8.8v-5.4h-0.6v5.4h-8.8v-5.4h-0.6v5.4H12v-5.4h-0.6v5.4H1v0.7h5.9
					v5.4H1v0.7h10.4v5.4H1v0.7h48v-0.7h-8.8v-5.4H49v-0.7h-4.2v-5.4H49z M26.1,25.3h8.7v5.4h-8.7V25.3z M16.8,25.3h8.7v5.4h-8.7
					V25.3z M7.5,30.6v-5.4h8.7v5.4H7.5z M20.8,36.7H12v-5.4h8.8V36.7z M30.2,36.7h-8.8v-5.4h8.8V36.7z M39.6,36.7h-8.8v-5.4h8.8
					V36.7z M44.1,30.6h-8.7v-5.4h8.7V30.6z"></path><polygon fill="#F4887F" points="49 42.8 49 43.5 40.2 43.5 40.2 48.8 39.6 48.8 39.6 43.5 30.8 43.5 30.8 48.8 30.2 48.8 30.2 43.5 21.4 43.5 21.4 48.8 20.8 48.8 20.8 43.5 12 43.5 12 48.8 11.4 48.8 11.4 43.5 1 43.5 1 42.8 6.9 42.8 6.9 37.4 7.5 37.4 7.5 42.8 16.2 42.8 16.2 37.4 16.8 37.4 16.8 42.8 25.5 42.8 25.5 37.4 26.1 37.4 26.1 42.8 34.8 42.8 34.8 37.4 35.4 37.4 35.4 42.8 44.1 42.8 44.1 37.4 44.8 37.4 44.8 42.8"></polygon><path fill="#E4E4E3" d="M22.6,11.7l-0.2,2.5c0,0,6.1-2.5,6.5-0.7c0,0-0.7,2.3,2.8,7.8c0.2,0.2,0.5,0.2,0.6-0.1l0.5-1.5
				c0-0.1,0-0.2,0-0.3l-1-2.2c0,0-0.6-0.8,0.6-1.2c0,0,0,0,0,0c0.1,0,0.7-0.3,1-2.3l-3.7-1.9l-4-1.4L22.6,11.7z"></path><path fill="#444445" d="M16.8,14.7c0,0,0.3,1.6,0.9,1.4l5.3-2c0,0,0.8-0.3,0.6-1.9L16.8,14.7z"></path><path fill="#FFCA67" d="M37.2,13v0.5c0,0.6-4.3,0.3-4.3,0.3L29,12.5l-5-0.2C14,15.7,18,14.7,12.8,14.6V14l3.3-1.8
				c0.1-1.4,1-4.8,1-4.8c2.7-9.3,18.5-8,18.9,2.1c0,0.5,0.1,1.1,0.1,1.1l0.3,0.3l0.1,1.6C37.1,12.8,37.2,13,37.2,13z"></path><path fill="#F5B948" d="M36.1,10.6c-0.7-0.4-1.7-0.4-1.7-0.4c-2.2-0.4-4.7-1.5-4.7-1.5c-3.5-1.3-6-0.3-6-0.3
				c-1.2,0.6-2.3,0.8-3.2,0.9c-1.5,0.1-2.6-1.5-1.9-2.9c2.3-4.9,10.7-6.6,16.6-0.3C36.1,8,36,9.3,36.1,10.6z"></path></svg>