<svg xmlns="http://www.w3.org/2000/svg" data-name="Layer 1" viewBox="0 0 125 125"><rect width="9.46" height="21.883" x="88.154" y="45.681" fill="#f7be56"/><path fill="#ebf0f3" d="M108.61142,61.6461a9.75327,9.75327,0,0,0-2.53243-1.995l-8.46514-3.97077-.00181.001a3.827,3.827,0,0,1-1.28838,2.56769,5.3833,5.3833,0,0,1-6.84985.03752,3.82616,3.82616,0,0,1-1.31919-2.48953l-.00106-.00867L79.6855,59.65113A9.73982,9.73982,0,0,0,74.62935,68.186V75.7119a3.4629,3.4629,0,0,0,3.4629,3.46291h29.58286a3.4629,3.4629,0,0,0,3.4629-3.46291V68.186A9.72211,9.72211,0,0,0,108.61142,61.6461Z"/><ellipse cx="92.884" cy="46.759" fill="#fcd462" rx="7.723" ry="10.421"/><path fill="#3a556a" d="M101.70353,41.77138c-.61447-4.48748-1.60886-7.04874-2.51841-8.36s-1.2369-.09177-1.2369-.09177-.38143-2.042-5.82886-1.26184-8.22326,7.85882-8.82827,12.01889a11.425,11.425,0,0,0,.94793,6.27526c.02287.41991.21365,1.876.182,2.23963a1.91351,1.91351,0,0,0,1.76468,2.07914,1.79846,1.79846,0,0,0,1.93161-1.79208,5.48186,5.48186,0,0,0-.72008-1.89523c-.36894-.60192-.68413-1.14479-.68413-1.14479s-1.48906-6.26994,2.09971-7.5434,4.865-1.71175,4.865-1.71175c.01958.53449-3.09962,3.22587-3.09962,3.22587,6.58464-.91347,8.09976-3.56544,8.09976-3.56544a19.66825,19.66825,0,0,1,.89825,6.25009c-.16574,3.03213-1.33935,5.96855-1.28014,6.43127a2.07212,2.07212,0,0,0,2.60378,1.67948,2.10092,2.10092,0,0,0,1.52225-1.89319c.02274-.29768.04784-.60557.07781-.92447C102.78132,48.79419,102.31806,46.25889,101.70353,41.77138Z"/><rect width="9.46" height="21.883" x="27.386" y="45.681" fill="#f7be56"/><path fill="#44c4a1" d="M47.84406,61.64612a9.75306,9.75306,0,0,0-2.53243-1.995l-8.46514-3.97077-.00181.001a3.827,3.827,0,0,1-1.28838,2.56768,5.3833,5.3833,0,0,1-6.84985.03753,3.82616,3.82616,0,0,1-1.31919-2.48954l-.00106-.00866-8.46806,3.86274a9.73982,9.73982,0,0,0-5.05615,8.5349v7.52587a3.4629,3.4629,0,0,0,3.4629,3.4629H46.90775a3.4629,3.4629,0,0,0,3.4629-3.4629V68.18605A9.72209,9.72209,0,0,0,47.84406,61.64612Z"/><path fill="#fcd462" d="M39.83967,46.75878c0,5.75532-3.45785,10.42093-7.72332,10.42093S24.393,52.5141,24.393,46.75878s3.82936-11.57836,8.09483-11.57836S39.83967,41.00345,39.83967,46.75878Z"/><path fill="#3a556a" d="M47.16943,48.16592a2.58325,2.58325,0,0,1-4.66612-1.69942,19.13447,19.13447,0,0,0-.14522-4.21589c-.6145-4.48752-1.60886-7.04877-2.51844-8.36s-2.65881-.571-2.65881-.571-.38139-2.042-5.82885-1.26184-8.22323,7.85884-8.82828,12.01889a10.52392,10.52392,0,0,0-.06529,2.44948,2.57733,2.57733,0,0,1-4.5963,1.78262,10.688,10.688,0,0,1-.81649-1.27223s.68933,16.59981,11.288,8.83913l-1.1353-2.27738a14.25654,14.25654,0,0,1-1.25257-3.75971s-1.70336-7.73747,2.09971-7.54337c8.31542.42438,9.07922-3.73747,9.07922-3.73747s1.77386,4.90086,1.68418,7.93625a21.2688,21.2688,0,0,1-.64381,5.72148,8.86688,8.86688,0,0,1-1.53087,2.87968l-.33442.42477c10.59862,7.76068,11.58063-8.48338,11.58063-8.48338A10.99775,10.99775,0,0,1,47.16943,48.16592Z"/><polygon fill="#f7be56" points="68.702 65.307 62.521 67.382 56.818 65.307 56.818 49.138 68.702 49.138 68.702 65.307"/><path fill="#27a2db" d="M82.51855,69.19464a12.25354,12.25354,0,0,0-3.18139-2.50623l-7.65441-4.19414-1.25132-.68618-.7302.14309c-.01515.12135-.03171.25236-.04951.391l-7.08586,4.84461-6.685-4.80807c-.01939-.15093-.03742-.293-.05375-.42386l-.73757-.14681-1.23293.67516-7.67645,4.20516a12.23558,12.23558,0,0,0-6.35176,10.72211V91.85016a4.35153,4.35153,0,0,0,4.35149,4.35155H81.34108a4.35154,4.35154,0,0,0,4.35155-4.35155V77.41052A12.21362,12.21362,0,0,0,82.51855,69.19464Z"/><polygon fill="#ebf0f3" points="68.702 58.775 63.81 65.507 67.699 69.7 70.431 61.81 68.702 58.775"/><polygon fill="#ebf0f3" points="56.777 58.775 61.67 65.507 57.78 69.7 55.049 61.81 56.777 58.775"/><ellipse cx="71.908" cy="46.382" fill="#fcd462" rx="2.348" ry="1.126" transform="rotate(-80.702 71.908 46.382)"/><ellipse cx="53.794" cy="46.382" fill="#fcd462" rx="1.126" ry="2.348" transform="rotate(-4.102 53.794 46.382)"/><path fill="#fcd462" d="M71.47724,48.85051,71.127,38.51208l-1.22585-3.33341L62.7372,33.24626l-7.16394,1.93241-1.22585,3.33341-.35025,10.33843a8.21509,8.21509,0,0,0,.52537,4.34793,13.49713,13.49713,0,0,0,3.03544,3.8975c1.22585,1.2234,2.82825,1.60275,5.17923,1.67878,2.351-.076,3.95339-.45538,5.17924-1.67878a13.49711,13.49711,0,0,0,3.03543-3.8975A8.21509,8.21509,0,0,0,71.47724,48.85051Z"/><path fill="#ebf0f3" d="M61.62852,70.508V85.65816H63.4137V70.508c.2328-3.70341,1.5273-4.74953,1.5273-4.74953l-.7512-.8099L62.59418,66.854l-1.34186-1.90541-1.1512.8099S61.39572,66.80463,61.62852,70.508Z"/><path fill="#3a556a" d="M63.18782,37.1913a11.12306,11.12306,0,0,1,4.14314,0,4.77439,4.77439,0,0,1,2.875,2.73815,3.26048,3.26048,0,0,0-.50472,2.32147c.29174,1.25.74206,4.60607.74206,4.60607s.22491-2.99889,1.10237-2.106a2.27079,2.27079,0,0,1,.358,2.8572A8.17208,8.17208,0,0,0,71.28617,50.3s2.6419-3.10846,2.68834-4.89421,1.5574-1.54765-.1743-4.22627a4.30345,4.30345,0,0,0-.66448-4.46438,12.46863,12.46863,0,0,0-1.5002-4.34532c-1.0846-1.54765-3.43507-3.21434-4.63107-3.09529s-.98037-.4762-2.30137-.4762-1.53909.53572-2.49.77382-2.49378-.77382-4.36123.53572a9.171,9.171,0,0,0-2.5438,2.381c-.74623.83335.78928,1.6667-1.87349,2.6191s-.95542,5.9525-.95542,5.9525S51.416,42.72712,52.1787,43.8581c.36937.54772.01245,2.778.47926,3.96267a5.47948,5.47948,0,0,0,1.25841,1.9419,3.41431,3.41431,0,0,0,.23288-1.64119c-.12293-1.7541-.53118-4.26111.46094-3.68447.98012.56967,1.21,3.01881,1.21,3.01881s.05231-4.193.71149-5.6811a3.01864,3.01864,0,0,1,.523-3.33339c1.43486-1.60718.96544-2.79767,2.55608-2.08338A7.06049,7.06049,0,0,0,63.18782,37.1913Z"/></svg>