<svg width="95" height="94" viewBox="0 0 95 94" fill="none" xmlns="http://www.w3.org/2000/svg">
<rect x="0.332031" width="94" height="94" rx="47" fill="#2D76E0" fill-opacity="0.3"/>
<circle cx="47.332" cy="47" r="37" fill="#2D76E0"/>
<g clip-path="url(#clip0_7130_83456)">
<path d="M47.3273 31.0039C45.441 31.0039 43.9023 32.5425 43.9023 34.4289C43.9023 36.3152 45.4357 37.8539 47.3273 37.8539C49.219 37.8539 50.7523 36.3152 50.7523 34.4289C50.7523 32.5425 49.2137 31.0039 47.3273 31.0039ZM47.3273 36.0782C46.421 36.0782 45.6781 35.3406 45.6781 34.429C45.6781 33.5174 46.421 32.7797 47.3273 32.7797C48.2336 32.7797 48.9766 33.5175 48.9766 34.429C48.9766 35.3405 48.2336 36.0782 47.3273 36.0782Z" fill="white"/>
<path d="M42.0497 53.0753C41.5702 52.2691 41.3067 51.3101 41.3067 50.3616C41.3067 48.549 39.8472 47.0684 38.0451 47.0684C36.243 47.0684 34.7835 48.549 34.7835 50.3616C34.7835 51.3523 34.4989 52.3481 33.9878 53.1649C33.8191 53.4336 33.8033 53.7814 33.9614 54.0659C34.1143 54.3505 34.4093 54.5243 34.7413 54.5243H41.349H41.3542C41.8443 54.5243 42.2447 54.1292 42.2447 53.6339C42.2446 53.4178 42.1709 53.2334 42.0497 53.0753ZM36.1429 52.7486C36.4169 51.9898 36.5538 51.1678 36.5538 50.3616C36.5538 49.5238 37.223 48.8441 38.0397 48.8441C38.8564 48.8441 39.5256 49.5238 39.5256 50.3616C39.5256 51.1731 39.6678 51.9845 39.9419 52.7486H36.1429Z" fill="white"/>
<path d="M38.0398 55.5508C34.3829 55.5508 31.4321 58.4225 31.332 62.0846C31.3637 62.8276 31.9802 62.9962 32.2225 62.9962H43.8622C44.0993 62.9962 44.6947 62.8697 44.7527 62.0846C44.6526 58.4225 41.7071 55.5508 38.0398 55.5508ZM33.2132 61.2205C33.6927 58.9758 35.6581 57.3265 38.0398 57.3265C40.4214 57.3265 42.3868 58.9758 42.8664 61.2205H33.2132Z" fill="white"/>
<path d="M60.6187 53.0753C60.1392 52.2691 59.8757 51.3101 59.8757 50.3616C59.8757 48.549 58.4162 47.0684 56.6141 47.0684C54.8173 47.0684 53.3577 48.549 53.3577 50.3616C53.3577 51.3523 53.0731 52.3481 52.562 53.1649C52.3934 53.4336 52.3775 53.7814 52.5357 54.0659C52.6937 54.3505 52.9889 54.5243 53.3102 54.5243H59.9179H59.9232C60.4132 54.5243 60.8136 54.1292 60.8136 53.6339C60.8136 53.4178 60.7399 53.2281 60.6187 53.0753ZM54.7225 52.7486C54.9912 51.9898 55.1334 51.1678 55.1334 50.3616C55.1334 49.5238 55.8026 48.8441 56.6193 48.8441C57.436 48.8441 58.1052 49.5238 58.1052 50.3616C58.1052 51.1731 58.2474 51.9845 58.5215 52.7486H54.7225Z" fill="white"/>
<path d="M56.6218 55.5508C52.9649 55.5508 50.0142 58.4225 49.9141 62.0846C49.9457 62.8434 50.5622 62.9962 50.8045 62.9962H62.4443C62.6814 62.9962 63.2926 62.854 63.3347 62.0846C63.2294 58.4225 60.284 55.5508 56.6218 55.5508ZM51.7952 61.2205C52.2747 58.9758 54.2401 57.3265 56.6218 57.3265C59.0035 57.3265 60.9689 58.9758 61.4484 61.2205H51.7952Z" fill="white"/>
<path d="M54.5188 45.3562C54.1078 41.6888 51.0147 38.9277 47.3263 38.9277C43.6378 38.9277 40.5448 41.694 40.1339 45.3562C40.1075 45.6091 40.1865 45.8621 40.3552 46.0465C40.5238 46.231 40.7661 46.3416 41.0191 46.3416H46.4359V48.3491L43.7485 51.0364C43.4007 51.3842 43.4007 51.9427 43.7485 52.2957C44.0594 52.6066 44.7234 52.575 45.0079 52.2957L47.3316 49.972L49.6553 52.2957C49.9978 52.6435 50.5564 52.6435 50.9041 52.2957C51.2519 51.948 51.2519 51.3895 50.9041 51.0364L48.2168 48.3491V46.3416H53.6336C53.8865 46.3416 54.1236 46.2362 54.2975 46.0465C54.4713 45.8568 54.5504 45.6039 54.5188 45.3562ZM42.1045 44.5606C42.7895 42.3001 44.8814 40.6983 47.3263 40.6983C49.7713 40.6983 51.8632 42.3001 52.5482 44.5606H42.1045Z" fill="white"/>
</g>
<defs>
<clipPath id="clip0_7130_83456">
<rect width="32" height="32" fill="white" transform="translate(31.332 31)"/>
</clipPath>
</defs>
</svg>
