<svg xmlns="http://www.w3.org/2000/svg" width="32" height="32" enable-background="new 0 0 32 32" viewBox="0 0 32 32"><path fill="#78909C" d="M12.492,27.5h-11c0,1.104,0.896,2,2,2h25c1.105,0,2-0.896,2-2h-11H12.492z"/><path fill="#455A64" d="M28.5,30h-25C2.121,30,1,28.879,1,27.5C1,27.224,1.225,27,1.5,27h11c0.277,0,0.5,0.224,0.5,0.5
													S12.777,28,12.5,28H2.086c0.207,0.582,0.762,1,1.414,1h25c0.652,0,1.209-0.418,1.414-1H19.5c-0.275,0-0.5-0.224-0.5-0.5
													s0.225-0.5,0.5-0.5h11c0.277,0,0.5,0.224,0.5,0.5C31,28.879,29.879,30,28.5,30z"/><path fill="#ECEFF1" d="M28.492,26V9.5c0-0.553-0.447-1-1-1h-23c-0.553,0-1,0.447-1,1V26H28.492z"/><path fill="#455A64" d="M3.5,26C3.225,26,3,25.776,3,25.5v-16C3,8.673,3.666,8,4.492,8h13c0.277,0,0.5,0.224,0.5,0.5
													S17.77,9,17.492,9h-13C4.217,9,4,9.225,4,9.5v16C4,25.776,3.777,26,3.5,26z"/><rect width="22" height="16" x="5" y="10" fill="#A9E4FF"/><circle cx="24.979" cy="9" r="5.5" fill="#65F0CD"/><path fill="#455A64" d="M25.008,11c-0.004,0-0.008,0-0.012,0c-0.145-0.004-0.281-0.069-0.373-0.18l-2.5-3
													c-0.176-0.213-0.148-0.528,0.064-0.705c0.213-0.176,0.527-0.147,0.705,0.064l2.133,2.561l5.113-5.578
													c0.189-0.204,0.504-0.216,0.707-0.031c0.203,0.187,0.217,0.503,0.029,0.707l-5.498,6C25.281,10.941,25.148,11,25.008,11
													z"/><path fill="#455A64" d="M25 15c-3.309 0-6-2.691-6-6s2.691-6 6-6c1.064 0 2.109.282 3.023.816.238.139.318.445.18.684-.141.239-.449.317-.684.18C26.758 4.234 25.887 4 25 4c-2.758 0-5 2.243-5 5s2.242 5 5 5c2.756 0 5-2.243 5-5 0-.361-.039-.723-.115-1.072-.061-.271.111-.537.381-.596.275-.058.537.112.596.381C30.953 8.135 31 8.566 31 9 31 12.309 28.309 15 25 15zM28.5 26c.277 0 .5-.224.5-.5V16c0-.276-.223-.5-.5-.5l0 0c-.275 0-.5.224-.5.5v9.5C28 25.776 28.225 26 28.5 26zM20 21.5c0 .276-.224.5-.5.5h-5c-.276 0-.5-.224-.5-.5l0 0c0-.276.224-.5.5-.5h5C19.776 21 20 21.224 20 21.5L20 21.5zM24 19.5c0 .276-.224.5-.5.5h-9c-.276 0-.5-.224-.5-.5l0 0c0-.276.224-.5.5-.5h9C23.776 19 24 19.224 24 19.5L24 19.5z"/><g><path fill="#455A64" d="M24,17.5c0,0.276-0.224,0.5-0.5,0.5h-9c-0.276,0-0.5-0.224-0.5-0.5l0,0c0-0.276,0.224-0.5,0.5-0.5h9
							C23.776,17,24,17.224,24,17.5L24,17.5z"/></g><g><path fill="#455A64" d="M9.492,23.001c1.402,0,2.5-1.098,2.5-2.5c0-1.135-0.771-1.962-2.291-2.458l-0.113-0.037
								C9.02,17.82,8.492,17.57,8.492,17.001c0-0.589,0.412-1,1-1c0.705,0,1.174,0.378,1.178,0.382
								c0.213,0.178,0.527,0.15,0.705-0.06c0.178-0.212,0.15-0.526-0.061-0.704c-0.029-0.025-0.746-0.618-1.822-0.618
								c-1.141,0-2,0.86-2,2c0,1.374,1.344,1.813,1.785,1.955l0.113,0.037c1.078,0.352,1.602,0.846,1.602,1.508
								c0,0.855-0.645,1.5-1.5,1.5c-0.928,0-1.459-0.612-1.6-0.8c-0.166-0.222-0.48-0.265-0.699-0.101
								c-0.223,0.166-0.268,0.479-0.102,0.7C7.303,22.083,8.102,23.001,9.492,23.001z"/><path fill="#455A64" d="M9.5 24c.277 0 .5-.223.5-.499v-.5c0-.276-.223-.5-.5-.5-.275 0-.5.224-.5.5v.5C9 23.777 9.225 24 9.5 24zM9.5 15.501c.277 0 .5-.224.5-.5v-.5c0-.276-.223-.5-.5-.5-.275 0-.5.224-.5.5v.5C9 15.277 9.225 15.501 9.5 15.501z"/></g></svg>