<svg width="480" height="480" viewBox="0 0 420 250" fill="none" xmlns="http://www.w3.org/2000/svg">
<rect width="480" height="480" />
<path d="M152.6 160H190.4C197.358 160 203 164.791 203 170.7V256.3C203 262.209 197.358 267 190.4 267H152.6C145.642 267 140 262.209 140 256.3V170.7C140 164.791 145.642 160 152.6 160Z" fill="#9BC9FF"/>
<path d="M240.8 28H279.2C286.269 28 292 32.8357 292 38.8V125.2C292 131.164 286.269 136 279.2 136H240.8C233.731 136 228 131.164 228 125.2V38.8C228 32.8357 233.731 28 240.8 28Z" fill="#9BC9FF"/>
<path d="M386.05 165.636H296.454C293.786 159.285 286.667 155.029 278.667 155H240.767C232.766 155.029 225.647 159.285 222.979 165.636H208.021C205.353 159.285 198.234 155.029 190.233 155H152.333C144.333 155.029 137.214 159.285 134.546 165.636H44.95C34.4849 165.636 26 172.78 26 181.591V245.409C26 254.22 34.4849 261.364 44.95 261.364H134.546C137.214 267.715 144.333 271.971 152.333 272H190.233C198.234 271.971 205.353 267.715 208.021 261.364H222.979C225.647 267.715 232.766 271.971 240.767 272H278.667C286.667 271.971 293.786 267.715 296.454 261.364H386.05C396.515 261.364 405 254.22 405 245.409V181.591C405 172.78 396.515 165.636 386.05 165.636ZM221.817 176.273V250.727H209.183V176.273H221.817ZM38.6333 245.409V181.591C38.6333 178.654 41.4616 176.273 44.95 176.273H133.383V250.727H44.95C41.4616 250.727 38.6333 248.346 38.6333 245.409ZM196.55 256.045C196.55 258.982 193.722 261.364 190.233 261.364H152.333C148.845 261.364 146.017 258.982 146.017 256.045V170.955C146.017 168.018 148.845 165.636 152.333 165.636H190.233C193.722 165.636 196.55 168.018 196.55 170.955V256.045ZM284.983 256.045C284.983 258.982 282.155 261.364 278.667 261.364H240.767C237.278 261.364 234.45 258.982 234.45 256.045V170.955C234.45 168.018 237.278 165.636 240.767 165.636H278.667C282.155 165.636 284.983 168.018 284.983 170.955V256.045ZM392.367 245.409C392.367 248.346 389.538 250.727 386.05 250.727H297.617V176.273H386.05C389.538 176.273 392.367 178.654 392.367 181.591V245.409Z" fill="#57A4FF"/>
<path d="M386.05 37.8182H296.454C293.786 31.9551 286.667 28.0264 278.667 28H240.767C232.766 28.0264 225.647 31.9551 222.979 37.8182H208.021C205.353 31.9551 198.234 28.0264 190.233 28H152.333C144.333 28.0264 137.214 31.9551 134.546 37.8182H44.95C34.4849 37.8182 26 44.4124 26 52.5455V111.455C26 119.588 34.4849 126.182 44.95 126.182H134.546C137.214 132.045 144.333 135.974 152.333 136H190.233C198.234 135.974 205.353 132.045 208.021 126.182H222.979C225.647 132.045 232.766 135.974 240.767 136H278.667C286.667 135.974 293.786 132.045 296.454 126.182H386.05C396.515 126.182 405 119.588 405 111.455V52.5455C405 44.4124 396.515 37.8182 386.05 37.8182ZM221.817 47.6364V116.364H209.183V47.6364H221.817ZM38.6333 111.455V52.5455C38.6333 49.8344 41.4616 47.6364 44.95 47.6364H133.383V116.364H44.95C41.4616 116.364 38.6333 114.166 38.6333 111.455ZM196.55 121.273C196.55 123.984 193.722 126.182 190.233 126.182H152.333C148.845 126.182 146.017 123.984 146.017 121.273V42.7273C146.017 40.0162 148.845 37.8182 152.333 37.8182H190.233C193.722 37.8182 196.55 40.0162 196.55 42.7273V121.273ZM284.983 121.273C284.983 123.984 282.155 126.182 278.667 126.182H240.767C237.278 126.182 234.45 123.984 234.45 121.273V42.7273C234.45 40.0162 237.278 37.8182 240.767 37.8182H278.667C282.155 37.8182 284.983 40.0162 284.983 42.7273V121.273ZM392.367 111.455C392.367 114.166 389.538 116.364 386.05 116.364H297.617V47.6364H386.05C389.538 47.6364 392.367 49.8344 392.367 52.5455V111.455Z" fill="#57A4FF"/>
</svg>
