<svg xmlns="http://www.w3.org/2000/svg" data-name="Layer 1" viewBox="0 0 64 64"><path d="M54.78,18.63a1,1,0,0,0,.2-.84,1,1,0,0,0-.53-.68l-16-8a1,1,0,0,0-1.24.28L31.32,17l-3.38-9.3a1,1,0,0,0-.58-.59,1,1,0,0,0-.83,0l-17,9a1,1,0,0,0-.44,1.29L13.9,28,9.09,38.59a1,1,0,0,0,.38,1.26L14,42.68V47a1,1,0,0,0,.51.87l16,9h0A1.05,1.05,0,0,0,31,57a1,1,0,0,0,.49-.13l16-9A1,1,0,0,0,48,47V41.68l4.53-2.83a1,1,0,0,0,.36-1.3l-5-10h0a1.08,1.08,0,0,0-.11-.18ZM38.29,11.26l14.16,7.08-6.39,8L32.5,18.7ZM31,35.85,17,28l14-7.85L45,28ZM11.3,17.44l15.15-8,3.32,9.12L15.46,26.59Zm4.16,12,14.28,8L25.53,47.53,11.27,38.62ZM16,43.93l9.47,5.92a1,1,0,0,0,.83.1,1,1,0,0,0,.62-.57L30,42V54.29L16,46.42Zm30,2.49L32,54.29V41.62l3.09,6.79a1,1,0,0,0,.62.55A1,1,0,0,0,36,49a1,1,0,0,0,.53-.15L46,42.93Zm-9.56.13-4.15-9.13,14.28-8,4.13,8.24Z" fill="#34a853" class="color000000 svgShape"></path></svg>