<svg width="52" height="54" viewBox="0 0 52 54" fill="none" xmlns="http://www.w3.org/2000/svg">
<path fill-rule="evenodd" clip-rule="evenodd" d="M3.42449 50.5078H4.68527V31.6764C4.68764 30.9412 4.97515 30.2367 5.48502 29.7168C5.99489 29.1969 6.68572 28.9039 7.4067 28.9016H9.19591C9.91679 28.9041 10.6075 29.1972 11.1172 29.717C11.6269 30.2369 11.9143 30.9413 11.9167 31.6764V50.5078H13.8249V27.9097C13.8267 27.1742 14.114 26.4694 14.624 25.9494C15.134 25.4294 15.8252 25.1365 16.5463 25.1349H18.3355C19.0566 25.1369 19.7475 25.4299 20.2574 25.9498C20.7674 26.4697 21.0548 27.1743 21.057 27.9097V50.5078H24.2708V44.3966C24.2729 43.6612 24.5603 42.9565 25.0702 42.4365C25.5801 41.9165 26.2711 41.6234 26.9923 41.6213H28.7815C29.5025 41.6236 30.1934 41.9168 30.7033 42.4367C31.2132 42.9567 31.5006 43.6613 31.5029 44.3966V50.5078H33.2247V33.7435C33.227 33.0081 33.5145 32.3034 34.0244 31.7834C34.5343 31.2635 35.2253 30.9703 35.9464 30.9681H37.7355C38.4566 30.9704 39.1475 31.2636 39.6573 31.7836C40.1672 32.3036 40.4546 33.0082 40.4568 33.7436V50.5078H50.2879C50.7419 50.5078 51.1774 50.6917 51.4985 51.0192C51.8196 51.3466 52 51.7908 52 52.2539C52 52.717 51.8196 53.1611 51.4985 53.4886C51.1774 53.816 50.7419 54 50.2879 54H1.71235C1.25825 53.9999 0.822771 53.8159 0.501664 53.4884C0.180557 53.161 0.000109712 52.7169 0 52.2538V1.72703C0.00495603 1.26726 0.187524 0.828029 0.508075 0.504691C0.828625 0.181353 1.26129 0 1.71214 0C2.163 0 2.59566 0.181353 2.91621 0.504691C3.23676 0.828029 3.41933 1.26726 3.42429 1.72703L3.42449 50.5078ZM38.7019 11.9817C39.5659 11.9786 40.3979 12.3148 41.0253 12.9207C41.3351 13.2157 41.5822 13.5725 41.751 13.969C41.9199 14.3654 42.0071 14.7931 42.0071 15.2253C42.0071 15.6576 41.9199 16.0853 41.751 16.4817C41.5822 16.8782 41.3351 17.235 41.0253 17.53C40.5006 18.0323 39.8331 18.3519 39.1189 18.4425C38.4047 18.5332 37.6808 18.3903 37.0513 18.0345L30.4163 24.9663C30.8882 25.5869 31.1155 26.365 31.0537 27.1478C30.9918 27.9306 30.6452 28.6615 30.082 29.1971C29.453 29.8004 28.622 30.1363 27.7585 30.1363C26.895 30.1363 26.064 29.8004 25.435 29.1971C25.1252 28.902 24.8783 28.5452 24.7094 28.1487C24.5406 27.7522 24.4535 27.3246 24.4535 26.8923C24.4535 26.4601 24.5406 26.0324 24.7094 25.636C24.8783 25.2395 25.1252 24.8827 25.435 24.5876C25.4902 24.5338 25.5476 24.4819 25.6071 24.4319L19.2034 14.8098C18.7292 14.9878 18.2222 15.0563 17.719 15.0104C17.2157 14.9644 16.7287 14.8051 16.2931 14.544L11.3179 19.6179C11.681 20.1456 11.8758 20.7745 11.8759 21.4192C11.8747 21.8512 11.787 22.2785 11.6182 22.6748C11.4494 23.0711 11.203 23.428 10.8941 23.7237C10.2651 24.327 9.43416 24.6629 8.5707 24.6629C7.70723 24.6629 6.87629 24.327 6.2473 23.7237C5.93749 23.4287 5.69047 23.0719 5.52158 22.6754C5.35268 22.279 5.26553 21.8513 5.26553 21.4191C5.26553 20.9868 5.35268 20.5591 5.52158 20.1627C5.69047 19.7662 5.93749 19.4094 6.2473 19.1144C6.78325 18.6012 7.46791 18.2792 8.19856 18.1965C8.92921 18.1138 9.66644 18.275 10.2997 18.6559L15.2748 13.5822C14.9114 13.0544 14.7163 12.4253 14.7162 11.7804C14.7175 11.3484 14.8053 10.9212 14.9743 10.5251C15.1432 10.1289 15.3897 9.77211 15.6986 9.47654C16.3277 8.87333 17.1586 8.53749 18.022 8.53749C18.8855 8.53749 19.7164 8.87333 20.3454 9.47654C20.6529 9.7693 20.8986 10.123 21.0674 10.5159C21.2362 10.9089 21.3246 11.3328 21.3272 11.7618C21.3297 12.1908 21.2464 12.6159 21.0823 13.0109C20.9182 13.4059 20.6768 13.7626 20.3728 14.0592L26.8405 23.7771C27.6832 23.538 28.5836 23.6373 29.3567 24.0546L36.0092 17.1039C35.5549 16.4826 35.3414 15.7122 35.4096 14.9403C35.4778 14.1684 35.8229 13.4494 36.3787 12.9209C37.0061 12.315 37.8379 11.9786 38.7019 11.9817Z" fill="#2196F3"/>
</svg>
