<svg width="500" height="500" viewBox="0 0 500 500" fill="none" xmlns="http://www.w3.org/2000/svg">
<path d="M250 411.56C357.083 411.56 443.89 406.492 443.89 400.24C443.89 393.988 357.083 388.92 250 388.92C142.918 388.92 56.1104 393.988 56.1104 400.24C56.1104 406.492 142.918 411.56 250 411.56Z" fill="#F5F5F5"/>
<path d="M404.87 355.6H146.11C144.783 355.62 143.466 355.358 142.248 354.832C141.029 354.307 139.935 353.529 139.039 352.55C138.142 351.572 137.463 350.414 137.046 349.154C136.629 347.894 136.484 346.56 136.62 345.24L152.16 160.24C152.44 157.438 153.738 154.837 155.808 152.928C157.877 151.019 160.575 149.934 163.39 149.88H422.15C423.477 149.862 424.792 150.125 426.011 150.651C427.229 151.177 428.323 151.954 429.22 152.933C430.116 153.911 430.797 155.067 431.215 156.327C431.634 157.586 431.782 158.92 431.65 160.24L416.11 345.24C415.824 348.042 414.524 350.642 412.453 352.55C410.383 354.459 407.685 355.544 404.87 355.6Z" fill="#407BFF"/>
<path opacity="0.7" d="M404.87 355.6H146.11C144.783 355.62 143.466 355.358 142.248 354.832C141.029 354.307 139.935 353.529 139.039 352.55C138.142 351.572 137.463 350.414 137.046 349.154C136.629 347.894 136.484 346.56 136.62 345.24L152.16 160.24C152.44 157.438 153.738 154.837 155.808 152.928C157.877 151.019 160.575 149.934 163.39 149.88H422.15C423.477 149.862 424.792 150.125 426.011 150.651C427.229 151.177 428.323 151.954 429.22 152.933C430.116 153.911 430.797 155.067 431.215 156.327C431.634 157.586 431.782 158.92 431.65 160.24L416.11 345.24C415.824 348.042 414.524 350.642 412.453 352.55C410.383 354.459 407.685 355.544 404.87 355.6Z" fill="white"/>
<path d="M146.449 351.6C145.634 351.614 144.825 351.455 144.075 351.134C143.326 350.812 142.653 350.334 142.102 349.733C141.551 349.132 141.134 348.42 140.878 347.646C140.622 346.871 140.534 346.051 140.619 345.24L156.159 160.24C156.331 158.519 157.128 156.92 158.4 155.748C159.672 154.575 161.33 153.911 163.059 153.88H421.809C422.625 153.866 423.435 154.025 424.185 154.347C424.935 154.668 425.608 155.146 426.16 155.747C426.712 156.348 427.13 157.059 427.387 157.834C427.643 158.608 427.733 159.428 427.649 160.24L412.109 345.24C411.938 346.961 411.141 348.56 409.869 349.732C408.597 350.905 406.939 351.569 405.209 351.6H146.449Z" fill="white"/>
<path opacity="0.1" d="M410.369 172.737C412.445 170.746 412.645 167.583 410.814 165.674C408.983 163.764 405.815 163.831 403.738 165.823C401.661 167.814 401.462 170.977 403.293 172.886C405.124 174.795 408.292 174.729 410.369 172.737Z" fill="#407BFF"/>
<path opacity="0.1" d="M390.374 172.74C392.45 170.748 392.65 167.586 390.819 165.677C388.987 163.767 385.82 163.834 383.743 165.825C381.666 167.817 381.467 170.979 383.298 172.889C385.129 174.798 388.297 174.731 390.374 172.74Z" fill="#407BFF"/>
<path opacity="0.1" d="M370.369 172.743C372.445 170.751 372.645 167.589 370.814 165.679C368.983 163.77 365.815 163.837 363.738 165.828C361.661 167.82 361.462 170.982 363.293 172.892C365.124 174.801 368.292 174.734 370.369 172.743Z" fill="#407BFF"/>
<path opacity="0.1" d="M238.47 190.16H175.33C171.55 190.16 168.22 193.01 167.93 196.5L154.93 351.6H231.81L244.81 196.5C245.09 193 242.24 190.16 238.47 190.16Z" fill="#407BFF"/>
<path d="M236.51 194H176.64C175.282 194.031 173.982 194.556 172.982 195.476C171.983 196.396 171.353 197.649 171.21 199L168.21 234.9C168.145 235.538 168.216 236.182 168.418 236.791C168.62 237.399 168.948 237.958 169.382 238.431C169.816 238.903 170.344 239.278 170.934 239.532C171.523 239.785 172.159 239.91 172.8 239.9H232.66C234.02 239.875 235.324 239.352 236.324 238.431C237.325 237.51 237.953 236.253 238.09 234.9L241.09 199C241.152 198.364 241.079 197.721 240.876 197.115C240.674 196.508 240.346 195.951 239.914 195.48C239.482 195.008 238.956 194.633 238.369 194.378C237.783 194.123 237.149 193.994 236.51 194Z" fill="white"/>
<path d="M232.199 245.33H172.329C170.971 245.359 169.669 245.883 168.67 246.804C167.67 247.724 167.04 248.978 166.899 250.33L163.899 286.23C163.834 286.868 163.905 287.512 164.107 288.121C164.309 288.73 164.638 289.288 165.072 289.761C165.505 290.233 166.034 290.608 166.623 290.862C167.212 291.115 167.848 291.24 168.489 291.23H228.349C229.709 291.205 231.013 290.682 232.014 289.761C233.014 288.84 233.643 287.583 233.779 286.23L236.779 250.33C236.841 249.694 236.768 249.051 236.566 248.445C236.363 247.838 236.035 247.281 235.603 246.81C235.171 246.338 234.645 245.963 234.059 245.708C233.472 245.453 232.839 245.324 232.199 245.33Z" fill="white"/>
<path d="M227.889 296.67H167.999C166.64 296.697 165.337 297.22 164.337 298.141C163.337 299.062 162.708 300.317 162.569 301.67L159.569 337.57C159.504 338.208 159.575 338.852 159.777 339.461C159.979 340.07 160.308 340.628 160.741 341.101C161.175 341.573 161.704 341.948 162.293 342.202C162.882 342.455 163.518 342.58 164.159 342.57H223.999C225.359 342.543 226.661 342.02 227.661 341.099C228.662 340.178 229.29 338.923 229.429 337.57L232.429 301.67C232.494 301.036 232.424 300.396 232.225 299.791C232.026 299.186 231.702 298.63 231.274 298.158C230.846 297.686 230.323 297.31 229.74 297.054C229.157 296.797 228.526 296.667 227.889 296.67Z" fill="white"/>
<path opacity="0.5" d="M187.82 214.16H177.23C176.936 214.164 176.645 214.106 176.376 213.99C176.106 213.874 175.864 213.702 175.666 213.486C175.468 213.27 175.317 213.014 175.225 212.735C175.133 212.457 175.1 212.162 175.13 211.87L176.02 201.28C176.085 200.661 176.374 200.087 176.833 199.665C177.291 199.244 177.887 199.004 178.51 198.99H189.09C189.383 198.986 189.674 199.043 189.944 199.16C190.213 199.276 190.455 199.448 190.653 199.664C190.852 199.88 191.002 200.136 191.095 200.415C191.187 200.693 191.219 200.988 191.19 201.28L190.3 211.87C190.237 212.488 189.95 213.062 189.493 213.484C189.036 213.906 188.441 214.146 187.82 214.16Z" fill="#407BFF"/>
<path opacity="0.5" d="M233.049 222.41H175.329C175.191 222.41 175.054 222.382 174.927 222.327C174.8 222.272 174.686 222.191 174.592 222.089C174.498 221.988 174.427 221.868 174.381 221.737C174.336 221.607 174.318 221.468 174.329 221.33C174.358 221.037 174.493 220.765 174.709 220.564C174.924 220.364 175.205 220.248 175.499 220.24H233.219C233.359 220.239 233.496 220.268 233.624 220.324C233.752 220.38 233.866 220.461 233.96 220.564C234.054 220.667 234.126 220.788 234.171 220.92C234.215 221.052 234.232 221.191 234.219 221.33C234.188 221.621 234.052 221.891 233.837 222.09C233.622 222.288 233.342 222.402 233.049 222.41Z" fill="#407BFF"/>
<path opacity="0.2" d="M225.41 205.44H198.86C198.638 205.443 198.419 205.398 198.216 205.31C198.013 205.222 197.831 205.092 197.682 204.929C197.533 204.766 197.42 204.573 197.351 204.363C197.281 204.152 197.257 203.93 197.28 203.71C197.328 203.245 197.545 202.813 197.889 202.497C198.234 202.18 198.682 202 199.15 201.99H225.7C225.92 201.988 226.138 202.032 226.34 202.119C226.543 202.207 226.724 202.336 226.873 202.498C227.022 202.66 227.135 202.852 227.205 203.061C227.275 203.27 227.301 203.491 227.28 203.71C227.233 204.177 227.017 204.611 226.673 204.93C226.328 205.249 225.879 205.43 225.41 205.44Z" fill="#263238"/>
<path opacity="0.2" d="M214.429 211.16H198.379C198.159 211.162 197.941 211.119 197.738 211.031C197.536 210.944 197.355 210.814 197.206 210.652C197.057 210.49 196.944 210.298 196.873 210.089C196.803 209.881 196.778 209.659 196.799 209.44C196.845 208.975 197.06 208.542 197.402 208.224C197.745 207.905 198.192 207.722 198.659 207.71H214.719C214.94 207.708 215.16 207.752 215.363 207.84C215.565 207.928 215.747 208.058 215.897 208.221C216.046 208.385 216.159 208.578 216.228 208.788C216.298 208.998 216.322 209.22 216.299 209.44C216.251 209.905 216.034 210.337 215.689 210.654C215.345 210.97 214.897 211.15 214.429 211.16Z" fill="#263238"/>
<path opacity="0.5" d="M183.509 265.5H172.919C172.626 265.504 172.335 265.447 172.065 265.33C171.796 265.214 171.554 265.042 171.356 264.826C171.157 264.61 171.007 264.354 170.914 264.075C170.822 263.797 170.79 263.502 170.819 263.21L171.709 252.62C171.773 252 172.061 251.425 172.52 251.003C172.979 250.581 173.576 250.341 174.199 250.33H184.779C185.073 250.326 185.364 250.384 185.633 250.5C185.903 250.616 186.145 250.788 186.343 251.004C186.541 251.22 186.692 251.476 186.784 251.755C186.876 252.033 186.909 252.328 186.879 252.62L185.999 263.21C185.936 263.83 185.647 264.405 185.189 264.827C184.73 265.249 184.132 265.489 183.509 265.5Z" fill="#407BFF"/>
<path d="M228.739 273.75H170.999C170.86 273.751 170.722 273.722 170.594 273.666C170.467 273.611 170.352 273.529 170.258 273.426C170.164 273.324 170.092 273.202 170.048 273.07C170.003 272.939 169.987 272.799 169.999 272.66C170.031 272.369 170.166 272.099 170.382 271.901C170.597 271.702 170.876 271.588 171.169 271.58H228.889C229.028 271.58 229.164 271.608 229.291 271.663C229.418 271.718 229.532 271.799 229.626 271.901C229.72 272.002 229.792 272.122 229.837 272.253C229.883 272.383 229.9 272.522 229.889 272.66C229.861 272.95 229.729 273.219 229.517 273.419C229.306 273.62 229.03 273.737 228.739 273.75Z" fill="#407BFF"/>
<path opacity="0.2" d="M221.099 256.78H194.539C194.319 256.781 194.101 256.736 193.899 256.647C193.697 256.558 193.516 256.428 193.368 256.265C193.22 256.102 193.108 255.909 193.039 255.7C192.971 255.491 192.947 255.269 192.969 255.05C193.018 254.586 193.233 254.156 193.575 253.84C193.917 253.523 194.363 253.342 194.829 253.33H221.389C221.609 253.328 221.828 253.371 222.03 253.459C222.232 253.546 222.413 253.676 222.563 253.838C222.712 254 222.825 254.192 222.895 254.401C222.965 254.609 222.99 254.831 222.969 255.05C222.923 255.517 222.707 255.951 222.362 256.27C222.018 256.588 221.568 256.77 221.099 256.78Z" fill="#263238"/>
<path opacity="0.2" d="M210.12 262.5H194.06C193.84 262.502 193.622 262.459 193.42 262.371C193.218 262.283 193.038 262.154 192.889 261.992C192.741 261.829 192.629 261.637 192.56 261.429C192.491 261.22 192.467 260.999 192.49 260.78C192.536 260.314 192.75 259.882 193.093 259.563C193.435 259.245 193.882 259.062 194.35 259.05H210.41C210.631 259.047 210.85 259.092 211.053 259.18C211.256 259.268 211.438 259.398 211.587 259.561C211.736 259.724 211.849 259.917 211.919 260.127C211.988 260.338 212.012 260.56 211.99 260.78C211.941 261.245 211.724 261.677 211.38 261.993C211.036 262.31 210.587 262.49 210.12 262.5Z" fill="#263238"/>
<path d="M206.132 279H227.012C227.34 278.994 227.664 279.058 227.965 279.187C228.266 279.316 228.536 279.507 228.757 279.748C228.978 279.989 229.146 280.275 229.248 280.585C229.351 280.896 229.387 281.225 229.352 281.55L229.042 285.28C228.974 285.972 228.654 286.615 228.144 287.087C227.633 287.558 226.967 287.827 226.272 287.84H205.352C205.025 287.845 204.7 287.78 204.399 287.65C204.098 287.52 203.829 287.328 203.608 287.086C203.387 286.844 203.219 286.558 203.117 286.247C203.014 285.936 202.979 285.606 203.012 285.28L203.322 281.55C203.394 280.854 203.72 280.208 204.239 279.737C204.758 279.267 205.432 279.004 206.132 279Z" fill="#13C69E"/>
<path opacity="0.5" d="M179.19 316.84H168.61C168.316 316.843 168.025 316.784 167.755 316.666C167.486 316.549 167.244 316.376 167.046 316.159C166.847 315.942 166.697 315.686 166.605 315.407C166.513 315.128 166.48 314.832 166.51 314.54L167.4 304C167.463 303.382 167.75 302.808 168.206 302.386C168.663 301.964 169.258 301.724 169.88 301.71H180.47C180.763 301.706 181.054 301.763 181.324 301.88C181.593 301.996 181.835 302.168 182.033 302.384C182.232 302.6 182.382 302.856 182.474 303.135C182.567 303.413 182.599 303.708 182.57 304L181.68 314.58C181.605 315.193 181.313 315.759 180.856 316.174C180.398 316.589 179.807 316.825 179.19 316.84Z" fill="#407BFF"/>
<path opacity="0.25" d="M224.419 325.09H166.709C166.57 325.09 166.432 325.062 166.304 325.006C166.177 324.95 166.062 324.869 165.968 324.766C165.874 324.663 165.802 324.542 165.758 324.41C165.713 324.278 165.697 324.139 165.709 324C165.74 323.709 165.876 323.439 166.091 323.24C166.307 323.042 166.586 322.928 166.879 322.92H224.599C224.737 322.919 224.874 322.948 225.001 323.003C225.128 323.058 225.242 323.139 225.336 323.241C225.43 323.342 225.502 323.462 225.547 323.593C225.593 323.723 225.61 323.862 225.599 324C225.57 324.294 225.434 324.568 225.216 324.769C224.999 324.97 224.715 325.084 224.419 325.09Z" fill="#407BFF"/>
<path opacity="0.25" d="M213.249 325.09H166.709C166.57 325.09 166.432 325.062 166.304 325.006C166.177 324.95 166.062 324.869 165.968 324.766C165.874 324.663 165.802 324.542 165.758 324.41C165.713 324.278 165.697 324.139 165.709 324C165.74 323.709 165.876 323.439 166.091 323.24C166.307 323.042 166.586 322.928 166.879 322.92H213.419C213.557 322.919 213.694 322.948 213.821 323.003C213.948 323.058 214.062 323.139 214.156 323.241C214.25 323.342 214.322 323.462 214.367 323.593C214.413 323.723 214.43 323.862 214.419 324C214.39 324.293 214.255 324.565 214.04 324.766C213.824 324.966 213.543 325.082 213.249 325.09Z" fill="#407BFF"/>
<path opacity="0.2" d="M216.79 308.11H190.23C190.01 308.112 189.792 308.069 189.59 307.981C189.388 307.893 189.207 307.764 189.059 307.602C188.911 307.439 188.799 307.247 188.73 307.039C188.661 306.83 188.637 306.609 188.66 306.39C188.706 305.925 188.921 305.494 189.263 305.177C189.606 304.86 190.053 304.68 190.52 304.67H217.08C217.3 304.666 217.519 304.709 217.722 304.796C217.925 304.883 218.107 305.012 218.257 305.174C218.406 305.337 218.519 305.529 218.589 305.739C218.658 305.948 218.682 306.17 218.66 306.39C218.613 306.856 218.397 307.289 218.052 307.606C217.707 307.923 217.258 308.102 216.79 308.11Z" fill="#263238"/>
<path opacity="0.2" d="M205.81 313.84H189.75C189.53 313.841 189.312 313.796 189.11 313.707C188.908 313.619 188.727 313.488 188.579 313.325C188.431 313.162 188.319 312.97 188.25 312.76C188.182 312.551 188.158 312.329 188.18 312.11C188.224 311.645 188.438 311.212 188.782 310.895C189.125 310.578 189.573 310.398 190.04 310.39H206.1C206.32 310.389 206.537 310.434 206.739 310.522C206.94 310.61 207.121 310.739 207.27 310.901C207.419 311.063 207.532 311.254 207.602 311.462C207.673 311.671 207.7 311.891 207.68 312.11C207.634 312.577 207.418 313.011 207.073 313.33C206.729 313.649 206.279 313.83 205.81 313.84Z" fill="#263238"/>
<path opacity="0.1" d="M321 190.16H257.81C254.04 190.16 250.71 193.01 250.42 196.5L237.42 351.6H314.29L327.29 196.5C327.58 193 324.73 190.16 321 190.16Z" fill="#407BFF"/>
<path d="M318.999 194H259.129C257.77 194.029 256.469 194.553 255.469 195.474C254.47 196.395 253.84 197.648 253.699 199L250.699 234.9C250.634 235.537 250.705 236.181 250.906 236.789C251.108 237.396 251.435 237.955 251.868 238.427C252.301 238.899 252.828 239.275 253.416 239.529C254.004 239.782 254.639 239.909 255.279 239.9H315.149C316.509 239.873 317.811 239.35 318.811 238.429C319.812 237.508 320.44 236.253 320.579 234.9L323.579 199C323.643 198.363 323.571 197.72 323.369 197.113C323.167 196.506 322.839 195.948 322.407 195.476C321.974 195.005 321.448 194.629 320.86 194.375C320.273 194.12 319.639 193.993 318.999 194Z" fill="white"/>
<path d="M314.68 245.33H254.82C253.46 245.357 252.158 245.88 251.157 246.801C250.157 247.722 249.528 248.977 249.39 250.33L246.39 286.23C246.326 286.868 246.398 287.511 246.601 288.119C246.803 288.727 247.132 289.285 247.565 289.757C247.999 290.229 248.527 290.605 249.115 290.858C249.704 291.112 250.339 291.239 250.98 291.23H310.85C312.208 291.201 313.51 290.677 314.509 289.756C315.509 288.835 316.139 287.582 316.28 286.23L319.28 250.33C319.343 249.691 319.271 249.047 319.068 248.438C318.864 247.83 318.535 247.271 318.1 246.799C317.666 246.327 317.137 245.952 316.547 245.698C315.957 245.445 315.321 245.32 314.68 245.33Z" fill="white"/>
<path d="M310.37 296.67H250.51C249.15 296.695 247.846 297.217 246.846 298.139C245.845 299.06 245.217 300.317 245.08 301.67L242.08 337.57C242.017 338.208 242.088 338.851 242.291 339.459C242.494 340.067 242.822 340.625 243.256 341.097C243.689 341.569 244.217 341.945 244.806 342.198C245.394 342.452 246.029 342.579 246.67 342.57H306.54C307.899 342.541 309.2 342.017 310.2 341.096C311.2 340.175 311.829 338.922 311.97 337.57L314.97 301.67C315.035 301.031 314.964 300.386 314.761 299.777C314.559 299.167 314.229 298.608 313.795 298.135C313.36 297.663 312.83 297.288 312.239 297.035C311.649 296.783 311.012 296.658 310.37 296.67Z" fill="white"/>
<path opacity="0.5" d="M270.3 214.16H259.72C259.427 214.164 259.136 214.106 258.866 213.99C258.597 213.874 258.355 213.702 258.156 213.486C257.958 213.27 257.808 213.014 257.715 212.735C257.623 212.457 257.59 212.162 257.62 211.87L258.51 201.28C258.574 200.661 258.862 200.087 259.321 199.666C259.78 199.246 260.378 199.009 261 199H271.59C271.883 198.996 272.174 199.053 272.444 199.17C272.713 199.286 272.955 199.458 273.154 199.674C273.352 199.89 273.502 200.146 273.595 200.425C273.687 200.703 273.72 200.998 273.69 201.29L272.8 211.88C272.732 212.499 272.441 213.072 271.98 213.492C271.52 213.912 270.923 214.149 270.3 214.16Z" fill="#407BFF"/>
<path opacity="0.25" d="M315.53 222.41H257.82C257.681 222.41 257.544 222.382 257.418 222.327C257.291 222.272 257.177 222.191 257.083 222.089C256.989 221.988 256.917 221.868 256.871 221.737C256.826 221.607 256.809 221.468 256.82 221.33C256.847 221.036 256.981 220.763 257.197 220.562C257.412 220.361 257.695 220.246 257.99 220.24H315.71C315.849 220.239 315.987 220.268 316.114 220.324C316.242 220.38 316.356 220.461 316.451 220.564C316.545 220.667 316.616 220.788 316.661 220.92C316.706 221.052 316.722 221.191 316.71 221.33C316.678 221.623 316.541 221.894 316.324 222.093C316.106 222.292 315.824 222.404 315.53 222.41Z" fill="#407BFF"/>
<path opacity="0.25" d="M282.58 222.41H257.82C257.681 222.41 257.544 222.382 257.418 222.327C257.291 222.272 257.177 222.191 257.083 222.089C256.989 221.988 256.917 221.868 256.871 221.737C256.826 221.607 256.809 221.468 256.82 221.33C256.847 221.036 256.981 220.763 257.197 220.562C257.412 220.361 257.695 220.246 257.99 220.24H282.76C282.899 220.239 283.037 220.268 283.164 220.324C283.292 220.38 283.406 220.461 283.501 220.564C283.595 220.667 283.666 220.788 283.711 220.92C283.756 221.052 283.772 221.191 283.76 221.33C283.728 221.623 283.591 221.894 283.374 222.093C283.156 222.292 282.874 222.404 282.58 222.41Z" fill="#407BFF"/>
<path opacity="0.2" d="M307.899 205.44H281.339C281.118 205.443 280.899 205.398 280.696 205.31C280.493 205.222 280.311 205.092 280.162 204.929C280.013 204.766 279.9 204.573 279.83 204.363C279.761 204.152 279.737 203.93 279.759 203.71C279.808 203.245 280.025 202.813 280.369 202.497C280.713 202.18 281.161 202 281.629 201.99H308.189C308.409 201.988 308.627 202.031 308.829 202.119C309.03 202.207 309.211 202.336 309.36 202.498C309.508 202.661 309.62 202.853 309.689 203.061C309.758 203.27 309.782 203.491 309.759 203.71C309.713 204.176 309.499 204.608 309.156 204.927C308.814 205.245 308.367 205.428 307.899 205.44Z" fill="#263238"/>
<path opacity="0.2" d="M296.92 211.16H280.86C280.639 211.162 280.421 211.118 280.219 211.031C280.017 210.943 279.835 210.814 279.686 210.652C279.537 210.49 279.424 210.298 279.354 210.089C279.284 209.881 279.259 209.659 279.28 209.44C279.326 208.973 279.542 208.539 279.886 208.22C280.231 207.901 280.68 207.72 281.15 207.71H297.21C297.43 207.709 297.648 207.754 297.85 207.843C298.052 207.932 298.232 208.062 298.38 208.225C298.529 208.388 298.641 208.581 298.709 208.79C298.778 208.999 298.802 209.221 298.78 209.44C298.731 209.904 298.516 210.334 298.174 210.65C297.831 210.967 297.386 211.148 296.92 211.16Z" fill="#263238"/>
<path opacity="0.5" d="M265.999 265.5H255.409C255.116 265.504 254.825 265.447 254.556 265.33C254.286 265.214 254.044 265.042 253.846 264.826C253.647 264.61 253.497 264.354 253.405 264.075C253.312 263.797 253.28 263.502 253.309 263.21L254.199 252.62C254.261 252.001 254.547 251.426 255.004 251.003C255.461 250.581 256.057 250.342 256.679 250.33H267.259C267.553 250.324 267.845 250.381 268.115 250.496C268.386 250.612 268.628 250.784 268.827 251.001C269.026 251.217 269.176 251.474 269.268 251.753C269.359 252.032 269.391 252.328 269.359 252.62L268.479 263.21C268.414 263.828 268.127 264.4 267.67 264.822C267.214 265.243 266.62 265.484 265.999 265.5Z" fill="#407BFF"/>
<path opacity="0.25" d="M311.22 273.75H253.51C253.371 273.751 253.233 273.722 253.105 273.666C252.978 273.611 252.863 273.529 252.769 273.426C252.675 273.324 252.603 273.202 252.559 273.07C252.514 272.939 252.497 272.799 252.51 272.66C252.542 272.367 252.679 272.096 252.896 271.897C253.113 271.698 253.396 271.586 253.69 271.58H311.4C311.538 271.58 311.675 271.608 311.802 271.663C311.929 271.718 312.043 271.799 312.137 271.901C312.231 272.002 312.303 272.122 312.348 272.253C312.393 272.383 312.411 272.522 312.4 272.66C312.371 272.955 312.234 273.228 312.017 273.429C311.799 273.63 311.516 273.744 311.22 273.75Z" fill="#407BFF"/>
<path opacity="0.25" d="M256.59 273.75H253.51C253.371 273.751 253.233 273.722 253.105 273.666C252.978 273.611 252.863 273.529 252.769 273.426C252.675 273.324 252.603 273.202 252.559 273.07C252.514 272.939 252.497 272.799 252.51 272.66C252.542 272.367 252.679 272.096 252.896 271.897C253.113 271.698 253.396 271.586 253.69 271.58H256.77C256.908 271.58 257.045 271.608 257.172 271.663C257.299 271.718 257.413 271.799 257.507 271.901C257.601 272.002 257.673 272.122 257.718 272.253C257.763 272.383 257.781 272.522 257.77 272.66C257.741 272.955 257.604 273.228 257.387 273.429C257.169 273.63 256.886 273.744 256.59 273.75Z" fill="#407BFF"/>
<path opacity="0.2" d="M303.589 256.78H276.999C276.778 256.782 276.559 256.738 276.356 256.65C276.153 256.562 275.971 256.432 275.822 256.269C275.673 256.105 275.56 255.912 275.49 255.702C275.421 255.492 275.397 255.27 275.419 255.05C275.468 254.585 275.685 254.153 276.029 253.836C276.373 253.52 276.822 253.34 277.289 253.33H303.849C304.069 253.327 304.287 253.371 304.489 253.459C304.691 253.546 304.871 253.676 305.02 253.838C305.168 254.001 305.28 254.192 305.349 254.401C305.418 254.61 305.442 254.831 305.419 255.05C305.374 255.51 305.164 255.939 304.828 256.257C304.491 256.575 304.052 256.76 303.589 256.78Z" fill="#263238"/>
<path opacity="0.2" d="M292.609 262.5H276.549C276.329 262.502 276.111 262.458 275.908 262.371C275.706 262.283 275.525 262.154 275.376 261.992C275.227 261.83 275.113 261.638 275.043 261.429C274.973 261.22 274.948 260.999 274.969 260.78C275.015 260.313 275.231 259.879 275.576 259.56C275.92 259.241 276.37 259.06 276.839 259.05H292.889C293.11 259.047 293.33 259.092 293.532 259.18C293.735 259.268 293.917 259.398 294.067 259.561C294.216 259.724 294.329 259.917 294.398 260.127C294.467 260.338 294.492 260.56 294.469 260.78C294.421 261.244 294.205 261.674 293.863 261.99C293.521 262.307 293.075 262.488 292.609 262.5Z" fill="#263238"/>
<path opacity="0.5" d="M261.68 316.84H251.1C250.806 316.843 250.515 316.784 250.245 316.667C249.976 316.549 249.734 316.377 249.536 316.159C249.338 315.942 249.187 315.686 249.095 315.407C249.003 315.128 248.97 314.833 249 314.54L249.89 303.96C249.951 303.341 250.237 302.766 250.694 302.344C251.152 301.921 251.748 301.682 252.37 301.67H263C263.293 301.666 263.584 301.724 263.854 301.84C264.123 301.956 264.365 302.128 264.564 302.344C264.762 302.56 264.912 302.816 265.005 303.095C265.097 303.373 265.13 303.668 265.1 303.96L264.21 314.54C264.148 315.169 263.855 315.752 263.387 316.177C262.92 316.602 262.312 316.838 261.68 316.84Z" fill="#407BFF"/>
<path opacity="0.2" d="M299.279 308.11H272.719C272.498 308.114 272.279 308.071 272.076 307.984C271.873 307.897 271.691 307.768 271.542 307.606C271.393 307.443 271.28 307.251 271.21 307.041C271.141 306.831 271.116 306.61 271.139 306.39C271.186 305.924 271.402 305.491 271.747 305.174C272.091 304.857 272.541 304.677 273.009 304.67H299.559C299.78 304.666 299.999 304.709 300.202 304.796C300.405 304.883 300.587 305.012 300.736 305.174C300.886 305.337 300.999 305.529 301.068 305.739C301.138 305.948 301.162 306.17 301.139 306.39C301.093 306.854 300.878 307.286 300.535 307.603C300.193 307.92 299.746 308.1 299.279 308.11Z" fill="#263238"/>
<path opacity="0.2" d="M288.29 313.84H272.24C272.018 313.843 271.799 313.798 271.596 313.71C271.393 313.622 271.211 313.492 271.062 313.329C270.913 313.165 270.8 312.972 270.731 312.762C270.661 312.552 270.637 312.33 270.66 312.11C270.708 311.645 270.925 311.213 271.269 310.896C271.614 310.58 272.062 310.4 272.53 310.39H288.58C288.8 310.388 289.018 310.432 289.22 310.519C289.422 310.607 289.604 310.736 289.753 310.898C289.902 311.06 290.015 311.252 290.085 311.461C290.155 311.669 290.181 311.891 290.16 312.11C290.113 312.577 289.897 313.011 289.553 313.33C289.208 313.649 288.759 313.83 288.29 313.84Z" fill="#263238"/>
<path d="M284.13 330.09H305C305.326 330.086 305.65 330.15 305.95 330.28C306.25 330.409 306.519 330.601 306.74 330.841C306.961 331.082 307.129 331.367 307.232 331.677C307.335 331.987 307.372 332.315 307.34 332.64L307.03 336.37C306.957 337.059 306.635 337.698 306.126 338.168C305.616 338.637 304.952 338.904 304.26 338.92H283.39C283.063 338.925 282.739 338.86 282.439 338.73C282.139 338.601 281.87 338.41 281.649 338.169C281.428 337.928 281.26 337.643 281.157 337.333C281.054 337.023 281.017 336.695 281.05 336.37L281.36 332.64C281.432 331.951 281.754 331.312 282.264 330.843C282.773 330.373 283.437 330.106 284.13 330.09Z" fill="#FD974D"/>
<path opacity="0.1" d="M403.439 190.16H340.299C338.505 190.133 336.763 190.762 335.4 191.93C334.037 193.098 333.148 194.723 332.899 196.5L319.899 351.6H396.769L409.769 196.5C410.069 193 407.219 190.16 403.439 190.16Z" fill="#407BFF"/>
<path d="M401.479 194H341.619C340.26 194.027 338.958 194.55 337.957 195.471C336.957 196.392 336.328 197.647 336.189 199L333.189 234.9C333.124 235.538 333.195 236.182 333.397 236.791C333.599 237.399 333.928 237.958 334.362 238.431C334.795 238.903 335.324 239.278 335.913 239.532C336.502 239.785 337.138 239.91 337.779 239.9H397.639C398.999 239.875 400.303 239.352 401.304 238.431C402.305 237.51 402.933 236.253 403.069 234.9L406.069 199C406.133 198.362 406.061 197.719 405.858 197.111C405.656 196.503 405.327 195.945 404.894 195.473C404.46 195.001 403.932 194.625 403.344 194.372C402.755 194.118 402.12 193.991 401.479 194Z" fill="white"/>
<path d="M397.17 245.33H337.31C335.95 245.357 334.648 245.881 333.648 246.802C332.648 247.723 332.019 248.978 331.88 250.33L328.88 286.23C328.815 286.868 328.886 287.513 329.088 288.121C329.29 288.73 329.618 289.289 330.052 289.761C330.486 290.233 331.014 290.608 331.604 290.862C332.193 291.115 332.829 291.24 333.47 291.23H393.33C394.69 291.205 395.994 290.683 396.994 289.761C397.995 288.84 398.623 287.583 398.76 286.23L401.76 250.33C401.822 249.693 401.749 249.05 401.545 248.443C401.342 247.835 401.013 247.278 400.58 246.806C400.147 246.334 399.62 245.959 399.032 245.705C398.445 245.451 397.81 245.323 397.17 245.33Z" fill="white"/>
<path d="M392.859 296.67H332.999C331.641 296.699 330.339 297.223 329.339 298.144C328.34 299.065 327.71 300.318 327.569 301.67L324.569 337.57C324.504 338.208 324.575 338.852 324.777 339.461C324.979 340.07 325.308 340.629 325.741 341.101C326.175 341.573 326.704 341.948 327.293 342.202C327.882 342.455 328.518 342.58 329.159 342.57H388.999C390.359 342.545 391.663 342.023 392.664 341.101C393.664 340.18 394.293 338.923 394.429 337.57L397.429 301.67C397.493 301.034 397.421 300.392 397.22 299.786C397.018 299.179 396.691 298.622 396.26 298.15C395.829 297.679 395.303 297.303 394.717 297.048C394.131 296.793 393.498 296.664 392.859 296.67Z" fill="white"/>
<path opacity="0.5" d="M352.789 214.16H342.209C341.916 214.166 341.624 214.109 341.354 213.994C341.083 213.878 340.841 213.706 340.642 213.489C340.443 213.273 340.293 213.016 340.201 212.737C340.109 212.458 340.078 212.162 340.109 211.87L340.989 201.28C341.055 200.661 341.344 200.087 341.802 199.665C342.261 199.244 342.857 199.004 343.479 198.99H354.059C354.353 198.986 354.644 199.043 354.913 199.16C355.183 199.276 355.425 199.448 355.623 199.664C355.821 199.88 355.972 200.136 356.064 200.415C356.157 200.693 356.189 200.988 356.159 201.28L355.269 211.87C355.208 212.489 354.922 213.064 354.465 213.487C354.008 213.909 353.412 214.148 352.789 214.16Z" fill="#407BFF"/>
<path opacity="0.5" d="M397.999 222.41H340.299C340.161 222.41 340.024 222.382 339.897 222.327C339.77 222.272 339.656 222.191 339.562 222.089C339.468 221.988 339.396 221.868 339.351 221.737C339.306 221.607 339.288 221.468 339.299 221.33C339.328 221.035 339.465 220.762 339.682 220.561C339.9 220.36 340.183 220.246 340.479 220.24H398.199C398.338 220.239 398.476 220.268 398.604 220.324C398.731 220.38 398.846 220.461 398.94 220.564C399.034 220.667 399.106 220.788 399.15 220.92C399.195 221.052 399.212 221.191 399.199 221.33C399.169 221.627 399.03 221.902 398.808 222.102C398.586 222.302 398.298 222.411 397.999 222.41Z" fill="#407BFF"/>
<path opacity="0.2" d="M390.379 205.44H363.829C363.608 205.443 363.389 205.398 363.186 205.31C362.983 205.222 362.801 205.092 362.652 204.929C362.503 204.766 362.39 204.573 362.32 204.363C362.251 204.152 362.227 203.93 362.249 203.71C362.298 203.245 362.515 202.813 362.859 202.497C363.204 202.18 363.652 202 364.119 201.99H390.669C390.89 201.988 391.108 202.032 391.31 202.119C391.512 202.207 391.694 202.336 391.843 202.498C391.992 202.66 392.105 202.852 392.175 203.061C392.245 203.27 392.27 203.491 392.249 203.71C392.203 204.177 391.987 204.611 391.643 204.93C391.298 205.249 390.849 205.43 390.379 205.44Z" fill="#263238"/>
<path opacity="0.2" d="M379.4 211.16H363.4C363.179 211.162 362.961 211.119 362.759 211.031C362.557 210.944 362.375 210.814 362.226 210.652C362.077 210.49 361.964 210.298 361.894 210.089C361.824 209.881 361.799 209.659 361.82 209.44C361.866 208.973 362.082 208.539 362.426 208.22C362.771 207.901 363.22 207.72 363.69 207.71H379.74C379.961 207.708 380.18 207.752 380.383 207.84C380.586 207.928 380.768 208.058 380.917 208.221C381.066 208.385 381.179 208.578 381.249 208.788C381.318 208.998 381.342 209.22 381.32 209.44C381.27 209.914 381.046 210.352 380.691 210.67C380.336 210.988 379.876 211.163 379.4 211.16Z" fill="#263238"/>
<path opacity="0.5" d="M348.48 265.5H337.89C337.597 265.504 337.305 265.447 337.036 265.33C336.766 265.214 336.525 265.042 336.326 264.826C336.128 264.61 335.978 264.354 335.885 264.075C335.793 263.797 335.76 263.502 335.79 263.21L336.68 252.62C336.745 252.001 337.034 251.427 337.493 251.005C337.951 250.584 338.547 250.344 339.17 250.33H349.75C350.043 250.326 350.334 250.384 350.604 250.5C350.873 250.616 351.115 250.788 351.314 251.004C351.512 251.22 351.662 251.476 351.755 251.755C351.847 252.033 351.88 252.328 351.85 252.62L351 263.21C350.938 263.836 350.646 264.417 350.18 264.84C349.715 265.263 349.109 265.498 348.48 265.5Z" fill="#407BFF"/>
<path opacity="0.5" d="M393.709 273.75H335.999C335.86 273.751 335.722 273.722 335.595 273.666C335.467 273.611 335.352 273.529 335.258 273.426C335.164 273.324 335.092 273.202 335.048 273.07C335.003 272.939 334.987 272.799 334.999 272.66C335.031 272.369 335.166 272.099 335.382 271.901C335.597 271.702 335.877 271.588 336.169 271.58H393.889C394.028 271.58 394.164 271.608 394.291 271.663C394.418 271.718 394.532 271.799 394.626 271.901C394.72 272.002 394.792 272.122 394.837 272.253C394.883 272.383 394.9 272.522 394.889 272.66C394.86 272.955 394.724 273.228 394.506 273.429C394.289 273.63 394.005 273.744 393.709 273.75Z" fill="#EE1D52"/>
<path opacity="0.2" d="M386.07 256.78H359.52C359.299 256.782 359.079 256.738 358.876 256.65C358.674 256.562 358.492 256.432 358.342 256.269C358.193 256.105 358.08 255.912 358.011 255.702C357.941 255.492 357.917 255.27 357.94 255.05C357.988 254.585 358.205 254.153 358.55 253.836C358.894 253.52 359.342 253.34 359.81 253.33H386.36C386.58 253.328 386.798 253.371 387.001 253.459C387.203 253.546 387.384 253.676 387.533 253.838C387.682 254 387.795 254.192 387.866 254.401C387.936 254.609 387.961 254.831 387.94 255.05C387.893 255.517 387.678 255.951 387.333 256.27C386.989 256.588 386.539 256.77 386.07 256.78Z" fill="#263238"/>
<path opacity="0.2" d="M375.089 262.5H358.999C358.779 262.502 358.561 262.458 358.359 262.371C358.156 262.283 357.975 262.154 357.826 261.992C357.677 261.83 357.564 261.638 357.494 261.429C357.424 261.22 357.398 260.999 357.419 260.78C357.466 260.313 357.681 259.879 358.026 259.56C358.371 259.241 358.82 259.06 359.289 259.05H375.339C375.56 259.047 375.78 259.092 375.983 259.18C376.186 259.268 376.368 259.398 376.517 259.561C376.666 259.724 376.779 259.917 376.848 260.127C376.918 260.338 376.942 260.56 376.919 260.78C376.872 261.239 376.661 261.665 376.325 261.981C375.988 262.296 375.55 262.481 375.089 262.5Z" fill="#263238"/>
<path d="M371.092 278.75H391.982C392.309 278.746 392.633 278.81 392.933 278.94C393.233 279.069 393.502 279.26 393.723 279.501C393.944 279.742 394.112 280.027 394.215 280.337C394.318 280.647 394.355 280.975 394.322 281.3L394.002 285.03C393.936 285.723 393.617 286.366 393.106 286.839C392.595 287.311 391.928 287.578 391.232 287.59H370.352C370.025 287.595 369.7 287.53 369.399 287.4C369.098 287.27 368.829 287.077 368.608 286.835C368.386 286.594 368.219 286.308 368.117 285.996C368.014 285.685 367.979 285.356 368.012 285.03L368.322 281.3C368.395 280.611 368.717 279.972 369.226 279.502C369.736 279.033 370.4 278.766 371.092 278.75Z" fill="#FF0041"/>
<path d="M374.492 281.22C374.751 281.22 374.975 281.264 375.164 281.352C375.353 281.44 375.497 281.567 375.596 281.732C375.697 281.897 375.748 282.093 375.748 282.32C375.748 282.424 375.739 282.524 375.72 282.62C375.669 282.903 375.565 283.148 375.408 283.356C375.251 283.564 375.051 283.724 374.808 283.836C374.565 283.945 374.296 284 374 284H373.092L373.584 281.22H374.492ZM374.064 283.652C374.387 283.652 374.651 283.56 374.856 283.376C375.064 283.192 375.196 282.94 375.252 282.62C375.268 282.527 375.276 282.44 375.276 282.36C375.276 282.115 375.204 281.925 375.06 281.792C374.916 281.656 374.705 281.588 374.428 281.588H373.976L373.612 283.652H374.064ZM377.272 281.76C377.547 281.76 377.765 281.837 377.928 281.992C378.093 282.147 378.176 282.355 378.176 282.616C378.176 282.677 378.169 282.751 378.156 282.836C378.145 282.895 378.127 282.967 378.1 283.052H376.416C376.413 283.071 376.412 283.099 376.412 283.136C376.412 283.293 376.46 283.419 376.556 283.512C376.655 283.605 376.783 283.652 376.94 283.652C377.188 283.652 377.379 283.549 377.512 283.344H378.004C377.903 283.547 377.753 283.713 377.556 283.844C377.359 283.972 377.131 284.036 376.872 284.036C376.688 284.036 376.527 284 376.388 283.928C376.249 283.856 376.141 283.753 376.064 283.62C375.987 283.484 375.948 283.325 375.948 283.144C375.948 283.067 375.956 282.984 375.972 282.896C376.012 282.669 376.093 282.471 376.216 282.3C376.339 282.127 376.491 281.993 376.672 281.9C376.856 281.807 377.056 281.76 377.272 281.76ZM377.7 282.724C377.705 282.676 377.708 282.641 377.708 282.62C377.708 282.473 377.659 282.357 377.56 282.272C377.464 282.187 377.339 282.144 377.184 282.144C377.021 282.144 376.875 282.196 376.744 282.3C376.613 282.404 376.524 282.545 376.476 282.724H377.7ZM379.377 281.04L378.853 284H378.397L378.921 281.04H379.377ZM379.495 282.888C379.535 282.667 379.615 282.471 379.735 282.3C379.858 282.129 380.007 281.997 380.183 281.904C380.359 281.808 380.543 281.76 380.735 281.76C380.909 281.76 381.054 281.795 381.171 281.864C381.289 281.931 381.377 282.015 381.435 282.116L381.491 281.796H381.951L381.563 284H381.103L381.163 283.672C381.067 283.776 380.946 283.863 380.799 283.932C380.655 284.001 380.498 284.036 380.327 284.036C380.162 284.036 380.014 283.999 379.883 283.924C379.755 283.849 379.654 283.744 379.579 283.608C379.507 283.469 379.471 283.311 379.471 283.132C379.471 283.052 379.479 282.971 379.495 282.888ZM381.299 282.896C381.31 282.845 381.315 282.791 381.315 282.732C381.315 282.553 381.262 282.413 381.155 282.312C381.051 282.208 380.921 282.156 380.763 282.156C380.646 282.156 380.531 282.185 380.419 282.244C380.307 282.3 380.21 282.384 380.127 282.496C380.045 282.605 379.99 282.736 379.963 282.888C379.953 282.939 379.947 282.993 379.947 283.052C379.947 283.233 379.999 283.377 380.103 283.484C380.21 283.588 380.342 283.64 380.499 283.64C380.617 283.64 380.731 283.611 380.843 283.552C380.955 283.493 381.053 283.408 381.135 283.296C381.218 283.181 381.273 283.048 381.299 282.896ZM382.798 281.796L383.122 283.476L384.062 281.796H384.534L382.614 285.036H382.142L382.778 283.964L382.29 281.796H382.798ZM385.834 281.76C386.109 281.76 386.328 281.837 386.49 281.992C386.656 282.147 386.738 282.355 386.738 282.616C386.738 282.677 386.732 282.751 386.718 282.836C386.708 282.895 386.689 282.967 386.662 283.052H384.978C384.976 283.071 384.974 283.099 384.974 283.136C384.974 283.293 385.022 283.419 385.118 283.512C385.217 283.605 385.345 283.652 385.502 283.652C385.75 283.652 385.941 283.549 386.074 283.344H386.566C386.465 283.547 386.316 283.713 386.118 283.844C385.921 283.972 385.693 284.036 385.434 284.036C385.25 284.036 385.089 284 384.95 283.928C384.812 283.856 384.704 283.753 384.626 283.62C384.549 283.484 384.51 283.325 384.51 283.144C384.51 283.067 384.518 282.984 384.534 282.896C384.574 282.669 384.656 282.471 384.778 282.3C384.901 282.127 385.053 281.993 385.234 281.9C385.418 281.807 385.618 281.76 385.834 281.76ZM386.262 282.724C386.268 282.676 386.27 282.641 386.27 282.62C386.27 282.473 386.221 282.357 386.122 282.272C386.026 282.187 385.901 282.144 385.746 282.144C385.584 282.144 385.437 282.196 385.306 282.3C385.176 282.404 385.086 282.545 385.038 282.724H386.262ZM387.003 282.888C387.043 282.667 387.123 282.471 387.243 282.3C387.366 282.129 387.515 281.997 387.691 281.904C387.867 281.808 388.053 281.76 388.247 281.76C388.391 281.76 388.527 281.792 388.655 281.856C388.783 281.917 388.881 282 388.947 282.104L389.135 281.04H389.595L389.071 284H388.611L388.671 283.668C388.575 283.777 388.455 283.867 388.311 283.936C388.17 284.003 388.014 284.036 387.843 284.036C387.675 284.036 387.526 283.999 387.395 283.924C387.265 283.849 387.162 283.744 387.087 283.608C387.015 283.469 386.979 283.311 386.979 283.132C386.979 283.052 386.987 282.971 387.003 282.888ZM388.807 282.896C388.818 282.845 388.823 282.791 388.823 282.732C388.823 282.553 388.77 282.413 388.663 282.312C388.559 282.208 388.429 282.156 388.271 282.156C388.154 282.156 388.039 282.185 387.927 282.244C387.815 282.3 387.718 282.384 387.635 282.496C387.553 282.605 387.498 282.736 387.471 282.888C387.461 282.939 387.455 282.993 387.455 283.052C387.455 283.233 387.507 283.377 387.611 283.484C387.718 283.588 387.85 283.64 388.007 283.64C388.125 283.64 388.239 283.611 388.351 283.552C388.463 283.493 388.561 283.408 388.643 283.296C388.726 283.181 388.781 283.048 388.807 282.896Z" fill="white"/>
<path opacity="0.5" d="M344.169 316.84H333.579C333.285 316.843 332.994 316.784 332.725 316.667C332.455 316.549 332.213 316.377 332.015 316.159C331.817 315.942 331.667 315.686 331.575 315.407C331.482 315.128 331.45 314.833 331.479 314.54L332.369 303.96C332.435 303.341 332.724 302.767 333.182 302.345C333.641 301.924 334.237 301.684 334.859 301.67H345.439C345.733 301.666 346.024 301.724 346.293 301.84C346.563 301.956 346.805 302.128 347.003 302.344C347.201 302.56 347.352 302.816 347.444 303.095C347.537 303.373 347.569 303.668 347.539 303.96L346.649 314.54C346.586 315.16 346.3 315.735 345.843 316.158C345.387 316.581 344.792 316.824 344.169 316.84Z" fill="#407BFF"/>
<path opacity="0.25" d="M389.4 325.09H331.68C331.541 325.09 331.403 325.062 331.275 325.006C331.148 324.95 331.033 324.869 330.939 324.766C330.845 324.663 330.773 324.542 330.728 324.41C330.684 324.278 330.667 324.139 330.68 324C330.711 323.709 330.847 323.439 331.062 323.24C331.277 323.042 331.557 322.928 331.85 322.92H389.57C389.708 322.919 389.845 322.948 389.972 323.003C390.099 323.058 390.213 323.139 390.307 323.241C390.401 323.342 390.473 323.462 390.518 323.593C390.563 323.723 390.581 323.862 390.57 324C390.541 324.293 390.406 324.565 390.191 324.766C389.975 324.966 389.694 325.082 389.4 325.09Z" fill="#407BFF"/>
<path opacity="0.2" d="M381.759 308.11H355.209C354.989 308.114 354.77 308.071 354.567 307.984C354.364 307.897 354.182 307.768 354.032 307.606C353.883 307.443 353.77 307.251 353.7 307.041C353.631 306.831 353.607 306.61 353.629 306.39C353.676 305.925 353.89 305.494 354.233 305.177C354.576 304.86 355.023 304.68 355.489 304.67H382.049C382.27 304.666 382.489 304.709 382.692 304.796C382.895 304.883 383.077 305.012 383.226 305.174C383.376 305.337 383.489 305.529 383.558 305.739C383.628 305.948 383.652 306.17 383.629 306.39C383.583 306.856 383.367 307.289 383.022 307.606C382.677 307.923 382.228 308.102 381.759 308.11Z" fill="#263238"/>
<path opacity="0.2" d="M370.78 313.84H354.78C354.558 313.843 354.339 313.798 354.136 313.71C353.933 313.622 353.751 313.492 353.602 313.329C353.453 313.165 353.34 312.972 353.271 312.762C353.201 312.552 353.177 312.33 353.2 312.11C353.248 311.646 353.463 311.216 353.806 310.9C354.148 310.583 354.594 310.402 355.06 310.39H371.12C371.34 310.388 371.558 310.432 371.76 310.519C371.962 310.607 372.144 310.736 372.293 310.898C372.442 311.06 372.555 311.252 372.625 311.461C372.695 311.669 372.721 311.891 372.7 312.11C372.652 312.586 372.429 313.026 372.074 313.346C371.719 313.666 371.258 313.842 370.78 313.84Z" fill="#263238"/>
<path d="M205.184 283.6C205.232 283.325 205.336 283.08 205.496 282.864C205.659 282.645 205.857 282.476 206.092 282.356C206.329 282.233 206.581 282.172 206.848 282.172C207.16 282.172 207.42 282.252 207.628 282.412C207.836 282.572 207.961 282.793 208.004 283.076H207.36C207.317 282.948 207.244 282.852 207.14 282.788C207.036 282.721 206.908 282.688 206.756 282.688C206.593 282.688 206.441 282.725 206.3 282.8C206.161 282.875 206.044 282.981 205.948 283.12C205.855 283.259 205.792 283.419 205.76 283.6C205.747 283.685 205.74 283.756 205.74 283.812C205.74 284.028 205.801 284.199 205.924 284.324C206.049 284.449 206.219 284.512 206.432 284.512C206.584 284.512 206.724 284.479 206.852 284.412C206.98 284.345 207.088 284.248 207.176 284.12H207.82C207.676 284.405 207.472 284.628 207.208 284.788C206.947 284.945 206.66 285.024 206.348 285.024C206.113 285.024 205.905 284.977 205.724 284.884C205.545 284.788 205.407 284.653 205.308 284.48C205.209 284.307 205.16 284.108 205.16 283.884C205.16 283.791 205.168 283.696 205.184 283.6ZM209.13 285.036C208.941 285.036 208.773 284.997 208.626 284.92C208.482 284.843 208.37 284.733 208.29 284.592C208.21 284.451 208.17 284.288 208.17 284.104C208.17 283.853 208.229 283.625 208.346 283.42C208.466 283.212 208.629 283.048 208.834 282.928C209.042 282.808 209.273 282.748 209.526 282.748C209.716 282.748 209.884 282.788 210.03 282.868C210.18 282.945 210.294 283.055 210.374 283.196C210.457 283.337 210.498 283.5 210.498 283.684C210.498 283.937 210.438 284.167 210.318 284.372C210.198 284.577 210.033 284.74 209.822 284.86C209.614 284.977 209.384 285.036 209.13 285.036ZM209.206 284.556C209.34 284.556 209.461 284.517 209.57 284.44C209.68 284.363 209.765 284.26 209.826 284.132C209.888 284.004 209.918 283.869 209.918 283.728C209.918 283.568 209.873 283.445 209.782 283.36C209.694 283.272 209.582 283.228 209.446 283.228C209.31 283.228 209.189 283.267 209.082 283.344C208.978 283.421 208.897 283.525 208.838 283.656C208.78 283.784 208.75 283.92 208.75 284.064C208.75 284.221 208.792 284.343 208.874 284.428C208.96 284.513 209.07 284.556 209.206 284.556ZM213.841 282.752C214.076 282.752 214.261 282.815 214.397 282.94C214.533 283.065 214.601 283.243 214.601 283.472C214.601 283.557 214.594 283.633 214.581 283.7L214.349 285H213.793L214.009 283.776C214.017 283.728 214.021 283.681 214.021 283.636C214.021 283.508 213.985 283.411 213.913 283.344C213.844 283.275 213.744 283.24 213.613 283.24C213.458 283.24 213.328 283.287 213.221 283.38C213.114 283.471 213.048 283.603 213.021 283.776V283.772L212.801 285H212.245L212.461 283.776C212.469 283.728 212.473 283.683 212.473 283.64C212.473 283.509 212.437 283.411 212.365 283.344C212.293 283.275 212.192 283.24 212.061 283.24C211.914 283.24 211.788 283.284 211.681 283.372C211.577 283.457 211.509 283.58 211.477 283.74L211.253 285H210.689L211.081 282.784H211.645L211.597 283.048C211.685 282.957 211.79 282.885 211.913 282.832C212.036 282.779 212.165 282.752 212.301 282.752C212.474 282.752 212.622 282.789 212.745 282.864C212.868 282.936 212.954 283.04 213.005 283.176C213.098 283.048 213.22 282.945 213.369 282.868C213.521 282.791 213.678 282.752 213.841 282.752ZM215.781 283.104C215.871 283.003 215.985 282.919 216.121 282.852C216.259 282.783 216.41 282.748 216.573 282.748C216.738 282.748 216.883 282.784 217.009 282.856C217.137 282.925 217.235 283.027 217.305 283.16C217.374 283.293 217.409 283.449 217.409 283.628C217.409 283.711 217.401 283.796 217.385 283.884C217.345 284.111 217.265 284.312 217.145 284.488C217.025 284.661 216.879 284.796 216.709 284.892C216.538 284.988 216.359 285.036 216.173 285.036C216.01 285.036 215.871 285.003 215.757 284.936C215.645 284.869 215.559 284.785 215.501 284.684L215.261 286.056H214.696L215.273 282.784H215.837L215.781 283.104ZM216.812 283.884C216.821 283.831 216.825 283.783 216.825 283.74C216.825 283.583 216.779 283.46 216.689 283.372C216.598 283.284 216.482 283.24 216.341 283.24C216.239 283.24 216.139 283.267 216.041 283.32C215.942 283.371 215.857 283.445 215.785 283.544C215.713 283.643 215.665 283.759 215.641 283.892C215.63 283.961 215.625 284.012 215.625 284.044C215.625 284.201 215.67 284.324 215.761 284.412C215.854 284.5 215.97 284.544 216.109 284.544C216.213 284.544 216.314 284.517 216.413 284.464C216.511 284.411 216.597 284.335 216.669 284.236C216.741 284.137 216.789 284.02 216.812 283.884ZM218.679 282.04L218.155 285H217.591L218.115 282.04H218.679ZM220.073 282.748C220.355 282.748 220.579 282.827 220.745 282.984C220.91 283.139 220.993 283.348 220.993 283.612C220.993 283.697 220.986 283.773 220.973 283.84C220.957 283.92 220.939 283.989 220.921 284.048H219.301C219.298 284.067 219.297 284.093 219.297 284.128C219.297 284.267 219.337 284.376 219.417 284.456C219.499 284.533 219.607 284.572 219.741 284.572C219.853 284.572 219.949 284.548 220.029 284.5C220.111 284.449 220.178 284.384 220.229 284.304H220.833C220.734 284.517 220.581 284.693 220.373 284.832C220.167 284.968 219.934 285.036 219.673 285.036C219.39 285.036 219.163 284.956 218.993 284.796C218.822 284.636 218.737 284.419 218.737 284.144C218.737 284.064 218.745 283.98 218.761 283.892C218.801 283.663 218.882 283.461 219.005 283.288C219.13 283.115 219.285 282.981 219.469 282.888C219.653 282.795 219.854 282.748 220.073 282.748ZM220.417 283.708C220.422 283.665 220.425 283.635 220.425 283.616C220.425 283.488 220.383 283.388 220.301 283.316C220.218 283.244 220.11 283.208 219.977 283.208C219.835 283.208 219.709 283.253 219.597 283.344C219.485 283.432 219.406 283.553 219.361 283.708H220.417ZM221.949 284.316C221.947 284.332 221.945 284.353 221.945 284.38C221.945 284.433 221.96 284.472 221.989 284.496C222.021 284.517 222.073 284.528 222.145 284.528H222.409L222.325 285H221.969C221.569 285 221.369 284.833 221.369 284.5C221.369 284.436 221.375 284.373 221.385 284.312L221.573 283.244H221.309L221.389 282.784H221.657L221.753 282.236H222.317L222.221 282.784H222.713L222.633 283.244H222.137L221.949 284.316ZM224.092 282.748C224.375 282.748 224.599 282.827 224.764 282.984C224.93 283.139 225.012 283.348 225.012 283.612C225.012 283.697 225.006 283.773 224.992 283.84C224.976 283.92 224.959 283.989 224.94 284.048H223.32C223.318 284.067 223.316 284.093 223.316 284.128C223.316 284.267 223.356 284.376 223.436 284.456C223.519 284.533 223.627 284.572 223.76 284.572C223.872 284.572 223.968 284.548 224.048 284.5C224.131 284.449 224.198 284.384 224.248 284.304H224.852C224.754 284.517 224.6 284.693 224.392 284.832C224.187 284.968 223.954 285.036 223.692 285.036C223.41 285.036 223.183 284.956 223.012 284.796C222.842 284.636 222.756 284.419 222.756 284.144C222.756 284.064 222.764 283.98 222.78 283.892C222.82 283.663 222.902 283.461 223.024 283.288C223.15 283.115 223.304 282.981 223.488 282.888C223.672 282.795 223.874 282.748 224.092 282.748ZM224.436 283.708C224.442 283.665 224.444 283.635 224.444 283.616C224.444 283.488 224.403 283.388 224.32 283.316C224.238 283.244 224.13 283.208 223.996 283.208C223.855 283.208 223.728 283.253 223.616 283.344C223.504 283.432 223.426 283.553 223.38 283.708H224.436ZM225.249 283.884C225.289 283.66 225.368 283.461 225.485 283.288C225.605 283.115 225.75 282.981 225.921 282.888C226.094 282.795 226.276 282.748 226.465 282.748C226.609 282.748 226.741 282.78 226.861 282.844C226.981 282.905 227.07 282.988 227.129 283.092L227.317 282.04H227.881L227.357 285H226.793L226.853 284.672C226.765 284.781 226.652 284.869 226.513 284.936C226.377 285.003 226.226 285.036 226.061 285.036C225.898 285.036 225.753 285 225.625 284.928C225.5 284.853 225.401 284.749 225.329 284.616C225.26 284.48 225.225 284.323 225.225 284.144C225.225 284.061 225.233 283.975 225.249 283.884ZM226.989 283.892C227 283.823 227.005 283.772 227.005 283.74C227.005 283.583 226.958 283.46 226.865 283.372C226.774 283.284 226.66 283.24 226.521 283.24C226.417 283.24 226.316 283.265 226.217 283.316C226.121 283.367 226.037 283.441 225.965 283.54C225.893 283.636 225.845 283.751 225.821 283.884C225.813 283.935 225.809 283.983 225.809 284.028C225.809 284.188 225.854 284.315 225.945 284.408C226.036 284.499 226.15 284.544 226.289 284.544C226.393 284.544 226.494 284.519 226.593 284.468C226.692 284.415 226.776 284.339 226.845 284.24C226.917 284.141 226.965 284.025 226.989 283.892Z" fill="white"/>
<g opacity="0.2">
<path d="M30.5206 384.214L71.4493 308.565L112.378 384.214H30.5206Z" fill="#407BFF"/>
<path d="M30.5206 256.236L71.4493 331.879L112.378 256.236H30.5206Z" fill="#407BFF"/>
</g>
<path d="M63.951 300.898L69.9402 311.964C70.0872 312.237 70.3052 312.464 70.571 312.623C70.8369 312.782 71.1407 312.865 71.4504 312.865C71.76 312.865 72.0638 312.782 72.3297 312.623C72.5956 312.464 72.8136 312.237 72.9605 311.964L78.9498 300.898C79.4897 299.898 79.7606 298.775 79.7357 297.638C79.7109 296.502 79.3913 295.391 78.8082 294.416C78.2251 293.44 77.3986 292.632 76.4095 292.072C75.4205 291.512 74.3028 291.218 73.1662 291.22H69.7024C68.5685 291.224 67.4549 291.522 66.4703 292.084C65.4856 292.647 64.6636 293.455 64.0843 294.429C63.5049 295.404 63.1882 296.512 63.1648 297.646C63.1414 298.78 63.4123 299.9 63.951 300.898Z" fill="#407BFF"/>
<path d="M70.8016 365.115L52.1977 372.762C51.8346 372.915 51.5353 373.189 51.3501 373.536C51.1648 373.884 51.1048 374.285 51.1801 374.672C51.2555 375.058 51.4617 375.407 51.764 375.66C52.0663 375.913 52.4463 376.054 52.8403 376.059H90.0289C90.4228 376.054 90.8028 375.913 91.1052 375.66C91.4075 375.407 91.6136 375.058 91.689 374.672C91.7644 374.285 91.7044 373.884 91.5191 373.536C91.3338 373.189 91.0345 372.915 90.6715 372.762L72.119 365.115C71.9104 365.028 71.6865 364.983 71.4603 364.983C71.2341 364.983 71.0102 365.028 70.8016 365.115Z" fill="#407BFF"/>
<path d="M71.4498 350.566C70.1331 350.566 69.0657 349.499 69.0657 348.182C69.0657 346.866 70.1331 345.798 71.4498 345.798C72.7666 345.798 73.834 346.866 73.834 348.182C73.834 349.499 72.7666 350.566 71.4498 350.566Z" fill="#407BFF"/>
<path d="M71.4503 324.508C70.7724 324.508 70.2229 323.958 70.2229 323.281C70.2229 322.603 70.7724 322.053 71.4503 322.053C72.1282 322.053 72.6777 322.603 72.6777 323.281C72.6777 323.958 72.1282 324.508 71.4503 324.508Z" fill="#407BFF"/>
<path d="M71.4502 336.544C70.6801 336.544 70.0557 335.92 70.0557 335.15C70.0557 334.38 70.6801 333.755 71.4502 333.755C72.2204 333.755 72.8447 334.38 72.8447 335.15C72.8447 335.92 72.2204 336.544 71.4502 336.544Z" fill="#407BFF"/>
<path d="M30.7271 380.48H112.173C113.162 380.484 114.109 380.879 114.807 381.578C115.506 382.278 115.899 383.226 115.9 384.214C115.897 385.202 115.503 386.148 114.805 386.846C114.107 387.544 113.161 387.938 112.173 387.941H30.7271C29.7397 387.938 28.7936 387.544 28.0953 386.846C27.3971 386.148 27.0033 385.202 26.9999 384.214C27.0016 383.226 27.3947 382.278 28.0931 381.578C28.7915 380.879 29.7386 380.484 30.7271 380.48Z" fill="#407BFF"/>
<path d="M30.7271 252.509H112.173C113.161 252.512 114.107 252.906 114.805 253.604C115.503 254.302 115.897 255.248 115.9 256.236C115.897 257.223 115.503 258.169 114.805 258.868C114.107 259.566 113.161 259.96 112.173 259.963H30.7271C29.7397 259.96 28.7936 259.566 28.0953 258.868C27.3971 258.169 27.0033 257.223 26.9999 256.236C27.0033 255.248 27.3971 254.302 28.0953 253.604C28.7936 252.906 29.7397 252.512 30.7271 252.509Z" fill="#407BFF"/>
<path d="M137.262 382.807L141.793 381.335L138.978 370.648L134.448 372.12L137.262 382.807Z" fill="#FF8B7B"/>
<path d="M141.863 380.731L136.774 382.383C136.688 382.408 136.615 382.466 136.571 382.544C136.527 382.622 136.514 382.714 136.536 382.801L137.596 386.913C137.664 387.125 137.813 387.302 138.011 387.404C138.208 387.506 138.438 387.526 138.65 387.46C140.411 386.856 141.221 386.476 143.463 385.75C144.845 385.3 149.382 384.131 151.284 383.514C153.186 382.897 152.524 381.033 151.663 381.123C147.808 381.528 144.337 381.348 142.731 380.757C142.453 380.653 142.147 380.644 141.863 380.731Z" fill="#263238"/>
<path opacity="0.2" d="M134.448 372.126L138.978 370.648L140.431 376.162L135.894 377.634L134.448 372.126Z" fill="black"/>
<path d="M122.064 263.947C122.064 263.947 130.194 301.573 132.102 315.1C134.191 329.913 142.037 374.395 142.037 374.395L133.625 376.721C133.625 376.721 121.968 333.582 118.562 319.181C114.867 303.546 105.067 263.915 105.067 263.915L122.064 263.947Z" fill="#407BFF"/>
<path opacity="0.3" d="M112.013 276.286C115.226 283.573 116.814 299.42 115.567 306.714C113.292 297.364 110.555 286.246 108.44 277.693C109.154 275.213 110.336 272.481 112.013 276.286Z" fill="black"/>
<path d="M133.412 376.888L142.422 374.408L142.242 370.739L132.101 374.241L133.412 376.888Z" fill="#263238"/>
<path d="M143.727 381.001C143.308 381.123 142.877 381.201 142.442 381.233C142.42 381.234 142.399 381.229 142.38 381.219C142.361 381.209 142.345 381.193 142.335 381.175C142.324 381.156 142.319 381.134 142.319 381.113C142.32 381.091 142.327 381.071 142.339 381.053C142.455 380.905 143.451 379.613 144.074 379.652C144.146 379.655 144.215 379.677 144.276 379.715C144.337 379.754 144.387 379.807 144.421 379.87C144.485 379.963 144.524 380.072 144.533 380.185C144.542 380.297 144.521 380.411 144.472 380.513C144.29 380.759 144.026 380.933 143.727 381.001ZM142.705 381.001C143.566 380.898 144.158 380.68 144.299 380.404C144.329 380.338 144.34 380.266 144.332 380.195C144.324 380.124 144.297 380.056 144.254 379.999C144.238 379.968 144.214 379.942 144.185 379.922C144.155 379.903 144.122 379.892 144.087 379.89C143.753 379.851 143.123 380.481 142.705 380.982V381.001Z" fill="#263238"/>
<path d="M142.487 381.226H142.435C142.416 381.222 142.399 381.214 142.384 381.201C142.37 381.189 142.359 381.173 142.352 381.155C142.352 381.104 141.805 379.832 142.12 379.227C142.159 379.151 142.216 379.086 142.285 379.035C142.354 378.985 142.434 378.952 142.519 378.938C142.61 378.911 142.708 378.915 142.796 378.95C142.885 378.985 142.959 379.049 143.007 379.131C143.271 379.594 142.904 380.757 142.538 381.175L142.487 381.226ZM142.487 379.189C142.444 379.201 142.404 379.223 142.369 379.251C142.335 379.28 142.307 379.316 142.287 379.356C142.18 379.873 142.24 380.412 142.461 380.892C142.772 380.411 142.889 379.83 142.789 379.266C142.789 379.208 142.699 379.144 142.538 379.176L142.487 379.189Z" fill="#263238"/>
<path d="M113.414 228.224C113.658 228.802 113.864 229.239 114.089 229.728C114.314 230.216 114.558 230.666 114.796 231.129C115.271 232.06 115.772 232.967 116.293 233.873C117.344 235.692 118.503 237.447 119.763 239.129C121.053 240.869 122.482 242.5 124.036 244.007C125.693 245.637 127.571 247.026 129.614 248.132L129.775 248.216C130.035 248.35 130.312 248.45 130.598 248.512C132.061 248.816 133.577 248.756 135.012 248.338C136.205 247.981 137.339 247.453 138.38 246.77C140.126 245.596 141.693 244.176 143.032 242.555C144.277 241.076 145.409 239.505 146.419 237.857C147.416 236.237 148.303 234.552 149.073 232.812C149.271 232.352 149.297 231.836 149.146 231.359C148.994 230.881 148.676 230.474 148.248 230.213C147.821 229.951 147.314 229.852 146.82 229.934C146.326 230.016 145.878 230.274 145.558 230.66L145.494 230.737C144.433 232.022 143.283 233.391 142.126 234.637C140.999 235.879 139.802 237.054 138.54 238.159C137.426 239.17 136.186 240.033 134.852 240.729C134.353 240.986 133.818 241.164 133.265 241.256C132.955 241.314 132.635 241.287 132.339 241.179L133.322 241.558C131.994 240.663 130.783 239.605 129.717 238.41C128.557 237.106 127.484 235.728 126.504 234.284C125.489 232.806 124.525 231.257 123.619 229.663C123.156 228.873 122.713 228.07 122.295 227.254L121.652 226.039C121.453 225.647 121.235 225.197 121.08 224.882L121.042 224.792C120.573 223.804 119.736 223.038 118.709 222.661C117.682 222.283 116.548 222.323 115.551 222.773C114.554 223.222 113.772 224.045 113.375 225.064C112.978 226.084 112.997 227.218 113.427 228.224H113.414Z" fill="#263238"/>
<path opacity="0.3" d="M123.921 236.951C121.903 231.591 117.617 231.501 115.76 232.922C115.895 233.172 116.036 233.423 116.178 233.673C117.186 235.428 118.291 237.125 119.487 238.757C120.715 240.435 122.066 242.021 123.529 243.499C123.992 243.955 124.468 244.405 124.962 244.842C125.133 242.169 124.779 239.488 123.921 236.951Z" fill="black"/>
<path d="M149.234 233.146L153.411 233.301L152.37 228.834C150.932 228.906 149.505 229.121 148.109 229.477C147.855 229.554 147.623 229.69 147.431 229.873C147.239 230.056 147.094 230.282 147.005 230.533C146.917 230.783 146.889 231.051 146.923 231.314C146.958 231.577 147.054 231.828 147.203 232.048C147.429 232.38 147.732 232.653 148.085 232.844C148.438 233.035 148.832 233.139 149.234 233.146Z" fill="#FF8B7B"/>
<path d="M146.896 229.374C147.305 229.049 147.775 228.807 148.277 228.661C148.624 230.486 150.848 233.564 150.848 233.564H149.106C148.882 233.565 148.661 233.516 148.457 233.422C148.254 233.328 148.074 233.19 147.93 233.018L146.709 231.553C146.575 231.399 146.474 231.22 146.411 231.026C146.348 230.832 146.324 230.627 146.341 230.424C146.359 230.221 146.417 230.023 146.512 229.843C146.607 229.663 146.738 229.503 146.896 229.374Z" fill="#407BFF"/>
<path d="M156.611 231.244L155.442 228.095L152.383 228.841L153.424 233.301L156.611 231.244Z" fill="#FF8B7B"/>
<path d="M104.09 384.889H108.851L109.019 373.855H104.257L104.09 384.889Z" fill="#FF8B7B"/>
<path d="M109.102 384.336H103.749C103.704 384.335 103.659 384.342 103.617 384.357C103.575 384.373 103.537 384.397 103.504 384.427C103.471 384.457 103.445 384.494 103.426 384.535C103.407 384.575 103.397 384.619 103.395 384.664L103.138 388.899C103.138 389.122 103.226 389.336 103.382 389.494C103.538 389.653 103.751 389.744 103.974 389.747C105.837 389.715 106.724 389.606 109.115 389.606C110.561 389.606 115.4 389.754 117.398 389.754C119.397 389.754 119.326 387.774 118.497 387.595C114.693 386.798 111.3 385.667 109.956 384.632C109.715 384.437 109.412 384.332 109.102 384.336Z" fill="#263238"/>
<path opacity="0.2" d="M104.25 373.862H109.019L108.929 379.549H104.167L104.25 373.862Z" fill="black"/>
<path d="M112.772 263.948C112.772 263.948 114.59 305.339 113.819 318.982C112.971 333.916 111.197 378.174 111.197 378.174H102.47C102.47 378.174 100.273 335.118 99.7458 320.338C99.1738 304.272 96.5841 263.948 96.5841 263.948H112.772Z" fill="#407BFF"/>
<path d="M102.117 378.174H111.544L112.264 374.665L101.86 375.186L102.117 378.174Z" fill="#263238"/>
<path d="M110.792 385.165C110.359 385.155 109.928 385.099 109.507 384.998C109.487 384.992 109.468 384.98 109.454 384.964C109.439 384.948 109.429 384.929 109.423 384.908C109.421 384.888 109.424 384.867 109.432 384.848C109.44 384.829 109.452 384.812 109.468 384.799C109.623 384.69 110.972 383.771 111.557 384.002C111.622 384.028 111.679 384.07 111.724 384.124C111.769 384.178 111.8 384.242 111.814 384.311C111.843 384.415 111.846 384.525 111.821 384.631C111.796 384.737 111.745 384.834 111.673 384.915C111.42 385.104 111.106 385.193 110.792 385.165ZM109.828 384.838C110.683 385.005 111.306 384.979 111.531 384.761C111.577 384.707 111.609 384.641 111.622 384.572C111.636 384.502 111.631 384.43 111.608 384.362C111.604 384.328 111.59 384.295 111.568 384.268C111.547 384.241 111.519 384.22 111.486 384.208C111.171 384.086 110.381 384.484 109.828 384.838Z" fill="#263238"/>
<path d="M109.545 384.998C109.528 385.004 109.51 385.004 109.494 384.998C109.477 384.989 109.464 384.976 109.454 384.96C109.444 384.945 109.437 384.927 109.436 384.908C109.436 384.851 109.326 383.482 109.808 383.019C109.87 382.959 109.944 382.914 110.025 382.887C110.106 382.861 110.193 382.853 110.278 382.865C110.372 382.868 110.462 382.903 110.534 382.964C110.606 383.024 110.656 383.107 110.676 383.199C110.792 383.72 110.078 384.716 109.603 384.998C109.584 385.004 109.564 385.004 109.545 384.998ZM110.188 383.07C110.143 383.069 110.1 383.077 110.059 383.094C110.018 383.11 109.981 383.135 109.95 383.167C109.684 383.625 109.574 384.157 109.635 384.683C110.046 384.33 110.522 383.572 110.451 383.231C110.451 383.167 110.4 383.09 110.239 383.07H110.188Z" fill="#263238"/>
<path d="M94.1998 225.531C94.1285 225.13 94.139 224.718 94.2307 224.32C94.3223 223.922 94.4933 223.547 94.7333 223.217C94.9733 222.887 95.2774 222.609 95.6274 222.4C95.9774 222.19 96.3661 222.053 96.7703 221.997H96.8217C98.3576 221.772 100.285 221.541 102.175 221.451C105.781 221.245 109.396 221.245 113.003 221.451C114.667 221.605 116.293 221.881 117.591 222.132H117.643C118.454 222.296 119.206 222.678 119.816 223.237C120.426 223.797 120.873 224.512 121.106 225.306C122.662 230.544 124.519 241.237 122.09 263.941H96.6096C96.4297 261.666 96.9374 254.263 96.5646 244.836C96.1922 238.357 95.4023 231.909 94.1998 225.531Z" fill="#263238"/>
<path opacity="0.3" d="M94.4433 226.932C94.9703 229.978 95.6193 234.123 96.0692 238.5C96.0692 238.5 98.3955 233.937 98.8196 230.036C99.2437 226.136 95.8957 225.84 94.4433 226.932Z" fill="black"/>
<g opacity="0.2">
<path d="M111.531 227.536C111.584 227.534 111.634 227.514 111.675 227.481C111.716 227.447 111.745 227.401 111.757 227.349C111.769 227.298 111.765 227.244 111.743 227.195C111.722 227.147 111.686 227.106 111.64 227.08L103.697 222.961C103.641 222.933 103.576 222.929 103.516 222.948C103.456 222.967 103.406 223.009 103.376 223.064C103.346 223.121 103.341 223.187 103.36 223.249C103.379 223.31 103.422 223.361 103.479 223.391L111.422 227.498C111.455 227.518 111.492 227.531 111.531 227.536Z" fill="white"/>
<path d="M107.894 227.909C107.925 227.911 107.956 227.905 107.985 227.893C108.014 227.881 108.04 227.862 108.061 227.839L112.418 223.514C112.461 223.467 112.484 223.407 112.484 223.343C112.484 223.28 112.461 223.22 112.418 223.173C112.372 223.129 112.311 223.104 112.247 223.104C112.184 223.104 112.123 223.129 112.077 223.173L107.726 227.504C107.682 227.55 107.657 227.611 107.657 227.675C107.657 227.738 107.682 227.799 107.726 227.845C107.749 227.866 107.775 227.883 107.804 227.894C107.832 227.905 107.863 227.91 107.894 227.909Z" fill="white"/>
<path d="M102.155 221.444C105.759 221.239 109.372 221.239 112.977 221.444H113.157C113.244 221.775 113.265 222.12 113.217 222.459C113.17 222.797 113.055 223.123 112.88 223.417C112.276 224.381 111.01 224.921 109.108 225.024H108.395C103.254 225.024 101.268 221.901 101.185 221.766L101.005 221.477L102.155 221.444Z" fill="white"/>
</g>
<path d="M112.463 221.406C109.314 220.66 108.762 218.713 108.974 216.573C109.024 216.037 109.108 215.505 109.224 214.98L105.279 211.702L102.381 209.299C103.184 212.788 104.09 219.144 101.738 221.47C101.738 221.47 103.666 224.683 109.083 224.4C113.626 224.15 112.463 221.406 112.463 221.406Z" fill="#FF8B7B"/>
<path opacity="0.2" d="M109.225 214.98C109.108 215.505 109.024 216.037 108.974 216.573C107.502 216.278 105.536 214.71 105.33 213.206C105.258 212.708 105.241 212.204 105.279 211.702L109.225 214.98Z" fill="black"/>
<path d="M111.32 198.259C113.459 199.544 113.119 202.757 113.697 205.057C112.335 205.192 110.189 202.77 110.189 202.77L108.903 199.088L111.32 198.259Z" fill="#263238"/>
<path d="M99.9383 204.723C101.307 209.26 101.866 211.979 104.771 213.874C105.705 214.499 106.792 214.856 107.915 214.908C109.037 214.959 110.152 214.703 111.14 214.166C112.127 213.629 112.949 212.833 113.516 211.863C114.084 210.893 114.375 209.786 114.359 208.663C114.359 204.338 112.135 197.642 107.174 196.716C106.105 196.488 104.994 196.545 103.954 196.881C102.913 197.217 101.98 197.821 101.247 198.633C100.514 199.444 100.007 200.434 99.7771 201.503C99.5474 202.572 99.603 203.683 99.9383 204.723Z" fill="#FF8B7B"/>
<path d="M104.212 208.573C100.999 204.845 105.016 203.008 101.732 200.418C105.427 200.591 111.512 200.328 112.598 197.796C113.685 195.264 110.343 191.832 107.56 191.511C104.347 191.138 105.041 195.116 105.041 195.116C105.041 195.116 92.7479 194.351 96.6486 199.614C93.6925 199.435 94.5087 204.216 99.6496 208.251C100.941 208.682 104.212 208.573 104.212 208.573Z" fill="#263238"/>
<path d="M97.3867 199.679C97.3867 199.679 94.8548 198.927 94.9383 196.922C94.0258 197.552 93.9294 199.467 97.3867 199.679Z" fill="#263238"/>
<path d="M99.1869 209.459C99.9264 210.373 100.96 211.002 102.111 211.239C103.57 211.503 103.91 210.153 103.184 208.836C102.541 207.654 100.98 206.092 99.6689 206.42C98.3579 206.747 98.2551 208.309 99.1869 209.459Z" fill="#FF8B7B"/>
<path d="M107.258 204.608C107.348 204.98 107.618 205.25 107.868 205.192C108.119 205.134 108.241 204.8 108.151 204.428C108.061 204.055 107.791 203.785 107.547 203.836C107.303 203.888 107.168 204.228 107.258 204.608Z" fill="#263238"/>
<path d="M111.518 203.753C111.608 204.126 111.878 204.396 112.122 204.344C112.366 204.293 112.501 203.952 112.411 203.579C112.321 203.207 112.052 202.937 111.807 202.988C111.563 203.04 111.428 203.38 111.518 203.753Z" fill="#263238"/>
<path d="M110.208 204.209C110.933 205.267 111.798 206.223 112.778 207.05C112.56 207.285 112.292 207.47 111.995 207.591C111.697 207.712 111.377 207.766 111.056 207.75L110.208 204.209Z" fill="#FF5652"/>
<path d="M109.745 209.061C109.301 209.103 108.852 209.054 108.427 208.917C108.001 208.78 107.608 208.558 107.271 208.264C107.26 208.254 107.252 208.243 107.246 208.229C107.24 208.216 107.236 208.202 107.236 208.187C107.236 208.172 107.24 208.158 107.246 208.145C107.252 208.131 107.26 208.119 107.271 208.11C107.293 208.089 107.322 208.077 107.352 208.077C107.382 208.077 107.41 208.089 107.432 208.11C107.801 208.424 108.238 208.648 108.709 208.765C109.179 208.882 109.67 208.889 110.144 208.785C110.158 208.782 110.173 208.782 110.187 208.785C110.202 208.788 110.215 208.794 110.227 208.802C110.239 208.811 110.249 208.821 110.257 208.834C110.265 208.846 110.27 208.86 110.272 208.875C110.278 208.904 110.272 208.935 110.255 208.96C110.238 208.986 110.212 209.003 110.182 209.009L109.745 209.061Z" fill="#263238"/>
<path d="M105.613 203.567C105.577 203.579 105.539 203.579 105.504 203.567C105.477 203.555 105.452 203.538 105.432 203.517C105.412 203.495 105.396 203.47 105.386 203.442C105.376 203.415 105.371 203.385 105.373 203.356C105.374 203.326 105.381 203.298 105.394 203.271C105.532 202.943 105.749 202.653 106.026 202.429C106.303 202.205 106.631 202.053 106.982 201.986C107.041 201.978 107.101 201.994 107.149 202.03C107.197 202.066 107.229 202.12 107.239 202.179C107.242 202.208 107.24 202.238 107.232 202.267C107.224 202.296 107.21 202.322 107.191 202.346C107.173 202.369 107.15 202.388 107.124 202.403C107.098 202.417 107.069 202.426 107.039 202.429C106.767 202.487 106.513 202.609 106.298 202.786C106.083 202.963 105.914 203.189 105.806 203.445C105.787 203.48 105.759 203.51 105.725 203.531C105.691 203.553 105.653 203.565 105.613 203.567Z" fill="#263238"/>
<path d="M112.573 201.195C112.538 201.208 112.501 201.211 112.465 201.204C112.429 201.197 112.395 201.181 112.367 201.157C112.145 200.972 111.883 200.842 111.602 200.776C111.321 200.71 111.029 200.711 110.748 200.778C110.72 200.787 110.69 200.791 110.66 200.788C110.63 200.786 110.601 200.778 110.575 200.765C110.548 200.751 110.525 200.733 110.505 200.71C110.486 200.687 110.471 200.661 110.462 200.633C110.453 200.605 110.449 200.575 110.451 200.545C110.453 200.516 110.462 200.487 110.475 200.46C110.488 200.434 110.507 200.41 110.529 200.391C110.552 200.371 110.578 200.356 110.606 200.347C110.958 200.26 111.325 200.256 111.679 200.335C112.032 200.415 112.363 200.575 112.644 200.803C112.69 200.84 112.721 200.894 112.728 200.953C112.735 201.012 112.719 201.071 112.682 201.118C112.656 201.156 112.617 201.184 112.573 201.195Z" fill="#263238"/>
<path d="M93.9684 223.7L93.435 224.426L92.953 225.107C92.6317 225.563 92.3425 226.02 92.0405 226.476C91.4557 227.395 90.9031 228.327 90.3697 229.265C89.3007 231.141 88.3311 233.071 87.465 235.049C87.0152 236.025 86.6296 237.041 86.2183 238.037C85.8071 239.033 85.46 240.067 85.1452 241.108C84.468 243.18 83.9102 245.29 83.4744 247.425L83.4229 247.67C83.3286 248.101 83.3204 248.547 83.3987 248.981C83.477 249.416 83.6403 249.83 83.8792 250.202C84.7072 251.472 85.6893 252.636 86.8031 253.665C87.9487 254.715 89.2492 255.582 90.6589 256.236C92.0505 256.884 93.5403 257.297 95.0673 257.457C95.8145 257.534 96.567 257.547 97.3164 257.495C97.6892 257.495 98.0619 257.425 98.4346 257.367L99.0001 257.258L99.6427 257.097C99.7183 257.079 99.7837 257.031 99.8246 256.965C99.8655 256.899 99.8786 256.819 99.8612 256.743L98.9744 253.016C98.9744 252.984 98.8073 252.978 98.7045 252.952L98.3511 252.881C98.1069 252.83 97.8691 252.772 97.6249 252.708C97.1489 252.579 96.6828 252.416 96.2304 252.219C95.3546 251.86 94.5345 251.377 93.7949 250.786C92.3478 249.595 91.1917 248.09 90.4147 246.384L90.8195 249.161C91.3722 247.342 91.957 245.543 92.6639 243.762C93.3707 241.982 94.1419 240.234 94.9837 238.512C95.8255 236.79 96.7252 235.087 97.6956 233.429C98.1711 232.6 98.6724 231.784 99.1736 230.974L99.9383 229.779L100.317 229.201L100.671 228.687L100.799 228.494C101.435 227.588 101.685 226.467 101.494 225.377C101.303 224.286 100.687 223.317 99.7809 222.681C98.875 222.046 97.7538 221.796 96.6637 221.987C95.5736 222.178 94.6041 222.794 93.9684 223.7Z" fill="#263238"/>
<path d="M102.464 256.725L103.846 258.987L97.85 258.749C97.85 258.749 96.2756 254.713 98.422 254.077L99.2574 254.302C100.594 254.676 101.739 255.541 102.464 256.725Z" fill="#FF8B7B"/>
<path d="M99.9964 253.556C100.428 253.848 100.799 254.221 101.089 254.655C99.4566 255.542 97.1817 258.562 97.1817 258.562L96.6548 256.904C96.5878 256.69 96.5686 256.464 96.5986 256.242C96.6285 256.02 96.707 255.807 96.8283 255.619L97.8243 254.012C97.9332 253.836 98.077 253.683 98.2468 253.563C98.4167 253.444 98.6091 253.36 98.8123 253.318C99.0156 253.275 99.2253 253.274 99.4289 253.315C99.6325 253.356 99.8256 253.438 99.9964 253.556Z" fill="#407BFF"/>
<path d="M103.319 262.47L98.377 262.033L97.85 258.749L103.846 258.987L103.319 262.47Z" fill="#FF8B7B"/>
<path opacity="0.25" d="M306.22 325.75H248.51C248.371 325.751 248.233 325.722 248.105 325.666C247.978 325.611 247.863 325.529 247.769 325.426C247.675 325.324 247.603 325.202 247.559 325.07C247.514 324.939 247.497 324.799 247.51 324.66C247.542 324.367 247.679 324.096 247.896 323.897C248.113 323.698 248.396 323.586 248.69 323.58H306.4C306.538 323.58 306.675 323.608 306.802 323.663C306.929 323.718 307.043 323.799 307.137 323.901C307.231 324.002 307.303 324.122 307.348 324.253C307.393 324.383 307.411 324.522 307.4 324.66C307.371 324.955 307.234 325.228 307.017 325.429C306.799 325.63 306.516 325.744 306.22 325.75Z" fill="#407BFF"/>
<path d="M251.59 325.75H248.51C248.371 325.751 248.233 325.722 248.105 325.666C247.978 325.611 247.863 325.529 247.769 325.426C247.675 325.324 247.603 325.202 247.559 325.07C247.514 324.939 247.497 324.799 247.51 324.66C247.542 324.367 247.679 324.096 247.896 323.897C248.113 323.698 248.396 323.586 248.69 323.58H251.77C251.908 323.58 252.045 323.608 252.172 323.663C252.299 323.718 252.413 323.799 252.507 323.901C252.601 324.002 252.673 324.122 252.718 324.253C252.763 324.383 252.781 324.522 252.77 324.66C252.741 324.955 252.604 325.228 252.387 325.429C252.169 325.63 251.886 325.744 251.59 325.75Z" fill="#407BFF"/>
<path d="M284.04 333.22L283.548 336H283.092L283.584 333.22H284.04ZM285.655 333.76C285.887 333.76 286.071 333.823 286.207 333.948C286.345 334.071 286.415 334.248 286.415 334.48C286.415 334.539 286.408 334.612 286.395 334.7L286.163 336H285.711L285.931 334.768C285.941 334.693 285.947 334.64 285.947 334.608C285.947 334.461 285.905 334.349 285.823 334.272C285.743 334.195 285.631 334.156 285.487 334.156C285.313 334.156 285.167 334.209 285.047 334.316C284.929 334.42 284.855 334.571 284.823 334.768V334.756L284.603 336H284.147L284.535 333.796H284.991L284.947 334.052C285.037 333.961 285.144 333.891 285.267 333.84C285.392 333.787 285.521 333.76 285.655 333.76ZM288.728 334.36L288.66 334.744H287.016L287.084 334.36H288.728ZM291.372 334.048C291.348 334.189 291.291 334.323 291.2 334.448C291.112 334.573 290.988 334.676 290.828 334.756C290.668 334.833 290.474 334.872 290.244 334.872H289.74L289.54 336H289.084L289.576 333.22H290.536C290.816 333.22 291.028 333.283 291.172 333.408C291.316 333.531 291.388 333.692 291.388 333.892C291.388 333.927 291.383 333.979 291.372 334.048ZM290.308 334.516C290.482 334.516 290.618 334.475 290.716 334.392C290.818 334.309 290.88 334.195 290.904 334.048C290.912 334.008 290.916 333.969 290.916 333.932C290.916 333.82 290.879 333.733 290.804 333.672C290.732 333.608 290.622 333.576 290.472 333.576H289.968L289.804 334.516H290.308ZM292.239 334.184C292.33 334.051 292.436 333.947 292.559 333.872C292.684 333.797 292.823 333.76 292.975 333.76L292.891 334.232H292.775C292.599 334.232 292.458 334.276 292.351 334.364C292.244 334.452 292.17 334.604 292.127 334.82L291.919 336H291.463L291.851 333.796H292.307L292.239 334.184ZM293.962 336.036C293.776 336.036 293.612 335.997 293.47 335.92C293.329 335.843 293.218 335.733 293.138 335.592C293.061 335.451 293.022 335.289 293.022 335.108C293.022 334.86 293.08 334.633 293.194 334.428C293.312 334.223 293.472 334.06 293.674 333.94C293.88 333.82 294.108 333.76 294.358 333.76C294.545 333.76 294.71 333.8 294.854 333.88C294.998 333.957 295.11 334.067 295.19 334.208C295.273 334.347 295.314 334.508 295.314 334.692C295.314 334.94 295.254 335.167 295.134 335.372C295.014 335.577 294.852 335.74 294.646 335.86C294.441 335.977 294.213 336.036 293.962 336.036ZM294.018 335.652C294.17 335.652 294.309 335.609 294.434 335.524C294.562 335.436 294.662 335.321 294.734 335.18C294.806 335.036 294.842 334.883 294.842 334.72C294.842 334.536 294.79 334.395 294.686 334.296C294.582 334.195 294.452 334.144 294.294 334.144C294.14 334.144 294.001 334.188 293.878 334.276C293.758 334.361 293.664 334.477 293.594 334.624C293.528 334.768 293.494 334.923 293.494 335.088C293.494 335.267 293.542 335.405 293.638 335.504C293.737 335.603 293.864 335.652 294.018 335.652ZM296.833 333.76C297.004 333.76 297.149 333.795 297.269 333.864C297.392 333.931 297.48 334.015 297.533 334.116L297.589 333.796H298.049L297.657 336.036C297.62 336.239 297.545 336.419 297.433 336.576C297.321 336.736 297.176 336.861 296.997 336.952C296.818 337.043 296.617 337.088 296.393 337.088C296.198 337.088 296.028 337.056 295.881 336.992C295.734 336.931 295.624 336.841 295.549 336.724C295.474 336.607 295.442 336.468 295.453 336.308H295.905C295.918 336.423 295.976 336.515 296.077 336.584C296.178 336.656 296.308 336.692 296.465 336.692C296.649 336.692 296.808 336.636 296.941 336.524C297.074 336.412 297.16 336.249 297.197 336.036L297.261 335.668C297.165 335.772 297.045 335.86 296.901 335.932C296.757 336.001 296.601 336.036 296.433 336.036C296.265 336.036 296.116 335.999 295.985 335.924C295.854 335.849 295.752 335.744 295.677 335.608C295.605 335.469 295.569 335.311 295.569 335.132C295.569 335.052 295.577 334.971 295.593 334.888C295.633 334.667 295.713 334.471 295.833 334.3C295.956 334.129 296.105 333.997 296.281 333.904C296.457 333.808 296.641 333.76 296.833 333.76ZM297.397 334.896C297.408 334.845 297.413 334.791 297.413 334.732C297.413 334.553 297.36 334.413 297.253 334.312C297.149 334.208 297.018 334.156 296.861 334.156C296.744 334.156 296.629 334.185 296.517 334.244C296.405 334.3 296.308 334.384 296.225 334.496C296.142 334.605 296.088 334.736 296.061 334.888C296.05 334.939 296.045 334.993 296.045 335.052C296.045 335.233 296.097 335.377 296.201 335.484C296.308 335.588 296.44 335.64 296.597 335.64C296.714 335.64 296.829 335.611 296.941 335.552C297.053 335.493 297.15 335.408 297.233 335.296C297.316 335.181 297.37 335.048 297.397 334.896ZM299.036 334.184C299.127 334.051 299.233 333.947 299.356 333.872C299.481 333.797 299.62 333.76 299.772 333.76L299.688 334.232H299.572C299.396 334.232 299.255 334.276 299.148 334.364C299.041 334.452 298.967 334.604 298.924 334.82L298.716 336H298.26L298.648 333.796H299.104L299.036 334.184ZM301.139 333.76C301.414 333.76 301.632 333.837 301.795 333.992C301.96 334.147 302.043 334.355 302.043 334.616C302.043 334.677 302.036 334.751 302.023 334.836C302.012 334.895 301.994 334.967 301.967 335.052H300.283C300.28 335.071 300.279 335.099 300.279 335.136C300.279 335.293 300.327 335.419 300.423 335.512C300.522 335.605 300.65 335.652 300.807 335.652C301.055 335.652 301.246 335.549 301.379 335.344H301.871C301.77 335.547 301.62 335.713 301.423 335.844C301.226 335.972 300.998 336.036 300.739 336.036C300.555 336.036 300.394 336 300.255 335.928C300.116 335.856 300.008 335.753 299.931 335.62C299.854 335.484 299.815 335.325 299.815 335.144C299.815 335.067 299.823 334.984 299.839 334.896C299.879 334.669 299.96 334.471 300.083 334.3C300.206 334.127 300.358 333.993 300.539 333.9C300.723 333.807 300.923 333.76 301.139 333.76ZM301.567 334.724C301.572 334.676 301.575 334.641 301.575 334.62C301.575 334.473 301.526 334.357 301.427 334.272C301.331 334.187 301.206 334.144 301.051 334.144C300.888 334.144 300.742 334.196 300.611 334.3C300.48 334.404 300.391 334.545 300.343 334.724H301.567ZM303.076 336.036C302.924 336.036 302.785 336.011 302.66 335.96C302.535 335.907 302.436 335.833 302.364 335.74C302.292 335.644 302.256 335.535 302.256 335.412C302.256 335.391 302.259 335.361 302.264 335.324H302.708C302.697 335.425 302.728 335.509 302.8 335.576C302.872 335.643 302.973 335.676 303.104 335.676C303.232 335.676 303.337 335.653 303.42 335.608C303.503 335.563 303.544 335.496 303.544 335.408C303.544 335.333 303.509 335.273 303.44 335.228C303.373 335.183 303.265 335.132 303.116 335.076C302.975 335.02 302.86 334.968 302.772 334.92C302.684 334.872 302.608 334.807 302.544 334.724C302.48 334.639 302.448 334.533 302.448 334.408C302.448 334.28 302.484 334.168 302.556 334.072C302.631 333.973 302.733 333.897 302.864 333.844C302.997 333.788 303.149 333.76 303.32 333.76C303.475 333.76 303.612 333.787 303.732 333.84C303.855 333.891 303.949 333.964 304.016 334.06C304.085 334.153 304.12 334.261 304.12 334.384C304.12 334.421 304.119 334.449 304.116 334.468H303.684C303.695 334.364 303.664 334.28 303.592 334.216C303.523 334.152 303.423 334.12 303.292 334.12C303.177 334.12 303.084 334.144 303.012 334.192C302.943 334.24 302.908 334.305 302.908 334.388C302.908 334.471 302.944 334.537 303.016 334.588C303.088 334.636 303.199 334.689 303.348 334.748C303.484 334.801 303.595 334.852 303.68 334.9C303.765 334.948 303.839 335.012 303.9 335.092C303.961 335.172 303.992 335.272 303.992 335.392C303.992 335.523 303.952 335.637 303.872 335.736C303.795 335.832 303.687 335.907 303.548 335.96C303.409 336.011 303.252 336.036 303.076 336.036ZM305.213 336.036C305.061 336.036 304.922 336.011 304.797 335.96C304.671 335.907 304.573 335.833 304.501 335.74C304.429 335.644 304.393 335.535 304.393 335.412C304.393 335.391 304.395 335.361 304.401 335.324H304.845C304.834 335.425 304.865 335.509 304.937 335.576C305.009 335.643 305.11 335.676 305.241 335.676C305.369 335.676 305.474 335.653 305.557 335.608C305.639 335.563 305.681 335.496 305.681 335.408C305.681 335.333 305.646 335.273 305.577 335.228C305.51 335.183 305.402 335.132 305.253 335.076C305.111 335.02 304.997 334.968 304.909 334.92C304.821 334.872 304.745 334.807 304.681 334.724C304.617 334.639 304.585 334.533 304.585 334.408C304.585 334.28 304.621 334.168 304.693 334.072C304.767 333.973 304.87 333.897 305.001 333.844C305.134 333.788 305.286 333.76 305.457 333.76C305.611 333.76 305.749 333.787 305.869 333.84C305.991 333.891 306.086 333.964 306.153 334.06C306.222 334.153 306.257 334.261 306.257 334.384C306.257 334.421 306.255 334.449 306.253 334.468H305.821C305.831 334.364 305.801 334.28 305.729 334.216C305.659 334.152 305.559 334.12 305.429 334.12C305.314 334.12 305.221 334.144 305.149 334.192C305.079 334.24 305.045 334.305 305.045 334.388C305.045 334.471 305.081 334.537 305.153 334.588C305.225 334.636 305.335 334.689 305.485 334.748C305.621 334.801 305.731 334.852 305.817 334.9C305.902 334.948 305.975 335.012 306.037 335.092C306.098 335.172 306.129 335.272 306.129 335.392C306.129 335.523 306.089 335.637 306.009 335.736C305.931 335.832 305.823 335.907 305.685 335.96C305.546 336.011 305.389 336.036 305.213 336.036Z" fill="white"/>
<path d="M158.691 195L159 194.726C158.111 194.449 157.186 194.207 156.23 194L156 194.296C156.929 194.495 157.828 194.731 158.691 195Z" fill="#407BFF"/>
<path d="M164.612 203L165 202.857C164.081 200.106 162.419 197.717 160.229 196L160 196.34C162.121 198.008 163.728 200.329 164.612 203Z" fill="#407BFF"/>
<path d="M151 221C143.82 221 138 215.18 138 208C138 200.82 143.82 195 151 195C158.18 195 164 200.82 164 208C164 215.18 158.18 221 151 221Z" fill="#407BFF"/>
<path opacity="0.6" d="M140 208.004C140.001 210.57 140.899 213.055 142.539 215.029C144.179 217.003 146.457 218.342 148.98 218.813C151.503 219.284 154.111 218.859 156.353 217.61C158.595 216.361 160.329 214.368 161.257 211.975C162.184 209.582 162.246 206.94 161.431 204.507C160.616 202.073 158.975 200.001 156.794 198.65C154.613 197.298 152.027 196.751 149.485 197.105C146.943 197.458 144.605 198.689 142.875 200.585C142.872 200.583 142.868 200.582 142.865 200.582C142.861 200.582 142.857 200.583 142.854 200.585C141.009 202.614 139.991 205.261 140 208.004Z" fill="white"/>
<path d="M140 207.668C140 209.871 140.613 212.026 141.763 213.869C142.914 215.713 144.553 217.165 146.479 218.049C148.405 218.932 150.534 219.208 152.608 218.843C154.681 218.479 156.608 217.488 158.153 215.994C160.042 213.838 161.061 210.999 160.997 208.074C160.933 205.148 159.792 202.361 157.811 200.297C155.83 198.233 153.164 197.052 150.371 197.002C147.578 196.951 144.875 198.034 142.827 200.025C142.824 200.024 142.82 200.023 142.817 200.023C142.813 200.023 142.809 200.024 142.806 200.025C140.992 202.116 139.991 204.843 140 207.668Z" fill="white"/>
<path d="M151.484 210C151.365 210 151.248 209.978 151.138 209.934C151.028 209.891 150.929 209.827 150.845 209.746L143.288 202.501C143.199 202.421 143.128 202.326 143.078 202.219C143.029 202.113 143.002 201.998 143 201.882C142.998 201.766 143.02 201.65 143.066 201.542C143.111 201.434 143.179 201.336 143.265 201.254C143.351 201.172 143.453 201.107 143.565 201.063C143.678 201.019 143.799 200.998 143.92 201C144.041 201.002 144.161 201.028 144.272 201.075C144.383 201.122 144.483 201.191 144.565 201.276L151.484 207.909L155.48 204.078C155.651 203.925 155.878 203.842 156.112 203.846C156.346 203.849 156.57 203.94 156.735 204.099C156.901 204.258 156.996 204.472 157 204.697C157.004 204.921 156.917 205.139 156.757 205.303L152.123 209.746C151.953 209.908 151.724 209.999 151.484 210Z" fill="#263238"/>
<path d="M182.74 166.02L179.55 173H177.9L177.47 168.03L175.23 173L173.59 173.01L172.94 166.02H174.44L174.72 171.44L177.09 166.02H178.65L179.03 171.41L181.23 166.02H182.74ZM185.684 173.07C185.097 173.07 184.577 172.947 184.124 172.7C183.677 172.447 183.331 172.1 183.084 171.66C182.837 171.213 182.714 170.703 182.714 170.13C182.714 169.33 182.891 168.61 183.244 167.97C183.604 167.33 184.097 166.83 184.724 166.47C185.357 166.103 186.067 165.92 186.854 165.92C187.447 165.92 187.967 166.043 188.414 166.29C188.867 166.537 189.217 166.883 189.464 167.33C189.711 167.77 189.834 168.273 189.834 168.84C189.834 169.653 189.657 170.38 189.304 171.02C188.951 171.66 188.457 172.163 187.824 172.53C187.191 172.89 186.477 173.07 185.684 173.07ZM185.884 171.78C186.384 171.78 186.824 171.653 187.204 171.4C187.591 171.147 187.887 170.807 188.094 170.38C188.307 169.947 188.414 169.477 188.414 168.97C188.414 168.423 188.261 167.993 187.954 167.68C187.647 167.367 187.217 167.21 186.664 167.21C186.171 167.21 185.731 167.337 185.344 167.59C184.964 167.843 184.667 168.183 184.454 168.61C184.247 169.037 184.144 169.503 184.144 170.01C184.144 170.557 184.294 170.99 184.594 171.31C184.901 171.623 185.331 171.78 185.884 171.78ZM194.126 166.02C194.839 166.02 195.379 166.183 195.746 166.51C196.112 166.83 196.296 167.25 196.296 167.77C196.296 167.897 196.286 168.027 196.266 168.16C196.186 168.613 195.979 169.027 195.646 169.4C195.319 169.767 194.879 170.023 194.326 170.17L195.496 173H193.866L192.826 170.28H192.156L191.676 173H190.266L191.506 166.02H194.126ZM194.826 168.19C194.839 168.07 194.846 167.99 194.846 167.95C194.846 167.697 194.766 167.5 194.606 167.36C194.446 167.22 194.202 167.15 193.876 167.15H192.706L192.336 169.24H193.506C193.879 169.24 194.176 169.147 194.396 168.96C194.622 168.773 194.766 168.517 194.826 168.19ZM200.052 169.48L202.392 173H200.612L198.632 169.89L198.082 173H196.672L197.912 166.02H199.312L198.762 169.15L201.852 166.02H203.542L200.052 169.48ZM208.853 166.02L208.653 167.12H205.753L205.433 168.95H207.653L207.463 170.03H205.233L204.713 173H203.303L204.543 166.02H208.853ZM210.206 171.93H212.506L212.316 173H208.606L209.846 166.02H211.246L210.206 171.93ZM216.465 173.07C215.879 173.07 215.359 172.947 214.905 172.7C214.459 172.447 214.112 172.1 213.865 171.66C213.619 171.213 213.495 170.703 213.495 170.13C213.495 169.33 213.672 168.61 214.025 167.97C214.385 167.33 214.879 166.83 215.505 166.47C216.139 166.103 216.849 165.92 217.635 165.92C218.229 165.92 218.749 166.043 219.195 166.29C219.649 166.537 219.999 166.883 220.245 167.33C220.492 167.77 220.615 168.273 220.615 168.84C220.615 169.653 220.439 170.38 220.085 171.02C219.732 171.66 219.239 172.163 218.605 172.53C217.972 172.89 217.259 173.07 216.465 173.07ZM216.665 171.78C217.165 171.78 217.605 171.653 217.985 171.4C218.372 171.147 218.669 170.807 218.875 170.38C219.089 169.947 219.195 169.477 219.195 168.97C219.195 168.423 219.042 167.993 218.735 167.68C218.429 167.367 217.999 167.21 217.445 167.21C216.952 167.21 216.512 167.337 216.125 167.59C215.745 167.843 215.449 168.183 215.235 168.61C215.029 169.037 214.925 169.503 214.925 170.01C214.925 170.557 215.075 170.99 215.375 171.31C215.682 171.623 216.112 171.78 216.665 171.78ZM231.617 166.02L228.427 173H226.777L226.347 168.03L224.107 173L222.467 173.01L221.817 166.02H223.317L223.597 171.44L225.967 166.02H227.527L227.907 171.41L230.107 166.02H231.617Z" fill="#263238"/>
</svg>
