<svg width="500" height="500" viewBox="0 0 500 500" fill="none" xmlns="http://www.w3.org/2000/svg">
<path d="M249.73 457.89V464.84L11.2305 327.15V320.2L249.73 457.89Z" fill="#E0E0E0"/>
<path d="M488.22 327.14L249.73 464.84V457.89L488.22 320.2V327.14Z" fill="#EBEBEB"/>
<path d="M446.04 295.84L249.73 409.18L53.4205 295.84L11.2305 320.2L249.73 457.89L488.22 320.2L446.04 295.84Z" fill="#F5F5F5"/>
<path d="M259.95 403.1L302.14 427.45L299.19 429.15L256.82 404.9L259.95 403.1Z" fill="#E0E0E0"/>
<path d="M446.03 295.84L374.68 337.05L371.54 338.85L371.23 339.03L336.97 358.81V358.82H336.96L333.83 360.62H333.82L298.54 381.01L295.4 382.81L260.12 403.19L256.98 405L249.73 409.19L246.59 407.38L53.4199 295.84L91.8899 273.63L216.76 201.53L249.73 182.5L446.03 295.84Z" fill="#407BFF"/>
<path opacity="0.3" d="M446.03 295.84L374.68 337.05L371.54 338.85L371.23 339.03L336.97 358.81V358.82H336.96L333.83 360.62H333.82L298.54 381.01L295.4 382.81L260.12 403.19L256.98 405L249.73 409.19L246.59 407.38L53.4199 295.84L91.8899 273.63L216.76 201.53L249.73 182.5L446.03 295.84Z" fill="white"/>
<path d="M375.01 340.86L340.64 360.94L336.81 358.72L333.82 357L306.11 341L303.14 339.29L281.49 326.79L316.07 306.82L337.72 319.32L340.84 321.12L368.41 337.05L371.54 338.85L375.01 340.86Z" fill="#F5F5F5"/>
<path d="M446.041 295.84L488.221 320.2L446.041 295.84Z" fill="#F5F5F5"/>
<path d="M298.46 380.96L340.64 405.31L337.69 407.01L295.32 382.77L298.46 380.96Z" fill="#E0E0E0"/>
<path d="M246.6 407.38L204.41 431.73L207.36 433.43L249.73 409.19L246.6 407.38Z" fill="#E0E0E0"/>
<path d="M207.721 384.98L165.541 409.33L168.491 411.04L210.861 386.79L207.721 384.98Z" fill="#E0E0E0"/>
<path d="M168.85 362.58L126.67 386.93L129.62 388.64L171.99 364.39L168.85 362.58Z" fill="#E0E0E0"/>
<path d="M129.981 340.18L87.8008 364.53L90.7508 366.24L133.121 341.99L129.981 340.18Z" fill="#E0E0E0"/>
<path d="M91.1097 317.78L48.9297 342.13L51.8797 343.84L94.2397 319.59L91.1097 317.78Z" fill="#E0E0E0"/>
<path d="M374.681 337.04L416.861 361.4L413.911 363.1L371.541 338.85L374.681 337.04Z" fill="#E0E0E0"/>
<path d="M413.181 314.9L455.361 339.26L452.421 340.96L410.051 316.71L413.181 314.9Z" fill="#E0E0E0"/>
<path d="M336.96 358.82L379.15 383.17L376.2 384.88L333.83 360.63L336.96 358.82Z" fill="#E0E0E0"/>
<path d="M371.54 338.85L336.81 358.72L333.82 357L368.41 337.05L371.54 338.85Z" fill="#E0E0E0"/>
<path d="M340.841 321.12L306.111 341L303.141 339.29L337.721 319.32L340.841 321.12Z" fill="#E0E0E0"/>
<g opacity="0.1">
<path d="M357.609 282.85L354.439 284.55L319.849 304.51L232.619 354.88L91.8887 273.63L216.759 201.53L357.609 282.85Z" fill="black"/>
</g>
<path opacity="0.1" d="M284.919 432.38C297.362 432.38 307.449 426.555 307.449 419.37C307.449 412.185 297.362 406.36 284.919 406.36C272.476 406.36 262.389 412.185 262.389 419.37C262.389 426.555 272.476 432.38 284.919 432.38Z" fill="black"/>
<path opacity="0.1" d="M218.13 434.53C230.573 434.53 240.66 428.705 240.66 421.52C240.66 414.335 230.573 408.51 218.13 408.51C205.687 408.51 195.6 414.335 195.6 421.52C195.6 428.705 205.687 434.53 218.13 434.53Z" fill="black"/>
<g opacity="0.1">
<path d="M410.559 287.53C413.559 289.28 413.559 292.1 410.559 293.84C408.865 294.698 406.993 295.145 405.094 295.145C403.195 295.145 401.323 294.698 399.629 293.84C396.629 292.1 396.629 289.28 399.629 287.53C401.323 286.672 403.195 286.226 405.094 286.226C406.993 286.226 408.865 286.672 410.559 287.53Z" fill="black"/>
</g>
<g opacity="0.1">
<path d="M378.75 327C381.75 328.75 381.75 331.57 378.75 333.31C377.058 334.168 375.187 334.615 373.29 334.615C371.393 334.615 369.522 334.168 367.83 333.31C364.83 331.57 364.83 328.75 367.83 327C369.522 326.142 371.393 325.694 373.29 325.694C375.187 325.694 377.058 326.142 378.75 327Z" fill="black"/>
</g>
<g opacity="0.1">
<path d="M102.2 300.78C105.2 302.52 105.2 305.35 102.2 307.09C100.505 307.948 98.6333 308.395 96.7345 308.395C94.8358 308.395 92.9636 307.948 91.2695 307.09C88.2695 305.35 88.2695 302.52 91.2695 300.78C92.9636 299.922 94.8358 299.476 96.7345 299.476C98.6333 299.476 100.505 299.922 102.2 300.78Z" fill="black"/>
</g>
<path d="M108.08 198.09V275.73L232.71 347.68V242.26L132.11 183.81L108.08 198.09Z" fill="#EBEBEB"/>
<path d="M350.339 174.35V279.76L308.809 303.73L274.229 323.7L232.709 347.68V242.27L294.219 161.17L350.339 174.35Z" fill="#FAFAFA"/>
<path d="M308.81 228.82V303.73L274.23 323.73V248.79C274.36 242.613 275.845 236.54 278.58 231C278.82 230.5 279.06 230 279.32 229.53C282.43 223.53 286.76 218.53 291.52 215.77C293.585 214.487 295.951 213.769 298.38 213.69C304.52 213.66 308.81 219.34 308.81 228.82Z" fill="#407BFF"/>
<path opacity="0.3" d="M308.81 228.82V303.73L274.23 323.73V248.79C274.36 242.613 275.845 236.54 278.58 231C278.82 230.5 279.06 230 279.32 229.53C282.43 223.53 286.76 218.53 291.52 215.77C293.585 214.487 295.951 213.769 298.38 213.69C304.52 213.66 308.81 219.34 308.81 228.82Z" fill="black"/>
<path d="M305.77 226.45L296.35 231.88L293.59 233.48L292.34 234.2L290.71 235.2L289.24 236.04L287.65 236.96L277 243.06C277.55 239.29 278.649 235.622 280.26 232.17C280.275 232.132 280.291 232.096 280.31 232.06C280.52 231.59 280.75 231.13 280.98 230.69C280.992 230.649 281.012 230.612 281.04 230.58C281.4 229.87 281.78 229.19 282.18 228.52C284.125 225.132 286.69 222.14 289.74 219.7C290.06 219.47 290.38 219.24 290.74 219.03C291.1 218.82 291.18 218.73 291.41 218.59L291.83 218.34C292.02 218.23 292.2 218.13 292.37 218.05C295.78 216.22 298.91 216.11 301.37 217.39C301.69 217.548 301.995 217.735 302.28 217.95L302.73 218.28L302.85 218.39C303.067 218.64 303.267 218.904 303.45 219.18C304.814 221.373 305.612 223.872 305.77 226.45Z" fill="#FAFAFA"/>
<path d="M306.82 227.51L295 234.35L290.74 236.81L290.62 236.88L289.04 237.79L276.83 244.84C276.88 244.25 276.95 243.65 277.03 243.06L287.68 236.91L289.27 235.99L290.74 235.15L292.37 234.15L293.62 233.43L296.38 231.83L305.8 226.4C305.64 223.825 304.843 221.33 303.48 219.14C303.297 218.864 303.097 218.6 302.88 218.35V218.28C303.141 218.497 303.388 218.731 303.62 218.98C305.31 220.91 306.48 223.79 306.82 227.51Z" fill="#407BFF"/>
<path opacity="0.6" d="M306.82 227.51L295 234.35L290.74 236.81L290.62 236.88L289.04 237.79L276.83 244.84C276.88 244.25 276.95 243.65 277.03 243.06L287.68 236.91L289.27 235.99L290.74 235.15L292.37 234.15L293.62 233.43L296.38 231.83L305.8 226.4C305.64 223.825 304.843 221.33 303.48 219.14C303.297 218.864 303.097 218.6 302.88 218.35V218.28C303.141 218.497 303.388 218.731 303.62 218.98C305.31 220.91 306.48 223.79 306.82 227.51Z" fill="black"/>
<path d="M289.63 236.39L288.15 237.24L288.05 237.3L287.54 236.97L286.69 236.42L280.26 232.17C280.275 232.132 280.291 232.096 280.31 232.06C280.52 231.59 280.75 231.13 280.98 230.69L288.28 235.5L289.13 236.05L289.63 236.39Z" fill="#407BFF"/>
<path opacity="0.6" d="M289.63 236.39L288.15 237.24L288.05 237.3L287.54 236.97L286.69 236.42L280.26 232.17C280.275 232.132 280.291 232.096 280.31 232.06C280.52 231.59 280.75 231.13 280.98 230.69L288.28 235.5L289.13 236.05L289.63 236.39Z" fill="black"/>
<path d="M302.719 218.28L302.579 218.54L302.489 218.7L295.389 231.39L294.529 232.94L294.009 233.86L293.069 234.4L292.339 234.83L290.709 235.77L289.709 236.32V219.7C290.029 219.47 290.349 219.24 290.709 219.03C291.069 218.82 291.149 218.73 291.379 218.59V235.22L291.759 234.53L292.339 233.53L292.629 233.02L301.359 217.42C301.679 217.578 301.984 217.765 302.269 217.98L302.719 218.28Z" fill="#407BFF"/>
<path opacity="0.6" d="M302.719 218.28L302.579 218.54L302.489 218.7L295.389 231.39L294.529 232.94L294.009 233.86L293.069 234.4L292.339 234.83L290.709 235.77L289.709 236.32V219.7C290.029 219.47 290.349 219.24 290.709 219.03C291.069 218.82 291.149 218.73 291.379 218.59V235.22L291.759 234.53L292.339 233.53L292.629 233.02L301.359 217.42C301.679 217.578 301.984 217.765 302.269 217.98L302.719 218.28Z" fill="black"/>
<path d="M290.591 236.88L289.011 237.79L288.151 237.24L287.651 236.91L280.311 232.06C280.521 231.59 280.751 231.13 280.981 230.69L280.531 230.39L280.591 230.28L281.041 230.58L289.241 235.99L289.741 236.32L290.591 236.88Z" fill="#407BFF"/>
<path d="M303.29 218.79C303.14 218.65 302.99 218.51 302.84 218.39C302.844 218.367 302.844 218.343 302.84 218.32L303.29 218.79Z" fill="#455A64"/>
<path d="M303.53 219L303.44 219.16L296.35 231.86L295 234.35L290.74 236.81V219C290.96 218.84 291.18 218.7 291.41 218.56L291.83 218.31C292.02 218.2 292.2 218.1 292.37 218.02V235.68L293.1 234.37L293.62 233.45L302.27 218L302.72 218.33L302.84 218.44V218.37C303.082 218.567 303.313 218.777 303.53 219Z" fill="#407BFF"/>
<path opacity="0.3" d="M303.53 219L303.44 219.16L296.35 231.86L295 234.35L290.74 236.81V219C290.96 218.84 291.18 218.7 291.41 218.56L291.83 218.31C292.02 218.2 292.2 218.1 292.37 218.02V235.68L293.1 234.37L293.62 233.45L302.27 218L302.72 218.33L302.84 218.44V218.37C303.082 218.567 303.313 218.777 303.53 219Z" fill="black"/>
<path opacity="0.3" d="M290.591 236.88L289.011 237.79L288.151 237.24L287.651 236.91L280.311 232.06C280.521 231.59 280.751 231.13 280.981 230.69L280.531 230.39L280.591 230.28L281.041 230.58L289.241 235.99L289.741 236.32L290.591 236.88Z" fill="black"/>
<path d="M279 278.42C278.957 278.428 278.913 278.428 278.87 278.42C278.831 278.395 278.799 278.361 278.776 278.321C278.754 278.281 278.741 278.236 278.74 278.19V252C278.741 251.954 278.754 251.908 278.776 251.868C278.799 251.828 278.831 251.794 278.87 251.77L289.77 245.48C289.809 245.455 289.854 245.441 289.9 245.441C289.946 245.441 289.991 245.455 290.03 245.48C290.072 245.502 290.106 245.536 290.131 245.576C290.156 245.616 290.169 245.662 290.17 245.71V271.84C290.167 271.886 290.153 271.932 290.129 271.972C290.104 272.012 290.07 272.046 290.03 272.07L279.14 278.36C279.098 278.389 279.051 278.41 279 278.42ZM279.27 252.17V277.69L289.63 271.69V246.19L279.27 252.17Z" fill="#407BFF"/>
<path d="M293.139 270.27C293.097 270.283 293.051 270.283 293.009 270.27C292.968 270.248 292.934 270.214 292.911 270.174C292.888 270.133 292.877 270.087 292.879 270.04V243.88C292.879 243.832 292.89 243.785 292.913 243.743C292.936 243.701 292.969 243.666 293.009 243.64L303.909 237.35C303.95 237.33 303.994 237.32 304.039 237.32C304.084 237.32 304.129 237.33 304.169 237.35C304.211 237.373 304.245 237.406 304.27 237.446C304.294 237.487 304.308 237.533 304.309 237.58V263.71C304.311 263.758 304.299 263.805 304.274 263.846C304.249 263.887 304.213 263.92 304.169 263.94L293.279 270.23C293.238 270.258 293.189 270.272 293.139 270.27ZM293.409 244.03V269.54L303.769 263.54V238.05L293.409 244.03Z" fill="#407BFF"/>
<path d="M279 310C278.958 310.009 278.913 310.009 278.87 310C278.832 309.975 278.799 309.941 278.777 309.901C278.754 309.861 278.742 309.816 278.74 309.77V283.65C278.738 283.603 278.75 283.557 278.773 283.516C278.796 283.476 278.829 283.442 278.87 283.42L289.77 277.13C289.809 277.105 289.854 277.092 289.9 277.092C289.947 277.092 289.992 277.105 290.03 277.13C290.073 277.152 290.108 277.185 290.133 277.226C290.157 277.266 290.17 277.313 290.17 277.36V303.48C290.169 303.529 290.156 303.576 290.131 303.618C290.107 303.66 290.072 303.695 290.03 303.72L279.13 310C279.088 310.008 279.043 310.008 279 310ZM279.27 283.76V309.27L289.63 303.27V277.82L279.27 283.76Z" fill="#407BFF"/>
<path d="M293.139 301.9C293.097 301.913 293.051 301.913 293.009 301.9C292.969 301.876 292.935 301.843 292.913 301.802C292.89 301.762 292.878 301.716 292.879 301.67V275.5C292.88 275.454 292.892 275.408 292.915 275.368C292.938 275.328 292.97 275.294 293.009 275.27L303.909 268.98C303.948 268.955 303.993 268.941 304.039 268.941C304.085 268.941 304.13 268.955 304.169 268.98C304.21 269.002 304.245 269.036 304.27 269.076C304.294 269.116 304.308 269.162 304.309 269.21V295.34C304.308 295.387 304.294 295.433 304.27 295.473C304.245 295.514 304.21 295.547 304.169 295.57L293.279 301.86C293.238 301.888 293.189 301.902 293.139 301.9ZM293.409 275.66V301.17L303.769 295.17V269.67L293.409 275.66Z" fill="#407BFF"/>
<path d="M303.229 271.4C302.992 271.402 302.761 271.326 302.572 271.183C302.383 271.039 302.247 270.838 302.185 270.609C302.124 270.38 302.14 270.137 302.231 269.918C302.322 269.699 302.483 269.517 302.689 269.4L306.169 267.4L305.269 266.88C305.149 266.81 305.043 266.717 304.958 266.607C304.873 266.496 304.81 266.37 304.774 266.235C304.738 266.101 304.729 265.96 304.747 265.822C304.765 265.684 304.81 265.551 304.879 265.43C304.949 265.309 305.042 265.203 305.152 265.118C305.263 265.033 305.389 264.971 305.524 264.934C305.658 264.898 305.799 264.889 305.937 264.907C306.075 264.925 306.209 264.97 306.329 265.04L308.839 266.48C309.001 266.574 309.136 266.709 309.229 266.871C309.322 267.033 309.372 267.217 309.372 267.405C309.372 267.592 309.322 267.776 309.229 267.938C309.136 268.101 309.001 268.236 308.839 268.33L303.759 271.26C303.599 271.355 303.416 271.403 303.229 271.4Z" fill="#263238"/>
<path d="M350.331 272.02L343.561 275.96V268.21L350.331 264.27V272.02Z" fill="#E0E0E0"/>
<path d="M350.331 256.52L343.561 260.46V252.71L350.331 248.77V256.52Z" fill="#E0E0E0"/>
<path d="M350.331 241.03L343.561 244.97V237.22L350.331 233.28V241.03Z" fill="#E0E0E0"/>
<path d="M350.331 225.53L343.561 229.47V221.72L350.331 217.78V225.53Z" fill="#E0E0E0"/>
<path d="M350.331 210.04L343.561 213.98V206.23L350.331 202.29V210.04Z" fill="#E0E0E0"/>
<path d="M350.331 194.54L343.561 198.48V190.73L350.331 186.79V194.54Z" fill="#E0E0E0"/>
<path d="M350.331 179.05L343.561 182.99V175.24L350.331 171.3V179.05Z" fill="#E0E0E0"/>
<path d="M239.479 335.99L232.709 339.93V332.18L239.479 328.24V335.99Z" fill="#E0E0E0"/>
<path d="M239.479 320.5L232.709 324.43V316.69L239.479 312.75V320.5Z" fill="#E0E0E0"/>
<path d="M239.479 305L232.709 308.94V301.19L239.479 297.25V305Z" fill="#E0E0E0"/>
<path d="M239.479 289.5L232.709 293.44V285.7L239.479 281.76V289.5Z" fill="#E0E0E0"/>
<path d="M239.479 274.01L232.709 277.95V270.2L239.479 266.26V274.01Z" fill="#E0E0E0"/>
<path d="M239.479 258.52L232.709 262.45V254.71L239.479 250.77V258.52Z" fill="#E0E0E0"/>
<path d="M239.479 243.02L232.709 246.96V239.21L239.479 235.27V243.02Z" fill="#E0E0E0"/>
<path d="M225.93 328.24L232.71 332.18V324.43L225.93 320.5V328.24Z" fill="#E0E0E0"/>
<path d="M225.93 343.74L232.71 347.68V339.93L225.93 335.99V343.74Z" fill="#E0E0E0"/>
<path d="M225.93 312.75L232.71 316.69V308.94L225.93 305V312.75Z" fill="#E0E0E0"/>
<path d="M225.93 297.25L232.71 301.19V293.44L225.93 289.5V297.25Z" fill="#E0E0E0"/>
<path d="M225.93 281.76L232.71 285.7V277.95L225.93 274.01V281.76Z" fill="#E0E0E0"/>
<path d="M225.93 266.26L232.71 270.2V262.45L225.93 258.52V266.26Z" fill="#E0E0E0"/>
<path d="M225.93 250.77L232.71 254.71V246.96L225.93 243.02V250.77Z" fill="#E0E0E0"/>
<path d="M225.93 235.27L232.71 239.21V231.47L225.93 227.53V235.27Z" fill="#E0E0E0"/>
<path d="M108.08 260.23L114.86 264.17V256.42L108.08 252.48V260.23Z" fill="#E0E0E0"/>
<path d="M108.08 275.73L114.86 279.66V271.92L108.08 267.98V275.73Z" fill="#E0E0E0"/>
<path d="M108.08 244.74L114.86 248.67V240.93L108.08 236.99V244.74Z" fill="#E0E0E0"/>
<path d="M108.08 229.24L114.86 233.18V225.43L108.08 221.49V229.24Z" fill="#E0E0E0"/>
<path d="M108.08 213.75L114.86 217.69V209.94L108.08 206V213.75Z" fill="#E0E0E0"/>
<path d="M158.79 247.66V282.53L135.59 269.13V234.25L158.79 247.66Z" fill="#FAFAFA"/>
<path d="M136.84 252.28L158.79 264.95V247.66L136.84 234.98V252.28Z" fill="#407BFF"/>
<path opacity="0.6" d="M136.84 252.28L158.79 264.95V247.66L136.84 234.98V252.28Z" fill="white"/>
<path d="M137.39 268.07V253.32L158.79 265.67V263.88L137.39 251.52V235.29L135.58 234.25V269.13L158.79 282.53V280.43L137.39 268.07Z" fill="#407BFF"/>
<path opacity="0.2" d="M137.39 268.07V253.32L158.79 265.67V263.88L137.39 251.52V235.29L135.58 234.25V269.13L158.79 282.53V280.43L137.39 268.07Z" fill="black"/>
<path d="M205.2 274.46V309.33L182 295.94V261.06L205.2 274.46Z" fill="#FAFAFA"/>
<path d="M183.25 279.08L205.2 291.75V274.46L183.25 261.78V279.08Z" fill="#407BFF"/>
<path opacity="0.6" d="M183.25 279.08L205.2 291.75V274.46L183.25 261.78V279.08Z" fill="white"/>
<path d="M183.8 294.88V280.12L205.2 292.48V290.69L183.8 278.33V262.1L182 261.06V295.93L205.21 309.33V307.24L183.8 294.88Z" fill="#407BFF"/>
<path opacity="0.2" d="M183.8 294.88V280.12L205.2 292.48V290.69L183.8 278.33V262.1L182 261.06V295.93L205.21 309.33V307.24L183.8 294.88Z" fill="black"/>
<path d="M314.73 234.25V269.12L337.93 255.72V220.84L314.73 234.25Z" fill="#FAFAFA"/>
<path d="M336.67 238.87L314.73 251.54V234.25L336.67 221.57V238.87Z" fill="#407BFF"/>
<path opacity="0.8" d="M336.67 238.87L314.73 251.54V234.25L336.67 221.57V238.87Z" fill="white"/>
<path d="M336.129 254.67V221.89L337.929 220.85V255.72L314.719 269.12V267.03L336.129 254.67Z" fill="#407BFF"/>
<path d="M314.73 250.47V252.27L337.5 239.12V237.32L314.73 250.47Z" fill="#407BFF"/>
<path d="M245.109 274.46V309.33L268.309 295.94V261.06L245.109 274.46Z" fill="#FAFAFA"/>
<path d="M267.059 279.08L245.109 291.75V274.46L267.059 261.78V279.08Z" fill="#407BFF"/>
<path opacity="0.8" d="M267.059 279.08L245.109 291.75V274.46L267.059 261.78V279.08Z" fill="white"/>
<path d="M266.509 294.88V262.1L268.319 261.06V295.93L245.109 309.33V307.24L266.509 294.88Z" fill="#407BFF"/>
<path d="M245.109 290.69V292.48L267.889 279.33V277.54L245.109 290.69Z" fill="#407BFF"/>
<path d="M209.84 269.12L220.94 261.34L293.14 168.72L358.28 183.38L366.02 178.94L292.5 161.77L209.84 269.12Z" fill="#455A64"/>
<path d="M292.5 161.77L175.18 95.8198L93.0996 201.73L209.84 269.12L292.5 161.77Z" fill="#263238"/>
<path d="M292.5 161.77L366.02 178.94L248.45 112.99L175.18 95.8198L292.5 161.77Z" fill="#37474F"/>
<path d="M124.069 310.91L119.899 313.33C121.153 308.956 121.473 304.367 120.839 299.86C120.56 298.267 119.983 296.74 119.139 295.36C118.819 294.68 116.299 290.46 118.519 288.52C120.739 286.58 125.919 290.44 125.689 300.85C125.576 304.259 125.031 307.639 124.069 310.91Z" fill="#407BFF"/>
<path opacity="0.5" d="M124.069 310.91L119.899 313.33C121.153 308.956 121.473 304.367 120.839 299.86C120.56 298.267 119.983 296.74 119.139 295.36C118.819 294.68 116.299 290.46 118.519 288.52C120.739 286.58 125.919 290.44 125.689 300.85C125.576 304.259 125.031 307.639 124.069 310.91Z" fill="black"/>
<path d="M122.139 312.24H122.059C122.01 312.218 121.97 312.178 121.947 312.128C121.925 312.079 121.922 312.022 121.939 311.97C123.053 308.311 123.553 304.493 123.419 300.67C123.339 293.77 119.739 290.11 119.709 290.08C119.671 290.04 119.65 289.986 119.65 289.93C119.65 289.875 119.671 289.821 119.709 289.78C119.749 289.743 119.8 289.722 119.854 289.722C119.908 289.722 119.96 289.743 119.999 289.78C119.999 289.78 123.759 293.59 123.839 300.66C123.966 304.537 123.456 308.408 122.329 312.12C122.312 312.156 122.285 312.187 122.252 312.208C122.218 312.229 122.179 312.24 122.139 312.24Z" fill="white"/>
<path d="M120.84 312.8L114 316.86C114 316.86 110.84 316.39 111.08 313.42C111.32 310.45 112.6 309.75 111.01 308.42C109.42 307.09 109.01 307.02 109.08 305.75C109.211 304.825 109.69 303.984 110.42 303.4C110.866 303.034 111.18 302.532 111.314 301.97C111.448 301.408 111.393 300.818 111.16 300.29C110.36 298.75 109.29 297.29 110.88 296.55C111.88 296.13 113.44 296.66 114.5 297.78C115.282 298.774 116.318 299.538 117.5 299.99C118.5 300.25 120.61 300.27 120.5 301.99C120.39 303.71 119.98 304.33 120.4 305.1C121.13 306.59 124.52 307.37 120.84 312.8Z" fill="#407BFF"/>
<path opacity="0.2" d="M120.84 312.8L114 316.86C114 316.86 110.84 316.39 111.08 313.42C111.32 310.45 112.6 309.75 111.01 308.42C109.42 307.09 109.01 307.02 109.08 305.75C109.211 304.825 109.69 303.984 110.42 303.4C110.866 303.034 111.18 302.532 111.314 301.97C111.448 301.408 111.393 300.818 111.16 300.29C110.36 298.75 109.29 297.29 110.88 296.55C111.88 296.13 113.44 296.66 114.5 297.78C115.282 298.774 116.318 299.538 117.5 299.99C118.5 300.25 120.61 300.27 120.5 301.99C120.39 303.71 119.98 304.33 120.4 305.1C121.13 306.59 124.52 307.37 120.84 312.8Z" fill="black"/>
<path d="M118 314.66C117.973 314.659 117.946 314.652 117.922 314.64C117.897 314.629 117.876 314.612 117.858 314.591C117.84 314.571 117.827 314.547 117.819 314.521C117.81 314.495 117.808 314.467 117.81 314.44C117.81 314.34 118.55 304.25 111.55 297.63C111.513 297.591 111.492 297.539 111.492 297.485C111.492 297.431 111.513 297.379 111.55 297.34C111.591 297.302 111.645 297.281 111.7 297.281C111.756 297.281 111.81 297.302 111.85 297.34C118.99 304.09 118.24 314.34 118.23 314.48C118.223 314.534 118.195 314.583 118.152 314.617C118.109 314.65 118.054 314.666 118 314.66Z" fill="white"/>
<path d="M116.8 305.86C116.773 305.858 116.746 305.85 116.721 305.837C116.697 305.824 116.675 305.806 116.657 305.785C116.64 305.764 116.627 305.739 116.618 305.712C116.61 305.686 116.608 305.658 116.61 305.63C116.662 304.782 116.889 303.953 117.278 303.197C117.667 302.441 118.209 301.775 118.87 301.24C118.916 301.211 118.971 301.201 119.025 301.21C119.079 301.219 119.127 301.248 119.16 301.29C119.198 301.329 119.219 301.381 119.219 301.435C119.219 301.489 119.198 301.541 119.16 301.58C118.558 302.086 118.063 302.708 117.706 303.409C117.349 304.11 117.136 304.876 117.08 305.66C117.079 305.693 117.07 305.726 117.054 305.755C117.038 305.784 117.015 305.809 116.989 305.828C116.962 305.847 116.931 305.86 116.898 305.866C116.866 305.871 116.832 305.869 116.8 305.86Z" fill="white"/>
<path d="M117.309 307.61C117.279 307.611 117.248 307.606 117.221 307.593C117.193 307.581 117.168 307.563 117.149 307.54C117.149 307.54 115.409 305.67 111.479 306.21C111.424 306.219 111.369 306.206 111.324 306.174C111.279 306.142 111.249 306.094 111.239 306.04C111.235 306.012 111.236 305.984 111.243 305.957C111.249 305.93 111.262 305.905 111.278 305.882C111.295 305.86 111.316 305.841 111.34 305.827C111.364 305.813 111.391 305.804 111.419 305.8C115.579 305.23 117.419 307.18 117.419 307.26C117.457 307.301 117.478 307.354 117.478 307.41C117.478 307.466 117.457 307.519 117.419 307.56C117.387 307.586 117.349 307.603 117.309 307.61Z" fill="white"/>
<path d="M177.9 341.9L173.73 344.33C174.985 339.952 175.305 335.36 174.67 330.85C174.392 329.257 173.815 327.73 172.97 326.35C172.65 325.67 170.13 321.46 172.34 319.51C174.55 317.56 179.75 321.43 179.52 331.84C179.409 335.249 178.864 338.629 177.9 341.9Z" fill="#407BFF"/>
<path opacity="0.5" d="M177.9 341.9L173.73 344.33C174.985 339.952 175.305 335.36 174.67 330.85C174.392 329.257 173.815 327.73 172.97 326.35C172.65 325.67 170.13 321.46 172.34 319.51C174.55 317.56 179.75 321.43 179.52 331.84C179.409 335.249 178.864 338.629 177.9 341.9Z" fill="black"/>
<path d="M175.999 343.24H175.919C175.869 343.218 175.829 343.178 175.807 343.128C175.785 343.078 175.782 343.022 175.799 342.97C176.913 339.307 177.413 335.486 177.279 331.66C177.199 324.77 173.599 321.11 173.569 321.07C173.531 321.029 173.51 320.976 173.51 320.92C173.51 320.864 173.531 320.811 173.569 320.77C173.608 320.733 173.66 320.712 173.714 320.712C173.768 320.712 173.82 320.733 173.859 320.77C173.859 320.77 177.619 324.58 177.699 331.66C177.827 335.534 177.317 339.402 176.189 343.11C176.174 343.149 176.148 343.182 176.114 343.205C176.08 343.228 176.04 343.241 175.999 343.24Z" fill="white"/>
<path d="M174.669 343.8L167.779 347.85C167.779 347.85 164.619 347.38 164.859 344.42C165.099 341.46 166.379 340.75 164.789 339.42C163.199 338.09 162.789 338.03 162.859 336.75C162.987 335.826 163.467 334.988 164.199 334.41C164.645 334.041 164.958 333.537 165.092 332.974C165.225 332.411 165.172 331.82 164.939 331.29C164.139 329.75 163.069 328.29 164.659 327.55C165.659 327.13 167.219 327.66 168.279 328.79C169.044 329.778 170.064 330.539 171.229 330.99C172.229 331.25 174.339 331.27 174.229 332.99C174.119 334.71 173.709 335.32 174.129 336.09C174.999 337.59 178.349 338.37 174.669 343.8Z" fill="#407BFF"/>
<path opacity="0.2" d="M174.669 343.8L167.779 347.85C167.779 347.85 164.619 347.38 164.859 344.42C165.099 341.46 166.379 340.75 164.789 339.42C163.199 338.09 162.789 338.03 162.859 336.75C162.987 335.826 163.467 334.988 164.199 334.41C164.645 334.041 164.958 333.537 165.092 332.974C165.225 332.411 165.172 331.82 164.939 331.29C164.139 329.75 163.069 328.29 164.659 327.55C165.659 327.13 167.219 327.66 168.279 328.79C169.044 329.778 170.064 330.539 171.229 330.99C172.229 331.25 174.339 331.27 174.229 332.99C174.119 334.71 173.709 335.32 174.129 336.09C174.999 337.59 178.349 338.37 174.669 343.8Z" fill="black"/>
<path d="M171.859 345.66C171.831 345.658 171.804 345.65 171.78 345.637C171.755 345.624 171.733 345.606 171.716 345.585C171.698 345.563 171.685 345.539 171.677 345.512C171.669 345.486 171.666 345.458 171.669 345.43C171.669 345.33 172.409 335.24 165.409 328.63C165.389 328.611 165.373 328.587 165.362 328.561C165.351 328.536 165.346 328.508 165.346 328.48C165.346 328.452 165.351 328.424 165.362 328.399C165.373 328.373 165.389 328.35 165.409 328.33C165.448 328.293 165.5 328.272 165.554 328.272C165.608 328.272 165.66 328.293 165.699 328.33C172.849 335.08 172.099 345.33 172.089 345.46C172.084 345.517 172.057 345.569 172.014 345.606C171.971 345.644 171.915 345.663 171.859 345.66Z" fill="white"/>
<path d="M170.63 336.85C170.576 336.845 170.526 336.819 170.491 336.778C170.455 336.737 170.437 336.684 170.44 336.63C170.489 335.781 170.716 334.952 171.105 334.196C171.494 333.44 172.037 332.774 172.7 332.24C172.722 332.223 172.747 332.211 172.774 332.205C172.801 332.198 172.828 332.197 172.856 332.202C172.883 332.206 172.909 332.217 172.932 332.232C172.955 332.247 172.975 332.267 172.99 332.29C173.021 332.336 173.033 332.391 173.024 332.445C173.015 332.5 172.984 332.548 172.94 332.58C172.335 333.084 171.838 333.705 171.481 334.407C171.123 335.108 170.912 335.875 170.86 336.66C170.857 336.688 170.849 336.715 170.836 336.739C170.823 336.764 170.806 336.786 170.784 336.803C170.763 336.821 170.738 336.834 170.712 336.842C170.685 336.85 170.657 336.853 170.63 336.85Z" fill="white"/>
<path d="M171.139 338.6C171.08 338.601 171.022 338.58 170.979 338.54C170.979 338.54 169.239 336.67 165.309 337.21C165.281 337.214 165.253 337.213 165.226 337.206C165.199 337.199 165.173 337.187 165.151 337.17C165.129 337.154 165.11 337.133 165.096 337.108C165.082 337.084 165.072 337.058 165.069 337.03C165.065 337.003 165.066 336.975 165.073 336.949C165.08 336.922 165.092 336.897 165.109 336.876C165.126 336.854 165.147 336.836 165.171 336.823C165.195 336.81 165.222 336.802 165.249 336.8C169.409 336.23 171.249 338.17 171.249 338.26C171.286 338.299 171.307 338.351 171.307 338.405C171.307 338.459 171.286 338.511 171.249 338.55C171.219 338.578 171.18 338.596 171.139 338.6Z" fill="white"/>
<path d="M367.689 309L363.519 311.42C364.774 307.042 365.094 302.45 364.459 297.94C364.178 296.347 363.601 294.821 362.759 293.44C362.429 292.76 359.919 288.55 362.129 286.61C364.339 284.67 369.539 288.53 369.309 298.94C369.196 302.348 368.652 305.729 367.689 309Z" fill="#407BFF"/>
<path opacity="0.5" d="M367.689 309L363.519 311.42C364.774 307.042 365.094 302.45 364.459 297.94C364.178 296.347 363.601 294.821 362.759 293.44C362.429 292.76 359.919 288.55 362.129 286.61C364.339 284.67 369.539 288.53 369.309 298.94C369.196 302.348 368.652 305.729 367.689 309Z" fill="black"/>
<path d="M365.75 310.29H365.68C365.628 310.27 365.587 310.23 365.564 310.18C365.542 310.129 365.54 310.072 365.56 310.02C366.667 306.36 367.167 302.542 367.04 298.72C366.96 291.81 363.36 288.16 363.33 288.12C363.31 288.101 363.294 288.079 363.284 288.054C363.273 288.029 363.268 288.002 363.268 287.975C363.268 287.948 363.273 287.921 363.284 287.896C363.294 287.871 363.31 287.849 363.33 287.83C363.371 287.792 363.424 287.771 363.48 287.771C363.536 287.771 363.589 287.792 363.63 287.83C363.63 287.83 367.39 291.64 367.47 298.71C367.602 302.581 367.105 306.448 366 310.16C365.982 310.209 365.946 310.249 365.9 310.273C365.854 310.297 365.8 310.303 365.75 310.29Z" fill="white"/>
<path d="M364.46 310.85L357.57 314.85C357.57 314.85 354.41 314.39 354.65 311.42C354.89 308.45 356.17 307.75 354.57 306.42C352.97 305.09 352.57 305.03 352.64 303.75C352.78 302.83 353.258 301.996 353.98 301.41C354.43 301.046 354.746 300.544 354.88 299.981C355.013 299.419 354.957 298.828 354.72 298.3C353.93 296.75 352.85 295.3 354.45 294.56C355.45 294.14 357.01 294.66 358.07 295.79C358.835 296.779 359.855 297.539 361.02 297.99C362.02 298.26 364.13 298.28 364.02 299.99C363.91 301.7 363.49 302.33 363.92 303.1C364.75 304.64 368.14 305.42 364.46 310.85Z" fill="#407BFF"/>
<path opacity="0.2" d="M364.46 310.85L357.57 314.85C357.57 314.85 354.41 314.39 354.65 311.42C354.89 308.45 356.17 307.75 354.57 306.42C352.97 305.09 352.57 305.03 352.64 303.75C352.78 302.83 353.258 301.996 353.98 301.41C354.43 301.046 354.746 300.544 354.88 299.981C355.013 299.419 354.957 298.828 354.72 298.3C353.93 296.75 352.85 295.3 354.45 294.56C355.45 294.14 357.01 294.66 358.07 295.79C358.835 296.779 359.855 297.539 361.02 297.99C362.02 298.26 364.13 298.28 364.02 299.99C363.91 301.7 363.49 302.33 363.92 303.1C364.75 304.64 368.14 305.42 364.46 310.85Z" fill="black"/>
<path d="M361.65 312.71C361.622 312.708 361.596 312.7 361.571 312.687C361.547 312.674 361.525 312.656 361.507 312.635C361.49 312.613 361.476 312.589 361.468 312.562C361.46 312.536 361.457 312.508 361.46 312.48C361.46 312.38 362.2 302.29 355.21 295.68C355.183 295.664 355.16 295.642 355.143 295.616C355.125 295.59 355.114 295.56 355.11 295.529C355.105 295.498 355.108 295.467 355.117 295.437C355.127 295.407 355.143 295.379 355.164 295.356C355.185 295.333 355.212 295.315 355.241 295.304C355.27 295.293 355.301 295.288 355.333 295.29C355.364 295.292 355.394 295.302 355.422 295.317C355.449 295.333 355.472 295.354 355.49 295.38C362.64 302.13 361.89 312.38 361.88 312.52C361.878 312.548 361.87 312.575 361.857 312.599C361.844 312.624 361.826 312.645 361.805 312.663C361.783 312.681 361.759 312.694 361.732 312.702C361.706 312.71 361.678 312.713 361.65 312.71Z" fill="white"/>
<path d="M360.42 303.9C360.392 303.899 360.366 303.892 360.341 303.881C360.317 303.869 360.295 303.852 360.277 303.831C360.259 303.811 360.246 303.787 360.238 303.761C360.23 303.735 360.227 303.707 360.23 303.68C360.279 302.831 360.505 302.002 360.895 301.246C361.284 300.49 361.827 299.824 362.49 299.29C362.53 299.255 362.581 299.236 362.635 299.236C362.688 299.236 362.739 299.255 362.78 299.29C362.811 299.336 362.823 299.391 362.814 299.446C362.804 299.5 362.774 299.548 362.73 299.58C362.124 300.084 361.626 300.705 361.267 301.406C360.907 302.108 360.694 302.874 360.64 303.66C360.646 303.692 360.645 303.724 360.637 303.755C360.628 303.785 360.613 303.814 360.591 303.837C360.57 303.861 360.543 303.879 360.513 303.89C360.483 303.901 360.451 303.904 360.42 303.9Z" fill="white"/>
<path d="M360.92 305.66C360.863 305.656 360.81 305.631 360.77 305.59C360.77 305.59 359.03 303.72 355.09 304.26C355.044 304.25 355.002 304.224 354.972 304.187C354.942 304.149 354.926 304.103 354.926 304.055C354.926 304.008 354.942 303.961 354.972 303.924C355.002 303.887 355.044 303.861 355.09 303.85C359.25 303.28 361.09 305.23 361.09 305.31C361.114 305.342 361.128 305.379 361.132 305.418C361.136 305.457 361.13 305.497 361.113 305.532C361.097 305.568 361.071 305.599 361.039 305.621C361.007 305.644 360.969 305.657 360.93 305.66H360.92Z" fill="white"/>
<path d="M263.24 368.29L259.07 370.71C260.319 366.331 260.636 361.739 260 357.23C259.723 355.638 259.15 354.111 258.31 352.73C257.98 352.05 255.47 347.84 257.68 345.89C259.89 343.94 265.09 347.82 264.85 358.22C264.744 361.632 264.203 365.016 263.24 368.29Z" fill="#407BFF"/>
<path opacity="0.5" d="M263.24 368.29L259.07 370.71C260.319 366.331 260.636 361.739 260 357.23C259.723 355.638 259.15 354.111 258.31 352.73C257.98 352.05 255.47 347.84 257.68 345.89C259.89 343.94 265.09 347.82 264.85 358.22C264.744 361.632 264.203 365.016 263.24 368.29Z" fill="black"/>
<path d="M261.301 369.62H261.231C261.204 369.611 261.18 369.597 261.159 369.578C261.138 369.56 261.121 369.537 261.109 369.512C261.097 369.487 261.09 369.46 261.088 369.432C261.087 369.404 261.091 369.376 261.101 369.35C262.215 365.691 262.718 361.873 262.591 358.05C262.511 351.15 258.911 347.49 258.871 347.45C258.833 347.411 258.813 347.359 258.813 347.305C258.812 347.251 258.833 347.199 258.871 347.16C258.889 347.139 258.912 347.122 258.938 347.11C258.964 347.098 258.992 347.092 259.021 347.092C259.049 347.092 259.077 347.098 259.103 347.11C259.129 347.122 259.152 347.139 259.171 347.16C259.171 347.16 262.921 351 263.001 358C263.123 361.873 262.613 365.741 261.491 369.45C261.482 369.495 261.459 369.536 261.424 369.567C261.39 369.598 261.347 369.616 261.301 369.62Z" fill="white"/>
<path d="M259.999 370.18L253.109 374.23C253.109 374.23 249.959 373.77 250.199 370.8C250.439 367.83 251.719 367.13 250.119 365.8C248.519 364.47 248.119 364.41 248.189 363.13C248.326 362.209 248.804 361.374 249.529 360.79C249.978 360.426 250.295 359.924 250.428 359.361C250.562 358.799 250.506 358.208 250.269 357.68C249.479 356.13 248.399 354.68 249.999 353.94C250.949 353.51 252.559 354.04 253.619 355.17C254.382 356.161 255.402 356.922 256.569 357.37C257.569 357.63 259.669 357.66 259.569 359.37C259.469 361.08 259.049 361.71 259.469 362.48C260.299 364 263.679 364.75 259.999 370.18Z" fill="#407BFF"/>
<path opacity="0.2" d="M259.999 370.18L253.109 374.23C253.109 374.23 249.959 373.77 250.199 370.8C250.439 367.83 251.719 367.13 250.119 365.8C248.519 364.47 248.119 364.41 248.189 363.13C248.326 362.209 248.804 361.374 249.529 360.79C249.978 360.426 250.295 359.924 250.428 359.361C250.562 358.799 250.506 358.208 250.269 357.68C249.479 356.13 248.399 354.68 249.999 353.94C250.949 353.51 252.559 354.04 253.619 355.17C254.382 356.161 255.402 356.922 256.569 357.37C257.569 357.63 259.669 357.66 259.569 359.37C259.469 361.08 259.049 361.71 259.469 362.48C260.299 364 263.679 364.75 259.999 370.18Z" fill="black"/>
<path d="M257.2 372C257.173 371.998 257.146 371.99 257.121 371.977C257.097 371.964 257.075 371.946 257.058 371.925C257.04 371.904 257.027 371.879 257.019 371.852C257.01 371.826 257.008 371.798 257.01 371.77C257.01 371.67 257.75 361.58 250.75 354.97C250.713 354.93 250.691 354.876 250.691 354.82C250.691 354.765 250.713 354.711 250.75 354.67C250.79 354.633 250.841 354.612 250.895 354.612C250.949 354.612 251.001 354.633 251.04 354.67C258.19 361.42 257.43 371.67 257.43 371.81C257.428 371.838 257.42 371.865 257.407 371.889C257.394 371.914 257.376 371.936 257.355 371.953C257.334 371.971 257.309 371.984 257.282 371.992C257.256 372 257.228 372.003 257.2 372Z" fill="white"/>
<path d="M256 363.23C255.972 363.229 255.946 363.222 255.921 363.21C255.897 363.198 255.875 363.182 255.857 363.161C255.839 363.14 255.826 363.116 255.818 363.09C255.81 363.065 255.807 363.037 255.81 363.01C255.861 362.163 256.087 361.335 256.474 360.579C256.862 359.824 257.401 359.157 258.06 358.62C258.082 358.603 258.107 358.591 258.134 358.584C258.16 358.578 258.188 358.577 258.216 358.582C258.243 358.586 258.269 358.597 258.292 358.612C258.315 358.627 258.335 358.647 258.35 358.67C258.387 358.709 258.408 358.761 258.408 358.815C258.408 358.869 258.387 358.921 258.35 358.96C257.742 359.462 257.244 360.083 256.884 360.785C256.525 361.486 256.313 362.254 256.26 363.04C256.258 363.071 256.249 363.101 256.234 363.127C256.219 363.154 256.199 363.178 256.174 363.196C256.149 363.214 256.121 363.226 256.091 363.232C256.06 363.238 256.029 363.238 256 363.23Z" fill="white"/>
<path d="M256.469 365C256.44 364.999 256.412 364.993 256.387 364.981C256.361 364.969 256.338 364.951 256.319 364.93C256.319 364.93 254.579 363.06 250.639 363.6C250.612 363.606 250.583 363.606 250.556 363.6C250.529 363.593 250.504 363.581 250.482 363.564C250.46 363.547 250.442 363.525 250.429 363.5C250.417 363.475 250.41 363.448 250.409 363.42C250.405 363.394 250.406 363.367 250.412 363.341C250.418 363.315 250.43 363.291 250.445 363.269C250.461 363.248 250.481 363.23 250.504 363.216C250.527 363.203 250.552 363.194 250.579 363.19C254.749 362.62 256.579 364.57 256.579 364.65C256.616 364.689 256.637 364.741 256.637 364.795C256.637 364.849 256.616 364.901 256.579 364.94C256.549 364.971 256.511 364.992 256.469 365Z" fill="white"/>
<path d="M405.1 293.17C404.676 293.17 404.269 293.001 403.969 292.701C403.669 292.401 403.5 291.994 403.5 291.57V225.77C403.5 225.346 403.669 224.939 403.969 224.639C404.269 224.338 404.676 224.17 405.1 224.17C405.524 224.17 405.931 224.338 406.231 224.639C406.531 224.939 406.7 225.346 406.7 225.77V291.57C406.7 291.994 406.531 292.401 406.231 292.701C405.931 293.001 405.524 293.17 405.1 293.17Z" fill="#37474F"/>
<path d="M405.099 249.87C404.91 249.87 404.724 249.82 404.561 249.725C404.398 249.63 404.262 249.494 404.169 249.33L395.059 233.33C394.921 233.083 394.885 232.791 394.96 232.518C395.035 232.245 395.214 232.012 395.459 231.87C395.58 231.8 395.714 231.756 395.853 231.738C395.992 231.721 396.132 231.731 396.267 231.768C396.402 231.805 396.528 231.869 396.638 231.955C396.748 232.041 396.84 232.148 396.909 232.27L406.019 248.27C406.09 248.392 406.136 248.526 406.154 248.666C406.172 248.806 406.163 248.948 406.125 249.084C406.088 249.22 406.024 249.347 405.937 249.458C405.85 249.569 405.742 249.661 405.619 249.73C405.462 249.823 405.282 249.872 405.099 249.87Z" fill="#37474F"/>
<path d="M404.919 254.2C404.736 254.202 404.557 254.153 404.399 254.06C404.277 253.991 404.17 253.899 404.084 253.789C403.998 253.679 403.935 253.553 403.898 253.418C403.86 253.283 403.85 253.143 403.868 253.004C403.885 252.865 403.93 252.731 403.999 252.61L416.169 231.25C416.31 231.003 416.543 230.823 416.816 230.748C417.09 230.673 417.383 230.709 417.629 230.85C417.876 230.99 418.057 231.223 418.132 231.497C418.207 231.771 418.17 232.063 418.029 232.31L405.849 253.66C405.762 253.829 405.628 253.97 405.463 254.066C405.298 254.161 405.11 254.208 404.919 254.2Z" fill="#37474F"/>
<path d="M432.411 234.25C444.381 229.292 450.066 215.568 445.107 203.598C440.149 191.628 426.426 185.943 414.455 190.902C402.485 195.86 396.801 209.583 401.759 221.554C406.717 233.524 420.441 239.208 432.411 234.25Z" fill="#407BFF"/>
<path opacity="0.3" d="M432.411 234.25C444.381 229.292 450.066 215.568 445.107 203.598C440.149 191.628 426.426 185.943 414.455 190.902C402.485 195.86 396.801 209.583 401.759 221.554C406.717 233.524 420.441 239.208 432.411 234.25Z" fill="black"/>
<path d="M418.36 205.94C418.351 202.824 418.967 199.738 420.169 196.863C421.371 193.988 423.136 191.383 425.36 189.2C424.72 189.2 424.07 189.12 423.41 189.12C419.56 189.119 415.769 190.066 412.371 191.876C408.974 193.686 406.074 196.305 403.928 199.501C401.781 202.697 400.454 206.372 400.064 210.202C399.674 214.032 400.232 217.899 401.69 221.462C403.147 225.025 405.459 228.175 408.422 230.634C411.385 233.092 414.907 234.784 418.678 235.559C422.448 236.335 426.352 236.17 430.045 235.081C433.737 233.991 437.104 232.009 439.85 229.31C433.991 228.816 428.531 226.141 424.551 221.813C420.571 217.485 418.361 211.82 418.36 205.94Z" fill="#407BFF"/>
<path opacity="0.4" d="M418.36 205.94C418.351 202.824 418.967 199.738 420.169 196.863C421.371 193.988 423.136 191.383 425.36 189.2C424.72 189.2 424.07 189.12 423.41 189.12C419.56 189.119 415.769 190.066 412.371 191.876C408.974 193.686 406.074 196.305 403.928 199.501C401.781 202.697 400.454 206.372 400.064 210.202C399.674 214.032 400.232 217.899 401.69 221.462C403.147 225.025 405.459 228.175 408.422 230.634C411.385 233.092 414.907 234.784 418.678 235.559C422.448 236.335 426.352 236.17 430.045 235.081C433.737 233.991 437.104 232.009 439.85 229.31C433.991 228.816 428.531 226.141 424.551 221.813C420.571 217.485 418.361 211.82 418.36 205.94Z" fill="black"/>
<path d="M385.119 236.04C394.402 236.04 401.929 228.514 401.929 219.23C401.929 209.946 394.402 202.42 385.119 202.42C375.835 202.42 368.309 209.946 368.309 219.23C368.309 228.514 375.835 236.04 385.119 236.04Z" fill="#407BFF"/>
<path opacity="0.3" d="M385.119 236.04C394.402 236.04 401.929 228.514 401.929 219.23C401.929 209.946 394.402 202.42 385.119 202.42C375.835 202.42 368.309 209.946 368.309 219.23C368.309 228.514 375.835 236.04 385.119 236.04Z" fill="black"/>
<path d="M386.939 202.51C384.702 202.265 382.438 202.474 380.284 203.123C378.129 203.772 376.127 204.85 374.399 206.29C374.339 207.01 374.309 207.73 374.309 208.47C374.303 215.755 376.947 222.792 381.749 228.27C382.079 228.647 382.296 229.11 382.373 229.605C382.45 230.1 382.384 230.607 382.184 231.067C381.984 231.526 381.657 231.919 381.241 232.199C380.826 232.48 380.34 232.636 379.839 232.65H379.779C377.677 232.646 375.595 232.249 373.639 231.48C375.585 233.297 377.935 234.625 380.495 235.355C383.055 236.086 385.752 236.198 388.364 235.682C390.976 235.166 393.428 234.037 395.518 232.388C397.608 230.739 399.277 228.618 400.387 226.198C401.497 223.778 402.016 221.129 401.902 218.469C401.788 215.809 401.043 213.215 399.73 210.899C398.417 208.583 396.573 206.612 394.349 205.148C392.125 203.685 389.585 202.77 386.939 202.48V202.51Z" fill="#407BFF"/>
<path opacity="0.4" d="M386.939 202.51C384.702 202.265 382.438 202.474 380.284 203.123C378.129 203.772 376.127 204.85 374.399 206.29C374.339 207.01 374.309 207.73 374.309 208.47C374.303 215.755 376.947 222.792 381.749 228.27C382.079 228.647 382.296 229.11 382.373 229.605C382.45 230.1 382.384 230.607 382.184 231.067C381.984 231.526 381.657 231.919 381.241 232.199C380.826 232.48 380.34 232.636 379.839 232.65H379.779C377.677 232.646 375.595 232.249 373.639 231.48C375.585 233.297 377.935 234.625 380.495 235.355C383.055 236.086 385.752 236.198 388.364 235.682C390.976 235.166 393.428 234.037 395.518 232.388C397.608 230.739 399.277 228.618 400.387 226.198C401.497 223.778 402.016 221.129 401.902 218.469C401.788 215.809 401.043 213.215 399.73 210.899C398.417 208.583 396.573 206.612 394.349 205.148C392.125 203.685 389.585 202.77 386.939 202.48V202.51Z" fill="black"/>
<path d="M434.376 209.744C438.194 193.565 428.174 177.353 411.995 173.535C395.816 169.716 379.604 179.736 375.785 195.915C371.967 212.095 381.987 228.306 398.166 232.125C414.345 235.943 430.557 225.923 434.376 209.744Z" fill="#407BFF"/>
<path opacity="0.2" d="M413.678 222.62C408.536 222.619 403.48 221.3 398.992 218.79C394.504 216.28 390.734 212.661 388.041 208.28C385.349 203.899 383.824 198.901 383.611 193.763C383.399 188.625 384.507 183.519 386.828 178.93C383.252 181.684 380.342 185.207 378.312 189.239C376.282 193.27 375.185 197.706 375.103 202.219C375.02 206.732 375.954 211.205 377.834 215.308C379.715 219.411 382.495 223.039 385.967 225.922C389.44 228.805 393.517 230.869 397.896 231.963C402.275 233.057 406.844 233.152 411.264 232.24C415.685 231.329 419.844 229.434 423.433 226.698C427.022 223.961 429.949 220.452 431.998 216.43C426.742 220.459 420.301 222.635 413.678 222.62Z" fill="black"/>
<path d="M96.8988 305.23C96.4745 305.23 96.0675 305.061 95.7675 304.761C95.4674 304.461 95.2988 304.054 95.2988 303.63V237.83C95.2988 237.406 95.4674 236.999 95.7675 236.699C96.0675 236.399 96.4745 236.23 96.8988 236.23C97.3232 236.23 97.7301 236.399 98.0302 236.699C98.3303 236.999 98.4988 237.406 98.4988 237.83V303.63C98.4988 304.054 98.3303 304.461 98.0302 304.761C97.7301 305.061 97.3232 305.23 96.8988 305.23Z" fill="#37474F"/>
<path d="M96.8992 261.93C96.7105 261.936 96.524 261.888 96.3612 261.793C96.1984 261.697 96.0659 261.558 95.9792 261.39L86.8592 245.39C86.7186 245.143 86.6818 244.851 86.7568 244.577C86.8318 244.303 87.0125 244.071 87.2592 243.93C87.5058 243.789 87.7982 243.753 88.072 243.828C88.3458 243.903 88.5786 244.083 88.7192 244.33L97.8292 260.33C97.8986 260.451 97.9433 260.585 97.9608 260.724C97.9783 260.863 97.9681 261.003 97.9309 261.138C97.8938 261.273 97.8303 261.399 97.7442 261.509C97.658 261.619 97.551 261.711 97.4292 261.78C97.27 261.879 97.0864 261.931 96.8992 261.93Z" fill="#37474F"/>
<path d="M96.7285 266.27C96.542 266.268 96.3591 266.218 96.198 266.124C96.037 266.03 95.9034 265.895 95.8104 265.733C95.7174 265.572 95.6683 265.388 95.668 265.202C95.6676 265.015 95.7161 264.832 95.8085 264.67L107.998 243.31C108.139 243.063 108.372 242.883 108.646 242.808C108.919 242.733 109.212 242.769 109.458 242.91C109.705 243.051 109.886 243.283 109.961 243.557C110.036 243.831 109.999 244.123 109.858 244.37L97.6585 265.73C97.5634 265.893 97.4277 266.028 97.2647 266.123C97.1017 266.217 96.917 266.268 96.7285 266.27Z" fill="#37474F"/>
<path d="M124.229 246.31C136.2 241.352 141.884 227.629 136.926 215.658C131.968 203.688 118.244 198.003 106.274 202.962C94.3035 207.92 88.6191 221.643 93.5774 233.614C98.5356 245.584 112.259 251.268 124.229 246.31Z" fill="#407BFF"/>
<path opacity="0.3" d="M124.229 246.31C136.2 241.352 141.884 227.629 136.926 215.658C131.968 203.688 118.244 198.003 106.274 202.962C94.3035 207.92 88.6191 221.643 93.5774 233.614C98.5356 245.584 112.259 251.268 124.229 246.31Z" fill="black"/>
<path d="M110.17 218C110.163 214.884 110.778 211.798 111.98 208.924C113.182 206.049 114.947 203.444 117.17 201.26C116.52 201.26 115.88 201.18 115.17 201.18C111.319 201.178 107.528 202.123 104.129 203.932C100.73 205.741 97.8294 208.359 95.6818 211.555C93.5342 214.75 92.2062 218.425 91.8149 222.256C91.4235 226.086 91.9809 229.954 93.4379 233.518C94.8948 237.082 97.2066 240.232 100.169 242.691C103.132 245.151 106.654 246.843 110.425 247.619C114.196 248.395 118.101 248.231 121.793 247.141C125.486 246.051 128.854 244.069 131.6 241.37C125.751 240.862 120.306 238.18 116.339 233.854C112.371 229.527 110.17 223.87 110.17 218Z" fill="#407BFF"/>
<path opacity="0.4" d="M110.17 218C110.163 214.884 110.778 211.798 111.98 208.924C113.182 206.049 114.947 203.444 117.17 201.26C116.52 201.26 115.88 201.18 115.17 201.18C111.319 201.178 107.528 202.123 104.129 203.932C100.73 205.741 97.8294 208.359 95.6818 211.555C93.5342 214.75 92.2062 218.425 91.8149 222.256C91.4235 226.086 91.9809 229.954 93.4379 233.518C94.8948 237.082 97.2066 240.232 100.169 242.691C103.132 245.151 106.654 246.843 110.425 247.619C114.196 248.395 118.101 248.231 121.793 247.141C125.486 246.051 128.854 244.069 131.6 241.37C125.751 240.862 120.306 238.18 116.339 233.854C112.371 229.527 110.17 223.87 110.17 218Z" fill="black"/>
<path d="M76.9291 248.1C86.213 248.1 93.7391 240.574 93.7391 231.29C93.7391 222.006 86.213 214.48 76.9291 214.48C67.6452 214.48 60.1191 222.006 60.1191 231.29C60.1191 240.574 67.6452 248.1 76.9291 248.1Z" fill="#407BFF"/>
<path opacity="0.3" d="M76.9291 248.1C86.213 248.1 93.7391 240.574 93.7391 231.29C93.7391 222.006 86.213 214.48 76.9291 214.48C67.6452 214.48 60.1191 222.006 60.1191 231.29C60.1191 240.574 67.6452 248.1 76.9291 248.1Z" fill="black"/>
<path d="M78.75 214.57C76.5116 214.327 74.2471 214.536 72.0912 215.185C69.9352 215.835 67.9318 216.911 66.2 218.35C66.2 219.07 66.12 219.79 66.12 220.53C66.1115 227.818 68.7561 234.859 73.56 240.34C73.8921 240.716 74.1097 241.179 74.1869 241.675C74.2642 242.171 74.198 242.679 73.9962 243.138C73.7943 243.598 73.4652 243.99 73.0477 244.268C72.6302 244.547 72.1417 244.7 71.64 244.71C69.5379 244.71 67.4547 244.313 65.5 243.54C67.4467 245.35 69.7951 246.672 72.3522 247.398C74.9093 248.124 77.6022 248.233 80.2095 247.715C82.8168 247.198 85.2642 246.069 87.3504 244.422C89.4367 242.775 91.1023 240.656 92.2104 238.24C93.3185 235.824 93.8375 233.179 93.7246 230.523C93.6118 227.868 92.8704 225.277 91.5614 222.963C90.2523 220.65 88.413 218.68 86.1945 217.216C83.9761 215.751 81.4418 214.834 78.8 214.54L78.75 214.57Z" fill="#407BFF"/>
<path opacity="0.4" d="M78.75 214.57C76.5116 214.327 74.2471 214.536 72.0912 215.185C69.9352 215.835 67.9318 216.911 66.2 218.35C66.2 219.07 66.12 219.79 66.12 220.53C66.1115 227.818 68.7561 234.859 73.56 240.34C73.8921 240.716 74.1097 241.179 74.1869 241.675C74.2642 242.171 74.198 242.679 73.9962 243.138C73.7943 243.598 73.4652 243.99 73.0477 244.268C72.6302 244.547 72.1417 244.7 71.64 244.71C69.5379 244.71 67.4547 244.313 65.5 243.54C67.4467 245.35 69.7951 246.672 72.3522 247.398C74.9093 248.124 77.6022 248.233 80.2095 247.715C82.8168 247.198 85.2642 246.069 87.3504 244.422C89.4367 242.775 91.1023 240.656 92.2104 238.24C93.3185 235.824 93.8375 233.179 93.7246 230.523C93.6118 227.868 92.8704 225.277 91.5614 222.963C90.2523 220.65 88.413 218.68 86.1945 217.216C83.9761 215.751 81.4418 214.834 78.8 214.54L78.75 214.57Z" fill="black"/>
<path d="M126.196 221.813C130.015 205.634 119.994 189.422 103.815 185.603C87.6358 181.785 71.4243 191.805 67.6057 207.984C63.787 224.163 73.8073 240.375 89.9865 244.194C106.166 248.012 122.377 237.992 126.196 221.813Z" fill="#407BFF"/>
<path opacity="0.2" d="M105.489 234.68C100.346 234.683 95.2877 233.368 90.7978 230.86C86.308 228.351 82.5363 224.734 79.843 220.352C77.1497 215.971 75.6248 210.972 75.414 205.833C75.2032 200.694 76.3134 195.587 78.6388 191C75.0475 193.746 72.1212 197.266 70.0772 201.298C68.0333 205.331 66.9242 209.772 66.8324 214.292C66.7406 218.812 67.6684 223.294 69.547 227.406C71.4255 231.518 74.2065 235.154 77.6833 238.044C81.1601 240.933 85.2433 243.002 89.6296 244.097C94.0158 245.192 98.5924 245.284 103.019 244.367C107.446 243.45 111.609 241.548 115.2 238.801C118.791 236.054 121.716 232.533 123.759 228.5C118.515 232.515 112.093 234.687 105.489 234.68Z" fill="black"/>
<path d="M377 330.05V317.2H369.67V330.05C369.701 330.372 369.816 330.68 370.004 330.944C370.191 331.207 370.445 331.416 370.74 331.55C371.545 331.955 372.434 332.165 373.335 332.165C374.236 332.165 375.125 331.955 375.93 331.55C376.226 331.418 376.481 331.209 376.669 330.946C376.857 330.682 376.971 330.373 377 330.05Z" fill="#455A64"/>
<path d="M375.899 315.7C377.329 316.53 377.329 317.87 375.899 318.7C375.095 319.109 374.206 319.323 373.304 319.323C372.402 319.323 371.513 319.109 370.709 318.7C369.279 317.88 369.279 316.54 370.709 315.7C371.513 315.291 372.402 315.078 373.304 315.078C374.206 315.078 375.095 315.291 375.899 315.7Z" fill="#37474F"/>
<path d="M387.999 259.34C387.715 259.34 387.443 259.227 387.242 259.027C387.042 258.826 386.929 258.554 386.929 258.27V246.27C386.914 246.121 386.931 245.972 386.978 245.83C387.025 245.688 387.101 245.558 387.202 245.448C387.302 245.337 387.424 245.249 387.561 245.188C387.697 245.128 387.845 245.097 387.994 245.097C388.143 245.097 388.291 245.128 388.427 245.188C388.564 245.249 388.686 245.337 388.786 245.448C388.886 245.558 388.962 245.688 389.009 245.83C389.056 245.972 389.073 246.121 389.059 246.27V258.27C389.06 258.41 389.034 258.549 388.981 258.679C388.928 258.808 388.85 258.927 388.752 259.026C388.653 259.125 388.536 259.204 388.407 259.258C388.278 259.312 388.139 259.34 387.999 259.34Z" fill="#37474F"/>
<path d="M405.079 270.13C404.939 270.13 404.8 270.102 404.671 270.048C404.541 269.995 404.424 269.916 404.326 269.816C404.227 269.717 404.149 269.599 404.096 269.469C404.044 269.339 404.017 269.2 404.019 269.06V257.06C404.004 256.912 404.021 256.762 404.068 256.62C404.115 256.478 404.191 256.348 404.291 256.238C404.392 256.127 404.514 256.039 404.65 255.978C404.787 255.918 404.934 255.887 405.084 255.887C405.233 255.887 405.38 255.918 405.517 255.978C405.653 256.039 405.776 256.127 405.876 256.238C405.976 256.348 406.052 256.478 406.099 256.62C406.146 256.762 406.163 256.912 406.149 257.06V269.06C406.149 269.344 406.036 269.616 405.835 269.817C405.635 270.017 405.362 270.13 405.079 270.13Z" fill="#37474F"/>
<path d="M373.388 317.63C373.105 317.63 372.832 317.517 372.632 317.317C372.431 317.116 372.318 316.844 372.318 316.56V237.89C372.322 237.703 372.374 237.521 372.469 237.36C372.565 237.199 372.7 237.066 372.862 236.973C373.025 236.881 373.208 236.832 373.395 236.831C373.582 236.83 373.766 236.878 373.928 236.97L418.278 262.58C418.508 262.73 418.672 262.961 418.736 263.228C418.8 263.495 418.759 263.776 418.622 264.013C418.484 264.251 418.261 264.426 417.998 264.504C417.735 264.581 417.452 264.555 417.208 264.43L374.458 239.74V316.56C374.458 316.701 374.431 316.84 374.377 316.97C374.323 317.099 374.244 317.217 374.145 317.317C374.046 317.416 373.928 317.495 373.798 317.549C373.668 317.602 373.529 317.63 373.388 317.63Z" fill="#37474F"/>
<path d="M378.77 250.59V281.06C378.768 281.785 378.959 282.497 379.323 283.124C379.686 283.752 380.21 284.271 380.84 284.63L415.14 304.44C415.404 304.592 415.703 304.673 416.008 304.673C416.313 304.673 416.612 304.594 416.877 304.442C417.141 304.29 417.361 304.071 417.514 303.808C417.667 303.544 417.748 303.245 417.75 302.94V272.47C417.748 271.746 417.556 271.035 417.192 270.408C416.829 269.781 416.307 269.261 415.68 268.9L381.38 249.09C381.116 248.938 380.816 248.857 380.511 248.857C380.206 248.857 379.907 248.936 379.643 249.088C379.378 249.24 379.158 249.459 379.005 249.722C378.852 249.986 378.771 250.285 378.77 250.59Z" fill="#455A64"/>
<path d="M390.729 264.376L391.98 265.095V271.333L390.729 270.614V264.376ZM388.272 269.202L387.02 268.482V262.244L388.272 262.964V269.202ZM390.822 268.109L388.179 266.591V265.37L390.822 266.889V268.109ZM395.887 273.685C395.459 273.439 395.063 273.131 394.697 272.761C394.337 272.393 394.022 271.987 393.755 271.542C393.492 271.1 393.286 270.64 393.136 270.162C392.992 269.687 392.92 269.217 392.92 268.754C392.92 268.291 392.992 267.904 393.136 267.595C393.286 267.289 393.494 267.067 393.762 266.93C394.03 266.793 394.344 266.748 394.705 266.795C395.065 266.841 395.457 266.986 395.879 267.229C396.307 267.475 396.698 267.78 397.054 268.144C397.414 268.512 397.726 268.917 397.989 269.359C398.256 269.804 398.465 270.265 398.614 270.743C398.764 271.215 398.838 271.686 398.838 272.155C398.838 272.619 398.764 273.007 398.614 273.319C398.465 273.625 398.256 273.847 397.989 273.984C397.726 274.118 397.414 274.162 397.054 274.115C396.698 274.071 396.309 273.928 395.887 273.685ZM395.879 272.451C396.121 272.59 396.343 272.67 396.544 272.69C396.75 272.714 396.93 272.681 397.085 272.591C397.239 272.502 397.358 272.359 397.44 272.163C397.528 271.969 397.571 271.724 397.571 271.427C397.571 271.13 397.528 270.835 397.44 270.541C397.358 270.25 397.239 269.971 397.085 269.704C396.935 269.44 396.757 269.201 396.551 268.988C396.345 268.774 396.121 268.598 395.879 268.459C395.637 268.319 395.413 268.238 395.207 268.215C395.006 268.194 394.828 268.229 394.674 268.318C394.519 268.408 394.398 268.549 394.311 268.742C394.228 268.939 394.187 269.185 394.187 269.482C394.187 269.773 394.228 270.067 394.311 270.364C394.398 270.658 394.517 270.937 394.666 271.201C394.821 271.468 395.001 271.709 395.207 271.922C395.413 272.135 395.637 272.312 395.879 272.451ZM402.182 277.303C401.414 276.862 400.814 276.27 400.382 275.529C399.949 274.787 399.733 273.959 399.733 273.044V269.55L400.984 270.27V273.71C400.984 274.304 401.09 274.792 401.301 275.175C401.512 275.558 401.809 275.859 402.19 276.078C402.571 276.297 402.867 276.336 403.078 276.196C403.289 276.056 403.395 275.689 403.395 275.095V271.655L404.631 272.366V275.859C404.631 276.774 404.415 277.353 403.982 277.598C403.55 277.842 402.949 277.744 402.182 277.303ZM407.645 280.443C407.212 280.194 406.798 279.89 406.401 279.532C406.005 279.167 405.685 278.808 405.443 278.455L405.868 277.612C406.1 277.936 406.373 278.25 406.687 278.555C407.006 278.858 407.328 279.102 407.653 279.289C407.9 279.431 408.098 279.518 408.248 279.55C408.402 279.58 408.516 279.565 408.588 279.505C408.66 279.446 408.696 279.35 408.696 279.22C408.696 279.053 408.639 278.89 408.526 278.73C408.413 278.564 408.263 278.398 408.078 278.232C407.892 278.06 407.686 277.882 407.46 277.698C407.238 277.512 407.014 277.312 406.787 277.098C406.566 276.888 406.363 276.664 406.177 276.427C405.992 276.189 405.84 275.93 405.721 275.648C405.608 275.369 405.551 275.063 405.551 274.73C405.551 274.374 405.634 274.097 405.799 273.901C405.968 273.702 406.221 273.612 406.556 273.632C406.896 273.649 407.321 273.804 407.831 274.097C408.17 274.293 408.505 274.533 408.835 274.817C409.165 275.096 409.456 275.4 409.708 275.729L409.322 276.603C409.069 276.292 408.817 276.025 408.565 275.802C408.312 275.574 408.065 275.391 407.823 275.251C407.581 275.112 407.382 275.031 407.228 275.008C407.073 274.984 406.963 275.007 406.896 275.075C406.829 275.138 406.795 275.237 406.795 275.374C406.795 275.534 406.852 275.697 406.965 275.864C407.078 276.024 407.228 276.187 407.413 276.353C407.599 276.519 407.802 276.695 408.024 276.882C408.25 277.071 408.474 277.269 408.696 277.473C408.922 277.681 409.129 277.903 409.314 278.14C409.499 278.377 409.649 278.636 409.762 278.915C409.881 279.197 409.94 279.501 409.94 279.828C409.94 280.178 409.855 280.45 409.685 280.644C409.515 280.837 409.26 280.925 408.92 280.908C408.585 280.894 408.16 280.739 407.645 280.443ZM411.946 279.083L414.55 280.579V281.702L411.946 280.206V279.083ZM412.039 281.702L414.983 283.394V284.553L410.795 282.146V275.908L414.882 278.257V279.416L412.039 277.781V281.702Z" fill="#FAFAFA"/>
<path d="M294.998 409.3C294.998 409.3 294.458 410.18 294.698 414.19C294.938 418.2 294.938 418.5 294.998 421.11C295.058 423.72 294.938 426.63 298.288 425.75C301.638 424.87 302.208 422.54 301.818 420.49C301.27 417.77 300.896 415.018 300.698 412.25C300.618 409.79 299.798 408.97 299.798 408.97L294.998 409.3Z" fill="#37474F"/>
<path d="M298.1 366.82L297.85 371.82C297.761 373.551 297.879 375.287 298.2 376.99C299 381.28 300.5 390.24 300.2 395.93C299.78 403.64 299.85 408.93 299.85 408.93C299.85 408.93 300.51 416.93 300.54 418.61C300.55 418.897 300.503 419.184 300.4 419.452C300.297 419.721 300.141 419.966 299.941 420.172C299.741 420.379 299.502 420.542 299.237 420.654C298.972 420.765 298.687 420.822 298.4 420.82C297.64 420.82 295.54 421.58 295.05 410.52C294.338 404.207 293.199 397.949 291.64 391.79C290.03 385.65 288.89 380.22 288.3 377.22C287.995 375.672 287.794 374.105 287.7 372.53L287.27 365.53L298.1 366.82Z" fill="#945959"/>
<path d="M281.81 408.84V408.91C281.801 409.839 281.607 410.757 281.24 411.61C280.976 412.289 280.844 413.012 280.85 413.74V416.74C280.85 416.863 280.802 416.981 280.716 417.069C280.63 417.157 280.513 417.208 280.39 417.21C280.328 417.21 280.267 417.198 280.21 417.175C280.153 417.151 280.101 417.116 280.058 417.073C280.014 417.029 279.979 416.977 279.956 416.92C279.932 416.863 279.92 416.802 279.92 416.74V412.14L281.81 408.84Z" fill="#263238"/>
<path d="M280.279 405.79C280.279 405.79 278.679 406.97 278.679 410.09C278.621 411.378 278.276 412.636 277.671 413.774C277.065 414.912 276.214 415.902 275.179 416.67C273.999 417.38 271.389 415.67 271.389 415.67C271.389 415.67 268.609 418.03 268.609 419.09C268.609 420.15 269.969 421.02 273.109 420.59C276.249 420.16 278.859 419.7 279.349 416.3C279.919 412.3 279.939 411.82 281.139 410.51C282.339 409.2 281.879 406.51 280.279 405.79Z" fill="#263238"/>
<path d="M285.768 355.16L273.498 368L274.428 397.59L274.718 405.66C274.478 410.36 271.228 415.1 271.228 415.1C271.163 415.732 271.163 416.368 271.228 417H274.178C279.838 417 280.258 405.2 280.258 405.2L280.448 402.3C280.633 399.54 280.994 396.794 281.528 394.08C284.338 380.13 283.228 372.86 283.228 372.86L285.768 355.16Z" fill="#945959"/>
<path d="M280.258 405.24C280.258 405.24 278.958 406.17 278.628 409.54C278.571 410.834 278.222 412.098 277.608 413.237C276.993 414.377 276.128 415.362 275.078 416.12C273.878 416.82 271.228 415.12 271.228 415.12C271.228 415.12 268.408 417.48 268.408 418.54C268.408 419.6 269.788 420.47 272.978 420.03C276.168 419.59 278.248 419.03 278.838 415.65C279.428 412.27 279.438 411.48 280.658 410.17C281.878 408.86 282.658 407.66 280.258 405.24Z" fill="#37474F"/>
<path d="M294.568 341.25C294.568 341.25 298.888 347.25 298.748 361.46C298.648 372.39 298.298 374.69 298.298 374.69C294.538 378.152 289.599 380.051 284.488 380C279.408 380 273.158 375 273.158 375C273.158 375 273.248 362.3 273.548 357.17C273.881 352.105 274.691 347.083 275.968 342.17L294.568 341.25Z" fill="#263238"/>
<path d="M255.909 318.13C255.783 317.689 255.699 317.237 255.659 316.78C255.669 315.789 255.288 314.833 254.599 314.12C253.879 313.12 254.289 312.3 253.599 312.12C252.909 311.94 252.439 314.25 253.189 315.32C252.428 314.81 251.8 314.124 251.359 313.32C250.879 312.23 250.049 310.61 249.359 310.32C248.669 310.03 246.259 312.88 247.249 315.52C248.239 318.16 252.549 320.83 252.549 320.83L255.909 318.13Z" fill="#945959"/>
<path d="M279.75 315.32H279.67C277.881 315.303 276.132 315.849 274.67 316.88L263.18 324.88L255.74 317.53C254.768 318.86 253.45 319.898 251.93 320.53L260.22 331.23C260.61 331.734 261.162 332.089 261.783 332.235C262.404 332.38 263.056 332.308 263.63 332.03L274.12 326.96L279.75 315.32Z" fill="#37474F"/>
<path d="M282.938 315.31H279.748C279.748 315.31 268.228 326.22 276.188 333.21C276.538 336.175 276.464 339.176 275.968 342.12C275.968 342.12 281.778 346.02 294.678 342.12L293.548 333.06L296.048 325.06L295.528 316.85C295.51 316.591 295.398 316.347 295.215 316.164C295.031 315.98 294.787 315.869 294.528 315.85L289.748 315.64L282.938 315.31Z" fill="#455A64"/>
<path d="M283.148 314.4L281.398 315.4L278.128 320.51C278.044 320.646 277.989 320.798 277.966 320.957C277.944 321.115 277.955 321.276 277.998 321.43L278.928 324.66L278.558 325.1C278.381 325.312 278.257 325.564 278.196 325.833C278.135 326.103 278.139 326.383 278.208 326.65L278.998 329.6L282.778 327.05C283.042 326.873 283.251 326.625 283.382 326.336C283.512 326.046 283.56 325.726 283.518 325.41V325.13L288.348 323.39C288.516 323.33 288.668 323.231 288.789 323.1C288.911 322.97 289 322.812 289.048 322.64L291.048 315.74L289.698 314.74L283.148 314.4Z" fill="#263238"/>
<path d="M289.67 298.61C289.67 300.068 289.237 301.493 288.428 302.705C287.618 303.917 286.467 304.861 285.12 305.419C283.773 305.977 282.292 306.123 280.862 305.839C279.432 305.554 278.119 304.852 277.088 303.822C276.058 302.791 275.356 301.478 275.071 300.048C274.787 298.618 274.933 297.137 275.491 295.79C276.048 294.443 276.993 293.292 278.205 292.482C279.417 291.672 280.842 291.24 282.3 291.24C283.268 291.239 284.227 291.429 285.122 291.799C286.016 292.169 286.829 292.711 287.514 293.396C288.199 294.081 288.741 294.894 289.111 295.788C289.481 296.683 289.671 297.642 289.67 298.61Z" fill="#263238"/>
<path d="M300.16 309.21C300.16 310.025 299.918 310.822 299.466 311.499C299.013 312.177 298.369 312.705 297.617 313.017C296.864 313.329 296.035 313.41 295.236 313.251C294.437 313.092 293.703 312.7 293.127 312.124C292.55 311.547 292.158 310.813 291.999 310.014C291.84 309.215 291.922 308.387 292.234 307.634C292.545 306.881 293.073 306.237 293.751 305.785C294.428 305.332 295.225 305.09 296.04 305.09C296.581 305.089 297.118 305.195 297.618 305.401C298.119 305.608 298.573 305.911 298.956 306.294C299.339 306.677 299.642 307.132 299.849 307.632C300.056 308.133 300.161 308.669 300.16 309.21Z" fill="#263238"/>
<path d="M294.781 308.807C296.48 307.108 296.737 304.61 295.354 303.228C293.972 301.845 291.474 302.102 289.775 303.801C288.076 305.499 287.82 307.997 289.202 309.38C290.585 310.762 293.083 310.506 294.781 308.807Z" fill="#407BFF"/>
<path d="M293 295.31C293.285 294.987 293.496 294.606 293.62 294.194C293.745 293.781 293.779 293.347 293.72 292.92C293.6 291.32 295.11 292.48 295.24 293.4C295.225 293.954 295.054 294.492 294.746 294.952C294.438 295.412 294.006 295.776 293.5 296L293 295.31Z" fill="#263238"/>
<path d="M293.508 295.63C293.938 295.654 294.367 295.585 294.767 295.428C295.168 295.271 295.529 295.029 295.828 294.72C297.008 293.64 297.028 295.54 296.388 296.21C295.951 296.534 295.433 296.73 294.89 296.776C294.348 296.822 293.804 296.716 293.318 296.47L293.508 295.63Z" fill="#263238"/>
<path d="M282.939 311.15V315.31C282.939 315.31 279.859 325.31 280.869 324.58C283.869 322.47 288.309 317.33 289.439 316C289.619 315.791 289.718 315.525 289.719 315.25V307.25L282.939 311.15Z" fill="#945959"/>
<path d="M289.639 305.88V306.12C288.129 312.12 284.209 313.37 282.939 313.68V304.46H289.489L289.639 305.88Z" fill="#703838"/>
<path d="M284.079 292.54C281.914 292.679 279.89 293.658 278.437 295.269C276.983 296.879 276.216 298.993 276.299 301.16C276.219 307.75 277.229 312.78 280.649 312.99C283.654 312.914 286.514 311.684 288.636 309.556C290.759 307.428 291.981 304.565 292.049 301.56C292.409 293 286.509 292.34 284.079 292.54Z" fill="#945959"/>
<path d="M280.909 303.81L280.969 307.68L278.699 307.02L280.909 303.81Z" fill="#703838"/>
<path d="M284.308 303.71C284.31 303.867 284.266 304.021 284.18 304.152C284.095 304.283 283.972 304.386 283.828 304.447C283.684 304.509 283.524 304.526 283.371 304.496C283.217 304.467 283.075 304.392 282.963 304.282C282.852 304.172 282.776 304.032 282.744 303.878C282.713 303.725 282.728 303.565 282.788 303.42C282.847 303.275 282.948 303.151 283.079 303.064C283.209 302.977 283.362 302.93 283.518 302.93C283.622 302.929 283.724 302.948 283.82 302.987C283.916 303.025 284.003 303.083 284.076 303.155C284.15 303.228 284.208 303.314 284.248 303.409C284.288 303.505 284.308 303.607 284.308 303.71Z" fill="#263238"/>
<path d="M279.12 303.23C279.121 303.334 279.102 303.437 279.064 303.533C279.025 303.63 278.968 303.718 278.896 303.792C278.823 303.866 278.737 303.925 278.642 303.966C278.546 304.007 278.444 304.029 278.34 304.03C278.237 304.032 278.134 304.012 278.038 303.974C277.943 303.935 277.855 303.878 277.782 303.805C277.708 303.733 277.65 303.646 277.61 303.551C277.57 303.456 277.55 303.354 277.55 303.25C277.537 303.14 277.548 303.028 277.582 302.922C277.616 302.816 277.672 302.718 277.746 302.635C277.82 302.552 277.911 302.486 278.012 302.441C278.114 302.395 278.224 302.372 278.335 302.372C278.446 302.372 278.556 302.395 278.658 302.441C278.759 302.486 278.85 302.552 278.924 302.635C278.998 302.718 279.054 302.816 279.088 302.922C279.121 303.028 279.132 303.14 279.12 303.25V303.23Z" fill="#263238"/>
<path d="M277.35 301.61L278.88 300.68C278.88 300.68 278.28 300.07 277.69 300.45C277.523 300.587 277.401 300.771 277.34 300.978C277.279 301.185 277.283 301.405 277.35 301.61Z" fill="#407BFF"/>
<path d="M280.469 309C281.267 308.621 282.042 308.193 282.789 307.72C282.789 307.72 283.289 308.99 282.249 309.51C281.939 309.644 281.592 309.666 281.268 309.573C280.943 309.48 280.661 309.278 280.469 309Z" fill="#703838"/>
<path d="M277.35 301.61L278.88 300.68C278.88 300.68 278.28 300.07 277.69 300.45C277.523 300.587 277.401 300.771 277.34 300.978C277.279 301.185 277.283 301.405 277.35 301.61Z" fill="#263238"/>
<path d="M287.68 302.71C287.68 302.71 287.27 306.15 289.74 306.15L290.34 303.07L287.68 302.71Z" fill="#263238"/>
<path d="M287.87 303.72C287.87 303.72 278 302 278 292.48C278 289.6 279.77 287.59 283.8 290.58C287.83 293.57 296 291.28 296 302.12C296.017 304.049 295.419 305.932 294.294 307.498C293.168 309.064 291.573 310.231 289.74 310.83V304L287.87 303.72Z" fill="#263238"/>
<path d="M289.62 305.8C289.609 305.179 289.738 304.564 290 304C290.119 303.656 290.338 303.355 290.628 303.134C290.918 302.913 291.266 302.783 291.63 302.76C291.929 302.763 292.225 302.83 292.497 302.956C292.768 303.082 293.01 303.265 293.205 303.492C293.4 303.72 293.544 303.986 293.628 304.274C293.712 304.562 293.733 304.864 293.69 305.16C293.613 306.152 293.152 307.075 292.405 307.733C291.658 308.39 290.684 308.73 289.69 308.68L289.62 305.8Z" fill="#945959"/>
<path d="M291.469 327.39L286.709 326.9V326L291.469 326.49V327.39Z" fill="#263238"/>
<path d="M278.269 331.85H276.329C276.329 331.32 276.119 330.811 275.744 330.436C275.369 330.061 274.86 329.85 274.329 329.85C273.799 329.85 273.29 330.061 272.915 330.436C272.54 330.811 272.329 331.32 272.329 331.85H271.179C271.058 331.849 270.938 331.877 270.83 331.931C270.722 331.986 270.627 332.065 270.555 332.162C270.483 332.26 270.435 332.373 270.415 332.492C270.395 332.612 270.403 332.734 270.439 332.85L271.029 334.74H279.749L279.009 332.38C278.958 332.225 278.859 332.089 278.726 331.994C278.593 331.899 278.433 331.848 278.269 331.85Z" fill="#407BFF"/>
<path opacity="0.7" d="M278.269 331.85H276.329C276.329 331.32 276.119 330.811 275.744 330.436C275.369 330.061 274.86 329.85 274.329 329.85C273.799 329.85 273.29 330.061 272.915 330.436C272.54 330.811 272.329 331.32 272.329 331.85H271.179C271.058 331.849 270.938 331.877 270.83 331.931C270.722 331.986 270.627 332.065 270.555 332.162C270.483 332.26 270.435 332.373 270.415 332.492C270.395 332.612 270.403 332.734 270.439 332.85L271.029 334.74H279.749L279.009 332.38C278.958 332.225 278.859 332.089 278.726 331.994C278.593 331.899 278.433 331.848 278.269 331.85Z" fill="black"/>
<path d="M284.09 332.86L288.95 351.2L273.29 351.27L267.25 333.04L284.09 332.86Z" fill="#407BFF"/>
<path opacity="0.3" d="M284.09 332.86L288.95 351.2L273.29 351.27L267.25 333.04L284.09 332.86Z" fill="black"/>
<path d="M278.269 332.67H276.329C276.329 332.139 276.119 331.631 275.744 331.256C275.369 330.881 274.86 330.67 274.329 330.67C273.799 330.67 273.29 330.881 272.915 331.256C272.54 331.631 272.329 332.139 272.329 332.67H271.179C271.058 332.669 270.938 332.697 270.83 332.751C270.722 332.805 270.627 332.884 270.555 332.982C270.483 333.079 270.435 333.192 270.415 333.312C270.395 333.432 270.403 333.554 270.439 333.67L270.719 334.59H279.429L279.009 333.2C278.958 333.044 278.859 332.909 278.726 332.814C278.593 332.719 278.433 332.668 278.269 332.67Z" fill="#407BFF"/>
<path opacity="0.5" d="M278.269 332.67H276.329C276.329 332.139 276.119 331.631 275.744 331.256C275.369 330.881 274.86 330.67 274.329 330.67C273.799 330.67 273.29 330.881 272.915 331.256C272.54 331.631 272.329 332.139 272.329 332.67H271.179C271.058 332.669 270.938 332.697 270.83 332.751C270.722 332.805 270.627 332.884 270.555 332.982C270.483 333.079 270.435 333.192 270.415 333.312C270.395 333.432 270.403 333.554 270.439 333.67L270.719 334.59H279.429L279.009 333.2C278.958 333.044 278.859 332.909 278.726 332.814C278.593 332.719 278.433 332.668 278.269 332.67Z" fill="black"/>
<path d="M290.689 339.74C289.836 339.93 288.958 339.978 288.089 339.88C287.089 339.68 287.089 338.78 285.609 338.81L286.089 340.81C284.631 341.091 283.142 341.182 281.659 341.08C279.659 340.85 280.339 342.61 280.659 343.08C280.979 343.55 282.319 346.32 285.179 346.08C287.455 345.783 289.702 345.301 291.899 344.64C292.117 343.787 292.121 342.893 291.91 342.038C291.699 341.183 291.279 340.394 290.689 339.74Z" fill="#945959"/>
<path d="M294.569 315.88C295.923 315.9 297.236 316.345 298.322 317.152C299.408 317.96 300.212 319.09 300.619 320.38L305.469 335.68C305.663 336.285 305.733 336.922 305.675 337.554C305.617 338.186 305.433 338.8 305.134 339.36C304.835 339.919 304.426 340.413 303.932 340.812C303.438 341.21 302.87 341.506 302.259 341.68L291.879 344.68C291.924 342.974 291.513 341.286 290.689 339.79L298.809 336.35L293.909 323.41C293.486 322.342 293.253 321.209 293.219 320.06C293.158 319.309 293.246 318.553 293.478 317.836C293.71 317.119 294.081 316.454 294.569 315.88Z" fill="#37474F"/>
<path d="M293.929 342.92C293.931 343.027 293.902 343.133 293.843 343.223C293.785 343.313 293.702 343.384 293.603 343.426C293.505 343.468 293.396 343.481 293.29 343.461C293.185 343.441 293.088 343.391 293.011 343.316C292.935 343.24 292.882 343.144 292.861 343.039C292.839 342.934 292.849 342.825 292.89 342.726C292.93 342.627 292.999 342.542 293.088 342.482C293.178 342.422 293.282 342.39 293.39 342.39C293.531 342.39 293.667 342.446 293.768 342.545C293.869 342.644 293.927 342.779 293.929 342.92Z" fill="#263238"/>
<path d="M295.75 342.45C295.752 342.558 295.722 342.663 295.663 342.754C295.604 342.844 295.52 342.915 295.421 342.957C295.322 342.999 295.213 343.011 295.107 342.99C295.001 342.97 294.904 342.918 294.828 342.842C294.752 342.766 294.7 342.669 294.68 342.563C294.659 342.457 294.671 342.348 294.713 342.249C294.755 342.15 294.826 342.065 294.916 342.007C295.006 341.948 295.112 341.918 295.22 341.92C295.36 341.923 295.493 341.979 295.592 342.078C295.691 342.177 295.747 342.31 295.75 342.45Z" fill="#263238"/>
<path d="M253.829 321.54C253.696 321.606 253.542 321.617 253.402 321.57C253.261 321.523 253.145 321.423 253.079 321.29C253.012 321.157 253.001 321.004 253.048 320.863C253.095 320.723 253.196 320.606 253.329 320.54C253.461 320.474 253.615 320.463 253.755 320.51C253.896 320.557 254.012 320.657 254.079 320.79C254.145 320.923 254.156 321.076 254.109 321.217C254.062 321.357 253.961 321.474 253.829 321.54Z" fill="#263238"/>
<path d="M255.109 322.93C255.015 322.981 254.908 323.003 254.801 322.993C254.695 322.982 254.594 322.941 254.511 322.873C254.428 322.806 254.367 322.715 254.336 322.613C254.305 322.511 254.305 322.402 254.335 322.299C254.366 322.197 254.427 322.106 254.509 322.038C254.592 321.97 254.693 321.928 254.799 321.918C254.905 321.907 255.012 321.928 255.107 321.979C255.201 322.029 255.278 322.106 255.329 322.2C255.396 322.326 255.411 322.474 255.37 322.611C255.328 322.748 255.234 322.863 255.109 322.93Z" fill="#263238"/>
<path d="M216.999 408.16C216.999 408.16 216.119 408.64 215.999 410.52C215.879 412.4 214.139 415.91 218.169 416.05C222.199 416.19 221.639 416.4 223.279 417.05C224.919 417.7 228.469 419.2 231.279 417.2C234.089 415.2 230.849 414.14 229.669 413.74C227.574 413.048 225.583 412.076 223.749 410.85C223.009 410.356 222.337 409.768 221.749 409.1L216.999 408.16Z" fill="#263238"/>
<path d="M204 412.84C204 412.84 203.31 413.04 203.28 414.42C203.25 415.8 202.16 417.9 203.64 419.15C205.12 420.4 205.35 420.24 206.25 422.15C206.801 423.544 207.853 424.682 209.201 425.339C210.548 425.996 212.092 426.124 213.53 425.7C217.84 424.75 215.12 422.16 214.76 421.78C214.4 421.4 210.18 417.23 209.76 415.86C209.507 415.104 209.189 414.371 208.81 413.67L204 412.84Z" fill="#263238"/>
<path d="M204 411.12V413.67C204 413.67 204.31 414.86 206.67 414.86C207.94 414.86 208.77 414.11 208.79 413.67V410.87L204 411.12Z" fill="#FFA8A7"/>
<path d="M217 406.57V409.11C217 409.11 217.31 410.31 219.67 410.31C220.94 410.31 221.78 409.55 221.8 409.11V406.32L217 406.57Z" fill="#FFA8A7"/>
<path d="M224.199 347.12L225.999 376.55C226.081 377.938 226.028 379.331 225.839 380.71L222.089 407.94C221.174 408.311 220.178 408.435 219.2 408.298C218.222 408.161 217.297 407.768 216.519 407.16L215.059 385.39C214.931 383.555 215.179 381.714 215.789 379.98L216.369 378.34L211.109 349.16L224.199 347.12Z" fill="#455A64"/>
<path d="M220.59 354.82C220.59 354.82 219.7 358.3 215.25 360.45L214.36 367.01L212.43 356.33L220.59 354.82Z" fill="#37474F"/>
<path d="M222.001 348.31C222.001 348.31 222.631 353.88 218.321 357.49C217.131 358.545 215.675 359.254 214.111 359.54L212.681 380.22L209.221 412.54C209.221 412.54 207.131 414.29 203.271 412.54L201.441 388.32C201.239 385.601 201.731 382.876 202.871 380.4L202.951 380.22C201.996 369.468 201.662 358.67 201.951 347.88L222.001 348.31Z" fill="#455A64"/>
<path d="M227.93 326.91L229.49 330.01C229.49 330.01 236.49 332.49 240.63 332.4L242.42 336.75C239.092 336.997 235.752 337.034 232.42 336.86C227.55 336.55 226.83 336.42 225.42 334.57C224.01 332.72 221.84 329.33 221.84 329.33L227.93 326.91Z" fill="#FFA8A7"/>
<path d="M240.631 332.4C241.008 332.141 241.36 331.846 241.681 331.52C241.987 331.134 242.366 330.813 242.797 330.574C243.228 330.335 243.701 330.184 244.191 330.13C245.361 329.84 245.581 328.92 246.191 329.23C246.801 329.54 245.731 331.61 244.471 331.96C245.377 332.057 246.293 331.934 247.141 331.6C248.201 331.06 249.871 330.33 250.551 330.6C251.231 330.87 251.321 334.55 248.881 335.95C246.441 337.35 241.411 336.69 241.411 336.69L240.631 332.4Z" fill="#FFA8A7"/>
<path d="M217 313C218.097 312.78 219.236 312.918 220.248 313.396C221.26 313.873 222.092 314.663 222.62 315.65L228.53 326.72C228.53 326.72 226.95 330.1 221.81 330.27L217 313Z" fill="#407BFF"/>
<path opacity="0.5" d="M217 313C218.097 312.78 219.236 312.918 220.248 313.396C221.26 313.873 222.092 314.663 222.62 315.65L228.53 326.72C228.53 326.72 226.95 330.1 221.81 330.27L217 313Z" fill="black"/>
<path d="M202.21 332.38L200.44 336.93L198.59 352.32L194.13 353.73C194.13 353.73 193.75 344.47 193.94 338.25C193.989 336.585 194.3 334.938 194.86 333.37L196.11 329.87L202.21 332.38Z" fill="#FFA8A7"/>
<path d="M208.66 314.53L203.05 316.14L202 331.83V347.88C202 347.88 205.49 350.88 213.78 350.88C217.589 350.802 221.266 349.47 224.24 347.09V326.91C224.24 325.1 224.96 314.73 217.07 312.91L215.72 313.18L208.66 314.53Z" fill="#407BFF"/>
<path opacity="0.3" d="M208.66 314.53L203.05 316.14L202 331.83V347.88C202 347.88 205.49 350.88 213.78 350.88C217.589 350.802 221.266 349.47 224.24 347.09V326.91C224.24 325.1 224.96 314.73 217.07 312.91L215.72 313.18L208.66 314.53Z" fill="black"/>
<path d="M206.221 315.23C206.221 315.23 208.101 317.09 206.751 322.29C205.643 326.228 204.308 330.097 202.751 333.88C201.345 334.145 199.894 334.024 198.552 333.529C197.21 333.034 196.028 332.184 195.131 331.07L199.131 320.07C199.468 319.114 200.029 318.252 200.766 317.557C201.504 316.861 202.397 316.351 203.371 316.07L206.221 315.23Z" fill="#407BFF"/>
<path opacity="0.5" d="M206.221 315.23C206.221 315.23 208.101 317.09 206.751 322.29C205.643 326.228 204.308 330.097 202.751 333.88C201.345 334.145 199.894 334.024 198.552 333.529C197.21 333.034 196.028 332.184 195.131 331.07L199.131 320.07C199.468 319.114 200.029 318.252 200.766 317.557C201.504 316.861 202.397 316.351 203.371 316.07L206.221 315.23Z" fill="black"/>
<path d="M198.589 352.32C198.824 352.711 199.095 353.08 199.399 353.42C200.127 354.092 200.565 355.021 200.619 356.01C200.829 357.2 201.739 357.48 201.389 358.09C201.039 358.7 199.039 357.48 198.779 356.2C198.62 357.098 198.681 358.021 198.959 358.89C199.429 359.98 200.059 361.7 199.779 362.36C199.499 363.02 195.779 362.87 194.549 360.36C193.319 357.85 194.289 352.87 194.289 352.87L198.589 352.32Z" fill="#FFA8A7"/>
<path d="M222.139 294.8C222.139 294.8 223.449 296.14 223.449 299.67C223.449 303.2 220.529 306.25 220.529 306.25V295L222.139 294.8Z" fill="#263238"/>
<path d="M222.14 295.72C222.705 295.389 223.181 294.928 223.529 294.374C223.877 293.821 224.087 293.192 224.14 292.54C224.32 290.29 223 291.1 222.55 291.29C222.1 291.48 220.73 291.98 220.73 291.98C220.73 291.98 221.98 290.68 221.24 289.81C220.69 289.17 218.02 291.19 214.66 291.59C211.3 291.99 208.06 291.96 207.11 294.97C207.11 294.97 203.86 295.62 204.64 301.32C205.42 307.02 207.64 310.32 208.64 310.26L222.14 295.72Z" fill="#263238"/>
<path d="M208.66 314.53L211.6 316.39C212.249 316.803 212.998 317.031 213.768 317.047C214.537 317.062 215.295 316.866 215.96 316.48C216.22 316.33 216.438 316.117 216.593 315.859C216.748 315.602 216.836 315.31 216.847 315.01C216.858 314.71 216.792 314.412 216.656 314.144C216.52 313.877 216.319 313.648 216.07 313.48L215.68 313.23V305.12H208.68L208.66 314.53Z" fill="#FFA8A7"/>
<path d="M215.68 313.23C214.158 313.018 212.732 312.358 211.585 311.334C210.439 310.311 209.622 308.969 209.24 307.48V305.12H215.68V313.23Z" fill="#F28F8F"/>
<path d="M217.319 293.61C217.319 293.61 223.999 293.86 222.789 304.61C222.229 309.67 221.789 312.46 217.479 312.46C213.169 312.46 206.769 309.2 207.179 300.52C207.589 291.84 217.319 293.61 217.319 293.61Z" fill="#FFA8A7"/>
<path d="M217.99 302.48V306.25L220.2 305.57L217.99 302.48Z" fill="#F28F8F"/>
<path d="M214.77 303.13C214.77 303.283 214.815 303.432 214.9 303.559C214.985 303.686 215.106 303.784 215.247 303.842C215.389 303.9 215.544 303.915 215.693 303.884C215.843 303.854 215.98 303.779 216.088 303.671C216.195 303.562 216.267 303.424 216.296 303.274C216.325 303.124 216.308 302.969 216.248 302.828C216.188 302.688 216.088 302.568 215.96 302.485C215.832 302.401 215.682 302.358 215.53 302.36C215.327 302.363 215.134 302.445 214.992 302.589C214.849 302.733 214.77 302.927 214.77 303.13Z" fill="#263238"/>
<path d="M219.82 302.59C219.82 302.742 219.865 302.891 219.95 303.018C220.035 303.144 220.155 303.243 220.296 303.301C220.436 303.359 220.591 303.375 220.741 303.345C220.89 303.315 221.027 303.242 221.135 303.134C221.242 303.027 221.316 302.889 221.346 302.74C221.375 302.591 221.36 302.436 221.302 302.295C221.243 302.154 221.145 302.034 221.018 301.95C220.891 301.865 220.743 301.82 220.59 301.82C220.386 301.82 220.19 301.901 220.046 302.045C219.901 302.19 219.82 302.386 219.82 302.59Z" fill="#263238"/>
<path d="M221.53 301L220 300.1C220 300.1 220.58 299.5 221.16 299.86C221.331 299.989 221.457 300.168 221.524 300.372C221.59 300.575 221.592 300.795 221.53 301Z" fill="#263238"/>
<path d="M215.13 300.73L213.78 301.84C213.78 301.84 213.41 301.09 213.95 300.67C214.127 300.553 214.338 300.496 214.55 300.507C214.762 300.518 214.965 300.596 215.13 300.73Z" fill="#263238"/>
<path d="M217.64 308C217.64 308 214.9 307.3 215.57 307.45C215.57 307.45 215.43 308.54 216.34 308.75C216.61 308.795 216.888 308.745 217.125 308.608C217.362 308.471 217.544 308.256 217.64 308Z" fill="#F28F8F"/>
<path d="M222.139 295.72C222.139 295.72 220.009 297.72 214.539 297.31C209.069 296.9 209.539 298.41 210.149 300.97C210.559 302.73 210.599 307.41 209.239 305.12H206.529V299.71C206.529 298.802 206.708 297.904 207.055 297.065C207.403 296.227 207.912 295.465 208.553 294.824C209.195 294.182 209.957 293.673 210.795 293.326C211.633 292.979 212.532 292.8 213.439 292.8H218.999L222.139 295.72Z" fill="#263238"/>
<path d="M209.299 304.84C209.299 304.84 209.029 302.25 207.229 302.2C206.912 302.2 206.598 302.268 206.309 302.399C206.02 302.53 205.763 302.721 205.553 302.959C205.344 303.198 205.188 303.478 205.096 303.782C205.004 304.085 204.978 304.405 205.019 304.72C205.091 305.767 205.567 306.746 206.347 307.45C207.127 308.153 208.149 308.526 209.199 308.49L209.299 304.84Z" fill="#FFA8A7"/>
<path d="M207.141 295C207.141 295 205.761 293.16 206.651 292.4C207.541 291.64 207.951 294.79 207.951 294.79L207.141 295Z" fill="#263238"/>
<path d="M207.261 295.58C207.261 295.58 204.961 295.58 204.911 294.38C204.861 293.18 207.591 294.81 207.591 294.81L207.261 295.58Z" fill="#263238"/>
</svg>
