<svg width="39" height="32" viewBox="0 0 39 32" fill="none" xmlns="http://www.w3.org/2000/svg">
<path d="M9.54779 32C6.46465 32 4.10257 30.8563 2.46154 28.5688C0.820514 26.2315 7.12968e-07 23.0241 0 18.9464C-7.30357e-07 14.7692 1.14374 11.0894 3.43123 7.90676C5.71872 4.72417 9.22455 2.08858 13.9487 3.65179e-06L17.1562 6.6387C14.2719 7.83217 12.1088 9.29915 10.6667 11.0396C9.27428 12.7801 8.57809 14.8936 8.57809 17.38L8.65268 24.9883L4.10256 18.4988C4.79876 17.9518 5.69386 17.4794 6.78788 17.0816C7.93162 16.634 8.97591 16.4103 9.92074 16.4103C12.1088 16.4103 13.8741 17.0816 15.2168 18.4242C16.6092 19.7669 17.3054 21.5571 17.3054 23.7949C17.3054 26.2813 16.5594 28.2704 15.0676 29.7622C13.6255 31.2541 11.7855 32 9.54779 32ZM30.4336 32C27.3504 32 24.9883 30.8563 23.3473 28.5688C21.7063 26.2315 20.8858 23.0241 20.8858 18.9464C20.8858 14.7692 22.0295 11.0894 24.317 7.90676C26.6045 4.72416 30.1103 2.08858 34.8345 0L38.042 6.63869C35.1577 7.83217 32.9946 9.29914 31.5524 11.0396C30.1601 12.7801 29.4639 14.8936 29.4639 17.38L29.5385 24.9883L24.9883 18.4988C25.6845 17.9518 26.5796 17.4794 27.6737 17.0816C28.8174 16.634 29.8617 16.4103 30.8065 16.4103C32.9946 16.4103 34.7599 17.0816 36.1026 18.4242C37.4949 19.7669 38.1911 21.5571 38.1911 23.7949C38.1911 26.2813 37.4452 28.2704 35.9534 29.7622C34.5113 31.2541 32.6713 32 30.4336 32Z" fill="#2D76E0" fill-opacity="0.5"/>
</svg>
