<?xml version="1.0" encoding="UTF-8"?>
<svg id="Layer_1" data-name="Layer 1" xmlns="http://www.w3.org/2000/svg" viewBox="0 0 2235 600">
  <defs>
    <style>
      .cls-1 {
        fill: #2d76e0;
      }
    </style>
  </defs>
  <g>
    <path class="cls-1" d="m697.39,155.81h101.33c15.01,0,28.99,2.06,41.95,6.17,12.95,4.12,24.15,9.75,33.6,16.89,9.44,7.15,16.89,15.5,22.34,25.06,5.45,9.57,8.17,19.92,8.17,31.05,0,15.25-4.36,28.51-13.07,39.77-8.72,11.26-23.13,21.97-43.22,32.14l54.48,138.74h-66.83l-52.66-129.66-23.61,1.09v128.57h-62.47V155.81Zm64.29,138.38h3.63c1.21,0,2.42.12,3.63.36,2.42.24,4.54.36,6.36.36h4.54c17.92,0,32.2-5.39,42.86-16.16,10.65-10.77,15.98-25.36,15.98-43.76,0-8.23-1.27-15.92-3.81-23.06-2.54-7.14-6.12-13.32-10.71-18.52-4.6-5.2-10.11-9.26-16.53-12.17-6.42-2.91-13.38-4.36-20.88-4.36h-25.06v117.31Z"/>
    <path class="cls-1" d="m994.48,378.81c1.21,16.95,5.87,29.96,13.98,39.04,8.11,9.08,18.94,13.62,32.51,13.62s24.33-3.14,33.78-9.44c9.44-6.29,17.92-16.71,25.42-31.23l4.72-.36-2.18,40.68c-9.2,6.54-19.67,11.32-31.42,14.35-11.75,3.03-25.85,4.54-42.31,4.54-15.01,0-28.75-2.61-41.22-7.81-12.47-5.2-23.12-12.65-31.96-22.34-8.84-9.68-15.68-21.18-20.52-34.5-4.85-13.31-7.26-28.21-7.26-44.67,0-13.31,2.42-25.79,7.26-37.41,4.84-11.62,11.5-21.73,19.98-30.33,8.47-8.59,18.4-15.31,29.78-20.16,11.38-4.84,23.73-7.26,37.05-7.26,24.21,0,42.86,5.76,55.93,17.25,13.07,11.5,21.67,29.73,25.79,54.66l-109.32,61.38Zm54.12-57.02c0-21.55-1.94-36.68-5.81-45.4-3.87-8.72-10.78-13.07-20.7-13.07s-17.49,4.78-22.7,14.35c-5.21,9.57-7.81,23.67-7.81,42.31,0,3.39.06,7.81.18,13.26.12,5.45.3,11.81.55,19.07l56.29-30.51Z"/>
    <path class="cls-1" d="m998.7,378.81c1.21,16.95,5.87,29.96,13.98,39.04,8.11,9.08,18.94,13.62,32.51,13.62s24.33-3.14,33.78-9.44c9.44-6.29,17.92-16.71,25.42-31.23l4.72-.36-2.18,40.68c-9.2,6.54-19.67,11.32-31.42,14.35-11.75,3.03-25.85,4.54-42.31,4.54-15.01,0-28.75-2.61-41.22-7.81-12.47-5.2-23.12-12.65-31.96-22.34-8.84-9.68-15.68-21.18-20.52-34.5-4.85-13.31-7.26-28.21-7.26-44.67,0-13.31,2.42-25.79,7.26-37.41,4.84-11.62,11.5-21.73,19.98-30.33,8.47-8.59,18.4-15.31,29.78-20.16,11.38-4.84,23.73-7.26,37.05-7.26,24.21,0,42.86,5.76,55.93,17.25,13.07,11.5,21.67,29.73,25.79,54.66l-109.32,61.38Zm54.12-57.02c0-21.55-1.94-36.68-5.81-45.4-3.87-8.72-10.78-13.07-20.7-13.07s-17.49,4.78-22.7,14.35c-5.21,9.57-7.81,23.67-7.81,42.31,0,3.39.06,7.81.18,13.26.12,5.45.3,11.81.55,19.07l56.29-30.51Z"/>
    <path class="cls-1" d="m994.48,378.81c1.21,16.95,5.87,29.96,13.98,39.04,8.11,9.08,18.94,13.62,32.51,13.62s24.33-3.14,33.78-9.44c9.44-6.29,17.92-16.71,25.42-31.23l4.72-.36-2.18,40.68c-9.2,6.54-19.67,11.32-31.42,14.35-11.75,3.03-25.85,4.54-42.31,4.54-15.01,0-28.75-2.61-41.22-7.81-12.47-5.2-23.12-12.65-31.96-22.34-8.84-9.68-15.68-21.18-20.52-34.5-4.85-13.31-7.26-28.21-7.26-44.67,0-13.31,2.42-25.79,7.26-37.41,4.84-11.62,11.5-21.73,19.98-30.33,8.47-8.59,18.4-15.31,29.78-20.16,11.38-4.84,23.73-7.26,37.05-7.26,24.21,0,42.86,5.76,55.93,17.25,13.07,11.5,21.67,29.73,25.79,54.66l-109.32,61.38Zm54.12-57.02c0-21.55-1.94-36.68-5.81-45.4-3.87-8.72-10.78-13.07-20.7-13.07s-17.49,4.78-22.7,14.35c-5.21,9.57-7.81,23.67-7.81,42.31,0,3.39.06,7.81.18,13.26.12,5.45.3,11.81.55,19.07l56.29-30.51Z"/>
    <path class="cls-1" d="m1158.6,260.05c7.26-2.91,13.56-5.27,18.88-7.08,5.32-1.82,10.41-3.21,15.26-4.18,4.84-.97,9.74-1.64,14.71-2,4.96-.36,10.71-.54,17.25-.54,33.41,0,56.9,7.14,70.46,21.43,4.84,4.6,8.23,10.35,10.17,17.25,1.94,6.9,2.91,16.53,2.91,28.88v87.17c0,7.99.66,15.62,2,22.88,1.33,7.26,3.57,14.53,6.72,21.79h-56.66l-6.17-16.34c-6.3,5.57-14.16,10.41-23.61,14.53-9.44,4.12-19.86,6.18-31.23,6.18-8.96,0-17.25-1.7-24.88-5.09-7.63-3.39-14.29-8.05-19.98-13.98-5.69-5.93-10.11-12.89-13.26-20.89-3.15-7.99-4.72-16.71-4.72-26.15s1.81-18.46,5.45-26.33c3.63-7.86,8.65-14.65,15.07-20.34,6.41-5.69,14.1-10.11,23.06-13.26,8.96-3.14,18.89-4.72,29.78-4.72s19.12,1.7,25.42,5.09c6.29,3.39,11.5,6.78,15.62,10.17v-37.05c0-12.35-2.67-20.89-7.99-25.61-5.33-4.72-14.16-7.08-26.51-7.08-5.09,0-9.62.49-13.62,1.45-3.99.97-7.99,2.6-11.98,4.9-3.99,2.31-8.35,5.51-13.08,9.63-4.72,4.12-10.35,9.44-16.89,15.98l-5.08.73,2.91-37.41Zm91.52,92.25c-3.42-3.39-7.62-6.11-12.62-8.17-4.99-2.05-10.05-3.09-15.17-3.09-8.53,0-15.41,3.7-20.65,11.08-5.24,7.39-7.86,17.61-7.86,30.69s2.74,22.94,8.22,30.33c5.48,7.39,12.98,11.08,22.48,11.08,4.63,0,8.77-1.09,12.43-3.27,3.65-2.18,8.04-6.41,13.16-12.71v-55.93Z"/>
    <path class="cls-1" d="m1355.45,179.42l55.53-27.6h5.85v293.83h-61.38V179.42Z"/>
    <path class="cls-1" d="m1481.47,154.72h64.29v262.59h108.59v28.33h-172.88V154.72Z"/>
    <path class="cls-1" d="m1721.54,150c9.68,0,17.61,2.79,23.79,8.35,6.17,5.57,9.26,12.71,9.26,21.43,0,19.13-12.35,28.69-37.05,28.69-9.69,0-17.49-2.6-23.43-7.81-5.94-5.2-8.9-12.17-8.9-20.89s3.03-15.67,9.08-20.88c6.05-5.2,14.28-8.17,24.7-8.9h2.54Zm-32.33,122.03l54.12-25.79h5.09v199.39h-59.2v-173.61Z"/>
    <path class="cls-1" d="m1792,384.99h2.91c1.45,1.94,3.33,4.42,5.63,7.44,2.3,3.03,4.6,5.94,6.9,8.72,2.3,2.79,5.14,6.36,8.54,10.71,6.05,5.57,14.1,10.23,24.15,13.98,10.04,3.76,19.67,5.63,28.87,5.63s16.95-2.66,23.24-7.99c6.29-5.32,9.44-11.86,9.44-19.61,0-6.29-2.36-11.68-7.08-16.16-4.72-4.48-12.89-8.77-24.51-12.89-13.56-5.09-25.06-10.29-34.51-15.62-9.44-5.32-17.19-10.83-23.24-16.53-6.05-5.69-10.48-11.74-13.26-18.16-2.79-6.41-4.18-13.49-4.18-21.25,0-8.47,1.93-16.34,5.81-23.61,3.87-7.26,9.26-13.5,16.16-18.71,6.9-5.2,14.95-9.32,24.15-12.35,9.2-3.03,19.25-4.54,30.15-4.54,4.6,0,9.02.18,13.26.54,4.23.36,8.72,1.03,13.44,2,4.72.97,9.93,2.36,15.62,4.18,5.69,1.82,12.29,4.06,19.79,6.72v42.86l-4,.73c-9.93-14.28-19.43-24.33-28.51-30.15-9.08-5.81-19.67-8.72-31.78-8.72-8.96,0-16.11,2.12-21.43,6.36-5.33,4.24-7.99,9.87-7.99,16.89,0,5.33,1.57,9.62,4.72,12.89,3.14,3.27,8.23,6.48,15.26,9.62l31.6,11.99c18.89,7.26,32.74,15.92,41.59,25.97,8.83,10.05,13.26,22.1,13.26,36.14,0,9.93-1.94,19.07-5.81,27.42-3.87,8.35-9.39,15.56-16.53,21.61-7.14,6.05-15.56,10.71-25.24,13.98-9.69,3.27-20.34,4.9-31.96,4.9-15.02,0-28.21-1.7-39.59-5.09-11.38-3.39-23-7.63-34.87-12.71v-47.21Z"/>
    <path class="cls-1" d="m2046.24,179.06v70.1h35.23v23.24h-33.41v153.27c.73.73,1.93,1.27,3.63,1.64,1.69.36,3.39.54,5.09.54,1.94,0,3.03-.12,3.27-.36,2.18-.48,4.3-1.51,6.36-3.09,2.06-1.57,3.93-3.33,5.63-5.27,1.69-1.94,3.09-3.87,4.18-5.81,1.09-1.94,1.63-3.63,1.63-5.09h6.9v37.41c-.97,0-5.21.73-12.71,2.18-7.51,1.45-16.22,2.18-26.15,2.18-7.26,0-14.29-1.52-21.06-4.54-6.78-3.03-12.77-7.08-17.98-12.17-5.21-5.09-9.38-10.95-12.53-17.62-3.15-6.66-4.72-13.62-4.72-20.88v-189.95l56.66-25.79Z"/>
  </g>
  <g>
    <circle class="cls-1" cx="346.29" cy="351.93" r="98.07"/>
    <polygon class="cls-1" points="546.92 256.12 349.09 150.27 348.61 150 348.09 150.27 150.27 256.12 168.47 290.15 348.59 193.77 528.71 290.15 546.92 256.12"/>
  </g>
</svg>