<svg width="294" height="51" viewBox="0 0 294 51" fill="none" xmlns="http://www.w3.org/2000/svg">
<circle cx="25.818" cy="27.0759" r="6.38445" fill="#2D76E0"/>
<path d="M13.7598 22.0598L12.5117 19.3927L25.3476 11.2734H26.2804L39.0768 19.3927L37.8681 22.0598L25.8074 14.4791L13.7598 22.0598Z" fill="#2D76E0"/>
<path d="M38.0191 23.3945H34.485V35.7049H38.0454L38.0191 23.3945Z" fill="#2D76E0"/>
<path d="M17.1034 23.3945H13.543L13.5561 35.6917H17.1034V23.3945Z" fill="#2D76E0"/>
<path d="M13.6367 40.6389V37.0391H37.9552V40.6389H13.6367Z" fill="#2D76E0"/>
<path d="M51.5859 11.832H61.5118C62.9821 11.832 64.3515 12.0338 65.621 12.4364C66.8895 12.84 67.9866 13.3915 68.9123 14.0909C69.837 14.7913 70.5668 15.6092 71.1006 16.5456C71.6345 17.4831 71.9009 18.4969 71.9009 19.5872C71.9009 21.081 71.4738 22.3799 70.6206 23.4829C69.7665 24.5858 68.3549 25.6349 66.387 26.6311L71.7236 40.2215H65.1773L60.0189 27.5206L57.7062 27.6273V40.2215H51.5869V11.832H51.5859ZM57.8835 25.3871H58.2391C58.3576 25.3871 58.4761 25.3989 58.5946 25.4224C58.8317 25.4459 59.0394 25.4576 59.2176 25.4576H59.6624C61.4177 25.4576 62.8165 24.9297 63.8607 23.8747C64.904 22.8197 65.4261 21.3905 65.4261 19.5881C65.4261 18.782 65.3017 18.0287 65.0529 17.3293C64.804 16.6299 64.4534 16.0245 64.0037 15.5152C63.5532 15.0058 63.0134 14.6081 62.3845 14.323C61.7557 14.038 61.0739 13.896 60.3392 13.896H57.8845V25.3871H57.8835Z" fill="#2D76E0"/>
<path d="M80.682 33.6766C80.8005 35.3369 81.257 36.6113 82.0514 37.5008C82.8458 38.3902 83.9067 38.8349 85.2359 38.8349C86.5652 38.8349 87.6192 38.5273 88.5449 37.9102C89.4696 37.2941 90.3002 36.2734 91.0349 34.8511L91.4973 34.8158L91.2837 38.8006C90.3825 39.4413 89.3569 39.9095 88.206 40.2063C87.055 40.5031 85.6738 40.651 84.0615 40.651C82.5911 40.651 81.2452 40.3954 80.0237 39.886C78.8022 39.3766 77.759 38.6469 76.8931 37.6977C76.0271 36.7495 75.3571 35.623 74.883 34.3182C74.4079 33.0144 74.1719 31.5549 74.1719 29.9425C74.1719 28.6387 74.4089 27.4163 74.883 26.278C75.3571 25.1398 76.0095 24.1495 76.8402 23.307C77.6699 22.4656 78.6426 21.8073 79.7573 21.3322C80.872 20.8581 82.0818 20.6211 83.3865 20.6211C85.758 20.6211 87.5849 21.1853 88.8652 22.3108C90.1455 23.4373 90.9879 25.223 91.3915 27.6651L80.683 33.6776L80.682 33.6766ZM85.9833 28.0912C85.9833 25.9802 85.7933 24.4982 85.4142 23.644C85.0351 22.7898 84.3583 22.3637 83.3865 22.3637C82.4148 22.3637 81.6733 22.8319 81.163 23.7694C80.6526 24.7068 80.3979 26.088 80.3979 27.9139C80.3979 28.2459 80.4038 28.6789 80.4156 29.2128C80.4273 29.7466 80.4449 30.3696 80.4694 31.0808L85.9833 28.0922V28.0912Z" fill="#2D76E0"/>
<path d="M81.1039 33.6766C81.2224 35.3369 81.6789 36.6113 82.4733 37.5008C83.2677 38.3902 84.3286 38.8349 85.6578 38.8349C86.9871 38.8349 88.0411 38.5273 88.9668 37.9102C89.8915 37.2941 90.7221 36.2734 91.4568 34.8511L91.9191 34.8158L91.7056 38.8006C90.8044 39.4413 89.7788 39.9095 88.6278 40.2063C87.4769 40.5031 86.0957 40.651 84.4833 40.651C83.013 40.651 81.6671 40.3954 80.4456 39.886C79.2241 39.3766 78.1809 38.6469 77.315 37.6977C76.449 36.7495 75.779 35.623 75.3049 34.3182C74.8298 33.0144 74.5938 31.5549 74.5938 29.9425C74.5938 28.6387 74.8308 27.4163 75.3049 26.278C75.779 25.1398 76.4314 24.1495 77.2621 23.307C78.0917 22.4656 79.0644 21.8073 80.1792 21.3322C81.2939 20.8581 82.5037 20.6211 83.8084 20.6211C86.1799 20.6211 88.0068 21.1853 89.2871 22.3108C90.5673 23.4373 91.4098 25.223 91.8133 27.6651L81.1049 33.6776L81.1039 33.6766ZM86.4052 28.0912C86.4052 25.9802 86.2152 24.4982 85.8361 23.644C85.457 22.7898 84.7801 22.3637 83.8084 22.3637C82.8367 22.3637 82.0952 22.8319 81.5848 23.7694C81.0745 24.7068 80.8198 26.088 80.8198 27.9139C80.8198 28.2459 80.8257 28.6789 80.8374 29.2128C80.8492 29.7466 80.8668 30.3696 80.8913 31.0808L86.4052 28.0922V28.0912Z" fill="#2D76E0"/>
<path d="M80.682 33.6766C80.8005 35.3369 81.257 36.6113 82.0514 37.5008C82.8458 38.3902 83.9067 38.8349 85.2359 38.8349C86.5652 38.8349 87.6192 38.5273 88.5449 37.9102C89.4696 37.2941 90.3002 36.2734 91.0349 34.8511L91.4973 34.8158L91.2837 38.8006C90.3825 39.4413 89.3569 39.9095 88.206 40.2063C87.055 40.5031 85.6738 40.651 84.0615 40.651C82.5911 40.651 81.2452 40.3954 80.0237 39.886C78.8022 39.3766 77.759 38.6469 76.8931 37.6977C76.0271 36.7495 75.3571 35.623 74.883 34.3182C74.4079 33.0144 74.1719 31.5549 74.1719 29.9425C74.1719 28.6387 74.4089 27.4163 74.883 26.278C75.3571 25.1398 76.0095 24.1495 76.8402 23.307C77.6699 22.4656 78.6426 21.8073 79.7573 21.3322C80.872 20.8581 82.0818 20.6211 83.3865 20.6211C85.758 20.6211 87.5849 21.1853 88.8652 22.3108C90.1455 23.4373 90.9879 25.223 91.3915 27.6651L80.683 33.6776L80.682 33.6766ZM85.9833 28.0912C85.9833 25.9802 85.7933 24.4982 85.4142 23.644C85.0351 22.7898 84.3583 22.3637 83.3865 22.3637C82.4148 22.3637 81.6733 22.8319 81.163 23.7694C80.6526 24.7068 80.3979 26.088 80.3979 27.9139C80.3979 28.2459 80.4038 28.6789 80.4156 29.2128C80.4273 29.7466 80.4449 30.3696 80.4694 31.0808L85.9833 28.0922V28.0912Z" fill="#2D76E0"/>
<path d="M96.7635 22.0432C97.4746 21.7581 98.0917 21.527 98.6129 21.3497C99.134 21.1714 99.6326 21.0352 100.108 20.9402C100.582 20.8452 101.062 20.7796 101.549 20.7443C102.034 20.709 102.598 20.6914 103.238 20.6914C106.511 20.6914 108.812 21.3908 110.14 22.7906C110.614 23.2412 110.946 23.8044 111.136 24.4803C111.327 25.1562 111.422 26.0995 111.422 27.3093V35.8481C111.422 36.6307 111.486 37.3781 111.617 38.0893C111.748 38.8004 111.967 39.5126 112.276 40.2237H106.726L106.121 38.6231C105.504 39.1687 104.734 39.6428 103.808 40.0464C102.884 40.45 101.863 40.6518 100.749 40.6518C99.8716 40.6518 99.0595 40.4853 98.3121 40.1532C97.5647 39.8211 96.9124 39.3647 96.355 38.7838C95.7976 38.2029 95.3647 37.5211 95.0561 36.7375C94.7475 35.9548 94.5938 35.1007 94.5938 34.176C94.5938 33.2513 94.7711 32.3677 95.1276 31.5968C95.4832 30.8269 95.9749 30.1617 96.6038 29.6044C97.2317 29.047 97.985 28.614 98.8627 28.3055C99.7403 27.9979 100.713 27.8431 101.78 27.8431C102.847 27.8431 103.653 28.0097 104.27 28.3417C104.886 28.6738 105.396 29.0059 105.8 29.3379V25.7087C105.8 24.4989 105.538 23.6624 105.017 23.2C104.495 22.7377 103.63 22.5065 102.42 22.5065C101.922 22.5065 101.478 22.5545 101.086 22.6486C100.695 22.7436 100.304 22.9032 99.9127 23.1285C99.5219 23.3548 99.0948 23.6683 98.6315 24.0719C98.1691 24.4754 97.6176 24.9965 96.977 25.6372L96.4794 25.7087L96.7644 22.0442L96.7635 22.0432ZM105.728 31.0796C105.393 30.7475 104.982 30.4811 104.492 30.2793C104.003 30.0785 103.508 29.9766 103.006 29.9766C102.171 29.9766 101.497 30.339 100.983 31.0619C100.47 31.7858 100.213 32.7869 100.213 34.0682C100.213 35.3495 100.482 36.3153 101.019 37.0392C101.555 37.7631 102.29 38.1245 103.221 38.1245C103.674 38.1245 104.08 38.0178 104.438 37.8042C104.796 37.5907 105.226 37.1763 105.727 36.5592V31.0806L105.728 31.0796Z" fill="#2D76E0"/>
<path d="M116.047 14.145L121.486 11.4414H122.059V40.2237H116.047V14.145Z" fill="#2D76E0"/>
<path d="M128.391 11.7266H134.688V37.4487H145.325V40.2238H128.391V11.7266Z" fill="#2D76E0"/>
<path d="M151.91 11.2627C152.859 11.2627 153.635 11.536 154.241 12.0806C154.845 12.6262 155.148 13.3256 155.148 14.1798C155.148 16.0537 153.938 16.9902 151.518 16.9902C150.569 16.9902 149.805 16.7355 149.223 16.2251C148.642 15.7158 148.352 15.033 148.352 14.1788C148.352 13.3247 148.648 12.6439 149.241 12.1335C149.834 11.6242 150.64 11.3332 151.661 11.2617H151.909L151.91 11.2627ZM148.743 23.2162L154.045 20.6899H154.543V40.2213H148.744V23.2152L148.743 23.2162Z" fill="#2D76E0"/>
<path d="M158.812 34.2824H159.098C159.24 34.4724 159.424 34.7154 159.649 35.0112C159.874 35.308 160.1 35.593 160.325 35.8654C160.55 36.1387 160.828 36.4884 161.161 36.9145C161.754 37.4601 162.543 37.9166 163.527 38.2839C164.511 38.6522 165.454 38.8354 166.355 38.8354C167.256 38.8354 168.015 38.5748 168.632 38.0527C169.248 37.5316 169.556 36.891 169.556 36.1318C169.556 35.5157 169.325 34.9877 168.863 34.5488C168.4 34.11 167.6 33.6898 166.462 33.2862C165.134 32.7876 164.007 32.2782 163.081 31.7561C162.157 31.235 161.398 30.6953 160.805 30.1369C160.212 29.5796 159.778 28.9869 159.506 28.3581C159.233 27.7302 159.097 27.0366 159.097 26.2765C159.097 25.4468 159.286 24.6759 159.666 23.9638C160.045 23.2526 160.573 22.6414 161.249 22.131C161.925 21.6217 162.713 21.2181 163.614 20.9213C164.515 20.6245 165.5 20.4766 166.568 20.4766C167.018 20.4766 167.451 20.4942 167.867 20.5295C168.281 20.5647 168.721 20.6304 169.183 20.7254C169.645 20.8204 170.156 20.9565 170.713 21.1348C171.27 21.3131 171.917 21.5325 172.652 21.7931V25.9915L172.26 26.063C171.287 24.6642 170.357 23.6797 169.467 23.1096C168.578 22.5405 167.54 22.2554 166.354 22.2554C165.476 22.2554 164.776 22.4631 164.255 22.8784C163.733 23.2938 163.472 23.8452 163.472 24.5329C163.472 25.055 163.626 25.4752 163.935 25.7955C164.242 26.1159 164.741 26.4303 165.429 26.7379L168.525 27.9124C170.375 28.6235 171.732 29.4718 172.599 30.4563C173.464 31.4407 173.898 32.6211 173.898 33.9964C173.898 34.9691 173.708 35.8644 173.329 36.6823C172.949 37.5002 172.409 38.2065 171.709 38.7991C171.01 39.3918 170.185 39.8482 169.237 40.1685C168.288 40.4889 167.245 40.6485 166.106 40.6485C164.635 40.6485 163.343 40.482 162.228 40.1499C161.113 39.8179 159.975 39.4025 158.812 38.9049V34.2804V34.2824Z" fill="#2D76E0"/>
<path d="M183.72 14.1104V20.977H187.171V23.2535H183.898V38.2672C183.97 38.3387 184.087 38.3916 184.254 38.4278C184.419 38.4631 184.586 38.4807 184.753 38.4807C184.943 38.4807 185.049 38.4689 185.073 38.4454C185.286 38.3984 185.494 38.2975 185.696 38.1427C185.898 37.989 186.081 37.8166 186.247 37.6265C186.413 37.4365 186.55 37.2474 186.657 37.0574C186.764 36.8674 186.816 36.7018 186.816 36.5588H187.492V40.2233C187.397 40.2233 186.982 40.2948 186.247 40.4369C185.512 40.5789 184.658 40.6504 183.686 40.6504C182.975 40.6504 182.286 40.5015 181.623 40.2057C180.959 39.9089 180.372 39.5122 179.862 39.0136C179.351 38.515 178.943 37.941 178.634 37.2876C178.326 36.6352 178.172 35.9534 178.172 35.2423V16.6356L183.722 14.1094L183.72 14.1104Z" fill="#2D76E0"/>
</svg>
