<svg xmlns="http://www.w3.org/2000/svg" width="100" height="100" enable-background="new 0 0 100 100" version="1" viewBox="0 0 100 100"><path fill="#FFC00E" d="M83.334,10H70c-3.665,0-6.666,3.001-6.666,6.667v13.333c0,3.666,3.001,6.667,6.666,6.667h1.667V70H75l6.666-5v-3.333h-3.332v-3.333h3.332v-5.002h-5v-3.333h5v-5h-5v-2.5l5-2.5v-3.333h1.668c3.664,0,6.666-3.001,6.666-6.667V16.667C90,13.001,86.998,10,83.334,10z"/><polygon fill="#BDBCBC" points="10 29.999 10 83.334 16.667 83.334 16.667 76.666 29.999 76.666 29.999 83.334 36.666 83.334 36.666 76.666 49.999 76.666 49.999 83.334 56.667 83.334 56.667 29.999 49.999 29.999 49.999 16.667 16.667 16.667 16.667 29.999"/><polygon fill="#F68E1E" points="71.667 40.666 80.333 40.666 81.666 39.999 81.666 36.666 71.667 36.666"/><rect width="13.334" height="6.667" x="70" y="16.667" fill="#FFF8E1"/><rect width="4" height="6.667" x="70" y="16.667" fill="#FFEBB2"/><rect width="6.667" height="3.2" x="10" y="80.134" fill="#9D9D9D"/><rect width="6.668" height="3.2" x="49.999" y="80.134" fill="#9D9D9D"/><rect width="6.667" height="3.2" x="29.999" y="80.134" fill="#9D9D9D"/><rect width="80" height="6.666" x="10" y="83.334" fill="#455A64"/><rect width="13.333" height="6.666" x="16.667" y="63.334" fill="#F4F5F5"/><rect width="13.333" height="6.666" x="36.666" y="63.334" fill="#F4F5F5"/><rect width="13.333" height="6.667" x="16.667" y="76.667" fill="#F4F5F5"/><rect width="13.333" height="6.667" x="36.666" y="76.667" fill="#F4F5F5"/><rect width="6.667" height="6.666" x="36.666" y="23.333" fill="#F4F5F5"/><rect width="13.333" height="6.667" x="36.666" y="36.666" fill="#F4F5F5"/><rect width="13.333" height="6.668" x="36.666" y="49.999" fill="#F4F5F5"/><rect width="13.333" height="6.668" x="16.667" y="49.999" fill="#F4F5F5"/><rect width="6.666" height="6.666" x="23.333" y="23.333" fill="#F4F5F5"/><rect width="6.667" height="3.2" x="36.666" y="26.799" fill="#E0E0E0"/><rect width="6.667" height="3.2" x="29.999" y="26.799" fill="#9D9D9D"/><rect width="6.667" height="3.2" x="43.332" y="26.799" fill="#9D9D9D"/><rect width="6.666" height="3.2" x="23.333" y="26.799" fill="#E0E0E0"/><rect width="6.667" height="3.2" x="16.667" y="26.799" fill="#9D9D9D"/><rect width="13.333" height="6.667" x="16.667" y="36.666" fill="#F4F5F5"/><rect width="13.333" height="3.2" x="16.667" y="80.134" fill="#E0E0E0"/><rect width="13.333" height="3.2" x="36.666" y="80.134" fill="#E0E0E0"/><rect width="13.333" height="3.2" x="16.667" y="66.8" fill="#E0E0E0"/><rect width="13.333" height="3.2" x="36.666" y="66.8" fill="#E0E0E0"/><rect width="13.333" height="3.2" x="16.667" y="53.467" fill="#E0E0E0"/><rect width="13.333" height="3.2" x="36.666" y="53.467" fill="#E0E0E0"/><rect width="13.333" height="3.2" x="16.667" y="40.132" fill="#E0E0E0"/><rect width="13.333" height="3.2" x="36.666" y="40.132" fill="#E0E0E0"/></svg>