<svg xmlns="http://www.w3.org/2000/svg" enable-background="new 0 0 512 512" viewBox="0 0 512 512" id="renting-out-own-place"><path fill="#2f0c7a" d="M100.653 452.462c-.594 0-1.192-.203-1.679-.619-7.248-6.183-14.215-12.852-20.711-19.822-.975-1.046-.917-2.684.129-3.659 1.047-.975 2.685-.917 3.659.129 6.361 6.826 13.185 13.357 20.283 19.413 1.088.928 1.217 2.562.289 3.65C102.111 452.154 101.384 452.462 100.653 452.462zM62.035 411.017c-.794 0-1.578-.364-2.086-1.052-5.661-7.672-10.933-15.749-15.671-24.007-.711-1.241-.283-2.823.957-3.534 1.241-.712 2.823-.283 3.534.957 4.639 8.086 9.802 15.996 15.346 23.509.849 1.151.605 2.772-.546 3.621C63.107 410.852 62.568 411.017 62.035 411.017zM33.85 361.879c-1.004 0-1.96-.587-2.381-1.569-3.759-8.758-7.043-17.827-9.763-26.955-.408-1.371.372-2.812 1.742-3.221 1.371-.408 2.812.372 3.221 1.742 2.663 8.937 5.879 17.817 9.559 26.392.564 1.314-.044 2.837-1.358 3.401C34.537 361.811 34.19 361.879 33.85 361.879zM414.252 457.897c-.762 0-1.517-.335-2.028-.978-.89-1.119-.704-2.748.415-3.638 7.3-5.805 14.344-12.098 20.938-18.702 1.01-1.012 2.65-1.014 3.662-.003 1.012 1.01 1.014 2.65.003 3.662-6.732 6.743-13.925 13.168-21.379 19.096C415.386 457.713 414.817 457.897 414.252 457.897zM454.273 417.807c-.564 0-1.131-.183-1.607-.56-1.121-.888-1.309-2.517-.421-3.637 5.8-7.317 11.233-15.044 16.15-22.965.754-1.215 2.35-1.589 3.566-.834 1.215.754 1.589 2.35.834 3.566-5.021 8.089-10.57 15.979-16.492 23.451C455.793 417.471 455.036 417.807 454.273 417.807zM484.145 369.671c-.369 0-.745-.08-1.102-.247-1.293-.609-1.848-2.152-1.239-3.446 3.978-8.446 7.502-17.209 10.474-26.047.456-1.355 1.923-2.084 3.28-1.629 1.355.456 2.085 1.924 1.629 3.279-3.036 9.026-6.635 17.977-10.698 26.603C486.047 369.122 485.116 369.671 484.145 369.671zM502.206 315.974c-.177 0-.358-.018-.539-.057-1.399-.296-2.293-1.67-1.997-3.069 1.928-9.111 3.348-18.45 4.219-27.757.133-1.424 1.396-2.471 2.819-2.337 1.424.133 2.47 1.395 2.337 2.819-.89 9.505-2.34 19.042-4.309 28.347C504.479 315.139 503.404 315.974 502.206 315.974zM363.136 39.998c-.36 0-.725-.075-1.074-.234-8.49-3.876-17.295-7.295-26.168-10.162-1.361-.44-2.107-1.899-1.668-3.26.44-1.361 1.898-2.107 3.26-1.668 9.063 2.928 18.055 6.42 26.727 10.379 1.301.594 1.874 2.13 1.28 3.431C365.058 39.435 364.118 39.998 363.136 39.998zM169.79 35.127c-1.03 0-2.005-.619-2.408-1.635-.527-1.329.123-2.834 1.452-3.362 8.858-3.514 18.016-6.545 27.219-9.011 1.38-.37 2.801.45 3.171 1.831s-.45 2.801-1.831 3.171c-9.011 2.414-17.977 5.382-26.649 8.822C170.431 35.068 170.108 35.127 169.79 35.127zM309.234 22.584c-.168 0-.338-.016-.509-.05-9.132-1.819-18.487-3.128-27.805-3.889-1.425-.117-2.486-1.367-2.369-2.792.117-1.425 1.364-2.486 2.792-2.37 9.515.778 19.068 2.114 28.395 3.972 1.402.279 2.313 1.643 2.033 3.045C311.526 21.732 310.444 22.584 309.234 22.584zM224.503 20.466c-1.263 0-2.369-.926-2.558-2.212-.208-1.415.77-2.73 2.184-2.939 9.399-1.383 19.006-2.239 28.553-2.542 1.434-.046 2.625 1.076 2.67 2.506.045 1.429-1.076 2.625-2.506 2.67-9.351.297-18.759 1.135-27.963 2.489C224.756 20.457 224.629 20.466 224.503 20.466z"></path><circle cx="260.751" cy="262.036" r="181.206" fill="#b3ffbc"></circle><polygon fill="#fff" points="237.793 256.38 237.793 119.533 134.769 76.022 134.769 166.266 134.769 99.043 62.25 138.001 62.25 178.803 43.41 213.029 43.41 256.38"></polygon><path fill="#2f0c7a" d="M237.793,258.969c-1.43,0-2.589-1.159-2.589-2.589V121.25l-97.846-41.324v86.34
				c0,1.43-1.159,2.589-2.589,2.589s-2.589-1.159-2.589-2.589v-62.893l-67.341,36.176v39.253c0,0.437-0.11,0.866-0.321,1.249
				l-18.52,33.644v42.685c0,1.43-1.159,2.589-2.589,2.589s-2.589-1.159-2.589-2.589v-43.351c0-0.437,0.11-0.866,0.321-1.249
				l18.519-33.644v-40.136c0-0.953,0.524-1.83,1.364-2.281l71.155-38.225V76.022c0-0.868,0.435-1.678,1.158-2.158
				c0.723-0.48,1.638-0.565,2.438-0.227L238.8,117.147c0.959,0.405,1.582,1.344,1.582,2.385V256.38
				C240.382,257.81,239.223,258.969,237.793,258.969z"></path><path fill="#ffe471" d="M2.589,176.203v-15.816c0-22.49,18.266-40.885,40.704-40.885h0.155
				c22.437,0,40.782,18.395,40.782,40.885v15.816c0,18.409-12.428,33.95-29.158,38.99v79.672c0,6.456-5.222,11.691-11.663,11.691
				c-6.44,0-11.662-5.235-11.662-11.691v-7.794H21.055c-4.831,0-8.748-3.925-8.748-8.768c0-4.842,3.917-8.769,8.748-8.769h10.692
				v-11.689H18.14c-3.221,0-5.833-2.619-5.833-5.846c0-3.228,2.612-5.846,5.833-5.846h13.607v-30.937
				C14.978,210.198,2.589,194.642,2.589,176.203z"></path><path fill="#2f0c7a" d="M43.409,309.146c-7.858,0-14.251-6.406-14.251-14.28v-5.204h-8.102
				c-6.251,0-11.337-5.095-11.337-11.358c0-6.263,5.086-11.358,11.337-11.358h8.102v-6.511H18.14c-4.644,0-8.422-3.784-8.422-8.436
				s3.778-8.436,8.422-8.436h11.018v-26.467c-8.004-2.801-15.171-7.998-20.338-14.785C3.05,194.733,0,185.705,0,176.203v-15.816
				c0-23.972,19.421-43.475,43.293-43.475h0.155c11.544,0,22.425,4.535,30.638,12.77c8.211,8.232,12.733,19.137,12.733,30.705
				v15.816c0,9.481-3.055,18.499-8.836,26.079c-5.169,6.778-12.331,11.977-20.322,14.789v77.794
				C57.662,302.74,51.268,309.146,43.409,309.146z M21.055,272.124c-3.396,0-6.159,2.772-6.159,6.18
				c0,3.407,2.763,6.179,6.159,6.179h10.692c1.43,0,2.589,1.159,2.589,2.589v7.794c0,5.019,4.07,9.102,9.073,9.102
				c5.004,0,9.074-4.083,9.074-9.102v-79.672c0-1.142,0.748-2.15,1.842-2.479c16.083-4.845,27.316-19.859,27.316-36.511v-15.816
				c0-21.116-17.133-38.296-38.193-38.296h-0.155c-21.017,0-38.115,17.18-38.115,38.296v15.816c0,16.698,11.231,31.72,27.311,36.53
				c1.096,0.328,1.847,1.336,1.847,2.481v30.938c0,1.43-1.159,2.589-2.589,2.589H18.14c-1.788,0-3.243,1.461-3.243,3.257
				s1.455,3.257,3.243,3.257h13.607c1.43,0,2.589,1.159,2.589,2.589v11.689c0,1.43-1.159,2.589-2.589,2.589L21.055,272.124
				L21.055,272.124z"></path><path fill="#ffe471" d="M247.253,108.725l-9.46-4.057V62.774c0-2.152-1.74-3.897-3.887-3.897h-19.44
				c-2.146,0-3.887,1.745-3.887,3.897v30.223l-74.064-31.762c-4.509-1.935-9.521,1.384-9.521,6.301v0.665
				c0,2.75,1.652,5.234,4.181,6.302l106.537,45.03l0.029,16.516c0.005,3.778,3.062,6.836,6.828,6.836c3.773,0,6.83-3.065,6.83-6.846
				v-21.017C251.4,112.279,249.767,109.802,247.253,108.725z"></path><path fill="#2f0c7a" d="M244.569,145.473c-5.186,0-9.411-4.226-9.418-9.421l-0.027-14.801L130.166,76.888
				c-3.5-1.479-5.762-4.888-5.762-8.687v-0.665c0-3.188,1.587-6.137,4.246-7.889c2.649-1.746,5.971-2.042,8.886-0.791L207.99,89.07
				V62.774c0-3.577,2.905-6.486,6.477-6.486h19.44c3.571,0,6.476,2.91,6.476,6.486v40.187l7.891,3.384
				c3.472,1.488,5.715,4.893,5.715,8.676v21.017C253.989,141.241,249.763,145.473,244.569,145.473z M133.815,63.264
				c-0.807,0-1.604,0.238-2.316,0.707c-1.218,0.803-1.917,2.102-1.917,3.565v0.665c0,1.712,1.02,3.25,2.599,3.917l106.538,45.03
				c0.957,0.404,1.579,1.342,1.581,2.38l0.029,16.516c0.003,2.345,1.905,4.251,4.239,4.251c2.339,0,4.241-1.91,4.241-4.257v-21.017
				c0-1.708-1.011-3.245-2.577-3.916c0,0,0,0,0,0l-9.46-4.057c-0.952-0.408-1.569-1.344-1.569-2.38V62.774
				c0-0.721-0.582-1.308-1.298-1.308h-19.44c-0.716,0-1.298,0.587-1.298,1.308v30.223c0,0.87-0.437,1.683-1.164,2.162
				c-0.727,0.479-1.645,0.561-2.446,0.218l-74.064-31.762C134.947,63.381,134.379,63.264,133.815,63.264z"></path><path fill="#7be6ff" d="M185.309,115.605L185.309,115.605c-10.735,0-19.438,8.704-19.438,19.44v19.53h38.876v-19.53
				C204.748,124.309,196.044,115.605,185.309,115.605z"></path><path fill="#2f0c7a" d="M204.748,157.164h-38.876c-1.43,0-2.589-1.159-2.589-2.589v-19.53
				c0-12.147,9.881-22.029,22.027-22.029s22.027,9.882,22.027,22.029v19.53C207.337,156.005,206.178,157.164,204.748,157.164z
				 M168.461,151.985h33.698v-16.94c0-9.292-7.559-16.851-16.849-16.851c-9.29,0-16.849,7.559-16.849,16.851V151.985z"></path><path fill="#fff" d="M62.848,306.556h180.777c4.295,0,7.774-3.488,7.774-7.793v-68.196c0-4.305-3.48-7.793-7.774-7.793
				H64.792L62.848,306.556z"></path><path fill="#2f0c7a" d="M243.625,309.145H62.848c-1.43,0-2.589-1.159-2.589-2.589c0-1.43,1.159-2.589,2.589-2.589h180.777
				c2.859,0,5.185-2.335,5.185-5.204v-68.196c0-2.87-2.326-5.204-5.185-5.204H64.792c-1.43,0-2.589-1.159-2.589-2.589
				c0-1.43,1.159-2.589,2.589-2.589h178.833c5.715,0,10.364,4.657,10.364,10.382v68.196
				C253.989,304.487,249.339,309.145,243.625,309.145z"></path><path fill="#fff" d="M146.432,170.162c0,5.381,4.352,9.744,9.72,9.744c5.367,0,9.718-4.363,9.718-9.744
				c0-5.38-4.352-9.742-9.718-9.742C150.784,160.42,146.432,164.782,146.432,170.162z"></path><path fill="#2f0c7a" d="M156.153,182.495c-6.787,0-12.309-5.533-12.309-12.333c0-6.799,5.522-12.331,12.309-12.331
				c6.786,0,12.307,5.532,12.307,12.331C168.46,176.963,162.939,182.495,156.153,182.495z M156.153,163.009
				c-3.932,0-7.131,3.209-7.131,7.153c0,3.945,3.199,7.155,7.131,7.155c3.931,0,7.129-3.21,7.129-7.155
				C163.282,166.218,160.084,163.009,156.153,163.009z"></path><path fill="#fff" d="M165.935,170.1l52.545,52.673L165.935,170.1z"></path><path fill="#2f0c7a" d="M218.481,225.362c-0.664,0-1.327-0.254-1.833-0.76l-52.545-52.673
				c-1.01-1.012-1.008-2.652,0.004-3.662c1.012-1.01,2.652-1.008,3.662,0.004l52.545,52.673c1.01,1.012,1.008,2.652-0.004,3.662
				C219.804,225.11,219.142,225.362,218.481,225.362z"></path><path fill="#fff" d="M146.371,170.101l-52.54,52.667L146.371,170.101z"></path><path fill="#2f0c7a" d="M93.831,225.357c-0.662,0-1.323-0.252-1.829-0.756c-1.012-1.01-1.014-2.649-0.004-3.662
				l52.54-52.667c1.01-1.012,2.649-1.014,3.662-0.004c1.012,1.01,1.014,2.649,0.004,3.662l-52.54,52.667
				C95.158,225.103,94.494,225.357,93.831,225.357z"></path><path fill="#fff" d="M29.803,159.345c2.563,4.245,7.229,7.084,12.559,7.084c8.094,0,14.655-6.545,14.655-14.615
				c0-8.07-6.561-14.614-14.655-14.614c-3.109,0-5.993,0.965-8.365,2.615L29.803,159.345z"></path><path fill="#2f0c7a" d="M42.362,169.018c-6.009,0-11.671-3.194-14.776-8.335c-0.739-1.224-0.346-2.816,0.878-3.555
				c1.224-0.739,2.816-0.346,3.555,0.878c2.206,3.653,6.072,5.834,10.343,5.834c6.653,0,12.066-5.395,12.066-12.026
				c0-6.63-5.413-12.024-12.066-12.024c-2.482,0-4.863,0.744-6.886,2.151c-1.174,0.816-2.788,0.527-3.604-0.647
				c-0.817-1.174-0.527-2.787,0.647-3.604c2.895-2.014,6.299-3.079,9.843-3.079c9.508,0,17.244,7.717,17.244,17.203
				C59.606,161.3,51.871,169.018,42.362,169.018z"></path><path fill="#2f0c7a" d="M43.41,155.377c-12.146,0-22.027-9.743-22.027-21.718v-31.885c0-11.976,9.881-21.72,22.027-21.72
			s22.027,9.743,22.027,21.72v13.831c0,1.43-1.159,2.589-2.589,2.589s-2.589-1.159-2.589-2.589v-13.831
			c0-9.121-7.559-16.542-16.849-16.542s-16.849,7.421-16.849,16.542v31.885c0,9.12,7.558,16.54,16.849,16.54
			c1.932,0,3.827-0.318,5.631-0.944c1.351-0.469,2.826,0.246,3.295,1.597c0.469,1.351-0.246,2.826-1.597,3.295
			C48.388,154.963,45.922,155.377,43.41,155.377z"></path><g><path fill="#fff" d="M98.657,268.07H74.592v-20.283h24.066c3.264,0,5.935,2.671,5.935,5.935v8.414
						C104.592,265.399,101.921,268.07,98.657,268.07z"></path><path fill="#2f0c7a" d="M98.657,270.659H74.592c-1.43,0-2.589-1.159-2.589-2.589v-20.283
						c0-1.43,1.159-2.589,2.589-2.589h24.066c4.7,0,8.524,3.824,8.524,8.524v8.414C107.181,266.835,103.357,270.659,98.657,270.659z
						 M77.181,265.481h21.476c1.845,0,3.346-1.501,3.346-3.345v-8.414c0-1.845-1.501-3.345-3.346-3.345H77.181V265.481z"></path><path fill="#fff" d="M74.592,288.354V268.07H97.86c3.703,0,6.732,2.354,6.732,5.232v15.052L74.592,288.354
						L74.592,288.354z"></path><path fill="#2f0c7a" d="M104.592,290.943c-1.43,0-2.589-1.159-2.589-2.589v-15.052c0-1.25-1.702-2.643-4.143-2.643
						H77.181v17.695c0,1.43-1.159,2.589-2.589,2.589c-1.43,0-2.589-1.159-2.589-2.589V268.07c0-1.43,1.159-2.589,2.589-2.589H97.86
						c5.14,0,9.321,3.509,9.321,7.821v15.052C107.181,289.784,106.022,290.943,104.592,290.943z"></path><rect width="30" height="40.567" x="118.165" y="247.787" fill="#fff"></rect><path fill="#2f0c7a" d="M148.165,290.943h-30c-1.43,0-2.589-1.159-2.589-2.589v-40.567c0-1.43,1.159-2.589,2.589-2.589
						h30c1.43,0,2.589,1.159,2.589,2.589c0,1.43-1.159,2.589-2.589,2.589h-27.411v35.389h27.411c1.43,0,2.589,1.159,2.589,2.589
						C150.754,289.784,149.595,290.943,148.165,290.943z"></path><path fill="#fff" d="M118.165,268.07h19.057H118.165z"></path><path fill="#2f0c7a" d="M137.222,270.659h-19.057c-1.43,0-2.589-1.159-2.589-2.589s1.159-2.589,2.589-2.589h19.057
						c1.43,0,2.589,1.159,2.589,2.589C139.811,269.5,138.652,270.659,137.222,270.659z"></path><g><polygon fill="#fff" points="160.789 288.354 160.789 247.787 192.688 288.354 192.688 247.787"></polygon><path fill="#2f0c7a" d="M192.689,290.943c-0.779,0-1.535-0.352-2.036-0.989l-27.274-34.686v33.085
					c0,1.43-1.159,2.589-2.589,2.589s-2.589-1.159-2.589-2.589v-40.567c0-1.104,0.699-2.086,1.742-2.447
					c1.043-0.361,2.2-0.021,2.882,0.846l27.274,34.686v-33.086c0-1.43,1.159-2.589,2.589-2.589c1.43,0,2.589,1.159,2.589,2.589
					v40.567c0,1.104-0.699,2.086-1.742,2.447C193.257,290.897,192.971,290.943,192.689,290.943z"></path></g><g><path fill="#fff" d="M220.312,288.354v-40.567V288.354z"></path><path fill="#2f0c7a" d="M220.312,290.943c-1.43,0-2.589-1.159-2.589-2.589v-40.567c0-1.43,1.159-2.589,2.589-2.589
						c1.43,0,2.589,1.159,2.589,2.589v40.567C222.901,289.784,221.742,290.943,220.312,290.943z"></path><path fill="#fff" d="M202.913,247.787h34.799H202.913z"></path><path fill="#2f0c7a" d="M237.712,250.376h-34.799c-1.43,0-2.589-1.159-2.589-2.589s1.159-2.589,2.589-2.589h34.799
						c1.43,0,2.589,1.159,2.589,2.589S239.142,250.376,237.712,250.376z"></path></g></g><g><path fill="#fff" d="M482.557,259.936H321.074c-14.831,0-26.853-11.018-26.853-24.609V94.189
					c0-13.591,12.023-24.609,26.853-24.609h161.484c14.831,0,26.853,11.018,26.853,24.609v141.138
					C509.411,248.918,497.388,259.936,482.557,259.936z"></path><path fill="#2f0c7a" d="M482.557,262.525H321.074c-16.235,0-29.443-12.201-29.443-27.198V94.189
					c0-14.997,13.208-27.198,29.443-27.198h161.484c16.235,0,29.443,12.201,29.443,27.198v141.138
					C512,250.324,498.792,262.525,482.557,262.525z M321.074,72.17c-13.379,0-24.264,9.878-24.264,22.019v141.138
					c0,12.141,10.885,22.019,24.264,22.019h161.484c13.379,0,24.264-9.878,24.264-22.019V94.189
					c0-12.141-10.885-22.019-24.264-22.019H321.074z"></path><path fill="#7be6ff" d="M324.376,93.145L324.376,93.145c-3.966,0-7.18-2.946-7.18-6.58v-23.36
						c0-3.634,3.215-6.58,7.18-6.58l0,0c3.966,0,7.18,2.946,7.18,6.58v23.36C331.556,90.199,328.342,93.145,324.376,93.145z"></path><path fill="#2f0c7a" d="M324.376,95.734c-5.387,0-9.77-4.113-9.77-9.169v-23.36c0-5.056,4.383-9.169,9.77-9.169
						c5.387,0,9.769,4.113,9.769,9.169v23.36C334.145,91.621,329.763,95.734,324.376,95.734z M324.376,59.214
						c-2.532,0-4.591,1.79-4.591,3.991v23.36c0,2.201,2.06,3.991,4.591,3.991c2.531,0,4.591-1.79,4.591-3.991v-23.36
						C328.967,61.004,326.908,59.214,324.376,59.214z"></path><path fill="#7be6ff" d="M376.002,93.145L376.002,93.145c-3.966,0-7.18-2.946-7.18-6.58v-23.36
						c0-3.634,3.215-6.58,7.18-6.58l0,0c3.966,0,7.18,2.946,7.18,6.58v23.36C383.183,90.199,379.968,93.145,376.002,93.145z"></path><path fill="#2f0c7a" d="M376.002,95.734c-5.387,0-9.77-4.113-9.77-9.169v-23.36c0-5.056,4.383-9.169,9.77-9.169
						c5.387,0,9.769,4.113,9.769,9.169v23.36C385.772,91.621,381.389,95.734,376.002,95.734z M376.002,59.214
						c-2.532,0-4.591,1.79-4.591,3.991v23.36c0,2.201,2.06,3.991,4.591,3.991c2.531,0,4.591-1.79,4.591-3.991v-23.36
						C380.593,61.004,378.534,59.214,376.002,59.214z"></path><path fill="#7be6ff" d="M427.629,93.145L427.629,93.145c-3.966,0-7.18-2.946-7.18-6.58v-23.36
						c0-3.634,3.215-6.58,7.18-6.58l0,0c3.966,0,7.18,2.946,7.18,6.58v23.36C434.809,90.199,431.594,93.145,427.629,93.145z"></path><path fill="#2f0c7a" d="M427.629,95.734c-5.387,0-9.77-4.113-9.77-9.169v-23.36c0-5.056,4.382-9.169,9.77-9.169
						c5.387,0,9.769,4.113,9.769,9.169v23.36C437.398,91.621,433.016,95.734,427.629,95.734z M427.629,59.214
						c-2.532,0-4.591,1.79-4.591,3.991v23.36c0,2.201,2.06,3.991,4.591,3.991c2.531,0,4.591-1.79,4.591-3.991v-23.36
						C432.22,61.004,430.16,59.214,427.629,59.214z"></path><path fill="#7be6ff" d="M479.255,93.145L479.255,93.145c-3.966,0-7.18-2.946-7.18-6.58v-23.36
						c0-3.634,3.215-6.58,7.18-6.58l0,0c3.966,0,7.18,2.946,7.18,6.58v23.36C486.435,90.199,483.22,93.145,479.255,93.145z"></path><path fill="#2f0c7a" d="M479.255,95.734c-5.387,0-9.77-4.113-9.77-9.169v-23.36c0-5.056,4.382-9.169,9.77-9.169
						c5.387,0,9.769,4.113,9.769,9.169v23.36C489.024,91.621,484.642,95.734,479.255,95.734z M479.255,59.214
						c-2.532,0-4.591,1.79-4.591,3.991v23.36c0,2.201,2.06,3.991,4.591,3.991c2.531,0,4.591-1.79,4.591-3.991v-23.36
						C483.846,61.004,481.786,59.214,479.255,59.214z"></path><g><path fill="#ffe471" d="M313.093,177.433V130.12c0-9.558,7.806-17.307,17.435-17.307h142.575
					c9.629,0,17.435,7.748,17.435,17.307v47.313H313.093z"></path><path fill="#2f0c7a" d="M490.538,180.022c-1.43,0-2.589-1.159-2.589-2.589V130.12c0-8.115-6.66-14.717-14.845-14.717
					H330.528c-8.186,0-14.845,6.602-14.845,14.717v47.313c0,1.43-1.159,2.589-2.589,2.589c-1.43,0-2.589-1.159-2.589-2.589V130.12
					c0-10.971,8.983-19.896,20.024-19.896h142.575c11.041,0,20.024,8.925,20.024,19.896v47.313
					C493.127,178.863,491.967,180.022,490.538,180.022z"></path><path fill="#fff" d="M431.389,242.052H330.528c-9.629,0-17.435-7.748-17.435-17.307v-47.313L431.389,242.052z"></path><path fill="#2f0c7a" d="M431.389,244.642H330.528c-11.041,0-20.024-8.925-20.024-19.896v-47.313
					c0-1.43,1.159-2.589,2.589-2.589c1.43,0,2.589,1.159,2.589,2.589v47.313c0,8.115,6.66,14.717,14.845,14.717h100.862
					c1.43,0,2.589,1.159,2.589,2.589S432.82,244.642,431.389,244.642z"></path><path fill="#fff" d="M490.538,177.433v47.313c0,9.558-7.806,17.307-17.435,17.307h-41.713v-64.619L490.538,177.433
					L490.538,177.433z"></path><path fill="#2f0c7a" d="M473.103,244.641h-41.713c-1.43,0-2.589-1.159-2.589-2.589v-64.619
					c0-1.43,1.159-2.589,2.589-2.589h59.148c1.43,0,2.589,1.159,2.589,2.589v47.313
					C493.127,235.716,484.144,244.641,473.103,244.641z M433.979,239.463h39.124c8.186,0,14.845-6.602,14.845-14.717v-44.724h-53.97
					V239.463z"></path><path fill="#fff" d="M314.828,177.433h175.71H314.828z"></path><path fill="#2f0c7a" d="M490.538,180.022h-175.71c-1.43,0-2.589-1.159-2.589-2.589c0-1.43,1.159-2.589,2.589-2.589
					h175.71c1.43,0,2.589,1.159,2.589,2.589C493.127,178.863,491.967,180.022,490.538,180.022z"></path><path fill="#fff" d="M431.389,112.813v129.239V112.813z"></path><path fill="#2f0c7a" d="M431.389,244.641c-1.43,0-2.589-1.159-2.589-2.589V112.813c0-1.43,1.159-2.589,2.589-2.589
					c1.43,0,2.589,1.159,2.589,2.589v129.239C433.979,243.482,432.82,244.641,431.389,244.641z"></path><g><path fill="#fff" d="M372.241,112.813v129.239V112.813z"></path><path fill="#2f0c7a" d="M372.242,244.641c-1.43,0-2.589-1.159-2.589-2.589V112.813c0-1.43,1.159-2.589,2.589-2.589
					s2.589,1.159,2.589,2.589v129.239C374.831,243.482,373.671,244.641,372.242,244.641z"></path></g></g><path fill="#2f0c7a" d="M339.803 157.966c-.335 0-.673-.065-.996-.199l-12.834-5.35c-1.32-.55-1.944-2.066-1.394-3.386.55-1.32 2.066-1.944 3.386-1.394l11.158 4.651 16.614-18.083c.968-1.053 2.605-1.123 3.659-.155 1.053.967 1.122 2.605.155 3.658l-17.841 19.42C341.21 157.673 340.513 157.966 339.803 157.966zM400.178 157.966c-.335 0-.673-.065-.996-.199l-12.834-5.35c-1.32-.55-1.944-2.066-1.394-3.386.55-1.32 2.066-1.944 3.386-1.394l11.158 4.651 16.614-18.083c.968-1.053 2.605-1.123 3.659-.155 1.053.967 1.122 2.605.155 3.658l-17.841 19.42C401.585 157.673 400.888 157.966 400.178 157.966zM458.459 157.968c-.335 0-.673-.065-.996-.199l-12.834-5.35c-1.32-.55-1.944-2.066-1.394-3.386.55-1.32 2.066-1.943 3.386-1.394l11.158 4.651 16.614-18.084c.967-1.053 2.605-1.122 3.659-.155 1.053.967 1.122 2.605.155 3.659l-17.842 19.42C459.865 157.675 459.169 157.968 458.459 157.968z"></path></g><g><path fill="#7be6ff" d="M141.633,496.639c0-31.806,11.589-60.905,30.775-83.304l39.003-27.472
					c11.531-8.122,24.703-13.768,38.647-15.889c6.376-0.97,12.928-1.459,19.698-1.459c23.849,0,46.177,6.516,65.299,17.866
					l23.006,17.425c24.717,23.357,39.818,56.141,39.818,92.832L141.633,496.639L141.633,496.639L141.633,496.639z"></path><path fill="#2f0c7a" d="M397.879,499.228c-1.43,0-2.589-1.159-2.589-2.589c0-34.832-13.815-67.092-38.905-90.853
					l-22.776-17.251c-19.264-11.403-41.339-17.429-63.853-17.429c-6.576,0-13.072,0.481-19.308,1.429
					c-13.029,1.981-26.012,7.322-37.545,15.446l-38.737,27.284c-19.312,22.664-29.944,51.55-29.944,81.375
					c0,1.43-1.159,2.589-2.589,2.589c-1.43,0-2.589-1.159-2.589-2.589c0-15.868,2.812-31.376,8.359-46.092
					c5.359-14.218,13.11-27.304,23.039-38.896c0.14-0.163,0.299-0.309,0.475-0.432l39.003-27.472
					c12.186-8.583,25.931-14.23,39.749-16.332c6.493-0.987,13.251-1.488,20.087-1.488c23.491,0,46.528,6.303,66.621,18.228
					c0.083,0.05,0.164,0.104,0.242,0.162l23.006,17.425c0.075,0.057,0.147,0.118,0.215,0.182
					c12.772,12.069,22.789,26.288,29.772,42.26c7.204,16.478,10.857,34.126,10.857,52.453
					C400.468,498.069,399.309,499.228,397.879,499.228z"></path><path fill="#2f0c7a" d="M196.901 499.228c-.011 0-.021 0-.032 0-1.43-.017-2.575-1.19-2.558-2.62.206-17.217 3.559-34.721 9.965-52.025 5.112-13.808 12.168-27.52 20.973-40.755 14.987-22.526 29.654-35.692 30.271-36.241 1.068-.951 2.705-.856 3.655.212.951 1.068.856 2.704-.211 3.655l0 0c-.147.131-14.866 13.359-29.487 35.368-13.431 20.219-29.537 52.219-29.988 89.848C199.472 498.089 198.316 499.228 196.901 499.228zM269.756 499.228c-1.43 0-2.589-1.159-2.589-2.589V368.516c0-1.43 1.159-2.589 2.589-2.589 1.43 0 2.589 1.159 2.589 2.589v128.123C272.345 498.069 271.186 499.228 269.756 499.228z"></path><path fill="#2f0c7a" d="M269.809,452.45c-10.011,0-20.057-0.586-30.019-1.754c-15.073-1.768-30.468-4.932-45.757-9.402
				c-0.026-0.008-0.052-0.016-0.077-0.024l-18.275-5.967c-0.025-0.008-0.049-0.017-0.074-0.025
				c-4.364-1.572-8.807-3.278-13.204-5.071c-1.324-0.54-1.96-2.051-1.42-3.375c0.54-1.324,2.051-1.96,3.375-1.42
				c4.319,1.761,8.682,3.437,12.968,4.981l18.199,5.942c59.889,17.5,118.643,13.927,179.609-10.927
				c1.324-0.539,2.835,0.096,3.375,1.42c0.54,1.324-0.096,2.835-1.42,3.375c-15.487,6.314-31.016,11.34-46.154,14.938
				c-15.22,3.618-30.574,5.919-45.637,6.839C280.156,452.294,274.987,452.45,269.809,452.45z"></path><path fill="#2f0c7a" d="M342.5,499.228c-1.395,0-2.546-1.11-2.587-2.514c-1.077-37.024-16.819-69.063-29.837-89.421
				c-14.127-22.094-28.119-35.513-28.259-35.646c-1.036-0.986-1.076-2.625-0.09-3.66c0.986-1.036,2.625-1.076,3.661-0.09
				c0.589,0.561,14.589,13.988,29.051,36.607c8.496,13.288,15.358,26.981,20.396,40.699c6.313,17.191,9.763,34.471,10.254,51.361
				c0.042,1.429-1.083,2.622-2.513,2.663C342.552,499.228,342.526,499.228,342.5,499.228z"></path><path fill="#2f0c7a" d="M268.697,401.839c-15.191,0-31.005-4.11-50.742-13.129c-1.301-0.594-1.873-2.131-1.279-3.431
				c0.594-1.3,2.13-1.873,3.431-1.279c40.204,18.373,66.276,17.031,103.321-5.322c1.224-0.739,2.816-0.345,3.555,0.879
				c0.739,1.224,0.345,2.816-0.879,3.555c-20.059,12.104-37.302,18.036-54.265,18.669
				C270.794,401.819,269.747,401.839,268.697,401.839z"></path><path fill="#fff" d="M130.847,418.244c-7.23-10.197-11.679-22.38-12.161-35.079c-0.027-0.714-0.041-1.411-0.041-2.09
				c0-26.291,20.314-47.605,45.372-47.605s45.372,21.313,45.372,47.605c0,0.679-0.014,1.377-0.041,2.09
				c-0.482,12.699-4.931,24.882-12.161,35.079l-33.17,46.784L130.847,418.244z"></path><path fill="#2f0c7a" d="M164.017,467.617c-0.839,0-1.627-0.407-2.112-1.092l-33.171-46.784l0,0
				c-7.777-10.969-12.147-23.583-12.636-36.479c-0.028-0.748-0.043-1.484-0.043-2.188c0-13.384,4.974-25.973,14.004-35.448
				c9.063-9.509,21.123-14.746,33.957-14.746s24.894,5.237,33.957,14.746c9.031,9.475,14.004,22.064,14.004,35.448
				c0,0.704-0.014,1.44-0.043,2.188c-0.49,12.896-4.859,25.51-12.637,36.479l-33.17,46.784
				C165.644,467.21,164.857,467.617,164.017,467.617z M132.959,416.746l31.058,43.806l31.058-43.806
				c7.194-10.146,11.235-21.793,11.686-33.68c0.026-0.683,0.039-1.353,0.039-1.992c0-24.822-19.193-45.016-42.783-45.016
				s-42.783,20.194-42.783,45.016c0,0.639,0.013,1.31,0.039,1.992C121.724,394.953,125.765,406.6,132.959,416.746z"></path><circle cx="163.824" cy="377.141" r="15.253" fill="#ffe471"></circle><path fill="#2f0c7a" d="M163.824,394.983c-9.838,0-17.842-8.004-17.842-17.842c0-9.838,8.004-17.842,17.842-17.842
					s17.842,8.004,17.842,17.842S173.661,394.983,163.824,394.983z M163.824,364.478c-6.983,0-12.664,5.681-12.664,12.663
					c0,6.983,5.681,12.664,12.664,12.664c6.983,0,12.663-5.681,12.663-12.664C176.487,370.159,170.806,364.478,163.824,364.478z"></path><path fill="#ffe471" d="M188.823,411.091c-3.796-6.188-10.624-10.316-18.415-10.316h-11.411
					c-8.168,0-15.277,4.536-18.944,11.227L188.823,411.091z"></path><path fill="#2f0c7a" d="M140.051,414.592c-0.421,0-0.847-0.103-1.242-0.319c-1.254-0.687-1.713-2.261-1.026-3.515
					c4.25-7.755,12.379-12.572,21.215-12.572h11.411c8.476,0,16.186,4.318,20.622,11.551c0.748,1.219,0.366,2.813-0.853,3.561
					c-1.219,0.748-2.813,0.366-3.561-0.853c-3.488-5.686-9.547-9.081-16.208-9.081h-11.411c-6.944,0-13.333,3.787-16.674,9.882
					C141.853,414.105,140.966,414.592,140.051,414.592z"></path><g><path fill="#fff" d="M319.336,364.212c-7.23-10.197-11.679-22.38-12.161-35.079c-0.027-0.714-0.041-1.411-0.041-2.09
				c0-26.291,20.314-47.605,45.372-47.605c25.059,0,45.372,21.313,45.372,47.605c0,0.679-0.014,1.377-0.041,2.09
				c-0.482,12.699-4.931,24.882-12.161,35.079l-33.17,46.784L319.336,364.212z"></path><path fill="#2f0c7a" d="M352.506,413.585c-0.839,0-1.627-0.407-2.112-1.092l-33.17-46.784l0,0
				c-7.777-10.969-12.147-23.583-12.637-36.479c-0.028-0.743-0.043-1.479-0.043-2.188c0-13.384,4.973-25.973,14.004-35.448
				c9.063-9.509,21.123-14.746,33.957-14.746s24.894,5.237,33.957,14.746c9.031,9.475,14.004,22.064,14.004,35.448
				c0,0.709-0.014,1.446-0.043,2.188c-0.49,12.895-4.859,25.509-12.637,36.478l-33.17,46.784
				C354.133,413.178,353.346,413.585,352.506,413.585z M321.448,362.714l31.058,43.805l31.058-43.805
				c7.194-10.146,11.235-21.793,11.686-33.68c0.026-0.678,0.039-1.348,0.039-1.992c0-24.822-19.193-45.016-42.783-45.016
				s-42.783,20.194-42.783,45.016c0,0.644,0.013,1.314,0.039,1.992C310.214,340.921,314.255,352.568,321.448,362.714z"></path></g><g><path fill="#ffe471" d="M352.507,307.146l27.852,20.124L352.507,307.146z"></path><path fill="#2f0c7a" d="M380.357,329.86c-0.526,0-1.056-0.159-1.514-0.491l-27.852-20.125
					c-1.159-0.837-1.42-2.456-0.583-3.615c0.838-1.159,2.456-1.419,3.615-0.583l27.852,20.125c1.159,0.837,1.42,2.456,0.583,3.615
					C381.951,329.487,381.16,329.86,380.357,329.86z"></path><path fill="#ffe471" d="M367.811,318.204v25.639V318.204z"></path><path fill="#2f0c7a" d="M367.811,346.433c-1.43,0-2.589-1.159-2.589-2.589v-25.639c0-1.43,1.159-2.589,2.589-2.589
					s2.589,1.159,2.589,2.589v25.639C370.4,345.273,369.241,346.433,367.811,346.433z"></path></g><g><path fill="#ffe471" d="M352.507,307.146l-27.852,20.124L352.507,307.146z"></path><path fill="#2f0c7a" d="M324.656,329.86c-0.803,0-1.594-0.372-2.101-1.073c-0.837-1.159-0.577-2.778,0.582-3.615
					l27.852-20.125c1.159-0.837,2.777-0.577,3.615,0.583c0.837,1.159,0.577,2.778-0.582,3.615l-27.852,20.125
					C325.712,329.701,325.182,329.86,324.656,329.86z"></path><path fill="#ffe471" d="M337.202,318.204v25.639V318.204z"></path><path fill="#2f0c7a" d="M337.202,346.433c-1.43,0-2.589-1.159-2.589-2.589v-25.639c0-1.43,1.159-2.589,2.589-2.589
					c1.43,0,2.589,1.159,2.589,2.589v25.639C339.792,345.273,338.632,346.433,337.202,346.433z"></path></g></g></svg>