<svg xmlns="http://www.w3.org/2000/svg" enable-background="new 0 0 5000 5000" viewBox="0 0 5000 5000" id="roommates-relations"><path fill="#caf1fc" d="M707.697,2604.247c0-997.227,808.412-1805.64,1805.639-1805.64
				c997.227,0,1805.64,808.412,1805.64,1805.639c0,997.228-808.412,1805.64-1805.639,1805.64
				C1516.11,4409.887,707.697,3601.475,707.697,2604.247z"></path><path fill="#1c5a89" d="M654.667 4015.02c-9.189 0-18.26-4.192-24.167-12.132-60.514-81.329-116.232-167.344-165.607-255.649-8.111-14.507-2.927-32.842 11.58-40.955 14.507-8.11 32.843-2.925 40.953 11.582 48.107 86.039 102.397 169.848 161.361 249.095 9.921 13.334 7.155 32.186-6.179 42.108C667.213 4013.083 660.912 4015.02 654.667 4015.02zM361.837 3491.21c-11.956 0-23.266-7.176-27.963-18.959-37.504-94.088-69.141-191.564-94.034-289.72-4.086-16.11 5.662-32.483 21.773-36.569 16.103-4.089 32.483 5.662 36.568 21.774 24.25 95.62 55.069 190.573 91.603 282.227 6.155 15.441-1.372 32.945-16.812 39.098C369.317 3490.52 365.546 3491.21 361.837 3491.21zM214.249 2909.602c-15.038 0-28.034-11.252-29.847-26.556-10.882-91.868-16.4-185.668-16.4-278.798 0-8.459.044-16.911.134-25.346.175-16.51 13.615-29.774 30.085-29.774.109 0 .218 0 .327.003 16.62.174 29.949 13.792 29.772 30.41-.087 8.223-.13 16.459-.13 24.707 0 90.772 5.378 182.19 15.983 271.718 1.954 16.506-9.841 31.47-26.345 33.424C216.626 2909.533 215.431 2909.602 214.249 2909.602zM220.767 2309.33c-1.394 0-2.804-.096-4.225-.296-16.459-2.311-27.926-17.529-25.615-33.988 14.111-100.444 34.966-200.826 61.985-298.355 4.439-16.019 21.028-25.405 37.036-20.968 16.018 4.437 25.405 21.019 20.968 37.036-26.322 95.012-46.638 192.805-60.386 290.661C248.418 2298.458 235.529 2309.33 220.767 2309.33zM380.998 1730.853c-3.921 0-7.904-.771-11.74-2.398-15.3-6.492-22.442-24.156-15.95-39.457 39.527-93.17 85.632-184.723 137.035-272.114 8.426-14.325 26.868-19.109 41.197-10.683 14.326 8.427 19.109 26.872 10.683 41.197-50.08 85.144-94.999 174.339-133.507 265.108C403.851 1723.968 392.712 1730.853 380.998 1730.853zM685.224 1213.456c-6.462 0-12.97-2.071-18.464-6.348-13.116-10.208-15.472-29.117-5.263-42.233 62.185-79.891 130.227-156.528 202.235-227.783 11.815-11.691 30.869-11.591 42.557.222 11.691 11.815 11.591 30.869-.222 42.56-70.172 69.436-136.477 144.119-197.074 221.97C703.061 1209.468 694.189 1213.456 685.224 1213.456zM2513.338 4949.582c-8.255 0-16.501-.042-24.738-.125-16.619-.172-29.953-13.782-29.782-30.403.17-16.513 13.61-29.784 30.086-29.784.104 0 .21 0 .314 0 98.838 1.035 198.818-4.336 296.498-15.938 16.508-1.947 31.475 9.831 33.434 26.334 1.959 16.506-9.831 31.475-26.334 33.435C2700.727 4944.038 2606.698 4949.582 2513.338 4949.582zM2189.002 4927.043c-1.391 0-2.799-.096-4.216-.295-100.432-14.082-200.809-34.905-298.34-61.891-16.019-4.432-25.411-21.012-20.979-37.028 4.432-16.019 21.018-25.403 37.03-20.98 95.012 26.29 192.8 46.575 290.645 60.292 16.46 2.308 27.932 17.521 25.625 33.982C2216.658 4916.165 2203.768 4927.043 2189.002 4927.043zM3084.855 4878.507c-13.44 0-25.688-9.069-29.147-22.696-4.091-16.107 5.654-32.482 21.764-36.573 95.615-24.277 190.561-55.123 282.2-91.684 15.431-6.158 32.945 1.365 39.103 16.801 6.158 15.437-1.365 32.945-16.801 39.104-94.071 37.53-191.539 69.197-289.693 94.118C3089.799 4878.204 3087.306 4878.507 3084.855 4878.507zM1610.477 4766.949c-3.917 0-7.898-.767-11.731-2.395-93.173-39.494-184.737-85.569-272.145-136.945-14.33-8.42-19.118-26.863-10.697-41.193 8.422-14.325 26.865-19.119 41.194-10.694 85.16 50.053 174.366 94.941 265.138 133.42 15.302 6.485 22.449 24.149 15.962 39.452C1633.337 4760.061 1622.195 4766.949 1610.477 4766.949zM3642.258 4656.196c-10.542 0-20.776-5.551-26.29-15.407-8.115-14.502-2.935-32.839 11.569-40.957 86.039-48.143 169.831-102.459 249.048-161.436 13.332-9.927 32.186-7.164 42.11 6.168 9.925 13.332 7.164 32.183-6.168 42.11-81.297 60.528-167.294 116.272-255.603 165.684C3652.276 4654.959 3647.234 4656.196 3642.258 4656.196zM4737.189 3280.616c-2.778 0-5.6-.386-8.4-1.2-15.962-4.629-25.147-21.324-20.515-37.287 27.463-94.656 48.957-192.173 63.879-289.841 2.513-16.429 17.843-27.728 34.295-25.204 16.429 2.51 27.713 17.865 25.203 34.295-15.32 100.253-37.382 200.352-65.575 297.521C4762.257 3272.064 4750.236 3280.616 4737.189 3280.616zM4667.727 1784.725c-11.994 0-23.328-7.219-27.999-19.053-36.197-91.701-78.836-181.976-126.73-268.317-8.063-14.533-2.817-32.852 11.717-40.914 14.531-8.061 32.849-2.818 40.915 11.717 49.161 88.624 92.928 181.287 130.082 275.416 6.104 15.46-1.482 32.939-16.943 39.042C4675.142 1784.047 4671.402 1784.725 4667.727 1784.725zM4376.721 1259.954c-9.224 0-18.327-4.225-24.228-12.212-58.616-79.333-123.021-155.646-191.433-226.821-11.518-11.983-11.139-31.034.843-42.551 11.979-11.516 31.03-11.144 42.552.842 70.2 73.039 136.294 151.352 196.446 232.763 9.875 13.369 7.046 32.211-6.323 42.088C4389.2 1258.037 4382.931 1259.954 4376.721 1259.954zM3960.796 827.261c-6.606 0-13.256-2.163-18.809-6.618-77.046-61.796-158.833-119.105-243.087-170.337-14.202-8.635-18.713-27.148-10.077-41.349 8.634-14.201 27.148-18.712 41.348-10.078 86.469 52.579 170.404 111.394 249.474 174.812 12.966 10.398 15.045 29.339 4.646 42.304C3978.346 823.406 3969.612 827.261 3960.796 827.261zM3447.936 515.497c-4.061 0-8.189-.827-12.142-2.574-90.304-39.89-184.093-74.18-278.758-101.918-15.95-4.673-25.09-21.392-20.417-37.342 4.671-15.948 21.386-25.09 37.341-20.418 97.178 28.474 193.454 63.675 286.153 104.622 15.203 6.715 22.084 24.484 15.367 39.689C3470.512 508.803 3459.491 515.497 3447.936 515.497z"></path><path fill="#fff" d="M1795.494 3154.377c9.194-16.146 25.436-28.4 44.546-33.631 12.644-3.481 25.617-3.617 37.689-.704l-35.1-128.05c-4.927-17.962-1.451-36.889 9.794-53.314 10.645-15.547 27.148-27.018 46.466-32.319 15.108-4.144 30.589-4.012 44.809-.021l-1.914-6.984c-11.089-40.4 13.157-82.4 54.053-93.619 19.762-5.432 40.435-2.92 58.215 7.039 15.234 8.531 26.462 21.823 32.858 37.675 9.763-11.714 23.016-20.765 38.871-25.127 40.861-11.149 83.148 12.583 94.228 52.976l109.405 399.094c6.478-11.979 14.73-23.497 25.127-34.011 17.702-17.91 46.006-36.777 67.618-31.172 9.551 2.503 16.52 9.429 19.136 18.988l52.228 190.558c16.216 59.102 23.811 120.09 22.603 181.26-.017.913-.113 1.825-.278 2.729L2495 3718.708c-21.934 125.417 126.503 525.242 164.427 617.48 3.528 8.604-.574 18.441-9.168 21.978-2.103.86-442.269 10.663-443.625 10.663-7.535 0-14.391-5.092-16.312-12.722-74.536-295.526-138.034-487.744-174.238-527.363-40.696-44.511-97.287-158.57-113.355-217.254l-113.233-413.044C1785.492 3183.863 1787.621 3168.211 1795.494 3154.377zM1709.744 3158.024c-9.194-16.146-25.436-28.4-44.546-33.631-12.644-3.481-25.616-3.617-37.689-.704l35.1-128.05c4.927-17.962 1.451-36.89-9.794-53.314-10.645-15.547-27.148-27.018-46.466-32.319-15.108-4.144-30.589-4.011-44.808-.021l1.914-6.984c11.089-40.4-13.157-82.4-54.053-93.619-19.761-5.431-40.435-2.92-58.215 7.039-15.234 8.531-26.461 21.823-32.857 37.675-9.764-11.714-23.016-20.765-38.871-25.126-40.861-11.15-83.148 12.583-94.228 52.975l-109.405 399.094c-6.479-11.979-14.73-23.497-25.128-34.011-17.702-17.91-46.006-36.777-67.618-31.172-9.551 2.503-16.52 9.429-19.136 18.988l-52.228 190.558c-16.216 59.102-23.811 120.09-22.603 181.26.017.912.113 1.825.278 2.729l20.848 112.964c21.934 125.417-126.503 525.242-164.427 617.48-3.528 8.603.573 18.44 9.168 21.978 2.103.86 442.269 10.663 443.625 10.663 7.534 0 14.391-5.092 16.311-12.723 74.536-295.526 138.035-487.744 174.238-527.363 40.696-44.511 97.286-158.57 113.354-217.254l113.233-413.044C1719.746 3187.51 1717.617 3171.858 1709.744 3158.024z"></path><path fill="#fff" d="M1974.547,3439.245l-79.533-290.152c-6.84-24.989-36.134-38.724-65.427-30.67
				c-29.293,8.009-47.465,34.765-40.623,59.728l118.649,432.842c16.297,59.405,74.566,176.417,114.794,220.422
				c54.862,60.037,142.08,383.657,186.059,557.804"></path><path fill="#1c5a89" d="M2208.444,4419.321c-13.456,0-25.711-9.091-29.155-22.733
				c-76.236-301.884-143.188-505.575-179.097-544.87c-43.659-47.762-104.368-169.949-121.6-232.761l-118.651-432.851
				c-5.595-20.412-1.622-42.68,10.897-61.096c11.697-17.206,29.743-29.852,50.813-35.615c23.157-6.362,47.794-3.572,67.552,7.68
				c17.398,9.907,29.77,25.56,34.838,44.074l79.529,290.141c4.394,16.029-5.038,32.586-21.067,36.979
				c-16.035,4.393-32.585-5.04-36.979-21.069l-79.533-290.15c-1.053-3.85-4.155-6.296-6.571-7.673
				c-5.891-3.353-14.062-4.083-21.854-1.937c-7.193,1.967-13.358,6.122-16.953,11.409c-1.865,2.741-3.834,6.938-2.624,11.345
				l118.649,432.844c15.068,54.923,71.213,167.847,107.983,208.074c17.484,19.134,47.247,65.603,103.644,247.502
				c34.549,111.437,67.676,237.288,89.381,323.238c4.07,16.115-5.695,32.475-21.81,36.546
				C2213.362,4419.024,2210.883,4419.321,2208.444,4419.321z"></path><path fill="#fff" d="M2194.485,3285.806l-109.803-400.508c-9.059-33.017,10.778-67.221,44.323-76.443
				c33.519-9.164,68.014,10.144,77.074,43.161l136.296,497.187"></path><path fill="#1c5a89" d="M2342.358,3379.304c-13.221,0.002-25.341-8.776-29.006-22.145l-136.295-497.187
				c-4.653-16.951-22.653-26.856-40.116-22.089c-17.446,4.796-27.889,22.499-23.238,39.453l109.804,400.513
				c4.394,16.029-5.037,32.586-21.066,36.982c-16.029,4.381-32.585-5.037-36.979-21.066l-109.803-400.508
				c-13.427-48.934,15.896-99.816,65.368-113.418c49.495-13.539,100.647,15.284,114.075,64.213l136.296,497.197
				c4.394,16.029-5.037,32.584-21.066,36.979C2347.67,3378.958,2344.991,3379.304,2342.358,3379.304z"></path><path fill="#fff" d="M2073.095,3319.081l-124.541-454.342c-9.06-33.017,10.777-67.221,44.296-76.417
				c33.519-9.19,68.042,10.144,77.075,43.161l132.28,482.529"></path><path fill="#1c5a89" d="M2073.078,3349.181c-13.221,0-25.342-8.779-29.005-22.145l-124.541-454.342
				c-6.531-23.795-3.276-48.726,9.169-70.19c12.354-21.31,32.307-36.653,56.187-43.204c23.89-6.549,48.883-3.525,70.387,8.518
				c21.652,12.125,37.164,31.915,43.678,55.722l132.275,482.516c4.395,16.029-5.037,32.584-21.066,36.979
				c-16.035,4.398-32.585-5.037-36.979-21.068l-132.281-482.528c-2.229-8.142-7.567-14.922-15.037-19.107
				c-7.621-4.268-16.518-5.327-25.058-2.987c-8.539,2.343-15.658,7.793-20.037,15.345c-4.29,7.402-5.424,15.955-3.193,24.083
				l124.544,454.352c4.393,16.029-5.04,32.584-21.068,36.979C2078.39,3348.835,2075.711,3349.181,2073.078,3349.181z"></path><path fill="#fff" d="M1951.693,3352.369l-107.056-390.551c-7.792-28.394,13.075-58.851,46.595-68.04
				c33.518-9.17,67.011,6.365,74.777,34.759l122.507,446.79"></path><path fill="#1c5a89" d="M2088.499,3405.427c-13.22,0-25.341-8.777-29.005-22.143l-122.507-446.79
				c-1.866-6.822-7.934-10.527-11.387-12.132c-7.568-3.515-17.2-4.083-26.425-1.559c-9.203,2.525-17.192,7.918-21.903,14.797
				c-2.152,3.144-5.485,9.435-3.613,16.255l107.058,390.559c4.393,16.029-5.038,32.584-21.068,36.979
				c-16.029,4.396-32.586-5.042-36.978-21.068l-107.056-390.552c-6.059-22.076-1.685-46.203,12-66.183
				c12.82-18.718,32.589-32.512,55.662-38.838c23.084-6.311,47.116-4.526,67.68,5.025c21.973,10.205,38.04,28.729,44.082,50.82
				l122.502,446.77c4.396,16.029-5.036,32.586-21.065,36.982C2093.811,3405.08,2091.133,3405.427,2088.499,3405.427z"></path><path fill="#fff" d="M2383.302,3498.548l-40.757-148.732c-23.746-86.586,86.373-161.017,95.406-128l54.756,199.683
				c16.509,60.198,24.275,122.512,23.059,184.929l-21.897,118.54c-25.912,148.287,155.074,612.328,173.381,656.811"></path><path fill="#1c5a89" d="M2667.263,4411.877c-11.835,0.002-23.057-7.024-27.841-18.647
				c-2.055-4.996-204.283-506.997-175.197-673.443c0.017-0.096,0.034-0.192,0.052-0.288l21.445-116.091
				c0.913-58.775-6.498-117.285-22.036-173.954l-49.24-179.566c-9.035,5.935-20.887,16.25-30.611,31.037
				c-9.328,14.185-19.029,36.269-12.266,60.929l40.759,148.741c4.393,16.029-5.041,32.584-21.07,36.977
				c-16.039,4.396-32.586-5.042-36.978-21.071l-40.758-148.733c-12.698-46.302,2.883-97.372,41.68-136.611
				c21.891-22.135,55.156-43.199,82.868-35.944c14.212,3.724,25.019,14.441,28.911,28.662l54.751,199.664
				c17.28,63.016,25.395,128.11,24.124,193.474c-0.032,1.637-0.197,3.27-0.494,4.883l-21.867,118.379
				c-9.694,55.852,14.871,181.182,69.177,352.95c43.339,137.08,91.804,261.328,102.41,287.097
				c6.325,15.37-1.005,32.958-16.375,39.283C2674.958,4411.147,2671.076,4411.877,2667.263,4411.877z"></path><path fill="#fff" d="M1537.223,3439.245l79.532-290.152c6.868-24.989,36.134-38.724,65.427-30.67
				c29.293,8.009,47.491,34.765,40.623,59.728l-118.649,432.842c-16.271,59.405-74.566,176.417-114.794,220.422
				c-55.099,60.302-142.899,386.669-186.667,560.21"></path><path fill="#1c5a89" d="M1302.716,4421.726c-2.436,0-4.912-0.297-7.381-0.919c-16.116-4.066-25.886-20.424-21.821-36.542
				c21.7-86.042,54.846-212.116,89.517-324.109c56.698-183.141,86.574-229.843,104.115-249.039
				c36.816-40.276,92.952-153.188,107.985-208.074l118.651-432.849c1.058-3.845-0.358-7.518-1.729-9.929
				c-3.357-5.893-10.013-10.682-17.807-12.813c-7.199-1.981-14.623-1.551-20.408,1.163c-3.005,1.409-6.844,4.02-8.064,8.454
				l-79.526,290.131c-4.394,16.029-20.953,25.459-36.979,21.069c-16.029-4.393-25.462-20.951-21.068-36.979l79.533-290.15
				c5.615-20.437,20.394-37.567,40.549-47.02c18.834-8.831,40.811-10.512,61.878-4.713c23.17,6.335,42.937,21.31,54.193,41.073
				c9.905,17.393,12.557,37.156,7.469,55.653l-118.643,432.817c-17.193,62.77-77.896,184.955-121.605,232.771
				c-36.044,39.448-103.222,244.033-179.699,547.265C1328.432,4412.629,1316.176,4421.726,1302.716,4421.726z"></path><path fill="#fff" d="M1317.297,3285.806l109.802-400.508c9.06-33.017-10.803-67.221-44.323-76.443
				c-33.519-9.164-68.014,10.144-77.075,43.161l-136.296,497.187"></path><path fill="#1c5a89" d="M1169.422,3379.304c-2.634,0-5.31-0.346-7.974-1.077c-16.029-4.396-25.461-20.951-21.066-36.979
				l136.296-497.187c13.429-48.942,64.588-77.757,114.032-64.236c49.516,13.625,78.836,64.506,65.41,113.438l-109.8,400.501
				c-4.394,16.029-20.952,25.462-36.979,21.066c-16.029-4.396-25.46-20.95-21.066-36.982l109.801-400.508
				c4.653-16.953-5.793-34.659-23.285-39.47c-17.417-4.769-35.414,5.153-40.068,22.111l-136.295,497.177
				C1194.764,3370.525,1182.643,3379.304,1169.422,3379.304z"></path><path fill="#fff" d="M1438.687,3319.081l124.54-454.342c9.06-33.017-10.778-67.221-44.296-76.417
				c-33.519-9.19-68.042,10.144-77.075,43.161l-132.28,482.529"></path><path fill="#1c5a89" d="M1438.705,3349.181c-2.634,0-5.31-0.346-7.973-1.077c-16.029-4.393-25.462-20.951-21.068-36.979
				l124.54-454.342c2.234-8.137,1.099-16.69-3.192-24.092c-4.378-7.552-11.497-13.002-20.043-15.348
				c-8.537-2.343-17.433-1.279-25.052,2.989c-7.47,4.184-12.808,10.965-15.032,19.094l-132.284,482.54
				c-4.393,16.031-20.948,25.469-36.979,21.068c-16.029-4.396-25.46-20.95-21.066-36.979l132.279-482.528
				c6.51-23.795,22.021-43.585,43.674-55.71c21.502-12.041,46.497-15.068,70.38-8.521c23.886,6.554,43.839,21.897,56.194,43.207
				c12.444,21.464,15.699,46.395,9.167,70.2l-124.538,454.332C1464.047,3340.402,1451.925,3349.181,1438.705,3349.181z"></path><path fill="#fff" d="M1560.077,3352.369l107.054-390.551c7.792-28.394-13.075-58.851-46.595-68.04
				c-33.518-9.17-67.011,6.365-74.777,34.759l-122.48,446.79"></path><path fill="#1c5a89" d="M1423.297,3405.427c-2.634,0-5.31-0.347-7.974-1.077c-16.029-4.396-25.46-20.95-21.066-36.979
				l122.48-446.79c6.036-22.074,22.103-40.598,44.075-50.803c20.564-9.556,44.599-11.341,67.665-5.028
				c23.089,6.328,42.857,20.122,55.678,38.84c13.685,19.979,18.057,44.106,11.998,66.19l-107.052,390.544
				c-4.393,16.031-20.955,25.462-36.979,21.068c-16.029-4.393-25.462-20.95-21.068-36.979l107.055-390.552
				c1.873-6.827-1.458-13.118-3.611-16.262c-4.712-6.879-12.7-12.272-21.917-14.8c-9.21-2.525-18.845-1.949-26.411,1.561
				c-3.453,1.605-9.521,5.31-11.382,12.113l-122.485,446.807C1448.639,3396.648,1436.517,3405.427,1423.297,3405.427z"></path><path fill="#fff" d="M1128.467,3498.548l40.755-148.732c23.746-86.586-86.374-161.017-95.407-128l-54.73,199.683
				c-16.509,60.198-24.3,122.512-23.059,184.929l21.871,118.54c25.938,148.287-155.075,612.328-173.353,656.811"></path><path fill="#1c5a89" d="M844.534,4411.877c-3.812,0.002-7.684-0.728-11.428-2.264
				c-15.372-6.318-22.713-23.903-16.396-39.275c39.444-95.986,193.898-511.446,171.569-640.043l-21.845-118.406
				c-0.296-1.605-0.461-3.23-0.494-4.863c-1.298-65.281,6.818-130.379,24.124-193.486l54.729-199.679
				c3.887-14.207,14.694-24.921,28.906-28.648c27.706-7.257,60.977,13.804,82.868,35.944c38.797,39.239,54.379,90.309,41.68,136.618
				l-40.755,148.726c-4.392,16.031-20.958,25.469-36.977,21.071c-16.03-4.393-25.464-20.948-21.071-36.977l40.757-148.733
				c6.764-24.668-2.937-46.751-12.265-60.937c-9.723-14.785-21.575-25.1-30.609-31.035l-49.215,179.562
				c-15.564,56.757-22.976,115.265-22.038,173.954l21.42,116.101c0.017,0.091,0.033,0.182,0.049,0.275
				c29.025,165.93-173.106,668.432-175.161,673.433C867.601,4404.844,856.372,4411.877,844.534,4411.877z"></path><line x1="943.532" x2="801.187" y1="2934.082" y2="2791.74" fill="#fff"></line><path fill="#1c5a89" d="M943.532,2964.176c-7.702,0-15.403-2.938-21.28-8.813l-142.345-142.342
				c-11.752-11.751-11.752-30.806,0-42.56c11.751-11.751,30.806-11.751,42.56,0l142.345,142.342
				c11.752,11.751,11.752,30.806,0,42.56C958.936,2961.238,951.234,2964.176,943.532,2964.176z"></path><line x1="943.532" x2="801.187" y1="3414.457" y2="3556.805" fill="#fff"></line><path fill="#1c5a89" d="M801.187,3586.899c-7.702,0-15.403-2.938-21.28-8.813c-11.752-11.751-11.752-30.806,0-42.56
				l142.345-142.349c11.751-11.751,30.806-11.751,42.56,0c11.752,11.751,11.752,30.806,0,42.56l-142.345,142.349
				C816.591,3583.961,808.889,3586.899,801.187,3586.899z"></path><line x1="726.534" x2="911.431" y1="3172.038" y2="3172.038" fill="#fff"></line><path fill="#1c5a89" d="M911.43,3202.132H726.534c-16.62,0-30.094-13.472-30.094-30.093s13.474-30.093,30.094-30.093
				H911.43c16.62,0,30.095,13.472,30.095,30.093S928.05,3202.132,911.43,3202.132z"></path><line x1="2524.907" x2="2667.251" y1="3005.253" y2="2862.911" fill="#fff"></line><path fill="#1c5a89" d="M2524.907,3035.346c-7.702,0-15.402-2.938-21.28-8.813c-11.752-11.754-11.752-30.806,0-42.56
				l142.344-142.342c11.754-11.753,30.806-11.749,42.56,0c11.751,11.754,11.751,30.806,0,42.56l-142.344,142.342
				C2540.311,3032.409,2532.607,3035.346,2524.907,3035.346z"></path><line x1="2596.079" x2="2738.422" y1="3323.69" y2="3466.039" fill="#fff"></line><path fill="#1c5a89" d="M2738.422,3496.132c-7.702,0-15.404-2.938-21.28-8.813l-142.344-142.349
				c-11.751-11.754-11.751-30.809,0-42.56c11.751-11.754,30.809-11.749,42.56,0l142.344,142.349
				c11.751,11.754,11.751,30.809,0,42.56C2753.826,3493.194,2746.121,3496.132,2738.422,3496.132z"></path><g><line x1="2797.372" x2="2612.476" y1="3133.235" y2="3133.235" fill="#fff"></line><path fill="#1c5a89" d="M2797.372,3163.328h-184.896c-16.621,0-30.093-13.472-30.093-30.093
				c0-16.621,13.472-30.093,30.093-30.093h184.896c16.621,0,30.094,13.472,30.094,30.093
				C2827.465,3149.856,2813.993,3163.328,2797.372,3163.328z"></path></g><g><line x1="1897.606" x2="1848.385" y1="3964.534" y2="3841.469" fill="#fff"></line><path fill="#1c5a89" d="M1897.616,3994.637c-11.945,0-23.245-7.159-27.952-18.927l-49.222-123.065
				c-6.172-15.431,1.335-32.945,16.766-39.118c15.436-6.173,32.945,1.335,39.118,16.766l49.222,123.065
				c6.172,15.431-1.335,32.945-16.766,39.118C1905.118,3993.941,1901.334,3994.637,1897.616,3994.637z"></path></g><g><line x1="1631.952" x2="1681.172" y1="3984.903" y2="3861.838" fill="#fff"></line><path fill="#1c5a89" d="M1631.943,4015.005c-3.72,0-7.501-0.696-11.166-2.161c-15.431-6.173-22.938-23.687-16.766-39.118
				l49.22-123.065c6.173-15.429,23.681-22.937,39.118-16.766c15.431,6.173,22.938,23.687,16.766,39.118l-49.22,123.065
				C1655.188,4007.844,1643.887,4015.005,1631.943,4015.005z"></path></g><g><line x1="1631.952" x2="1681.174" y1="2574.583" y2="2697.647" fill="#fff"></line><path fill="#1c5a89" d="M1681.183,2727.751c-11.945,0-23.245-7.159-27.952-18.927l-49.221-123.065
				c-6.172-15.431,1.335-32.945,16.766-39.118c15.434-6.173,32.946,1.335,39.118,16.766l49.221,123.065
				c6.172,15.431-1.335,32.945-16.766,39.118C1688.685,2727.055,1684.902,2727.751,1681.183,2727.751z"></path></g><g><line x1="1897.606" x2="1848.387" y1="2554.213" y2="2677.278" fill="#fff"></line><path fill="#1c5a89" d="M1848.377,2707.381c-3.719,0-7.501-0.696-11.166-2.161c-15.431-6.173-22.938-23.687-16.766-39.118
				l49.219-123.065c6.173-15.429,23.682-22.937,39.118-16.766c15.431,6.173,22.938,23.687,16.766,39.118l-49.219,123.065
				C1871.622,2700.219,1860.321,2707.381,1848.377,2707.381z"></path></g><g><path fill="#fff" d="M4691.463,1959.336c-274.943,35.786-444.724,25.522-553.783,5.933
					c-34.777-6.246-117.467-23.156-186.746,21.037c-67.937,43.337-87.062,122.523-91.487,140.84
					c-25.091,103.881,26.446,201.145,38.52,220.758h834.204"></path><path fill="#1c5a89" d="M4732.174,2377.999h-834.205c-10.448,0-20.149-5.421-25.629-14.319
					c-7.422-12.06-71.672-121.348-42.144-243.599c21.823-90.334,68.904-136.403,104.556-159.146
					c76.97-49.099,166.522-32.854,204.76-25.917l3.488,0.631c138.644,24.906,321.871,22.836,544.578-6.156
					c16.486-2.129,31.583,9.48,33.727,25.958c2.144,16.481-9.477,31.581-25.958,33.727
					c-228.843,29.787-418.263,31.708-562.987,5.711l-3.594-0.65c-33.943-6.158-104.57-18.969-161.647,17.439
					c-26.327,16.795-61.3,51.683-78.416,122.529c-18.981,78.584,11.727,153.13,27.069,183.604h816.401
					c16.621,0,30.093,13.473,30.093,30.093C4762.267,2364.525,4748.795,2377.999,4732.174,2377.999z"></path><polyline fill="#fff" points="4691.606 2656.272 3317.652 2656.272 3319.23 2347.904 4691.606 2347.904"></polyline><path fill="#1c5a89" d="M4691.605,2686.366H3317.651c-8.007,0-15.687-3.191-21.334-8.868
					c-5.647-5.679-8.801-13.371-8.759-21.381l1.578-308.367c0.084-16.561,13.533-29.94,30.093-29.94h1372.376
					c16.621,0,30.093,13.473,30.093,30.093c0,16.62-13.472,30.094-30.093,30.094H3349.17l-1.271,248.181h1343.707
					c16.621,0,30.093,13.472,30.093,30.094C4721.699,2672.894,4708.227,2686.366,4691.605,2686.366z"></path><path fill="#ffa197" d="M3317.775,1710.959c0,0-18.845,467.12,409.444,604.172
					C3727.219,2315.131,3677.537,1882.274,3317.775,1710.959z"></path><path fill="#1c5a89" d="M3727.216,2345.226c-3.073,0-6.163-0.471-9.17-1.432
					c-102.685-32.859-189.339-86.834-257.557-160.424c-54.461-58.75-97.146-129.877-126.873-211.41
					c-50.284-137.909-46.115-257.202-45.911-262.213c0.406-10.103,5.861-19.327,14.519-24.552
					c8.656-5.223,19.353-5.754,28.488-1.405c85.896,40.903,161.832,99.546,225.694,174.298
					c50.776,59.436,94.017,129.087,128.518,207.018c58.574,132.301,71.662,241.989,72.191,246.594
					c1.165,10.152-2.899,20.201-10.795,26.686C3740.862,2342.868,3734.09,2345.226,3727.216,2345.226z M3349.563,1761.712
					c3.471,45.021,13.413,115.802,41.309,191.567c55.584,150.975,155.541,256.952,297.523,315.658
					c-9.253-42.723-27.037-108.787-59.26-181.163C3563.828,1941.087,3469.927,1831.629,3349.563,1761.712z"></path><path fill="#fff" d="M3878.029,2284.736c-221.136-158.46-268.5-367.647-270.833-510.264
					c-1.458-89.145,71.431-161.733,160.587-161.733h0c81.254,0,150.835,60.564,159.392,141.366
					c4.181,39.484,31.892,181.644,100.799,227.387"></path><path fill="#1c5a89" d="M3878.004,2314.832c-6.07,0-12.194-1.829-17.504-5.634
					c-229.698-164.595-280.892-381.367-283.395-534.233c-0.829-50.772,18.428-98.774,54.228-135.163
					c36.261-36.859,84.719-57.158,136.451-57.158c97.771,0,179.159,72.35,189.317,168.291
					c5.261,49.663,34.599,170.355,87.517,205.484c13.848,9.192,17.622,27.87,8.43,41.717c-9.195,13.847-27.878,17.618-41.717,8.427
					c-35.214-23.376-64.299-67.527-86.452-131.228c-17.169-49.373-25.447-97.443-27.63-118.061
					c-6.908-65.244-62.566-114.442-129.465-114.442c-35.467,0-68.69,13.915-93.544,39.18
					c-24.395,24.795-37.518,57.458-36.952,91.969c2.274,139.046,48.927,336.284,258.27,486.293
					c13.511,9.681,16.614,28.48,6.933,41.991C3896.615,2310.466,3887.376,2314.832,3878.004,2314.832z"></path><circle cx="3821.442" cy="1356.982" r="162.749" fill="#fff" transform="rotate(-45.001 3821.445 1357.033)"></circle><path fill="#1c5a89" d="M3821.441,1549.826c-106.333,0-192.842-86.51-192.842-192.843
					c0-106.335,86.509-192.844,192.842-192.844s192.842,86.51,192.842,192.844
					C4014.283,1463.316,3927.775,1549.826,3821.441,1549.826z M3821.441,1224.327c-73.145,0-132.656,59.508-132.656,132.655
					c0,73.146,59.511,132.654,132.656,132.654s132.655-59.508,132.655-132.654
					C3954.097,1283.835,3894.586,1224.327,3821.441,1224.327z"></path><path fill="#fff" d="M3882.6,2324.519c0,0,68.054-194.316,152.935-305.878"></path><path fill="#1c5a89" d="M3882.599,2354.621c-3.299,0-6.655-0.547-9.947-1.7c-15.687-5.493-23.95-22.663-18.455-38.35
					c2.842-8.116,70.625-200.115,157.387-314.152c10.062-13.231,28.945-15.794,42.172-5.728
					c13.226,10.064,15.793,28.944,5.728,42.172c-81.061,106.545-147.816,295.705-148.483,297.604
					C3906.659,2346.861,3895.029,2354.621,3882.599,2354.621z"></path><path fill="#fff" d="M3829.792,1767.672l146.564,135.77l160.841-91.059c31.394-17.773,71.246-6.9,89.263,24.355h0
					c17.891,31.037,7.611,70.686-23.106,89.12l-185.715,111.452c-28.263,16.961-64.284,13.507-88.808-8.518l-213.118-175.721"></path><path fill="#1c5a89" d="M3978.9,2078.233c-25.036,0-49.844-9.015-69.666-26.596l-212.664-175.345
					c-12.825-10.574-14.65-29.54-4.076-42.364c10.571-12.823,29.547-14.646,42.363-4.075l213.119,175.72
					c0.329,0.271,0.649,0.547,0.966,0.83c14.785,13.282,36.171,15.331,53.212,5.104l185.715-111.45
					c16.533-9.922,22.148-31.584,12.519-48.289c-9.723-16.867-31.429-22.781-48.364-13.194l-160.841,91.059
					c-11.402,6.455-25.668,4.79-35.278-4.112l-146.562-135.77c-12.194-11.294-12.921-30.335-1.625-42.528
					c11.296-12.191,30.334-12.919,42.528-1.625l130.426,120.822l141.7-80.223c45.598-25.817,103.993-9.886,130.163,35.512
					c25.914,44.958,10.8,103.255-33.692,129.955l-185.715,111.452C4016.226,2073.254,3997.5,2078.231,3978.9,2078.233z"></path><path fill="#66c5ff" d="M3317.03,3290.296c0,0-18.845,467.12,409.443,604.172
					C3726.473,3894.468,3676.792,3461.612,3317.03,3290.296z"></path><path fill="#1c5a89" d="M3726.471,3924.561c-3.073,0-6.163-0.47-9.17-1.431
					c-102.685-32.859-189.339-86.833-257.557-160.423c-54.461-58.751-97.146-129.877-126.873-211.41
					c-50.284-137.909-46.115-257.203-45.911-262.213c0.406-10.104,5.861-19.328,14.519-24.552
					c8.656-5.224,19.355-5.753,28.488-1.406c85.897,40.903,161.832,99.546,225.694,174.298
					c50.776,59.437,94.017,129.088,128.518,207.02c58.574,132.302,71.662,241.988,72.191,246.593
					c1.165,10.151-2.899,20.201-10.795,26.686C3740.117,3922.203,3733.347,3924.561,3726.471,3924.561z M3348.819,3341.046
					c3.471,45.023,13.413,115.803,41.308,191.569c55.584,150.975,155.541,256.952,297.523,315.656
					c-9.253-42.722-27.037-108.784-59.26-181.162C3563.083,3520.424,3469.182,3410.966,3348.819,3341.046z"></path><rect width="376.154" height="103.324" x="3999.446" y="1670.959" fill="#fff" transform="rotate(-30 4187.386 1722.797)"></rect><path fill="#1c5a89" d="M4050.474,1891.495c-2.608,0-5.227-0.339-7.788-1.026c-7.709-2.065-14.283-7.11-18.273-14.021
					l-51.661-89.481c-8.312-14.394-3.378-32.799,11.014-41.108l325.758-188.078c14.389-8.309,32.797-3.384,41.109,11.015
					l51.663,89.482c3.99,6.912,5.072,15.126,3.007,22.836c-2.065,7.708-7.11,14.282-14.021,18.272l-325.76,188.076
					C4060.907,1890.127,4055.71,1891.495,4050.474,1891.495z M4039.922,1782.934l21.568,37.357l273.635-157.982l-21.57-37.358
					L4039.922,1782.934z"></path><polyline fill="#fff" points="4690.92 4235.609 3319.71 4235.609 3319.71 3927.241 4690.92 3927.241"></polyline><path fill="#1c5a89" d="M4690.919,4265.703H3319.711c-16.621,0-30.093-13.472-30.093-30.093v-308.367
					c0-16.621,13.472-30.093,30.093-30.093h1371.208c16.621,0,30.093,13.472,30.093,30.093s-13.472,30.093-30.093,30.093H3349.804
					v248.181h1341.115c16.621,0,30.093,13.472,30.093,30.093S4707.541,4265.703,4690.919,4265.703z"></path><path fill="#fff" d="M3788.355,3862.039c-221.136-158.46-268.5-367.647-270.833-510.264
					c-1.459-89.145,71.43-161.733,160.587-161.733h0c81.254,0,150.835,60.564,159.392,141.366
					c4.181,39.484,13.51,84.949,31.891,133.343"></path><path fill="#1c5a89" d="M3788.329,3892.134c-6.07,0-12.194-1.829-17.504-5.635
					c-229.696-164.593-280.892-381.365-283.395-534.233c-0.829-50.771,18.428-98.771,54.227-135.163
					c36.261-36.856,84.721-57.156,136.451-57.156c97.768,0,179.158,72.348,189.319,168.29
					c4.541,42.867,14.667,85.203,30.098,125.826c5.9,15.537-1.91,32.918-17.448,38.821c-15.542,5.895-32.915-1.91-38.821-17.447
					c-17.265-45.458-28.599-92.852-33.683-140.862c-6.91-65.241-62.569-114.441-129.467-114.441
					c-35.467,0-68.69,13.915-93.545,39.179c-24.395,24.795-37.518,57.458-36.952,91.969
					c2.274,139.047,48.927,336.285,258.27,486.294c13.511,9.679,16.614,28.48,6.933,41.99
					C3806.939,3887.768,3797.703,3892.134,3788.329,3892.134z"></path><circle cx="3731.767" cy="2934.285" r="162.749" fill="#fff" transform="rotate(-45.001 3731.751 2934.342)"></circle><path fill="#1c5a89" d="M3731.766,3127.128c-106.333,0-192.842-86.509-192.842-192.844
					c0-106.333,86.509-192.842,192.842-192.842c106.336,0,192.844,86.509,192.844,192.842
					C3924.611,3040.62,3838.102,3127.128,3731.766,3127.128z M3731.766,2801.629c-73.145,0-132.656,59.51-132.656,132.655
					c0,73.147,59.51,132.658,132.656,132.658c73.147,0,132.658-59.51,132.658-132.658
					C3864.424,2861.139,3804.914,2801.629,3731.766,2801.629z"></path><path fill="#fff" d="M4048.007,3542.573c46.334-8.1,481.589-10.198,553.781-5.934"></path><path fill="#1c5a89" d="M4047.973,3572.672c-14.35,0-27.055-10.296-29.609-24.916
					c-2.864-16.37,8.088-31.964,24.461-34.826c52.925-9.256,497.804-10.055,560.737-6.333c16.592,0.981,29.248,15.225,28.267,31.817
					c-0.979,16.592-15.181,29.248-31.816,28.267c-75.834-4.484-506.362-1.534-546.823,5.536
					C4051.437,3572.525,4049.692,3572.672,4047.973,3572.672z"></path><g><path fill="#fff" d="M3765.658,3925.207c0,0,68.054-194.317,152.935-305.878"></path><path fill="#1c5a89" d="M3765.658,3955.308c-3.302,0-6.657-0.548-9.949-1.701c-15.685-5.494-23.947-22.662-18.453-38.346
					c2.842-8.118,70.623-200.119,157.387-314.154c10.062-13.234,28.945-15.793,42.171-5.728
					c13.229,10.065,15.793,28.945,5.728,42.171c-80.958,106.405-147.816,295.709-148.482,297.609
					C3789.716,3947.549,3778.085,3955.308,3765.658,3955.308z"></path></g><g><path fill="#fff" d="M3740.118,3344.975l146.563,135.771l160.842-91.06c31.393-17.773,71.246-6.9,89.262,24.355l0,0
					c17.891,31.037,7.612,70.686-23.106,89.12l-185.714,111.452c-28.263,16.962-64.284,13.507-88.808-8.518l-213.118-175.721"></path><path fill="#1c5a89" d="M3889.227,3655.535c-25.034,0.003-49.842-9.017-69.666-26.593l-212.667-175.35
					c-12.826-10.574-14.65-29.54-4.076-42.363c10.578-12.825,29.545-14.645,42.363-4.076l213.119,175.722
					c0.327,0.271,0.649,0.546,0.964,0.828c14.787,13.283,36.17,15.333,53.212,5.106l185.717-111.452
					c16.533-9.922,22.148-31.583,12.519-48.288c-9.726-16.867-31.418-22.784-48.362-13.197l-160.844,91.062
					c-11.402,6.451-25.671,4.792-35.278-4.113l-146.562-135.77c-12.194-11.294-12.921-30.334-1.625-42.528
					c11.296-12.191,30.334-12.917,42.528-1.625l130.426,120.821l141.703-80.222c45.601-25.816,103.99-9.885,130.16,35.516
					c25.914,44.957,10.8,103.253-33.692,129.951l-185.715,111.452C3926.553,3650.557,3907.827,3655.535,3889.227,3655.535z"></path></g><g><rect width="438.549" height="120.463" x="3901.307" y="3216.672" fill="#fff" transform="rotate(-30 4120.374 3277.058)"></rect><path fill="#1c5a89" d="M3960.801,3468.797c-2.608,0-5.227-0.339-7.788-1.025c-7.71-2.065-14.283-7.11-18.273-14.021
					l-60.231-104.325c-8.312-14.394-3.378-32.8,11.014-41.109l379.794-219.275c6.913-3.993,15.134-5.069,22.836-3.007
					c7.709,2.065,14.283,7.11,18.273,14.02l60.231,104.325c8.312,14.394,3.377,32.8-11.014,41.109l-379.794,219.275
					C3971.234,3467.43,3966.037,3468.797,3960.801,3468.797z M3941.679,3345.395l30.137,52.199l327.668-189.181l-30.138-52.199
					L3941.679,3345.395z"></path></g><g><line x1="3313.466" x2="3313.466" y1="4304.748" y2="1573.283" fill="#fff"></line><path fill="#1c5a89" d="M3313.467,4334.841c-16.621,0-30.093-13.472-30.093-30.093V1573.283
				c0-16.62,13.472-30.094,30.093-30.094c16.621,0,30.093,13.474,30.093,30.094v2731.465
				C3343.56,4321.369,3330.088,4334.841,3313.467,4334.841z"></path></g></g><g><polyline fill="#fff" points="3011.248 588.571 3011.248 2294.184 1142.331 2294.184 1142.331 570.426"></polyline><path fill="#1c5a89" d="M3011.248,2324.277H1142.331c-16.62,0-30.094-13.473-30.094-30.093V570.425
				c0-16.62,13.474-30.093,30.094-30.093s30.093,13.473,30.093,30.093V2264.09h1808.73V588.571c0-16.62,13.472-30.093,30.093-30.093
				c16.621,0,30.093,13.473,30.093,30.093v1705.613C3041.341,2310.804,3027.869,2324.277,3011.248,2324.277z"></path><polyline fill="#ffa197" points="2679.224 566.42 3142.387 570.426 2806.276 352.688 2341.165 352.688 1342.289 352.688 1006.178 570.426 1424.993 568.016"></polyline><path fill="#1c5a89" d="M1006.176,600.52c-13.295,0-25.024-8.729-28.833-21.48c-3.827-12.808,1.254-26.604,12.473-33.872
				l336.112-217.737c4.874-3.157,10.555-4.836,16.362-4.836h1463.987c5.807,0,11.488,1.679,16.361,4.836l336.113,217.737
				c11.23,7.277,16.309,21.096,12.459,33.914c-3.823,12.732-15.547,21.439-28.82,21.439c-0.089,0-0.175-0.001-0.263-0.001
				l-463.163-4.006c-16.619-0.144-29.975-13.734-29.833-30.354c0.145-16.619,13.651-29.943,30.354-29.833l359.719,3.111
				l-241.823-156.654H1351.184L1108.895,539.74l315.924-1.817c16.635-0.168,30.172,13.301,30.267,29.92
				c0.096,16.62-13.3,30.171-29.92,30.267l-418.816,2.409C1006.293,600.52,1006.234,600.52,1006.176,600.52z"></path><polyline fill="#fff" points="2679.224 566.42 2057.5 199.836 1424.993 568.016"></polyline><path fill="#1c5a89" d="M1425.021,598.116c-10.363,0-20.448-5.358-26.037-14.959c-8.361-14.364-3.495-32.788,10.87-41.149
				l632.506-368.18c9.411-5.476,21.045-5.444,30.424,0.086l621.722,366.583c14.318,8.441,19.082,26.89,10.64,41.208
				c-8.44,14.315-26.885,19.086-41.208,10.638l-606.537-357.628l-617.27,359.31C1435.37,596.797,1430.161,598.115,1425.021,598.116z
				"></path><polyline fill="#fff" points="2532.117 80.516 2814.165 170.561 2532.117 247.715"></polyline><path fill="#1c5a89" d="M2532.1,277.817c-13.226,0-25.351-8.788-29.009-22.161c-4.387-16.031,5.054-32.582,21.086-36.968
				l184.068-50.351l-185.28-59.152c-15.832-5.054-24.571-21.988-19.515-37.821c5.052-15.833,21.993-24.567,37.82-19.516
				l282.048,90.045c12.698,4.054,21.214,15.976,20.936,29.301c-0.28,13.326-9.293,24.879-22.148,28.396l-282.048,77.153
				C2537.401,277.469,2534.728,277.817,2532.1,277.817z"></path><polyline fill="#fff" points="1603.225 585.982 2053.412 305.705 2497.517 586.907"></polyline><path fill="#1c5a89" d="M2497.488,617.005c-5.505,0-11.075-1.509-16.071-4.672l-428.141-271.094L1619.131,611.53
				c-14.111,8.779-32.669,4.467-41.454-9.643c-8.784-14.109-4.467-32.667,9.643-41.452l450.188-280.277
				c9.807-6.105,22.244-6.058,32.003,0.122l444.104,281.202c14.042,8.892,18.219,27.482,9.327,41.525
				C2517.215,612.052,2507.457,617.004,2497.488,617.005z"></path><polyline fill="#66c5ff" points="1813.69 2268.017 1813.69 1858.708 2339.889 1858.708 2339.889 2270.986"></polyline><path fill="#1c5a89" d="M2339.889,2301.081c-16.62,0-30.095-13.474-30.095-30.094v-382.183h-466.01v379.215
				c0,16.62-13.474,30.093-30.094,30.093s-30.094-13.473-30.094-30.093v-409.309c0-16.62,13.474-30.094,30.094-30.094h526.199
				c16.62,0,30.094,13.474,30.094,30.094v412.278C2369.983,2287.606,2356.509,2301.081,2339.889,2301.081z"></path><rect width="263.897" height="263.897" x="1318.086" y="854.935" fill="#fcdf90"></rect><path fill="#1c5a89" d="M1581.983,1148.926h-263.897c-16.62,0-30.095-13.474-30.095-30.094V854.935
				c0-16.62,13.474-30.095,30.095-30.095h263.897c16.62,0,30.094,13.475,30.094,30.095v263.896
				C1612.078,1135.451,1598.603,1148.926,1581.983,1148.926z M1348.179,1088.738h203.711V885.03h-203.711V1088.738z"></path><rect width="263.897" height="263.897" x="1735.923" y="854.935" fill="#fcdf90"></rect><path fill="#1c5a89" d="M1999.819,1148.926h-263.896c-16.62,0-30.094-13.474-30.094-30.094V854.935
				c0-16.62,13.474-30.095,30.094-30.095h263.896c16.62,0,30.095,13.475,30.095,30.095v263.896
				C2029.914,1135.451,2016.439,1148.926,1999.819,1148.926z M1766.017,1088.738h203.708V885.03h-203.708V1088.738z"></path><rect width="263.897" height="263.897" x="2153.759" y="854.935" fill="#fcdf90"></rect><path fill="#1c5a89" d="M2417.656,1148.926H2153.76c-16.62,0-30.094-13.474-30.094-30.094V854.935
				c0-16.62,13.474-30.095,30.094-30.095h263.896c16.62,0,30.094,13.475,30.094,30.095v263.896
				C2447.75,1135.451,2434.275,1148.926,2417.656,1148.926z M2183.854,1088.738h203.708V885.03h-203.708V1088.738z"></path><rect width="263.897" height="263.897" x="2571.596" y="854.935" fill="#fcdf90"></rect><path fill="#1c5a89" d="M2835.492,1148.926h-263.897c-16.621,0-30.093-13.474-30.093-30.094V854.935
				c0-16.62,13.472-30.095,30.093-30.095h263.897c16.621,0,30.093,13.475,30.093,30.095v263.896
				C2865.585,1135.451,2852.113,1148.926,2835.492,1148.926z M2601.688,1088.738h203.711V885.03h-203.711V1088.738z"></path><rect width="263.897" height="263.897" x="1318.086" y="1377.516" fill="#fcdf90"></rect><path fill="#1c5a89" d="M1581.983,1671.507h-263.897c-16.62,0-30.095-13.474-30.095-30.094v-263.897
				c0-16.62,13.474-30.094,30.095-30.094h263.897c16.62,0,30.094,13.474,30.094,30.094v263.897
				C1612.078,1658.033,1598.603,1671.507,1581.983,1671.507z M1348.179,1611.319h203.711v-203.711h-203.711V1611.319z"></path><rect width="263.897" height="263.897" x="1735.923" y="1377.516" fill="#fcdf90"></rect><path fill="#1c5a89" d="M1999.819,1671.507h-263.896c-16.62,0-30.094-13.474-30.094-30.094v-263.897
				c0-16.62,13.474-30.094,30.094-30.094h263.896c16.62,0,30.095,13.474,30.095,30.094v263.897
				C2029.914,1658.033,2016.439,1671.507,1999.819,1671.507z M1766.017,1611.319h203.708v-203.711h-203.708V1611.319z"></path><rect width="263.897" height="263.897" x="2153.759" y="1377.516" fill="#fcdf90"></rect><path fill="#1c5a89" d="M2417.656,1671.507H2153.76c-16.62,0-30.094-13.474-30.094-30.094v-263.897
				c0-16.62,13.474-30.094,30.094-30.094h263.896c16.62,0,30.094,13.474,30.094,30.094v263.897
				C2447.75,1658.033,2434.275,1671.507,2417.656,1671.507z M2183.854,1611.319h203.708v-203.711h-203.708V1611.319z"></path><g><rect width="263.897" height="263.897" x="2571.596" y="1377.516" fill="#fcdf90"></rect><path fill="#1c5a89" d="M2835.492,1671.507h-263.897c-16.621,0-30.093-13.474-30.093-30.094v-263.897
				c0-16.62,13.472-30.094,30.093-30.094h263.897c16.621,0,30.093,13.474,30.093,30.094v263.897
				C2865.585,1658.033,2852.113,1671.507,2835.492,1671.507z M2601.688,1611.319h203.711v-203.711h-203.711V1611.319z"></path></g><g><line x1="2085.862" x2="2085.862" y1="1858.708" y2="2294.184" fill="#fff"></line><path fill="#1c5a89" d="M2085.862,2324.278c-16.62,0-30.094-13.474-30.094-30.094v-435.475
				c0-16.62,13.475-30.093,30.094-30.093c16.62,0,30.094,13.473,30.094,30.093v435.475
				C2115.957,2310.804,2102.482,2324.278,2085.862,2324.278z"></path></g><g><line x1="2521.337" x2="2521.337" y1="352.688" y2="80.516" fill="#fff"></line><path fill="#1c5a89" d="M2521.337,382.783c-16.621,0-30.094-13.474-30.094-30.094V80.516
				c0-16.62,13.473-30.095,30.094-30.095c16.621,0,30.093,13.474,30.093,30.095v272.172
				C2551.431,369.309,2537.958,382.783,2521.337,382.783z"></path></g><g><ellipse cx="2049.572" cy="497.847" fill="#fff" rx="54.435" ry="54.434" transform="rotate(-61.844 2049.533 497.81)"></ellipse><path fill="#1c5a89" d="M2049.573,582.376c-46.61,0-84.53-37.92-84.53-84.53c0-46.609,37.92-84.529,84.53-84.529
				c46.609,0,84.528,37.92,84.528,84.529C2134.101,544.456,2096.181,582.376,2049.573,582.376z M2049.573,473.507
				c-13.422,0-24.341,10.918-24.341,24.34c0,13.422,10.919,24.342,24.341,24.342c13.421,0,24.341-10.92,24.341-24.342
				C2073.913,484.424,2062.994,473.507,2049.573,473.507z"></path></g></g></svg>