<svg xmlns="http://www.w3.org/2000/svg" width="48" height="48" enable-background="new 0 0 48 48" viewBox="0 0 48 48" id="sell-home"><rect width="3" height="8" x="6.5" y="13.49" fill="#ff80ab"></rect><polygon fill="#b3e5fc" points="33.5 23.49 31.5 23.49 31.5 45.49 4.5 45.49 4.5 23.49 2.5 23.49 18 9.49"></polygon><rect width="29" height="2" x="3.5" y="23.5" fill="#ffe57f"></rect><rect width="7" height="8" x="20.5" y="32.5" fill="#fff"></rect><rect width="7" height="4" x="20.5" y="32.5" fill="#89ffe3"></rect><rect width="12" height="13" x="4.5" y="32.5" fill="#ffe57f"></rect><polygon fill="#ff80ab" points="13.5 28.5 17.5 33.5 3.5 33.5 7.5 28.5"></polygon><path fill="#64ffda" d="M13.5,38.5v7h-6v-7c0-1.66,1.34-3,3-3c0.83,0,1.58,0.34,2.12,0.88S13.5,37.67,13.5,38.5z"></path><path fill="#fff" d="M18,16c1.1,0,2,0.9,2,2s-0.9,2-2,2s-2-0.9-2-2S16.9,16,18,16z"></path><polygon fill="#ffe57f" points="45.5 9.5 31.5 9.5 31.5 6.5 43 6.5"></polygon><path fill="#fff8e1" d="M36.5,8h-2.69c-0.28,0-0.5-0.22-0.5-0.5S33.54,7,33.81,7h2.69c0.28,0,0,0.22,0,0.5S36.78,8,36.5,8z"></path><path fill="#fff8e1" d="M41.53,8h-4.88c-0.28,0-0.5-0.22-0.5-0.5S36.38,7,36.66,7h4.88c0.28,0,0.5,0.22,0.5,0.5S41.81,8,41.53,8z"></path><path fill="#ffe57f" d="M29,2.5c-3.04,0-5.5,2.46-5.5,5.5s2.46,5.5,5.5,5.5s5.5-2.46,5.5-5.5S32.04,2.5,29,2.5z M27.5,10
					c-1.1,0-2-0.9-2-2s0.9-2,2-2s2,0.9,2,2S28.6,10,27.5,10z"></path><path fill="#fff8e1" d="M24.5,8.5C24.22,8.5,24,8.28,24,8c0-2.76,2.24-5,5-5c0.24,0,0.48,0.02,0.71,0.05
					c0.27,0.04,0.46,0.29,0.43,0.56s-0.29,0.46-0.56,0.43C29.38,4.01,29.19,4,29,4c-2.21,0-4,1.79-4,4C25,8.28,24.78,8.5,24.5,8.5z"></path><path fill="#fff" d="M24.52,8.96c-0.25,0-0.47-0.19-0.5-0.45C24.01,8.34,24,8.17,24,8c0-0.28,0.22-0.5,0.5-0.5S25,7.72,25,8
					c0,0.14,0.01,0.28,0.02,0.41c0.03,0.28-0.17,0.52-0.45,0.55C24.56,8.96,24.54,8.96,24.52,8.96z"></path><rect width="2" height="3" x="42.5" y="9.5" fill="#ffe57f"></rect><path fill="#fff8e1" d="M42.5,13c-0.28,0-0.5-0.22-0.5-0.5V9.59c0-0.28,0.22-0.5,0.5-0.5S43,9.32,43,9.59v2.91
					C43,12.78,42.78,13,42.5,13z"></path><rect width="2" height="3" x="38.5" y="9.5" fill="#ffe57f"></rect><path fill="#fff8e1" d="M38.5,13c-0.28,0-0.5-0.22-0.5-0.5v-3C38,9.22,38.22,9,38.5,9S39,9.22,39,9.5v3C39,12.78,38.78,13,38.5,13
					z"></path><path fill="#0277bd" d="M6.5 20.39c-.28 0-.5-.22-.5-.5v-6.4c0-.28.22-.5.5-.5h3c.28 0 .5.22.5.5v3.6c0 .28-.22.5-.5.5S9 17.37 9 17.09v-3.1H7v5.9C7 20.17 6.78 20.39 6.5 20.39zM31.5 45.99c-.28 0-.5-.22-.5-.5V25.5c0-.28.22-.5.5-.5s.5.22.5.5v19.99C32 45.77 31.78 45.99 31.5 45.99zM4.5 32.69c-.28 0-.5-.22-.5-.5V25.5C4 25.22 4.22 25 4.5 25S5 25.22 5 25.5v6.69C5 32.47 4.78 32.69 4.5 32.69z"></path><path fill="#e1f5fe" d="M5.9,22.28c-0.14,0-0.27-0.06-0.37-0.17c-0.19-0.21-0.17-0.52,0.04-0.71l11.38-10.28
				c0.2-0.18,0.52-0.17,0.71,0.04c0.19,0.21,0.17,0.52-0.04,0.71L6.23,22.15C6.13,22.24,6.01,22.28,5.9,22.28z"></path><path fill="#0277bd" d="M33.5,23.99h-2c-0.28,0-0.5-0.22-0.5-0.5s0.22-0.5,0.5-0.5h0.7L18,10.16L3.8,22.99h0.7
				c0.28,0,0.5,0.22,0.5,0.5s-0.22,0.5-0.5,0.5h-2c-0.21,0-0.39-0.13-0.47-0.32s-0.02-0.41,0.13-0.55l15.5-14
				c0.19-0.17,0.48-0.17,0.67,0l15.5,14c0.15,0.14,0.21,0.36,0.13,0.55S33.71,23.99,33.5,23.99z"></path><path fill="#0277bd" d="M32.5 26h-29C3.22 26 3 25.78 3 25.5v-2C3 23.22 3.22 23 3.5 23h29c.28 0 .5.22.5.5v2C33 25.78 32.78 26 32.5 26zM4 25h28v-1H4V25zM28.5 41h-9c-.28 0-.5-.22-.5-.5s.22-.5.5-.5h9c.28 0 .5.22.5.5S28.78 41 28.5 41z"></path><path fill="#0277bd" d="M27.5,41h-7c-0.28,0-0.5-0.22-0.5-0.5v-8c0-0.28,0.22-0.5,0.5-0.5h7c0.28,0,0.5,0.22,0.5,0.5v8
				C28,40.78,27.78,41,27.5,41z M21,40h6v-7h-6V40z"></path><path fill="#0277bd" d="M27.5,37h-7c-0.28,0-0.5-0.22-0.5-0.5v-4c0-0.28,0.22-0.5,0.5-0.5h7c0.28,0,0.5,0.22,0.5,0.5v4
				C28,36.78,27.78,37,27.5,37z M21,36h6v-3h-6V36z"></path><path fill="#fff8e1" d="M5.5,44C5.22,44,5,43.78,5,43.5v-8C5,35.22,5.22,35,5.5,35S6,35.22,6,35.5v8C6,43.78,5.78,44,5.5,44z"></path><path fill="#0277bd" d="M16.5,46h-12C4.22,46,4,45.78,4,45.5v-12C4,33.22,4.22,33,4.5,33S5,33.22,5,33.5V45h11V33.5
				c0-0.28,0.22-0.5,0.5-0.5s0.5,0.22,0.5,0.5v12C17,45.78,16.78,46,16.5,46z"></path><path fill="#0277bd" d="M17.52 34c-.01 0-.01 0-.02 0h-14c-.19 0-.37-.11-.45-.28-.08-.17-.06-.38.06-.53l4-5C7.2 28.07 7.35 28 7.5 28h6c.15 0 .3.07.39.19l3.93 4.91c.12.09.2.24.2.4C18.02 33.78 17.8 34 17.52 34zM4.54 33h11.92l-3.2-4H7.74L4.54 33zM13.5 46h-6C7.22 46 7 45.78 7 45.5v-7c0-1.93 1.57-3.5 3.5-3.5.93 0 1.81.36 2.47 1.03C13.64 36.69 14 37.57 14 38.5v7C14 45.78 13.78 46 13.5 46zM8 45h5v-6.5c0-.67-.26-1.29-.73-1.77S11.17 36 10.5 36C9.12 36 8 37.12 8 38.5V45zM18 20.5c-1.38 0-2.5-1.12-2.5-2.5s1.12-2.5 2.5-2.5 2.5 1.12 2.5 2.5S19.38 20.5 18 20.5zM18 16.5c-.83 0-1.5.67-1.5 1.5s.67 1.5 1.5 1.5 1.5-.67 1.5-1.5S18.83 16.5 18 16.5z"></path><path fill="#0277bd" d="M19.17 19.04c-.81 0-1.49-.25-1.98-.73-.2-.2-.2-.51 0-.71s.51-.2.71 0c.51.51 1.49.58 2.69.18 1.33-.44 2.76-1.39 4.03-2.65 1.27-1.27 2.21-2.7 2.65-4.03.4-1.2.33-2.17-.18-2.69-.31-.32-.78-.47-1.4-.44-.25.01-.51-.2-.52-.48-.01-.28.2-.51.48-.52.89-.03 1.64.22 2.15.73.8.8.95 2.12.42 3.71-.49 1.47-1.52 3.04-2.9 4.42-1.38 1.38-2.95 2.4-4.42 2.9C20.28 18.93 19.7 19.04 19.17 19.04zM21.1 10.06c-.15 0-.29-.06-.39-.19-.17-.21-.14-.53.07-.7.72-.58 1.46-1.07 2.21-1.44.25-.12.55-.02.67.23.12.25.02.55-.23.67-.68.34-1.36.78-2.02 1.32C21.32 10.02 21.21 10.06 21.1 10.06zM45.5 46h-29c-.28 0-.5-.22-.5-.5s.22-.5.5-.5h29c.28 0 .5.22.5.5S45.78 46 45.5 46zM36.52 7h-2.11c-.28 0-.5-.22-.5-.5S34.14 6 34.42 6h2.11c.28 0 0 .22 0 .5S36.8 7 36.52 7z"></path><path fill="#0277bd" d="M45.5,10h-8.98c-0.28,0-0.5-0.22-0.5-0.5S36.24,9,36.52,9h7.91l-1.67-2h-6.2c-0.28,0-0.5-0.22-0.5-0.5
					S36.29,6,36.56,6H43c0.15,0,0.29,0.07,0.38,0.18l2.5,3c0.12,0.15,0.15,0.36,0.07,0.53C45.87,9.89,45.69,10,45.5,10z"></path><path fill="#0277bd" d="M36.98,10h-2.63c-0.28,0-0.5-0.22-0.5-0.5S34.08,9,34.35,9h2.63c0.28,0,0.5,0.22,0.5,0.5
					S37.26,10,36.98,10z"></path><path fill="#0277bd" d="M29 14c-3.31 0-6-2.69-6-6s2.69-6 6-6c3.09 0 5.66 2.32 5.97 5.39C35 7.66 34.8 7.91 34.52 7.93 34.25 7.97 34 7.76 33.97 7.49 33.71 4.93 31.57 3 29 3c-2.76 0-5 2.24-5 5s2.24 5 5 5c2.2 0 4.11-1.41 4.77-3.5.08-.26.36-.41.63-.33.26.08.41.36.33.63C33.94 12.31 31.64 14 29 14zM27.5 10.5C26.12 10.5 25 9.38 25 8s1.12-2.5 2.5-2.5S30 6.62 30 8 28.88 10.5 27.5 10.5zM27.5 6.5C26.67 6.5 26 7.17 26 8s.67 1.5 1.5 1.5S29 8.83 29 8 28.33 6.5 27.5 6.5zM44.5 13h-2c-.28 0-.5-.22-.5-.5v-1.05c0-.28.22-.5.5-.5s.5.22.5.5V12h1V9.98c0-.28.22-.5.5-.5S45 9.7 45 9.98v2.52C45 12.78 44.78 13 44.5 13zM40.5 13h-2c-.28 0-.5-.22-.5-.5v-.98c0-.28.22-.5.5-.5s.5.22.5.5V12h1V9.54c0-.28.22-.5.5-.5S41 9.26 41 9.54v2.96C41 12.78 40.78 13 40.5 13z"></path></svg>