<svg xmlns="http://www.w3.org/2000/svg" enable-background="new 0 0 100 100" viewBox="0 0 100 100"><path fill="#f7c737" d="M78.13842,46.3143c-1.44328,2.49819-3.40883,4.57162-5.70735,6.13374l1.31094,3.94461
				c0.20061,0.60365-0.08571,1.26148-0.6642,1.52602l-2.79707,1.27906c-0.57912,0.26482-1.26472,0.05033-1.58966-0.49733
				l-2.12334-3.57876c-2.67587,0.72025-5.52989,0.85074-8.36359,0.30836l-1.85213,3.71173
				c-0.28438,0.5699-0.9528,0.83357-1.54966,0.61129l-2.88349-1.07385c-0.59687-0.22228-0.93-0.85894-0.77232-1.47603
				l1.02692-4.01905c-2.4982-1.44328-4.57162-3.40883-6.12454-5.70393l-3.947,1.31808
				c-0.604,0.20171-1.2629-0.08451-1.52773-0.66363l-1.27906-2.79707c-0.26454-0.57849-0.05082-1.26336,0.49577-1.58874
				l3.57179-2.12622c-0.71682-2.68507-0.84731-5.53909-0.30493-8.37279l-3.71173-1.85213
				c-0.5699-0.28438-0.83357-0.9528-0.61129-1.54967l1.07042-2.87428c0.22228-0.59687,0.85895-0.93,1.47604-0.77232l4.01902,1.02696
				c1.4433-2.49825,3.40885-4.57168,5.70737-6.13379l-1.31094-3.94461c-0.20061-0.60364,0.08571-1.26148,0.6642-1.52601
				l2.79707-1.27906c0.57912-0.26482,1.26472-0.05033,1.58966,0.49732l2.12335,3.57876
				c2.67587-0.72025,5.52989-0.85074,8.36359-0.30836l1.85565-3.72064c0.28431-0.57005,0.95282-0.83383,1.54977-0.61151
				l2.88308,1.07369c0.59695,0.22231,0.93008,0.85912,0.77225,1.47627l-1.03008,4.02809
				c2.4982,1.44328,4.57162,3.40883,6.12454,5.70393l3.947-1.31809c0.604-0.20171,1.2629,0.08451,1.52773,0.66363l1.27906,2.79707
				c0.26453,0.57849,0.05082,1.26336-0.49577,1.58874l-3.57178,2.12621c0.71682,2.68507,0.84731,5.53909,0.30491,8.37285
				l3.71173,1.85208c0.56992,0.28437,0.83359,0.9528,0.61131,1.54967l-1.07042,2.87428
				c-0.22228,0.59687-0.85893,0.93-1.47603,0.77232L78.13842,46.3143z"/><path fill="#ef425e" d="M54.82855,59.76584c0.47346-0.11217,0.94692-0.2492,1.40791-0.39871l-0.07475,0.16198
				c-0.17437,0.34882-0.58555,0.5108-0.95931,0.37376L54.82855,59.76584z"/><path fill="#e5ac20" d="M71.26234,20.35714c2.50433,1.44524,4.57261,3.41383,6.13002,5.70637l4.36075-1.45779
				c0.36129-0.12456,0.77247,0.04988,0.93445,0.41118l1.4573,3.19271c0.26432,0.57909,0.04962,1.26429-0.49789,1.589l-3.5759,2.1207
				c0.72266,2.69125,0.84722,5.54439,0.31149,8.37267l3.71276,1.85073c0.57038,0.28432,0.83424,0.95324,0.61156,1.55038
				l-1.22198,3.27703c-0.13703,0.37376-0.53574,0.57315-0.9095,0.47346l-4.4355-1.13376
				c-1.44524,2.50425-3.41383,4.57253-5.70638,6.14241l1.3083,3.93604c0.20033,0.60266-0.08472,1.25956-0.66171,1.52493
				l-2.79671,1.2863c-0.57957,0.26656-1.26685,0.0523-1.59226-0.4964l-2.12589-3.58464
				c-0.92197,0.2492-1.86889,0.42365-2.82828,0.52334c6.64082-4.73458,11.8336-12.56348,10.97662-21.31788"/><path fill="#ffe268" d="M56.65693,58.54549l-0.30345,0.60271c-0.2855,0.56706-0.95173,0.82876-1.54684,0.60761l-3.29222-1.22342
				c-0.36129-0.13711-0.57315-0.53582-0.47346-0.90958l1.13384-4.4355c-2.50433-1.44524-4.57261-3.41383-6.13002-5.70637
				l-3.94256,1.32177c-0.60521,0.2029-1.26587-0.08441-1.53016-0.66544l-1.27647-2.80629
				c-0.2633-0.57886-0.0484-1.26312,0.49857-1.58751l3.57191-2.11833c-0.72266-2.69125-0.84722-5.5444-0.31148-8.37267
				l-3.71276-1.85073c-0.57038-0.28432-0.83424-0.95324-0.61157-1.55038l1.22198-3.27704
				c0.13704-0.37376,0.53574-0.57315,0.9095-0.48593l4.4355,1.13384c1.44524-2.49186,3.41383-4.56014,5.70637-6.13002
				l-1.3083-3.93604c-0.20032-0.60267,0.08472-1.25956,0.66171-1.52493l2.79671-1.2863
				c0.57957-0.26656,1.26686-0.0523,1.59226,0.4964l2.12589,3.58464c0.37376-0.0997,0.7476-0.18692,1.13384-0.26167
				c-5.80607,4.79679-9.50644,12.06057-9.50644,20.18405c0,7.34398,3.0231,13.98074,7.90139,18.74209
				C56.79252,57.47288,56.90315,58.05643,56.65693,58.54549z"/><circle cx="61.721" cy="36.767" r="10.069" fill="#fff"/><path fill="#fff" d="M62.71025,82.64265l23.74137-10.57183c2.46271-1.10232,5.34716,0.00348,6.45868,2.47603v0.00001
				c1.08592,2.41561,0.08385,5.26375-2.26999,6.45186L65.86803,93.50262c-4.39548,2.21864-9.24431,3.37389-14.16095,3.37389
				h-0.00001c-3.78978,0-7.54867-0.68647-11.09716-2.02661l-15.7149-5.935V67.61922h1.48355
				c3.82959,0,7.59323,1.00383,10.92083,2.91278h0.00001c3.3276,1.90895,7.09125,2.91278,10.92083,2.91278h11.63844
				c2.7687,0,5.01317,2.26044,5.01317,5.04882v0.00001c0,2.78839-2.24447,5.04882-5.01317,5.04882H42.63393"/><path fill="#d8eaf8" d="M59.86263,76.57215H48.21851c-1.91723,0-3.81565-0.25377-5.64822-0.74249
				c-1.83263-0.48872-3.60887-1.21238-5.27234-2.171c-3.32688-1.90783-7.08609-2.91337-10.92051-2.91337H24.8926v-3.1295h1.48485
				c3.83441,0,7.59362,1.00554,10.92051,2.91337c1.66347,0.94921,3.43971,1.68217,5.27234,2.17088
				c1.83257,0.48872,3.73099,0.74249,5.64822,0.74249h11.64412c2.76302,0,5.00916,2.26495,5.00916,5.04674
				c0,0.54504-0.0846,1.07139-0.25376,1.56951C63.96956,78.03819,62.0806,76.57215,59.86263,76.57215z"/><path fill="#d8eaf8" d="M93.3478,76.59097c0,1.81375-0.99619,3.54296-2.70663,4.40762L65.86798,93.49801
				c-4.39827,2.22721-9.24769,3.37386-14.16284,3.37386c-3.78738,0-7.54659-0.68615-11.09907-2.02059L24.8926,88.91165V86.7971
				l12.3208,4.6615c3.55243,1.33456,7.31164,2.03001,11.09907,2.03001c4.91515,0,9.76456-1.15594,14.16283-3.37398
				l24.77319-12.50871c1.71045-0.86466,2.70664-2.59386,2.70664-4.40774c0-0.45109-0.0658-0.91158-0.19738-1.36266
				c1.34391,0.36653,2.52807,1.32504,3.14838,2.71604C93.20687,75.20937,93.3478,75.90482,93.3478,76.59097z"/><path fill="#72dbd4" d="M7.00945,61.8648h15.87991c1.10355,0,1.99815,0.8946,1.99815,1.99815v28.37835
				c0,1.10355-0.8946,1.99815-1.99815,1.99815H7.00945c-1.10355,0-1.99815-0.89461-1.99815-1.99815V63.86294
				C5.0113,62.7594,5.9059,61.8648,7.00945,61.8648z"/><path fill="#6cc6c6" d="M24.88793,63.86251v28.38372c0,1.09895-0.89919,1.99815-1.99815,1.99815h-4.93543
				c1.10896,0,1.99815-0.89919,1.99815-1.99815V63.86251c0-1.09896-0.88919-1.99815-1.99815-1.99815h4.93543
				C23.98874,61.86436,24.88793,62.76356,24.88793,63.86251z"/><path fill="#c7f1ed" d="M10.50124,94.24438H7.00449c-1.09896,0-1.99815-0.89919-1.99815-1.99815V63.86251
				c0-1.09896,0.89919-1.99815,1.99815-1.99815h3.49676c-1.09896,0-1.99815,0.89919-1.99815,1.99815v28.38372
				C8.5031,93.34519,9.40229,94.24438,10.50124,94.24438z"/><path fill="#fff" d="M17.87688,68.93877c0,1.88602-1.52264,3.40195-3.37782,3.40195c-1.8727,0-3.39534-1.51593-3.39534-3.40195
				c0-1.8859,1.52264-3.41948,3.39534-3.41948C16.35424,65.51929,17.87688,67.05286,17.87688,68.93877z"/><path fill="#d8eaf8" d="M15.77638,72.08487c-0.38965,0.16989-0.82925,0.25977-1.27884,0.25977
				c-1.86826,0-3.39681-1.51862-3.39681-3.40688c0-1.88815,1.52855-3.41676,3.39681-3.41676
				c0.4496,0,0.88919,0.08988,1.27884,0.25977c-1.23884,0.49954-2.10803,1.72838-2.10803,3.15699
				C13.66835,70.36649,14.53754,71.58533,15.77638,72.08487z"/><path fill="#215" d="M84.54153,41.25489l-3.04999-1.53003c0.37-2.44,0.27997-4.90002-0.27002-7.32001l2.94-1.75
				c0.98999-0.58997,1.37-1.82001,0.89001-2.87l-1.28003-2.78998c-0.47998-1.04999-1.65997-1.56-2.75-1.20001l-3.23999,1.08002
				c-1.46002-1.97003-3.28998-3.67999-5.35999-4.99005l0.83997-3.31c0.29004-1.10999-0.31-2.25995-1.38995-2.65997l-2.88-1.07001
				c-1.08002-0.39996-2.28003,0.07001-2.80005,1.10004l-1.51996,3.06c-2.42999-0.37006-4.92999-0.28003-7.32001,0.26996
				l-1.73999-2.94c-0.59003-0.98999-1.82001-1.38-2.87-0.89996l-2.80005,1.27997c-1.03998,0.48004-1.56,1.66003-1.19,2.75
				l1.07001,3.23999c-2,1.47003-3.66998,3.28003-4.98999,5.37l-3.29999-0.83997c-1.12-0.28998-2.26001,0.31-2.65997,1.39001
				l-1.07001,2.87c-0.41003,1.07996,0.07001,2.27997,1.09998,2.79999l3.04999,1.52002
				c-0.38,2.44995-0.28998,4.89996,0.26001,7.32996l-2.92999,1.73999c-0.98999,0.59003-1.37,1.82001-0.90002,2.87006
				l1.28003,2.79999c0.47998,1.03998,1.66998,1.56,2.76001,1.19l3.23999-1.08002c1.45001,1.96997,3.27997,3.67999,5.35999,4.98999
				l-0.83997,3.29999c-0.29004,1.12,0.31,2.26001,1.38995,2.66003l2.88,1.08002c0.26001,0.08997,0.53003,0.13995,0.79004,0.13995
				c0.82996,0,1.62-0.45996,2-1.25l1.52997-3.03998c2.41998,0.35999,4.91998,0.27002,7.32001-0.27002l1.73999,2.94
				c0.59003,0.98004,1.82001,1.37,2.87,0.89001l2.79004-1.28003c1.04999-0.46997,1.56-1.65997,1.19995-2.75l-1.07996-3.23999
				c2-1.46997,3.67999-3.26996,5-5.37l3.29999,0.84003c1.10999,0.28998,2.26001-0.31,2.65997-1.39001l1.07001-2.87
				C86.04153,42.96485,85.5715,41.76484,84.54153,41.25489z M82.69149,46.22486c-0.03998,0.10999-0.15997,0.17999-0.28998,0.15002
				l-4.02002-1.03003c-0.42999-0.10999-0.88995,0.08002-1.10999,0.47003c-1.34998,2.32996-3.15997,4.27997-5.39996,5.81
				c-0.37006,0.25-0.53003,0.70996-0.39001,1.13995l1.31,3.94c0.03998,0.12-0.01001,0.25-0.13,0.31l-2.79999,1.27002
				c-0.11005,0.06-0.25,0.01001-0.31-0.08997l-2.12-3.58002c-0.23004-0.39001-0.69-0.58002-1.12-0.46002
				c-2.57001,0.69-5.31006,0.79004-7.92004,0.29004c-0.44-0.08002-0.88,0.13995-1.07996,0.53998l-1.86005,3.71002
				c-0.04999,0.10999-0.17999,0.15997-0.29999,0.12l-2.88-1.07001c-0.12-0.04999-0.19-0.17004-0.15997-0.29004l1.02997-4.01996
				c0.10999-0.44-0.07996-0.89001-0.46997-1.12c-2.29999-1.33002-4.31-3.19-5.79004-5.40002
				c-0.19-0.28003-0.50995-0.44-0.82996-0.44c-0.11005,0-0.22003,0.02002-0.32001,0.06l-3.95001,1.31
				c-0.12,0.03998-0.25-0.01001-0.29999-0.13l-1.28003-2.78998c-0.04999-0.12-0.01001-0.25,0.10004-0.32001l3.57001-2.12
				c0.38995-0.22998,0.56995-0.69,0.45996-1.12c-0.70001-2.62-0.79999-5.28003-0.28998-7.92999
				c0.08002-0.44-0.14001-0.88-0.54004-1.08002l-3.70996-1.84997c-0.10999-0.06-0.16003-0.19-0.12-0.31l1.07001-2.87006
				c0.03998-0.12,0.17999-0.17999,0.28998-0.14996l4.02002,1.02002c0.44,0.12,0.88995-0.08002,1.10999-0.47003
				c1.34998-2.33002,3.16998-4.27997,5.40997-5.79999c0.37-0.25,0.53003-0.72003,0.38-1.15002l-1.31-3.94
				c-0.03998-0.12,0.02002-0.25,0.14001-0.29999l2.78998-1.27997c0.12-0.05005,0.25-0.01001,0.32001,0.09998l2.12,3.58002
				c0.23004,0.38,0.69,0.57001,1.12,0.44995c2.57001-0.68994,5.30005-0.78998,7.92004-0.28998
				c0.44,0.08002,0.88-0.14001,1.07996-0.53998l1.85004-3.72003c0.06-0.10999,0.19-0.15997,0.31-0.12l2.88,1.08002
				c0.12,0.03998,0.19,0.16998,0.14996,0.28998l-1.02997,4.03003c-0.10999,0.42999,0.08002,0.89001,0.46997,1.10999
				c2.31,1.33002,4.31,3.20001,5.80005,5.40002c0.25,0.37,0.71997,0.52997,1.13995,0.38995l3.95001-1.31995
				c0.12-0.05005,0.25,0.01996,0.29999,0.12994l1.28003,2.80005c0.04999,0.10999,0.01001,0.25-0.10004,0.31l-3.56995,2.13
				c-0.38,0.21997-0.57001,0.67999-0.45001,1.10998c1.67999,6.29999-0.71002,8.25,0.82001,9.01001l3.71997,1.84998
				c0.10999,0.06,0.16003,0.19,0.12,0.31L82.69149,46.22486z"/><path fill="#215" d="M71.45046 46.55976c.09668.09082.21973.13574.34277.13574.13281 0 .26563-.05273.36426-.15723 3.07627-3.26925 4.37344-7.71586 3.68848-12.00684-.04395-.27344-.29883-.45703-.57324-.41504-.27246.04395-.45801.30078-.41504.57324.63658 3.97778-.56219 8.11697-3.42871 11.16309C71.23952 46.0539 71.24929 46.3703 71.45046 46.55976zM67.68484 48.64765c-1.19922.60449-2.47461 1.02246-3.79102 1.24316-.27246.0459-.45605.30371-.41016.57617.04102.24414.25293.41699.49219.41699.02832 0 .05566-.00195.08398-.00684 1.41504-.2373 2.78613-.6875 4.07422-1.33691.24707-.12402.3457-.4248.22168-.6709C68.23074 48.62128 67.92605 48.5246 67.68484 48.64765zM71.56155 32.26484c-1.20001-2.63-3.36005-4.63-6.07001-5.63995-5.60004-2.08002-11.82001.75995-13.91003 6.36999-1.01001 2.70001-.89996 5.63995.29999 8.26996 2.48004 5.43005 8.89001 7.83002 14.34003 5.34003C71.66152 44.11487 74.04153 37.70484 71.56155 32.26484zM65.60152 45.24488c-4.67999 2.13995-10.21002.07996-12.35999-4.60004-1.03003-2.26996-1.12-4.79999-.25-7.13 1.78998-4.81 7.13-7.28998 11.97998-5.47998 2.33002.87 4.19 2.59003 5.21997 4.85998C72.34151 37.57483 70.28152 43.09485 65.60152 45.24488zM92.52468 48.81659c.09277.03906.18945.05664.28516.05664.29492 0 .57422-.1748.69336-.46484 1.38965-3.37695 2.22559-6.9502 2.4834-10.61816.0293-.41309-.28223-.77148-.69531-.80078-.40234-.02441-.77148.28125-.80078.69531-.24707 3.50781-1.0459 6.92383-2.37402 10.15332C91.95827 48.22089 92.14187 48.65937 92.52468 48.81659zM66.803 67.80781c-.40918.06348-.68945.44727-.62598.85645.05762.37012.37695.63477.74023.63477.03809 0 .07715-.00293.11621-.00879 8.59961-1.33594 16.3125-5.86036 21.71875-12.73926.25586-.32617.19922-.79785-.12598-1.05371-.32617-.25488-.79785-.19727-1.05371.12598C82.40163 62.20331 75.02566 66.53046 66.803 67.80781zM28.9905 32.78827c.2373-3.06152.89844-6.06543 1.96484-8.92773.14453-.3877-.05273-.82031-.44141-.96484-.38574-.14453-.82031.05371-.96484.44141-1.11426 2.99316-1.80566 6.13477-2.05469 9.33594C27.4171 33.66157 28.91097 33.78986 28.9905 32.78827zM34.67019 16.7248c4.44043-6.45117 11.03223-11.1123 18.56055-13.12402.40039-.10742.6377-.51758.53125-.91797S53.24734 2.04218 52.844 2.15156C44.96999 4.25507 38.07742 9.1291 33.43386 15.87519c-.23438.34082-.14844.80762.19336 1.04297C33.97365 17.15519 34.43869 17.06194 34.67019 16.7248z"/><path fill="#215" d="M93.8215,74.13483c-1.32996-2.95996-4.82001-4.29999-7.77997-2.97998l-20.42999,9.10004
				c0.16998-0.56,0.26001-1.15002,0.26001-1.76001c0-3.34003-2.70001-6.04999-6.01001-6.04999H48.22152
				c-3.65002,0-7.25-0.96002-10.41998-2.78003c-3.48004-1.98999-7.42999-3.04999-11.42004-3.04999H25.8915v-2.75
				c0-1.66003-1.34998-3-3-3h-15.88c-1.65997,0-3,1.33997-3,3v28.38001c0,1.64996,1.34003,2.98999,3,2.98999h15.88
				c1.65002,0,3-1.34003,3-2.98999v-1.89001l14.35999,5.42999c3.68005,1.39001,7.53003,2.09003,11.46002,2.09003
				c5.03998,0,10.10004-1.20001,14.60999-3.48004l24.77002-12.5C93.93154,80.45484,95.13149,77.05488,93.8215,74.13483z
				 M23.8915,92.24488c0,0.54999-0.45001,0.98999-1,0.98999h-15.88c-0.54999,0-1-0.44-1-0.98999V63.86487c0-0.54999,0.45001-1,1-1
				h15.88c0.54999,0,1,0.45001,1,1V92.24488z M90.19149,80.10487l-24.76996,12.5c-4.23999,2.14001-8.98004,3.27002-13.71002,3.27002
				c-3.69,0-7.29999-0.66003-10.75-1.96002l-15.07001-5.69V68.61488h0.48999c3.65002,0,7.25,0.96997,10.42004,2.77997
				c3.46997,2,7.41998,3.05005,11.41998,3.05005h11.64001c2.20996,0,4.01001,1.81995,4.01001,4.04999
				c0,2.21997-1.79004,4.04999-4.01001,4.04999H42.63149c-0.54999,0-1,0.44-1,1c0,0.54999,0.45001,1,1,1h17.23004
				c1.17999,0-1.25,1.10999,27-11.56c1.95001-0.87,4.25,0.01001,5.13995,1.96997
				C92.87154,76.89484,92.0715,79.15485,90.19149,80.10487z"/><path fill="#215" d="M14.10867 89.74238H9.50808v-2.41797c0-.27637-.22363-.5-.5-.5s-.5.22363-.5.5v2.91797c0 .27637.22363.5.5.5h5.10059c.27637 0 .5-.22363.5-.5S14.38503 89.74238 14.10867 89.74238zM14.50149 65.01484c-2.14996 0-3.89996 1.76001-3.89996 3.92004 0 2.15997 1.75 3.90997 3.89996 3.90997 2.14001 0 3.88-1.75 3.88-3.90997C18.38149 66.77485 16.6415 65.01484 14.50149 65.01484zM14.50149 71.84486c-1.59998 0-2.89996-1.31-2.89996-2.90997 0-1.61005 1.29999-2.92004 2.89996-2.92004 1.58002 0 2.88 1.31 2.88 2.92004C17.38149 70.53486 16.0815 71.84486 14.50149 71.84486z"/></svg>