<svg width="800" height="800" viewBox="0 0 800 800" fill="none" xmlns="http://www.w3.org/2000/svg">
<g clip-path="url(#clip0_1_2)">
<path d="M665.143 333.202C658.686 307.378 648.41 282.74 634.708 259.816C630.757 253.229 630.492 245.061 634.05 238.076L670.941 167.721L632.338 129.118L561.983 166.009C555 169.565 546.832 169.302 540.243 165.351C517.45 151.649 492.681 141.371 466.857 134.917C459.347 133.072 453.286 127.406 451.046 119.896L427.462 44.2704H372.915L349.331 120.029C346.959 127.406 341.03 133.072 333.52 135.049C307.696 141.506 283.058 151.781 260.134 165.483C253.547 169.435 245.379 169.7 238.394 166.141L168.041 129.249L129.438 167.853L166.329 238.209C169.885 245.191 169.622 253.36 165.671 259.949C151.969 282.742 141.691 307.51 135.237 333.335C133.392 340.845 127.726 346.906 120.216 349.146L44.4579 372.73V427.276L120.216 450.86C127.594 453.233 133.26 459.161 135.237 466.672C141.693 492.496 151.969 517.264 165.671 540.058C169.622 546.644 169.887 554.813 166.329 561.797L129.438 632.153L168.041 670.755L238.396 633.865C245.116 630.308 253.547 630.571 260.136 634.523C282.93 648.225 307.698 658.503 333.522 664.957C341.032 666.801 347.093 672.467 349.333 679.977L372.917 755.736H427.464L451.048 679.977C453.42 672.6 459.349 666.934 466.859 664.957C492.683 658.501 517.451 648.225 540.245 634.523C546.832 630.571 555 630.306 561.985 633.865L632.34 670.755L670.943 632.153L634.052 561.797C630.496 554.815 630.759 546.647 634.71 540.058C648.412 517.264 658.69 492.496 665.145 466.672C666.989 459.161 672.655 453.1 680.165 450.86L755.923 427.276V372.73L680.165 349.146C672.653 346.773 666.987 340.843 665.143 333.202Z" fill="#56ACE0"/>
<path d="M784.643 335.309L704.933 310.276C698.609 288.669 689.913 267.72 679.109 248.089L717.844 174.045C722.456 165.349 720.742 154.81 713.893 148.09L652.101 86.299C645.119 79.3166 634.578 77.7351 626.147 82.3472L552.1 121.08C532.205 110.277 511.521 101.58 489.913 95.2562L465.011 15.5462C461.982 6.19158 453.418 0 443.799 0H356.711C346.961 0 338.397 6.32405 335.499 15.5462L310.466 95.2562C288.858 101.58 267.909 110.277 248.279 121.08L174.235 82.3452C165.538 77.7331 154.999 79.4471 148.28 86.2969L86.4865 148.09C79.5042 155.073 77.9226 165.614 82.5347 174.045L121.27 248.089C110.466 267.985 101.77 288.669 95.4457 310.276L15.7358 335.179C6.38113 338.21 0.189545 346.773 0.189545 356.391V443.479C0.189545 453.229 6.5136 461.792 15.7358 464.691L95.4457 489.724C101.77 511.331 110.466 532.28 121.27 551.911L82.5347 625.955C77.9226 634.651 79.6366 645.19 86.4865 651.909L148.278 713.701C155.26 720.683 165.801 722.265 174.232 717.653L248.277 678.918C268.172 689.721 288.856 698.418 310.464 704.742L335.364 784.452C338.263 793.806 346.826 799.998 356.576 799.998H443.664C453.414 799.998 461.978 793.674 464.876 784.452L489.777 704.742C511.384 698.418 532.333 689.721 551.964 678.918L626.008 717.653C634.704 722.265 645.243 720.551 651.963 713.701L713.491 652.172C720.473 645.19 722.055 634.649 717.443 626.218L678.708 552.174C689.511 532.278 698.208 511.594 704.532 489.987L784.242 465.086C793.596 462.188 799.788 453.624 799.788 443.874V356.786C800.19 346.773 793.865 338.077 784.643 335.309ZM755.789 427.274L680.03 450.858C672.653 453.231 666.987 459.159 665.01 466.67C658.554 492.494 648.278 517.132 634.576 540.055C630.624 546.642 630.359 554.811 633.918 561.795L670.808 632.151L632.206 670.753L561.85 633.863C554.868 630.306 546.7 630.569 540.111 634.521C517.317 648.223 492.549 658.501 466.725 664.955C459.214 666.799 453.153 672.465 450.913 679.975L427.329 755.734H372.783L349.199 679.975C346.826 672.598 340.898 666.932 333.388 664.955C307.563 658.498 282.795 648.223 260.002 634.521C253.415 630.569 245.246 630.304 238.262 633.863L167.906 670.753L129.304 632.151L166.194 561.795C169.751 554.813 169.488 546.644 165.536 540.055C151.834 517.262 141.557 492.494 135.102 466.67C133.258 459.159 127.592 453.098 120.082 450.858L44.3234 427.274V372.728L120.082 349.144C127.459 346.771 133.125 340.843 135.102 333.332C141.559 307.508 151.834 282.74 165.536 259.947C169.488 253.36 169.753 245.191 166.194 238.207L129.306 167.853L167.908 129.251L238.264 166.141C245.246 169.698 253.415 169.435 260.004 165.483C282.797 151.781 307.565 141.504 333.39 135.049C340.9 133.205 346.961 127.539 349.201 120.029L372.785 44.2704H427.331L450.915 120.029C453.288 127.406 459.216 133.072 466.727 135.049C492.551 141.506 517.189 151.781 540.113 165.483C546.7 169.435 554.868 169.7 561.852 166.141L632.208 129.251L670.81 167.853L633.92 238.209C630.363 245.191 630.626 253.36 634.578 259.949C648.28 282.742 658.558 307.51 665.012 333.335C666.857 340.845 672.522 346.906 680.033 349.146L755.791 372.73V427.274H755.789Z" fill="#194F82"/>
<ellipse cx="400" cy="398" rx="197" ry="194" fill="white"/>
</g>
<defs>
<clipPath id="clip0_1_2">
<rect width="800" height="800" fill="white"/>
</clipPath>
</defs>
</svg>
