<svg width="94" height="94" viewBox="0 0 94 94" fill="none" xmlns="http://www.w3.org/2000/svg">
<rect width="94" height="94" rx="47" fill="#2D76E0" fill-opacity="0.3"/>
<circle cx="47" cy="47" r="37" fill="#2D76E0"/>
<path d="M62.75 55.4375V32.1875H31.25V55.4375H45.125V59.0625H40.375V61.8125H53.625V59.0625H48.875V55.4375H62.75ZM33.375 34.3125H60.5V53.1875H33.375V34.3125ZM47.1534 40.4143V39.4985L46.1935 39.3364C46.1226 39.0226 45.9989 38.7286 45.8321 38.4643L46.3964 37.6711L45.7485 37.0233L44.9554 37.5875C44.6916 37.4208 44.3975 37.2975 44.0833 37.2261L43.9218 36.2667H43.0054L42.8439 37.2261C42.5295 37.2976 42.2355 37.4208 41.9718 37.5875L41.1786 37.0233L40.5308 37.6711L41.095 38.4643C40.9283 38.7286 40.8045 39.0226 40.7336 39.3364L39.7738 39.4985V40.4143L40.7336 40.5758C40.8045 40.8901 40.9283 41.1841 41.095 41.4485L40.5308 42.2416L41.1786 42.8889L41.9718 42.3246C42.2355 42.4914 42.5296 42.6151 42.8439 42.686L43.0054 43.6459H43.9218L44.0833 42.686C44.3976 42.6151 44.6916 42.4914 44.9554 42.3246L45.7485 42.8889L46.3964 42.2416L45.8321 41.4485C45.9989 41.1841 46.1226 40.8901 46.1935 40.5758L47.1534 40.4143ZM43.4631 41.4125C42.6595 41.4125 42.0076 40.7605 42.0076 39.9564C42.0076 39.1523 42.6596 38.5002 43.4631 38.5002C44.2673 38.5002 44.9192 39.1523 44.9192 39.9564C44.9192 40.7606 44.2673 41.4125 43.4631 41.4125ZM53.5299 45.6661L54.6485 44.9719L54.1793 43.8254L52.8949 44.1145C52.6525 43.7683 52.3506 43.4605 51.996 43.2076L52.296 41.9259L51.1535 41.447L50.4499 42.5594C50.021 42.4837 49.5898 42.4843 49.173 42.5541L48.4788 41.4355L47.3323 41.9047L47.6214 43.1891C47.2751 43.4315 46.9674 43.7334 46.7145 44.088L45.4327 43.788L44.9539 44.9305L46.0662 45.6341C45.9906 46.063 45.9911 46.4943 46.061 46.911L44.9424 47.6053L45.4116 48.7518L46.696 48.4626C46.9384 48.8089 47.2403 49.1166 47.5949 49.3695L47.2949 50.6513L48.4374 51.1301L49.141 50.0177C49.5699 50.0934 50.0011 50.0929 50.4179 50.023L51.1121 51.1415L52.2586 50.6723L51.9695 49.3879C52.3158 49.1455 52.6235 48.8436 52.8764 48.489L54.1581 48.789L54.637 47.6465L53.5246 46.9429C53.6001 46.5141 53.5998 46.083 53.5299 45.6661ZM51.6115 47.05C51.191 48.053 50.0371 48.5252 49.0341 48.1047C48.0311 47.6842 47.5589 46.5304 47.9794 45.5274C48.3999 44.5244 49.5537 44.0521 50.5567 44.4726C51.5597 44.8931 52.0319 46.047 51.6115 47.05ZM42.4683 46.9031C42.4683 47.2759 42.1661 47.578 41.7934 47.578C41.421 47.578 41.1189 47.2759 41.1189 46.9031C41.1189 46.5304 41.421 46.2282 41.7934 46.2282C42.166 46.2282 42.4683 46.5304 42.4683 46.9031ZM44.2354 47.2061V46.6001L43.6001 46.4929C43.5533 46.2852 43.4713 46.0906 43.361 45.9157L43.7344 45.3909L43.3056 44.9621L42.7808 45.3355C42.6061 45.2251 42.4116 45.1436 42.2036 45.0964L42.0968 44.4615H41.4904L41.3835 45.0964C41.1755 45.1436 40.9809 45.2252 40.8064 45.3355L40.2815 44.9621L39.8527 45.3909L40.2261 45.9157C40.1157 46.0907 40.0339 46.2852 39.987 46.4929L39.3518 46.6001V47.2061L39.987 47.313C40.0339 47.521 40.1159 47.7156 40.2261 47.8905L39.8527 48.4154L40.2815 48.8438L40.8064 48.4704C40.981 48.5807 41.1755 48.6626 41.3835 48.7095L41.4904 49.3447H42.0968L42.2036 48.7095C42.4116 48.6626 42.6062 48.5806 42.7808 48.4704L43.3056 48.8438L43.7344 48.4154L43.361 47.8905C43.4714 47.7155 43.5533 47.521 43.6001 47.313L44.2354 47.2061Z" fill="white"/>
</svg>
