<svg width="515" height="465" viewBox="0 0 515 465" fill="none" xmlns="http://www.w3.org/2000/svg">
<g clip-path="url(#clip0_8_233)">
<g clip-path="url(#clip1_8_233)">
<g clip-path="url(#clip2_8_233)">
<path d="M250 47.5212C254.262 50.8982 258.539 49.1904 258.539 49.1904L274.77 43.2315L291.101 45.0592L296.534 45.6947L312.882 44.3318L317.17 50.01L316.13 57.7423L314.693 68.5456C314.745 71.8563 315.929 73.8594 317.448 75.0626C320.298 77.3201 324.33 76.7754 324.33 76.7754L332.099 54.7354L342.229 39.7742L371.063 27.1442L368.253 18.6697L362.035 -0.0608688L334.162 21.1453L297.431 34.3501L269.567 35.655L247.85 45.3253C248.557 46.2259 249.275 46.9474 250 47.5212Z" fill="#9E616A"/>
<path d="M278.85 45.8974L260.712 57.9743C260.712 57.9743 264.301 60.279 268.395 60.0696C272.486 59.8662 290.685 47.2809 290.685 47.2809L278.85 45.8974Z" fill="#9E616A"/>
<path d="M281.77 63.4812C281.77 55.7791 288.112 49.5354 295.936 49.5354C303.76 49.5354 310.104 55.7795 310.104 63.4812C310.104 71.1829 303.76 77.4254 295.936 77.4254C288.112 77.4254 281.77 71.1829 281.77 63.4812Z" fill="#F1DE34"/>
<path d="M253.326 94.4804C253.326 86.7788 259.67 80.5354 267.494 80.5354C275.319 80.5354 281.662 86.7792 281.662 94.4804C281.662 102.182 275.319 108.425 267.494 108.425C259.67 108.425 253.326 102.182 253.326 94.4804Z" fill="#F1DE34"/>
<g clip-path="url(#clip3_8_233)">
<path d="M268.927 105.995L260.797 96.9429L260.844 95.1489C264.66 95.383 267.626 95.0235 268.316 91.8117L260.186 91.7702L261.502 89.8093L267.987 89.8923C266.999 88.0648 264.281 87.8395 260.045 87.9737L261.502 86.0543L275.272 86.036L273.909 87.9315H270.102C270.798 88.5851 271.307 89.3371 271.324 89.9756L275.272 89.9339L273.909 91.8111L271.277 91.8529C270.866 94.6531 267.975 96.3111 264.322 96.692L272.506 105.993L268.927 105.994L268.927 105.995Z" fill="black" stroke="black" stroke-width="0.099084"/>
</g>
<path d="M309.815 102.945C309.815 95.2433 316.159 89 323.983 89C331.808 89 338.151 95.2437 338.151 102.945C338.151 110.647 331.808 116.89 323.983 116.89C316.159 116.89 309.815 110.646 309.815 102.945Z" fill="#F1DE34"/>
<path d="M329.116 144.945C329.116 137.243 335.46 131 343.284 131C351.108 131 357.452 137.244 357.452 144.945C357.452 152.647 351.108 158.89 343.284 158.89C335.46 158.89 329.116 152.646 329.116 144.945Z" fill="#F1DE34"/>
<path d="M233.628 132.945C233.628 125.243 239.971 119 247.796 119C255.62 119 261.964 125.244 261.964 132.945C261.964 140.647 255.62 146.89 247.796 146.89C239.971 146.89 233.628 140.646 233.628 132.945Z" fill="#F1DE34"/>
<g clip-path="url(#clip4_8_233)">
<path d="M249.626 144.995L241.496 135.943L241.543 134.149C245.359 134.383 248.325 134.024 249.015 130.812L240.885 130.77L242.201 128.809L248.686 128.892C247.698 127.065 244.981 126.84 240.744 126.974L242.201 125.054L255.971 125.036L254.608 126.932H250.802C251.497 127.585 252.006 128.337 252.023 128.976L255.971 128.934L254.608 130.811L251.976 130.853C251.566 133.653 248.674 135.311 245.021 135.692L253.206 144.993L249.627 144.994L249.626 144.995Z" fill="black" stroke="black" stroke-width="0.099084"/>
</g>
<path d="M280.356 116.945C280.356 109.243 286.7 103 294.524 103C302.348 103 308.692 109.244 308.692 116.945C308.692 124.647 302.348 130.89 294.524 130.89C286.7 130.89 280.356 124.646 280.356 116.945Z" fill="#F1DE34"/>
<path d="M313.629 158.654H308.675V131.346H313.629V158.654Z" fill="#F1DE34"/>
<g clip-path="url(#clip5_8_233)">
<path d="M296.355 128.995L288.224 119.943L288.271 118.149C292.087 118.383 295.054 118.024 295.744 114.812L287.614 114.77L288.929 112.809L295.415 112.892C294.427 111.065 291.709 110.84 287.472 110.974L288.929 109.054L302.699 109.036L301.336 110.932H297.53C298.226 111.585 298.735 112.337 298.752 112.976L302.699 112.934L301.336 114.811L298.705 114.853C298.294 117.653 295.403 119.311 291.749 119.692L299.934 128.993L296.355 128.994L296.355 128.995Z" fill="black" stroke="black" stroke-width="0.099084"/>
</g>
<g clip-path="url(#clip6_8_233)">
<path d="M298.381 73.9592L290.251 64.9069L290.298 63.1129C294.113 63.347 297.08 62.9875 297.77 59.7757L289.64 59.7342L290.956 57.7733L297.441 57.8563C296.453 56.0288 293.735 55.8035 289.499 55.9377L290.956 54.0183L304.725 54L303.363 55.8955H299.556C300.252 56.5491 300.761 57.3011 300.778 57.9396L304.725 57.8979L303.363 59.7751L300.731 59.8168C300.32 62.6171 297.429 64.2751 293.775 64.656L301.96 73.9567L298.381 73.9585L298.381 73.9592Z" fill="black" stroke="black" stroke-width="0.099084"/>
</g>
<g clip-path="url(#clip7_8_233)">
<path d="M345.114 156.995L336.984 147.943L337.031 146.149C340.847 146.383 343.813 146.024 344.504 142.812L336.373 142.77L337.689 140.809L344.175 140.892C343.186 139.065 340.469 138.84 336.232 138.974L337.689 137.054L351.459 137.036L350.096 138.932H346.29C346.985 139.585 347.495 140.337 347.512 140.976L351.459 140.934L350.096 142.811L347.465 142.853C347.054 145.653 344.163 147.311 340.509 147.692L348.694 156.993L345.115 156.994L345.114 156.995Z" fill="black" stroke="black" stroke-width="0.099084"/>
</g>
</g>
<path d="M319.04 408.416C319.04 411.014 313.477 412.942 312.93 415.449C312.388 417.935 315.693 421.714 314.647 424.089C313.566 426.516 312.289 428.842 310.83 431.042C309.46 433.097 305.227 432.797 303.492 434.723C301.793 436.473 299.993 438.112 298.103 439.631C296.261 441.236 293.767 441.572 291.673 443.048C289.682 444.452 289.923 449.602 287.721 450.88C285.616 452.102 282.395 451.119 280.112 452.217C277.921 453.272 276.765 457.084 274.423 458.016C272.164 458.914 269.368 458.528 266.979 459.306C264.668 460.06 262.081 459.937 259.659 460.572C257.307 461.188 255.511 464.881 253.064 465.379C250.68 465.864 247.886 464.57 245.421 464.938C243.014 465.296 240.214 462.105 237.738 462.347C235.314 462.583 233.03 464.06 230.548 464.18C228.114 464.297 225.708 465.42 223.225 465.42C220.742 465.42 218.181 467.859 215.747 467.742C213.265 467.622 211.018 463.925 208.594 463.689C206.117 463.447 203.163 467.309 200.756 466.95C198.291 466.583 196.338 462.803 193.955 462.318C191.507 461.82 188.346 464.522 185.994 463.906C183.571 463.271 182.133 458.873 179.821 458.119C177.433 457.341 174.472 458.395 172.213 457.496C169.871 456.564 167.017 456.714 164.825 455.66C162.542 454.561 160.904 451.963 158.799 450.741C156.597 449.463 155.582 446.292 153.591 444.888C151.497 443.411 148.306 443.6 146.465 441.996C144.521 440.302 140.878 440.214 139.238 438.392C137.502 436.465 136.8 433.229 135.43 431.174C133.987 429.01 136.819 424.435 135.812 422.148C134.766 419.774 130.396 418.81 129.854 416.324C129.294 413.729 129.007 411.076 128.997 408.416C128.997 405.818 132.735 403.832 133.282 401.326C133.825 398.84 131.074 395.27 132.119 392.896C133.127 390.609 132.998 387.092 134.441 384.928C135.812 382.873 139.231 382.067 140.966 380.14C142.607 378.319 145.543 377.811 147.487 376.117C149.329 374.514 149.094 369.677 151.188 368.2C153.179 366.796 155.958 366.156 158.161 364.878C160.265 363.656 163.243 363.862 165.526 362.764C167.717 361.71 171.149 363.787 173.492 362.854C175.751 361.955 177.583 359.99 179.971 359.211C182.283 358.458 183.369 352.71 185.791 352.076C188.143 351.46 191.037 352.483 193.484 351.984C195.868 351.499 199.076 356.034 201.541 355.667C203.948 355.308 205.749 349.254 208.225 349.013C210.649 348.776 213.382 351.912 215.864 351.793C218.298 351.675 220.742 353.513 223.225 353.513C225.707 353.513 228.181 350.991 230.614 351.108C233.097 351.228 235.285 354.56 237.709 354.796C240.185 355.037 243.226 349.97 245.633 350.328C248.098 350.696 250.003 354.613 252.387 355.098C254.834 355.596 257.899 353.164 260.252 353.78C262.675 354.415 264.132 358.579 266.444 359.333C268.832 360.111 270.304 363.049 272.563 363.948C274.905 364.88 279.258 360.518 281.449 361.572C283.732 362.67 285.704 364.57 287.808 365.792C290.01 367.071 293.511 366.428 295.502 367.832C297.596 369.308 298.111 373.272 299.952 374.877C301.896 376.57 305.104 377.08 306.744 378.902C308.479 380.828 308.72 384.282 310.091 386.337C311.533 388.5 311.488 391.499 312.495 393.786C313.541 396.16 316.332 397.955 316.874 400.441C317.42 402.946 319.04 405.818 319.04 408.416Z" fill="#3F3D56"/>
<path d="M301.543 176.245H295.594V145H301.543V176.245Z" fill="#F1DE34"/>
<g clip-path="url(#clip8_8_233)">
<path d="M320.749 113.995L312.746 104.943L312.792 103.149C316.548 103.383 319.468 103.024 320.148 99.8117L312.144 99.7702L313.44 97.8093L319.824 97.8923C318.851 96.0648 316.176 95.8395 312.005 95.9737L313.44 94.0543L326.995 94.036L325.653 95.9315H321.906C322.591 96.5851 323.092 97.3371 323.109 97.9756L326.995 97.9339L325.653 99.8111L323.063 99.8529C322.658 102.653 319.812 104.311 316.216 104.692L324.273 113.993L320.749 113.994L320.749 113.995Z" fill="black" stroke="black" stroke-width="0.099084"/>
</g>
<g clip-path="url(#clip9_8_233)">
<path d="M217.395 265.972C214.341 266.156 211.395 267.241 208.888 269.106C206.381 270.971 204.412 273.542 203.201 276.531C199.653 285.658 204.223 296.38 211.082 303.035C217.942 309.692 226.754 313.496 234.761 318.497C245.514 325.214 255.178 334.538 260.558 346.506C265.94 358.475 266.512 373.3 260.187 384.735C254.316 395.348 243.642 401.699 233.461 407.557" stroke="#3F3D56" stroke-miterlimit="10"/>
<path d="M246.054 210.325C243 210.509 240.054 211.594 237.547 213.459C235.04 215.324 233.072 217.895 231.861 220.883C228.312 230.011 232.882 240.733 239.741 247.389C246.601 254.044 255.413 257.849 263.42 262.849C274.173 269.566 283.837 278.89 289.218 290.859C294.599 302.827 295.171 317.654 288.846 329.088C282.975 339.7 272.301 346.053 262.12 351.911" stroke="#3F3D56" stroke-miterlimit="10"/>
<path d="M340.283 223.124C337.762 221.28 334.809 220.219 331.753 220.061C328.698 219.902 325.662 220.653 322.985 222.228C314.926 227.134 312.371 238.588 313.965 248.319C315.56 258.05 320.339 266.797 323.792 275.967C328.431 288.282 330.707 301.948 328.075 314.917C325.444 327.885 317.366 339.981 305.785 344.903C295.036 349.471 282.941 347.541 271.52 345.542" stroke="#3F3D56" stroke-miterlimit="10"/>
<path d="M257.245 338.161C266.742 338.161 274.441 334.183 274.441 329.274C274.441 324.367 266.742 320.388 257.245 320.388C247.749 320.388 240.05 324.367 240.05 329.274C240.05 334.183 247.749 338.161 257.245 338.161Z" fill="#57B894"/>
<path d="M255.096 336.636C264.593 336.636 272.291 332.658 272.291 327.75C272.291 322.842 264.593 318.864 255.096 318.864C245.599 318.864 237.9 322.842 237.9 327.75C237.9 332.658 245.599 336.636 255.096 336.636Z" stroke="#3F3D56" stroke-miterlimit="10"/>
<path d="M294.502 330.538C303.998 330.538 311.697 326.559 311.697 321.652C311.697 316.744 303.998 312.766 294.502 312.766C285.005 312.766 277.306 316.744 277.306 321.652C277.306 326.559 285.005 330.538 294.502 330.538Z" fill="#57B894"/>
<path d="M292.352 329.013C301.849 329.013 309.548 325.035 309.548 320.127C309.548 315.22 301.849 311.241 292.352 311.241C282.855 311.241 275.157 315.22 275.157 320.127C275.157 325.035 282.855 329.013 292.352 329.013Z" stroke="#3F3D56" stroke-miterlimit="10"/>
<path d="M300.233 364.079C309.73 364.079 317.429 360.1 317.429 355.193C317.429 350.285 309.73 346.307 300.233 346.307C290.737 346.307 283.038 350.285 283.038 355.193C283.038 360.1 290.737 364.079 300.233 364.079Z" fill="#57B894"/>
<path d="M298.084 362.554C307.581 362.554 315.279 358.576 315.279 353.668C315.279 348.76 307.581 344.782 298.084 344.782C288.587 344.782 280.889 348.76 280.889 353.668C280.889 358.576 288.587 362.554 298.084 362.554Z" stroke="#3F3D56" stroke-miterlimit="10"/>
<path d="M296.651 280.227C306.148 280.227 313.847 276.248 313.847 271.341C313.847 266.433 306.148 262.455 296.651 262.455C287.154 262.455 279.456 266.433 279.456 271.341C279.456 276.248 287.154 280.227 296.651 280.227Z" fill="#57B894"/>
<path d="M294.502 278.702C303.998 278.702 311.697 274.724 311.697 269.816C311.697 264.908 303.998 260.93 294.502 260.93C285.005 260.93 277.306 264.908 277.306 269.816C277.306 274.724 285.005 278.702 294.502 278.702Z" stroke="#3F3D56" stroke-miterlimit="10"/>
<path d="M253.662 274.89C263.159 274.89 270.858 270.913 270.858 266.004C270.858 261.097 263.159 257.118 253.662 257.118C244.166 257.118 236.467 261.097 236.467 266.004C236.467 270.913 244.166 274.89 253.662 274.89Z" fill="#57B894"/>
<path d="M251.513 273.366C261.01 273.366 268.709 269.388 268.709 264.48C268.709 259.572 261.01 255.594 251.513 255.594C242.017 255.594 234.318 259.572 234.318 264.48C234.318 269.388 242.017 273.366 251.513 273.366Z" stroke="#3F3D56" stroke-miterlimit="10"/>
<path d="M273.007 255.834C282.504 255.834 290.203 251.855 290.203 246.947C290.203 242.04 282.504 238.061 273.007 238.061C263.51 238.061 255.812 242.04 255.812 246.947C255.812 251.855 263.51 255.834 273.007 255.834Z" fill="#57B894"/>
<g clip-path="url(#clip10_8_233)">
<path d="M273.665 254.996L268.259 248.207L268.291 246.862C270.828 247.037 272.8 246.768 273.259 244.359L267.853 244.328L268.728 242.857L273.04 242.919C272.383 241.549 270.576 241.38 267.759 241.48L268.728 240.041L277.883 240.027L276.977 241.449H274.446C274.909 241.939 275.247 242.503 275.259 242.982L277.883 242.95L276.977 244.358L275.227 244.39C274.954 246.49 273.032 247.733 270.603 248.019L276.045 254.995L273.665 254.996L273.665 254.996Z" fill="#0F0202" stroke="#0F0202" stroke-width="0.099084"/>
</g>
<path d="M270.858 254.309C280.355 254.309 288.054 250.331 288.054 245.423C288.054 240.515 280.355 236.537 270.858 236.537C261.362 236.537 253.662 240.515 253.662 245.423C253.662 250.331 261.362 254.309 270.858 254.309Z" stroke="#3F3D56" stroke-miterlimit="10"/>
<path d="M315.279 259.645C324.776 259.645 332.475 255.667 332.475 250.759C332.475 245.851 324.776 241.873 315.279 241.873C305.783 241.873 298.084 245.851 298.084 250.759C298.084 255.667 305.783 259.645 315.279 259.645Z" fill="#57B894"/>
<path d="M313.13 258.121C322.627 258.121 330.326 254.142 330.326 249.234C330.326 244.327 322.627 240.348 313.13 240.348C303.633 240.348 295.934 244.327 295.934 249.234C295.934 254.142 303.633 258.121 313.13 258.121Z" stroke="#3F3D56" stroke-miterlimit="10"/>
<path d="M346.805 284.801C356.301 284.801 364 280.822 364 275.915C364 271.007 356.301 267.028 346.805 267.028C337.308 267.028 329.609 271.007 329.609 275.915C329.609 280.822 337.308 284.801 346.805 284.801Z" fill="#57B894"/>
<path d="M344.655 283.276C354.152 283.276 361.85 279.297 361.85 274.39C361.85 269.482 354.152 265.504 344.655 265.504C335.158 265.504 327.46 269.482 327.46 274.39C327.46 279.297 335.158 283.276 344.655 283.276Z" stroke="#3F3D56" stroke-miterlimit="10"/>
<path d="M235.751 240.588C245.248 240.588 252.946 236.609 252.946 231.702C252.946 226.794 245.248 222.816 235.751 222.816C226.254 222.816 218.555 226.794 218.555 231.702C218.555 236.609 226.254 240.588 235.751 240.588Z" fill="#57B894"/>
<path d="M233.601 239.063C243.098 239.063 250.797 235.085 250.797 230.177C250.797 225.269 243.098 221.291 233.601 221.291C224.105 221.291 216.406 225.269 216.406 230.177C216.406 235.085 224.105 239.063 233.601 239.063Z" stroke="#3F3D56" stroke-miterlimit="10"/>
<path d="M246.498 211.621C255.995 211.621 263.693 207.642 263.693 202.735C263.693 197.827 255.995 193.848 246.498 193.848C237.001 193.848 229.302 197.827 229.302 202.735C229.302 207.642 237.001 211.621 246.498 211.621Z" fill="#57B894"/>
<path d="M244.348 210.096C253.845 210.096 261.544 206.118 261.544 201.21C261.544 196.302 253.845 192.324 244.348 192.324C234.852 192.324 227.153 196.302 227.153 201.21C227.153 206.118 234.852 210.096 244.348 210.096Z" stroke="#3F3D56" stroke-miterlimit="10"/>
<path d="M346.088 232.965C355.585 232.965 363.283 228.986 363.283 224.079C363.283 219.171 355.585 215.193 346.088 215.193C336.591 215.193 328.893 219.171 328.893 224.079C328.893 228.986 336.591 232.965 346.088 232.965Z" fill="#57B894"/>
<path d="M343.938 231.44C353.435 231.44 361.134 227.462 361.134 222.554C361.134 217.647 353.435 213.668 343.938 213.668C334.442 213.668 326.743 217.647 326.743 222.554C326.743 227.462 334.442 231.44 343.938 231.44Z" stroke="#3F3D56" stroke-miterlimit="10"/>
<path d="M187.747 303.096C197.244 303.096 204.942 299.117 204.942 294.21C204.942 289.301 197.244 285.323 187.747 285.323C178.25 285.323 170.551 289.301 170.551 294.21C170.551 299.117 178.25 303.096 187.747 303.096Z" fill="#57B894"/>
<path d="M185.597 301.571C195.094 301.571 202.793 297.593 202.793 292.685C202.793 287.777 195.094 283.799 185.597 283.799C176.101 283.799 168.402 287.777 168.402 292.685C168.402 297.593 176.101 301.571 185.597 301.571Z" stroke="#3F3D56" stroke-miterlimit="10"/>
<path d="M247.214 298.522C256.711 298.522 264.41 294.543 264.41 289.636C264.41 284.728 256.711 280.75 247.214 280.75C237.718 280.75 230.019 284.728 230.019 289.636C230.019 294.543 237.718 298.522 247.214 298.522Z" fill="#57B894"/>
<path d="M245.065 296.997C254.562 296.997 262.26 293.019 262.26 288.111C262.26 283.203 254.562 279.225 245.065 279.225C235.568 279.225 227.87 283.203 227.87 288.111C227.87 293.019 235.568 296.997 245.065 296.997Z" stroke="#3F3D56" stroke-miterlimit="10"/>
<path d="M325.31 305.383C334.807 305.383 342.506 301.404 342.506 296.496C342.506 291.588 334.807 287.61 325.31 287.61C315.813 287.61 308.115 291.588 308.115 296.496C308.115 301.404 315.813 305.383 325.31 305.383Z" fill="#57B894"/>
<path d="M323.161 303.858C332.657 303.858 340.356 299.879 340.356 294.972C340.356 290.064 332.657 286.085 323.161 286.085C313.664 286.085 305.965 290.064 305.965 294.972C305.965 299.879 313.664 303.858 323.161 303.858Z" stroke="#3F3D56" stroke-miterlimit="10"/>
<path d="M283.755 308.431C293.252 308.431 300.95 304.453 300.95 299.545C300.95 294.638 293.252 290.659 283.755 290.659C274.258 290.659 266.559 294.638 266.559 299.545C266.559 304.453 274.258 308.431 283.755 308.431Z" fill="#57B894"/>
<path d="M281.605 306.907C291.102 306.907 298.801 302.929 298.801 298.021C298.801 293.113 291.102 289.135 281.605 289.135C272.109 289.135 264.41 293.113 264.41 298.021C264.41 302.929 272.109 306.907 281.605 306.907Z" stroke="#3F3D56" stroke-miterlimit="10"/>
<path d="M286.62 232.203C296.117 232.203 303.816 228.224 303.816 223.316C303.816 218.409 296.117 214.43 286.62 214.43C277.124 214.43 269.425 218.409 269.425 223.316C269.425 228.224 277.124 232.203 286.62 232.203Z" fill="#57B894"/>
<path d="M284.471 230.678C293.968 230.678 301.666 226.7 301.666 221.792C301.666 216.884 293.968 212.906 284.471 212.906C274.974 212.906 267.275 216.884 267.275 221.792C267.275 226.7 274.974 230.678 284.471 230.678Z" stroke="#3F3D56" stroke-miterlimit="10"/>
<path d="M212.824 279.464C222.32 279.464 230.019 275.486 230.019 270.578C230.019 265.671 222.32 261.692 212.824 261.692C203.327 261.692 195.628 265.671 195.628 270.578C195.628 275.486 203.327 279.464 212.824 279.464Z" fill="#57B894"/>
<path d="M210.674 277.94C220.171 277.94 227.87 273.961 227.87 269.054C227.87 264.146 220.171 260.168 210.674 260.168C201.177 260.168 193.479 264.146 193.479 269.054C193.479 273.961 201.177 277.94 210.674 277.94Z" stroke="#3F3D56" stroke-miterlimit="10"/>
<path d="M222.854 313.767C232.351 313.767 240.05 309.789 240.05 304.881C240.05 299.974 232.351 295.995 222.854 295.995C213.358 295.995 205.658 299.974 205.658 304.881C205.658 309.789 213.358 313.767 222.854 313.767Z" fill="#57B894"/>
<path d="M220.705 312.243C230.202 312.243 237.9 308.264 237.9 303.357C237.9 298.449 230.202 294.471 220.705 294.471C211.208 294.471 203.51 298.449 203.51 303.357C203.51 308.264 211.208 312.243 220.705 312.243Z" stroke="#3F3D56" stroke-miterlimit="10"/>
<g clip-path="url(#clip11_8_233)">
<path d="M247.324 296.996L241.919 290.207L241.95 288.862C244.487 289.037 246.459 288.768 246.918 286.359L241.513 286.328L242.387 284.857L246.699 284.919C246.042 283.549 244.235 283.38 241.419 283.48L242.387 282.041L251.543 282.027L250.637 283.449H248.106C248.568 283.939 248.907 284.503 248.918 284.982L251.543 284.95L250.637 286.358L248.887 286.39C248.614 288.49 246.691 289.733 244.262 290.019L249.704 296.995L247.324 296.996L247.324 296.996Z" fill="#0F0202" stroke="#0F0202" stroke-width="0.099084"/>
</g>
<g clip-path="url(#clip12_8_233)">
<path d="M323.307 303.996L317.901 297.207L317.933 295.862C320.469 296.037 322.442 295.768 322.901 293.359L317.495 293.328L318.37 291.857L322.682 291.919C322.025 290.549 320.218 290.38 317.401 290.48L318.37 289.041L327.525 289.027L326.619 290.449H324.088C324.551 290.939 324.889 291.503 324.901 291.982L327.525 291.95L326.619 293.358L324.869 293.39C324.596 295.49 322.674 296.733 320.245 297.019L325.687 303.995L323.307 303.996L323.307 303.996Z" fill="#0F0202" stroke="#0F0202" stroke-width="0.099084"/>
</g>
<g clip-path="url(#clip13_8_233)">
<path d="M212.879 276.996L207.473 270.207L207.505 268.862C210.041 269.037 212.014 268.768 212.473 266.359L207.067 266.328L207.942 264.857L212.254 264.919C211.597 263.549 209.79 263.38 206.973 263.48L207.942 262.041L217.097 262.027L216.191 263.449H213.66C214.123 263.939 214.461 264.503 214.473 264.982L217.097 264.95L216.191 266.358L214.441 266.39C214.168 268.49 212.246 269.733 209.817 270.019L215.259 276.995L212.879 276.996L212.879 276.996Z" fill="#0F0202" stroke="#0F0202" stroke-width="0.099084"/>
</g>
</g>
</g>
</g>
<defs>
<clipPath id="clip0_8_233">
<rect width="515" height="465" fill="white"/>
</clipPath>
<clipPath id="clip1_8_233">
<rect width="385" height="497" fill="white" transform="translate(65 -3)"/>
</clipPath>
<clipPath id="clip2_8_233">
<rect width="172.691" height="162" fill="white" transform="matrix(-1 0 0 -1 390.066 159)"/>
</clipPath>
<clipPath id="clip3_8_233">
<rect width="15.2375" height="20" fill="white" transform="translate(260.04 86)"/>
</clipPath>
<clipPath id="clip4_8_233">
<rect width="15.2375" height="20" fill="white" transform="translate(240.739 125)"/>
</clipPath>
<clipPath id="clip5_8_233">
<rect width="15.2375" height="20" fill="white" transform="translate(287.467 109)"/>
</clipPath>
<clipPath id="clip6_8_233">
<rect width="15.2375" height="20" fill="white" transform="translate(290.514 53)"/>
</clipPath>
<clipPath id="clip7_8_233">
<rect width="15.2375" height="20" fill="white" transform="translate(336.227 137)"/>
</clipPath>
<clipPath id="clip8_8_233">
<rect width="15" height="20" fill="white" transform="translate(312 94)"/>
</clipPath>
<clipPath id="clip9_8_233">
<rect width="232" height="333" fill="white" transform="translate(132 192)"/>
</clipPath>
<clipPath id="clip10_8_233">
<rect width="10.131" height="15" fill="white" transform="translate(267.755 240)"/>
</clipPath>
<clipPath id="clip11_8_233">
<rect width="10.131" height="15" fill="white" transform="translate(241.415 282)"/>
</clipPath>
<clipPath id="clip12_8_233">
<rect width="10.131" height="15" fill="white" transform="translate(317.397 289)"/>
</clipPath>
<clipPath id="clip13_8_233">
<rect width="10.131" height="15" fill="white" transform="translate(206.969 262)"/>
</clipPath>
</defs>
</svg>
