<svg width="161" height="119" viewBox="0 0 161 119" fill="none" xmlns="http://www.w3.org/2000/svg">
<path d="M149.523 6.5686H18.8799C12.9215 6.5686 8.09131 11.3988 8.09131 17.3572V107.711C8.09131 113.67 12.9215 118.5 18.8799 118.5H149.523C155.481 118.5 160.311 113.67 160.311 107.711V17.3572C160.311 11.3988 155.481 6.5686 149.523 6.5686Z" fill="#090E2B"/>
<path d="M141.937 1.00574H11.2944C5.33607 1.00574 0.505859 5.83595 0.505859 11.7943V102.149C0.505859 108.107 5.33607 112.937 11.2944 112.937H141.937C147.896 112.937 152.726 108.107 152.726 102.149V11.7943C152.726 5.83595 147.896 1.00574 141.937 1.00574Z" fill="white"/>
<path fill-rule="evenodd" clip-rule="evenodd" d="M11.2943 0.5H141.937C148.174 0.5 153.231 5.55664 153.231 11.7943V102.149C153.231 108.386 148.174 113.443 141.937 113.443H11.2943C5.05664 113.443 0 108.386 0 102.149V11.7943C0 5.55664 5.05664 0.5 11.2943 0.5ZM141.937 1.51143H11.2943C5.61528 1.51143 1.01143 6.11528 1.01143 11.7943V102.149C1.01143 107.828 5.61528 112.431 11.2943 112.431H141.937C147.616 112.431 152.22 107.828 152.22 102.149V11.7943C152.22 6.11528 147.616 1.51143 141.937 1.51143Z" fill="#090E2B"/>
<path d="M113.558 33.5505C122.216 31.4246 130.247 41.1144 137.957 62.1871C138.149 62.7113 137.88 63.2929 137.355 63.4834C136.831 63.6755 136.25 63.4058 136.057 62.8816C128.682 42.7248 121.242 33.7469 114.042 35.515C110.082 36.4872 106.798 38.9879 103.756 43.0672L103.547 43.3509C101.397 46.2807 99.801 49.2018 96.7178 55.5078L95.6676 57.6592C92.5255 64.0666 90.892 67.0031 88.5489 70.1133C85.1993 74.5619 81.4722 77.3214 76.9086 78.3345C73.6527 79.0577 70.9987 77.7445 68.7591 74.7237L68.6913 74.631C67.0632 72.4008 65.895 69.8655 63.8371 64.5808L63.1996 62.9406C61.2354 57.9057 60.0827 55.3982 58.5499 53.201C56.6155 50.428 54.5296 49.1267 51.9751 49.2811C42.5791 49.8491 32.458 60.439 21.8026 81.1817C21.5474 81.679 20.9377 81.8745 20.4409 81.62C19.944 81.3637 19.7481 80.7535 20.0033 80.2579C30.9598 58.9289 41.5125 47.887 51.853 47.2619C55.1731 47.0611 57.8532 48.7106 60.1398 51.9452L60.209 52.0436C61.8301 54.3675 63.0103 56.9094 64.9586 61.8853L65.8403 64.1492C67.7385 69.0074 68.8447 71.3927 70.2801 73.3768L70.3251 73.4375C72.1448 75.9307 74.06 76.8949 76.4702 76.3589C80.5114 75.4621 83.8508 72.9891 86.9339 68.8962L87.1463 68.6113C89.3024 65.7018 90.9055 62.7872 93.9583 56.5504L95.0068 54.4026C98.1422 47.9955 99.7673 45.0487 102.062 41.9568L102.134 41.8582C105.435 37.4315 109.091 34.6475 113.558 33.5505Z" fill="#FFB201"/>
<path d="M131.732 35.6238C131.873 35.0835 132.426 34.76 132.966 34.9013C133.507 35.0427 133.831 35.5953 133.689 36.1357C127.418 60.1118 119.359 71.369 109.212 69.4271C104.821 68.5876 101.751 68.7427 99.4706 69.7491C97.7158 70.5228 96.4869 71.6826 94.7641 73.9768L94.5652 74.2449L93.5369 75.6474C93.0952 76.2492 92.7412 76.7178 92.3771 77.1763C90.86 79.0862 89.3647 80.5511 87.4919 81.8171C85.2263 83.3494 82.514 84.4873 79.1744 85.229C76.0966 85.9117 73.4573 85.5627 71.0189 84.2934C69.2038 83.3494 67.7626 82.1289 65.5006 79.8161L64.4425 78.7255C62.1627 76.3756 60.8416 75.1973 59.1824 74.2044C57.0728 72.9401 54.8273 72.3602 52.1604 72.5221C42.5312 73.1036 32.3261 77.859 21.5498 86.8253C21.1203 87.1827 20.4826 87.1237 20.1254 86.6939C19.768 86.264 19.8265 85.6268 20.256 85.2694C31.3384 76.0486 41.9311 71.1145 52.0383 70.5026C55.1216 70.3171 57.7701 70.9999 60.2218 72.4681L60.3868 72.5693C62.1076 73.6228 63.4824 74.8433 65.6826 77.1005L66.7428 78.1928L66.9382 78.3934C69.0623 80.5646 70.3777 81.6788 71.9532 82.4998C73.9696 83.55 76.1231 83.8332 78.736 83.2533C81.833 82.5656 84.3093 81.5271 86.3591 80.1415C88.0415 79.0036 89.3951 77.6787 90.7925 75.9188L90.9763 75.6861C91.2207 75.3726 91.4719 75.0405 91.7601 74.6494L92.9064 73.0851L92.9789 72.9873C94.9798 70.2902 96.4481 68.8725 98.6547 67.8981C101.359 66.7046 104.829 66.5293 109.593 67.4413C118.231 69.0933 125.709 58.6474 131.732 35.6238Z" fill="#009BA0"/>
<path d="M116.23 38.597C118.604 38.597 120.529 36.6725 120.529 34.2984C120.529 31.9244 118.604 29.9999 116.23 29.9999C113.856 29.9999 111.931 31.9244 111.931 34.2984C111.931 36.6725 113.856 38.597 116.23 38.597Z" fill="#FF0057"/>
<path d="M135.194 92.54H15.6772V92.8772H135.194V92.54Z" fill="#C7D2F2"/>
</svg>
