<svg xmlns="http://www.w3.org/2000/svg" enable-background="new 0 0 135 135" viewBox="0 0 135 135"><path fill="#fff" d="M107.2035751,22.998497v89c0,1.1899414-0.960022,2.1398926-2.1400146,2.1398926H33.3335762
				c-1.1799927,0-2.1400127-0.9499512-2.1400127-2.1398926v-89c0-1.1800537,0.9600201-2.1400146,2.1400127-2.1400146h71.7299805
				C106.2435532,20.8584824,107.2035751,21.8184433,107.2035751,22.998497z"/><path d="M54.4635811,69.6984482v40.3200684c0,1.5300293-0.4899902,2.9599609-1.3300171,4.119873H33.3335762
				c-1.1799927,0-2.1400127-0.9499512-2.1400127-2.1398926V62.5684433H47.343586
				C51.2735786,62.5684433,54.4635811,65.7685165,54.4635811,69.6984482z" opacity=".05"/><path fill="#d4f4ff" d="M107.2035751,22.998497v2.6699219c0-1.1799316-0.960022-2.1499023-2.1400146-2.1499023H33.3335762
				c-1.1799927,0-2.1400127,0.9699707-2.1400127,2.1499023V22.998497c0-1.1800537,0.9600201-2.1400146,2.1400127-2.1400146
				h71.7299805C106.2435532,20.8584824,107.2035751,21.8184433,107.2035751,22.998497z"/><path fill="#f3fcff" d="M107.2035751,22.998497v89.0100098c0,1.1799316-0.960022,2.1398926-2.1400146,2.1398926H33.3335762
				c-1.1799927,0-2.1400127-0.9599609-2.1400127-2.1398926v-1.4100342h28.919981
				c24.0500526,0,43.5400429-19.4899902,43.5400429-43.539917V20.8584824h1.4099731
				C106.2435532,20.8584824,107.2035751,21.8184433,107.2035751,22.998497z"/><path fill="#ff4b3a" d="M49.4163399,36.3140564v10.8959045c0,0.2955894-0.2396202,0.5352097-0.5352058,0.5352097h-3.4309921
				c-0.2955894,0-0.5352058-0.2396202-0.5352058-0.5352097V36.3140564c0-0.2955856,0.2396164-0.5352058,0.5352058-0.5352058
				h3.4309921C49.1767197,35.7788506,49.4163399,36.0184708,49.4163399,36.3140564z"/><path fill="#fc6868" d="M47.0868797,47.7451706h-1.6377602c-0.2996826,0-0.5352097-0.2355919-0.5352097-0.5352097V36.3131027
				c0-0.2997475,0.235527-0.5352058,0.5352097-0.5352058h1.6377602c-0.289032,0-0.5352058,0.2354584-0.5352058,0.5352058v10.8968582
				C46.5516739,47.5095787,46.7978477,47.7451706,47.0868797,47.7451706z"/><path fill="#00ffc1" d="M60.433239,30.9619923v16.2479687c0,0.2955894-0.2396202,0.5352097-0.5352058,0.5352097H56.467041
				c-0.2955894,0-0.5352058-0.2396202-0.5352058-0.5352097V30.9619923c0-0.2955875,0.2396164-0.5352077,0.5352058-0.5352077
				h3.4309921C60.1936188,30.4267845,60.433239,30.6664047,60.433239,30.9619923z"/><path fill="#fff" d="M58.1014061,47.7451706h-1.637764c-0.2889671,0-0.5352058-0.2355919-0.5352058-0.5352097V30.9610405
				c0-0.2997475,0.2462387-0.5352077,0.5352058-0.5352077h1.637764c-0.2890358,0-0.5352097,0.2354603-0.5352097,0.5352077
				v16.2489204C57.5661964,47.5095787,57.8123703,47.7451706,58.1014061,47.7451706z" opacity=".5"/><path fill="#ffe93e" d="M71.4494171,36.3131027v10.8968582c0,0.2996178-0.2354584,0.5352097-0.535202,0.5352097H67.488945
				c-0.1498718,0-0.2783203-0.0534439-0.3746872-0.1498756c-0.0535049-0.0535736-0.0855789-0.1070137-0.1177292-0.1711731
				c-0.032074-0.0642853-0.0427933-0.139286-0.0427933-0.2141609V36.3131027c0-0.2997475,0.235466-0.5352058,0.5352097-0.5352058
				h3.4252701C71.2139587,35.7778969,71.4494171,36.0133553,71.4494171,36.3131027z"/><path fill="#ffff9a" d="M69.1266403,47.7451706H67.488945c-0.1498718,0-0.2783203-0.0534439-0.3746872-0.1498756
				c-0.0535049-0.0535736-0.0855789-0.1070137-0.1177292-0.1711731c-0.032074-0.0642853-0.0427933-0.139286-0.0427933-0.2141609
				V36.3131027c0-0.2997475,0.235466-0.5352058,0.5352097-0.5352058h1.1024933v11.4320641
				C68.5914383,47.5095787,68.837677,47.7451706,69.1266403,47.7451706z"/><path fill="#52eef8" d="M82.467041,30.9619923v16.2479687c0,0.2955894-0.239624,0.5352097-0.5352097,0.5352097h-3.4309921
				c-0.2955856,0-0.5352097-0.2396202-0.5352097-0.5352097V30.9619923c0-0.2955875,0.239624-0.5352077,0.5352097-0.5352077
				h3.4309921C82.227417,30.4267845,82.467041,30.6664047,82.467041,30.9619923z"/><path fill="#fff" d="M80.1386032,47.7451706h-1.637764c-0.2889709,0-0.5352097-0.2355919-0.5352097-0.5352097V30.9610405
				c0-0.2997475,0.2462387-0.5352077,0.5352097-0.5352077h1.637764c-0.289032,0-0.5352097,0.2354603-0.5352097,0.5352077v16.2489204
				C79.6033936,47.5095787,79.8495712,47.7451706,80.1386032,47.7451706z" opacity=".5"/><path fill="#ffcb8f" d="M93.4839401,36.3140564v10.8959045c0,0.2955894-0.239624,0.5352097-0.5352097,0.5352097h-3.4309921
				c-0.2955856,0-0.5352097-0.2396202-0.5352097-0.5352097V36.3140564c0-0.2955856,0.239624-0.5352058,0.5352097-0.5352058
				h3.4309921C93.2443161,35.7788506,93.4839401,36.0184708,93.4839401,36.3140564z"/><path fill="#fff" d="M91.1638412,47.7451706h-1.6377029c-0.1498718,0-0.2783127-0.0534439-0.3746796-0.1498756
				c-0.0535049-0.0535736-0.0855865-0.1070137-0.1177292-0.1711731c-0.0320816-0.0642853-0.0427933-0.139286-0.0427933-0.2141609
				V36.3131027c0-0.2997475,0.2354584-0.5352058,0.535202-0.5352058h1.1024933v11.4320641
				C90.6286316,47.5095787,90.8748703,47.7451706,91.1638412,47.7451706z" opacity=".3"/><path fill="#bcdae6" d="M51.46558,69.6935043v40.3220139c0,2.2777939-1.8465157,4.1243134-4.1243095,4.1243134H16.271513
					c-2.2777929,0-4.1243086-1.8465195-4.1243086-4.1243134V69.6935043c0-2.2777939,1.8465157-4.1243057,4.1243086-4.1243057
					h31.0697575C49.6190643,65.5691986,51.46558,67.4157104,51.46558,69.6935043z"/><path fill="#fff" d="M21.028162 105.1444016v3.3818817c0 .379631-.3077526.6873856-.6873856.6873856h-3.3818798c-.379631 0-.6873837-.3077545-.6873837-.6873856v-3.3818817c0-.379631.3077526-.6873779.6873837-.6873779h3.3818798C20.7204094 104.4570236 21.028162 104.7647705 21.028162 105.1444016zM29.7992535 86.0928192v3.3818817c0 .379631-.3077526.6873856-.6873837.6873856H25.72999c-.3796329 0-.6873856-.3077545-.6873856-.6873856v-3.3818817c0-.379631.3077526-.6873856.6873856-.6873856h3.3818798C29.4915009 85.4054337 29.7992535 85.7131882 29.7992535 86.0928192zM29.7992535 95.6186142v3.3818741c0 .3796387-.3077526.6873856-.6873837.6873856H25.72999c-.3796329 0-.6873856-.3077469-.6873856-.6873856v-3.3818741c0-.379631.3077526-.6873856.6873856-.6873856h3.3818798C29.4915009 94.9312286 29.7992535 95.2389832 29.7992535 95.6186142zM29.7992535 105.1444016v3.3818817c0 .379631-.3077526.6873856-.6873837.6873856H25.72999c-.3796329 0-.6873856-.3077545-.6873856-.6873856v-3.3818817c0-.379631.3077526-.6873779.6873856-.6873779h3.3818798C29.4915009 104.4570236 29.7992535 104.7647705 29.7992535 105.1444016zM38.5703468 86.0928192v3.3818817c0 .379631-.3077545.6873856-.6873856.6873856h-3.3818779c-.3796349 0-.6873856-.3077545-.6873856-.6873856v-3.3818817c0-.379631.3077507-.6873856.6873856-.6873856h3.3818779C38.2625923 85.4054337 38.5703468 85.7131882 38.5703468 86.0928192zM38.5703468 95.6186142v3.3818741c0 .3796387-.3077545.6873856-.6873856.6873856h-3.3818779c-.3796349 0-.6873856-.3077469-.6873856-.6873856v-3.3818741c0-.379631.3077507-.6873856.6873856-.6873856h3.3818779C38.2625923 94.9312286 38.5703468 95.2389832 38.5703468 95.6186142zM38.5703468 105.1444016v3.3818817c0 .379631-.3077545.6873856-.6873856.6873856h-3.3818779c-.3796349 0-.6873856-.3077545-.6873856-.6873856v-3.3818817c0-.379631.3077507-.6873779.6873856-.6873779h3.3818779C38.2625923 104.4570236 38.5703468 104.7647705 38.5703468 105.1444016zM47.3414383 86.0928192v3.3818817c0 .379631-.3077507.6873856-.6873856.6873856h-3.3818779c-.379631 0-.6873856-.3077545-.6873856-.6873856v-3.3818817c0-.379631.3077545-.6873856.6873856-.6873856h3.3818779C47.0336876 85.4054337 47.3414383 85.7131882 47.3414383 86.0928192z"/><path fill="#00ffc1" d="M21.028162,95.6186142v3.3818741c0,0.3796387-0.3077526,0.6873856-0.6873856,0.6873856h-3.3818798
					c-0.379631,0-0.6873837-0.3077469-0.6873837-0.6873856v-3.3818741c0-0.379631,0.3077526-0.6873856,0.6873837-0.6873856
					h3.3818798C20.7204094,94.9312286,21.028162,95.2389832,21.028162,95.6186142z"/><path fill="#fff" d="M21.0312939,95.6265945v0.6170731h-2.6590652c-0.3815002,0-0.6843853,0.3029556-0.6843853,0.6843872
					v2.7600708h-0.7293091c-0.3815002,0-0.6843853-0.3029556-0.6843853-0.6843872v-3.3771439
					c0-0.3815002,0.3028851-0.6956177,0.6843853-0.6956177h3.377142
					C20.7171078,94.9309769,21.0312939,95.2450943,21.0312939,95.6265945z" opacity=".5"/><path d="M51.4703674,107.5589371v2.4571228c0,2.277565-1.8512802,4.1288452-4.1288452,4.1288452H16.2741489
					c-2.2776346,0-4.1288452-1.8512802-4.1288452-4.1288452v-2.4571228c0,2.277565,1.8512106,4.1288452,4.1288452,4.1288452
					h31.0673733C49.6190872,111.6877823,51.4703674,109.8365021,51.4703674,107.5589371z" opacity=".05"/><path fill="#fc6868" d="M21.028162,86.0928192v3.3818817c0,0.379631-0.3077526,0.6873856-0.6873856,0.6873856h-3.3818798
					c-0.379631,0-0.6873837-0.3077545-0.6873837-0.6873856v-3.3818817c0-0.379631,0.3077526-0.6873856,0.6873837-0.6873856
					h3.3818798C20.7204094,85.4054337,21.028162,85.7131882,21.028162,86.0928192z"/><path fill="#fff" d="M21.0312939,86.0956345v0.6170731h-2.6590652c-0.3815002,0-0.6843853,0.302948-0.6843853,0.6843796
					v2.7600784h-0.7293091c-0.3815002,0-0.6843853-0.3029556-0.6843853-0.6843872v-3.3771439
					c0-0.3815002,0.3028851-0.6956177,0.6843853-0.6956177h3.377142
					C20.7171078,85.4000168,21.0312939,85.7141342,21.0312939,86.0956345z" opacity=".3"/><path fill="#ffe93e" d="M47.3412704,95.6216431v12.9091034c0,0.379631-0.3077507,0.6873856-0.6873856,0.6873856H43.272007
					c-0.379631,0-0.6873856-0.3077545-0.6873856-0.6873856V95.6216431c0-0.3796387,0.3077545-0.6873856,0.6873856-0.6873856
					h3.3818779C47.0335197,94.9342575,47.3412704,95.2420044,47.3412704,95.6216431z"/><path fill="#ffff9a" d="M47.3415222,95.6211548v1.0995789h-2.5581284c-0.3814316,0-0.6956139,0.3141174-0.6956139,0.6843872
					v11.8143158h-0.8190193c-0.3815002,0-0.6843834-0.3141174-0.6843834-0.6843872V95.6211548
					c0-0.3814316,0.3028831-0.6843872,0.6843834-0.6843872h3.3883057
					C47.0385666,94.9367676,47.3415222,95.2397232,47.3415222,95.6211548z" opacity=".5"/><path fill="#fff" d="M51.1000977,67.9757767c-0.5272942-0.2467957-1.1219711-0.3814316-1.7390442-0.3814316H18.2936821
					c-2.2776337,0-4.1288443,1.8400497-4.1288443,4.1176147v40.3236313c0,0.6170731,0.1346312,1.2005157,0.3814316,1.7278137
					c-1.4136257-0.6506958-2.4009657-2.086853-2.4009657-3.747345V69.6924286c0-2.2776337,1.8512106-4.1288452,4.1288452-4.1288452
					h31.0673733C49.0132484,65.5635834,50.4493332,66.5621567,51.1000977,67.9757767z" opacity=".3"/><rect width="31.07" height="10.764" x="16.272" y="69.694" fill="#fff"/><polygon fill="#d4f4ff" points="34.075 69.694 29.73 80.458 27.063 80.458 31.408 69.694" opacity=".5"/><polygon fill="#d4f4ff" points="46.31 69.694 41.966 80.458 32.439 80.458 36.783 69.694" opacity=".5"/><path fill="#ffe93e" d="M87.1003418,73.4821701v0.2662125c0,8.6367188-7.005928,15.6593018-15.6593018,15.6593018
					c-4.376503,0-8.3537445-1.8139191-11.1994019-4.7261047c-2.7457161-2.8123474-4.4431381-6.689743-4.4431381-10.933197
					c0-8.6367111,7.005825-15.6591949,15.64254-15.6591949C80.0112305,58.0891876,86.9505234,64.9619598,87.1003418,73.4821701z"/><path fill="#ffff9a" d="M71.4413452,86.0792694c-3.341217,0-6.4727859-1.3228378-8.8194389-3.723114
					c-2.2540207-2.3092728-3.4955978-5.3677216-3.4955978-8.6081772c0-6.7994308,5.5237312-12.3312874,12.3150368-12.3312874
					c6.6824265,0,12.2142792,5.4392204,12.3312912,12.1232719v0.2080154
					C83.7726364,80.5474167,78.2407837,86.0792694,71.4413452,86.0792694z"/><path fill="#00c5ea" d="M87.1003418,73.4821701H71.44104V58.0891876
					C80.0112305,58.0891876,86.9505234,64.9619598,87.1003418,73.4821701z"/><path fill="#34e0aa" d="M87.1003418,73.4821701v0.2662125c0,8.6367188-7.005928,15.6593018-15.6593018,15.6593018
					c-4.376503,0-8.3537445-1.8139191-11.1994019-4.7261047L71.44104,73.4821701H87.1003418z"/><path fill="#52eef8" d="M83.7721252,73.4821701H71.44104V61.4174004
					C78.1141205,61.4174004,83.6223145,66.8257446,83.7721252,73.4821701z"/><path fill="#00ffc1" d="M83.7721252,73.4821701v0.2662125c0,6.8062439-5.5248413,12.3310852-12.3310852,12.3310852
					c-3.3447647,0-6.4732971-1.3313599-8.8197441-3.7275772c-0.016655-0.0166626-0.016655-0.0166626-0.016655-0.0333176
					l8.8363991-8.8364029H83.7721252z"/><g><path fill="#ffe93e" d="M122.8526077,98.3844147c0,8.6319733-7.0049438,15.6369629-15.6455383,15.6369629
					s-15.6455383-7.0049896-15.6455383-15.6369629c0-8.6406479,7.0049362-15.6455383,15.6455383-15.6455383
					S122.8526077,89.7437668,122.8526077,98.3844147z"/><path fill="#fff" d="M118.9745483,88.0920944c-2.7517014-2.4239655-6.3550873-3.8841019-10.2954559-3.8841019
					c-8.6388092,0-15.6490707,7.0102615-15.6490707,15.6490707c0,3.9403152,1.460083,7.5344467,3.8841629,10.286087
					c-3.2851944-2.8546982-5.3536148-7.0664749-5.3536148-11.7555923c0-8.6481781,7.0102615-15.6490707,15.6490707-15.6490707
					C111.9081268,82.7384872,116.1199112,84.8070145,118.9745483,88.0920944z" opacity=".5"/><path fill="#ffff9a" d="M118.7218246,98.387558c0,6.3457718-5.1570435,11.5028687-11.5121841,11.5028687
					c-0.365036,0-0.7207031-0.0187378-1.0763092-0.04673c-0.6177597-0.0562134-1.2167816-0.1685257-1.8064346-0.3181915
					c-0.4305038-0.1124268-0.8516922-0.2433548-1.2635117-0.4118805c-1.8437958-0.7019577-3.463028-1.8812714-4.6984863-3.3694
					c-1.6659622-2.0029449-2.6674423-4.558075-2.6674423-7.3566666c0-6.3644028,5.147728-11.5214996,11.5121841-11.5214996
					c0.3556671,0,0.7113342,0.0187378,1.0669937,0.0468445c2.0029526,0.187149,3.8654861,0.8891068,5.4378738,1.9748459
					c0.365036,0.2433548,0.7113342,0.5148163,1.0482635,0.8049011c0.4586029,0.4025116,0.8985291,0.8423767,1.2822418,1.319725
					C117.7203445,93.0058365,118.7218246,95.5797043,118.7218246,98.387558z"/><path fill="#ffe93e" d="M113.7145081 88.8877487l-10.651123 20.2258759c-1.8437958-.7019577-3.463028-1.8812714-4.6984863-3.3694l9.9117355-18.8313217C110.2795868 87.1000519 112.1421204 87.8020096 113.7145081 88.8877487zM116.0450134 91.0123749l-9.9116821 18.8313217c-.6177597-.0562134-1.2167816-.1685257-1.8064346-.3181915l10.4358749-19.8328552C115.2213745 90.0951614 115.6613007 90.5350266 116.0450134 91.0123749z"/></g><g><path fill="#384b7d" d="M98.9123535 51.0288086c0-.2763672-.2236328-.5-.5-.5H39.986084c-.2763672 0-.5.2236328-.5.5s.2236328.5.5.5h58.4262695C98.6887207 51.5288086 98.9123535 51.3051758 98.9123535 51.0288086zM45.4499512 48.2456055h3.4311523c.5708008 0 1.0351563-.4648438 1.0351563-1.0351563V36.3139648c0-.5703125-.4643555-1.0351563-1.0351563-1.0351563h-3.4311523c-.5708008 0-1.0351563.4648438-1.0351563 1.0351563v10.8964844C44.4147949 47.7807617 44.8791504 48.2456055 45.4499512 48.2456055zM45.4499512 36.2788086h3.4311523c.0195313 0 .0351563.015625.0351563.0351563l-.0351563 10.9316406-3.4663086-.0351563L45.4499512 36.2788086zM56.467041 48.2456055h3.4311523c.5708008 0 1.0351563-.4648438 1.0351563-1.0351563V30.9624023c0-.5703125-.4643555-1.0351563-1.0351563-1.0351563H56.467041c-.5708008 0-1.0351563.4648438-1.0351563 1.0351563v16.2480469C55.4318848 47.7807617 55.8962402 48.2456055 56.467041 48.2456055zM56.467041 30.9272461h3.4311523c.0195313 0 .0351563.015625.0351563.0351563l-.0351563 16.2832031-3.4663086-.0351563L56.467041 30.9272461zM67.4836426 48.2456055h3.4316406c.5703125 0 1.0351563-.4648438 1.0351563-1.0351563V36.3139648c0-.5703125-.4648438-1.0351563-1.0351563-1.0351563h-3.4316406c-.5703125 0-1.0351563.4648438-1.0351563 1.0351563v10.8964844C66.4484863 47.7807617 66.9133301 48.2456055 67.4836426 48.2456055zM67.4836426 36.2788086h3.4316406c.0195313 0 .0351563.015625.0351563.0351563l-.0351563 10.9316406-3.4667969-.0351563L67.4836426 36.2788086zM78.5012207 48.2456055h3.4306641c.5703125 0 1.0351563-.4648438 1.0351563-1.0351563V30.9624023c0-.5703125-.4648438-1.0351563-1.0351563-1.0351563h-3.4306641c-.5703125 0-1.0351563.4648438-1.0351563 1.0351563v16.2480469C77.4660645 47.7807617 77.9309082 48.2456055 78.5012207 48.2456055zM78.5012207 30.9272461h3.4306641c.0195313 0 .0351563.015625.0351563.0351563l-.0351563 16.2832031-3.4658203-.0351563L78.5012207 30.9272461zM89.5178223 48.2456055h3.4306641c.5703125 0 1.0351563-.4648438 1.0351563-1.0351563V36.3139648c0-.5703125-.4648438-1.0351563-1.0351563-1.0351563h-3.4306641c-.5703125 0-1.0351563.4648438-1.0351563 1.0351563v10.8964844C88.482666 47.7807617 88.9475098 48.2456055 89.5178223 48.2456055zM89.5178223 36.2788086h3.4306641c.0195313 0 .0351563.015625.0351563.0351563l-.0351563 10.9316406-3.4658203-.0351563L89.5178223 36.2788086zM90.927002 102.1518555H55.4333496c-.2763672 0-.5.2236328-.5.5s.2236328.5.5.5H90.927002c.2763672 0 .5-.2236328.5-.5S91.2033691 102.1518555 90.927002 102.1518555zM38.1965332 24.8706055c-.1953125-.1953125-.5117188-.1953125-.7070313 0l-3.8891602 3.8896484c-.1953125.1953125-.1953125.5117188 0 .7070313.1953087.1953068.5117149.1953182.7070313 0l3.8891602-3.8896484C38.3918457 25.3823242 38.3918457 25.065918 38.1965332 24.8706055zM38.2810059 27.2729492l-2.2783203 2.2783203c-.1953125.1953125-.1953125.5117188 0 .7070313.1953087.1953068.5117149.1953182.7070313 0l2.2783203-2.2783203c.1953125-.1953125.1953125-.5117188 0-.7070313S38.4763184 27.0776367 38.2810059 27.2729492zM20.3405762 84.9057617h-3.3818359c-.6542969 0-1.1870117.5322266-1.1870117 1.1875v3.3818359c0 .6542969.5327148 1.1865234 1.1870117 1.1865234h3.3818359c.6547852 0 1.1875-.5322266 1.1875-1.1865234v-3.3818359C21.5280762 85.4379883 20.9953613 84.9057617 20.3405762 84.9057617zM20.5280762 89.4750977c0 .1025391-.0839844.1865234-.1875.1865234h-3.3818359c-.1030273 0-.1870117-.0839844-.1870117-.1865234v-3.3818359c0-.1035156.0839844-.1875.1870117-.1875h3.3818359c.1035156 0 .1875.0839844.1875.1875V89.4750977zM20.3405762 94.4311523h-3.3818359c-.6542969 0-1.1870117.5322266-1.1870117 1.1875v3.3818359c0 .6552734.5327148 1.1875 1.1870117 1.1875h3.3818359c.6547852 0 1.1875-.5322266 1.1875-1.1875v-3.3818359C21.5280762 94.9633789 20.9953613 94.4311523 20.3405762 94.4311523zM20.5280762 99.0004883c0 .1035156-.0839844.1875-.1875.1875h-3.3818359c-.1030273 0-.1870117-.0839844-.1870117-.1875v-3.3818359c0-.1035156.0839844-.1875.1870117-.1875h3.3818359c.1035156 0 .1875.0839844.1875.1875V99.0004883zM20.3405762 103.956543h-3.3818359c-.6542969 0-1.1870117.5322266-1.1870117 1.1875v3.3818359c0 .6552734.5327148 1.1875 1.1870117 1.1875h3.3818359c.6547852 0 1.1875-.5322266 1.1875-1.1875v-3.3818359C21.5280762 104.4887695 20.9953613 103.956543 20.3405762 103.956543zM20.5280762 108.5258789c0 .1035156-.0839844.1875-.1875.1875h-3.3818359c-.1030273 0-.1870117-.0839844-.1870117-.1875v-3.3818359c0-.1035156.0839844-.1875.1870117-.1875h3.3818359c.1035156 0 .1875.0839844.1875.1875V108.5258789zM29.1120605 84.9057617h-3.3818359c-.6547852 0-1.1875.5322266-1.1875 1.1875v3.3818359c0 .6542969.5327148 1.1865234 1.1875 1.1865234h3.3818359c.6542969 0 1.1870117-.5322266 1.1870117-1.1865234v-3.3818359C30.2990723 85.4379883 29.7663574 84.9057617 29.1120605 84.9057617zM29.2990723 89.4750977c0 .1025391-.0839844.1865234-.1870117.1865234h-3.3818359c-.1035156 0-.1875-.0839844-.1875-.1865234v-3.3818359c0-.1035156.0839844-.1875.1875-.1875h3.3818359c.1030273 0 .1870117.0839844.1870117.1875V89.4750977zM29.1120605 94.4311523h-3.3818359c-.6547852 0-1.1875.5322266-1.1875 1.1875v3.3818359c0 .6552734.5327148 1.1875 1.1875 1.1875h3.3818359c.6542969 0 1.1870117-.5322266 1.1870117-1.1875v-3.3818359C30.2990723 94.9633789 29.7663574 94.4311523 29.1120605 94.4311523zM29.2990723 99.0004883c0 .1035156-.0839844.1875-.1870117.1875h-3.3818359c-.1035156 0-.1875-.0839844-.1875-.1875v-3.3818359c0-.1035156.0839844-.1875.1875-.1875h3.3818359c.1030273 0 .1870117.0839844.1870117.1875V99.0004883zM29.1120605 103.956543h-3.3818359c-.6547852 0-1.1875.5322266-1.1875 1.1875v3.3818359c0 .6552734.5327148 1.1875 1.1875 1.1875h3.3818359c.6542969 0 1.1870117-.5322266 1.1870117-1.1875v-3.3818359C30.2990723 104.4887695 29.7663574 103.956543 29.1120605 103.956543zM29.2990723 108.5258789c0 .1035156-.0839844.1875-.1870117.1875h-3.3818359c-.1035156 0-.1875-.0839844-.1875-.1875v-3.3818359c0-.1035156.0839844-.1875.1875-.1875h3.3818359c.1030273 0 .1870117.0839844.1870117.1875V108.5258789zM37.8830566 84.9057617h-3.3818359c-.6547852 0-1.1875.5322266-1.1875 1.1875v3.3818359c0 .6542969.5327148 1.1865234 1.1875 1.1865234h3.3818359c.6547852 0 1.1875-.5322266 1.1875-1.1865234v-3.3818359C39.0705566 85.4379883 38.5378418 84.9057617 37.8830566 84.9057617zM38.0705566 89.4750977c0 .1025391-.0839844.1865234-.1875.1865234h-3.3818359c-.1035156 0-.1875-.0839844-.1875-.1865234v-3.3818359c0-.1035156.0839844-.1875.1875-.1875h3.3818359c.1035156 0 .1875.0839844.1875.1875V89.4750977zM37.8830566 94.4311523h-3.3818359c-.6547852 0-1.1875.5322266-1.1875 1.1875v3.3818359c0 .6552734.5327148 1.1875 1.1875 1.1875h3.3818359c.6547852 0 1.1875-.5322266 1.1875-1.1875v-3.3818359C39.0705566 94.9633789 38.5378418 94.4311523 37.8830566 94.4311523zM38.0705566 99.0004883c0 .1035156-.0839844.1875-.1875.1875h-3.3818359c-.1035156 0-.1875-.0839844-.1875-.1875v-3.3818359c0-.1035156.0839844-.1875.1875-.1875h3.3818359c.1035156 0 .1875.0839844.1875.1875V99.0004883zM37.8830566 103.956543h-3.3818359c-.6547852 0-1.1875.5322266-1.1875 1.1875v3.3818359c0 .6552734.5327148 1.1875 1.1875 1.1875h3.3818359c.6547852 0 1.1875-.5322266 1.1875-1.1875v-3.3818359C39.0705566 104.4887695 38.5378418 103.956543 37.8830566 103.956543zM38.0705566 108.5258789c0 .1035156-.0839844.1875-.1875.1875h-3.3818359c-.1035156 0-.1875-.0839844-.1875-.1875v-3.3818359c0-.1035156.0839844-.1875.1875-.1875h3.3818359c.1035156 0 .1875.0839844.1875.1875V108.5258789zM46.6540527 84.9057617h-3.3818359c-.6547852 0-1.1875.5322266-1.1875 1.1875v3.3818359c0 .6542969.5327148 1.1865234 1.1875 1.1865234h3.3818359c.6547852 0 1.1875-.5322266 1.1875-1.1865234v-3.3818359C47.8415527 85.4379883 47.3088379 84.9057617 46.6540527 84.9057617zM46.8415527 89.4750977c0 .1025391-.0839844.1865234-.1875.1865234h-3.3818359c-.1035156 0-.1875-.0839844-.1875-.1865234v-3.3818359c0-.1035156.0839844-.1875.1875-.1875h3.3818359c.1035156 0 .1875.0839844.1875.1875V89.4750977zM47.8410645 108.5307617V95.621582c0-.6552734-.5327148-1.1875-1.1870117-1.1875h-3.3818359c-.6547852 0-1.1875.5322266-1.1875 1.1875v12.9091797c0 .6552734.5327148 1.1875 1.1875 1.1875h3.3818359C47.3083496 109.7182617 47.8410645 109.1860352 47.8410645 108.5307617zM46.8410645 108.5307617c0 .1035156-.0839844.1875-.1870117.1875h-3.3818359c-.1035156 0-.1875-.0839844-.1875-.1875V95.621582c0-.1035156.0839844-.1875.1875-.1875h3.3818359c.1030273 0 .1870117.0839844.1870117.1875V108.5307617zM16.2717285 80.9575195h31.0698242c.2763672 0 .5-.2236328.5-.5V69.6938477c0-.2763672-.2236328-.5-.5-.5H16.2717285c-.2763672 0-.5.2236328-.5.5v10.7636719C15.7717285 80.7338867 15.9953613 80.9575195 16.2717285 80.9575195zM16.7717285 70.1938477h30.0698242v9.7636719H16.7717285V70.1938477z"/><path fill="#384b7d" d="M27.119873 74.5756836h-1.8696289c-.2763672 0-.5.2236328-.5.5s.2236328.5.5.5h1.8696289c.2763672 0 .5-.2236328.5-.5S27.3962402 74.5756836 27.119873 74.5756836zM32.7429199 74.5756836h-1.8701172c-.2763672 0-.5.2236328-.5.5s.2236328.5.5.5h1.8701172c.2763672 0 .5-.2236328.5-.5S33.0192871 74.5756836 32.7429199 74.5756836zM38.3654785 74.5756836h-1.8696289c-.2763672 0-.5.2236328-.5.5s.2236328.5.5.5h1.8696289c.2763672 0 .5-.2236328.5-.5S38.6418457 74.5756836 38.3654785 74.5756836zM71.4406738 57.5893555c-8.9008789 0-16.1420898 7.2490234-16.1420898 16.1591797 0 8.9562073 7.2469788 16.1591797 16.1420898 16.1591797 8.9101563 0 16.1591797-7.2490234 16.1591797-16.1591797v-.2666016c0-.0029297 0-.0058594 0-.0087891C87.4465332 64.7143555 80.1975098 57.5893555 71.4406738 57.5893555zM86.5653687 72.9819336H71.9406738V58.6147461C79.7622986 58.8689423 86.1589203 65.1398392 86.5653687 72.9819336zM70.9406738 58.6147461v14.6601563L60.2631836 83.9523926c-2.552002-2.7922363-3.9645996-6.3891602-3.9645996-10.2038574C56.298584 65.559082 62.8236694 58.8820801 70.9406738 58.6147461zM60.9620361 84.6680908l10.6856689-10.6861572h14.9403076c-.1266403 8.3718262-7.0306625 14.9257813-15.1473389 14.9257813C67.6852951 88.9077148 63.9016953 87.4917297 60.9620361 84.6680908z"/><path fill="#384b7d" d="M107.7111816,82.2642822V22.9995117c0-1.4550781-1.1884766-2.6396484-2.6503906-2.6396484H33.3308105
				c-1.4555664,0-2.6401367,1.1845703-2.6401367,2.6396484v42.0693359H16.2717285c-2.5498047,0-4.6245117,2.0751953-4.6245117,4.625
				v40.3212891c0,2.5498047,2.074707,4.625,4.6245117,4.625c18.5377884,0,71.9714432,0,88.7890625,0
				c0.3250732,0,0.635437-0.0649414,0.9265137-0.1809082c0.4041138,0.0303955,0.8081665,0.0617676,1.2199707,0.0617676
				c8.9023438,0,16.1455078-7.2392578,16.1455078-16.1367188C123.3527832,89.6520996,116.3792114,82.5336914,107.7111816,82.2642822
				z M16.2717285,113.6401367c-1.9985352,0-3.6245117-1.6259766-3.6245117-3.625V69.6938477
				c0-1.9990234,1.6259766-3.625,3.6245117-3.625c14.0799179,0,21.8732071,0,31.0693359,0
				c1.9985352,0,3.6245117,1.6259766,3.6245117,3.625v40.3212891c0,1.9990234-1.6259766,3.625-3.6245117,3.625
				C39.3515129,113.6401367,24.0294857,113.6401367,16.2717285,113.6401367z M50.1778564,113.6401367
				c1.079895-0.8474121,1.7877197-2.1491699,1.7877197-3.625V69.6938477c0-2.5498047-2.074707-4.625-4.6245117-4.625H31.6906738
				V22.9995117c0-0.9042969,0.7358398-1.6396484,1.6401367-1.6396484h71.7299805
				c0.9101563,0,1.6503906,0.7353516,1.6503906,1.6396484V82.263916
				c-7.9033203,0.2419434-14.3816528,6.1806641-15.4700928,13.8459473H55.4309082c-0.2763672,0-0.5,0.2236328-0.5,0.5
				s0.2236328,0.5,0.5,0.5h35.6954346c-0.0332031,0.421875-0.0645752,0.8442383-0.0645752,1.2744141
				c0,7.0715332,4.5820923,13.0810547,10.9292603,15.2558594H50.1778564z M107.2072754,113.5209961
				c-8.3515625,0-15.1455078-6.7900391-15.1455078-15.1367188c0-8.3513184,6.7935791-15.1450195,15.1447754-15.1455078
				c0.0016479,0,0.0029907,0.0009766,0.0046387,0.0009766c0.0010986,0,0.0020142-0.0006104,0.0031128-0.0006104
				c8.3482056,0.0037842,15.1384888,6.7960205,15.1384888,15.1451416
				C122.3527832,106.730957,115.5588379,113.5209961,107.2072754,113.5209961z"/><path fill="#384b7d" d="M107.2072754,86.3706055c-6.6240234,0-12.0136719,5.3886719-12.0136719,12.0126953
				c0,6.6201172,5.3896484,12.0068359,12.0136719,12.0068359s12.0126953-5.3867188,12.0126953-12.0068359
				C119.2199707,91.7592773,113.8312988,86.3706055,107.2072754,86.3706055z M107.2072754,109.3901367
				c-6.0732422,0-11.0136719-4.9375-11.0136719-11.0068359c0-6.0722656,4.9404297-11.0126953,11.0136719-11.0126953
				c6.0722656,0,11.0126953,4.9404297,11.0126953,11.0126953
				C118.2199707,104.4526367,113.279541,109.3901367,107.2072754,109.3901367z"/><path fill="#384b7d" d="M108.5500488,97.8803711h-0.8427734v-3.7226563h2.5048828c0.2763672,0,0.5-0.2236328,0.5-0.5
				s-0.2236328-0.5-0.5-0.5h-2.5048828v-0.8369141c0-0.2763672-0.2236328-0.5-0.5-0.5s-0.5,0.2236328-0.5,0.5v0.8369141h-0.84375
				c-1.5742188,0-2.8544922,1.2802734-2.8544922,2.8681641c0,1.5742188,1.2802734,2.8544922,2.8544922,2.8544922h0.84375v3.7226563
				h-2.5058594c-0.2763672,0-0.5,0.2236328-0.5,0.5s0.2236328,0.5,0.5,0.5h2.5058594v0.8369141c0,0.2763672,0.2236328,0.5,0.5,0.5
				s0.5-0.2236328,0.5-0.5v-0.8369141h0.8427734c1.5742188,0,2.8544922-1.2802734,2.8544922-2.8681641
				C111.404541,99.1606445,110.1242676,97.8803711,108.5500488,97.8803711z M105.8635254,97.8803711
				c-1.0224609,0-1.8544922-0.8320313-1.8544922-1.8681641c0-1.0224609,0.8320313-1.8544922,1.8544922-1.8544922h0.84375v3.7226563
				H105.8635254z M108.5500488,102.6030273h-0.8427734v-3.7226563h0.8427734c1.0224609,0,1.8544922,0.8320313,1.8544922,1.8681641
				C110.404541,101.7709961,109.5725098,102.6030273,108.5500488,102.6030273z"/></g></svg>