<svg width="500" height="700" viewBox="0 0 500 700" fill="none" xmlns="http://www.w3.org/2000/svg">
<rect width="500" height="700" fill="white"/>
<rect width="500" height="700" fill="white"/>
<path d="M79.0608 83.0607C79.6465 82.4749 79.6465 81.5251 79.0608 80.9393L69.5148 71.3934C68.929 70.8076 67.9793 70.8076 67.3935 71.3934C66.8077 71.9792 66.8077 72.9289 67.3935 73.5147L75.8788 82L67.3935 90.4853C66.8077 91.0711 66.8077 92.0208 67.3935 92.6066C67.9793 93.1924 68.929 93.1924 69.5148 92.6066L79.0608 83.0607ZM45.5001 83.5L78.0001 83.5L78.0001 80.5L45.5001 80.5L45.5001 83.5Z" fill="black" fill-opacity="0.81"/>
<line x1="43.5001" y1="83" x2="43.5001" y2="51" stroke="black" stroke-opacity="0.81" stroke-width="3"/>
<path d="M106.287 65.3644H131.035C132.002 65.3644 132.889 65.6671 133.547 66.1591C134.285 66.7141 134.742 67.4962 134.742 68.3666V74.8631H132.271L87.7158 74.8H85.245V68.354C85.245 67.471 85.7016 66.7015 86.4401 66.1465C87.0981 65.6545 87.9844 65.3518 88.9512 65.3518H91.422V63.5732C91.422 62.9298 91.704 62.3496 92.1471 61.9207C92.6037 61.4918 93.2214 61.2269 93.9062 61.2269H103.803C104.488 61.2269 105.105 61.4918 105.562 61.9207C106.005 62.3496 106.287 62.9298 106.287 63.5732V65.3644Z" fill="#25F9D3"/>
<path d="M88.9646 69.3758H131.049C132.056 69.3758 132.983 69.7542 133.654 70.3723C134.339 70.9904 134.755 71.8608 134.755 72.8069V97.342C134.755 98.2881 134.339 99.1459 133.654 99.7766C132.983 100.395 132.056 100.773 131.049 100.773H88.9646C87.9575 100.773 87.031 100.395 86.3595 99.7766C85.6747 99.1585 85.2584 98.2881 85.2584 97.342V72.8069C85.2584 71.8608 85.6747 71.0031 86.3595 70.3723C87.031 69.7542 87.9441 69.3758 88.9646 69.3758V69.3758Z" fill="#2D98FB"/>
<path d="M71.5607 637.061C72.1465 636.475 72.1465 635.525 71.5607 634.939L62.0148 625.393C61.429 624.808 60.4792 624.808 59.8934 625.393C59.3076 625.979 59.3076 626.929 59.8934 627.515L68.3787 636L59.8934 644.485C59.3076 645.071 59.3076 646.021 59.8934 646.607C60.4792 647.192 61.429 647.192 62.0148 646.607L71.5607 637.061ZM38 637.5L70.5 637.5L70.5 634.5L38 634.5L38 637.5Z" fill="black" fill-opacity="0.81"/>
<line x1="37.0001" y1="637" x2="37.0001" y2="605" stroke="black" stroke-opacity="0.81" stroke-width="3"/>
<path d="M99.7871 619.364H124.535C125.502 619.364 126.389 619.667 127.047 620.159C127.785 620.714 128.242 621.496 128.242 622.367V628.863H125.771L81.2158 628.8H78.745V622.354C78.745 621.471 79.2016 620.702 79.9401 620.147C80.5981 619.655 81.4844 619.352 82.4512 619.352H84.922V617.573C84.922 616.93 85.204 616.35 85.6471 615.921C86.1037 615.492 86.7214 615.227 87.4062 615.227H97.3029C97.9877 615.227 98.6054 615.492 99.062 615.921C99.5051 616.35 99.7871 616.93 99.7871 617.573V619.364Z" fill="#25F9D3"/>
<path d="M82.4646 623.376H124.549C125.556 623.376 126.483 623.754 127.154 624.372C127.839 624.99 128.255 625.861 128.255 626.807V651.342C128.255 652.288 127.839 653.146 127.154 653.777C126.483 654.395 125.556 654.773 124.549 654.773H82.4646C81.4575 654.773 80.531 654.395 79.8595 653.777C79.1747 653.158 78.7584 652.288 78.7584 651.342V626.807C78.7584 625.861 79.1747 625.003 79.8595 624.372C80.531 623.754 81.4441 623.376 82.4646 623.376V623.376Z" fill="#2D98FB"/>
<path d="M144.561 173.061C145.146 172.475 145.146 171.525 144.561 170.939L135.015 161.393C134.429 160.808 133.479 160.808 132.893 161.393C132.308 161.979 132.308 162.929 132.893 163.515L141.379 172L132.893 180.485C132.308 181.071 132.308 182.021 132.893 182.607C133.479 183.192 134.429 183.192 135.015 182.607L144.561 173.061ZM111 173.5L143.5 173.5L143.5 170.5L111 170.5L111 173.5Z" fill="black" fill-opacity="0.81"/>
<line x1="110" y1="173" x2="110" y2="141" stroke="black" stroke-opacity="0.81" stroke-width="3"/>
<path d="M172.787 155.364H197.535C198.502 155.364 199.389 155.667 200.047 156.159C200.785 156.714 201.242 157.496 201.242 158.367V164.863H198.771L154.216 164.8H151.745V158.354C151.745 157.471 152.202 156.702 152.94 156.146C153.598 155.655 154.484 155.352 155.451 155.352H157.922V153.573C157.922 152.93 158.204 152.35 158.647 151.921C159.104 151.492 159.721 151.227 160.406 151.227H170.303C170.988 151.227 171.605 151.492 172.062 151.921C172.505 152.35 172.787 152.93 172.787 153.573V155.364Z" fill="#25F9D3"/>
<path d="M155.465 159.376H197.549C198.556 159.376 199.483 159.754 200.154 160.372C200.839 160.99 201.255 161.861 201.255 162.807V187.342C201.255 188.288 200.839 189.146 200.154 189.777C199.483 190.395 198.556 190.773 197.549 190.773H155.465C154.458 190.773 153.531 190.395 152.86 189.777C152.175 189.158 151.758 188.288 151.758 187.342V162.807C151.758 161.861 152.175 161.003 152.86 160.372C153.531 159.754 154.444 159.376 155.465 159.376V159.376Z" fill="#2D98FB"/>
<path d="M144.561 266.061C145.146 265.475 145.146 264.525 144.561 263.939L135.015 254.393C134.429 253.808 133.479 253.808 132.893 254.393C132.308 254.979 132.308 255.929 132.893 256.515L141.379 265L132.893 273.485C132.308 274.071 132.308 275.021 132.893 275.607C133.479 276.192 134.429 276.192 135.015 275.607L144.561 266.061ZM111 266.5L143.5 266.5L143.5 263.5L111 263.5L111 266.5Z" fill="black" fill-opacity="0.81"/>
<line x1="110" y1="266" x2="110" y2="234" stroke="black" stroke-opacity="0.81" stroke-width="3"/>
<path d="M172.787 248.364H197.535C198.502 248.364 199.389 248.667 200.047 249.159C200.785 249.714 201.242 250.496 201.242 251.367V257.863H198.771L154.216 257.8H151.745V251.354C151.745 250.471 152.202 249.702 152.94 249.146C153.598 248.655 154.484 248.352 155.451 248.352H157.922V246.573C157.922 245.93 158.204 245.35 158.647 244.921C159.104 244.492 159.721 244.227 160.406 244.227H170.303C170.988 244.227 171.605 244.492 172.062 244.921C172.505 245.35 172.787 245.93 172.787 246.573V248.364Z" fill="#25F9D3"/>
<path d="M155.465 252.376H197.549C198.556 252.376 199.483 252.754 200.154 253.372C200.839 253.99 201.255 254.861 201.255 255.807V280.342C201.255 281.288 200.839 282.146 200.154 282.777C199.483 283.395 198.556 283.773 197.549 283.773H155.465C154.458 283.773 153.531 283.395 152.86 282.777C152.175 282.158 151.758 281.288 151.758 280.342V255.807C151.758 254.861 152.175 254.003 152.86 253.372C153.531 252.754 154.444 252.376 155.465 252.376V252.376Z" fill="#2D98FB"/>
<path d="M234.561 342.061C235.147 341.475 235.147 340.525 234.561 339.939L225.015 330.393C224.429 329.808 223.479 329.808 222.893 330.393C222.308 330.979 222.308 331.929 222.893 332.515L231.379 341L222.893 349.485C222.308 350.071 222.308 351.021 222.893 351.607C223.479 352.192 224.429 352.192 225.015 351.607L234.561 342.061ZM201 342.5L233.5 342.5L233.5 339.5L201 339.5L201 342.5Z" fill="black" fill-opacity="0.81"/>
<line x1="200" y1="342" x2="200" y2="310" stroke="black" stroke-opacity="0.81" stroke-width="3"/>
<path d="M262.787 324.364H287.535C288.502 324.364 289.389 324.667 290.047 325.159C290.785 325.714 291.242 326.496 291.242 327.367V333.863H288.771L244.216 333.8H241.745V327.354C241.745 326.471 242.202 325.702 242.94 325.146C243.598 324.655 244.484 324.352 245.451 324.352H247.922V322.573C247.922 321.93 248.204 321.35 248.647 320.921C249.104 320.492 249.721 320.227 250.406 320.227H260.303C260.988 320.227 261.605 320.492 262.062 320.921C262.505 321.35 262.787 321.93 262.787 322.573V324.364Z" fill="#25F9D3"/>
<path d="M245.465 328.376H287.549C288.556 328.376 289.482 328.754 290.154 329.372C290.839 329.99 291.255 330.861 291.255 331.807V356.342C291.255 357.288 290.839 358.146 290.154 358.777C289.482 359.395 288.556 359.773 287.549 359.773H245.465C244.457 359.773 243.531 359.395 242.859 358.777C242.175 358.158 241.758 357.288 241.758 356.342V331.807C241.758 330.861 242.175 330.003 242.859 329.372C243.531 328.754 244.444 328.376 245.465 328.376V328.376Z" fill="#2D98FB"/>
<path d="M234.561 435.061C235.147 434.475 235.147 433.525 234.561 432.939L225.015 423.393C224.429 422.808 223.479 422.808 222.893 423.393C222.308 423.979 222.308 424.929 222.893 425.515L231.379 434L222.893 442.485C222.308 443.071 222.308 444.021 222.893 444.607C223.479 445.192 224.429 445.192 225.015 444.607L234.561 435.061ZM201 435.5L233.5 435.5L233.5 432.5L201 432.5L201 435.5Z" fill="black" fill-opacity="0.81"/>
<line x1="200" y1="435" x2="200" y2="403" stroke="black" stroke-opacity="0.81" stroke-width="3"/>
<path d="M262.787 417.364H287.535C288.502 417.364 289.389 417.667 290.047 418.159C290.785 418.714 291.242 419.496 291.242 420.367V426.863H288.771L244.216 426.8H241.745V420.354C241.745 419.471 242.202 418.702 242.94 418.146C243.598 417.655 244.484 417.352 245.451 417.352H247.922V415.573C247.922 414.93 248.204 414.35 248.647 413.921C249.104 413.492 249.721 413.227 250.406 413.227H260.303C260.988 413.227 261.605 413.492 262.062 413.921C262.505 414.35 262.787 414.93 262.787 415.573V417.364Z" fill="#25F9D3"/>
<path d="M245.465 421.376H287.549C288.556 421.376 289.482 421.754 290.154 422.372C290.839 422.99 291.255 423.861 291.255 424.807V449.342C291.255 450.288 290.839 451.146 290.154 451.777C289.482 452.395 288.556 452.773 287.549 452.773H245.465C244.457 452.773 243.531 452.395 242.859 451.777C242.175 451.158 241.758 450.288 241.758 449.342V424.807C241.758 423.861 242.175 423.003 242.859 422.372C243.531 421.754 244.444 421.376 245.465 421.376V421.376Z" fill="#2D98FB"/>
<path d="M144.561 549.061C145.146 548.475 145.146 547.525 144.561 546.939L135.015 537.393C134.429 536.808 133.479 536.808 132.893 537.393C132.308 537.979 132.308 538.929 132.893 539.515L141.379 548L132.893 556.485C132.308 557.071 132.308 558.021 132.893 558.607C133.479 559.192 134.429 559.192 135.015 558.607L144.561 549.061ZM111 549.5L143.5 549.5L143.5 546.5L111 546.5L111 549.5Z" fill="black" fill-opacity="0.81"/>
<line x1="110" y1="549" x2="110" y2="517" stroke="black" stroke-opacity="0.81" stroke-width="3"/>
<path d="M172.787 531.364H197.535C198.502 531.364 199.389 531.667 200.047 532.159C200.785 532.714 201.242 533.496 201.242 534.367V540.863H198.771L154.216 540.8H151.745V534.354C151.745 533.471 152.202 532.702 152.94 532.147C153.598 531.655 154.484 531.352 155.451 531.352H157.922V529.573C157.922 528.93 158.204 528.35 158.647 527.921C159.104 527.492 159.721 527.227 160.406 527.227H170.303C170.988 527.227 171.605 527.492 172.062 527.921C172.505 528.35 172.787 528.93 172.787 529.573V531.364Z" fill="#25F9D3"/>
<path d="M155.465 535.376H197.549C198.556 535.376 199.483 535.754 200.154 536.372C200.839 536.99 201.255 537.861 201.255 538.807V563.342C201.255 564.288 200.839 565.146 200.154 565.777C199.483 566.395 198.556 566.773 197.549 566.773H155.465C154.458 566.773 153.531 566.395 152.86 565.777C152.175 565.158 151.758 564.288 151.758 563.342V538.807C151.758 537.861 152.175 537.003 152.86 536.372C153.531 535.754 154.444 535.376 155.465 535.376V535.376Z" fill="#2D98FB"/>
<path d="M164.761 77.4545V92H166.409V80.9489H166.551L171.097 92H172.688L177.233 80.9489H177.375V92H179.023V77.4545H176.921L171.977 89.5284H171.807L166.864 77.4545H164.761ZM189.202 87.5398C189.202 89.5852 187.64 90.5227 186.39 90.5227C184.998 90.5227 184.003 89.5 184.003 87.9091V81.0909H182.327V88.0227C182.327 90.8068 183.804 92.142 185.85 92.142C187.498 92.142 188.577 91.2614 189.088 90.1534H189.202V92H190.878V81.0909H189.202V87.5398ZM195.624 77.4545H193.948V92H195.624V77.4545ZM203.439 81.0909H201.109V78.4773H199.433V81.0909H197.785V82.5114H199.433V89.3295C199.433 91.233 200.967 92.142 202.387 92.142C203.012 92.142 203.41 92.0284 203.637 91.9432L203.297 90.4375C203.155 90.4659 202.927 90.5227 202.558 90.5227C201.819 90.5227 201.109 90.2955 201.109 88.875V82.5114H203.439V81.0909ZM205.96 92H207.636V81.0909H205.96V92ZM206.812 79.2727C207.466 79.2727 208.005 78.7614 208.005 78.1364C208.005 77.5114 207.466 77 206.812 77C206.159 77 205.619 77.5114 205.619 78.1364C205.619 78.7614 206.159 79.2727 206.812 79.2727ZM215.564 81.0909H213.121V79.983C213.121 78.9034 213.575 78.3352 214.683 78.3352C215.166 78.3352 215.45 78.4489 215.621 78.5057L216.104 77.0568C215.848 76.9432 215.337 76.7727 214.513 76.7727C212.95 76.7727 211.445 77.7102 211.445 79.5852V81.0909H209.683V82.5114H211.445V92H213.121V82.5114H215.564V81.0909ZM220.811 92.2557C222.714 92.2557 223.709 91.233 224.049 90.5227H224.135V92H225.811V84.8125C225.811 81.3466 223.169 80.9489 221.777 80.9489C220.129 80.9489 218.254 81.517 217.402 83.5057L218.993 84.0739C219.362 83.2784 220.236 82.4261 221.834 82.4261C223.375 82.4261 224.135 83.2429 224.135 84.642V84.6989C224.135 85.5085 223.311 85.4375 221.322 85.6932C219.298 85.956 217.089 86.4034 217.089 88.9034C217.089 91.0341 218.737 92.2557 220.811 92.2557ZM221.066 90.75C219.731 90.75 218.765 90.1534 218.765 88.9886C218.765 87.7102 219.93 87.3125 221.237 87.142C221.947 87.0568 223.851 86.858 224.135 86.517V88.0511C224.135 89.4148 223.055 90.75 221.066 90.75ZM228.87 92H230.546V85.1818C230.546 83.5838 231.711 82.4545 233.018 82.4545C234.289 82.4545 235.177 83.2855 235.177 84.5284V92H236.881V84.8977C236.881 83.4915 237.762 82.4545 239.296 82.4545C240.489 82.4545 241.512 83.0866 241.512 84.6989V92H243.188V84.6989C243.188 82.1349 241.81 80.9489 239.864 80.9489C238.302 80.9489 237.158 81.6662 236.597 82.7955H236.484C235.944 81.6307 234.992 80.9489 233.558 80.9489C232.137 80.9489 231.086 81.6307 230.631 82.7955H230.489V81.0909H228.87V92ZM246.253 92H247.929V81.0909H246.253V92ZM247.105 79.2727C247.759 79.2727 248.298 78.7614 248.298 78.1364C248.298 77.5114 247.759 77 247.105 77C246.452 77 245.912 77.5114 245.912 78.1364C245.912 78.7614 246.452 79.2727 247.105 79.2727ZM252.675 77.4545H250.999V92H252.675V77.4545ZM256.825 96.0909C258.337 96.0909 259.403 95.2884 260.035 93.5909L264.68 81.1193L262.847 81.0909L259.836 89.7841H259.722L256.711 81.0909H254.893L258.927 92.0568L258.614 92.9091C258.004 94.571 257.251 94.7273 256.029 94.4148L255.603 95.892C255.773 95.9773 256.256 96.0909 256.825 96.0909ZM272.75 92H274.511V86.6875H277.693C281.081 86.6875 282.608 84.6278 282.608 82.0568C282.608 79.4858 281.081 77.4545 277.664 77.4545H272.75V92ZM274.511 85.125V79.017H277.608C279.973 79.017 280.875 80.3097 280.875 82.0568C280.875 83.804 279.973 85.125 277.636 85.125H274.511ZM285.218 92H286.894V85.0966C286.894 83.6193 288.059 82.5398 289.65 82.5398C290.097 82.5398 290.559 82.625 290.672 82.6534V80.9489C290.481 80.9347 290.04 80.9205 289.792 80.9205C288.485 80.9205 287.348 81.6591 286.951 82.7386H286.837V81.0909H285.218V92ZM296.759 92.2273C299.713 92.2273 301.702 89.983 301.702 86.6023C301.702 83.1932 299.713 80.9489 296.759 80.9489C293.804 80.9489 291.816 83.1932 291.816 86.6023C291.816 89.983 293.804 92.2273 296.759 92.2273ZM296.759 90.7216C294.515 90.7216 293.492 88.7898 293.492 86.6023C293.492 84.4148 294.515 82.4545 296.759 82.4545C299.003 82.4545 300.026 84.4148 300.026 86.6023C300.026 88.7898 299.003 90.7216 296.759 90.7216ZM304.261 81.0909V92.7955C304.261 93.9034 303.806 94.5284 302.783 94.5284H302.471V96.0909H302.812C304.914 96.0909 305.937 94.8125 305.937 92.7955V81.0909H304.261ZM305.085 79.2727C305.738 79.2727 306.278 78.7614 306.278 78.1364C306.278 77.5114 305.738 77 305.085 77C304.431 77 303.891 77.5114 303.891 78.1364C303.891 78.7614 304.431 79.2727 305.085 79.2727ZM313.581 92.2273C315.797 92.2273 317.416 91.1193 317.927 89.4716L316.308 89.017C315.882 90.1534 314.895 90.7216 313.581 90.7216C311.613 90.7216 310.257 89.4503 310.179 87.1136H318.098V86.4034C318.098 82.3409 315.683 80.9489 313.41 80.9489C310.456 80.9489 308.495 83.2784 308.495 86.6307C308.495 89.983 310.427 92.2273 313.581 92.2273ZM310.179 85.6648C310.292 83.9673 311.493 82.4545 313.41 82.4545C315.228 82.4545 316.393 83.8182 316.393 85.6648H310.179ZM325.079 92.2273C327.494 92.2273 329.085 90.75 329.369 88.8182H327.693C327.38 90.0114 326.386 90.7216 325.079 90.7216C323.091 90.7216 321.812 89.0739 321.812 86.5455C321.812 84.0739 323.119 82.4545 325.079 82.4545C326.557 82.4545 327.437 83.3636 327.693 84.358H329.369C329.085 82.3125 327.352 80.9489 325.051 80.9489C322.096 80.9489 320.136 83.2784 320.136 86.6023C320.136 89.8693 322.011 92.2273 325.079 92.2273ZM336.564 81.0909H334.234V78.4773H332.558V81.0909H330.91V82.5114H332.558V89.3295C332.558 91.233 334.092 92.142 335.512 92.142C336.137 92.142 336.535 92.0284 336.762 91.9432L336.422 90.4375C336.28 90.4659 336.052 90.5227 335.683 90.5227C334.944 90.5227 334.234 90.2955 334.234 88.875V82.5114H336.564V81.0909Z" fill="black"/>
<path d="M172.466 634C171.926 631.017 169.54 629.256 166.614 629.256C162.892 629.256 160.193 632.125 160.193 636.727C160.193 641.33 162.892 644.199 166.614 644.199C169.54 644.199 171.926 642.438 172.466 639.455H170.705C170.278 641.472 168.546 642.551 166.614 642.551C163.972 642.551 161.898 640.506 161.898 636.727C161.898 632.949 163.972 630.903 166.614 630.903C168.546 630.903 170.278 631.983 170.705 634H172.466ZM175.085 644H176.761V633.091H175.085V644ZM175.937 631.273C176.591 631.273 177.13 630.761 177.13 630.136C177.13 629.511 176.591 629 175.937 629C175.284 629 174.744 629.511 174.744 630.136C174.744 630.761 175.284 631.273 175.937 631.273ZM184.575 633.091H182.246V630.477H180.57V633.091H178.922V634.511H180.57V641.33C180.57 643.233 182.104 644.142 183.524 644.142C184.149 644.142 184.547 644.028 184.774 643.943L184.433 642.438C184.291 642.466 184.064 642.523 183.695 642.523C182.956 642.523 182.246 642.295 182.246 640.875V634.511H184.575V633.091ZM188.176 648.091C189.689 648.091 190.754 647.288 191.386 645.591L196.031 633.119L194.199 633.091L191.188 641.784H191.074L188.063 633.091H186.244L190.278 644.057L189.966 644.909C189.355 646.571 188.602 646.727 187.381 646.415L186.955 647.892C187.125 647.977 187.608 648.091 188.176 648.091ZM204.101 629.455V644H205.749V632.949H205.891L210.436 644H212.027L216.573 632.949H216.715V644H218.363V629.455H216.26L211.317 641.528H211.147L206.204 629.455H204.101ZM224.877 644.256C226.781 644.256 227.775 643.233 228.116 642.523H228.201V644H229.877V636.812C229.877 633.347 227.235 632.949 225.843 632.949C224.195 632.949 222.32 633.517 221.468 635.506L223.059 636.074C223.428 635.278 224.302 634.426 225.9 634.426C227.441 634.426 228.201 635.243 228.201 636.642V636.699C228.201 637.509 227.377 637.438 225.389 637.693C223.364 637.956 221.156 638.403 221.156 640.903C221.156 643.034 222.803 644.256 224.877 644.256ZM225.133 642.75C223.798 642.75 222.832 642.153 222.832 640.989C222.832 639.71 223.997 639.312 225.303 639.142C226.014 639.057 227.917 638.858 228.201 638.517V640.051C228.201 641.415 227.122 642.75 225.133 642.75ZM234.613 629.455H232.936V644H234.613V629.455ZM239.359 629.455H237.683V644H239.359V629.455ZM248.281 644H250.042V638.688H253.224C256.612 638.688 258.139 636.628 258.139 634.057C258.139 631.486 256.612 629.455 253.196 629.455H248.281V644ZM250.042 637.125V631.017H253.139C255.504 631.017 256.406 632.31 256.406 634.057C256.406 635.804 255.504 637.125 253.167 637.125H250.042ZM260.749 644H262.425V637.097C262.425 635.619 263.59 634.54 265.181 634.54C265.628 634.54 266.09 634.625 266.204 634.653V632.949C266.012 632.935 265.571 632.92 265.323 632.92C264.016 632.92 262.88 633.659 262.482 634.739H262.368V633.091H260.749V644ZM272.29 644.227C275.245 644.227 277.233 641.983 277.233 638.602C277.233 635.193 275.245 632.949 272.29 632.949C269.336 632.949 267.347 635.193 267.347 638.602C267.347 641.983 269.336 644.227 272.29 644.227ZM272.29 642.722C270.046 642.722 269.023 640.79 269.023 638.602C269.023 636.415 270.046 634.455 272.29 634.455C274.535 634.455 275.557 636.415 275.557 638.602C275.557 640.79 274.535 642.722 272.29 642.722ZM279.792 633.091V644.795C279.792 645.903 279.337 646.528 278.315 646.528H278.002V648.091H278.343C280.445 648.091 281.468 646.812 281.468 644.795V633.091H279.792ZM280.616 631.273C281.269 631.273 281.809 630.761 281.809 630.136C281.809 629.511 281.269 629 280.616 629C279.962 629 279.423 629.511 279.423 630.136C279.423 630.761 279.962 631.273 280.616 631.273ZM289.112 644.227C291.328 644.227 292.947 643.119 293.459 641.472L291.839 641.017C291.413 642.153 290.426 642.722 289.112 642.722C287.145 642.722 285.788 641.45 285.71 639.114H293.629V638.403C293.629 634.341 291.214 632.949 288.941 632.949C285.987 632.949 284.027 635.278 284.027 638.631C284.027 641.983 285.959 644.227 289.112 644.227ZM285.71 637.665C285.824 635.967 287.024 634.455 288.941 634.455C290.76 634.455 291.924 635.818 291.924 637.665H285.71ZM300.611 644.227C303.025 644.227 304.616 642.75 304.9 640.818H303.224C302.912 642.011 301.917 642.722 300.611 642.722C298.622 642.722 297.343 641.074 297.343 638.545C297.343 636.074 298.65 634.455 300.611 634.455C302.088 634.455 302.968 635.364 303.224 636.358H304.9C304.616 634.312 302.883 632.949 300.582 632.949C297.628 632.949 295.667 635.278 295.667 638.602C295.667 641.869 297.542 644.227 300.611 644.227ZM312.095 633.091H309.765V630.477H308.089V633.091H306.441V634.511H308.089V641.33C308.089 643.233 309.623 644.142 311.044 644.142C311.669 644.142 312.066 644.028 312.294 643.943L311.953 642.438C311.811 642.466 311.584 642.523 311.214 642.523C310.476 642.523 309.765 642.295 309.765 640.875V634.511H312.095V633.091Z" fill="black"/>
<path d="M242.761 178H251.284V176.438H244.523V163.455H242.761V178ZM258.358 178.227C260.574 178.227 262.193 177.119 262.705 175.472L261.085 175.017C260.659 176.153 259.672 176.722 258.358 176.722C256.391 176.722 255.034 175.45 254.956 173.114H262.875V172.403C262.875 168.341 260.46 166.949 258.188 166.949C255.233 166.949 253.273 169.278 253.273 172.631C253.273 175.983 255.205 178.227 258.358 178.227ZM254.956 171.665C255.07 169.967 256.27 168.455 258.188 168.455C260.006 168.455 261.171 169.818 261.171 171.665H254.956ZM269.828 182.318C272.442 182.318 274.544 181.125 274.544 178.312V167.091H272.925V168.824H272.754C272.385 168.256 271.703 166.949 269.573 166.949C266.817 166.949 264.913 169.136 264.913 172.489C264.913 175.898 266.902 177.83 269.544 177.83C271.675 177.83 272.357 176.58 272.726 175.983H272.868V178.199C272.868 180.017 271.59 180.841 269.828 180.841C267.847 180.841 267.151 179.797 266.703 179.193L265.368 180.131C266.05 181.274 267.392 182.318 269.828 182.318ZM269.771 176.324C267.669 176.324 266.59 174.733 266.59 172.46C266.59 170.244 267.641 168.455 269.771 168.455C271.817 168.455 272.896 170.102 272.896 172.46C272.896 174.875 271.788 176.324 269.771 176.324ZM280.823 178.256C282.726 178.256 283.72 177.233 284.061 176.523H284.146V178H285.823V170.812C285.823 167.347 283.18 166.949 281.788 166.949C280.141 166.949 278.266 167.517 277.413 169.506L279.004 170.074C279.374 169.278 280.247 168.426 281.845 168.426C283.386 168.426 284.146 169.243 284.146 170.642V170.699C284.146 171.509 283.323 171.438 281.334 171.693C279.31 171.956 277.101 172.403 277.101 174.903C277.101 177.034 278.749 178.256 280.823 178.256ZM281.078 176.75C279.743 176.75 278.777 176.153 278.777 174.989C278.777 173.71 279.942 173.312 281.249 173.142C281.959 173.057 283.862 172.858 284.146 172.517V174.051C284.146 175.415 283.067 176.75 281.078 176.75ZM290.558 163.455H288.882V178H290.558V163.455ZM298.685 165.017H303.259V178H305.02V165.017H309.594V163.455H298.685V165.017ZM315.077 178.227C317.293 178.227 318.912 177.119 319.423 175.472L317.804 175.017C317.378 176.153 316.391 176.722 315.077 176.722C313.109 176.722 311.753 175.45 311.675 173.114H319.594V172.403C319.594 168.341 317.179 166.949 314.906 166.949C311.952 166.949 309.992 169.278 309.992 172.631C309.992 175.983 311.923 178.227 315.077 178.227ZM311.675 171.665C311.788 169.967 312.989 168.455 314.906 168.455C316.724 168.455 317.889 169.818 317.889 171.665H311.675ZM325.354 178.256C327.257 178.256 328.251 177.233 328.592 176.523H328.678V178H330.354V170.812C330.354 167.347 327.712 166.949 326.32 166.949C324.672 166.949 322.797 167.517 321.945 169.506L323.536 170.074C323.905 169.278 324.778 168.426 326.376 168.426C327.918 168.426 328.678 169.243 328.678 170.642V170.699C328.678 171.509 327.854 171.438 325.865 171.693C323.841 171.956 321.632 172.403 321.632 174.903C321.632 177.034 323.28 178.256 325.354 178.256ZM325.609 176.75C324.274 176.75 323.308 176.153 323.308 174.989C323.308 173.71 324.473 173.312 325.78 173.142C326.49 173.057 328.394 172.858 328.678 172.517V174.051C328.678 175.415 327.598 176.75 325.609 176.75ZM333.413 178H335.089V171.182C335.089 169.584 336.254 168.455 337.561 168.455C338.832 168.455 339.72 169.286 339.72 170.528V178H341.424V170.898C341.424 169.491 342.305 168.455 343.839 168.455C345.032 168.455 346.055 169.087 346.055 170.699V178H347.731V170.699C347.731 168.135 346.353 166.949 344.407 166.949C342.845 166.949 341.701 167.666 341.14 168.795H341.027C340.487 167.631 339.535 166.949 338.101 166.949C336.68 166.949 335.629 167.631 335.174 168.795H335.032V167.091H333.413V178Z" fill="black"/>
<path d="M227.358 554L228.821 549.881H234.702L236.165 554H238.011L232.671 539.455H230.852L225.511 554H227.358ZM229.375 548.318L231.705 541.756H231.818L234.148 548.318H229.375ZM240.05 554H241.726V547.097C241.726 545.619 242.891 544.54 244.482 544.54C244.929 544.54 245.391 544.625 245.504 544.653V542.949C245.313 542.935 244.872 542.92 244.624 542.92C243.317 542.92 242.18 543.659 241.783 544.739H241.669V543.091H240.05V554ZM251.591 554.227C254.006 554.227 255.597 552.75 255.881 550.818H254.205C253.892 552.011 252.898 552.722 251.591 552.722C249.602 552.722 248.324 551.074 248.324 548.545C248.324 546.074 249.631 544.455 251.591 544.455C253.068 544.455 253.949 545.364 254.205 546.358H255.881C255.597 544.312 253.864 542.949 251.563 542.949C248.608 542.949 246.648 545.278 246.648 548.602C246.648 551.869 248.523 554.227 251.591 554.227ZM260.007 547.438C260.007 545.534 261.222 544.455 262.876 544.455C264.453 544.455 265.405 545.449 265.405 547.182V554H267.081V547.068C267.081 544.263 265.59 542.949 263.359 542.949C261.641 542.949 260.661 543.666 260.149 544.795H260.007V539.455H258.331V554H260.007V547.438ZM270.147 554H271.824V543.091H270.147V554ZM271 541.273C271.653 541.273 272.193 540.761 272.193 540.136C272.193 539.511 271.653 539 271 539C270.346 539 269.807 539.511 269.807 540.136C269.807 540.761 270.346 541.273 271 541.273ZM279.638 543.091H277.308V540.477H275.632V543.091H273.984V544.511H275.632V551.33C275.632 553.233 277.166 554.142 278.587 554.142C279.212 554.142 279.609 554.028 279.837 553.943L279.496 552.438C279.354 552.466 279.126 552.523 278.757 552.523C278.019 552.523 277.308 552.295 277.308 550.875V544.511H279.638V543.091ZM286.616 554.227C288.832 554.227 290.451 553.119 290.962 551.472L289.343 551.017C288.917 552.153 287.93 552.722 286.616 552.722C284.648 552.722 283.292 551.45 283.214 549.114H291.133V548.403C291.133 544.341 288.718 542.949 286.445 542.949C283.491 542.949 281.531 545.278 281.531 548.631C281.531 551.983 283.462 554.227 286.616 554.227ZM283.214 547.665C283.327 545.967 284.528 544.455 286.445 544.455C288.264 544.455 289.428 545.818 289.428 547.665H283.214ZM298.114 554.227C300.529 554.227 302.12 552.75 302.404 550.818H300.728C300.416 552.011 299.421 552.722 298.114 552.722C296.126 552.722 294.847 551.074 294.847 548.545C294.847 546.074 296.154 544.455 298.114 544.455C299.592 544.455 300.472 545.364 300.728 546.358H302.404C302.12 544.312 300.387 542.949 298.086 542.949C295.131 542.949 293.171 545.278 293.171 548.602C293.171 551.869 295.046 554.227 298.114 554.227ZM309.599 543.091H307.269V540.477H305.593V543.091H303.945V544.511H305.593V551.33C305.593 553.233 307.127 554.142 308.548 554.142C309.173 554.142 309.57 554.028 309.798 553.943L309.457 552.438C309.315 552.466 309.087 552.523 308.718 552.523C307.979 552.523 307.269 552.295 307.269 550.875V544.511H309.599V543.091Z" fill="black"/>
<path d="M320.761 347H322.523V341.688H325.705C329.092 341.688 330.619 339.628 330.619 337.057C330.619 334.486 329.092 332.455 325.676 332.455H320.761V347ZM322.523 340.125V334.017H325.619C327.984 334.017 328.886 335.31 328.886 337.057C328.886 338.804 327.984 340.125 325.648 340.125H322.523ZM334.906 332.455H333.229V347H334.906V332.455ZM344.851 342.54C344.851 344.585 343.288 345.523 342.038 345.523C340.646 345.523 339.652 344.5 339.652 342.909V336.091H337.976V343.023C337.976 345.807 339.453 347.142 341.498 347.142C343.146 347.142 344.226 346.261 344.737 345.153H344.851V347H346.527V336.091H344.851V342.54ZM349.597 347H351.273V340.182C351.273 338.584 352.438 337.455 353.744 337.455C355.016 337.455 355.903 338.286 355.903 339.528V347H357.608V339.898C357.608 338.491 358.489 337.455 360.023 337.455C361.216 337.455 362.239 338.087 362.239 339.699V347H363.915V339.699C363.915 337.135 362.537 335.949 360.591 335.949C359.028 335.949 357.885 336.666 357.324 337.795H357.21C356.671 336.631 355.719 335.949 354.284 335.949C352.864 335.949 351.813 336.631 351.358 337.795H351.216V336.091H349.597V347ZM367.207 347H368.826V345.324H369.025C369.394 345.92 370.104 347.227 372.207 347.227C374.934 347.227 376.837 345.04 376.837 341.574C376.837 338.136 374.934 335.949 372.178 335.949C370.048 335.949 369.394 337.256 369.025 337.824H368.883V332.455H367.207V347ZM368.854 341.545C368.854 339.102 369.934 337.455 371.979 337.455C374.11 337.455 375.161 339.244 375.161 341.545C375.161 343.875 374.082 345.722 371.979 345.722C369.962 345.722 368.854 344.017 368.854 341.545ZM383.975 347.227C386.191 347.227 387.81 346.119 388.322 344.472L386.702 344.017C386.276 345.153 385.289 345.722 383.975 345.722C382.008 345.722 380.651 344.45 380.573 342.114H388.492V341.403C388.492 337.341 386.077 335.949 383.805 335.949C380.85 335.949 378.89 338.278 378.89 341.631C378.89 344.983 380.822 347.227 383.975 347.227ZM380.573 340.665C380.687 338.967 381.887 337.455 383.805 337.455C385.623 337.455 386.788 338.818 386.788 340.665H380.573ZM391.042 347H392.718V340.097C392.718 338.619 393.883 337.54 395.474 337.54C395.921 337.54 396.383 337.625 396.497 337.653V335.949C396.305 335.935 395.864 335.92 395.616 335.92C394.309 335.92 393.173 336.659 392.775 337.739H392.661V336.091H391.042V347Z" fill="black"/>
<path d="M328.761 440H330.523V433.494H338.278V440H340.04V425.455H338.278V431.932H330.523V425.455H328.761V440ZM344.163 425.455H342.316L347.657 440H349.475L354.816 425.455H352.97L348.651 437.699H348.481L344.163 425.455ZM356.428 440L357.891 435.881H363.772L365.235 440H367.082L361.741 425.455H359.923L354.582 440H356.428ZM358.445 434.318L360.775 427.756H360.889L363.218 434.318H358.445ZM380.368 430C379.829 427.017 377.442 425.256 374.516 425.256C370.794 425.256 368.096 428.125 368.096 432.727C368.096 437.33 370.794 440.199 374.516 440.199C377.442 440.199 379.829 438.438 380.368 435.455H378.607C378.181 437.472 376.448 438.551 374.516 438.551C371.874 438.551 369.8 436.506 369.8 432.727C369.8 428.949 371.874 426.903 374.516 426.903C376.448 426.903 378.181 427.983 378.607 430H380.368Z" fill="black"/>
<path d="M239.466 265C238.926 262.017 236.54 260.256 233.614 260.256C229.892 260.256 227.193 263.125 227.193 267.727C227.193 272.33 229.892 275.199 233.614 275.199C236.54 275.199 238.926 273.438 239.466 270.455H237.705C237.278 272.472 235.546 273.551 233.614 273.551C230.972 273.551 228.898 271.506 228.898 267.727C228.898 263.949 230.972 261.903 233.614 261.903C235.546 261.903 237.278 262.983 237.705 265H239.466ZM246.517 275.227C249.471 275.227 251.46 272.983 251.46 269.602C251.46 266.193 249.471 263.949 246.517 263.949C243.562 263.949 241.574 266.193 241.574 269.602C241.574 272.983 243.562 275.227 246.517 275.227ZM246.517 273.722C244.272 273.722 243.25 271.79 243.25 269.602C243.25 267.415 244.272 265.455 246.517 265.455C248.761 265.455 249.784 267.415 249.784 269.602C249.784 271.79 248.761 273.722 246.517 273.722ZM255.695 268.438C255.695 266.534 256.874 265.455 258.479 265.455C260.034 265.455 260.979 266.47 260.979 268.182V275H262.655V268.068C262.655 265.284 261.171 263.949 258.962 263.949C257.314 263.949 256.291 264.688 255.78 265.795H255.638V264.091H254.019V275H255.695V268.438ZM273.445 266.534C272.919 264.986 271.74 263.949 269.581 263.949C267.28 263.949 265.576 265.256 265.576 267.102C265.576 268.608 266.471 269.616 268.473 270.085L270.292 270.511C271.392 270.767 271.911 271.293 271.911 272.045C271.911 272.983 270.917 273.75 269.354 273.75C267.983 273.75 267.124 273.161 266.826 271.989L265.235 272.386C265.625 274.24 267.152 275.227 269.383 275.227C271.918 275.227 273.644 273.842 273.644 271.96C273.644 270.44 272.692 269.482 270.746 269.006L269.127 268.608C267.834 268.288 267.252 267.855 267.252 267.017C267.252 266.08 268.246 265.398 269.581 265.398C271.044 265.398 271.648 266.207 271.939 266.96L273.445 266.534ZM280.911 264.091H278.582V261.477H276.906V264.091H275.258V265.511H276.906V272.33C276.906 274.233 278.44 275.142 279.86 275.142C280.485 275.142 280.883 275.028 281.11 274.943L280.769 273.438C280.627 273.466 280.4 273.523 280.031 273.523C279.292 273.523 278.582 273.295 278.582 271.875V265.511H280.911V264.091ZM283.433 275H285.109V268.097C285.109 266.619 286.273 265.54 287.864 265.54C288.312 265.54 288.773 265.625 288.887 265.653V263.949C288.695 263.935 288.255 263.92 288.006 263.92C286.7 263.92 285.563 264.659 285.166 265.739H285.052V264.091H283.433V275ZM297.749 270.54C297.749 272.585 296.186 273.523 294.936 273.523C293.544 273.523 292.55 272.5 292.55 270.909V264.091H290.874V271.023C290.874 273.807 292.351 275.142 294.397 275.142C296.044 275.142 297.124 274.261 297.635 273.153H297.749V275H299.425V264.091H297.749V270.54ZM306.927 275.227C309.342 275.227 310.933 273.75 311.217 271.818H309.541C309.228 273.011 308.234 273.722 306.927 273.722C304.938 273.722 303.66 272.074 303.66 269.545C303.66 267.074 304.967 265.455 306.927 265.455C308.404 265.455 309.285 266.364 309.541 267.358H311.217C310.933 265.312 309.2 263.949 306.898 263.949C303.944 263.949 301.984 266.278 301.984 269.602C301.984 272.869 303.859 275.227 306.927 275.227ZM318.411 264.091H316.082V261.477H314.406V264.091H312.758V265.511H314.406V272.33C314.406 274.233 315.94 275.142 317.36 275.142C317.985 275.142 318.383 275.028 318.61 274.943L318.269 273.438C318.127 273.466 317.9 273.523 317.531 273.523C316.792 273.523 316.082 273.295 316.082 271.875V265.511H318.411V264.091ZM320.933 275H322.609V264.091H320.933V275ZM321.785 262.273C322.438 262.273 322.978 261.761 322.978 261.136C322.978 260.511 322.438 260 321.785 260C321.131 260 320.592 260.511 320.592 261.136C320.592 261.761 321.131 262.273 321.785 262.273ZM330.111 275.227C333.065 275.227 335.054 272.983 335.054 269.602C335.054 266.193 333.065 263.949 330.111 263.949C327.156 263.949 325.167 266.193 325.167 269.602C325.167 272.983 327.156 275.227 330.111 275.227ZM330.111 273.722C327.866 273.722 326.843 271.79 326.843 269.602C326.843 267.415 327.866 265.455 330.111 265.455C332.355 265.455 333.378 267.415 333.378 269.602C333.378 271.79 332.355 273.722 330.111 273.722ZM339.288 268.438C339.288 266.534 340.467 265.455 342.073 265.455C343.628 265.455 344.573 266.47 344.573 268.182V275H346.249V268.068C346.249 265.284 344.764 263.949 342.555 263.949C340.908 263.949 339.885 264.688 339.374 265.795H339.232V264.091H337.612V275H339.288V268.438ZM354.368 262.017H358.942V275H360.704V262.017H365.277V260.455H354.368V262.017ZM370.76 275.227C372.976 275.227 374.596 274.119 375.107 272.472L373.488 272.017C373.061 273.153 372.074 273.722 370.76 273.722C368.793 273.722 367.436 272.45 367.358 270.114H375.277V269.403C375.277 265.341 372.863 263.949 370.59 263.949C367.635 263.949 365.675 266.278 365.675 269.631C365.675 272.983 367.607 275.227 370.76 275.227ZM367.358 268.665C367.472 266.967 368.672 265.455 370.59 265.455C372.408 265.455 373.573 266.818 373.573 268.665H367.358ZM381.037 275.256C382.941 275.256 383.935 274.233 384.276 273.523H384.361V275H386.037V267.812C386.037 264.347 383.395 263.949 382.003 263.949C380.356 263.949 378.481 264.517 377.628 266.506L379.219 267.074C379.588 266.278 380.462 265.426 382.06 265.426C383.601 265.426 384.361 266.243 384.361 267.642V267.699C384.361 268.509 383.537 268.438 381.549 268.693C379.525 268.956 377.316 269.403 377.316 271.903C377.316 274.034 378.963 275.256 381.037 275.256ZM381.293 273.75C379.958 273.75 378.992 273.153 378.992 271.989C378.992 270.71 380.157 270.312 381.463 270.142C382.174 270.057 384.077 269.858 384.361 269.517V271.051C384.361 272.415 383.282 273.75 381.293 273.75ZM389.097 275H390.773V268.182C390.773 266.584 391.938 265.455 393.244 265.455C394.516 265.455 395.403 266.286 395.403 267.528V275H397.108V267.898C397.108 266.491 397.989 265.455 399.523 265.455C400.716 265.455 401.739 266.087 401.739 267.699V275H403.415V267.699C403.415 265.135 402.037 263.949 400.091 263.949C398.528 263.949 397.385 264.666 396.824 265.795H396.71C396.171 264.631 395.219 263.949 393.784 263.949C392.364 263.949 391.313 264.631 390.858 265.795H390.716V264.091H389.097V275Z" fill="black"/>
<path d="M199.889 499.284C201.647 499.284 203.085 497.846 203.085 496.088C203.085 494.33 201.647 492.892 199.889 492.892C198.131 492.892 196.693 494.33 196.693 496.088C196.693 497.846 198.131 499.284 199.889 499.284ZM213.659 499.284C215.417 499.284 216.855 497.846 216.855 496.088C216.855 494.33 215.417 492.892 213.659 492.892C211.901 492.892 210.463 494.33 210.463 496.088C210.463 497.846 211.901 499.284 213.659 499.284ZM227.428 499.284C229.186 499.284 230.624 497.846 230.624 496.088C230.624 494.33 229.186 492.892 227.428 492.892C225.671 492.892 224.232 494.33 224.232 496.088C224.232 497.846 225.671 499.284 227.428 499.284Z" fill="#2D98FB"/>
</svg>
