<svg width="24" height="23" viewBox="0 0 24 23" fill="none" xmlns="http://www.w3.org/2000/svg">
<path d="M5.00323 3.90162C6.08064 3.90162 6.95404 3.02821 6.95404 1.95081C6.95404 0.873407 6.08064 0 5.00323 0C3.92583 0 3.05243 0.873407 3.05243 1.95081C3.05243 3.02821 3.92583 3.90162 5.00323 3.90162Z" fill="#6D737A"/>
<path d="M13.3638 3.90162C14.4412 3.90162 15.3147 3.02821 15.3147 1.95081C15.3147 0.873407 14.4412 0 13.3638 0C12.2864 0 11.413 0.873407 11.413 1.95081C11.413 3.02821 12.2864 3.90162 13.3638 3.90162Z" fill="#6D737A"/>
<path d="M20.8884 14.7704C21.658 14.7704 22.2818 14.1466 22.2818 13.377C22.2818 12.6074 21.658 11.9835 20.8884 11.9835C20.1188 11.9835 19.495 12.6074 19.495 13.377C19.495 14.1466 20.1188 14.7704 20.8884 14.7704Z" fill="#6D737A"/>
<path d="M23.8982 18.4491L22.9228 16.1081C22.5884 15.6343 22.0589 15.272 21.4736 15.1048C21.3064 15.077 21.0835 15.0491 20.8884 15.0491H19.495L18.3245 13.0704C18.3523 12.9311 18.3802 12.7917 18.3523 12.6524L17.0425 6.07538C16.513 5.49013 15.8442 5.04424 15.0638 4.76555C14.5343 4.57047 13.9491 4.45899 13.336 4.45899C12.7229 4.45899 12.1655 4.57047 11.6081 4.76555C10.8557 5.04424 10.1868 5.49013 9.62944 6.07538L9.18354 8.55569L8.68191 6.07538C8.1524 5.49013 7.48355 5.04424 6.70323 4.76555C6.17372 4.57047 5.58848 4.45899 4.97537 4.45899C4.36226 4.45899 3.80488 4.57047 3.24751 4.76555C2.49505 5.04424 1.8262 5.49013 1.26883 6.07538L0.014738 12.6524C-0.0688681 13.0983 0.209819 13.5442 0.683587 13.6278C0.711456 13.6557 0.767193 13.6557 0.82293 13.6557C1.21309 13.6557 1.57539 13.377 1.63112 12.9868L2.77374 7.32947V22.295H4.44586V13.6557H5.56061V22.295H7.23273V7.32947L8.37535 12.9868C8.43109 13.377 8.79338 13.6557 9.18354 13.6557C9.5737 13.6557 9.936 13.377 9.99173 12.9868L11.1344 7.32947V10.3672L10.0753 15.6343H11.1344V22.295H12.8065V15.6065H13.9212V22.295H15.5933V15.6343H16.6524L15.5933 10.3672V7.32947L16.736 12.9868C16.7917 13.3212 17.0704 13.5721 17.3769 13.6278L19.495 17.2229V22.295H20.6097V18.9507H21.1671V22.295H22.2818V17.4458L22.8949 18.895C22.9785 19.1179 23.2015 19.2294 23.3966 19.2294C23.4802 19.2294 23.5359 19.2294 23.6195 19.1737C23.8982 19.0622 24.0376 18.7278 23.8982 18.4491Z" fill="#6D737A"/>
</svg>
