<svg width="142" height="170" viewBox="0 0 142 170" fill="none" xmlns="http://www.w3.org/2000/svg">
<path d="M14 85C16.5195 85 18.9359 84.0167 20.7175 82.2664C22.4991 80.516 23.5 78.142 23.5 75.6667V47.6667C23.5 45.1913 24.5009 42.8174 26.2825 41.067C28.064 39.3167 30.4804 38.3334 33 38.3334H105.105L102.255 41.04C101.365 41.9077 100.658 42.94 100.176 44.0773C99.6932 45.2147 99.4449 46.4346 99.4449 47.6667C99.4449 48.8988 99.6932 50.1187 100.176 51.2561C100.658 52.3934 101.365 53.4257 102.255 54.2934C103.138 55.1682 104.189 55.8625 105.346 56.3363C106.504 56.8102 107.746 57.0541 109 57.0541C110.254 57.0541 111.496 56.8102 112.653 56.3363C113.811 55.8625 114.862 55.1682 115.745 54.2934L141.395 29L115.745 3.70669C114.859 2.83647 113.808 2.14617 112.65 1.6752C111.493 1.20424 110.253 0.961838 109 0.961838C107.747 0.961838 106.507 1.20424 105.35 1.6752C104.192 2.14617 103.141 2.83647 102.255 3.70669C100.466 5.46419 99.4611 7.84788 99.4611 10.3334C99.4611 12.8188 100.466 15.2025 102.255 16.96L105.105 19.6667H33C25.4413 19.6667 18.1922 22.6167 12.8474 27.8677C7.50264 33.1187 4.49996 40.2406 4.49996 47.6667V75.6667C4.49996 78.142 5.50086 80.516 7.28245 82.2664C9.06405 84.0167 11.4804 85 14 85ZM128 85C125.48 85 123.064 85.9834 121.282 87.7337C119.501 89.484 118.5 91.858 118.5 94.3334V122.333C118.5 124.809 117.499 127.183 115.717 128.933C113.936 130.683 111.52 131.667 109 131.667H36.895L39.745 128.96C41.5339 127.203 42.5388 124.819 42.5388 122.333C42.5388 119.848 41.5339 117.464 39.745 115.707C37.9561 113.949 35.5298 112.962 33 112.962C30.4701 112.962 28.0439 113.949 26.255 115.707L0.604965 141L26.255 166.293C27.1381 167.168 28.1888 167.863 29.3465 168.336C30.5042 168.81 31.7459 169.054 33 169.054C34.2541 169.054 35.4958 168.81 36.6534 168.336C37.8111 167.863 38.8618 167.168 39.745 166.293C40.6354 165.426 41.3421 164.393 41.8244 163.256C42.3067 162.119 42.5551 160.899 42.5551 159.667C42.5551 158.435 42.3067 157.215 41.8244 156.077C41.3421 154.94 40.6354 153.908 39.745 153.04L36.895 150.333H109C116.559 150.333 123.808 147.383 129.153 142.132C134.497 136.881 137.5 129.759 137.5 122.333V94.3334C137.5 91.858 136.499 89.484 134.717 87.7337C132.936 85.9834 130.52 85 128 85Z" fill="#6F92ED"/>
</svg>
