<svg width="106" height="74" viewBox="0 0 106 74" fill="none" xmlns="http://www.w3.org/2000/svg">
<rect width="106" height="74" fill="#1E1E1E"/>
<path d="M7.39258 11.5947C7.39258 8.74698 9.70118 6.43848 12.5489 6.43848H99.8549C102.702 6.43848 105.011 8.74698 105.011 11.5947V68.809C105.011 71.6567 102.702 73.965 99.8549 73.965H12.5489C9.70118 73.965 7.39258 71.6567 7.39258 68.809V11.5947Z" fill="#626060"/>
<path d="M2.70801 6.91021C2.70801 4.06251 5.01661 1.75391 7.86431 1.75391H95.1701C98.0181 1.75391 100.326 4.06251 100.326 6.91021V64.1244C100.326 66.9721 98.0181 69.2807 95.1701 69.2807H7.86431C5.01661 69.2807 2.70801 66.9721 2.70801 64.1244V6.91021Z" fill="white"/>
<path fill-rule="evenodd" clip-rule="evenodd" d="M7.86426 0.0351562H95.1701C98.9671 0.0351562 102.045 3.11316 102.045 6.91016V64.1244C102.045 67.9214 98.9671 70.9994 95.1701 70.9994H7.86426C4.06736 70.9994 0.989258 67.9214 0.989258 64.1244V6.91016C0.989258 3.11316 4.06726 0.0351562 7.86426 0.0351562ZM7.86426 1.75386C5.01656 1.75386 2.70796 4.06246 2.70796 6.91016V64.1244C2.70796 66.9721 5.01656 69.2807 7.86426 69.2807H95.1701C98.0181 69.2807 100.326 66.9721 100.326 64.1244V6.91016C100.326 4.06246 98.0181 1.75386 95.1701 1.75386H7.86426Z" fill="#263238"/>
<path d="M8.75684 17.7617C8.75684 15.8632 10.2959 14.3242 12.1943 14.3242H52.1671C54.0656 14.3242 55.6046 15.8632 55.6046 17.7617V39.4548C55.6046 41.3533 54.0656 42.8923 52.1671 42.8923H12.1943C10.2959 42.8923 8.75684 41.3533 8.75684 39.4548V17.7617Z" fill="#EE1D52"/>
<path fill-rule="evenodd" clip-rule="evenodd" d="M8.08986 47.1433C8.08556 46.194 8.85166 45.4211 9.80086 45.4168L54.0135 45.2178C54.9627 45.2135 55.7357 45.9795 55.74 46.9288C55.7442 47.878 54.9782 48.651 54.029 48.6552L9.81636 48.8543C8.86706 48.8585 8.09416 48.0925 8.08986 47.1433Z" fill="#263238"/>
<path fill-rule="evenodd" clip-rule="evenodd" d="M8.36328 52.0868C8.36328 51.6122 8.74808 51.2275 9.22268 51.2275H43.1874C43.662 51.2275 44.0468 51.6122 44.0468 52.0868C44.0468 52.5615 43.662 52.9462 43.1874 52.9462H9.22268C8.74808 52.9462 8.36328 52.5615 8.36328 52.0868Z" fill="#263238"/>
<path fill-rule="evenodd" clip-rule="evenodd" d="M8.36328 60.6318C8.36328 60.1572 8.74808 59.7725 9.22268 59.7725H43.1874C43.662 59.7725 44.0468 60.1572 44.0468 60.6318C44.0468 61.1065 43.662 61.4912 43.1874 61.4912H9.22268C8.74808 61.4912 8.36328 61.1065 8.36328 60.6318Z" fill="#263238"/>
<path fill-rule="evenodd" clip-rule="evenodd" d="M8.36328 55.288C8.36328 54.8134 8.74808 54.4287 9.22268 54.4287H26.6443C27.1189 54.4287 27.5036 54.8134 27.5036 55.288C27.5036 55.7627 27.1189 56.1474 26.6443 56.1474H9.22268C8.74808 56.1474 8.36328 55.7627 8.36328 55.288Z" fill="#263238"/>
<path fill-rule="evenodd" clip-rule="evenodd" d="M8.36328 63.2666C8.36328 62.792 8.74808 62.4072 9.22268 62.4072H21.9595C22.4341 62.4072 22.8188 62.792 22.8188 63.2666C22.8188 63.7412 22.4341 64.126 21.9595 64.126H9.22268C8.74808 64.126 8.36328 63.7412 8.36328 63.2666Z" fill="#263238"/>
<path fill-rule="evenodd" clip-rule="evenodd" d="M81.416 15.9335C81.416 15.4589 81.8007 15.0742 82.2754 15.0742H96.4027C96.8777 15.0742 97.2627 15.4589 97.2627 15.9335C97.2627 16.4082 96.8777 16.7929 96.4027 16.7929H82.2754C81.8007 16.7929 81.416 16.4082 81.416 15.9335Z" fill="#263238"/>
<path fill-rule="evenodd" clip-rule="evenodd" d="M81.417 19.4395C81.417 18.9648 81.8017 18.5801 82.2763 18.5801H89.9881C90.4631 18.5801 90.8471 18.9648 90.8471 19.4395C90.8471 19.9141 90.4631 20.2988 89.9881 20.2988H82.2763C81.8017 20.2988 81.417 19.9141 81.417 19.4395Z" fill="#263238"/>
<path fill-rule="evenodd" clip-rule="evenodd" d="M81.416 50.751C81.416 50.2763 81.8007 49.8916 82.2754 49.8916H96.4027C96.8777 49.8916 97.2627 50.2763 97.2627 50.751C97.2627 51.2256 96.8777 51.6103 96.4027 51.6103H82.2754C81.8007 51.6103 81.416 51.2256 81.416 50.751Z" fill="#263238"/>
<path fill-rule="evenodd" clip-rule="evenodd" d="M81.417 54.2569C81.417 53.7823 81.8017 53.3975 82.2763 53.3975H89.9881C90.4631 53.3975 90.8471 53.7823 90.8471 54.2569C90.8471 54.7315 90.4631 55.1162 89.9881 55.1162H82.2763C81.8017 55.1162 81.417 54.7315 81.417 54.2569Z" fill="#263238"/>
<path fill-rule="evenodd" clip-rule="evenodd" d="M81.416 32.0117C81.416 31.537 81.8007 31.1523 82.2754 31.1523H96.4027C96.8777 31.1523 97.2627 31.537 97.2627 32.0117C97.2627 32.4863 96.8777 32.871 96.4027 32.871H82.2754C81.8007 32.871 81.416 32.4863 81.416 32.0117Z" fill="#263238"/>
<path fill-rule="evenodd" clip-rule="evenodd" d="M81.417 35.5166C81.417 35.0419 81.8017 34.6572 82.2763 34.6572H89.9881C90.4631 34.6572 90.8471 35.0419 90.8471 35.5166C90.8471 35.9912 90.4631 36.3759 89.9881 36.3759H82.2763C81.8017 36.3759 81.417 35.9912 81.417 35.5166Z" fill="#263238"/>
<path fill-rule="evenodd" clip-rule="evenodd" d="M62.7402 13.3369H76.6773C78.5758 13.3369 80.1148 14.8759 80.1148 16.7744V25.7976C80.1148 27.6961 78.5758 29.2351 76.6773 29.2351H62.7402C60.8417 29.2351 59.3027 27.6961 59.3027 25.7976V16.7744C59.3027 14.8759 60.8417 13.3369 62.7402 13.3369ZM62.7402 15.0557C61.7909 15.0557 61.0214 15.8252 61.0214 16.7744V25.7976C61.0214 26.7468 61.7909 27.5163 62.7402 27.5163H76.6773C77.6265 27.5163 78.3961 26.7468 78.3961 25.7976V16.7744C78.3961 15.8252 77.6266 15.0557 76.6773 15.0557H62.7402Z" fill="#263238"/>
<path d="M36.3784 27.2586L32.2637 24.3193C31.1261 23.5067 29.5459 24.3199 29.5459 25.7179V31.5374C29.5459 32.928 31.1111 33.7429 32.2503 32.9455L36.3649 30.0652C37.3367 29.3849 37.3436 27.9481 36.3784 27.2586Z" fill="white"/>
<path fill-rule="evenodd" clip-rule="evenodd" d="M9.71859 5.57812H93.5386C95.0186 5.57812 96.2186 6.77823 96.2186 8.25863C96.2186 9.73903 95.0186 10.9391 93.5386 10.9391H9.71859C8.23819 10.9391 7.03809 9.73903 7.03809 8.25863C7.03809 6.77823 8.23819 5.57812 9.71859 5.57812ZM9.71859 7.29683C9.18739 7.29683 8.75679 7.72743 8.75679 8.25863C8.75679 8.78973 9.18739 9.22033 9.71859 9.22033H93.5386C94.0696 9.22033 94.4996 8.78973 94.4996 8.25863C94.4996 7.72743 94.0696 7.29683 93.5386 7.29683H9.71859Z" fill="#263238"/>
<path fill-rule="evenodd" clip-rule="evenodd" d="M62.7402 30.0762H76.6773C78.5758 30.0762 80.1148 31.6152 80.1148 33.5137V42.5369C80.1148 44.4354 78.5758 45.9744 76.6773 45.9744H62.7402C60.8417 45.9744 59.3027 44.4353 59.3027 42.5369V33.5137C59.3027 31.6152 60.8417 30.0762 62.7402 30.0762ZM62.7402 31.7949C61.7909 31.7949 61.0214 32.5645 61.0214 33.5137V42.5369C61.0214 43.4861 61.7909 44.2556 62.7402 44.2556H76.6773C77.6265 44.2556 78.3961 43.4861 78.3961 42.5369V33.5137C78.3961 32.5645 77.6266 31.7949 76.6773 31.7949H62.7402Z" fill="#263238"/>
<path fill-rule="evenodd" clip-rule="evenodd" d="M62.7402 47.8906H76.6773C78.5758 47.8906 80.1148 49.4296 80.1148 51.3281V60.3513C80.1148 62.2498 78.5758 63.7888 76.6773 63.7888H62.7402C60.8417 63.7888 59.3027 62.2497 59.3027 60.3513V51.3281C59.3027 49.4296 60.8417 47.8906 62.7402 47.8906ZM62.7402 49.6093C61.7909 49.6093 61.0214 50.3789 61.0214 51.3281V60.3513C61.0214 61.3005 61.7909 62.07 62.7402 62.07H76.6773C77.6265 62.07 78.3961 61.3005 78.3961 60.3513V51.3281C78.3961 50.3789 77.6266 49.6093 76.6773 49.6093H62.7402Z" fill="#263238"/>
<path fill-rule="evenodd" clip-rule="evenodd" d="M68.9708 21.9736C68.9708 22.3212 69.3621 22.5249 69.6469 22.3256L70.8483 21.4846C71.0913 21.3145 71.093 20.9553 70.8517 20.7829L69.6502 19.9247C69.3658 19.7215 68.9708 19.9248 68.9708 20.2743V21.9736ZM70.6493 18.5261L71.8507 19.3843C73.0573 20.2462 73.0487 22.0423 71.834 22.8926L70.6325 23.7336C69.2086 24.7304 67.252 23.7117 67.252 21.9736V20.2743C67.252 18.5268 69.2273 17.5103 70.6493 18.5261Z" fill="#263238"/>
<path fill-rule="evenodd" clip-rule="evenodd" d="M68.9708 39.3768C68.9708 39.7245 69.3621 39.9282 69.6469 39.7288L70.8483 38.8878C71.0913 38.7178 71.093 38.3585 70.8517 38.1862L69.6502 37.3279C69.3658 37.1248 68.9708 37.3281 68.9708 37.6776V39.3768ZM70.6493 35.9294L71.8507 36.7876C73.0573 37.6495 73.0487 39.4456 71.834 40.2959L70.6325 41.1369C69.2086 42.1337 67.252 41.115 67.252 39.3768V37.6776C67.252 35.9301 69.2273 34.9136 70.6493 35.9294Z" fill="#263238"/>
<path fill-rule="evenodd" clip-rule="evenodd" d="M68.9708 56.9629C68.9708 57.3105 69.3621 57.5142 69.6469 57.3149L70.8483 56.4738C71.0913 56.3037 71.093 55.9446 70.8517 55.7722L69.6502 54.914C69.3658 54.7108 68.9708 54.9141 68.9708 55.2636V56.9629ZM70.6493 53.5154L71.8507 54.3736C73.0573 55.2355 73.0487 57.0316 71.834 57.8819L70.6325 58.7229C69.2086 59.7197 67.252 58.701 67.252 56.9629V55.2636C67.252 53.5161 69.2273 52.4996 70.6493 53.5154Z" fill="#263238"/>
</svg>
