<svg xmlns="http://www.w3.org/2000/svg" xmlns:xlink="http://www.w3.org/1999/xlink" viewBox="0 0 600 600" width="600" height="600" preserveAspectRatio="xMidYMid meet" style="width: 100%; height: 100%; transform: translate3d(0px, 0px, 0px); content-visibility: visible;" id="Building Construction"><defs><clipPath id="__lottie_element_2"><rect width="600" height="600" x="0" y="0"/></clipPath></defs><g clip-path="url(#__lottie_element_2)"><g transform="matrix(1,0,0,1,300,300)" opacity="1" style="display: block;"><g opacity="1" transform="matrix(1,0,0,1,0,0)"><path stroke-linecap="round" stroke-linejoin="round" fill-opacity="0" stroke="rgb(220,220,226)" stroke-opacity="1" stroke-width="2.686" d=" M-35.986000061035156,230.05299377441406 C-35.986000061035156,230.05299377441406 41.84700012207031,275 41.84700012207031,275 C41.84700012207031,275 142.06199645996094,216.73199462890625 142.06199645996094,216.73199462890625 C142.06199645996094,216.73199462890625 175.16900634765625,235.83099365234375 175.16900634765625,235.83099365234375 C175.16900634765625,235.83099365234375 275,177.78500366210938 275,177.78500366210938 C275,177.78500366210938 233.9929962158203,154.10499572753906 233.9929962158203,154.10499572753906"/></g><g opacity="1" transform="matrix(1,0,0,1,0,0)"><path stroke-linecap="round" stroke-linejoin="round" fill-opacity="0" stroke="rgb(220,220,226)" stroke-opacity="1" stroke-width="2.686" d=" M-139.4429931640625,-4.11299991607666 C-139.4429931640625,-4.11299991607666 -274.9309997558594,-82.8489990234375 -274.9309997558594,-82.8489990234375 C-274.9309997558594,-82.8489990234375 -195.197998046875,-128.88299560546875 -195.197998046875,-128.88299560546875"/></g><g opacity="1" transform="matrix(1,0,0,1,0,0)"><path stroke-linecap="round" stroke-linejoin="round" fill-opacity="0" stroke="rgb(220,220,226)" stroke-opacity="1" stroke-width="2.686" d=" M31.417999267578125,179.46600341796875 C36.8129997253418,182.58099365234375 36.840999603271484,187.6219940185547 31.481000900268555,190.73699951171875 C31.481000900268555,190.73699951171875 -109.50700378417969,272.6700134277344 -109.50700378417969,272.6700134277344 C-114.85399627685547,275.77801513671875 -123.55799865722656,275.77801513671875 -128.9530029296875,272.6629943847656 C-128.9530029296875,272.6629943847656 -270.864013671875,190.7310028076172 -270.864013671875,190.7310028076172 C-276.2590026855469,187.61599731445312 -276.2879943847656,182.5749969482422 -270.94000244140625,179.4669952392578 C-270.94000244140625,179.4669952392578 -129.95199584960938,97.53299713134766 -129.95199584960938,97.53299713134766 C-124.59200286865234,94.41799926757812 -115.88800048828125,94.41799926757812 -110.49299621582031,97.53299713134766 C-110.49299621582031,97.53299713134766 31.417999267578125,179.46600341796875 31.417999267578125,179.46600341796875z"/></g><g opacity="1" transform="matrix(1,0,0,1,0,0)"><path stroke-linecap="round" stroke-linejoin="round" fill-opacity="0" stroke="rgb(220,220,226)" stroke-opacity="1" stroke-width="2.686" d=" M271.68701171875,122.95600128173828 C276.0870056152344,125.49700164794922 276.1099853515625,129.62399291992188 271.7200012207031,132.1750030517578 C271.7200012207031,132.1750030517578 197.98899841308594,175.0229949951172 197.98899841308594,175.0229949951172 C193.5989990234375,177.57400512695312 186.47300720214844,177.57400512695312 182.072998046875,175.0330047607422 C182.072998046875,175.0330047607422 107.84100341796875,132.1750030517578 107.84100341796875,132.1750030517578 C103.44100189208984,129.63400268554688 103.41699981689453,125.50800323486328 107.80699920654297,122.95700073242188 C107.80699920654297,122.95700073242188 181.53900146484375,80.10800170898438 181.53900146484375,80.10800170898438 C185.9290008544922,77.55699920654297 193.0540008544922,77.55699920654297 197.45399475097656,80.0979995727539 C197.45399475097656,80.0979995727539 271.68701171875,122.95600128173828 271.68701171875,122.95600128173828z"/></g><g opacity="1" transform="matrix(1,0,0,1,0,0)"><path stroke-linecap="round" stroke-linejoin="round" fill-opacity="0" stroke="rgb(220,220,226)" stroke-opacity="1" stroke-width="2.686" d=" M-163.86199951171875,-111.18299865722656 C-163.86199951171875,-111.18299865722656 -226.7480010986328,-147.72799682617188 -226.7480010986328,-147.72799682617188 C-226.7480010986328,-147.72799682617188 -161.21200561523438,-185.56500244140625 -161.21200561523438,-185.56500244140625 C-161.21200561523438,-185.56500244140625 -98.32599639892578,-149.02000427246094 -98.32599639892578,-149.02000427246094 C-98.32599639892578,-149.02000427246094 -163.86199951171875,-111.18299865722656 -163.86199951171875,-111.18299865722656z"/></g></g><g transform="matrix(1,0,0,1,300,280.0633544921875)" opacity="1" style="display: block;"><g opacity="1" transform="matrix(1,0,0,1,0,0)"><path fill="rgb(220,220,226)" fill-opacity="1" d=" M-163.6490020751953,-125.31199645996094 C-163.6490020751953,-125.31199645996094 -226.53500366210938,-161.85800170898438 -226.53500366210938,-161.85800170898438 C-226.53500366210938,-161.85800170898438 -226.7480010986328,-237.16299438476562 -226.7480010986328,-237.16299438476562 C-226.7480010986328,-237.16299438476562 -163.86199951171875,-200.6179962158203 -163.86199951171875,-200.6179962158203 C-163.86199951171875,-200.6179962158203 -163.6490020751953,-125.31199645996094 -163.6490020751953,-125.31199645996094z"/><path stroke-linecap="round" stroke-linejoin="round" fill-opacity="0" stroke="rgb(11,47,84)" stroke-opacity="1" stroke-width="2.686" d=" M-163.6490020751953,-125.31199645996094 C-163.6490020751953,-125.31199645996094 -226.53500366210938,-161.85800170898438 -226.53500366210938,-161.85800170898438 C-226.53500366210938,-161.85800170898438 -226.7480010986328,-237.16299438476562 -226.7480010986328,-237.16299438476562 C-226.7480010986328,-237.16299438476562 -163.86199951171875,-200.6179962158203 -163.86199951171875,-200.6179962158203 C-163.86199951171875,-200.6179962158203 -163.6490020751953,-125.31199645996094 -163.6490020751953,-125.31199645996094z"/></g><g opacity="1" transform="matrix(1,0,0,1,0,0)"><path fill="rgb(255,255,255)" fill-opacity="1" d=" M-163.86199951171875,-200.6179962158203 C-163.86199951171875,-200.6179962158203 -226.7480010986328,-237.16299438476562 -226.7480010986328,-237.16299438476562 C-226.7480010986328,-237.16299438476562 -161.21200561523438,-275 -161.21200561523438,-275 C-161.21200561523438,-275 -98.32599639892578,-238.4550018310547 -98.32599639892578,-238.4550018310547 C-98.32599639892578,-238.4550018310547 -163.86199951171875,-200.6179962158203 -163.86199951171875,-200.6179962158203z"/><path stroke-linecap="round" stroke-linejoin="round" fill-opacity="0" stroke="rgb(11,47,84)" stroke-opacity="1" stroke-width="2.686" d=" M-163.86199951171875,-200.6179962158203 C-163.86199951171875,-200.6179962158203 -226.7480010986328,-237.16299438476562 -226.7480010986328,-237.16299438476562 C-226.7480010986328,-237.16299438476562 -161.21200561523438,-275 -161.21200561523438,-275 C-161.21200561523438,-275 -98.32599639892578,-238.4550018310547 -98.32599639892578,-238.4550018310547 C-98.32599639892578,-238.4550018310547 -163.86199951171875,-200.6179962158203 -163.86199951171875,-200.6179962158203z"/></g><g opacity="1" transform="matrix(1,0,0,1,0,0)"><path fill="rgb(162,162,164)" fill-opacity="1" d=" M-163.86199951171875,-200.6179962158203 C-163.86199951171875,-200.6179962158203 -98.32599639892578,-238.4550018310547 -98.32599639892578,-238.4550018310547 C-98.32599639892578,-238.4550018310547 -98.11299896240234,-163.1490020751953 -98.11299896240234,-163.1490020751953 C-98.11299896240234,-163.1490020751953 -163.6490020751953,-125.31199645996094 -163.6490020751953,-125.31199645996094 C-163.6490020751953,-125.31199645996094 -163.86199951171875,-200.6179962158203 -163.86199951171875,-200.6179962158203z"/><path stroke-linecap="round" stroke-linejoin="round" fill-opacity="0" stroke="rgb(11,47,84)" stroke-opacity="1" stroke-width="2.686" d=" M-163.86199951171875,-200.6179962158203 C-163.86199951171875,-200.6179962158203 -98.32599639892578,-238.4550018310547 -98.32599639892578,-238.4550018310547 C-98.32599639892578,-238.4550018310547 -98.11299896240234,-163.1490020751953 -98.11299896240234,-163.1490020751953 C-98.11299896240234,-163.1490020751953 -163.6490020751953,-125.31199645996094 -163.6490020751953,-125.31199645996094 C-163.6490020751953,-125.31199645996094 -163.86199951171875,-200.6179962158203 -163.86199951171875,-200.6179962158203z"/></g><g opacity="1" transform="matrix(1,0,0,1,0,0)"><path fill="rgb(11,47,84)" fill-opacity="1" d=" M-113.53299713134766,-212.10299682617188 C-113.53299713134766,-212.10299682617188 -148.21499633789062,-192.0800018310547 -148.21499633789062,-192.0800018310547 C-148.21499633789062,-192.0800018310547 -113.41899871826172,-171.85800170898438 -113.41899871826172,-171.85800170898438 C-113.41899871826172,-171.85800170898438 -113.53299713134766,-212.10299682617188 -113.53299713134766,-212.10299682617188z"/><path stroke-linecap="round" stroke-linejoin="round" fill-opacity="0" stroke="rgb(11,47,84)" stroke-opacity="1" stroke-width="2.686" d=" M-113.53299713134766,-212.10299682617188 C-113.53299713134766,-212.10299682617188 -148.21499633789062,-192.0800018310547 -148.21499633789062,-192.0800018310547 C-148.21499633789062,-192.0800018310547 -113.41899871826172,-171.85800170898438 -113.41899871826172,-171.85800170898438 C-113.41899871826172,-171.85800170898438 -113.53299713134766,-212.10299682617188 -113.53299713134766,-212.10299682617188z"/></g><g opacity="1" transform="matrix(1,0,0,1,0,0)"><path fill="rgb(255,255,255)" fill-opacity="1" d=" M-148.21499633789062,-192.0800018310547 C-148.21499633789062,-192.0800018310547 -148.55599975585938,-191.8820037841797 -148.55599975585938,-191.8820037841797 C-148.55599975585938,-191.8820037841797 -148.44200134277344,-151.63699340820312 -148.44200134277344,-151.63699340820312 C-148.44200134277344,-151.63699340820312 -113.41899871826172,-171.85800170898438 -113.41899871826172,-171.85800170898438 C-113.41899871826172,-171.85800170898438 -113.41899871826172,-171.85800170898438 -113.41899871826172,-171.85800170898438 C-113.41899871826172,-171.85800170898438 -148.21499633789062,-192.0800018310547 -148.21499633789062,-192.0800018310547z"/><path stroke-linecap="round" stroke-linejoin="round" fill-opacity="0" stroke="rgb(11,47,84)" stroke-opacity="1" stroke-width="2.686" d=" M-148.21499633789062,-192.0800018310547 C-148.21499633789062,-192.0800018310547 -148.55599975585938,-191.8820037841797 -148.55599975585938,-191.8820037841797 C-148.55599975585938,-191.8820037841797 -148.44200134277344,-151.63699340820312 -148.44200134277344,-151.63699340820312 C-148.44200134277344,-151.63699340820312 -113.41899871826172,-171.85800170898438 -113.41899871826172,-171.85800170898438 C-113.41899871826172,-171.85800170898438 -113.41899871826172,-171.85800170898438 -113.41899871826172,-171.85800170898438 C-113.41899871826172,-171.85800170898438 -148.21499633789062,-192.0800018310547 -148.21499633789062,-192.0800018310547z"/></g><g opacity="1" transform="matrix(1,0,0,1,0,0)"><path fill="rgb(255,255,255)" fill-opacity="1" d=" M-212.76699829101562,-171.85800170898438 C-212.76699829101562,-171.85800170898438 -212.76699829101562,-171.85800170898438 -212.76699829101562,-171.85800170898438 C-212.76699829101562,-171.85800170898438 -177.7429962158203,-151.63699340820312 -177.7429962158203,-151.63699340820312 C-177.7429962158203,-151.63699340820312 -177.62899780273438,-191.8820037841797 -177.62899780273438,-191.8820037841797 C-177.62899780273438,-191.8820037841797 -177.9709930419922,-192.0800018310547 -177.9709930419922,-192.0800018310547 C-177.9709930419922,-192.0800018310547 -212.76699829101562,-171.85800170898438 -212.76699829101562,-171.85800170898438z"/><path stroke-linecap="round" stroke-linejoin="round" fill-opacity="0" stroke="rgb(11,47,84)" stroke-opacity="1" stroke-width="2.686" d=" M-212.76699829101562,-171.85800170898438 C-212.76699829101562,-171.85800170898438 -212.76699829101562,-171.85800170898438 -212.76699829101562,-171.85800170898438 C-212.76699829101562,-171.85800170898438 -177.7429962158203,-151.63699340820312 -177.7429962158203,-151.63699340820312 C-177.7429962158203,-151.63699340820312 -177.62899780273438,-191.8820037841797 -177.62899780273438,-191.8820037841797 C-177.62899780273438,-191.8820037841797 -177.9709930419922,-192.0800018310547 -177.9709930419922,-192.0800018310547 C-177.9709930419922,-192.0800018310547 -212.76699829101562,-171.85800170898438 -212.76699829101562,-171.85800170898438z"/></g><g opacity="1" transform="matrix(1,0,0,1,0,0)"><path fill="rgb(11,47,84)" fill-opacity="1" d=" M-212.6529998779297,-212.10299682617188 C-212.6529998779297,-212.10299682617188 -212.76699829101562,-171.85800170898438 -212.76699829101562,-171.85800170898438 C-212.76699829101562,-171.85800170898438 -177.9709930419922,-192.0800018310547 -177.9709930419922,-192.0800018310547 C-177.9709930419922,-192.0800018310547 -212.6529998779297,-212.10299682617188 -212.6529998779297,-212.10299682617188z"/><path stroke-linecap="round" stroke-linejoin="round" fill-opacity="0" stroke="rgb(11,47,84)" stroke-opacity="1" stroke-width="2.686" d=" M-212.6529998779297,-212.10299682617188 C-212.6529998779297,-212.10299682617188 -212.76699829101562,-171.85800170898438 -212.76699829101562,-171.85800170898438 C-212.76699829101562,-171.85800170898438 -177.9709930419922,-192.0800018310547 -177.9709930419922,-192.0800018310547 C-177.9709930419922,-192.0800018310547 -212.6529998779297,-212.10299682617188 -212.6529998779297,-212.10299682617188z"/></g><g opacity="1" transform="matrix(1,0,0,1,0,0)"><path fill="rgb(255,255,255)" fill-opacity="1" d=" M-195.71499633789062,-237.47500610351562 C-195.71499633789062,-237.47500610351562 -163.2220001220703,-218.5919952392578 -163.2220001220703,-218.5919952392578 C-163.2220001220703,-218.5919952392578 -161.85299682617188,-219.3820037841797 -161.85299682617188,-219.3820037841797 C-161.85299682617188,-219.3820037841797 -161.85299682617188,-257.0260009765625 -161.85299682617188,-257.0260009765625 C-161.85299682617188,-257.0260009765625 -195.71499633789062,-237.47500610351562 -195.71499633789062,-237.47500610351562z"/><path stroke-linecap="round" stroke-linejoin="round" fill-opacity="0" stroke="rgb(11,47,84)" stroke-opacity="1" stroke-width="2.686" d=" M-195.71499633789062,-237.47500610351562 C-195.71499633789062,-237.47500610351562 -163.2220001220703,-218.5919952392578 -163.2220001220703,-218.5919952392578 C-163.2220001220703,-218.5919952392578 -161.85299682617188,-219.3820037841797 -161.85299682617188,-219.3820037841797 C-161.85299682617188,-219.3820037841797 -161.85299682617188,-257.0260009765625 -161.85299682617188,-257.0260009765625 C-161.85299682617188,-257.0260009765625 -195.71499633789062,-237.47500610351562 -195.71499633789062,-237.47500610351562z"/></g><g opacity="1" transform="matrix(1,0,0,1,0,0)"><path fill="rgb(11,47,84)" fill-opacity="1" d=" M-161.85299682617188,-257.0260009765625 C-161.85299682617188,-257.0260009765625 -161.85299682617188,-219.3820037841797 -161.85299682617188,-219.3820037841797 C-161.85299682617188,-219.3820037841797 -129.35899353027344,-238.14199829101562 -129.35899353027344,-238.14199829101562 C-129.35899353027344,-238.14199829101562 -161.85299682617188,-257.0260009765625 -161.85299682617188,-257.0260009765625z"/><path stroke-linecap="round" stroke-linejoin="round" fill-opacity="0" stroke="rgb(11,47,84)" stroke-opacity="1" stroke-width="2.686" d=" M-161.85299682617188,-257.0260009765625 C-161.85299682617188,-257.0260009765625 -161.85299682617188,-219.3820037841797 -161.85299682617188,-219.3820037841797 C-161.85299682617188,-219.3820037841797 -129.35899353027344,-238.14199829101562 -129.35899353027344,-238.14199829101562 C-129.35899353027344,-238.14199829101562 -161.85299682617188,-257.0260009765625 -161.85299682617188,-257.0260009765625z"/></g></g><g transform="matrix(1,0,0,1,300,300)" opacity="1" style="display: block;"><g opacity="0.5915000331083382" transform="matrix(1,0,0,1,0,0)"><path stroke-linecap="round" stroke-linejoin="round" fill-opacity="0" stroke="rgb(11,47,84)" stroke-opacity="1" stroke-width="2.686" d=" M10.190999984741211,-225.2740020751953 C10.190999984741211,-225.2740020751953 10.190999984741211,-216.0989990234375 10.190999984741211,-216.0989990234375"/></g><g opacity="0.13616658335368428" transform="matrix(1,0,0,1,0,0)"><path stroke-linecap="round" stroke-linejoin="round" fill-opacity="0" stroke="rgb(11,47,84)" stroke-opacity="1" stroke-width="2.686" d=" M10.190999984741211,-203.16000366210938 C10.190999984741211,-203.16000366210938 10.190999984741211,-193.98500061035156 10.190999984741211,-193.98500061035156"/></g><g opacity="0.4694999166870175" transform="matrix(1,0,0,1,0,0)"><path stroke-linecap="round" stroke-linejoin="round" fill-opacity="0" stroke="rgb(11,47,84)" stroke-opacity="1" stroke-width="2.686" d=" M25.834999084472656,-209.62899780273438 C25.834999084472656,-209.62899780273438 16.65999984741211,-209.62899780273438 16.65999984741211,-209.62899780273438"/></g><g opacity="0.8028332500203509" transform="matrix(1,0,0,1,0,0)"><path stroke-linecap="round" stroke-linejoin="round" fill-opacity="0" stroke="rgb(11,47,84)" stroke-opacity="1" stroke-width="2.686" d=" M3.7209999561309814,-209.62899780273438 C3.7209999561309814,-209.62899780273438 -5.453999996185303,-209.62899780273438 -5.453999996185303,-209.62899780273438"/></g></g><g transform="matrix(-0.17517906427383423,-0.9845365881919861,0.9845365881919861,-0.17517906427383423,357.1308898925781,428.9769287109375)" opacity="1" style="display: block;"><g opacity="1" transform="matrix(1,0,0,1,0,0)"><path stroke-linecap="round" stroke-linejoin="round" fill-opacity="0" stroke="rgb(251,208,79)" stroke-opacity="1" stroke-width="2.686" d=" M95.99099731445312,50.99599838256836 C95.99099731445312,50.99599838256836 70.98799896240234,63.573001861572266 70.98799896240234,63.573001861572266 C70.98799896240234,63.573001861572266 71.68599700927734,37.04100036621094 71.68599700927734,37.04100036621094 C71.68599700927734,37.04100036621094 95.99099731445312,50.99599838256836 95.99099731445312,50.99599838256836z"/></g></g><g transform="matrix(1,0,0,1,300,300)" opacity="1" style="display: block;"><g opacity="1" transform="matrix(1,0,0,1,0,0)"><path fill="rgb(220,220,226)" fill-opacity="1" d=" M106.61699676513672,200.97799682617188 C106.61699676513672,200.97799682617188 89.7020034790039,210.80799865722656 89.7020034790039,210.80799865722656 C89.7020034790039,210.80799865722656 72.68499755859375,200.98300170898438 72.68499755859375,200.98300170898438 C72.68499755859375,200.98300170898438 89.7020034790039,191.1529998779297 89.7020034790039,191.1529998779297 C89.7020034790039,191.1529998779297 106.61699676513672,200.97799682617188 106.61699676513672,200.97799682617188z"/></g></g><g transform="matrix(1,0,0,1,300,292.40509033203125)" opacity="1" style="display: block;"><g opacity="1" transform="matrix(1,0,0,1,0,0)"><path fill="rgb(191,191,195)" fill-opacity="1" d=" M106.61699676513672,170.2050018310547 C106.61699676513672,170.2050018310547 89.7020034790039,200.9810028076172 89.7020034790039,200.9810028076172 C89.7020034790039,200.9810028076172 89.7020034790039,200.9810028076172 89.7020034790039,200.9810028076172 C89.7020034790039,200.9810028076172 89.7020034790039,180.03500366210938 89.7020034790039,180.03500366210938 C89.7020034790039,180.03500366210938 106.61699676513672,170.2050018310547 106.61699676513672,170.2050018310547z"/></g><g opacity="1" transform="matrix(1,0,0,1,0,0)"><path fill="rgb(162,162,164)" fill-opacity="1" d=" M89.7020034790039,180.03500366210938 C89.7020034790039,180.03500366210938 89.7020034790039,200.9810028076172 89.7020034790039,200.9810028076172 C89.7020034790039,200.9810028076172 89.7020034790039,200.9810028076172 89.7020034790039,200.9810028076172 C89.7020034790039,200.9810028076172 72.68499755859375,170.2100067138672 72.68499755859375,170.2100067138672 C72.68499755859375,170.2100067138672 89.7020034790039,180.03500366210938 89.7020034790039,180.03500366210938z"/></g><g opacity="1" transform="matrix(1,0,0,1,0,0)"><path fill="rgb(220,220,226)" fill-opacity="1" d=" M106.61699676513672,170.2050018310547 C106.61699676513672,170.2050018310547 89.7020034790039,180.03500366210938 89.7020034790039,180.03500366210938 C89.7020034790039,180.03500366210938 72.68499755859375,170.2100067138672 72.68499755859375,170.2100067138672 C72.68499755859375,170.2100067138672 89.5999984741211,160.3800048828125 89.5999984741211,160.3800048828125 C89.5999984741211,160.3800048828125 106.61699676513672,170.2050018310547 106.61699676513672,170.2050018310547z"/></g></g><g transform="matrix(1,0,0,1,300,300)" opacity="1" style="display: block;"><g opacity="1" transform="matrix(1,0,0,1,0,0)"><path stroke-linecap="round" stroke-linejoin="round" fill-opacity="0" stroke="rgb(220,220,226)" stroke-opacity="1" stroke-width="2.686" d=" M31.417999267578125,179.46600341796875 C36.8129997253418,182.58099365234375 36.840999603271484,187.6219940185547 31.481000900268555,190.73699951171875 C31.481000900268555,190.73699951171875 -109.50700378417969,272.6700134277344 -109.50700378417969,272.6700134277344 C-114.85399627685547,275.77801513671875 -123.55799865722656,275.77801513671875 -128.9530029296875,272.6629943847656 C-128.9530029296875,272.6629943847656 -270.864013671875,190.7310028076172 -270.864013671875,190.7310028076172 C-276.2590026855469,187.61599731445312 -276.2879943847656,182.5749969482422 -270.94000244140625,179.4669952392578 C-270.94000244140625,179.4669952392578 -129.95199584960938,97.53299713134766 -129.95199584960938,97.53299713134766 C-124.59200286865234,94.41799926757812 -115.88800048828125,94.41799926757812 -110.49299621582031,97.53299713134766 C-110.49299621582031,97.53299713134766 31.417999267578125,179.46600341796875 31.417999267578125,179.46600341796875z"/></g><g opacity="1" transform="matrix(1,0,0,1,0,0)"><path fill="rgb(255,255,255)" fill-opacity="1" d=" M31.417999267578125,140.47000122070312 C36.8129997253418,143.5850067138672 36.840999603271484,148.62600708007812 31.481000900268555,151.74099731445312 C31.481000900268555,151.74099731445312 -109.50700378417969,233.6750030517578 -109.50700378417969,233.6750030517578 C-114.85399627685547,236.7830047607422 -123.55799865722656,236.7830047607422 -128.9530029296875,233.66799926757812 C-128.9530029296875,233.66799926757812 -270.864013671875,151.73599243164062 -270.864013671875,151.73599243164062 C-276.2590026855469,148.62100219726562 -276.2879943847656,143.5800018310547 -270.94000244140625,140.4720001220703 C-270.94000244140625,140.4720001220703 -129.95199584960938,58.53799819946289 -129.95199584960938,58.53799819946289 C-124.59200286865234,55.42300033569336 -115.88800048828125,55.42300033569336 -110.49299621582031,58.53799819946289 C-110.49299621582031,58.53799819946289 31.417999267578125,140.47000122070312 31.417999267578125,140.47000122070312z"/><path stroke-linecap="round" stroke-linejoin="round" fill-opacity="0" stroke="rgb(11,47,84)" stroke-opacity="1" stroke-width="2.686" d=" M31.417999267578125,140.47000122070312 C36.8129997253418,143.5850067138672 36.840999603271484,148.62600708007812 31.481000900268555,151.74099731445312 C31.481000900268555,151.74099731445312 -109.50700378417969,233.6750030517578 -109.50700378417969,233.6750030517578 C-114.85399627685547,236.7830047607422 -123.55799865722656,236.7830047607422 -128.9530029296875,233.66799926757812 C-128.9530029296875,233.66799926757812 -270.864013671875,151.73599243164062 -270.864013671875,151.73599243164062 C-276.2590026855469,148.62100219726562 -276.2879943847656,143.5800018310547 -270.94000244140625,140.4720001220703 C-270.94000244140625,140.4720001220703 -129.95199584960938,58.53799819946289 -129.95199584960938,58.53799819946289 C-124.59200286865234,55.42300033569336 -115.88800048828125,55.42300033569336 -110.49299621582031,58.53799819946289 C-110.49299621582031,58.53799819946289 31.417999267578125,140.47000122070312 31.417999267578125,140.47000122070312z"/></g><g opacity="1" transform="matrix(1,0,0,1,0,0)"><path fill="rgb(11,47,84)" fill-opacity="1" d=" M-109.4990005493164,233.6750030517578 C-109.4990005493164,233.6750030517578 31.475000381469727,151.73199462890625 31.475000381469727,151.73199462890625 C34.14799880981445,150.19900512695312 35.48400115966797,148.1750030517578 35.48400115966797,146.1510009765625 C35.48400115966797,146.1510009765625 35.404998779296875,170.1649932861328 35.404998779296875,170.1649932861328 C35.404998779296875,172.20799255371094 34.069000244140625,174.21200561523438 31.416000366210938,175.76499938964844 C31.416000366210938,175.76499938964844 -109.5770034790039,257.7080078125 -109.5770034790039,257.7080078125 C-112.37100219726562,259.33099365234375 -116.08000183105469,260.0840148925781 -119.75599670410156,260.0069885253906 C-119.75599670410156,260.0069885253906 -119.75599670410156,235.9739990234375 -119.75599670410156,235.9739990234375 C-116.05799865722656,236.0590057373047 -112.32099914550781,235.30799865722656 -109.4990005493164,233.6750030517578z"/></g><g opacity="1" transform="matrix(1,0,0,1,0,0)"><path fill="rgb(51,161,253)" fill-opacity="1" d=" M-275,170.08099365234375 C-275,172.13400268554688 -273.64801025390625,174.18899536132812 -270.9280090332031,175.76800537109375 C-270.9280090332031,175.76800537109375 -129.13499450683594,257.625 -129.13499450683594,257.625 C-129.13499450683594,257.625 -129.01199340820312,257.69500732421875 -129.01199340820312,257.69500732421875 C-126.44999694824219,259.18701171875 -123.11499786376953,259.9419860839844 -119.76300048828125,260.0119934082031 C-119.76300048828125,260.0119934082031 -119.76300048828125,235.9669952392578 -119.76300048828125,235.9669952392578 C-123.09700012207031,235.89700317382812 -126.39700317382812,235.14199829101562 -128.9600067138672,233.66799926757812 C-128.9600067138672,233.66799926757812 -129.13499450683594,233.56199645996094 -129.13499450683594,233.56199645996094 C-129.13499450683594,233.56199645996094 -270.875,151.74099731445312 -270.875,151.74099731445312 C-273.5780029296875,150.16099548339844 -274.92999267578125,148.10699462890625 -274.92999267578125,146.0540008544922 C-274.92999267578125,146.0540008544922 -275,170.08099365234375 -275,170.08099365234375z"/></g><g opacity="1" transform="matrix(1,0,0,1,0,0)"><path stroke-linecap="round" stroke-linejoin="round" fill-opacity="0" stroke="rgb(11,47,84)" stroke-opacity="1" stroke-width="2.686" d=" M-109.4990005493164,233.6750030517578 C-109.4990005493164,233.6750030517578 31.475000381469727,151.73199462890625 31.475000381469727,151.73199462890625 C34.14799880981445,150.19900512695312 35.48400115966797,148.1750030517578 35.48400115966797,146.1510009765625 C35.48400115966797,146.1510009765625 35.404998779296875,170.1649932861328 35.404998779296875,170.1649932861328 C35.404998779296875,172.20799255371094 34.069000244140625,174.21200561523438 31.416000366210938,175.76499938964844 C31.416000366210938,175.76499938964844 -109.5770034790039,257.7080078125 -109.5770034790039,257.7080078125 C-112.37100219726562,259.33099365234375 -116.08000183105469,260.0840148925781 -119.75599670410156,260.0069885253906 C-119.75599670410156,260.0069885253906 -119.75599670410156,235.9739990234375 -119.75599670410156,235.9739990234375 C-116.05799865722656,236.0590057373047 -112.32099914550781,235.30799865722656 -109.4990005493164,233.6750030517578z"/></g><g opacity="1" transform="matrix(1,0,0,1,0,0)"><path stroke-linecap="round" stroke-linejoin="round" fill-opacity="0" stroke="rgb(11,47,84)" stroke-opacity="1" stroke-width="2.686" d=" M-274.93701171875,146.0540008544922 C-274.93701171875,148.11700439453125 -273.5820007324219,150.16000366210938 -270.8699951171875,151.73199462890625 C-270.8699951171875,151.73199462890625 -128.9530029296875,233.6750030517578 -128.9530029296875,233.6750030517578 C-126.39099884033203,235.14700317382812 -123.08899688720703,235.89700317382812 -119.75599670410156,235.9739990234375 C-119.75599670410156,235.9739990234375 -119.75599670410156,260.0069885253906 -119.75599670410156,260.0069885253906 C-123.11299896240234,259.93701171875 -126.44200134277344,259.17999267578125 -129.01199340820312,257.68798828125 C-129.01199340820312,257.68798828125 -270.9289855957031,175.76499938964844 -270.9289855957031,175.76499938964844 C-273.6409912109375,174.1929931640625 -274.9960021972656,172.1300048828125 -274.9960021972656,170.08599853515625 C-274.9960021972656,170.08599853515625 -274.93701171875,146.0540008544922 -274.93701171875,146.0540008544922z"/></g><g opacity="1" transform="matrix(1,0,0,1,0,0)"><path stroke-linecap="round" stroke-linejoin="round" fill-opacity="0" stroke="rgb(255,255,255)" stroke-opacity="1" stroke-width="2.686" d=" M-83.62899780273438,223.80499267578125 C-83.62899780273438,223.80499267578125 -39.000999450683594,198.04600524902344 -39.000999450683594,198.04600524902344 C-38.854000091552734,197.9600067138672 -38.733001708984375,197.8820037841797 -38.6349983215332,197.81100463867188"/></g><g opacity="1" transform="matrix(1,0,0,1,0,0)"><path stroke-linecap="round" stroke-linejoin="round" fill-opacity="0" stroke="rgb(11,47,84)" stroke-opacity="1" stroke-width="2.686" d=" M-131.17300415039062,256.4469909667969 C-131.17300415039062,256.4469909667969 -131.17300415039062,232.38900756835938 -131.17300415039062,232.38900756835938"/></g><g opacity="1" transform="matrix(1,0,0,1,0,0)"><path stroke-linecap="round" stroke-linejoin="round" fill-opacity="0" stroke="rgb(11,47,84)" stroke-opacity="1" stroke-width="2.686" d=" M-137.88400268554688,252.5590057373047 C-137.88400268554688,252.5590057373047 -137.88400268554688,228.5189971923828 -137.88400268554688,228.5189971923828"/></g><g opacity="1" transform="matrix(1,0,0,1,0,0)"><path fill="rgb(162,162,164)" fill-opacity="1" d=" M-123.4800033569336,-53.70000076293945 C-123.4800033569336,-53.70000076293945 -255.63099670410156,23.097999572753906 -255.63099670410156,23.097999572753906 C-255.63099670410156,23.097999572753906 -187.38900756835938,3.499000072479248 -187.38900756835938,3.499000072479248 C-187.38900756835938,3.499000072479248 -55.237998962402344,-73.2979965209961 -55.237998962402344,-73.2979965209961 C-55.237998962402344,-73.2979965209961 -123.4800033569336,-53.70000076293945 -123.4800033569336,-53.70000076293945z"/><path stroke-linecap="round" stroke-linejoin="round" fill-opacity="0" stroke="rgb(11,47,84)" stroke-opacity="1" stroke-width="2.686" d=" M-123.4800033569336,-53.70000076293945 C-123.4800033569336,-53.70000076293945 -255.63099670410156,23.097999572753906 -255.63099670410156,23.097999572753906 C-255.63099670410156,23.097999572753906 -187.38900756835938,3.499000072479248 -187.38900756835938,3.499000072479248 C-187.38900756835938,3.499000072479248 -55.237998962402344,-73.2979965209961 -55.237998962402344,-73.2979965209961 C-55.237998962402344,-73.2979965209961 -123.4800033569336,-53.70000076293945 -123.4800033569336,-53.70000076293945z"/></g><g opacity="1" transform="matrix(1,0,0,1,0,0)"><path fill="rgb(191,191,195)" fill-opacity="1" d=" M-55.237998962402344,-73.2979965209961 C-55.237998962402344,-73.2979965209961 -187.38900756835938,3.499000072479248 -187.38900756835938,3.499000072479248 C-187.38900756835938,3.499000072479248 -119.83899688720703,101.6969985961914 -119.83899688720703,101.6969985961914 C-119.83899688720703,101.6969985961914 12.659000396728516,24.899999618530273 12.659000396728516,24.899999618530273 C12.659000396728516,24.899999618530273 -55.237998962402344,-73.2979965209961 -55.237998962402344,-73.2979965209961z"/><path stroke-linecap="round" stroke-linejoin="round" fill-opacity="0" stroke="rgb(11,47,84)" stroke-opacity="1" stroke-width="2.686" d=" M-55.237998962402344,-73.2979965209961 C-55.237998962402344,-73.2979965209961 -187.38900756835938,3.499000072479248 -187.38900756835938,3.499000072479248 C-187.38900756835938,3.499000072479248 -119.83899688720703,101.6969985961914 -119.83899688720703,101.6969985961914 C-119.83899688720703,101.6969985961914 12.659000396728516,24.899999618530273 12.659000396728516,24.899999618530273 C12.659000396728516,24.899999618530273 -55.237998962402344,-73.2979965209961 -55.237998962402344,-73.2979965209961z"/></g><g opacity="1" transform="matrix(1,0,0,1,0,0)"><g opacity="1" transform="matrix(1,0,0,1,0,0)"><path fill="rgb(255,255,255)" fill-opacity="1" d=" M-119.83899688720703,101.6969985961914 C-119.83899688720703,101.6969985961914 12.659000396728516,24.899999618530273 12.659000396728516,24.899999618530273 C12.659000396728516,24.899999618530273 12.312000274658203,147.0070037841797 12.312000274658203,147.0070037841797 C12.312000274658203,147.0070037841797 -119.83899688720703,223.80499267578125 -119.83899688720703,223.80499267578125 C-119.83899688720703,223.80499267578125 -119.83899688720703,101.6969985961914 -119.83899688720703,101.6969985961914z"/><path stroke-linecap="round" stroke-linejoin="round" fill-opacity="0" stroke="rgb(11,47,84)" stroke-opacity="1" stroke-width="2.686" d=" M-119.83899688720703,101.6969985961914 C-119.83899688720703,101.6969985961914 12.659000396728516,24.899999618530273 12.659000396728516,24.899999618530273 C12.659000396728516,24.899999618530273 12.312000274658203,147.0070037841797 12.312000274658203,147.0070037841797 C12.312000274658203,147.0070037841797 -119.83899688720703,223.80499267578125 -119.83899688720703,223.80499267578125 C-119.83899688720703,223.80499267578125 -119.83899688720703,101.6969985961914 -119.83899688720703,101.6969985961914z"/></g></g><g opacity="1" transform="matrix(1,0,0,1,0,0)"><g opacity="1" transform="matrix(1,0,0,1,0,0)"><path fill="rgb(220,220,226)" fill-opacity="1" d=" M-187.38900756835938,3.499000072479248 C-187.38900756835938,3.499000072479248 -119.83899688720703,101.6969985961914 -119.83899688720703,101.6969985961914 C-119.83899688720703,101.6969985961914 -119.83899688720703,223.80499267578125 -119.83899688720703,223.80499267578125 C-119.83899688720703,223.80499267578125 -255.9770050048828,145.2050018310547 -255.9770050048828,145.2050018310547 C-255.9770050048828,145.2050018310547 -255.63099670410156,23.097999572753906 -255.63099670410156,23.097999572753906 C-255.63099670410156,23.097999572753906 -187.38900756835938,3.499000072479248 -187.38900756835938,3.499000072479248z"/><path stroke-linecap="round" stroke-linejoin="round" fill-opacity="0" stroke="rgb(11,47,84)" stroke-opacity="1" stroke-width="2.686" d=" M-187.38900756835938,3.499000072479248 C-187.38900756835938,3.499000072479248 -119.83899688720703,101.6969985961914 -119.83899688720703,101.6969985961914 C-119.83899688720703,101.6969985961914 -119.83899688720703,223.80499267578125 -119.83899688720703,223.80499267578125 C-119.83899688720703,223.80499267578125 -255.9770050048828,145.2050018310547 -255.9770050048828,145.2050018310547 C-255.9770050048828,145.2050018310547 -255.63099670410156,23.097999572753906 -255.63099670410156,23.097999572753906 C-255.63099670410156,23.097999572753906 -187.38900756835938,3.499000072479248 -187.38900756835938,3.499000072479248z"/></g></g><g opacity="1" transform="matrix(1,0,0,1,0,0)"><path fill="rgb(255,255,255)" fill-opacity="1" d=" M-210.95199584960938,90.38099670410156 C-210.95199584960938,90.38099670410156 -210.95199584960938,171.197998046875 -210.95199584960938,171.197998046875 C-210.95199584960938,171.197998046875 -164.85699462890625,197.81100463867188 -164.85699462890625,197.81100463867188 C-164.85699462890625,197.81100463867188 -164.85699462890625,116.99299621582031 -164.85699462890625,116.99299621582031 C-164.85699462890625,116.99299621582031 -210.95199584960938,90.38099670410156 -210.95199584960938,90.38099670410156z"/><path stroke-linecap="round" stroke-linejoin="round" fill-opacity="0" stroke="rgb(11,47,84)" stroke-opacity="1" stroke-width="2.686" d=" M-210.95199584960938,90.38099670410156 C-210.95199584960938,90.38099670410156 -210.95199584960938,171.197998046875 -210.95199584960938,171.197998046875 C-210.95199584960938,171.197998046875 -164.85699462890625,197.81100463867188 -164.85699462890625,197.81100463867188 C-164.85699462890625,197.81100463867188 -164.85699462890625,116.99299621582031 -164.85699462890625,116.99299621582031 C-164.85699462890625,116.99299621582031 -210.95199584960938,90.38099670410156 -210.95199584960938,90.38099670410156z"/></g><g opacity="1" transform="matrix(1,0,0,1,0,0)"><path fill="rgb(11,47,84)" fill-opacity="1" d=" M-210.95199584960938,171.197998046875 C-210.95199584960938,171.197998046875 -164.85699462890625,197.81100463867188 -164.85699462890625,197.81100463867188 C-164.85699462890625,197.81100463867188 -164.85699462890625,144.40899658203125 -164.85699462890625,144.40899658203125 C-164.85699462890625,144.40899658203125 -210.95199584960938,171.197998046875 -210.95199584960938,171.197998046875z"/><path stroke-linecap="round" stroke-linejoin="round" fill-opacity="0" stroke="rgb(11,47,84)" stroke-opacity="1" stroke-width="2.686" d=" M-210.95199584960938,171.197998046875 C-210.95199584960938,171.197998046875 -164.85699462890625,197.81100463867188 -164.85699462890625,197.81100463867188 C-164.85699462890625,197.81100463867188 -164.85699462890625,144.40899658203125 -164.85699462890625,144.40899658203125 C-164.85699462890625,144.40899658203125 -210.95199584960938,171.197998046875 -210.95199584960938,171.197998046875z"/></g><g opacity="1" transform="matrix(1,0,0,1,0,0)"><path fill="rgb(11,47,84)" fill-opacity="1" d=" M-199.91700744628906,63.58599853515625 C-199.91700744628906,71.22599792480469 -194.58099365234375,80.48799896240234 -187.92799377441406,84.31999969482422 C-181.2989959716797,88.12899780273438 -175.91600036621094,85.09600067138672 -175.89199829101562,77.45600128173828 C-175.8679962158203,69.81600189208984 -181.22799682617188,60.553001403808594 -187.85699462890625,56.72100067138672 C-194.48599243164062,52.888999938964844 -199.89300537109375,55.94599914550781 -199.91700744628906,63.58599853515625z"/></g></g><g transform="matrix(1,0,0,1,300,300)" opacity="1" style="display: block;"><g opacity="1" transform="matrix(1,0,0,1,0,0)"><path fill="rgb(255,255,255)" fill-opacity="1" d=" M-99.1729965209961,-47.69900131225586 C-99.1729965209961,-47.69900131225586 -31.621999740600586,50.499000549316406 -31.621999740600586,50.499000549316406"/><path stroke-linecap="round" stroke-linejoin="round" fill-opacity="0" stroke="rgb(11,47,84)" stroke-opacity="1" stroke-width="2.686" d=" M-99.1729965209961,-47.69900131225586 C-99.1729965209961,-47.69900131225586 -31.621999740600586,50.499000549316406 -31.621999740600586,50.499000549316406"/></g><g opacity="1" transform="matrix(1,0,0,1,0,0)"><path stroke-linecap="round" stroke-linejoin="round" fill-opacity="0" stroke="rgb(220,220,226)" stroke-opacity="1" stroke-width="2.686" d=" M271.68701171875,122.95600128173828 C276.0870056152344,125.49700164794922 276.1099853515625,129.62399291992188 271.7200012207031,132.1750030517578 C271.7200012207031,132.1750030517578 197.98899841308594,175.0229949951172 197.98899841308594,175.0229949951172 C193.5989990234375,177.57400512695312 186.47300720214844,177.57400512695312 182.072998046875,175.0330047607422 C182.072998046875,175.0330047607422 107.84100341796875,132.1750030517578 107.84100341796875,132.1750030517578 C103.44100189208984,129.63400268554688 103.41699981689453,125.50800323486328 107.80699920654297,122.95700073242188 C107.80699920654297,122.95700073242188 181.53900146484375,80.10800170898438 181.53900146484375,80.10800170898438 C185.9290008544922,77.55699920654297 193.0540008544922,77.55699920654297 197.45399475097656,80.0979995727539 C197.45399475097656,80.0979995727539 271.68701171875,122.95600128173828 271.68701171875,122.95600128173828z"/></g><g opacity="1" transform="matrix(1,0,0,1,0,0)"><path fill="rgb(51,161,253)" fill-opacity="1" d=" M182.07200622558594,135.5030059814453 C182.07200622558594,135.5030059814453 107.83399963378906,92.66000366210938 107.83399963378906,92.66000366210938 C105.63999938964844,91.36499786376953 104.51399993896484,89.70500183105469 104.51399993896484,88.01699829101562 C104.51399993896484,88.01699829101562 104.45800018310547,113.2509994506836 104.45800018310547,113.2509994506836 C104.45800018310547,114.91100311279297 105.55500030517578,116.5989990234375 107.7770004272461,117.89299774169922 C107.7770004272461,117.89299774169922 181.98800659179688,160.73699951171875 181.98800659179688,160.73699951171875 C184.14599609375,161.9739990234375 186.9499969482422,162.5970001220703 189.76400756835938,162.625 C189.76400756835938,162.625 189.76400756835938,137.4080047607422 189.76400756835938,137.4080047607422 C186.9720001220703,137.3699951171875 184.19700622558594,136.7429962158203 182.07200622558594,135.5030059814453z"/></g><g opacity="1" transform="matrix(1,0,0,1,0,0)"><path fill="rgb(11,47,84)" fill-opacity="1" d=" M271.72698974609375,92.66000366210938 C271.72698974609375,92.66000366210938 197.9949951171875,135.5030059814453 197.9949951171875,135.5030059814453 C195.73199462890625,136.822998046875 192.73699951171875,137.44900512695312 189.76400756835938,137.4080047607422 C189.76400756835938,137.4080047607422 189.76400756835938,162.625 189.76400756835938,162.625 C192.70899963378906,162.65499877929688 195.66600036621094,162.03199768066406 197.91000366210938,160.73699951171875 C197.91000366210938,160.73699951171875 271.6419982910156,117.86499786376953 271.6419982910156,117.86499786376953 C273.83599853515625,116.5989990234375 274.9339904785156,114.93900299072266 274.9339904785156,113.27899932861328 C274.9339904785156,113.27899932861328 274.989990234375,88.0739974975586 274.989990234375,88.0739974975586 C274.989990234375,89.73400115966797 273.89300537109375,91.39399719238281 271.72698974609375,92.66000366210938z"/></g><g opacity="1" transform="matrix(1,0,0,1,0,0)"><path fill="rgb(220,220,226)" fill-opacity="1" d=" M271.68701171875,83.43499755859375 C276.0870056152344,85.97599792480469 276.1099853515625,90.10299682617188 271.7200012207031,92.65399932861328 C271.7200012207031,92.65399932861328 197.98899841308594,135.5019989013672 197.98899841308594,135.5019989013672 C193.5989990234375,138.05299377441406 186.47300720214844,138.05299377441406 182.072998046875,135.51199340820312 C182.072998046875,135.51199340820312 107.84100341796875,92.65399932861328 107.84100341796875,92.65399932861328 C103.44100189208984,90.11299896240234 103.41699981689453,85.98699951171875 107.80699920654297,83.43599700927734 C107.80699920654297,83.43599700927734 181.53900146484375,40.58700180053711 181.53900146484375,40.58700180053711 C185.9290008544922,38.0359992980957 193.0540008544922,38.0359992980957 197.45399475097656,40.57699966430664 C197.45399475097656,40.57699966430664 271.68701171875,83.43499755859375 271.68701171875,83.43499755859375z"/></g><g opacity="1" transform="matrix(1,0,0,1,0,0)"><path fill="rgb(255,255,255)" fill-opacity="1" d=" M194.01699829101562,46.472999572753906 C194.01699829101562,46.472999572753906 266.01300048828125,88.04000091552734 266.01300048828125,88.04000091552734 C266.01300048828125,88.04000091552734 194.49200439453125,129.60400390625 194.49200439453125,129.60400390625 C192.0240020751953,131.03799438476562 187.98199462890625,131.04299926757812 185.50999450683594,129.61599731445312 C185.50999450683594,129.61599731445312 113.51399993896484,88.04900360107422 113.51399993896484,88.04900360107422 C113.51399993896484,88.04900360107422 185.03599548339844,46.486000061035156 185.03599548339844,46.486000061035156 C187.50399780273438,45.051998138427734 191.5449981689453,45.04600143432617 194.01699829101562,46.472999572753906z"/></g><g opacity="1" transform="matrix(1,0,0,1,0,0)"><path fill="rgb(162,162,164)" fill-opacity="1" d=" M189.61000061035156,59.856998443603516 C189.61000061035156,59.856998443603516 238.42599487304688,88.04199981689453 238.42599487304688,88.04199981689453 C238.42599487304688,88.04199981689453 189.91799926757812,116.23200225830078 189.91799926757812,116.23200225830078 C189.91799926757812,116.23200225830078 141.1009979248047,88.0479965209961 141.1009979248047,88.0479965209961 C141.1009979248047,88.0479965209961 189.61000061035156,59.856998443603516 189.61000061035156,59.856998443603516z"/></g><g opacity="1" transform="matrix(1,0,0,1,0,0)"><path stroke-linecap="round" stroke-linejoin="round" fill-opacity="0" stroke="rgb(11,47,84)" stroke-opacity="1" stroke-width="2.686" d=" M189.96099853515625,-189.75999450683594 C189.96099853515625,-189.75999450683594 189.96099853515625,116.06500244140625 189.96099853515625,116.06500244140625 C189.96099853515625,116.06500244140625 141.10499572753906,87.85600280761719 141.10499572753906,87.85600280761719 C141.10499572753906,87.85600280761719 141.10499572753906,-217.96800231933594 141.10499572753906,-217.96800231933594 C141.10499572753906,-217.96800231933594 189.96099853515625,-189.75999450683594 189.96099853515625,-189.75999450683594z"/></g><g opacity="1" transform="matrix(1,0,0,1,0,0)"><path stroke-linecap="round" stroke-linejoin="round" fill-opacity="0" stroke="rgb(11,47,84)" stroke-opacity="1" stroke-width="2.686" d=" M189.96099853515625,-189.75999450683594 C189.96099853515625,-189.75999450683594 189.96099853515625,116.06500244140625 189.96099853515625,116.06500244140625 C189.96099853515625,116.06500244140625 238.42599487304688,88.08100128173828 238.42599487304688,88.08100128173828 C238.42599487304688,88.08100128173828 238.42599487304688,-217.90199279785156 238.42599487304688,-217.90199279785156 C238.42599487304688,-217.90199279785156 189.96099853515625,-189.75999450683594 189.96099853515625,-189.75999450683594z"/></g><g opacity="1" transform="matrix(1,0,0,1,0,0)"><path stroke-linecap="round" stroke-linejoin="round" fill-opacity="0" stroke="rgb(11,47,84)" stroke-opacity="1" stroke-width="2.686" d=" M189.96099853515625,60.25699996948242 C189.96099853515625,60.25699996948242 238.42599487304688,32.275001525878906 238.42599487304688,32.275001525878906 C238.42599487304688,32.275001525878906 214.19400024414062,74.05699920654297 214.19400024414062,74.05699920654297 C214.19400024414062,74.05699920654297 189.96099853515625,60.25699996948242 189.96099853515625,60.25699996948242z"/></g><g opacity="1" transform="matrix(1,0,0,1,0,0)"><path stroke-linecap="round" stroke-linejoin="round" fill-opacity="0" stroke="rgb(11,47,84)" stroke-opacity="1" stroke-width="2.686" d=" M189.96099853515625,115.83999633789062 C189.96099853515625,115.83999633789062 214.19400024414062,74.05699920654297 214.19400024414062,74.05699920654297 C214.19400024414062,74.05699920654297 238.42599487304688,87.85600280761719 238.42599487304688,87.85600280761719 C238.42599487304688,87.85600280761719 189.96099853515625,115.83999633789062 189.96099853515625,115.83999633789062z"/></g><g opacity="1" transform="matrix(1,0,0,1,0,0)"><path stroke-linecap="round" stroke-linejoin="round" fill-opacity="0" stroke="rgb(11,47,84)" stroke-opacity="1" stroke-width="2.686" d=" M189.96099853515625,4.672999858856201 C189.96099853515625,4.672999858856201 238.42599487304688,-23.308000564575195 238.42599487304688,-23.308000564575195 C238.42599487304688,-23.308000564575195 214.19400024414062,18.472999572753906 214.19400024414062,18.472999572753906 C214.19400024414062,18.472999572753906 189.96099853515625,4.672999858856201 189.96099853515625,4.672999858856201z"/></g><g opacity="1" transform="matrix(1,0,0,1,0,0)"><path stroke-linecap="round" stroke-linejoin="round" fill-opacity="0" stroke="rgb(11,47,84)" stroke-opacity="1" stroke-width="2.686" d=" M189.96099853515625,60.25600051879883 C189.96099853515625,60.25600051879883 214.19400024414062,18.472999572753906 214.19400024414062,18.472999572753906 C214.19400024414062,18.472999572753906 238.42599487304688,32.27299880981445 238.42599487304688,32.27299880981445 C238.42599487304688,32.27299880981445 189.96099853515625,60.25600051879883 189.96099853515625,60.25600051879883z"/></g><g opacity="1" transform="matrix(1,0,0,1,0,0)"><path stroke-linecap="round" stroke-linejoin="round" fill-opacity="0" stroke="rgb(11,47,84)" stroke-opacity="1" stroke-width="2.686" d=" M189.96099853515625,-50.90999984741211 C189.96099853515625,-50.90999984741211 238.42599487304688,-78.89199829101562 238.42599487304688,-78.89199829101562 C238.42599487304688,-78.89199829101562 214.19400024414062,-37.111000061035156 214.19400024414062,-37.111000061035156 C214.19400024414062,-37.111000061035156 189.96099853515625,-50.90999984741211 189.96099853515625,-50.90999984741211z"/></g><g opacity="1" transform="matrix(1,0,0,1,0,0)"><path stroke-linecap="round" stroke-linejoin="round" fill-opacity="0" stroke="rgb(11,47,84)" stroke-opacity="1" stroke-width="2.686" d=" M189.96099853515625,4.672999858856201 C189.96099853515625,4.672999858856201 214.19400024414062,-37.111000061035156 214.19400024414062,-37.111000061035156 C214.19400024414062,-37.111000061035156 238.42599487304688,-23.31100082397461 238.42599487304688,-23.31100082397461 C238.42599487304688,-23.31100082397461 189.96099853515625,4.672999858856201 189.96099853515625,4.672999858856201z"/></g><g opacity="1" transform="matrix(1,0,0,1,0,0)"><path stroke-linecap="round" stroke-linejoin="round" fill-opacity="0" stroke="rgb(11,47,84)" stroke-opacity="1" stroke-width="2.686" d=" M189.96099853515625,-106.49600219726562 C189.96099853515625,-106.49600219726562 238.42599487304688,-134.4770050048828 238.42599487304688,-134.4770050048828 C238.42599487304688,-134.4770050048828 214.19400024414062,-92.69599914550781 214.19400024414062,-92.69599914550781 C214.19400024414062,-92.69599914550781 189.96099853515625,-106.49600219726562 189.96099853515625,-106.49600219726562z"/></g><g opacity="1" transform="matrix(1,0,0,1,0,0)"><path stroke-linecap="round" stroke-linejoin="round" fill-opacity="0" stroke="rgb(11,47,84)" stroke-opacity="1" stroke-width="2.686" d=" M189.96099853515625,-50.9119987487793 C189.96099853515625,-50.9119987487793 214.19400024414062,-92.69599914550781 214.19400024414062,-92.69599914550781 C214.19400024414062,-92.69599914550781 238.42599487304688,-78.89600372314453 238.42599487304688,-78.89600372314453 C238.42599487304688,-78.89600372314453 189.96099853515625,-50.9119987487793 189.96099853515625,-50.9119987487793z"/></g><g opacity="1" transform="matrix(1,0,0,1,0,0)"><path stroke-linecap="round" stroke-linejoin="round" fill-opacity="0" stroke="rgb(11,47,84)" stroke-opacity="1" stroke-width="2.686" d=" M189.96099853515625,-162.0800018310547 C189.96099853515625,-162.0800018310547 238.42599487304688,-190.06199645996094 238.42599487304688,-190.06199645996094 C238.42599487304688,-190.06199645996094 214.19400024414062,-148.27999877929688 214.19400024414062,-148.27999877929688 C214.19400024414062,-148.27999877929688 189.96099853515625,-162.0800018310547 189.96099853515625,-162.0800018310547z"/></g><g opacity="1" transform="matrix(1,0,0,1,0,0)"><path stroke-linecap="round" stroke-linejoin="round" fill-opacity="0" stroke="rgb(11,47,84)" stroke-opacity="1" stroke-width="2.686" d=" M189.96099853515625,-106.49700164794922 C189.96099853515625,-106.49700164794922 214.19400024414062,-148.27999877929688 214.19400024414062,-148.27999877929688 C214.19400024414062,-148.27999877929688 238.42599487304688,-134.4810028076172 238.42599487304688,-134.4810028076172 C238.42599487304688,-134.4810028076172 189.96099853515625,-106.49700164794922 189.96099853515625,-106.49700164794922z"/></g><g opacity="1" transform="matrix(1,0,0,1,0,0)"><path stroke-linecap="round" stroke-linejoin="round" fill-opacity="0" stroke="rgb(11,47,84)" stroke-opacity="1" stroke-width="2.686" d=" M189.96099853515625,-189.7570037841797 C189.96099853515625,-189.7570037841797 238.42599487304688,-217.90199279785156 238.42599487304688,-217.90199279785156 C238.42599487304688,-217.90199279785156 214.19400024414062,-203.86300659179688 214.19400024414062,-203.86300659179688 C214.19400024414062,-203.86300659179688 189.96099853515625,-189.7570037841797 189.96099853515625,-189.7570037841797z"/></g><g opacity="1" transform="matrix(1,0,0,1,0,0)"><path stroke-linecap="round" stroke-linejoin="round" fill-opacity="0" stroke="rgb(11,47,84)" stroke-opacity="1" stroke-width="2.686" d=" M189.96099853515625,-162.0800018310547 C189.96099853515625,-162.0800018310547 214.19400024414062,-203.86300659179688 214.19400024414062,-203.86300659179688 C214.19400024414062,-203.86300659179688 238.42599487304688,-190.06300354003906 238.42599487304688,-190.06300354003906 C238.42599487304688,-190.06300354003906 189.96099853515625,-162.0800018310547 189.96099853515625,-162.0800018310547z"/></g><g opacity="1" transform="matrix(1,0,0,1,0,0)"><path stroke-linecap="round" stroke-linejoin="round" fill-opacity="0" stroke="rgb(11,47,84)" stroke-opacity="1" stroke-width="2.686" d=" M189.96099853515625,60.25699996948242 C189.96099853515625,60.25699996948242 141.10499572753906,32.275001525878906 141.10499572753906,32.275001525878906 C141.10499572753906,32.275001525878906 165.33799743652344,74.05699920654297 165.33799743652344,74.05699920654297 C165.33799743652344,74.05699920654297 189.96099853515625,60.25699996948242 189.96099853515625,60.25699996948242z"/></g><g opacity="1" transform="matrix(1,0,0,1,0,0)"><path stroke-linecap="round" stroke-linejoin="round" fill-opacity="0" stroke="rgb(11,47,84)" stroke-opacity="1" stroke-width="2.686" d=" M189.96099853515625,115.83999633789062 C189.96099853515625,115.83999633789062 165.33799743652344,74.05699920654297 165.33799743652344,74.05699920654297 C165.33799743652344,74.05699920654297 141.10499572753906,87.85600280761719 141.10499572753906,87.85600280761719 C141.10499572753906,87.85600280761719 189.96099853515625,115.83999633789062 189.96099853515625,115.83999633789062z"/></g><g opacity="1" transform="matrix(1,0,0,1,0,0)"><path stroke-linecap="round" stroke-linejoin="round" fill-opacity="0" stroke="rgb(11,47,84)" stroke-opacity="1" stroke-width="2.686" d=" M189.96099853515625,4.672999858856201 C189.96099853515625,4.672999858856201 141.10499572753906,-23.308000564575195 141.10499572753906,-23.308000564575195 C141.10499572753906,-23.308000564575195 165.33799743652344,18.472999572753906 165.33799743652344,18.472999572753906 C165.33799743652344,18.472999572753906 189.96099853515625,4.672999858856201 189.96099853515625,4.672999858856201z"/></g><g opacity="1" transform="matrix(1,0,0,1,0,0)"><path stroke-linecap="round" stroke-linejoin="round" fill-opacity="0" stroke="rgb(11,47,84)" stroke-opacity="1" stroke-width="2.686" d=" M189.96099853515625,60.25600051879883 C189.96099853515625,60.25600051879883 165.33799743652344,18.472999572753906 165.33799743652344,18.472999572753906 C165.33799743652344,18.472999572753906 141.10499572753906,32.27299880981445 141.10499572753906,32.27299880981445 C141.10499572753906,32.27299880981445 189.96099853515625,60.25600051879883 189.96099853515625,60.25600051879883z"/></g><g opacity="1" transform="matrix(1,0,0,1,0,0)"><path stroke-linecap="round" stroke-linejoin="round" fill-opacity="0" stroke="rgb(11,47,84)" stroke-opacity="1" stroke-width="2.686" d=" M189.96099853515625,-50.90999984741211 C189.96099853515625,-50.90999984741211 141.10499572753906,-78.89199829101562 141.10499572753906,-78.89199829101562 C141.10499572753906,-78.89199829101562 165.33799743652344,-37.111000061035156 165.33799743652344,-37.111000061035156 C165.33799743652344,-37.111000061035156 189.96099853515625,-50.90999984741211 189.96099853515625,-50.90999984741211z"/></g><g opacity="1" transform="matrix(1,0,0,1,0,0)"><path stroke-linecap="round" stroke-linejoin="round" fill-opacity="0" stroke="rgb(11,47,84)" stroke-opacity="1" stroke-width="2.686" d=" M189.96099853515625,4.672999858856201 C189.96099853515625,4.672999858856201 165.33799743652344,-37.111000061035156 165.33799743652344,-37.111000061035156 C165.33799743652344,-37.111000061035156 141.10499572753906,-23.31100082397461 141.10499572753906,-23.31100082397461 C141.10499572753906,-23.31100082397461 189.96099853515625,4.672999858856201 189.96099853515625,4.672999858856201z"/></g><g opacity="1" transform="matrix(1,0,0,1,0,0)"><path stroke-linecap="round" stroke-linejoin="round" fill-opacity="0" stroke="rgb(11,47,84)" stroke-opacity="1" stroke-width="2.686" d=" M189.96099853515625,-106.49600219726562 C189.96099853515625,-106.49600219726562 141.10499572753906,-134.4770050048828 141.10499572753906,-134.4770050048828 C141.10499572753906,-134.4770050048828 165.33799743652344,-92.69599914550781 165.33799743652344,-92.69599914550781 C165.33799743652344,-92.69599914550781 189.96099853515625,-106.49600219726562 189.96099853515625,-106.49600219726562z"/></g><g opacity="1" transform="matrix(1,0,0,1,0,0)"><path stroke-linecap="round" stroke-linejoin="round" fill-opacity="0" stroke="rgb(11,47,84)" stroke-opacity="1" stroke-width="2.686" d=" M189.96099853515625,-50.9119987487793 C189.96099853515625,-50.9119987487793 165.33799743652344,-92.69599914550781 165.33799743652344,-92.69599914550781 C165.33799743652344,-92.69599914550781 141.10499572753906,-78.89600372314453 141.10499572753906,-78.89600372314453 C141.10499572753906,-78.89600372314453 189.96099853515625,-50.9119987487793 189.96099853515625,-50.9119987487793z"/></g><g opacity="1" transform="matrix(1,0,0,1,0,0)"><path stroke-linecap="round" stroke-linejoin="round" fill-opacity="0" stroke="rgb(11,47,84)" stroke-opacity="1" stroke-width="2.686" d=" M189.96099853515625,-162.0800018310547 C189.96099853515625,-162.0800018310547 141.10499572753906,-190.06199645996094 141.10499572753906,-190.06199645996094 C141.10499572753906,-190.06199645996094 165.33799743652344,-148.27999877929688 165.33799743652344,-148.27999877929688 C165.33799743652344,-148.27999877929688 189.96099853515625,-162.0800018310547 189.96099853515625,-162.0800018310547z"/></g><g opacity="1" transform="matrix(1,0,0,1,0,0)"><path stroke-linecap="round" stroke-linejoin="round" fill-opacity="0" stroke="rgb(11,47,84)" stroke-opacity="1" stroke-width="2.686" d=" M189.96099853515625,-106.49700164794922 C189.96099853515625,-106.49700164794922 165.33799743652344,-148.27999877929688 165.33799743652344,-148.27999877929688 C165.33799743652344,-148.27999877929688 141.10499572753906,-134.4810028076172 141.10499572753906,-134.4810028076172 C141.10499572753906,-134.4810028076172 189.96099853515625,-106.49700164794922 189.96099853515625,-106.49700164794922z"/></g><g opacity="1" transform="matrix(1,0,0,1,0,0)"><path stroke-linecap="round" stroke-linejoin="round" fill-opacity="0" stroke="rgb(11,47,84)" stroke-opacity="1" stroke-width="2.686" d=" M189.96099853515625,-189.7570037841797 C189.96099853515625,-189.7570037841797 141.10499572753906,-217.90199279785156 141.10499572753906,-217.90199279785156 C141.10499572753906,-217.90199279785156 165.33799743652344,-203.86300659179688 165.33799743652344,-203.86300659179688 C165.33799743652344,-203.86300659179688 189.96099853515625,-189.7570037841797 189.96099853515625,-189.7570037841797z"/></g><g opacity="1" transform="matrix(1,0,0,1,0,0)"><path stroke-linecap="round" stroke-linejoin="round" fill-opacity="0" stroke="rgb(11,47,84)" stroke-opacity="1" stroke-width="2.686" d=" M189.96099853515625,-162.0800018310547 C189.96099853515625,-162.0800018310547 165.33799743652344,-203.86300659179688 165.33799743652344,-203.86300659179688 C165.33799743652344,-203.86300659179688 141.10499572753906,-190.06300354003906 141.10499572753906,-190.06300354003906 C141.10499572753906,-190.06300354003906 189.96099853515625,-162.0800018310547 189.96099853515625,-162.0800018310547z"/></g><g opacity="1" transform="matrix(1,0,0,1,0,0)"><path fill="rgb(255,255,255)" fill-opacity="1" d=" M252.76400756835938,-238.968994140625 C256.125,-240.90899658203125 258.8630065917969,-239.3489990234375 258.8739929199219,-235.48699951171875 C258.8739929199219,-235.48699951171875 259.12200927734375,-148.14999389648438 259.12200927734375,-148.14999389648438 C259.13299560546875,-144.27200317382812 256.4129943847656,-139.5590057373047 253.052001953125,-137.61900329589844 C253.052001953125,-137.61900329589844 187.1820068359375,-99.58999633789062 187.1820068359375,-99.58999633789062 C183.80799865722656,-97.64199829101562 181.06900024414062,-99.2020034790039 181.05799865722656,-103.08000183105469 C181.05799865722656,-103.08000183105469 180.89599609375,-160.5 180.89599609375,-160.5 C180.88600158691406,-163.85699462890625 182.08399963378906,-167.78500366210938 184.2169952392578,-171.32200622558594 C184.2169952392578,-171.32200622558594 206.80799865722656,-209.072998046875 206.80799865722656,-209.072998046875 C208.77699279785156,-212.35699462890625 211.39300537109375,-215.08299255371094 214.1230010986328,-216.65899658203125 C214.1230010986328,-216.65899658203125 252.76400756835938,-238.968994140625 252.76400756835938,-238.968994140625z"/><path stroke-linecap="round" stroke-linejoin="round" fill-opacity="0" stroke="rgb(11,47,84)" stroke-opacity="1" stroke-width="2.686" d=" M252.76400756835938,-238.968994140625 C256.125,-240.90899658203125 258.8630065917969,-239.3489990234375 258.8739929199219,-235.48699951171875 C258.8739929199219,-235.48699951171875 259.12200927734375,-148.14999389648438 259.12200927734375,-148.14999389648438 C259.13299560546875,-144.27200317382812 256.4129943847656,-139.5590057373047 253.052001953125,-137.61900329589844 C253.052001953125,-137.61900329589844 187.1820068359375,-99.58999633789062 187.1820068359375,-99.58999633789062 C183.80799865722656,-97.64199829101562 181.06900024414062,-99.2020034790039 181.05799865722656,-103.08000183105469 C181.05799865722656,-103.08000183105469 180.89599609375,-160.5 180.89599609375,-160.5 C180.88600158691406,-163.85699462890625 182.08399963378906,-167.78500366210938 184.2169952392578,-171.32200622558594 C184.2169952392578,-171.32200622558594 206.80799865722656,-209.072998046875 206.80799865722656,-209.072998046875 C208.77699279785156,-212.35699462890625 211.39300537109375,-215.08299255371094 214.1230010986328,-216.65899658203125 C214.1230010986328,-216.65899658203125 252.76400756835938,-238.968994140625 252.76400756835938,-238.968994140625z"/></g><g opacity="1" transform="matrix(1,0,0,1,0,0)"><path fill="rgb(255,76,45)" fill-opacity="1" d=" M257.1059875488281,-239.39500427246094 C255.98899841308594,-240.0399932861328 254.46299743652344,-239.95399475097656 252.76600646972656,-238.96600341796875 C252.76600646972656,-238.96600341796875 214.11599731445312,-216.6649932861328 214.11599731445312,-216.6649932861328 C211.38699340820312,-215.0760040283203 208.78799438476562,-212.3470001220703 206.81100463867188,-209.08099365234375 C206.81100463867188,-209.08099365234375 184.20899963378906,-171.33299255371094 184.20899963378906,-171.33299255371094 C182.08200073242188,-167.78799438476562 180.8800048828125,-163.85699462890625 180.9010009765625,-160.5050048828125 C180.9010009765625,-160.5050048828125 181.05099487304688,-103.0770034790039 181.05099487304688,-103.0770034790039 C181.07200622558594,-101.14299774169922 181.73800659179688,-99.79000091552734 182.83399963378906,-99.16699981689453 C182.83399963378906,-99.16699981689453 122.2699966430664,-134.35899353027344 122.2699966430664,-134.35899353027344 C121.17400360107422,-135.00399780273438 120.48699951171875,-136.35699462890625 120.48699951171875,-138.2689971923828 C120.48699951171875,-138.2689971923828 120.33599853515625,-195.69700622558594 120.33599853515625,-195.69700622558594 C120.31500244140625,-199.04800415039062 121.51799774169922,-202.97900390625 123.6449966430664,-206.5240020751953 C123.6449966430664,-206.5240020751953 146.24600219726562,-244.27200317382812 146.24600219726562,-244.27200317382812 C148.2010040283203,-247.5590057373047 150.82200622558594,-250.28799438476562 153.55099487304688,-251.8560028076172 C153.55099487304688,-251.8560028076172 192.2010040283203,-274.1579895019531 192.2010040283203,-274.1579895019531 C193.8769989013672,-275.14599609375 195.4239959716797,-275.23199462890625 196.52000427246094,-274.5870056152344 C196.52000427246094,-274.5870056152344 257.1059875488281,-239.39500427246094 257.1059875488281,-239.39500427246094z"/><path stroke-linecap="round" stroke-linejoin="round" fill-opacity="0" stroke="rgb(11,47,84)" stroke-opacity="1" stroke-width="2.686" d=" M257.1059875488281,-239.39500427246094 C255.98899841308594,-240.0399932861328 254.46299743652344,-239.95399475097656 252.76600646972656,-238.96600341796875 C252.76600646972656,-238.96600341796875 214.11599731445312,-216.6649932861328 214.11599731445312,-216.6649932861328 C211.38699340820312,-215.0760040283203 208.78799438476562,-212.3470001220703 206.81100463867188,-209.08099365234375 C206.81100463867188,-209.08099365234375 184.20899963378906,-171.33299255371094 184.20899963378906,-171.33299255371094 C182.08200073242188,-167.78799438476562 180.8800048828125,-163.85699462890625 180.9010009765625,-160.5050048828125 C180.9010009765625,-160.5050048828125 181.05099487304688,-103.0770034790039 181.05099487304688,-103.0770034790039 C181.07200622558594,-101.14299774169922 181.73800659179688,-99.79000091552734 182.83399963378906,-99.16699981689453 C182.83399963378906,-99.16699981689453 122.2699966430664,-134.35899353027344 122.2699966430664,-134.35899353027344 C121.17400360107422,-135.00399780273438 120.48699951171875,-136.35699462890625 120.48699951171875,-138.2689971923828 C120.48699951171875,-138.2689971923828 120.33599853515625,-195.69700622558594 120.33599853515625,-195.69700622558594 C120.31500244140625,-199.04800415039062 121.51799774169922,-202.97900390625 123.6449966430664,-206.5240020751953 C123.6449966430664,-206.5240020751953 146.24600219726562,-244.27200317382812 146.24600219726562,-244.27200317382812 C148.2010040283203,-247.5590057373047 150.82200622558594,-250.28799438476562 153.55099487304688,-251.8560028076172 C153.55099487304688,-251.8560028076172 192.2010040283203,-274.1579895019531 192.2010040283203,-274.1579895019531 C193.8769989013672,-275.14599609375 195.4239959716797,-275.23199462890625 196.52000427246094,-274.5870056152344 C196.52000427246094,-274.5870056152344 257.1059875488281,-239.39500427246094 257.1059875488281,-239.39500427246094z"/></g><g opacity="1" transform="matrix(1,0,0,1,0,0)"><path fill="rgb(51,161,253)" fill-opacity="1" d=" M248.3509979248047,-181.81100463867188 C248.3509979248047,-181.81100463867188 248.23599243164062,-222.31900024414062 248.23599243164062,-222.31900024414062 C248.23300170898438,-223.29600524902344 247.5449981689453,-223.67300415039062 246.69500732421875,-223.1820068359375 C246.69500732421875,-223.1820068359375 214.76199340820312,-204.7449951171875 214.76199340820312,-204.7449951171875 C214.3780059814453,-204.5229949951172 214.00799560546875,-204.13699340820312 213.7209930419922,-203.67100524902344 C213.7209930419922,-203.67100524902344 192.04600524902344,-167.45899963378906 192.04600524902344,-167.45899963378906 C191.7449951171875,-166.95399475097656 191.56900024414062,-166.39300537109375 191.57000732421875,-165.90499877929688 C191.57000732421875,-165.90499877929688 191.61700439453125,-149.05599975585938 191.61700439453125,-149.05599975585938 C191.6199951171875,-148.093994140625 192.30799865722656,-147.70199584960938 193.14500427246094,-148.18499755859375 C193.14500427246094,-148.18499755859375 246.82000732421875,-179.1739959716797 246.82000732421875,-179.1739959716797 C247.6699981689453,-179.6649932861328 248.35400390625,-180.8489990234375 248.3509979248047,-181.81100463867188"/></g><g opacity="1" transform="matrix(1,0,0,1,0,0)"><path stroke-linecap="round" stroke-linejoin="round" fill-opacity="0" stroke="rgb(11,47,84)" stroke-opacity="1" stroke-width="2.686" d=" M174.72300720214844,-103.88500213623047 C174.72300720214844,-103.88500213623047 126.89900207519531,-75.9010009765625 126.89900207519531,-75.9010009765625 C126.89900207519531,-75.9010009765625 126.87799835205078,-75.9010009765625 126.87799835205078,-75.9010009765625 C126.87799835205078,-75.9010009765625 126.87799835205078,-75.87899780273438 126.87799835205078,-75.87899780273438 C126.87799835205078,-75.87899780273438 126.85600280761719,-75.87899780273438 126.85600280761719,-75.87899780273438 C126.85600280761719,-75.87899780273438 78.83899688720703,-47.97100067138672 78.83899688720703,-47.97100067138672 C78.83899688720703,-47.97100067138672 78.81700134277344,-47.97100067138672 78.81700134277344,-47.97100067138672 C78.81700134277344,-47.97100067138672 78.81700134277344,-47.95000076293945 78.81700134277344,-47.95000076293945 C78.81700134277344,-47.95000076293945 78.7959976196289,-47.95000076293945 78.7959976196289,-47.95000076293945 C78.7959976196289,-47.95000076293945 30.777999877929688,-20.041000366210938 30.777999877929688,-20.041000366210938 C30.777999877929688,-20.041000366210938 30.756999969482422,-20.041000366210938 30.756999969482422,-20.041000366210938 C30.756999969482422,-20.041000366210938 30.756999969482422,-20.020000457763672 30.756999969482422,-20.020000457763672 C30.756999969482422,-20.020000457763672 -17.281999588012695,7.888000011444092 -17.281999588012695,7.888000011444092 C-17.281999588012695,7.888000011444092 -17.304000854492188,7.888000011444092 -17.304000854492188,7.888000011444092 C-17.304000854492188,7.888000011444092 -17.304000854492188,7.909999847412109 -17.304000854492188,7.909999847412109 C-17.304000854492188,7.909999847412109 -65.34300231933594,35.81800079345703 -65.34300231933594,35.81800079345703 C-65.34300231933594,35.81800079345703 -65.36399841308594,35.81800079345703 -65.36399841308594,35.81800079345703 C-65.36399841308594,35.81800079345703 -65.36399841308594,35.84000015258789 -65.36399841308594,35.84000015258789 C-65.36399841308594,35.84000015258789 -89.47000122070312,21.809999465942383 -89.47000122070312,21.809999465942383 C-89.47000122070312,21.809999465942383 -101.02400207519531,14.97599983215332 -101.02400207519531,14.97599983215332 C-106.73200225830078,11.600000381469727 -106.6989974975586,3.3299999237060547 -100.96499633789062,-0.0010000000474974513 C-100.96499633789062,-0.0010000000474974513 -65.7300033569336,-20.47100067138672 -65.7300033569336,-20.47100067138672 C-65.7300033569336,-20.47100067138672 -65.70800018310547,-20.47100067138672 -65.70800018310547,-20.47100067138672 C-65.70800018310547,-20.47100067138672 -65.70800018310547,-20.492000579833984 -65.70800018310547,-20.492000579833984 C-65.70800018310547,-20.492000579833984 -17.66900062561035,-48.4010009765625 -17.66900062561035,-48.4010009765625 C-17.66900062561035,-48.4010009765625 174.572998046875,-160.11900329589844 174.572998046875,-160.11900329589844 C174.572998046875,-160.11900329589844 174.72300720214844,-103.88500213623047 174.72300720214844,-103.88500213623047z"/></g><g opacity="1" transform="matrix(1,0,0,1,0,0)"><path stroke-linecap="round" stroke-linejoin="round" fill-opacity="0" stroke="rgb(11,47,84)" stroke-opacity="1" stroke-width="2.686" d=" M174.572998046875,-160.11900329589844 C174.572998046875,-160.11900329589844 -17.66900062561035,-48.4010009765625 -17.66900062561035,-48.4010009765625 C-17.66900062561035,-48.4010009765625 -65.70800018310547,-20.492000579833984 -65.70800018310547,-20.492000579833984 C-65.70800018310547,-20.492000579833984 -65.70800018310547,-20.47100067138672 -65.70800018310547,-20.47100067138672 C-65.70800018310547,-20.47100067138672 -65.7300033569336,-20.47100067138672 -65.7300033569336,-20.47100067138672 C-65.7300033569336,-20.47100067138672 -97.88099670410156,-1.7929999828338623 -97.88099670410156,-1.7929999828338623 C-104.96900177001953,2.325000047683716 -113.86299896240234,-2.739000082015991 -113.93900299072266,-10.935999870300293 C-113.93900299072266,-10.935999870300293 -114.0270004272461,-20.42799949645996 -114.0270004272461,-20.42799949645996 C-114.0270004272461,-20.42799949645996 -114.26300048828125,-48.314998626708984 -114.26300048828125,-48.314998626708984 C-114.26300048828125,-48.314998626708984 29.91900062561035,-132.10400390625 29.91900062561035,-132.10400390625 C29.91900062561035,-132.10400390625 77.95800018310547,-160.0330047607422 77.95800018310547,-160.0330047607422 C77.95800018310547,-160.0330047607422 77.97899627685547,-160.0330047607422 77.97899627685547,-160.0330047607422 C77.97899627685547,-160.0330047607422 126.01799774169922,-187.96299743652344 126.01799774169922,-187.96299743652344 C126.01799774169922,-187.96299743652344 174.572998046875,-160.11900329589844 174.572998046875,-160.11900329589844z"/></g><g opacity="1" transform="matrix(1,0,0,1,0,0)"><path stroke-linecap="round" stroke-linejoin="round" fill-opacity="0" stroke="rgb(11,47,84)" stroke-opacity="1" stroke-width="2.686" d=" M126.51499938964844,-132.1820068359375 C126.51499938964844,-132.1820068359375 77.97000122070312,-160.0260009765625 77.97000122070312,-160.0260009765625 C77.97000122070312,-160.0260009765625 126.27100372314453,-160.06700134277344 126.27100372314453,-160.06700134277344 C126.27100372314453,-160.06700134277344 126.51499938964844,-132.1820068359375 126.51499938964844,-132.1820068359375z"/></g><g opacity="1" transform="matrix(1,0,0,1,0,0)"><path stroke-linecap="round" stroke-linejoin="round" fill-opacity="0" stroke="rgb(11,47,84)" stroke-opacity="1" stroke-width="2.686" d=" M174.57200622558594,-160.11000061035156 C174.57200622558594,-160.11000061035156 126.27100372314453,-160.06700134277344 126.27100372314453,-160.06700134277344 C126.27100372314453,-160.06700134277344 126.0260009765625,-187.9530029296875 126.0260009765625,-187.9530029296875 C126.0260009765625,-187.9530029296875 174.57200622558594,-160.11000061035156 174.57200622558594,-160.11000061035156z"/></g><g opacity="1" transform="matrix(1,0,0,1,0,0)"><path stroke-linecap="round" stroke-linejoin="round" fill-opacity="0" stroke="rgb(11,47,84)" stroke-opacity="1" stroke-width="2.686" d=" M78.45600128173828,-104.25299835205078 C78.45600128173828,-104.25299835205078 29.91200065612793,-132.09800720214844 29.91200065612793,-132.09800720214844 C29.91200065612793,-132.09800720214844 78.21199798583984,-132.13900756835938 78.21199798583984,-132.13900756835938 C78.21199798583984,-132.13900756835938 78.45600128173828,-104.25299835205078 78.45600128173828,-104.25299835205078z"/></g><g opacity="1" transform="matrix(1,0,0,1,0,0)"><path stroke-linecap="round" stroke-linejoin="round" fill-opacity="0" stroke="rgb(11,47,84)" stroke-opacity="1" stroke-width="2.686" d=" M126.51399993896484,-132.18099975585938 C126.51399993896484,-132.18099975585938 78.21199798583984,-132.13900756835938 78.21199798583984,-132.13900756835938 C78.21199798583984,-132.13900756835938 77.96700286865234,-160.0240020751953 77.96700286865234,-160.0240020751953 C77.96700286865234,-160.0240020751953 126.51399993896484,-132.18099975585938 126.51399993896484,-132.18099975585938z"/></g><g opacity="1" transform="matrix(1,0,0,1,0,0)"><path stroke-linecap="round" stroke-linejoin="round" fill-opacity="0" stroke="rgb(11,47,84)" stroke-opacity="1" stroke-width="2.686" d=" M30.398000717163086,-76.32499694824219 C30.398000717163086,-76.32499694824219 -18.145999908447266,-104.16899871826172 -18.145999908447266,-104.16899871826172 C-18.145999908447266,-104.16899871826172 30.15399932861328,-104.21099853515625 30.15399932861328,-104.21099853515625 C30.15399932861328,-104.21099853515625 30.398000717163086,-76.32499694824219 30.398000717163086,-76.32499694824219z"/></g><g opacity="1" transform="matrix(1,0,0,1,0,0)"><path stroke-linecap="round" stroke-linejoin="round" fill-opacity="0" stroke="rgb(11,47,84)" stroke-opacity="1" stroke-width="2.686" d=" M78.45600128173828,-104.25299835205078 C78.45600128173828,-104.25299835205078 30.15399932861328,-104.21099853515625 30.15399932861328,-104.21099853515625 C30.15399932861328,-104.21099853515625 29.909000396728516,-132.0959930419922 29.909000396728516,-132.0959930419922 C29.909000396728516,-132.0959930419922 78.45600128173828,-104.25299835205078 78.45600128173828,-104.25299835205078z"/></g><g opacity="1" transform="matrix(1,0,0,1,0,0)"><path stroke-linecap="round" stroke-linejoin="round" fill-opacity="0" stroke="rgb(11,47,84)" stroke-opacity="1" stroke-width="2.686" d=" M-17.659000396728516,-48.39699935913086 C-17.659000396728516,-48.39699935913086 -66.2040023803711,-76.24099731445312 -66.2040023803711,-76.24099731445312 C-66.2040023803711,-76.24099731445312 -17.90399932861328,-76.28299713134766 -17.90399932861328,-76.28299713134766 C-17.90399932861328,-76.28299713134766 -17.659000396728516,-48.39699935913086 -17.659000396728516,-48.39699935913086z"/></g><g opacity="1" transform="matrix(1,0,0,1,0,0)"><path stroke-linecap="round" stroke-linejoin="round" fill-opacity="0" stroke="rgb(11,47,84)" stroke-opacity="1" stroke-width="2.686" d=" M30.398000717163086,-76.32499694824219 C30.398000717163086,-76.32499694824219 -17.90399932861328,-76.28299713134766 -17.90399932861328,-76.28299713134766 C-17.90399932861328,-76.28299713134766 -18.148000717163086,-104.16799926757812 -18.148000717163086,-104.16799926757812 C-18.148000717163086,-104.16799926757812 30.398000717163086,-76.32499694824219 30.398000717163086,-76.32499694824219z"/></g><g opacity="1" transform="matrix(1,0,0,1,0,0)"><path stroke-linecap="round" stroke-linejoin="round" fill-opacity="0" stroke="rgb(11,47,84)" stroke-opacity="1" stroke-width="2.686" d=" M-65.71900177001953,-20.468000411987305 C-65.71900177001953,-20.468000411987305 -114.26300048828125,-48.3129997253418 -114.26300048828125,-48.3129997253418 C-114.26300048828125,-48.3129997253418 -65.96299743652344,-48.354000091552734 -65.96299743652344,-48.354000091552734 C-65.96299743652344,-48.354000091552734 -65.71900177001953,-20.468000411987305 -65.71900177001953,-20.468000411987305z"/></g><g opacity="1" transform="matrix(1,0,0,1,0,0)"><path stroke-linecap="round" stroke-linejoin="round" fill-opacity="0" stroke="rgb(11,47,84)" stroke-opacity="1" stroke-width="2.686" d=" M-17.660999298095703,-48.395999908447266 C-17.660999298095703,-48.395999908447266 -65.96299743652344,-48.354000091552734 -65.96299743652344,-48.354000091552734 C-65.96299743652344,-48.354000091552734 -66.20800018310547,-76.23899841308594 -66.20800018310547,-76.23899841308594 C-66.20800018310547,-76.23899841308594 -17.660999298095703,-48.395999908447266 -17.660999298095703,-48.395999908447266z"/></g><g opacity="1" transform="matrix(1,0,0,1,0,0)"><path stroke-linecap="round" stroke-linejoin="round" fill-opacity="0" stroke="rgb(11,47,84)" stroke-opacity="1" stroke-width="2.686" d=" M126.51499938964844,-132.1820068359375 C126.51499938964844,-132.1820068359375 126.87000274658203,-75.88200378417969 126.87000274658203,-75.88200378417969 C126.87000274658203,-75.88200378417969 150.8179931640625,-117.8270034790039 150.8179931640625,-117.8270034790039 C150.8179931640625,-117.8270034790039 126.51499938964844,-132.1820068359375 126.51499938964844,-132.1820068359375z"/></g><g opacity="1" transform="matrix(1,0,0,1,0,0)"><path stroke-linecap="round" stroke-linejoin="round" fill-opacity="0" stroke="rgb(11,47,84)" stroke-opacity="1" stroke-width="2.686" d=" M174.57200622558594,-160.11000061035156 C174.57200622558594,-160.11000061035156 150.8179931640625,-117.8270034790039 150.8179931640625,-117.8270034790039 C150.8179931640625,-117.8270034790039 174.7310028076172,-103.87999725341797 174.7310028076172,-103.87999725341797 C174.7310028076172,-103.87999725341797 174.57200622558594,-160.11000061035156 174.57200622558594,-160.11000061035156z"/></g><g opacity="1" transform="matrix(1,0,0,1,0,0)"><path stroke-linecap="round" stroke-linejoin="round" fill-opacity="0" stroke="rgb(11,47,84)" stroke-opacity="1" stroke-width="2.686" d=" M78.45600128173828,-104.25299835205078 C78.45600128173828,-104.25299835205078 78.81099700927734,-47.952999114990234 78.81099700927734,-47.952999114990234 C78.81099700927734,-47.952999114990234 102.75900268554688,-89.89800262451172 102.75900268554688,-89.89800262451172 C102.75900268554688,-89.89800262451172 78.45600128173828,-104.25299835205078 78.45600128173828,-104.25299835205078z"/></g><g opacity="1" transform="matrix(1,0,0,1,0,0)"><path stroke-linecap="round" stroke-linejoin="round" fill-opacity="0" stroke="rgb(11,47,84)" stroke-opacity="1" stroke-width="2.686" d=" M126.51399993896484,-132.18099975585938 C126.51399993896484,-132.18099975585938 102.75900268554688,-89.89800262451172 102.75900268554688,-89.89800262451172 C102.75900268554688,-89.89800262451172 126.86699676513672,-75.87999725341797 126.86699676513672,-75.87999725341797 C126.86699676513672,-75.87999725341797 126.51399993896484,-132.18099975585938 126.51399993896484,-132.18099975585938z"/></g><g opacity="1" transform="matrix(1,0,0,1,0,0)"><path stroke-linecap="round" stroke-linejoin="round" fill-opacity="0" stroke="rgb(11,47,84)" stroke-opacity="1" stroke-width="2.686" d=" M30.398000717163086,-76.32499694824219 C30.398000717163086,-76.32499694824219 30.753000259399414,-20.024999618530273 30.753000259399414,-20.024999618530273 C30.753000259399414,-20.024999618530273 54.70100021362305,-61.970001220703125 54.70100021362305,-61.970001220703125 C54.70100021362305,-61.970001220703125 30.398000717163086,-76.32499694824219 30.398000717163086,-76.32499694824219z"/></g><g opacity="1" transform="matrix(1,0,0,1,0,0)"><path stroke-linecap="round" stroke-linejoin="round" fill-opacity="0" stroke="rgb(11,47,84)" stroke-opacity="1" stroke-width="2.686" d=" M78.45600128173828,-104.25299835205078 C78.45600128173828,-104.25299835205078 54.70100021362305,-61.970001220703125 54.70100021362305,-61.970001220703125 C54.70100021362305,-61.970001220703125 78.80899810791016,-47.95199966430664 78.80899810791016,-47.95199966430664 C78.80899810791016,-47.95199966430664 78.45600128173828,-104.25299835205078 78.45600128173828,-104.25299835205078z"/></g><g opacity="1" transform="matrix(1,0,0,1,0,0)"><path stroke-linecap="round" stroke-linejoin="round" fill-opacity="0" stroke="rgb(11,47,84)" stroke-opacity="1" stroke-width="2.686" d=" M-17.659000396728516,-48.39699935913086 C-17.659000396728516,-48.39699935913086 -17.30500030517578,7.9029998779296875 -17.30500030517578,7.9029998779296875 C-17.30500030517578,7.9029998779296875 6.644000053405762,-34.04199981689453 6.644000053405762,-34.04199981689453 C6.644000053405762,-34.04199981689453 -17.659000396728516,-48.39699935913086 -17.659000396728516,-48.39699935913086z"/></g><g opacity="1" transform="matrix(1,0,0,1,0,0)"><path stroke-linecap="round" stroke-linejoin="round" fill-opacity="0" stroke="rgb(11,47,84)" stroke-opacity="1" stroke-width="2.686" d=" M30.398000717163086,-76.32499694824219 C30.398000717163086,-76.32499694824219 6.644000053405762,-34.04199981689453 6.644000053405762,-34.04199981689453 C6.644000053405762,-34.04199981689453 30.750999450683594,-20.02400016784668 30.750999450683594,-20.02400016784668 C30.750999450683594,-20.02400016784668 30.398000717163086,-76.32499694824219 30.398000717163086,-76.32499694824219z"/></g><g opacity="1" transform="matrix(1,0,0,1,0,0)"><path stroke-linecap="round" stroke-linejoin="round" fill-opacity="0" stroke="rgb(11,47,84)" stroke-opacity="1" stroke-width="2.686" d=" M-65.71900177001953,-20.468000411987305 C-65.71900177001953,-20.468000411987305 -65.36399841308594,35.832000732421875 -65.36399841308594,35.832000732421875 C-65.36399841308594,35.832000732421875 -41.415000915527344,-6.11299991607666 -41.415000915527344,-6.11299991607666 C-41.415000915527344,-6.11299991607666 -65.71900177001953,-20.468000411987305 -65.71900177001953,-20.468000411987305z"/></g><g opacity="1" transform="matrix(1,0,0,1,0,0)"><path stroke-linecap="round" stroke-linejoin="round" fill-opacity="0" stroke="rgb(11,47,84)" stroke-opacity="1" stroke-width="2.686" d=" M-17.660999298095703,-48.395999908447266 C-17.660999298095703,-48.395999908447266 -41.415000915527344,-6.11299991607666 -41.415000915527344,-6.11299991607666 C-41.415000915527344,-6.11299991607666 -17.308000564575195,7.90500020980835 -17.308000564575195,7.90500020980835 C-17.308000564575195,7.90500020980835 -17.660999298095703,-48.395999908447266 -17.660999298095703,-48.395999908447266z"/></g></g><g transform="matrix(1,0,0,1,270.2856140136719,319.3961181640625)" opacity="1" style="display: block;"><g opacity="1" transform="matrix(1,0,0,1,0,0)"><path fill="rgb(255,255,255)" fill-opacity="1" d=" M-10.038999557495117,-125.7020034790039 C-10.038999557495117,-125.7020034790039 -85.80000305175781,-103.94100189208984 -85.80000305175781,-103.94100189208984 C-86.04900360107422,-103.875 -86.26399993896484,-103.79100036621094 -86.46299743652344,-103.65899658203125 C-86.46299743652344,-103.65899658203125 -218.61500549316406,-26.874000549316406 -218.61500549316406,-26.874000549316406 C-218.41600036621094,-26.989999771118164 -218.2010040283203,-27.072999954223633 -217.95199584960938,-27.1560001373291 C-217.95199584960938,-27.1560001373291 -142.1909942626953,-48.917999267578125 -142.1909942626953,-48.917999267578125 C-141.2779998779297,-49.16699981689453 -140.23599243164062,-49.00299835205078 -139.1649932861328,-48.51499938964844 C-139.1649932861328,-48.51499938964844 -7.019000053405762,-125.31199645996094 -7.019000053405762,-125.31199645996094 C-8.092000007629395,-125.79299926757812 -9.140999794006348,-125.96399688720703 -10.038999557495117,-125.7020034790039z"/><path stroke-linecap="round" stroke-linejoin="round" fill-opacity="0" stroke="rgb(11,47,84)" stroke-opacity="1" stroke-width="2.686" d=" M-10.038999557495117,-125.7020034790039 C-10.038999557495117,-125.7020034790039 -85.80000305175781,-103.94100189208984 -85.80000305175781,-103.94100189208984 C-86.04900360107422,-103.875 -86.26399993896484,-103.79100036621094 -86.46299743652344,-103.65899658203125 C-86.46299743652344,-103.65899658203125 -218.61500549316406,-26.874000549316406 -218.61500549316406,-26.874000549316406 C-218.41600036621094,-26.989999771118164 -218.2010040283203,-27.072999954223633 -217.95199584960938,-27.1560001373291 C-217.95199584960938,-27.1560001373291 -142.1909942626953,-48.917999267578125 -142.1909942626953,-48.917999267578125 C-141.2779998779297,-49.16699981689453 -140.23599243164062,-49.00299835205078 -139.1649932861328,-48.51499938964844 C-139.1649932861328,-48.51499938964844 -7.019000053405762,-125.31199645996094 -7.019000053405762,-125.31199645996094 C-8.092000007629395,-125.79299926757812 -9.140999794006348,-125.96399688720703 -10.038999557495117,-125.7020034790039z"/></g><g opacity="1" transform="matrix(1,0,0,1,0,0)"><path fill="rgb(255,255,255)" fill-opacity="1" d=" M72.66600036621094,-12.451000213623047 C72.66600036621094,-12.451000213623047 -2.7300000190734863,-121.49199676513672 -2.7300000190734863,-121.49199676513672 C-3.806999921798706,-123.05000305175781 -5.083000183105469,-124.26000213623047 -6.375999927520752,-125.00599670410156 C-6.591000080108643,-125.12699890136719 -6.804999828338623,-125.21700286865234 -7.019000053405762,-125.31199645996094 C-7.019000053405762,-125.31199645996094 -139.1649932861328,-48.51499938964844 -139.1649932861328,-48.51499938964844 C-138.9530029296875,-48.41899871826172 -138.74200439453125,-48.32899856567383 -138.5279998779297,-48.20600128173828 C-137.23500061035156,-47.459999084472656 -135.95899963378906,-46.25 -134.8820037841797,-44.69200134277344 C-134.8820037841797,-44.69200134277344 -59.48500061035156,64.33300018310547 -59.48500061035156,64.33300018310547 C-56.81700134277344,68.21199798583984 -56.2859992980957,72.9020004272461 -58.32500076293945,74.80799865722656 C-58.49100112915039,74.9739990234375 -58.67300033569336,75.10700225830078 -58.87200164794922,75.2229995727539 C-58.87200164794922,75.2229995727539 73.27899932861328,-1.5779999494552612 73.27899932861328,-1.5779999494552612 C73.47799682617188,-1.694000005722046 73.66000366210938,-1.8259999752044678 73.82599639892578,-1.9919999837875366 C75.86499786376953,-3.8980000019073486 75.33399963378906,-8.58899974822998 72.66600036621094,-12.451000213623047z"/><path stroke-linecap="round" stroke-linejoin="round" fill-opacity="0" stroke="rgb(11,47,84)" stroke-opacity="1" stroke-width="2.686" d=" M72.66600036621094,-12.451000213623047 C72.66600036621094,-12.451000213623047 -2.7300000190734863,-121.49199676513672 -2.7300000190734863,-121.49199676513672 C-3.806999921798706,-123.05000305175781 -5.083000183105469,-124.26000213623047 -6.375999927520752,-125.00599670410156 C-6.591000080108643,-125.12699890136719 -6.804999828338623,-125.21700286865234 -7.019000053405762,-125.31199645996094 C-7.019000053405762,-125.31199645996094 -139.1649932861328,-48.51499938964844 -139.1649932861328,-48.51499938964844 C-138.9530029296875,-48.41899871826172 -138.74200439453125,-48.32899856567383 -138.5279998779297,-48.20600128173828 C-137.23500061035156,-47.459999084472656 -135.95899963378906,-46.25 -134.8820037841797,-44.69200134277344 C-134.8820037841797,-44.69200134277344 -59.48500061035156,64.33300018310547 -59.48500061035156,64.33300018310547 C-56.81700134277344,68.21199798583984 -56.2859992980957,72.9020004272461 -58.32500076293945,74.80799865722656 C-58.49100112915039,74.9739990234375 -58.67300033569336,75.10700225830078 -58.87200164794922,75.2229995727539 C-58.87200164794922,75.2229995727539 73.27899932861328,-1.5779999494552612 73.27899932861328,-1.5779999494552612 C73.47799682617188,-1.694000005722046 73.66000366210938,-1.8259999752044678 73.82599639892578,-1.9919999837875366 C75.86499786376953,-3.8980000019073486 75.33399963378906,-8.58899974822998 72.66600036621094,-12.451000213623047z"/></g><g opacity="1" transform="matrix(1,0,0,1,0,0)"><path fill="rgb(251,208,79)" fill-opacity="1" d=" M-138.5279998779297,-48.20100021362305 C-137.24099731445312,-47.45800018310547 -135.95700073242188,-46.24700164794922 -134.8800048828125,-44.6879997253418 C-134.8800048828125,-44.6879997253418 -59.487998962402344,64.34100341796875 -59.487998962402344,64.34100341796875 C-56.81700134277344,68.20899963378906 -56.290000915527344,72.89800262451172 -58.31999969482422,74.80799865722656 C-59.5099983215332,75.9469985961914 -61.34400177001953,75.85099792480469 -63.185001373291016,74.78800201416016 C-64.45500183105469,74.05500030517578 -65.73400115966797,72.85399627685547 -66.82099914550781,71.2760009765625 C-66.82099914550781,71.2760009765625 -138.5709991455078,-32.48400115966797 -138.5709991455078,-32.48400115966797 C-138.5709991455078,-32.48400115966797 -210.6739959716797,-11.777999877929688 -210.6739959716797,-11.777999877929688 C-211.7740020751953,-11.463000297546387 -213.06100463867188,-11.746999740600586 -214.33399963378906,-12.482000350952148 C-216.17799377441406,-13.54699993133545 -217.99400329589844,-15.557000160217285 -219.17799377441406,-18.06399917602539 C-221.19000244140625,-22.30699920654297 -220.63900756835938,-26.37299919128418 -217.9550018310547,-27.149999618530273 C-217.9550018310547,-27.149999618530273 -142.19200134277344,-48.90999984741211 -142.19200134277344,-48.90999984741211 C-141.10499572753906,-49.220001220703125 -139.81500244140625,-48.944000244140625 -138.5279998779297,-48.20100021362305z"/><path stroke-linecap="round" stroke-linejoin="round" fill-opacity="0" stroke="rgb(11,47,84)" stroke-opacity="1" stroke-width="2.686" d=" M-138.5279998779297,-48.20100021362305 C-137.24099731445312,-47.45800018310547 -135.95700073242188,-46.24700164794922 -134.8800048828125,-44.6879997253418 C-134.8800048828125,-44.6879997253418 -59.487998962402344,64.34100341796875 -59.487998962402344,64.34100341796875 C-56.81700134277344,68.20899963378906 -56.290000915527344,72.89800262451172 -58.31999969482422,74.80799865722656 C-59.5099983215332,75.9469985961914 -61.34400177001953,75.85099792480469 -63.185001373291016,74.78800201416016 C-64.45500183105469,74.05500030517578 -65.73400115966797,72.85399627685547 -66.82099914550781,71.2760009765625 C-66.82099914550781,71.2760009765625 -138.5709991455078,-32.48400115966797 -138.5709991455078,-32.48400115966797 C-138.5709991455078,-32.48400115966797 -210.6739959716797,-11.777999877929688 -210.6739959716797,-11.777999877929688 C-211.7740020751953,-11.463000297546387 -213.06100463867188,-11.746999740600586 -214.33399963378906,-12.482000350952148 C-216.17799377441406,-13.54699993133545 -217.99400329589844,-15.557000160217285 -219.17799377441406,-18.06399917602539 C-221.19000244140625,-22.30699920654297 -220.63900756835938,-26.37299919128418 -217.9550018310547,-27.149999618530273 C-217.9550018310547,-27.149999618530273 -142.19200134277344,-48.90999984741211 -142.19200134277344,-48.90999984741211 C-141.10499572753906,-49.220001220703125 -139.81500244140625,-48.944000244140625 -138.5279998779297,-48.20100021362305z"/></g></g></g></svg>