<svg width="491" height="450" viewBox="0 0 491 450" fill="none" xmlns="http://www.w3.org/2000/svg">
<path d="M124 239.787V340L174 253.213V153L124 239.787Z" fill="#D9D9D9"/>
<path d="M124 339.603V239.603L174 153V253L124 339.603Z" fill="#C4DFFF"/>
<rect x="173" y="153" width="160" height="100" fill="#DBECFF"/>
<rect width="161.681" height="81.6479" transform="matrix(1 0 -0.500065 0.865988 213.828 82)" fill="#6CB9FF"/>
<path d="M284 340V239.251L334 152V252.749L284 340Z" fill="#1F5A90"/>
<rect width="99.6774" height="98.894" transform="matrix(0.5 -0.866025 0.999048 -0.0436277 283.63 238.927)" fill="#6CB9FF"/>
<rect x="124" y="239" width="160" height="100" fill="#2D7BC3"/>
<rect width="161.681" height="81.6479" transform="matrix(1 0 -0.500065 0.865988 123.552 238.376)" fill="#6CB9FF"/>
<rect width="99.6774" height="98.894" transform="matrix(0.5 -0.866025 0.999048 -0.0436277 25.625 242.927)" fill="#6CB9FF"/>
<path d="M124.887 59.2422C124.301 57.0156 122.856 55.1406 120.824 53.9688C118.949 52.875 115.512 52.5625 112.348 52.5234C113.324 51.1953 113.832 49.6719 113.832 48.1094C113.832 45.2578 112.113 42.7188 109.496 41.1563C109.574 40.2188 109.965 39.3594 110.629 38.6953C111.371 37.9531 112.348 37.5625 113.403 37.5625C114.457 37.5625 115.434 37.9531 116.176 38.6953C116.488 39.0078 116.957 39.0078 117.27 38.6953C117.582 38.3828 117.582 37.9141 117.27 37.6016C116.254 36.5859 114.848 36 113.403 36C111.957 36 110.551 36.5859 109.535 37.6016C108.754 38.3828 108.246 39.3594 108.051 40.4531C106.645 39.8672 105.043 39.5156 103.324 39.5156C101.606 39.5156 100.004 39.8672 98.5979 40.4531C98.4026 39.3984 97.8947 38.4219 97.1135 37.6016C96.0979 36.5859 94.6916 36 93.2463 36C91.801 36 90.3947 36.5859 89.3791 37.6016C89.0666 37.9141 89.0666 38.3828 89.3791 38.6953C89.6916 39.0078 90.1604 39.0078 90.4729 38.6953C91.2151 37.9531 92.1916 37.5625 93.2463 37.5625C94.301 37.5625 95.2776 37.9531 96.0197 38.6953C96.6838 39.3594 97.0744 40.2188 97.1526 41.1563C94.5354 42.7188 92.8166 45.2578 92.8166 48.1094C92.8166 49.6719 93.3244 51.1953 94.301 52.5234C92.2307 52.5234 90.0432 52.6406 88.1682 53.0312C87.7385 53.1094 87.4651 53.5391 87.5432 53.9688C87.6213 54.3984 88.051 54.6719 88.4807 54.5938C92.1135 53.8516 97.5041 54.1641 99.6135 54.3203C98.5588 58.2266 95.9807 66.1953 93.3244 67.7187C91.6838 68.6562 89.7697 68.9297 87.8947 68.4219C86.0588 67.9141 84.5354 66.7422 83.5588 65.1016C82.1526 62.6797 82.3088 59.6719 83.9104 57.4063C84.1447 57.0547 84.0666 56.5859 83.7151 56.3125C83.3635 56.0781 82.8947 56.1562 82.6213 56.5078C80.6291 59.2812 80.4729 62.9531 82.1526 65.9219C83.3244 67.9141 85.1994 69.3594 87.426 69.9844C88.1682 70.1797 88.9494 70.2969 89.6916 70.2969C91.2151 70.2969 92.6994 69.9062 94.0276 69.125C94.1057 69.0859 94.1838 69.0078 94.2619 68.9688C96.176 73.7734 99.5354 76.7422 103.246 76.7422C106.879 76.7422 110.238 73.8516 112.153 69.1641C113.481 69.9062 114.926 70.2969 116.41 70.2969C117.153 70.2969 117.934 70.1797 118.676 69.9844C120.903 69.3984 122.778 67.9531 123.949 65.9219C125.199 63.8516 125.512 61.5078 124.887 59.2422ZM96.3713 52.5625C95.0432 51.3125 94.3401 49.75 94.3401 48.1094C94.3401 44.2422 98.3635 41.0781 103.324 41.0781C108.285 41.0781 112.309 44.2422 112.309 48.1094C112.309 49.7109 111.606 51.2734 110.278 52.5234C107.738 52.6016 105.785 52.7969 105.59 52.7969C105.356 52.8359 105.16 52.9531 105.043 53.1094C104.926 53.3047 104.887 53.5391 104.926 53.7344C104.965 53.9297 105.082 54.3594 105.238 54.9453C103.871 55.1797 102.426 55.1406 101.059 54.8672C101.215 54.3203 101.293 53.9297 101.371 53.7344C101.41 53.5 101.371 53.2656 101.254 53.1094C101.137 52.9141 100.903 52.7969 100.707 52.7969C100.512 52.7969 98.7151 52.6016 96.3713 52.5625ZM110.317 67.2891C108.129 68.0312 105.746 68.4219 103.324 68.4219C100.785 68.4219 98.3244 67.9922 96.0197 67.1719C96.6838 66.2734 97.3088 65.1406 97.8947 63.9297C99.6526 64.3203 101.488 64.5156 103.363 64.5156C105.082 64.5156 106.801 64.3594 108.481 64.0078C108.988 65.2187 109.653 66.3516 110.317 67.2891ZM99.3791 60.2578C99.8869 58.8516 100.317 57.5234 100.629 56.4297C101.488 56.625 102.426 56.7031 103.324 56.7031C104.106 56.7031 104.887 56.625 105.668 56.5078C105.981 57.6016 106.41 58.9297 106.918 60.3359C104.418 60.7266 101.84 60.6875 99.3791 60.2578ZM103.324 75.0625C101.215 75.0625 99.2619 73.8516 97.6604 71.7031C99.4963 72.1328 101.371 72.3281 103.324 72.3281C105.238 72.3281 107.153 72.1328 108.988 71.7031C107.387 73.8516 105.395 75.0625 103.324 75.0625ZM122.66 65.0625C121.723 66.7031 120.16 67.875 118.324 68.3828C116.488 68.8906 114.574 68.6172 112.895 67.6797C110.278 66.1562 107.699 58.1875 106.645 54.2812C110.16 54.0078 117.387 53.7734 120.043 55.3359C121.684 56.2734 122.856 57.8359 123.363 59.6719C123.871 61.5078 123.637 63.4219 122.66 65.0625Z" fill="#4A486A"/>
<path d="M85.1994 55.8048C85.3557 55.8048 85.5119 55.7658 85.6291 55.6486C85.7853 55.5314 85.9807 55.4142 86.176 55.297C86.5666 55.0626 86.6838 54.5939 86.4494 54.2423C86.215 53.8517 85.7463 53.7345 85.3947 53.9689C85.1603 54.0861 84.965 54.2423 84.7307 54.3986C84.3791 54.6329 84.301 55.1408 84.5353 55.4923C84.7307 55.6876 84.965 55.8048 85.1994 55.8048Z" fill="#4A486A"/>
<circle cx="107.129" cy="46.3125" r="1" fill="#4A486A"/>
<circle cx="100.129" cy="46.3125" r="1" fill="#4A486A"/>
<path d="M103.749 81C100 113 179 140.552 135 149C82.5 133 160.7 116.943 210 140.552" stroke="#4A486A" stroke-width="3" stroke-dasharray="8 8"/>
<path d="M209.909 140.691C339.273 193.522 291.5 229 209.908 229" stroke="#4A486A" stroke-width="3" stroke-dasharray="8 8"/>
</svg>
