<svg width="137" height="30" viewBox="0 0 137 30" fill="none" xmlns="http://www.w3.org/2000/svg">
<path d="M0.585938 0.898438H10.5118C11.9821 0.898438 13.3515 1.10023 14.621 1.50282C15.8895 1.9064 16.9866 2.45789 17.9123 3.15729C18.837 3.85767 19.5668 4.6756 20.1006 5.61205C20.6345 6.54949 20.9009 7.56333 20.9009 8.65357C20.9009 10.1474 20.4738 11.4463 19.6206 12.5493C18.7665 13.6522 17.3549 14.7013 15.387 15.6975L20.7236 29.2879H14.1773L9.01892 16.587L6.70619 16.6938V29.2879H0.586918V0.898438H0.585938ZM6.88349 14.4535H7.23907C7.3576 14.4535 7.47612 14.4653 7.59465 14.4888C7.8317 14.5123 8.03937 14.524 8.21764 14.524H8.66237C10.4177 14.524 11.8165 13.9961 12.8607 12.9411C13.904 11.8861 14.4261 10.4569 14.4261 8.65455C14.4261 7.84838 14.3017 7.0951 14.0529 6.3957C13.804 5.6963 13.4534 5.09093 13.0037 4.58156C12.5532 4.0722 12.0134 3.6745 11.3845 3.38945C10.7557 3.1044 10.0739 2.96236 9.33924 2.96236H6.88447V14.4535H6.88349Z" fill="white"/>
<path d="M29.682 22.743C29.8005 24.4033 30.257 25.6777 31.0514 26.5672C31.8458 27.4566 32.9067 27.9013 34.2359 27.9013C35.5652 27.9013 36.6192 27.5938 37.5449 26.9766C38.4696 26.3605 39.3002 25.3398 40.0349 23.9175L40.4973 23.8822L40.2837 27.8671C39.3825 28.5077 38.3569 28.9759 37.206 29.2727C36.055 29.5695 34.6738 29.7174 33.0615 29.7174C31.5911 29.7174 30.2452 29.4618 29.0237 28.9524C27.8022 28.443 26.759 27.7133 25.8931 26.7641C25.0271 25.8159 24.3571 24.6894 23.883 23.3846C23.4079 22.0808 23.1719 20.6213 23.1719 19.0089C23.1719 17.7052 23.4089 16.4827 23.883 15.3444C24.3571 14.2062 25.0095 13.2159 25.8402 12.3734C26.6699 11.532 27.6426 10.8737 28.7573 10.3987C29.872 9.92455 31.0818 9.6875 32.3865 9.6875C34.758 9.6875 36.5849 10.2517 37.8652 11.3772C39.1455 12.5037 39.9879 14.2894 40.3915 16.7315L29.683 22.744L29.682 22.743ZM34.9833 17.1576C34.9833 15.0466 34.7933 13.5646 34.4142 12.7104C34.0351 11.8562 33.3583 11.4301 32.3865 11.4301C31.4148 11.4301 30.6733 11.8984 30.163 12.8358C29.6526 13.7732 29.3979 15.1544 29.3979 16.9803C29.3979 17.3124 29.4038 17.7453 29.4156 18.2792C29.4273 18.813 29.4449 19.436 29.4694 20.1472L34.9833 17.1586V17.1576Z" fill="white"/>
<path d="M30.1039 22.743C30.2224 24.4033 30.6789 25.6777 31.4733 26.5672C32.2677 27.4566 33.3286 27.9013 34.6578 27.9013C35.9871 27.9013 37.0411 27.5938 37.9668 26.9766C38.8915 26.3605 39.7221 25.3398 40.4568 23.9175L40.9191 23.8822L40.7056 27.8671C39.8044 28.5077 38.7788 28.9759 37.6278 29.2727C36.4769 29.5695 35.0957 29.7174 33.4833 29.7174C32.013 29.7174 30.6671 29.4618 29.4456 28.9524C28.2241 28.443 27.1809 27.7133 26.315 26.7641C25.449 25.8159 24.779 24.6894 24.3049 23.3846C23.8298 22.0808 23.5938 20.6213 23.5938 19.0089C23.5938 17.7052 23.8308 16.4827 24.3049 15.3444C24.779 14.2062 25.4314 13.2159 26.2621 12.3734C27.0917 11.532 28.0644 10.8737 29.1792 10.3987C30.2939 9.92455 31.5037 9.6875 32.8084 9.6875C35.1799 9.6875 37.0068 10.2517 38.2871 11.3772C39.5673 12.5037 40.4098 14.2894 40.8133 16.7315L30.1049 22.744L30.1039 22.743ZM35.4052 17.1576C35.4052 15.0466 35.2152 13.5646 34.8361 12.7104C34.457 11.8562 33.7801 11.4301 32.8084 11.4301C31.8367 11.4301 31.0952 11.8984 30.5848 12.8358C30.0745 13.7732 29.8198 15.1544 29.8198 16.9803C29.8198 17.3124 29.8257 17.7453 29.8374 18.2792C29.8492 18.813 29.8668 19.436 29.8913 20.1472L35.4052 17.1586V17.1576Z" fill="white"/>
<path d="M29.682 22.743C29.8005 24.4033 30.257 25.6777 31.0514 26.5672C31.8458 27.4566 32.9067 27.9013 34.2359 27.9013C35.5652 27.9013 36.6192 27.5938 37.5449 26.9766C38.4696 26.3605 39.3002 25.3398 40.0349 23.9175L40.4973 23.8822L40.2837 27.8671C39.3825 28.5077 38.3569 28.9759 37.206 29.2727C36.055 29.5695 34.6738 29.7174 33.0615 29.7174C31.5911 29.7174 30.2452 29.4618 29.0237 28.9524C27.8022 28.443 26.759 27.7133 25.8931 26.7641C25.0271 25.8159 24.3571 24.6894 23.883 23.3846C23.4079 22.0808 23.1719 20.6213 23.1719 19.0089C23.1719 17.7052 23.4089 16.4827 23.883 15.3444C24.3571 14.2062 25.0095 13.2159 25.8402 12.3734C26.6699 11.532 27.6426 10.8737 28.7573 10.3987C29.872 9.92455 31.0818 9.6875 32.3865 9.6875C34.758 9.6875 36.5849 10.2517 37.8652 11.3772C39.1455 12.5037 39.9879 14.2894 40.3915 16.7315L29.683 22.744L29.682 22.743ZM34.9833 17.1576C34.9833 15.0466 34.7933 13.5646 34.4142 12.7104C34.0351 11.8562 33.3583 11.4301 32.3865 11.4301C31.4148 11.4301 30.6733 11.8984 30.163 12.8358C29.6526 13.7732 29.3979 15.1544 29.3979 16.9803C29.3979 17.3124 29.4038 17.7453 29.4156 18.2792C29.4273 18.813 29.4449 19.436 29.4694 20.1472L34.9833 17.1586V17.1576Z" fill="white"/>
<path d="M45.7635 11.1096C46.4746 10.8245 47.0917 10.5934 47.6129 10.4161C48.134 10.2378 48.6326 10.1016 49.1077 10.0066C49.5818 9.9116 50.0617 9.84597 50.5486 9.81071C51.0344 9.77544 51.5977 9.75781 52.2383 9.75781C55.511 9.75781 57.812 10.4572 59.1403 11.857C59.6144 12.3076 59.9464 12.8708 60.1365 13.5467C60.3265 14.2226 60.4215 15.1659 60.4215 16.3757V24.9145C60.4215 25.6971 60.4862 26.4445 60.6174 27.1557C60.7477 27.8668 60.9671 28.579 61.2757 29.2901H55.7255L55.1212 27.6895C54.504 28.2351 53.7341 28.7093 52.8084 29.1128C51.8837 29.5164 50.863 29.7182 49.7493 29.7182C48.8716 29.7182 48.0595 29.5517 47.3121 29.2196C46.5647 28.8875 45.9124 28.4311 45.355 27.8502C44.7976 27.2693 44.3647 26.5875 44.0561 25.8039C43.7475 25.0212 43.5938 24.1671 43.5938 23.2424C43.5938 22.3177 43.7711 21.4341 44.1276 20.6632C44.4832 19.8933 44.9749 19.2281 45.6038 18.6708C46.2317 18.1134 46.985 17.6805 47.8627 17.3719C48.7403 17.0643 49.713 16.9095 50.7798 16.9095C51.8465 16.9095 52.6527 17.0761 53.2698 17.4081C53.8859 17.7402 54.3963 18.0723 54.7999 18.4043V14.7751C54.7999 13.5653 54.5383 12.7288 54.0172 12.2665C53.4951 11.8041 52.6301 11.5729 51.4204 11.5729C50.9218 11.5729 50.4781 11.6209 50.0862 11.715C49.6954 11.81 49.3036 11.9696 48.9127 12.1949C48.5219 12.4212 48.0948 12.7347 47.6315 13.1383C47.1691 13.5418 46.6176 14.063 45.977 14.7036L45.4794 14.7751L45.7644 11.1106L45.7635 11.1096ZM54.7284 20.146C54.3933 19.8139 53.9819 19.5475 53.4922 19.3457C53.0034 19.1449 52.5077 19.043 52.0062 19.043C51.1706 19.043 50.4967 19.4054 49.9834 20.1284C49.4701 20.8522 49.2135 21.8534 49.2135 23.1346C49.2135 24.4159 49.4819 25.3817 50.0187 26.1056C50.5555 26.8295 51.2901 27.1909 52.2207 27.1909C52.6742 27.1909 53.0798 27.0842 53.4383 26.8706C53.7958 26.6571 54.2258 26.2427 54.7274 25.6256V20.147L54.7284 20.146Z" fill="white"/>
<path d="M65.0469 3.21138L70.4863 0.507812H71.0594V29.2901H65.0469V3.21138Z" fill="white"/>
<path d="M77.3906 0.792969H83.6882V26.5151H94.3252V29.2902H77.3906V0.792969Z" fill="white"/>
<path d="M100.91 0.329104C101.859 0.329104 102.635 0.6024 103.241 1.14703C103.845 1.69264 104.148 2.39205 104.148 3.24622C104.148 5.12011 102.938 6.05656 100.518 6.05656C99.5693 6.05656 98.8052 5.80188 98.2234 5.29153C97.6415 4.78216 97.3516 4.09941 97.3516 3.24524C97.3516 2.39107 97.6484 1.71028 98.241 1.19993C98.8336 0.69056 99.6398 0.399632 100.661 0.328125H100.909L100.91 0.329104ZM97.7434 12.2826L103.045 9.75634H103.543V29.2877H97.7444V12.2816L97.7434 12.2826Z" fill="white"/>
<path d="M107.812 23.3488H108.098C108.24 23.5388 108.424 23.7818 108.649 24.0776C108.874 24.3744 109.1 24.6595 109.325 24.9318C109.55 25.2051 109.828 25.5548 110.161 25.9809C110.754 26.5265 111.543 26.983 112.527 27.3503C113.511 27.7186 114.454 27.9018 115.355 27.9018C116.256 27.9018 117.015 27.6412 117.632 27.1191C118.248 26.598 118.556 25.9574 118.556 25.1982C118.556 24.5821 118.325 24.0541 117.863 23.6152C117.4 23.1764 116.6 22.7562 115.462 22.3526C114.134 21.854 113.007 21.3446 112.081 20.8225C111.157 20.3014 110.398 19.7617 109.805 19.2033C109.212 18.646 108.778 18.0533 108.506 17.4245C108.233 16.7966 108.097 16.103 108.097 15.3429C108.097 14.5132 108.286 13.7423 108.666 13.0302C109.045 12.319 109.573 11.7078 110.249 11.1974C110.925 10.6881 111.713 10.2845 112.614 9.98769C113.515 9.69088 114.5 9.54297 115.568 9.54297C116.018 9.54297 116.451 9.5606 116.867 9.59586C117.281 9.63113 117.721 9.69676 118.183 9.79177C118.645 9.88679 119.156 10.023 119.713 10.2012C120.27 10.3795 120.917 10.5989 121.652 10.8595V15.0579L121.26 15.1294C120.287 13.7306 119.357 12.7461 118.467 12.176C117.578 11.6069 116.54 11.3218 115.354 11.3218C114.476 11.3218 113.776 11.5295 113.255 11.9448C112.733 12.3602 112.472 12.9117 112.472 13.5993C112.472 14.1214 112.626 14.5416 112.935 14.862C113.242 15.1823 113.741 15.4967 114.429 15.8043L117.525 16.9788C119.375 17.6899 120.732 18.5382 121.599 19.5227C122.464 20.5071 122.898 21.6875 122.898 23.0628C122.898 24.0355 122.708 24.9308 122.329 25.7487C121.949 26.5666 121.409 27.2729 120.709 27.8655C120.01 28.4582 119.185 28.9146 118.237 29.235C117.288 29.5553 116.245 29.7149 115.106 29.7149C113.635 29.7149 112.343 29.5484 111.228 29.2163C110.113 28.8843 108.975 28.4689 107.812 27.9713V23.3469V23.3488Z" fill="white"/>
<path d="M132.72 3.17676V10.0434H136.171V12.3199H132.898V27.3336C132.97 27.4051 133.087 27.458 133.254 27.4942C133.419 27.5295 133.586 27.5471 133.753 27.5471C133.943 27.5471 134.049 27.5353 134.073 27.5118C134.286 27.4648 134.494 27.3639 134.696 27.2092C134.898 27.0554 135.081 26.883 135.247 26.6929C135.413 26.5029 135.55 26.3138 135.657 26.1238C135.764 25.9338 135.816 25.7682 135.816 25.6252H136.492V29.2897C136.397 29.2897 135.982 29.3612 135.247 29.5033C134.512 29.6453 133.658 29.7168 132.686 29.7168C131.975 29.7168 131.286 29.5679 130.623 29.2721C129.959 28.9753 129.372 28.5786 128.862 28.08C128.351 27.5814 127.943 27.0074 127.634 26.354C127.326 25.7016 127.172 25.0198 127.172 24.3087V5.70205L132.722 3.17578L132.72 3.17676Z" fill="white"/>
</svg>
