<svg width="64" height="63" viewBox="0 0 64 63" fill="none" xmlns="http://www.w3.org/2000/svg">
<g id="Group">
<g id="Group_2">
<g id="Group_3">
<path id="Vector" d="M63.4998 31.469C63.5077 32.1908 63.237 32.9164 62.684 33.4695L33.9675 62.182C32.881 63.2724 31.1159 63.2724 30.0294 62.182L1.31295 33.4695C0.752035 32.9086 0.481381 32.1672 0.500994 31.4298C0.516684 30.7394 0.79126 30.053 1.31295 29.5274L30.0294 0.814894C31.1159 -0.271631 32.881 -0.271631 33.9675 0.814894L62.684 29.5274C63.2174 30.0648 63.492 30.7669 63.4998 31.469Z" fill="url(#paint0_linear_3265_103368)"/>
<path id="Vector_2" opacity="0.26" d="M63.5008 31.469C45.7987 31.4259 12.2537 31.3553 0.501953 31.4298C0.517643 30.7394 0.792219 30.053 1.31391 29.5274L30.0303 0.814894C31.1169 -0.271631 32.882 -0.271631 33.9685 0.814894L62.6849 29.5274C63.2184 30.0648 63.4929 30.7669 63.5008 31.469Z" fill="#8FF4FF"/>
<path id="Vector_3" d="M55.317 33.8337L50.4845 38.6662L34.3318 54.819C33.6885 55.4662 32.8412 55.7878 31.9979 55.7878C31.1546 55.7878 30.3073 55.4662 29.664 54.819L13.5113 38.6662L8.67881 33.8337C7.38831 32.5472 7.38831 30.4526 8.67881 29.166L29.664 8.18075C30.0445 7.79635 30.4995 7.52962 30.9781 7.37665C31.641 7.16091 32.3549 7.16091 33.0177 7.37665C33.4963 7.52962 33.9513 7.79635 34.3318 8.18075L55.317 29.166C56.6075 30.4526 56.6075 32.5472 55.317 33.8337Z" fill="#B7FBFF" fill-opacity="0.7"/>
<path id="Vector_4" d="M50.4849 9.80299V38.6685L34.3322 54.8212C33.6889 55.4684 32.8417 55.7901 31.9983 55.7901C31.155 55.7901 30.3077 55.4684 29.6645 54.8212L13.5117 38.6685V9.80299C13.5117 9.41074 13.6058 9.04203 13.7706 8.71254C14.1707 7.92021 14.9905 7.37891 15.9358 7.37891H48.0609C49.3984 7.37891 50.4849 8.46151 50.4849 9.80299Z" fill="#10C8F0"/>
<path id="Vector_5" opacity="0.21" d="M50.4839 9.80299V38.6685L47.1694 41.983L13.7695 8.71254C14.1696 7.92021 14.9894 7.37891 15.9347 7.37891H48.0598C49.3974 7.37891 50.4839 8.46151 50.4839 9.80299Z" fill="#8FF4FF"/>
<path id="Vector_6" d="M43.8107 24.3331H20.1852C19.1834 24.3331 18.3711 23.5208 18.3711 22.519V13.4118C18.3711 12.41 19.1834 11.5977 20.1852 11.5977H43.8107C44.8125 11.5977 45.6248 12.41 45.6248 13.4118V22.519C45.6248 23.5212 44.8129 24.3331 43.8107 24.3331Z" fill="white"/>
<g id="Group_4">
<path id="Vector_7" d="M23.6604 37.2972H18.7145C17.7127 37.2972 16.9004 36.4848 16.9004 35.483V32.7126C16.9004 31.7108 17.7127 30.8984 18.7145 30.8984H23.6604C24.6622 30.8984 25.4745 31.7108 25.4745 32.7126V35.483C25.4745 36.4848 24.6622 37.2972 23.6604 37.2972Z" fill="white"/>
<path id="Vector_8" d="M34.4709 37.2972H29.5251C28.5233 37.2972 27.7109 36.4848 27.7109 35.483V32.7126C27.7109 31.7108 28.5233 30.8984 29.5251 30.8984H34.4709C35.4727 30.8984 36.2851 31.7108 36.2851 32.7126V35.483C36.2851 36.4848 35.4727 37.2972 34.4709 37.2972Z" fill="white"/>
<path id="Vector_9" d="M45.2834 37.2972H40.3376C39.3358 37.2972 38.5234 36.4848 38.5234 35.483V32.7126C38.5234 31.7108 39.3358 30.8984 40.3376 30.8984H45.2834C46.2852 30.8984 47.0976 31.7108 47.0976 32.7126V35.483C47.0976 36.4848 46.2852 37.2972 45.2834 37.2972Z" fill="white"/>
<path id="Vector_10" d="M25.4756 42.3815V45.6234C25.4756 46.497 24.7692 47.2034 23.8956 47.2034H22.0121L16.9238 42.1152C17.0501 41.3711 17.7017 40.8047 18.4799 40.8047H23.8956C24.7692 40.8051 25.4756 41.5115 25.4756 42.3815Z" fill="white"/>
<path id="Vector_11" d="M34.4709 47.2034H29.5251C28.5233 47.2034 27.7109 46.3911 27.7109 45.3893V42.6188C27.7109 41.617 28.5233 40.8047 29.5251 40.8047H34.4709C35.4727 40.8047 36.2851 41.617 36.2851 42.6188V45.3893C36.2851 46.3911 35.4727 47.2034 34.4709 47.2034Z" fill="white"/>
<path id="Vector_12" d="M47.0733 42.1148L41.985 47.203H40.1015C39.2279 47.203 38.5215 46.4966 38.5215 45.6231V42.3811C38.5215 41.5111 39.2279 40.8047 40.1015 40.8047H45.5172C46.2951 40.8043 46.947 41.3707 47.0733 42.1148Z" fill="white"/>
<path id="Vector_13" d="M36.2854 52.1972V52.6953L34.0296 54.9511C33.4699 55.5144 32.7329 55.7941 31.9994 55.7941C31.2655 55.7941 30.5284 55.5144 29.9687 54.9511L27.7129 52.6953V52.1972C27.7129 51.3236 28.4193 50.6172 29.2893 50.6172H34.7086C35.579 50.6172 36.2854 51.3236 36.2854 52.1972Z" fill="white"/>
</g>
</g>
</g>
</g>
<defs>
<linearGradient id="paint0_linear_3265_103368" x1="-19.271" y1="31.8293" x2="86.4039" y2="31.8293" gradientUnits="userSpaceOnUse">
<stop stop-color="#10C8F0"/>
<stop offset="1" stop-color="#2D76E0"/>
</linearGradient>
</defs>
</svg>
