<svg width="50" height="51" viewBox="0 0 50 51" fill="none" xmlns="http://www.w3.org/2000/svg">
<g id="logo">
<path id="path" d="M44.1893 10.2109C45.3611 11.7464 46.3532 13.4145 47.1453 15.1818L24.6744 31.9693L15.2832 26.0031V18.8255L24.6744 24.7917L44.1893 10.2109Z" fill="url(#paint0_linear_4543_82749)"/>
<path id="path_2" d="M5.69909 25.4967C5.69909 25.1746 5.70683 24.8547 5.72234 24.5365L0.030996 24.2539C0.0116246 24.6662 6.87771e-06 25.0824 6.87771e-06 25.5025C-0.00241463 28.7847 0.63461 32.035 1.87455 35.067C3.11449 38.0992 4.93293 40.8533 7.22556 43.1714L11.2626 39.0821C9.49778 37.3008 8.09777 35.1835 7.143 32.8521C6.18823 30.5206 5.69753 28.0209 5.69909 25.4967Z" fill="url(#paint1_linear_4543_82749)"/>
<path id="path_3" d="M24.6697 6.27577C24.9873 6.27577 25.303 6.28756 25.6168 6.30326L25.9016 0.533372C25.4936 0.51374 25.0828 0.503925 24.6697 0.503925C21.4294 0.49992 18.2206 1.14459 15.227 2.40091C12.2335 3.65723 9.51429 5.50046 7.22559 7.82476L11.2626 11.9161C13.0203 10.127 15.1097 8.70761 17.4106 7.73965C19.7114 6.77169 22.1783 6.27418 24.6697 6.27577Z" fill="url(#paint2_linear_4543_82749)"/>
<path id="path_4" d="M24.6704 44.7242C24.3528 44.7242 24.037 44.7242 23.7213 44.6987L23.4365 50.4666C23.8459 50.4876 24.2572 50.4981 24.6704 50.4981C27.9092 50.5015 31.1166 49.8564 34.1085 48.5997C37.1005 47.3431 39.8179 45.4995 42.1049 43.1753L38.0756 39.0859C36.3175 40.8741 34.2284 42.2927 31.928 43.2603C29.6276 44.2279 27.1611 44.7255 24.6704 44.7242Z" fill="url(#paint3_linear_4543_82749)"/>
<path id="path_5" d="M35.362 9.62899L40.1584 6.04612C35.7745 2.44845 30.3022 0.490013 24.6611 0.500038V6.27385C28.481 6.26905 32.2122 7.43896 35.362 9.62899Z" fill="url(#paint4_linear_4543_82749)"/>
<path id="path_6" d="M49.338 25.4996C49.3411 23.9976 49.2115 22.4982 48.9505 21.0195L43.6409 24.9852C43.6409 25.1561 43.6409 25.3269 43.6409 25.4996C43.6423 28.1858 43.0866 30.8424 42.0102 33.2971C40.9336 35.7517 39.36 37.9497 37.3916 39.7486L41.2214 44.0383C43.7804 41.6969 45.8254 38.8367 47.2236 35.6432C48.622 32.4494 49.3423 28.9935 49.338 25.4996Z" fill="url(#paint5_linear_4543_82749)"/>
<path id="path_7" d="M24.6694 44.724C22.0187 44.7249 19.3973 44.1616 16.9749 43.0706C14.5526 41.9797 12.3834 40.3852 10.6077 38.3906L6.37695 42.2699C8.68692 44.8638 11.509 46.9366 14.6603 48.3541C17.8116 49.7715 21.2217 50.5018 24.6694 50.4977V44.724Z" fill="url(#paint6_linear_4543_82749)"/>
<path id="path_8" d="M11.9483 11.2467L8.12053 6.95703C5.56073 9.29792 3.51502 12.158 2.11606 15.3517C0.717122 18.5453 -0.003814 22.0014 1.5174e-05 25.4956H5.6991C5.69792 22.8096 6.25362 20.153 7.33015 17.6983C8.40669 15.2438 9.98006 13.0457 11.9483 11.2467Z" fill="url(#paint7_linear_4543_82749)"/>
</g>
<defs>
<linearGradient id="paint0_linear_4543_82749" x1="5.28403" y1="21.2039" x2="58.7289" y2="21.2039" gradientUnits="userSpaceOnUse">
<stop offset="0.639111" stop-color="#10C8F0"/>
<stop offset="1" stop-color="#2D76E0"/>
</linearGradient>
<linearGradient id="paint1_linear_4543_82749" x1="-3.53449" y1="33.8116" x2="15.3571" y2="33.8116" gradientUnits="userSpaceOnUse">
<stop stop-color="#10C8F0"/>
<stop offset="1" stop-color="#2D76E0"/>
</linearGradient>
<linearGradient id="paint2_linear_4543_82749" x1="1.36458" y1="6.26966" x2="32.6913" y2="6.26966" gradientUnits="userSpaceOnUse">
<stop stop-color="#10C8F0"/>
<stop offset="1" stop-color="#2D76E0"/>
</linearGradient>
<linearGradient id="paint3_linear_4543_82749" x1="17.5779" y1="44.8517" x2="48.8918" y2="44.8517" gradientUnits="userSpaceOnUse">
<stop stop-color="#10C8F0"/>
<stop offset="1" stop-color="#2D76E0"/>
</linearGradient>
<linearGradient id="paint4_linear_4543_82749" x1="19.7977" y1="5.11222" x2="45.7924" y2="5.11222" gradientUnits="userSpaceOnUse">
<stop stop-color="#10C8F0"/>
<stop offset="1" stop-color="#2D76E0"/>
</linearGradient>
<linearGradient id="paint5_linear_4543_82749" x1="33.6425" y1="32.6493" x2="53.6813" y2="32.6493" gradientUnits="userSpaceOnUse">
<stop stop-color="#10C8F0"/>
<stop offset="1" stop-color="#2D76E0"/>
</linearGradient>
<linearGradient id="paint6_linear_4543_82749" x1="0.636291" y1="44.5075" x2="31.3197" y2="44.5075" gradientUnits="userSpaceOnUse">
<stop stop-color="#10C8F0"/>
<stop offset="1" stop-color="#2D76E0"/>
</linearGradient>
<linearGradient id="paint7_linear_4543_82749" x1="-3.7497" y1="16.3232" x2="16.2922" y2="16.3232" gradientUnits="userSpaceOnUse">
<stop stop-color="#10C8F0"/>
<stop offset="1" stop-color="#2D76E0"/>
</linearGradient>
</defs>
</svg>
