<svg width="60" height="54" viewBox="0 0 60 54" fill="none" xmlns="http://www.w3.org/2000/svg">
<path d="M9.3206 17.6302C12.1312 15.4462 14.4628 16.9524 17.5746 20.5553C17.924 20.9619 18.394 20.486 18.6621 20.254C18.9271 20.019 23.0331 16.3228 23.2349 16.1541C23.4337 15.9764 23.6747 15.645 23.3584 15.2745C22.5965 14.3321 21.8503 13.377 21.1202 12.4097C15.6738 5.28539 36.0195 0.4535 32.8957 0.37819C31.3051 0.336017 24.9248 0.260707 23.9699 0.366141C20.105 0.772815 15.252 4.38468 12.809 6.06862C9.61281 8.25562 8.41989 9.5389 8.22409 9.71663C7.32037 10.5059 8.07949 12.3284 6.44075 13.7653C4.70862 15.2805 3.62716 14.1328 2.62403 15.0124C2.12699 15.4522 0.735258 16.4945 0.337621 16.841C-0.0630283 17.1934 -0.135326 17.7869 0.274361 18.2598C0.274361 18.2598 4.08204 22.4651 4.40135 22.8387C4.71765 23.2062 5.5792 23.5255 6.10938 23.0525C6.64258 22.5826 8.01322 21.3867 8.24216 21.1758C8.47713 20.977 8.09154 18.5821 9.3206 17.6302ZM26.5154 19.1876C26.1539 18.7689 25.7051 18.7568 25.3195 19.1003L20.9997 22.8718C20.8329 23.0231 20.7313 23.2332 20.7161 23.4579C20.7009 23.6826 20.7734 23.9044 20.9183 24.0767L45.9032 52.5108C46.4876 53.1826 47.4998 53.2519 48.1655 52.6705L51.0875 50.2214C51.4092 49.9382 51.606 49.5394 51.6354 49.1119C51.6647 48.6843 51.5241 48.2625 51.2442 47.938L26.5154 19.1876ZM59.8295 7.08681C59.6066 5.59868 58.8354 5.90896 58.4348 6.53855C58.0341 7.17417 56.2629 9.85822 55.5339 11.0752C54.8109 12.2802 53.0275 14.663 49.7079 12.3103C46.2496 9.86725 47.4516 8.16223 48.0541 7.01451C48.6595 5.86076 50.5182 2.62544 50.7863 2.22479C51.0544 1.81812 50.7411 0.637257 49.6687 1.13129C48.5933 1.62532 42.0684 4.219 41.1647 7.93932C40.2399 11.7229 41.9389 15.1058 38.6042 18.4646L34.5585 22.682L38.6222 27.3994L43.6047 22.67C44.7916 21.477 47.3281 20.3173 49.6235 20.8414C54.5428 21.953 57.2268 20.1064 58.8445 17.0518C60.2965 14.3226 60.0555 8.57493 59.8295 7.08681ZM8.12769 48.2452C7.82637 48.5488 7.65728 48.9592 7.65728 49.3869C7.65728 49.8147 7.82637 50.2251 8.12769 50.5286L10.9925 53.3302C11.6191 53.9598 12.6132 53.6947 13.2397 53.0651L28.0216 38.5333L23.4939 33.37L8.12769 48.2452Z" fill="url(#paint0_linear_5617_70086)"/>
<defs>
<linearGradient id="paint0_linear_5617_70086" x1="30" y1="0.3125" x2="30" y2="53.6902" gradientUnits="userSpaceOnUse">
<stop stop-color="#2E6AC0"/>
<stop offset="1" stop-color="#19B9C4"/>
</linearGradient>
</defs>
</svg>
