<svg width="73" height="73" viewBox="0 0 73 73" fill="none" xmlns="http://www.w3.org/2000/svg">
<rect width="73" height="72.0852" rx="36.0426" fill="#40C6FF" fill-opacity="0.05"/>
<path d="M31.3333 21.8333V26.0833" stroke="#40C6FF" stroke-width="2.125" stroke-miterlimit="10" stroke-linecap="round" stroke-linejoin="round"/>
<path d="M42.6667 21.8333V26.0833" stroke="#40C6FF" stroke-width="2.125" stroke-miterlimit="10" stroke-linecap="round" stroke-linejoin="round"/>
<path d="M42.6667 23.9583C47.3842 24.2133 49.75 26.0125 49.75 32.6708V41.4258C49.75 47.2625 48.3333 50.1808 41.25 50.1808H32.75C25.6667 50.1808 24.25 47.2625 24.25 41.4258V32.6708C24.25 26.0125 26.6158 24.2275 31.3333 23.9583H42.6667Z" stroke="#40C6FF" stroke-width="2.125" stroke-miterlimit="10" stroke-linecap="round" stroke-linejoin="round"/>
<path opacity="0.4" d="M49.3958 43.9333H24.6042" stroke="#40C6FF" stroke-width="2.125" stroke-miterlimit="10" stroke-linecap="round" stroke-linejoin="round"/>
<path opacity="0.4" d="M37 30.6875C35.2575 30.6875 33.7842 31.6367 33.7842 33.4783C33.7842 34.3567 34.195 35.0225 34.8183 35.4475C33.9542 35.9575 33.4583 36.7792 33.4583 37.7425C33.4583 39.4992 34.8042 40.59 37 40.59C39.1817 40.59 40.5417 39.4992 40.5417 37.7425C40.5417 36.7792 40.0458 35.9433 39.1675 35.4475C39.805 35.0083 40.2017 34.3567 40.2017 33.4783C40.2017 31.6367 38.7425 30.6875 37 30.6875ZM37 34.7108C36.2633 34.7108 35.725 34.2717 35.725 33.5775C35.725 32.8692 36.2633 32.4583 37 32.4583C37.7367 32.4583 38.275 32.8692 38.275 33.5775C38.275 34.2717 37.7367 34.7108 37 34.7108ZM37 38.8333C36.065 38.8333 35.385 38.3658 35.385 37.5158C35.385 36.6658 36.065 36.2125 37 36.2125C37.935 36.2125 38.615 36.68 38.615 37.5158C38.615 38.3658 37.935 38.8333 37 38.8333Z" fill="#292D32"/>
</svg>
