<svg width="90" height="85" viewBox="40 40 110 70" fill="none" xmlns="http://www.w3.org/2000/svg">
<path d="M115.9 26.4H110.5V23.7C110.5 22.9839 110.216 22.2972 109.709 21.7908C109.203 21.2845 108.516 21 107.8 21C107.084 21 106.397 21.2845 105.891 21.7908C105.384 22.2972 105.1 22.9839 105.1 23.7V26.4H88.9V23.7C88.9 22.9839 88.6155 22.2972 88.1092 21.7908C87.6028 21.2845 86.9161 21 86.2 21C85.4839 21 84.7972 21.2845 84.2908 21.7908C83.7845 22.2972 83.5 22.9839 83.5 23.7V26.4H78.1C75.9517 26.4 73.8915 27.2534 72.3724 28.7724C70.8534 30.2915 70 32.3517 70 34.5V66.9C70 69.0483 70.8534 71.1085 72.3724 72.6276C73.8915 74.1466 75.9517 75 78.1 75H115.9C118.048 75 120.109 74.1466 121.628 72.6276C123.147 71.1085 124 69.0483 124 66.9V34.5C124 32.3517 123.147 30.2915 121.628 28.7724C120.109 27.2534 118.048 26.4 115.9 26.4ZM118.6 66.9C118.6 67.6161 118.316 68.3028 117.809 68.8092C117.303 69.3155 116.616 69.6 115.9 69.6H78.1C77.3839 69.6 76.6972 69.3155 76.1908 68.8092C75.6845 68.3028 75.4 67.6161 75.4 66.9V48H118.6V66.9ZM118.6 42.6H75.4V34.5C75.4 33.7839 75.6845 33.0972 76.1908 32.5908C76.6972 32.0845 77.3839 31.8 78.1 31.8H83.5V34.5C83.5 35.2161 83.7845 35.9028 84.2908 36.4092C84.7972 36.9155 85.4839 37.2 86.2 37.2C86.9161 37.2 87.6028 36.9155 88.1092 36.4092C88.6155 35.9028 88.9 35.2161 88.9 34.5V31.8H105.1V34.5C105.1 35.2161 105.384 35.9028 105.891 36.4092C106.397 36.9155 107.084 37.2 107.8 37.2C108.516 37.2 109.203 36.9155 109.709 36.4092C110.216 35.9028 110.5 35.2161 110.5 34.5V31.8H115.9C116.616 31.8 117.303 32.0845 117.809 32.5908C118.316 33.0972 118.6 33.7839 118.6 34.5V42.6Z" fill="url(#paint0_linear_1_2)"/>
<path d="M129 64.5C129 55.9396 122.06 49 113.5 49C104.94 49 98 55.9396 98 64.5C98 73.0604 104.94 80 113.5 80C122.06 80 129 73.0604 129 64.5Z" fill="white"/>
<path fill-rule="evenodd" clip-rule="evenodd" d="M111.994 57.91L104.689 65.2135C104.409 65.4932 104.251 65.8721 104.25 66.2676C104.248 66.6632 104.403 67.0434 104.68 67.3255L111.235 74.0005C111.514 74.2841 111.894 74.4453 112.292 74.4487C112.689 74.4521 113.072 74.2973 113.356 74.0185L120.796 66.7165C121.009 66.5072 121.179 66.2575 121.295 65.9819C121.411 65.7064 121.471 65.4105 121.471 65.1115V58.75C121.471 58.3522 121.313 57.9706 121.031 57.6893C120.75 57.408 120.369 57.25 119.971 57.25H113.585C113.29 57.2501 112.997 57.3084 112.724 57.4216C112.451 57.5349 112.203 57.7008 111.994 57.91ZM122.374 68.323C122.8 67.904 123.139 67.4042 123.371 66.8528C123.602 66.3014 123.721 65.7095 123.721 65.1115V58.75C123.721 57.7554 123.326 56.8016 122.622 56.0983C121.919 55.3951 120.965 55 119.971 55H113.585C112.994 54.9999 112.409 55.1163 111.863 55.3426C111.316 55.5688 110.82 55.9004 110.402 56.3185L103.097 63.6235C102.399 64.3228 102.004 65.2696 102 66.2581C101.996 67.2466 102.382 68.1968 103.075 68.902L109.63 75.577C110.327 76.2864 111.277 76.69 112.271 76.699C113.265 76.708 114.223 76.3217 114.932 75.625L122.374 68.323ZM116.794 60.337C116.321 60.0307 115.785 59.8358 115.226 59.767C114.784 59.7155 114.335 59.7658 113.915 59.914C113.495 60.0621 113.115 60.3043 112.802 60.622C111.992 61.432 111.962 62.467 112.147 63.2725C112.325 64.0615 112.738 64.816 113.102 65.3875C113.483 65.9875 113.792 66.4855 113.926 66.937C114.035 67.3105 113.98 67.465 113.818 67.627C113.71 67.735 113.545 67.813 113.192 67.726C112.813 67.63 112.339 67.3555 111.91 66.9265C111.554 66.5633 111.31 66.1057 111.206 65.608C111.103 65.1145 111.172 64.753 111.257 64.588C111.329 64.4567 111.374 64.3125 111.389 64.1637C111.404 64.0149 111.39 63.8645 111.346 63.7214C111.303 63.5783 111.231 63.4453 111.135 63.3302C111.04 63.2152 110.922 63.1203 110.79 63.0512C110.657 62.982 110.512 62.9401 110.363 62.9277C110.214 62.9153 110.064 62.9328 109.922 62.9791C109.779 63.0254 109.648 63.0996 109.535 63.1974C109.421 63.2952 109.329 63.4145 109.262 63.5485C108.868 64.3075 108.829 65.236 109.004 66.0715C109.109 66.5695 109.298 67.0765 109.577 67.5535L109.198 67.9315C108.993 68.1436 108.879 68.4277 108.882 68.7227C108.884 69.0177 109.002 69.2999 109.211 69.5086C109.419 69.7172 109.701 69.8357 109.996 69.8384C110.291 69.8411 110.576 69.7278 110.788 69.523L111.121 69.1915C111.582 69.521 112.1 69.764 112.648 69.9085C113.548 70.1335 114.599 70.027 115.408 69.2185C116.326 68.3005 116.347 67.1995 116.084 66.304C115.855 65.521 115.376 64.771 115.043 64.249L115 64.18C114.68 63.679 114.433 63.184 114.34 62.7745C114.25 62.383 114.337 62.269 114.394 62.2135C114.468 62.1338 114.56 62.0732 114.662 62.0366C114.764 62.0001 114.874 61.9887 114.982 62.0035C115.24 62.0335 115.649 62.1925 116.147 62.689C116.642 63.184 116.818 63.589 116.87 63.874C116.919 64.1347 116.884 64.4042 116.77 64.6435C116.703 64.7783 116.664 64.9251 116.655 65.0753C116.646 65.2255 116.667 65.3759 116.717 65.5177C116.767 65.6596 116.845 65.7899 116.947 65.9011C117.048 66.0122 117.171 66.1019 117.307 66.1648C117.444 66.2277 117.592 66.2626 117.742 66.2673C117.893 66.2721 118.042 66.2466 118.183 66.1925C118.323 66.1383 118.451 66.0566 118.559 65.9521C118.668 65.8475 118.754 65.7224 118.813 65.584C119.083 64.996 119.234 64.2655 119.081 63.454C118.97 62.8948 118.742 62.3654 118.412 61.9L118.744 61.5685C118.854 61.4655 118.943 61.3413 119.004 61.2033C119.066 61.0653 119.099 60.9163 119.102 60.7653C119.104 60.6142 119.077 60.4642 119.02 60.3241C118.963 60.184 118.879 60.0568 118.772 59.9499C118.666 59.8431 118.538 59.7589 118.398 59.7023C118.258 59.6457 118.108 59.6179 117.957 59.6206C117.806 59.6233 117.657 59.6563 117.519 59.7178C117.381 59.7793 117.257 59.868 117.154 59.9785L116.794 60.337Z" fill="url(#paint1_linear_1_2)"/>
<defs>
<linearGradient id="paint0_linear_1_2" x1="53.0534" y1="48.2823" x2="143.632" y2="48.2823" gradientUnits="userSpaceOnUse">
<stop offset="0.373486" stop-color="#10C8F0"/>
<stop offset="1" stop-color="#2D76E0"/>
</linearGradient>
<linearGradient id="paint1_linear_1_2" x1="95.1834" y1="65.963" x2="131.617" y2="65.963" gradientUnits="userSpaceOnUse">
<stop offset="0.373486" stop-color="#10C8F0"/>
<stop offset="1" stop-color="#2D76E0"/>
</linearGradient>
</defs>
</svg>
