<svg width="48" height="49" viewBox="0 0 48 49" fill="none" xmlns="http://www.w3.org/2000/svg">
<path d="M23 31.5C21.4087 31.5 19.8826 30.8679 18.7574 29.7426C17.6321 28.6174 17 27.0913 17 25.5V21.5M23 31.5C24.5913 31.5 26.1174 30.8679 27.2426 29.7426C28.3679 28.6174 29 27.0913 29 25.5V21.5M23 31.5V21.5M17 21.5C17 19.9087 17.6321 18.3826 18.7574 17.2574C19.8826 16.1321 21.4087 15.5 23 15.5C24.5913 15.5 26.1174 16.1321 27.2426 17.2574C28.3679 18.3826 29 19.9087 29 21.5M17 21.5H29M29.144 23.5H32M14 23.5H17M29 28.5L31 29.5M17 28.5L15 29.5M29 18.5L31 17.5M17 18.5L15 17.5M37 37.5L44 44.5" stroke="url(#paint0_linear_1013_99339)" stroke-width="3" stroke-linecap="round"/>
<path d="M13.5035 7.04354C17.4957 4.73978 22.1892 3.96578 26.7097 4.86571C31.2302 5.76565 35.2695 8.27815 38.075 11.9352C40.8805 15.5922 42.261 20.1444 41.9593 24.7437C41.6576 29.343 39.6943 33.6759 36.4351 36.9351C33.1759 40.1943 28.843 42.1576 24.2437 42.4593C19.6444 42.761 15.0922 41.3805 11.4352 38.575C7.77815 35.7695 5.26565 31.7302 4.36571 27.2097C3.46578 22.6892 4.23978 17.9957 6.54354 14.0035" stroke="url(#paint1_linear_1013_99339)" stroke-width="3" stroke-linecap="round"/>
<defs>
<linearGradient id="paint0_linear_1013_99339" x1="4.58522" y1="30.1516" x2="54.9066" y2="30.1516" gradientUnits="userSpaceOnUse">
<stop stop-color="#10C8F0"/>
<stop offset="1" stop-color="#2D76E0"/>
</linearGradient>
<linearGradient id="paint1_linear_1013_99339" x1="-7.92541" y1="23.6987" x2="55.8151" y2="23.6987" gradientUnits="userSpaceOnUse">
<stop stop-color="#10C8F0"/>
<stop offset="1" stop-color="#2D76E0"/>
</linearGradient>
</defs>
</svg>
