<svg width="56" height="52" viewBox="0 0 56 52" fill="none" xmlns="http://www.w3.org/2000/svg">
<path d="M2.92548 0.813477C1.89423 1.13574 0.991886 2.0918 0.734073 3.13379C0.658878 3.47754 0.626651 8.56934 0.648135 20.8584L0.680362 38.0996L0.938175 38.626C1.27118 39.3027 1.84052 39.8721 2.51728 40.2051L3.04364 40.4629L11.9811 40.4951L20.9294 40.5166L19.5007 43.3633L18.0827 46.21H15.9558C13.528 46.21 13.1843 46.2959 12.4968 47.1016C12.0134 47.6602 11.8737 48.1221 11.9274 48.9492C11.9811 49.8301 12.4001 50.5283 13.1306 50.9902L13.6569 51.3125H28.0192H42.3815L42.9079 50.9902C43.6384 50.5283 44.0573 49.8301 44.111 48.9492C44.1647 48.1221 44.0251 47.6602 43.5417 47.1016C42.8542 46.2959 42.5104 46.21 40.0827 46.21H37.9558L36.5378 43.3633L35.1091 40.5166L44.0573 40.4951C52.9411 40.4629 52.9948 40.4629 53.489 40.2373C54.1335 39.9365 54.7673 39.3027 55.1003 38.626L55.3581 38.0996V20.5898V3.08008L55.1003 2.55371C54.7673 1.87695 54.1335 1.24316 53.489 0.942383L52.9948 0.716797L28.1804 0.695312C8.18915 0.68457 3.27997 0.706055 2.92548 0.813477ZM52.9411 2.51074C53.1345 2.65039 53.403 2.89746 53.5212 3.05859L53.7468 3.35938V20.5898V37.8203L53.5212 38.1211C53.403 38.2822 53.1345 38.5293 52.9411 38.6689L52.5866 38.9053H28.0192H3.45185L3.09735 38.6582C2.904 38.5293 2.63544 38.2822 2.51728 38.1211L2.29169 37.8203V20.5898V3.35938L2.51728 3.05859C2.63544 2.89746 2.904 2.65039 3.09735 2.51074L3.45185 2.27441H28.0192H52.5866L52.9411 2.51074ZM34.6901 43.2666C35.4206 44.7812 36.0436 46.0596 36.0544 46.1133C36.0759 46.167 32.7243 46.21 28.0192 46.21C23.2175 46.21 19.9626 46.167 19.9841 46.1133C20.0056 46.0596 20.6179 44.7812 21.3483 43.2666L22.6804 40.5166H28.0192H33.3581L34.6901 43.2666ZM42.2526 48.0898C42.5534 48.3799 42.6179 49.0352 42.3815 49.3359C42.0593 49.7549 42.2311 49.7549 28.0192 49.7549C13.8073 49.7549 13.9792 49.7549 13.6569 49.3359C13.4206 49.0352 13.4851 48.3799 13.7858 48.0898L14.0436 47.8213H28.0192H41.9948L42.2526 48.0898Z" fill="url(#paint0_linear_7073_83523)"/>
<path d="M4.32324 4.01465C4.19434 4.06836 4.0332 4.24023 3.96875 4.37988C3.79688 4.75586 3.79688 36.4238 3.96875 36.7891C4.0332 36.9395 4.20508 37.1113 4.35547 37.1758C4.7207 37.3477 51.3203 37.3477 51.6855 37.1758C51.8359 37.1113 52.0078 36.9395 52.0723 36.7891C52.1582 36.6064 52.1904 32.0303 52.1904 20.5254V4.50879L51.8789 4.19727L51.5674 3.88574L28.0527 3.89648C12.1006 3.89648 4.47363 3.93945 4.32324 4.01465ZM50.5791 20.5898V35.6826H28.0205H5.46191V20.5898V5.49707H28.0205H50.5791V20.5898Z" fill="url(#paint1_linear_7073_83523)"/>
<path d="M17.439 6.06835C16.8589 6.39061 16.4936 7.08885 16.5581 7.75487C16.5796 8.02342 16.6226 8.29198 16.644 8.34569C16.6655 8.41014 15.6128 9.63475 14.3022 11.0742L11.9175 13.6846L10.2739 14.6299C8.22217 15.8008 7.98584 16.0801 7.98584 17.2295C7.98584 17.9062 7.95361 18.0244 7.70654 18.293C6.77197 19.292 6.71826 21.0322 7.59912 22.1387C8.23291 22.9443 9.58642 23.3955 10.5532 23.1377C10.9399 23.0303 10.9936 23.041 11.3911 23.3633C11.7778 23.6748 11.9067 23.707 12.5728 23.7285L13.3247 23.7392L15.2798 25.6728C16.8911 27.2627 17.3101 27.6279 17.6323 27.6816C18.2554 27.7998 18.7065 27.5742 19.4692 26.7578C20.1245 26.0703 20.1782 25.9736 20.1782 25.5224C20.1782 25.2539 20.1245 24.9316 20.0601 24.8027C19.9956 24.6738 19.3081 23.9326 18.5454 23.1592C17.772 22.3857 17.1919 21.7197 17.2349 21.6875C17.2886 21.666 18.7173 21.333 20.4038 20.9678L23.4868 20.291L23.938 20.6562C24.3462 20.9892 24.4536 21.0215 25.0659 21.0215C25.5923 21.0215 25.8179 20.9678 26.0542 20.7959C26.5806 20.3984 26.8384 19.915 26.8384 19.3027C26.8384 18.7978 26.7524 18.5937 25.8608 17.0576C24.98 15.5107 24.9048 15.3389 25.0552 15.1777C25.4097 14.791 25.689 13.9531 25.6997 13.2334C25.7104 12.2881 25.4311 11.5361 24.8296 10.8701C24.1421 10.1074 23.4438 9.7744 22.4233 9.70995L21.5962 9.66698L20.769 8.1953C20.3071 7.38964 19.8022 6.59471 19.6519 6.42284C19.0825 5.79979 18.1802 5.6494 17.439 6.06835ZM21.854 13.3193C23.7124 16.5312 25.227 19.2275 25.227 19.3135C25.227 19.3994 25.1626 19.4639 25.0874 19.4639C24.937 19.4639 18.1372 7.7871 18.1372 7.54003C18.1372 7.01366 18.8569 8.13085 21.854 13.3193ZM20.1675 14.3935C21.5425 16.7783 22.6382 18.7549 22.606 18.7871C22.5522 18.8408 16.9878 20.0976 16.7944 20.1084C16.7407 20.1084 16.5581 19.8721 16.4077 19.5928C16.2466 19.3135 15.5161 18.0351 14.7749 16.7568L13.4214 14.4258L15.4839 12.1699C16.6226 10.9238 17.5679 9.94627 17.6108 9.98924C17.6431 10.0322 18.7925 12.0195 20.1675 14.3935ZM23.2827 11.6113C23.8843 12.0303 24.228 12.8789 24.0669 13.5019C23.981 13.792 23.9595 13.7598 23.4116 12.793C23.0894 12.2344 22.7563 11.665 22.6704 11.5254C22.4985 11.2783 22.5093 11.2783 22.7563 11.3535C22.9067 11.3857 23.1431 11.5039 23.2827 11.6113ZM12.5728 16.1553C12.7876 16.5312 13.4644 17.7129 14.0874 18.7871L15.2153 20.7422L14.0015 21.4512C13.271 21.8808 12.6802 22.1494 12.5405 22.1279C12.229 22.0849 9.50049 17.3906 9.58642 17.0576C9.62939 16.9072 10.0591 16.5957 10.8003 16.166C11.4448 15.8008 12.0142 15.5 12.0679 15.5C12.1323 15.4892 12.3579 15.79 12.5728 16.1553ZM9.53271 20.4951C9.84424 21.0537 10.0806 21.5371 10.0483 21.5801C10.0161 21.6123 9.81201 21.6015 9.60791 21.5693C9.0708 21.4619 8.57666 20.8711 8.57666 20.3125C8.57666 19.8828 8.72705 19.4639 8.87744 19.4639C8.92041 19.4639 9.21045 19.9258 9.53271 20.4951ZM17.0308 23.8896C17.8149 24.6738 18.4595 25.3613 18.4595 25.415C18.4595 25.4687 18.352 25.6299 18.2231 25.7695L17.9868 26.0273L16.397 24.4375L14.8179 22.8584L15.1079 22.6758C15.269 22.5683 15.4409 22.4824 15.5054 22.4824C15.5591 22.4717 16.2466 23.1162 17.0308 23.8896Z" fill="url(#paint2_linear_7073_83523)"/>
<path d="M36.5373 13.3435C36.0431 13.5476 35.9249 14.2351 36.3224 14.6004C36.4513 14.7293 36.7843 14.8904 37.0636 14.9656L37.5792 15.116L31.6066 18.5535C25.3332 22.1736 25.215 22.2488 25.4406 22.8396C25.591 23.2478 26.0421 23.5056 26.3966 23.3767C26.547 23.3123 29.2433 21.7869 32.38 19.9715C35.5167 18.1668 38.1593 16.6521 38.256 16.6199C38.4064 16.5555 38.4064 16.5984 38.2775 17.1033C38.0626 17.9305 38.3205 18.4246 38.9865 18.4246C39.5128 18.4246 39.6847 18.1346 40.0929 16.5232C40.5333 14.8045 40.5548 14.5252 40.2755 14.2674C40.1144 14.1277 37.0636 13.2146 36.8273 13.2469C36.7951 13.2469 36.6662 13.2898 36.5373 13.3435Z" fill="url(#paint3_linear_7073_83523)"/>
<path d="M44.8321 13.4492C44.252 13.5781 44.0694 13.75 42.6729 15.5117C40.9864 17.6602 40.836 17.9287 41.0079 18.5088C41.1583 18.9922 41.631 19.3574 42.1144 19.3574H42.4151L42.4366 26.458L42.4688 33.5586L42.7696 33.8164C43.0704 34.0742 43.1134 34.0742 45.1007 34.0742C47.2599 34.0742 47.5714 34.0205 47.7755 33.5693C47.8614 33.3867 47.8937 31.2168 47.8937 26.3398V19.3574H48.2589C49.0753 19.3574 49.6339 18.3262 49.2042 17.5957C48.8282 16.9512 46.2716 13.7715 46.0353 13.6426C45.6808 13.46 45.1866 13.374 44.8321 13.4492ZM46.2286 16.3174C46.7657 16.9941 47.2062 17.5957 47.2276 17.6387C47.2491 17.6924 47.1095 17.7568 46.9376 17.7998C46.2501 17.9502 46.2823 17.6279 46.2823 25.4053V32.4736L45.1866 32.4414L44.0802 32.4092L44.0479 25.3301C44.0265 17.5313 44.0587 17.9502 43.3604 17.7998C43.1886 17.7568 43.0597 17.6924 43.0812 17.6494C43.1778 17.4131 45.0577 15.0713 45.1544 15.0713C45.2188 15.0713 45.7022 15.6299 46.2286 16.3174Z" fill="url(#paint4_linear_7073_83523)"/>
<path d="M36.2139 20.6396C36.085 20.6934 35.9346 20.833 35.8701 20.9512C35.7842 21.0908 35.752 23.1748 35.752 27.3535V33.541L36.0205 33.8096L36.2891 34.0781L38.502 34.0459C40.6719 34.0137 40.7148 34.0137 40.9189 33.7559C41.1123 33.5195 41.123 33.251 41.123 27.332C41.123 23.5186 41.0801 21.0908 41.0156 20.9619C40.9619 20.8545 40.7578 20.7148 40.5752 20.6504C40.167 20.5107 36.5576 20.5 36.2139 20.6396ZM39.5117 27.2998V32.4561H38.4375H37.3633V27.2998V22.1436H38.4375H39.5117V27.2998Z" fill="url(#paint5_linear_7073_83523)"/>
<path d="M29.21 23.7188C28.9844 23.998 28.9844 24.1162 28.9844 28.6387C28.9844 31.1846 29.0166 33.376 29.0488 33.5156C29.1777 33.999 29.5645 34.0742 31.7559 34.0742C33.6465 34.0742 33.8076 34.0635 34.0762 33.8486L34.3555 33.6338V28.7139C34.3555 24.084 34.3447 23.7832 34.1621 23.6221C33.9902 23.4609 33.6572 23.4395 31.6914 23.4395H29.4248L29.21 23.7188ZM32.7441 28.7568V32.4629H31.6699H30.5957V28.7568V25.0508H31.6699H32.7441V28.7568Z" fill="url(#paint6_linear_7073_83523)"/>
<path d="M22.5635 26.4043C22.3271 26.5654 22.3271 26.5762 22.3271 30.0996V33.6338L22.6064 33.8486C22.875 34.0635 23.0361 34.0742 24.916 34.0742C27.0645 34.0742 27.376 34.0205 27.5801 33.5693C27.6553 33.3975 27.6982 32.2158 27.6982 30.0566C27.6982 26.9199 27.6875 26.791 27.4727 26.5117L27.2578 26.2324H25.0234C23.1865 26.2324 22.7676 26.2646 22.5635 26.4043ZM26.0869 30.1533V32.4629H25.0127H23.9385V30.1533V27.8438H25.0127H26.0869V30.1533Z" fill="url(#paint7_linear_7073_83523)"/>
<defs>
<linearGradient id="paint0_linear_7073_83523" x1="27.9999" y1="51.3125" x2="27.9999" y2="0.692837" gradientUnits="userSpaceOnUse">
<stop stop-color="#2E6AC0"/>
<stop offset="1" stop-color="#19B9C4"/>
</linearGradient>
<linearGradient id="paint1_linear_7073_83523" x1="28.0151" y1="37.3047" x2="28.0151" y2="3.88574" gradientUnits="userSpaceOnUse">
<stop stop-color="#2E6AC0"/>
<stop offset="1" stop-color="#19B9C4"/>
</linearGradient>
<linearGradient id="paint2_linear_7073_83523" x1="16.9045" y1="27.7109" x2="16.9045" y2="5.83208" gradientUnits="userSpaceOnUse">
<stop stop-color="#2E6AC0"/>
<stop offset="1" stop-color="#19B9C4"/>
</linearGradient>
<linearGradient id="paint3_linear_7073_83523" x1="32.9207" y1="23.4102" x2="32.9207" y2="13.246" gradientUnits="userSpaceOnUse">
<stop stop-color="#2E6AC0"/>
<stop offset="1" stop-color="#19B9C4"/>
</linearGradient>
<linearGradient id="paint4_linear_7073_83523" x1="45.153" y1="34.0742" x2="45.153" y2="13.422" gradientUnits="userSpaceOnUse">
<stop stop-color="#2E6AC0"/>
<stop offset="1" stop-color="#19B9C4"/>
</linearGradient>
<linearGradient id="paint5_linear_7073_83523" x1="38.4375" y1="34.0781" x2="38.4375" y2="20.5401" gradientUnits="userSpaceOnUse">
<stop stop-color="#2E6AC0"/>
<stop offset="1" stop-color="#19B9C4"/>
</linearGradient>
<linearGradient id="paint6_linear_7073_83523" x1="31.6699" y1="34.0742" x2="31.6699" y2="23.4395" gradientUnits="userSpaceOnUse">
<stop stop-color="#2E6AC0"/>
<stop offset="1" stop-color="#19B9C4"/>
</linearGradient>
<linearGradient id="paint7_linear_7073_83523" x1="25.0127" y1="34.0742" x2="25.0127" y2="26.2324" gradientUnits="userSpaceOnUse">
<stop stop-color="#2E6AC0"/>
<stop offset="1" stop-color="#19B9C4"/>
</linearGradient>
</defs>
</svg>
