<svg width="64" height="52" viewBox="0 0 64 52" fill="none" xmlns="http://www.w3.org/2000/svg">
<g id="Group">
<g id="Group_2">
<g id="Group_3">
<path id="Vector" d="M43.0739 0.816406V42.8872C38.948 46.5085 33.8143 48.6497 28.2524 48.6497C22.3833 48.6497 16.9973 46.2715 12.7715 42.2856V10.4889C12.7715 7.69002 13.7971 5.16733 15.4333 3.39897C16.918 1.79906 18.9065 0.816406 21.0955 0.816406H43.0739Z" fill="url(#paint0_linear_3265_77193)"/>
<path id="Vector_2" opacity="0.11" d="M43.0742 0.816406V33.5115L15.4336 3.39897C16.9183 1.79906 18.9067 0.816406 21.0958 0.816406H43.0742Z" fill="#96ECF5"/>
<g id="Group_4">
<path id="Vector_3" d="M36.6454 8.86752H19.7669C19.4296 8.86752 19.1562 8.59419 19.1562 8.25687V8.19659C19.1562 7.85927 19.4296 7.58594 19.7669 7.58594H36.6454C36.9827 7.58594 37.256 7.85927 37.256 8.19659V8.25687C37.256 8.59419 36.9827 8.86752 36.6454 8.86752Z" fill="white"/>
<path id="Vector_4" d="M36.6454 14.0355H19.7669C19.4296 14.0355 19.1562 13.7622 19.1562 13.4248V13.3646C19.1562 13.0272 19.4296 12.7539 19.7669 12.7539H36.6454C36.9827 12.7539 37.256 13.0272 37.256 13.3646V13.4248C37.256 13.7622 36.9827 14.0355 36.6454 14.0355Z" fill="white"/>
<path id="Vector_5" d="M36.6454 19.2074H19.7669C19.4296 19.2074 19.1562 18.934 19.1562 18.5967V18.5364C19.1562 18.1991 19.4296 17.9258 19.7669 17.9258H36.6454C36.9827 17.9258 37.256 18.1991 37.256 18.5364V18.5967C37.256 18.934 36.9827 19.2074 36.6454 19.2074Z" fill="white"/>
<path id="Vector_6" d="M36.6454 24.3753H19.7669C19.4296 24.3753 19.1562 24.102 19.1562 23.7647V23.7044C19.1562 23.3671 19.4296 23.0938 19.7669 23.0938H36.6454C36.9827 23.0938 37.256 23.3671 37.256 23.7044V23.7647C37.256 24.1016 36.9827 24.3753 36.6454 24.3753Z" fill="white"/>
<path id="Vector_7" d="M36.6454 29.5472H19.7669C19.4296 29.5472 19.1562 29.2739 19.1562 28.9366V28.8763C19.1562 28.539 19.4296 28.2656 19.7669 28.2656H36.6454C36.9827 28.2656 37.256 28.539 37.256 28.8763V28.9366C37.256 29.2735 36.9827 29.5472 36.6454 29.5472Z" fill="white"/>
<path id="Vector_8" d="M36.6454 34.7152H19.7669C19.4296 34.7152 19.1562 34.4418 19.1562 34.1045V34.0442C19.1562 33.7069 19.4296 33.4336 19.7669 33.4336H36.6454C36.9827 33.4336 37.256 33.7069 37.256 34.0442V34.1045C37.256 34.4414 36.9827 34.7152 36.6454 34.7152Z" fill="white"/>
</g>
</g>
<g id="Group_5">
<g id="Group_6">
<g id="Group_7">
<g id="Group_8">
<path id="Vector_9" d="M59.1354 19.4728C59.1354 20.9005 59.0409 22.3022 58.8559 23.6783C57.7164 32.2869 53.1239 39.8038 46.5146 44.7917C41.2041 48.8037 34.5906 51.1815 27.4267 51.1815C19.8715 51.1815 12.9355 48.5411 7.49169 44.125C4.73985 41.902 2.37901 39.2315 0.5 36.2171C2.60692 37.9458 4.95496 39.3863 7.49169 40.4829C11.0524 42.018 14.978 42.8694 19.1019 42.8694C31.6109 42.8694 42.2962 35.0391 46.5146 24.0095C46.9316 22.9257 47.2842 21.8121 47.5682 20.6726L43.0745 19.4728L48.3849 15.4307L57.2515 8.67969C58.4691 12.0463 59.1354 15.6842 59.1354 19.4728Z" fill="#10C8F0"/>
</g>
<g id="Group_9">
<path id="Vector_10" d="M63.4994 24.9166L58.8553 23.6779L50.1349 21.3559L47.5676 20.6726L43.0742 19.4728L48.3847 15.4307L57.2513 8.67969L63.4994 24.9166Z" fill="#10C8F0"/>
</g>
</g>
</g>
<path id="Vector_11" opacity="0.23" d="M29.5811 43.4668C12.3938 49.8503 0.787777 36.5437 0.5 36.2171C2.60692 37.9458 4.95496 39.3863 7.49169 40.4829C11.0524 42.018 14.978 42.8694 19.1019 42.8694C31.6109 42.8694 42.2962 35.0391 46.5146 24.0095C46.9316 22.9257 47.2842 21.8121 47.5682 20.6726L43.0745 19.4728L48.3849 15.4307L57.2515 8.67969C57.2515 8.67969 53.1446 34.7154 29.5811 43.4668Z" fill="#B7FBFF"/>
</g>
</g>
</g>
<defs>
<linearGradient id="paint0_linear_3265_77193" x1="3.26179" y1="24.9831" x2="54.0905" y2="24.9831" gradientUnits="userSpaceOnUse">
<stop stop-color="#10C8F0"/>
<stop offset="1" stop-color="#2D76E0"/>
</linearGradient>
</defs>
</svg>
