<svg width="73" height="73" viewBox="0 0 73 73" fill="none" xmlns="http://www.w3.org/2000/svg">
<rect width="73" height="72.0852" rx="36.0426" fill="#177E88" fill-opacity="0.05"/>
<path opacity="0.4" d="M31.3333 36.2833H41.25" stroke="#177E88" stroke-width="2.125" stroke-miterlimit="10" stroke-linecap="round" stroke-linejoin="round"/>
<path opacity="0.4" d="M31.3333 41.95H37.5383" stroke="#177E88" stroke-width="2.125" stroke-miterlimit="10" stroke-linecap="round" stroke-linejoin="round"/>
<path d="M34.1666 27.5H39.8333C42.6666 27.5 42.6666 26.0833 42.6666 24.6667C42.6666 21.8333 41.25 21.8333 39.8333 21.8333H34.1666C32.75 21.8333 31.3333 21.8333 31.3333 24.6667C31.3333 27.5 32.75 27.5 34.1666 27.5Z" stroke="#177E88" stroke-width="2.125" stroke-miterlimit="10" stroke-linecap="round" stroke-linejoin="round"/>
<path d="M42.6667 24.695C47.3842 24.95 49.75 26.6925 49.75 33.1667V41.6667C49.75 47.3333 48.3333 50.1667 41.25 50.1667H32.75C25.6667 50.1667 24.25 47.3333 24.25 41.6667V33.1667C24.25 26.7067 26.6158 24.95 31.3333 24.695" stroke="#177E88" stroke-width="2.125" stroke-miterlimit="10" stroke-linecap="round" stroke-linejoin="round"/>
</svg>
