<svg width="58" height="51" viewBox="0 0 58 51" fill="none" xmlns="http://www.w3.org/2000/svg">
<g id="invebtory">
<g id="Group">
<path id="Vector" d="M15.2933 47.1C15.2933 48.7929 13.9214 50.1648 12.2289 50.1648C10.536 50.1648 9.16406 48.7929 9.16406 47.1C9.16406 45.4071 10.536 44.0352 12.2289 44.0352C13.9214 44.0352 15.2933 45.4071 15.2933 47.1ZM46.6796 44.0352C44.9867 44.0352 43.6147 45.4071 43.6147 47.1C43.6147 48.7929 44.9867 50.1648 46.6796 50.1648C48.3724 50.1648 49.7444 48.7929 49.7444 47.1C49.7444 45.4071 48.3724 44.0352 46.6796 44.0352Z" fill="url(#paint0_linear_3265_77264)"/>
<path id="Vector_2" d="M19.0067 39.0051C15.2239 39.0051 11.6271 35.9381 10.9731 32.1557L9.14095 21.555C8.48698 17.7727 11.0237 14.7057 14.807 14.7057H57.0136L57.8232 9.90641H5.55362L4.3443 2.59207C4.15486 1.44849 3.07226 0.677304 1.93214 0.86372C0.788557 1.05316 0.0151995 2.13316 0.204211 3.27588L1.72063 12.447L4.72838 30.6358L7.01209 44.4444C7.01382 44.4552 7.01814 44.4643 7.01987 44.4751C7.98137 42.5721 9.95019 41.2637 12.2283 41.2637C15.1452 41.2637 17.5552 43.4051 17.989 46.2005H40.9186C41.352 43.4051 43.7616 41.2637 46.6789 41.2637C49.0197 41.2637 51.0331 42.6443 51.963 44.6334L52.4068 42.0042L52.777 39.8052L52.9124 39.0051H19.0067Z" fill="url(#paint1_linear_3265_77264)"/>
<g id="Group_2">
<path id="Vector_3" d="M56.1048 20.0938H23.4219V24.6136H55.3423L56.1048 20.0938Z" fill="url(#paint2_linear_3265_77264)"/>
<path id="Vector_4" d="M54.5659 29.2148H23.4219V33.7338H53.8034L54.5659 29.2148Z" fill="url(#paint3_linear_3265_77264)"/>
</g>
</g>
</g>
<defs>
<linearGradient id="paint0_linear_3265_77264" x1="-3.57111" y1="47.132" x2="64.4975" y2="47.132" gradientUnits="userSpaceOnUse">
<stop offset="0.434559" stop-color="#10C8F0"/>
<stop offset="1" stop-color="#2D76E0"/>
</linearGradient>
<linearGradient id="paint1_linear_3265_77264" x1="-17.9155" y1="23.7554" x2="78.7812" y2="23.7554" gradientUnits="userSpaceOnUse">
<stop offset="0.434559" stop-color="#10C8F0"/>
<stop offset="1" stop-color="#2D76E0"/>
</linearGradient>
<linearGradient id="paint2_linear_3265_77264" x1="13.1651" y1="22.3773" x2="67.9868" y2="22.3773" gradientUnits="userSpaceOnUse">
<stop offset="0.434559" stop-color="#10C8F0"/>
<stop offset="1" stop-color="#2D76E0"/>
</linearGradient>
<linearGradient id="paint3_linear_3265_77264" x1="13.6481" y1="31.498" x2="65.8884" y2="31.498" gradientUnits="userSpaceOnUse">
<stop offset="0.434559" stop-color="#10C8F0"/>
<stop offset="1" stop-color="#2D76E0"/>
</linearGradient>
</defs>
</svg>
