<svg width="60" height="60" viewBox="0 0 60 60" fill="none" xmlns="http://www.w3.org/2000/svg">
<rect width="60" height="60" rx="8" fill="#E7F0FA" fill-opacity="0.4"/>
<path fill-rule="evenodd" clip-rule="evenodd" d="M30 15.375C24.4121 15.375 19.875 19.9121 19.875 25.5C19.875 27.417 20.4094 29.2114 21.3364 30.7391C18.6217 30.666 16.3087 31.503 16.3087 31.503C15.8621 31.6673 15.5674 32.0936 15.5719 32.5695C15.5719 32.5695 15.6821 39.0653 19.6837 42.2344C23.2792 45.0829 28.8401 44.3033 29.9111 44.1199C30.3341 44.2031 36.4665 45.3461 40.3196 42.2929C44.3201 39.1238 44.4067 32.5987 44.4067 32.5987C44.4101 32.1262 44.1165 31.7033 43.6744 31.5379C43.6744 31.5379 41.367 30.6941 38.6569 30.7515C39.5884 29.2204 40.125 27.4226 40.125 25.5C40.125 19.9121 35.5879 15.375 30 15.375ZM34.2615 34.6856L34.2604 34.6868C32.5571 36.3833 31.8146 39.0619 31.4917 40.9328L36.0874 36.3371C36.5261 35.8984 37.2394 35.8984 37.6781 36.3371C38.1169 36.7759 38.1169 37.4891 37.6781 37.9279L33.4121 42.1939C35.1446 42.1714 37.2866 41.8249 38.9224 40.5289C41.3974 38.5691 41.979 35.0096 42.1151 33.4076C40.9136 33.0836 38.514 32.6314 36.3439 33.3907L36.3427 33.3896C35.7071 33.9015 35.0096 34.338 34.2615 34.6856ZM23.6797 33.4088C21.5029 32.6123 19.0807 33.0555 17.868 33.3761C18.012 34.977 18.6094 38.5129 21.081 40.4715C22.6009 41.6753 24.5527 42.0656 26.2076 42.1388L22.0946 38.0258C21.6559 37.5859 21.6559 36.8737 22.0946 36.4339C22.5334 35.9951 23.2466 35.9951 23.6854 36.4339L28.5487 41.2972C28.2562 39.4207 27.516 36.462 25.6642 34.6519C24.9532 34.3144 24.2884 33.8948 23.6797 33.4088ZM29.0494 35.5811C29.4307 36.3236 29.739 37.0999 29.9865 37.857C30.2306 37.0999 30.5355 36.3259 30.9146 35.5845C30.6142 35.6374 29.3621 35.6374 29.0494 35.5811ZM28.875 17.7049C25.0601 18.2516 22.125 21.5355 22.125 25.5C22.125 29.4645 25.0601 32.7484 28.875 33.2951V31.1081H27.75C27.129 31.1081 26.625 30.6041 26.625 29.9831C26.625 29.3621 27.129 28.8581 27.75 28.8581H31.125C31.746 28.8581 32.25 28.3541 32.25 27.7331C32.25 27.1121 31.746 26.6081 31.125 26.6081H28.875C27.012 26.6081 25.5 25.0961 25.5 23.2331C25.5 21.3712 27.012 19.8581 28.875 19.8581V17.7049ZM31.125 17.7049V19.8581H32.25C32.871 19.8581 33.375 20.3621 33.375 20.9831C33.375 21.6041 32.871 22.1081 32.25 22.1081H28.875C28.254 22.1081 27.75 22.6121 27.75 23.2331C27.75 23.8541 28.254 24.3581 28.875 24.3581H31.125C32.988 24.3581 34.5 25.8712 34.5 27.7331C34.5 29.5961 32.988 31.1081 31.125 31.1081V33.2951C34.9399 32.7484 37.875 29.4645 37.875 25.5C37.875 21.5355 34.9399 18.2516 31.125 17.7049Z" fill="url(#paint0_linear_1_66)"/>
<defs>
<linearGradient id="paint0_linear_1_66" x1="17.625" y1="33.9375" x2="44.625" y2="32.25" gradientUnits="userSpaceOnUse">
<stop stop-color="#2D76E0"/>
<stop offset="1" stop-color="#9BC9FF"/>
</linearGradient>
</defs>
</svg>
