<svg width="48" height="49" viewBox="0 0 48 49" fill="none" xmlns="http://www.w3.org/2000/svg">
<path d="M18.5 26.5C18.5 28.71 16.71 30.5 14.5 30.5C12.29 30.5 10.5 28.71 10.5 26.5C10.5 24.29 12.29 22.5 14.5 22.5C16.71 22.5 18.5 24.29 18.5 26.5Z" fill="url(#paint0_linear_817_97833)"/>
<path fill-rule="evenodd" clip-rule="evenodd" d="M14.5 28.5C15.0304 28.5 15.5391 28.2893 15.9142 27.9142C16.2893 27.5391 16.5 27.0304 16.5 26.5C16.5 25.9696 16.2893 25.4609 15.9142 25.0858C15.5391 24.7107 15.0304 24.5 14.5 24.5C13.9696 24.5 13.4609 24.7107 13.0858 25.0858C12.7107 25.4609 12.5 25.9696 12.5 26.5C12.5 27.0304 12.7107 27.5391 13.0858 27.9142C13.4609 28.2893 13.9696 28.5 14.5 28.5ZM14.5 30.5C16.71 30.5 18.5 28.71 18.5 26.5C18.5 24.29 16.71 22.5 14.5 22.5C12.29 22.5 10.5 24.29 10.5 26.5C10.5 28.71 12.29 30.5 14.5 30.5Z" fill="url(#paint1_linear_817_97833)"/>
<path d="M6 37.046C6 34.022 11.663 32.5 14.5 32.5C17.337 32.5 23 34.023 23 37.045V42.5H6V37.046Z" fill="url(#paint2_linear_817_97833)"/>
<path fill-rule="evenodd" clip-rule="evenodd" d="M8.334 36.483C8.018 36.795 8 36.974 8 37.046V40.5H21V37.045C21 36.975 20.982 36.795 20.666 36.483C20.332 36.154 19.781 35.801 19.026 35.478C17.506 34.827 15.65 34.5 14.5 34.5C13.35 34.5 11.493 34.827 9.974 35.478C9.219 35.801 8.668 36.154 8.334 36.483ZM14.5 32.5C11.663 32.5 6 34.023 6 37.045V42.5H23V37.045C23 34.024 17.337 32.5 14.5 32.5Z" fill="url(#paint3_linear_817_97833)"/>
<path d="M37.5 26.5C37.5 28.71 35.71 30.5 33.5 30.5C31.29 30.5 29.5 28.71 29.5 26.5C29.5 24.29 31.29 22.5 33.5 22.5C35.71 22.5 37.5 24.29 37.5 26.5Z" fill="url(#paint4_linear_817_97833)"/>
<path fill-rule="evenodd" clip-rule="evenodd" d="M33.5 28.5C34.0304 28.5 34.5391 28.2893 34.9142 27.9142C35.2893 27.5391 35.5 27.0304 35.5 26.5C35.5 25.9696 35.2893 25.4609 34.9142 25.0858C34.5391 24.7107 34.0304 24.5 33.5 24.5C32.9696 24.5 32.4609 24.7107 32.0858 25.0858C31.7107 25.4609 31.5 25.9696 31.5 26.5C31.5 27.0304 31.7107 27.5391 32.0858 27.9142C32.4609 28.2893 32.9696 28.5 33.5 28.5ZM33.5 30.5C35.71 30.5 37.5 28.71 37.5 26.5C37.5 24.29 35.71 22.5 33.5 22.5C31.29 22.5 29.5 24.29 29.5 26.5C29.5 28.71 31.29 30.5 33.5 30.5Z" fill="url(#paint5_linear_817_97833)"/>
<path d="M28 24.5C28 26.71 26.21 28.5 24 28.5C21.79 28.5 20 26.71 20 24.5C20 22.29 21.79 20.5 24 20.5C26.21 20.5 28 22.29 28 24.5Z" fill="url(#paint6_linear_817_97833)"/>
<path fill-rule="evenodd" clip-rule="evenodd" d="M24 26.5C24.5304 26.5 25.0391 26.2893 25.4142 25.9142C25.7893 25.5391 26 25.0304 26 24.5C26 23.9696 25.7893 23.4609 25.4142 23.0858C25.0391 22.7107 24.5304 22.5 24 22.5C23.4696 22.5 22.9609 22.7107 22.5858 23.0858C22.2107 23.4609 22 23.9696 22 24.5C22 25.0304 22.2107 25.5391 22.5858 25.9142C22.9609 26.2893 23.4696 26.5 24 26.5ZM24 28.5C26.21 28.5 28 26.71 28 24.5C28 22.29 26.21 20.5 24 20.5C21.79 20.5 20 22.29 20 24.5C20 26.71 21.79 28.5 24 28.5Z" fill="url(#paint7_linear_817_97833)"/>
<path d="M23.0002 13.333C23.0002 12.0512 22.491 10.8219 21.5847 9.91555C20.6783 9.00919 19.449 8.5 18.1672 8.5H14.9982C13.687 8.49789 12.4274 9.01118 11.4911 9.9292C10.5548 10.8472 10.0168 12.0964 9.99301 13.4075C9.96926 14.7185 10.4617 15.9864 11.3641 16.9377C12.2666 17.8891 13.5067 18.4476 14.8172 18.493L15.0002 18.5V20.5C15.0002 20.5 23.0002 19.333 23.0002 13.333ZM26.0002 11.736C26.0002 10.3473 26.5519 9.01553 27.5338 8.03359C28.5158 7.05165 29.8476 6.5 31.2362 6.5H37.0002C38.3263 6.5 39.5981 7.02678 40.5358 7.96447C41.4734 8.90215 42.0002 10.1739 42.0002 11.5C42.0002 12.8261 41.4734 14.0979 40.5358 15.0355C39.5981 15.9732 38.3263 16.5 37.0002 16.5H35.0002V19.5C35.0002 19.5 26.0002 18.236 26.0002 11.736ZM25.0002 37.046C25.0002 34.022 30.6632 32.5 33.5002 32.5C36.3372 32.5 42.0002 34.023 42.0002 37.045V42.5H25.0002V37.046Z" fill="url(#paint8_linear_817_97833)"/>
<path fill-rule="evenodd" clip-rule="evenodd" d="M27.3312 36.483C27.0152 36.795 26.9972 36.974 26.9972 37.046V40.5H39.9972V37.045C39.9972 36.975 39.9792 36.795 39.6632 36.483C39.3292 36.154 38.7782 35.801 38.0232 35.478C36.5032 34.827 34.6472 34.5 33.4972 34.5C32.3472 34.5 30.4902 34.827 28.9712 35.478C28.2162 35.801 27.6652 36.154 27.3312 36.483ZM33.4972 32.5C30.6602 32.5 24.9972 34.023 24.9972 37.045V42.5H41.9972V37.045C41.9972 34.024 36.3342 32.5 33.4972 32.5ZM23.9972 35.045C23.9972 33.368 22.1502 32.152 19.9922 31.402C21.2445 30.8102 22.6121 30.5022 23.9972 30.5C25.3823 30.5022 26.7498 30.8102 28.0022 31.402C25.8442 32.152 23.9972 33.368 23.9972 35.045Z" fill="url(#paint9_linear_817_97833)"/>
<path fill-rule="evenodd" clip-rule="evenodd" d="M23.9972 35.0451C23.9972 34.1521 24.5212 33.3891 25.3372 32.7581L25.4782 32.6531C26.1752 32.1471 27.0582 31.7301 28.0022 31.4031C27.0655 30.9615 26.063 30.676 25.0342 30.5581C24.345 30.4806 23.6494 30.4806 22.9602 30.5581C21.9315 30.6757 20.9289 30.9608 19.9922 31.4021C20.9352 31.7301 21.8192 32.1471 22.5152 32.6521C22.5632 32.6871 22.6102 32.7221 22.6562 32.7581C23.4732 33.3881 23.9972 34.1521 23.9972 35.0451Z" fill="url(#paint10_linear_817_97833)"/>
<defs>
<linearGradient id="paint0_linear_817_97833" x1="7.98939" y1="26.5418" x2="21.4084" y2="26.5418" gradientUnits="userSpaceOnUse">
<stop stop-color="#10C8F0"/>
<stop offset="1" stop-color="#2D76E0"/>
</linearGradient>
<linearGradient id="paint1_linear_817_97833" x1="7.98939" y1="26.5418" x2="21.4084" y2="26.5418" gradientUnits="userSpaceOnUse">
<stop stop-color="#10C8F0"/>
<stop offset="1" stop-color="#2D76E0"/>
</linearGradient>
<linearGradient id="paint2_linear_817_97833" x1="0.664956" y1="37.5523" x2="29.1804" y2="37.5523" gradientUnits="userSpaceOnUse">
<stop stop-color="#10C8F0"/>
<stop offset="1" stop-color="#2D76E0"/>
</linearGradient>
<linearGradient id="paint3_linear_817_97833" x1="0.664956" y1="37.5523" x2="29.1804" y2="37.5523" gradientUnits="userSpaceOnUse">
<stop stop-color="#10C8F0"/>
<stop offset="1" stop-color="#2D76E0"/>
</linearGradient>
<linearGradient id="paint4_linear_817_97833" x1="26.9894" y1="26.5418" x2="40.4084" y2="26.5418" gradientUnits="userSpaceOnUse">
<stop stop-color="#10C8F0"/>
<stop offset="1" stop-color="#2D76E0"/>
</linearGradient>
<linearGradient id="paint5_linear_817_97833" x1="26.9894" y1="26.5418" x2="40.4084" y2="26.5418" gradientUnits="userSpaceOnUse">
<stop stop-color="#10C8F0"/>
<stop offset="1" stop-color="#2D76E0"/>
</linearGradient>
<linearGradient id="paint6_linear_817_97833" x1="17.4894" y1="24.5418" x2="30.9084" y2="24.5418" gradientUnits="userSpaceOnUse">
<stop stop-color="#10C8F0"/>
<stop offset="1" stop-color="#2D76E0"/>
</linearGradient>
<linearGradient id="paint7_linear_817_97833" x1="17.4894" y1="24.5418" x2="30.9084" y2="24.5418" gradientUnits="userSpaceOnUse">
<stop stop-color="#10C8F0"/>
<stop offset="1" stop-color="#2D76E0"/>
</linearGradient>
<linearGradient id="paint8_linear_817_97833" x1="-0.0527734" y1="24.6882" x2="53.6369" y2="24.6882" gradientUnits="userSpaceOnUse">
<stop stop-color="#10C8F0"/>
<stop offset="1" stop-color="#2D76E0"/>
</linearGradient>
<linearGradient id="paint9_linear_817_97833" x1="13.0864" y1="36.5627" x2="49.9972" y2="36.5627" gradientUnits="userSpaceOnUse">
<stop stop-color="#10C8F0"/>
<stop offset="1" stop-color="#2D76E0"/>
</linearGradient>
<linearGradient id="paint10_linear_817_97833" x1="17.4784" y1="33.0262" x2="30.9142" y2="33.0262" gradientUnits="userSpaceOnUse">
<stop stop-color="#10C8F0"/>
<stop offset="1" stop-color="#2D76E0"/>
</linearGradient>
</defs>
</svg>
