<svg width="74" height="63" viewBox="0 0 74 63" fill="none" xmlns="http://www.w3.org/2000/svg">
<g id="my work">
<path id="XMLID_179_" d="M15.6192 43.0193C15.2221 42.1599 15.1011 41.2028 15.2298 40.175C14.635 39.7779 14.0562 39.3769 13.4912 38.9727C11.6587 42.1047 11.1197 45.0241 12.2061 47.3762C14.677 52.7268 24.823 53.5839 37.0009 50.1796C33.5121 49.2043 29.8582 47.8794 26.1678 46.2087C20.8239 46.7842 16.9242 45.8453 15.6192 43.0193Z" fill="url(#paint0_linear_4391_90087)"/>
<path id="XMLID_182_" d="M35.3975 21.3906C27.782 25.0782 21.4589 29.6075 17.2549 34.0717C17.4681 34.213 17.6857 34.3539 17.9033 34.4947C21.2689 30.0449 27.5274 25.2235 35.3975 21.3906Z" fill="url(#paint1_linear_4391_90087)"/>
<path id="XMLID_188_" d="M37.0001 43.6445C33.0385 44.9838 29.3465 45.8653 26.167 46.2083C29.8574 47.8789 33.5113 49.2044 37.0001 50.1792C40.4889 49.2038 44.1428 47.8789 47.8332 46.2083C44.6537 45.8658 40.9616 44.9838 37.0001 43.6445Z" fill="url(#paint2_linear_4391_90087)"/>
<path id="XMLID_214_" d="M17.903 34.4934C17.6854 34.3525 17.4678 34.2117 17.2546 34.0703C15.6933 35.7288 14.423 37.3774 13.4902 38.9718C14.0552 39.3756 14.6346 39.7771 15.2288 40.1742C15.4464 38.4417 16.3814 36.5053 17.903 34.4934Z" fill="url(#paint3_linear_4391_90087)"/>
<g id="XMLID_106_">
<path id="XMLID_169_" d="M56.0967 34.4986C56.3149 34.3578 56.5325 34.2169 56.7451 34.0756C52.5411 29.6114 46.218 25.0821 38.6025 21.3945C46.4732 25.2279 52.7311 30.0494 56.0967 34.4986Z" fill="url(#paint4_linear_4391_90087)"/>
<path id="XMLID_213_" d="M60.5094 38.9765C59.9439 39.3802 59.3651 39.7817 58.7703 40.1788C58.899 41.2066 58.778 42.1643 58.3809 43.0231C57.0759 45.8491 53.1762 46.788 47.8328 46.2126C44.6533 45.8701 40.9613 44.9881 36.9997 43.6488C34.2013 42.7022 31.2703 41.5303 28.2874 40.1529C24.4661 38.3883 20.9547 36.4697 17.9033 34.498C17.6857 34.3572 17.4681 34.2163 17.255 34.075C9.28381 28.7896 4.71088 23.1701 6.5881 19.1047C9.13469 13.5912 22.0797 14.1054 35.8791 20.1364C19.6033 12.9787 4.18566 12.559 1.05807 19.3311C-1.29136 24.4193 3.9526 32.1563 13.4906 38.9765C14.0556 39.3802 14.6349 39.7817 15.2292 40.1788C18.3297 42.2482 21.8179 44.2116 25.605 45.9607C25.7922 46.0469 25.9794 46.128 26.1666 46.2126C29.857 47.8832 33.5109 49.2087 36.9997 50.1835C49.1771 53.5878 59.3231 52.7306 61.794 47.3801C62.8809 45.0279 62.3419 42.1085 60.5094 38.9765Z" fill="url(#paint5_linear_4391_90087)"/>
<path id="XMLID_186_" opacity="0.3" d="M21.0315 36.4039C19.9451 35.776 18.8975 35.1403 17.9033 34.498C17.6857 34.3572 17.4681 34.2163 17.255 34.075C9.28381 28.7896 4.71088 23.1701 6.5881 19.1047C9.13469 13.5912 22.0797 14.1054 35.8791 20.1364C19.6033 12.9787 4.18566 12.559 1.05807 19.3311C-1.29136 24.4193 3.9526 32.1563 13.4906 38.9765C14.0556 39.3802 14.6349 39.7817 15.2292 40.1788C18.3297 42.2482 21.8179 44.2116 25.605 45.9607C25.7922 46.0468 25.9794 46.128 26.1666 46.2125C28.7751 47.3933 31.362 48.3924 33.8881 49.2264C28.8634 45.7785 24.2242 41.6578 21.0315 36.4039Z" fill="url(#paint6_linear_4391_90087)"/>
</g>
<path id="XMLID_216_" d="M56.0967 34.4934C57.6182 36.5053 58.5533 38.4417 58.7709 40.1742C59.3657 39.7771 59.9445 39.3761 60.51 38.9718C59.5772 37.3774 58.3069 35.7288 56.7456 34.0703C56.5319 34.2117 56.3143 34.3525 56.0967 34.4934Z" fill="url(#paint7_linear_4391_90087)"/>
<path id="XMLID_181_" d="M72.9411 19.3272C69.8135 12.5551 54.3959 12.9748 38.12 20.1325C51.9194 14.1015 64.8645 13.5868 67.4111 19.1008C69.2883 23.1662 64.7154 28.7857 56.7448 34.071C56.5316 34.2124 56.314 34.3533 56.0964 34.4941C53.0456 36.4658 49.5341 38.3844 45.7123 40.149C42.7294 41.5264 39.7984 42.6983 37 43.6449C40.9615 44.9842 44.6536 45.8657 47.8331 46.2086C48.0203 46.1241 48.207 46.0429 48.3948 45.9568C52.1818 44.2077 55.67 42.2443 58.7705 40.1749C59.3654 39.7778 59.9442 39.3769 60.5097 38.9726C70.0466 32.1524 75.2905 24.4154 72.9411 19.3272Z" fill="url(#paint8_linear_4391_90087)"/>
<path id="XMLID_187_" opacity="0.3" d="M72.9422 19.3272C69.8146 12.5551 54.397 12.9748 38.1211 20.1325C51.9205 14.1015 64.8655 13.5868 67.4121 19.1008C69.09 22.7332 65.6072 27.6065 59.1621 32.3744C57.0512 37.3047 53.5956 41.7263 49.5954 45.3741C52.9157 43.7742 56.0047 42.0218 58.7711 40.1749C59.3659 39.7778 59.9447 39.3769 60.5102 38.9726C70.0476 32.1524 75.2916 24.4154 72.9422 19.3272Z" fill="url(#paint9_linear_4391_90087)"/>
<path id="XMLID_168_" d="M38.1252 52.9899C44.8636 53.6753 50.0805 55.8452 49.9016 57.94C49.716 60.1033 43.8822 60.9019 36.8224 60.2972C29.7619 59.6919 24.1491 57.9135 24.3346 55.7497C24.5141 53.6554 30.0243 52.4039 36.7809 52.8756C28.8043 52.3051 22.273 53.8586 22.0526 56.4312C21.8262 59.0755 28.3542 61.7944 36.6335 62.5036C44.9128 63.2133 51.8081 61.6442 52.0345 58.9999C52.2549 56.4273 46.0831 53.7852 38.1252 52.9899Z" fill="url(#paint10_linear_4391_90087)"/>
<g id="XMLID_173_">
<path id="XMLID_171_" d="M37.044 15.8087C41.3188 15.8087 44.7843 12.3432 44.7843 8.0684C44.7843 3.79356 41.3188 0.328125 37.044 0.328125C32.7692 0.328125 29.3037 3.79356 29.3037 8.0684C29.3037 12.3432 32.7692 15.8087 37.044 15.8087Z" fill="url(#paint11_linear_4391_90087)"/>
<path id="XMLID_170_" opacity="0.4" d="M40.9651 9.48497C39.7301 12.5634 36.3618 14.1093 33.4418 12.9379C30.5213 11.7665 29.1555 8.3213 30.3904 5.24286C31.6254 2.16442 34.9937 0.618567 37.9142 1.78997C40.8342 2.96136 42.2 6.40708 40.9651 9.48497Z" fill="#B0C3FA"/>
</g>
<path id="XMLID_180_" d="M38.0074 19.7988L38.7784 18.4203C38.8795 18.2397 38.7873 18.0116 38.5873 17.9569C38.2206 17.8569 37.6379 17.7305 37.0437 17.7305C36.4494 17.7305 35.8668 17.8569 35.5 17.9569C35.3001 18.0116 35.2079 18.2397 35.309 18.4203L36.0799 19.7988H36.4091L35.1162 24.3441L37.0437 31.642L38.9712 24.3441L37.6783 19.7988H38.0074Z" fill="url(#paint12_linear_4391_90087)"/>
<path id="XMLID_215_" d="M50.0456 20.2827C48.8047 19.821 45.7091 18.723 41.9591 18.1172C39.8654 19.9806 37.0432 33.0676 37.0432 36.7971C37.0432 33.0676 33.999 19.9806 32.1273 18.1172C28.3773 18.723 25.2817 19.821 24.0407 20.2827C22.7141 20.7759 19.9289 35.4971 20.8778 36.3078C23.1107 38.2149 36.1485 43.6471 36.9973 43.6471C37.8462 43.6471 50.9746 38.2149 53.208 36.3078C54.1574 35.4965 51.3722 20.7759 50.0456 20.2827Z" fill="url(#paint13_linear_4391_90087)"/>
<g id="XMLID_177_" opacity="0.6">
<path id="XMLID_183_" opacity="0.4" d="M53.3468 34.0352C52.2185 36.4337 36.998 43.6455 36.998 43.6455C36.998 43.6455 48.8667 39.5834 52.794 36.5939C52.794 36.5939 53.4125 36.3824 53.402 35.5744C53.3921 34.7664 53.3468 34.0352 53.3468 34.0352Z" fill="url(#paint14_linear_4391_90087)"/>
<path id="XMLID_184_" opacity="0.4" d="M20.7409 34.0352C21.8698 36.4337 37.0897 43.6455 37.0897 43.6455C37.0897 43.6455 25.221 39.5834 21.2937 36.5939C21.2937 36.5939 20.6757 36.3824 20.6857 35.5744C20.6962 34.7664 20.7409 34.0352 20.7409 34.0352Z" fill="url(#paint15_linear_4391_90087)"/>
</g>
<path id="XMLID_185_" opacity="0.4" d="M28.8872 19.2812C28.8872 19.2812 24.7219 20.0887 24.2066 21.5174C23.6907 22.9457 21.7655 33.3529 22.3244 34.3912C22.8833 35.4295 28.8872 38.5963 28.8872 38.5963V19.2812Z" fill="#B0C3FA"/>
</g>
<defs>
<linearGradient id="paint0_linear_4391_90087" x1="18.4012" y1="47.647" x2="75.7741" y2="21.9028" gradientUnits="userSpaceOnUse">
<stop stop-color="#0F7AEF"/>
<stop offset="1" stop-color="#6CE3FF"/>
</linearGradient>
<linearGradient id="paint1_linear_4391_90087" x1="26.3262" y1="21.3906" x2="26.3262" y2="34.4947" gradientUnits="userSpaceOnUse">
<stop stop-color="#2E6AC0"/>
<stop offset="1" stop-color="#19B9C4"/>
</linearGradient>
<linearGradient id="paint2_linear_4391_90087" x1="19.3676" y1="46.946" x2="55.71" y2="46.946" gradientUnits="userSpaceOnUse">
<stop stop-color="#10C8F0"/>
<stop offset="1" stop-color="#2D76E0"/>
</linearGradient>
<linearGradient id="paint3_linear_4391_90087" x1="14.1078" y1="38.08" x2="71.4819" y2="12.3352" gradientUnits="userSpaceOnUse">
<stop stop-color="#A51AF4"/>
<stop offset="0.7581" stop-color="#6900BC"/>
</linearGradient>
<linearGradient id="paint4_linear_4391_90087" x1="47.6738" y1="21.3945" x2="47.6738" y2="34.4986" gradientUnits="userSpaceOnUse">
<stop stop-color="#2E6AC0"/>
<stop offset="1" stop-color="#19B9C4"/>
</linearGradient>
<linearGradient id="paint5_linear_4391_90087" x1="31.426" y1="14.5" x2="31.426" y2="52.2086" gradientUnits="userSpaceOnUse">
<stop stop-color="#2E6AC0"/>
<stop offset="1" stop-color="#19B9C4"/>
</linearGradient>
<linearGradient id="paint6_linear_4391_90087" x1="-10.6029" y1="32.0447" x2="48.7413" y2="32.0447" gradientUnits="userSpaceOnUse">
<stop stop-color="#10C8F0"/>
<stop offset="1" stop-color="#2D76E0"/>
</linearGradient>
<linearGradient id="paint7_linear_4391_90087" x1="54.7117" y1="37.1542" x2="62.1145" y2="37.1542" gradientUnits="userSpaceOnUse">
<stop stop-color="#10C8F0"/>
<stop offset="1" stop-color="#2D76E0"/>
</linearGradient>
<linearGradient id="paint8_linear_4391_90087" x1="40.3328" y1="36.8841" x2="69.7593" y2="13.0886" gradientUnits="userSpaceOnUse">
<stop stop-color="#0F7AEF"/>
<stop offset="1" stop-color="#6CE3FF"/>
</linearGradient>
<linearGradient id="paint9_linear_4391_90087" x1="27.0182" y1="30.0965" x2="86.3624" y2="30.0965" gradientUnits="userSpaceOnUse">
<stop stop-color="#10C8F0"/>
<stop offset="1" stop-color="#2D76E0"/>
</linearGradient>
<linearGradient id="paint10_linear_4391_90087" x1="12.6342" y1="57.7678" x2="62.9444" y2="57.7678" gradientUnits="userSpaceOnUse">
<stop stop-color="#10C8F0"/>
<stop offset="1" stop-color="#2D76E0"/>
</linearGradient>
<linearGradient id="paint11_linear_4391_90087" x1="24.4455" y1="8.14934" x2="50.4123" y2="8.14934" gradientUnits="userSpaceOnUse">
<stop stop-color="#10C8F0"/>
<stop offset="1" stop-color="#2D76E0"/>
</linearGradient>
<linearGradient id="paint12_linear_4391_90087" x1="33.9064" y1="24.759" x2="40.3726" y2="24.759" gradientUnits="userSpaceOnUse">
<stop stop-color="#10C8F0"/>
<stop offset="1" stop-color="#2D76E0"/>
</linearGradient>
<linearGradient id="paint13_linear_4391_90087" x1="10.4172" y1="31.0156" x2="65.2958" y2="31.0156" gradientUnits="userSpaceOnUse">
<stop stop-color="#10C8F0"/>
<stop offset="1" stop-color="#2D76E0"/>
</linearGradient>
<linearGradient id="paint14_linear_4391_90087" x1="31.85" y1="38.8906" x2="59.3659" y2="38.8906" gradientUnits="userSpaceOnUse">
<stop stop-color="#10C8F0"/>
<stop offset="1" stop-color="#2D76E0"/>
</linearGradient>
<linearGradient id="paint15_linear_4391_90087" x1="15.5375" y1="38.8906" x2="43.0534" y2="38.8906" gradientUnits="userSpaceOnUse">
<stop stop-color="#10C8F0"/>
<stop offset="1" stop-color="#2D76E0"/>
</linearGradient>
</defs>
</svg>
