<svg width="50" height="51" viewBox="0 0 50 51" fill="none" xmlns="http://www.w3.org/2000/svg">
<g clip-path="url(#clip0_1275_102682)">
<path d="M48.1367 27.3398C47.7841 31.7702 46.1672 36.0063 43.478 39.5448C40.7888 43.0832 37.1404 45.7754 32.9662 47.3013C28.792 48.8273 24.2674 49.123 19.9302 48.1532C15.5929 47.1834 11.6251 44.989 8.49828 41.8306C5.37146 38.6722 3.217 34.6826 2.29087 30.3358C1.36474 25.9889 1.70586 21.4676 3.27371 17.309C4.84156 13.1503 7.57024 9.52914 11.1356 6.87564C14.7009 4.22214 18.953 2.64786 23.3867 2.33984" stroke="url(#paint0_linear_1275_102682)" stroke-width="3.57143" stroke-linecap="round" stroke-linejoin="round"/>
<path d="M34.9513 29.3923C34.3064 31.0523 33.2578 32.5253 31.9005 33.6782C30.5432 34.8311 28.9199 35.6275 27.1774 35.9954C25.435 36.3632 23.6283 36.2909 21.9208 35.7851C20.2133 35.2792 18.6588 34.3557 17.3979 33.098C16.137 31.8404 15.2095 30.2883 14.6992 28.5821C14.189 26.8759 14.112 25.0694 14.4754 23.326C14.8388 21.5826 15.631 19.9573 16.7804 18.597C17.9298 17.2367 19.4001 16.1844 21.0584 15.5352M24.987 25.4994L33.9156 16.5709M33.9156 16.5709L41.0584 18.3566L48.2013 11.2137L41.0584 9.42801L39.2727 2.28516L32.1299 9.42801L33.9156 16.5709Z" stroke="url(#paint1_linear_1275_102682)" stroke-width="3.57143" stroke-linecap="round" stroke-linejoin="round"/>
</g>
<defs>
<linearGradient id="paint0_linear_1275_102682" x1="-12.7663" y1="25.7687" x2="64.9893" y2="25.7687" gradientUnits="userSpaceOnUse">
<stop stop-color="#10C8F0"/>
<stop offset="1" stop-color="#2D76E0"/>
</linearGradient>
<linearGradient id="paint1_linear_1275_102682" x1="3.5952" y1="19.4332" x2="60.5444" y2="19.4332" gradientUnits="userSpaceOnUse">
<stop stop-color="#10C8F0"/>
<stop offset="1" stop-color="#2D76E0"/>
</linearGradient>
<clipPath id="clip0_1275_102682">
<rect width="50" height="50" fill="white" transform="translate(0 0.5)"/>
</clipPath>
</defs>
</svg>
