<svg width="60" height="60" viewBox="0 0 60 60" fill="none" xmlns="http://www.w3.org/2000/svg">
<rect width="60" height="60" rx="8" fill="#E7F0FA" fill-opacity="0.4"/>
<path d="M34.5 15V30C34.5 31.65 33.15 33 31.5 33H15V21C15 17.685 17.685 15 21 15H34.5Z" fill="#2D76E0" stroke="#2D76E0" stroke-width="1.5" stroke-linecap="round" stroke-linejoin="round"/>
<path d="M45 33V37.5C45 39.99 42.99 42 40.5 42H39C39 40.35 37.65 39 36 39C34.35 39 33 40.35 33 42H27C27 40.35 25.65 39 24 39C22.35 39 21 40.35 21 42H19.5C17.01 42 15 39.99 15 37.5V33H31.5C33.15 33 34.5 31.65 34.5 30V19.5H37.26C38.34 19.5 39.33 20.085 39.87 21.015L42.435 25.5H40.5C39.675 25.5 39 26.175 39 27V31.5C39 32.325 39.675 33 40.5 33H45Z" stroke="#2D76E0" stroke-width="1.5" stroke-linecap="round" stroke-linejoin="round"/>
<path d="M24 45C25.6569 45 27 43.6569 27 42C27 40.3431 25.6569 39 24 39C22.3431 39 21 40.3431 21 42C21 43.6569 22.3431 45 24 45Z" stroke="#2D76E0" stroke-width="1.5" stroke-linecap="round" stroke-linejoin="round"/>
<path d="M36 45C37.6569 45 39 43.6569 39 42C39 40.3431 37.6569 39 36 39C34.3431 39 33 40.3431 33 42C33 43.6569 34.3431 45 36 45Z" stroke="#2D76E0" stroke-width="1.5" stroke-linecap="round" stroke-linejoin="round"/>
<path d="M45 30V33H40.5C39.675 33 39 32.325 39 31.5V27C39 26.175 39.675 25.5 40.5 25.5H42.435L45 30Z" stroke="#2D76E0" stroke-width="1.5" stroke-linecap="round" stroke-linejoin="round"/>
</svg>
