<svg width="62" height="55" viewBox="0 0 62 55" fill="none" xmlns="http://www.w3.org/2000/svg">
<g id="Group">
<path id="Vector" d="M37.125 18.219C37.358 18.219 37.5468 18.0179 37.5468 17.7697C37.5468 17.5215 37.358 17.3203 37.125 17.3203C36.892 17.3203 36.7031 17.5215 36.7031 17.7697C36.7031 18.0179 36.892 18.219 37.125 18.219Z" fill="url(#paint0_linear_3373_94855)"/>
<path id="Vector_2" d="M35.5508 18.219C35.7837 18.219 35.9726 18.0179 35.9726 17.7697C35.9726 17.5215 35.7837 17.3203 35.5508 17.3203C35.3178 17.3203 35.1289 17.5215 35.1289 17.7697C35.1289 18.0179 35.3178 18.219 35.5508 18.219Z" fill="url(#paint1_linear_3373_94855)"/>
<path id="Vector_3" d="M32.7148 34.4612C32.9478 34.4612 33.1367 34.26 33.1367 34.0119C33.1367 33.7637 32.9478 33.5625 32.7148 33.5625C32.4818 33.5625 32.293 33.7637 32.293 34.0119C32.293 34.26 32.4818 34.4612 32.7148 34.4612Z" fill="url(#paint2_linear_3373_94855)"/>
<path id="Vector_4" d="M27.4405 41.7555C28.1304 39.9824 29.755 38.8267 31.5572 38.8267H52.6479C53.1406 38.8267 53.5768 38.4886 53.7284 37.9896L60.8756 14.4752C60.9872 14.107 60.9272 13.704 60.7133 13.3907C60.4999 13.0779 60.1583 12.8926 59.7947 12.8926H16.8745C16.5629 12.8926 16.2872 12.6787 16.1913 12.363L13.0774 2.117C12.9258 1.61797 12.4892 1.27987 11.997 1.27987H10.3037C10.2616 1.02535 10.0621 0.828125 9.81104 0.828125H1.56905C0.702487 0.828125 0 1.57643 0 2.49951C0 3.42259 0.702487 4.17089 1.56905 4.17089H9.81104C10.0688 4.17089 10.2728 3.96411 10.3073 3.69956H10.5364C10.9143 3.69956 11.2492 3.95886 11.3658 4.34184L21.5924 37.9891C21.7439 38.4882 22.1805 38.8263 22.6728 38.8263H23.8384C24.925 38.8263 25.663 40.0029 25.2469 41.0726L23.4412 45.7119C23.2959 46.0853 23.3349 46.5113 23.5461 46.8474C23.7568 47.1836 24.1114 47.3852 24.4906 47.3852H27.3082C26.6492 48.1062 26.2413 49.0904 26.2413 50.1778C26.2413 52.3845 27.9224 54.1753 29.994 54.1753C32.0705 54.1753 33.7512 52.3845 33.7512 50.1778C33.7512 49.0904 33.3437 48.1062 32.6838 47.3852H46.9778C46.3184 48.1062 45.9109 49.0904 45.9109 50.1778C45.9109 52.3845 47.592 54.1753 49.6636 54.1753C51.7397 54.1753 53.4208 52.3845 53.4208 50.1778C53.4208 49.0904 53.0129 48.1062 52.3534 47.3852H54.7984C55.3924 47.3852 55.934 46.9296 55.9932 46.2997C56.0613 45.5753 55.5292 44.965 54.863 44.965H26.7174C26.4668 44.965 26.2968 44.6938 26.3928 44.4473L27.4405 41.7555ZM49.6632 48.4357C50.5674 48.4357 51.2941 49.2151 51.2941 50.1778C51.2941 51.1362 50.5674 51.9151 49.6632 51.9151C48.7634 51.9151 48.0322 51.1357 48.0322 50.1778C48.0322 49.2151 48.7634 48.4357 49.6632 48.4357ZM29.9935 48.4357C30.8978 48.4357 31.6245 49.2151 31.6245 50.1778C31.6245 51.1362 30.8973 51.9151 29.9935 51.9151C29.0938 51.9151 28.3626 51.1357 28.3626 50.1778C28.3626 49.2151 29.0942 48.4357 29.9935 48.4357ZM24.0634 36.4066C23.7272 36.4066 23.4291 36.1754 23.3251 35.8345L22.9086 34.4644H31.2102C31.4433 34.4644 31.6321 34.2634 31.6321 34.0151C31.6321 33.7667 31.4429 33.5657 31.2102 33.5657H22.6356L22.0739 31.7176H26.9455C27.1787 31.7176 27.3674 31.5166 27.3674 31.2683C27.3674 31.0199 27.1787 30.8189 26.9455 30.8189H21.8004L17.2874 15.9704C17.1887 15.6452 17.416 15.3123 17.737 15.3123H57.5837C57.9043 15.3123 58.132 15.6456 58.0334 15.9704L57.6205 17.328H38.5745C38.3413 17.328 38.1526 17.5295 38.1526 17.7774C38.1526 18.0257 38.3413 18.2267 38.5745 18.2267H57.347L56.7853 20.0748H42.8391C42.606 20.0748 42.4173 20.2763 42.4173 20.5242C42.4173 20.7725 42.6065 20.9735 42.8391 20.9735H56.5118L55.9501 22.8216H47.1038C46.8707 22.8216 46.682 23.0226 46.682 23.271C46.682 23.5193 46.8707 23.7203 47.1038 23.7203H55.6767L51.9948 35.8335C51.8912 36.1745 51.5931 36.4056 51.2564 36.4056L24.0634 36.4066Z" fill="url(#paint3_linear_3373_94855)"/>
<path id="Vector_5" d="M54.3436 34.8899C48.2332 35.6635 36.0888 29.4316 32.2199 27.3352L31.5296 31.7572L24.9844 18.7969L38.6844 20.7022L34.9097 23.0517C36.8285 24.279 40.9304 26.4805 48.9819 29.3266C54.6126 31.3179 57.1141 30.3581 58.1676 28.6819C59.8442 26.0029 58.6966 23.9925 58.1855 23.3144L59.118 20.2581C62.9599 23.5579 64.3362 33.6244 54.3436 34.8899Z" fill="url(#paint4_linear_3373_94855)"/>
<path id="Vector_6" d="M54.3436 34.8899C48.2332 35.6635 36.0888 29.4316 32.2199 27.3352L31.5296 31.7572L24.9844 18.7969L38.6844 20.7022L34.9097 23.0517C36.8285 24.279 40.9304 26.4805 48.9819 29.3266C51.3086 30.1479 53.1018 30.4679 54.4781 30.4392H54.4825C55.1684 30.4297 55.7557 30.3294 56.2488 30.1623C56.2668 30.1527 56.2847 30.1479 56.3026 30.1384C56.5447 30.0572 56.7599 29.9569 56.9616 29.8423C56.9751 29.8328 56.9885 29.8232 57.002 29.8184C57.5086 29.5176 57.8896 29.126 58.1676 28.6819C59.8442 26.0029 58.6966 23.9925 58.1855 23.3144L58.6966 21.6382L59.118 20.2581C62.9599 23.5579 64.3362 33.6244 54.3436 34.8899Z" fill="url(#paint5_linear_3373_94855)"/>
<path id="Vector_7" d="M54.4824 30.441C55.1683 30.4315 55.7556 30.3312 56.2487 30.1641C55.5494 30.4363 54.9666 30.5174 54.4824 30.441Z" fill="url(#paint6_linear_3373_94855)"/>
<path id="Vector_8" d="M57 29.8247C57.5066 29.5239 57.8876 29.1323 58.1656 28.6882C59.8422 26.0092 58.6946 23.9988 58.1835 23.3207L58.6946 21.6445L58.7125 21.6493C58.7125 21.6493 62.0613 27.2078 57 29.8247Z" fill="url(#paint7_linear_3373_94855)"/>
<path id="Vector_9" d="M61.55 29.8757C60.6848 32.3235 58.4949 34.3693 54.3463 34.8922C48.236 35.6658 36.0915 29.4339 32.2227 27.3375L32.5387 25.3906C32.5387 25.3906 47.5258 33.4658 54.4853 33.3225C60.2863 33.2031 61.4169 30.1989 61.55 29.8757Z" fill="url(#paint8_linear_3373_94855)"/>
<path id="Vector_10" d="M61.5608 29.8398C61.5576 29.8487 61.5527 29.8609 61.5469 29.8754C61.5514 29.8637 61.5567 29.852 61.5608 29.8398Z" fill="url(#paint9_linear_3373_94855)"/>
</g>
<defs>
<linearGradient id="paint0_linear_3373_94855" x1="36.4383" y1="17.7744" x2="37.8536" y2="17.7744" gradientUnits="userSpaceOnUse">
<stop stop-color="#10C8F0"/>
<stop offset="1" stop-color="#2D76E0"/>
</linearGradient>
<linearGradient id="paint1_linear_3373_94855" x1="34.8641" y1="17.7744" x2="36.2793" y2="17.7744" gradientUnits="userSpaceOnUse">
<stop stop-color="#10C8F0"/>
<stop offset="1" stop-color="#2D76E0"/>
</linearGradient>
<linearGradient id="paint2_linear_3373_94855" x1="32.0282" y1="34.0166" x2="33.4434" y2="34.0166" gradientUnits="userSpaceOnUse">
<stop stop-color="#10C8F0"/>
<stop offset="1" stop-color="#2D76E0"/>
</linearGradient>
<linearGradient id="paint3_linear_3373_94855" x1="-19.1216" y1="27.7806" x2="83.0822" y2="27.7806" gradientUnits="userSpaceOnUse">
<stop stop-color="#10C8F0"/>
<stop offset="1" stop-color="#2D76E0"/>
</linearGradient>
<linearGradient id="paint4_linear_3373_94855" x1="13.3682" y1="26.9609" x2="75.456" y2="26.9609" gradientUnits="userSpaceOnUse">
<stop stop-color="#10C8F0"/>
<stop offset="1" stop-color="#2D76E0"/>
</linearGradient>
<linearGradient id="paint5_linear_3373_94855" x1="13.3682" y1="26.9609" x2="75.456" y2="26.9609" gradientUnits="userSpaceOnUse">
<stop stop-color="#10C8F0"/>
<stop offset="1" stop-color="#2D76E0"/>
</linearGradient>
<linearGradient id="paint6_linear_3373_94855" x1="53.9281" y1="30.3178" x2="56.8909" y2="30.3178" gradientUnits="userSpaceOnUse">
<stop stop-color="#10C8F0"/>
<stop offset="1" stop-color="#2D76E0"/>
</linearGradient>
<linearGradient id="paint7_linear_3373_94855" x1="56.1216" y1="25.7774" x2="60.8165" y2="25.7774" gradientUnits="userSpaceOnUse">
<stop stop-color="#10C8F0"/>
<stop offset="1" stop-color="#2D76E0"/>
</linearGradient>
<linearGradient id="paint8_linear_3373_94855" x1="23.019" y1="30.2245" x2="72.2121" y2="30.2245" gradientUnits="userSpaceOnUse">
<stop stop-color="#10C8F0"/>
<stop offset="1" stop-color="#2D76E0"/>
</linearGradient>
<linearGradient id="paint9_linear_3373_94855" x1="61.5425" y1="29.8578" x2="61.5658" y2="29.8578" gradientUnits="userSpaceOnUse">
<stop stop-color="#10C8F0"/>
<stop offset="1" stop-color="#2D76E0"/>
</linearGradient>
</defs>
</svg>
