<svg width="62" height="49" viewBox="0 0 62 49" fill="none" xmlns="http://www.w3.org/2000/svg">
<g id="Group">
<path id="Vector" d="M41.6422 22.5661L20.2579 1.18881C19.3235 0.254771 17.8091 0.254771 16.8752 1.18881L0.700435 17.1623C-0.233478 18.0959 -0.233478 19.6102 0.700435 20.5438L5.32819 25.1701L24.4728 44.2653L41.6426 27.9524C43.1299 26.4652 43.1299 24.0534 41.6422 22.5661Z" fill="#D5E6FF"/>
<path id="Vector_2" d="M61.2992 19.0265L32.9789 47.3996C31.4912 48.8868 29.0786 48.8868 27.5909 47.3996L11.5605 31.3745C13.0483 32.8617 15.4604 32.8617 16.9485 31.3745L45.2689 3.00131C46.2032 2.06727 47.7177 2.06727 48.6516 3.00131L61.2992 15.6449C62.2336 16.5785 62.2336 18.0924 61.2992 19.0265Z" fill="url(#paint0_linear_3265_77251)"/>
<path id="Vector_3" d="M27.3669 12.9796C28.0172 13.6293 28.6529 14.2226 29.2373 14.731C29.9997 15.3945 30.0449 16.5603 29.3304 17.2747L17.8536 28.7481C16.125 30.4763 13.322 30.4763 11.5933 28.7481C9.86472 27.02 9.86472 24.2178 11.5933 22.4896L23.0701 11.0162C23.7846 10.3018 24.9513 10.3471 25.6145 11.1093C26.1239 11.6939 26.717 12.3298 27.3669 12.9796Z" fill="url(#paint1_linear_3265_77251)"/>
</g>
<defs>
<linearGradient id="paint0_linear_3265_77251" x1="-4.26867" y1="25.6495" x2="80.3374" y2="25.6495" gradientUnits="userSpaceOnUse">
<stop offset="0.46255" stop-color="#10C8F0"/>
<stop offset="1" stop-color="#2D76E0"/>
</linearGradient>
<linearGradient id="paint1_linear_3265_77251" x1="4.16408" y1="20.3781" x2="66.999" y2="-5" gradientUnits="userSpaceOnUse">
<stop stop-color="#10C8F0"/>
<stop offset="1" stop-color="#2D76E0"/>
</linearGradient>
</defs>
</svg>
