<svg width="60" height="60" viewBox="0 0 60 60" fill="none" xmlns="http://www.w3.org/2000/svg">
<rect width="60" height="60" rx="8" fill="#E7F0FA" fill-opacity="0.4"/>
<path d="M36 46.125H24C17.07 46.125 15.78 42.9 15.45 39.765L14.325 27.75C14.16 26.175 14.115 23.85 15.675 22.11C17.025 20.61 19.26 19.89 22.5 19.89H37.5C40.755 19.89 42.99 20.625 44.325 22.11C45.885 23.85 45.84 26.175 45.675 27.765L44.55 39.75C44.22 42.9 42.93 46.125 36 46.125ZM22.5 22.125C19.965 22.125 18.225 22.62 17.34 23.61C16.605 24.42 16.365 25.665 16.56 27.525L17.685 39.54C17.94 41.91 18.585 43.875 24 43.875H36C41.4 43.875 42.06 41.91 42.315 39.525L43.44 27.54C43.635 25.665 43.395 24.42 42.66 23.61C41.775 22.62 40.035 22.125 37.5 22.125H22.5Z" fill="#2D76E0"/>
<path d="M36 22.125C35.385 22.125 34.875 21.615 34.875 21V19.8C34.875 17.13 34.875 16.125 31.2 16.125H28.8C25.125 16.125 25.125 17.13 25.125 19.8V21C25.125 21.615 24.615 22.125 24 22.125C23.385 22.125 22.875 21.615 22.875 21V19.8C22.875 17.16 22.875 13.875 28.8 13.875H31.2C37.125 13.875 37.125 17.16 37.125 19.8V21C37.125 21.615 36.615 22.125 36 22.125Z" fill="#2D76E0"/>
<path d="M30 37.125C25.875 37.125 25.875 34.575 25.875 33.045V31.5C25.875 29.385 26.385 28.875 28.5 28.875H31.5C33.615 28.875 34.125 29.385 34.125 31.5V33C34.125 34.56 34.125 37.125 30 37.125ZM28.125 31.125C28.125 31.245 28.125 31.38 28.125 31.5V33.045C28.125 34.59 28.125 34.875 30 34.875C31.875 34.875 31.875 34.635 31.875 33.03V31.5C31.875 31.38 31.875 31.245 31.875 31.125C31.755 31.125 31.62 31.125 31.5 31.125H28.5C28.38 31.125 28.245 31.125 28.125 31.125Z" fill="#2D76E0"/>
<path d="M33 34.155C32.445 34.155 31.95 33.735 31.89 33.165C31.815 32.55 32.25 31.98 32.865 31.905C36.825 31.41 40.62 29.91 43.815 27.585C44.31 27.21 45.015 27.33 45.39 27.84C45.75 28.335 45.645 29.04 45.135 29.415C41.625 31.965 37.485 33.6 33.135 34.155C33.09 34.155 33.045 34.155 33 34.155Z" fill="#2D76E0"/>
<path d="M27 34.17C26.955 34.17 26.91 34.17 26.865 34.17C22.755 33.705 18.75 32.205 15.285 29.835C14.775 29.49 14.64 28.785 14.985 28.275C15.33 27.765 16.035 27.63 16.545 27.975C19.71 30.135 23.355 31.5 27.105 31.935C27.72 32.01 28.17 32.565 28.095 33.18C28.05 33.75 27.57 34.17 27 34.17Z" fill="#2D76E0"/>
</svg>
