<svg width="50" height="50" viewBox="0 0 50 50" fill="none" xmlns="http://www.w3.org/2000/svg">
<path d="M2.41723 1.44977C2.56128 1.44884 2.56128 1.44884 2.70824 1.4479C2.814 1.44772 2.91977 1.44754 3.02874 1.44735C3.1409 1.44679 3.25305 1.44622 3.36861 1.44564C3.68043 1.44418 3.99224 1.44316 4.30406 1.44234C4.5714 1.44156 4.83873 1.44042 5.10606 1.43927C6.06357 1.43518 7.02108 1.43252 7.97859 1.43013C8.05416 1.42993 8.12972 1.42974 8.20758 1.42954C9.70798 1.42572 11.2084 1.42242 12.7088 1.42026C13.0387 1.41977 13.3685 1.41928 13.6984 1.41878C13.8214 1.41859 13.8214 1.41859 13.9469 1.4184C15.275 1.41631 16.6031 1.41153 17.9312 1.40567C19.2948 1.3997 20.6583 1.39631 22.0218 1.3954C22.7874 1.39483 23.553 1.39309 24.3186 1.38843C24.9706 1.38447 25.6226 1.38282 26.2746 1.3842C26.6072 1.38483 26.9397 1.38436 27.2723 1.38089C27.6332 1.37771 27.9939 1.37874 28.3549 1.38083C28.4595 1.37891 28.5642 1.37698 28.6721 1.375C29.3174 1.38443 29.6526 1.50713 30.1097 1.96893C30.1638 2.02779 30.2179 2.08665 30.2736 2.14729C30.3858 2.25609 30.4984 2.36447 30.6116 2.47221C30.7254 2.5852 30.839 2.69844 30.9524 2.8119C31.0152 2.8744 31.078 2.93689 31.1428 3.00128C31.3475 3.20515 31.552 3.40938 31.7564 3.61366C31.8995 3.75649 32.0427 3.89932 32.1858 4.04214C32.4844 4.34009 32.7827 4.63823 33.0809 4.9365C33.4635 5.31913 33.8468 5.70108 34.2303 6.08286C34.5254 6.37692 34.8201 6.67141 35.1147 6.96603C35.2559 7.10714 35.3973 7.24809 35.5388 7.38887C35.7359 7.58497 35.9323 7.78166 36.1286 7.97853C36.1872 8.03667 36.2459 8.09481 36.3064 8.15472C36.7999 8.65202 36.8315 8.99788 36.8338 9.67307C36.8345 9.75329 36.8351 9.83351 36.8358 9.91616C36.8377 10.1817 36.8389 10.4473 36.8398 10.7128C36.8402 10.8035 36.8406 10.8942 36.841 10.9877C36.8431 11.4675 36.8445 11.9474 36.8454 12.4273C36.8465 12.9231 36.8498 13.4188 36.8537 13.9146C36.8563 14.2958 36.8571 14.6769 36.8574 15.0581C36.8579 15.2409 36.859 15.4237 36.8608 15.6064C36.8632 15.8622 36.8631 16.1178 36.8625 16.3736C36.8643 16.4867 36.8643 16.4867 36.8662 16.6021C36.8628 16.959 36.8264 17.1702 36.6397 17.4779C36.4259 17.6746 36.4259 17.6746 36.0841 17.7296C35.6828 17.6651 35.591 17.6059 35.3517 17.284C35.3151 17.0252 35.3021 16.8076 35.3074 16.5494C35.3073 16.476 35.3073 16.4026 35.3072 16.327C35.3075 16.0849 35.3105 15.843 35.3136 15.601C35.3143 15.4329 35.3148 15.2649 35.3152 15.0969C35.3167 14.655 35.3206 14.2132 35.3249 13.7714C35.3289 13.3204 35.3307 12.8694 35.3326 12.4184C35.3368 11.5337 35.3435 10.6491 35.3517 9.76448C35.2417 9.76545 35.2417 9.76545 35.1295 9.76645C34.437 9.77233 33.7445 9.77678 33.052 9.77966C32.696 9.78118 32.34 9.78325 31.984 9.78658C31.6402 9.78977 31.2964 9.79151 30.9525 9.79227C30.7581 9.79307 30.5637 9.79536 30.3693 9.79767C30.2501 9.79769 30.1309 9.79771 30.008 9.79774C29.9035 9.79839 29.799 9.79904 29.6913 9.79971C29.3317 9.75699 29.1129 9.66881 28.8087 9.47151C27.5968 7.65358 28.4181 5.11341 28.4181 2.92854C19.7814 2.92854 11.1447 2.92854 2.24625 2.92854C2.24625 17.3016 2.24625 31.6746 2.24625 46.4832C18.5851 46.4349 18.5851 46.4349 35.2541 46.3856C35.2863 44.2586 35.3185 42.1317 35.3517 39.9403C35.7423 39.6473 35.7423 39.6473 36.0841 39.5985C36.4259 39.6473 36.4259 39.6473 36.6395 39.8548C36.8507 40.1897 36.8655 40.3768 36.8656 40.7703C36.8669 40.96 36.8669 40.96 36.8683 41.1535C36.8673 41.2909 36.8662 41.4283 36.865 41.5657C36.865 41.7076 36.8652 41.8496 36.8654 41.9915C36.8656 42.2888 36.8643 42.586 36.8621 42.8832C36.8594 43.2625 36.8596 43.6417 36.8609 44.0209C36.8615 44.3141 36.8608 44.6072 36.8596 44.9004C36.8591 45.0401 36.8591 45.1798 36.8595 45.3196C36.8619 46.9936 36.8619 46.9936 36.3853 47.5128C35.9598 47.8876 35.6335 47.9602 35.0828 47.9612C34.965 47.9616 34.8471 47.962 34.7257 47.9625C34.5942 47.9625 34.4628 47.9625 34.3313 47.9624C34.1922 47.9628 34.053 47.9631 33.9139 47.9635C33.5306 47.9645 33.1473 47.9649 32.7641 47.9651C32.3511 47.9655 31.9381 47.9664 31.5251 47.9673C30.5272 47.9692 29.5294 47.9702 28.5316 47.9711C28.0619 47.9715 27.5922 47.972 27.1225 47.9725C25.5615 47.9742 24.0004 47.9756 22.4394 47.9763C22.0342 47.9765 21.6291 47.9767 21.2239 47.9769C21.0728 47.977 21.0728 47.977 20.9187 47.977C19.2868 47.9778 17.6548 47.9803 16.0229 47.9835C14.3481 47.9867 12.6732 47.9885 10.9984 47.9888C10.0578 47.989 9.11716 47.9899 8.17654 47.9924C7.37559 47.9945 6.57466 47.9953 5.77371 47.9943C5.365 47.9939 4.95632 47.9941 4.54761 47.9959C4.17339 47.9977 3.79922 47.9976 3.425 47.9961C3.28968 47.9958 3.15436 47.9963 3.01905 47.9974C1.71056 48.0079 1.71056 48.0079 1.17203 47.5574C0.836358 47.0646 0.724318 46.6987 0.732247 46.099C0.73168 46.0235 0.731112 45.948 0.730527 45.8703C0.729102 45.6176 0.730457 45.3651 0.731801 45.1124C0.731351 44.9294 0.730731 44.7463 0.729955 44.5633C0.728323 44.0604 0.72913 43.5576 0.73034 43.0548C0.731223 42.5125 0.72986 41.9701 0.728785 41.4278C0.727047 40.3654 0.727424 39.3031 0.728556 38.2408C0.729437 37.3775 0.729558 36.5143 0.729132 35.6511C0.729072 35.5283 0.729013 35.4055 0.728951 35.279C0.728826 35.0296 0.728699 34.7802 0.728571 34.5307C0.727488 32.2578 0.728612 29.985 0.730658 27.7121C0.732512 25.637 0.732346 23.562 0.730478 21.4869C0.728386 19.1556 0.727564 16.8244 0.728764 14.4931C0.728888 14.2446 0.729011 13.9961 0.729132 13.7476C0.729193 13.6253 0.729253 13.5031 0.729315 13.3771C0.729652 12.5147 0.729082 11.6522 0.728164 10.7898C0.727069 9.73915 0.727362 8.6885 0.729445 7.63785C0.730473 7.10158 0.730871 6.56534 0.729582 6.02907C0.728421 5.53844 0.729054 5.04784 0.731136 4.55722C0.731573 4.37946 0.731348 4.2017 0.730403 4.02395C0.729219 3.78276 0.73043 3.5417 0.732247 3.30051C0.731333 3.23112 0.730418 3.16172 0.729476 3.09022C0.736849 2.60249 0.869606 2.32938 1.17203 1.95198C1.58073 1.58315 1.87073 1.45196 2.41723 1.44977ZM29.883 4.00276C29.883 5.42073 29.883 6.83869 29.883 8.29963C31.3009 8.29963 32.7189 8.29963 34.1798 8.29963C33.7007 7.73838 33.7007 7.73838 33.1972 7.20674C33.0893 7.09831 33.0893 7.09831 32.9791 6.98769C32.9034 6.91218 32.8277 6.83667 32.7497 6.75888C32.6706 6.67964 32.5914 6.60041 32.5099 6.51877C32.3438 6.35263 32.1776 6.18661 32.0113 6.02071C31.7555 5.76543 31.5002 5.50964 31.245 5.25379C31.0834 5.0922 30.9217 4.93065 30.76 4.76913C30.6449 4.65379 30.6449 4.65379 30.5276 4.53612C30.4571 4.46599 30.3867 4.39586 30.3141 4.3236C30.2519 4.26147 30.1897 4.19934 30.1256 4.13533C30.0014 3.99177 30.0014 3.99177 29.883 4.00276Z" fill="url(#paint0_linear_7236_83847)"/>
<path d="M39.832 20.5585C40.0005 20.7031 40.1674 20.8495 40.3325 20.9979C40.4448 21.0982 40.4448 21.0982 40.5594 21.2005C42.4812 23.0149 43.5203 25.5915 43.6745 28.202C43.7361 30.8862 42.8764 33.3505 41.2114 35.4511C41.5357 35.9582 41.8671 36.4327 42.2757 36.8758C42.3832 37.0136 42.3832 37.0136 42.3832 37.2089C42.4648 37.2004 42.4648 37.2004 42.548 37.1917C43.1811 37.1543 43.5672 37.2764 44.0434 37.6972C44.3609 38.0365 44.6416 38.4016 44.9223 38.7714C45.02 38.8983 45.1178 39.0252 45.2157 39.1521C45.4873 39.5053 45.7573 39.8597 46.0269 40.2146C46.2927 40.5641 46.5597 40.9128 46.8266 41.2616C46.8783 41.3293 46.93 41.3969 46.9833 41.4666C47.2582 41.8264 47.5336 42.1857 47.8097 42.5445C47.8668 42.6189 47.924 42.6933 47.9828 42.7699C48.0917 42.9116 48.2006 43.0531 48.3098 43.1945C49.2302 44.3936 49.2302 44.3936 49.2558 45.235C49.2606 45.3411 49.2654 45.4472 49.2703 45.5566C49.1535 46.3421 48.6321 46.82 48.0229 47.2797C47.9583 47.3298 47.8938 47.3798 47.8273 47.4314C46.8969 48.147 46.2366 48.6521 45.02 48.537C43.9411 48.2434 43.3337 47.078 42.7064 46.2337C42.3771 45.7921 42.0391 45.3576 41.6997 44.9237C41.1146 44.1747 40.5395 43.419 39.9733 42.6556C39.8514 42.492 39.7282 42.3293 39.6046 42.1668C39.5346 42.0736 39.4646 41.9803 39.3925 41.8842C39.303 41.766 39.303 41.766 39.2117 41.6454C38.9189 41.1784 38.8506 40.8244 38.9226 40.285C38.9463 39.5257 38.5037 39.0994 38.0284 38.56C37.7934 38.2831 37.7934 38.2831 37.7934 38.0878C37.6953 38.1267 37.5973 38.1656 37.4962 38.2057C34.6427 39.3185 31.7622 39.3838 28.9256 38.1837C26.4768 37.0871 24.5056 35.0217 23.512 32.5311C22.5672 29.915 22.5539 27.0339 23.663 24.4674C24.887 21.9207 26.8966 19.8244 29.5903 18.8495C33.1543 17.7083 36.8697 18.2034 39.832 20.5585ZM26.4958 22.7313C24.7976 24.6964 24.1475 27.1386 24.3168 29.6893C24.5962 32.0735 25.8638 34.2677 27.7409 35.7562C29.6379 37.1992 32.0289 37.842 34.3953 37.5541C36.7185 37.2212 38.9217 35.9942 40.3582 34.118C41.3879 32.6765 42.1108 30.989 42.1879 29.2011C42.193 29.117 42.198 29.0329 42.2032 28.9462C42.2763 26.6929 41.4435 24.4298 39.9418 22.7557C39.8625 22.6672 39.7832 22.5788 39.7015 22.4876C38.1491 20.8463 35.9694 19.8282 33.7075 19.7086C30.9095 19.6548 28.4384 20.6791 26.4958 22.7313ZM39.4353 36.9159C39.3305 36.9975 39.3305 36.9975 39.2235 37.0807C39.1705 37.123 39.1175 37.1653 39.0629 37.2089C39.1947 37.5835 39.3635 37.8585 39.6123 38.1671C39.6739 38.2443 39.7356 38.3215 39.7992 38.401C39.8463 38.4587 39.8933 38.5165 39.9418 38.5761C40.2144 38.447 40.4553 38.3022 40.6987 38.1244C40.7886 38.0591 40.7886 38.0591 40.8803 37.9924C40.9251 37.9594 40.9699 37.9264 41.0161 37.8925C40.8713 37.5785 40.694 37.313 40.4851 37.038C40.4268 36.9599 40.3685 36.8819 40.3084 36.8015C40.2519 36.7425 40.1954 36.6836 40.1372 36.6229C39.785 36.6229 39.7062 36.7027 39.4353 36.9159ZM41.5471 39.2291C41.4839 39.2809 41.4208 39.3327 41.3558 39.3861C40.9953 39.685 40.6579 39.9972 40.3325 40.3339C40.4726 40.908 40.7805 41.282 41.1442 41.7316C41.2689 41.8887 41.3935 42.0459 41.5181 42.2031C41.5812 42.2823 41.6443 42.3616 41.7094 42.4432C41.9893 42.7967 42.2627 43.155 42.5358 43.5138C42.6401 43.6504 42.7444 43.7869 42.8486 43.9235C43.0094 44.1342 43.17 44.345 43.3306 44.5559C44.2682 45.8598 44.2682 45.8598 45.3129 47.0722C45.7229 47.1168 45.909 47.0347 46.2266 46.7799C46.3418 46.6887 46.3418 46.6887 46.4594 46.5957C46.5383 46.5314 46.6172 46.467 46.6984 46.4008C46.7784 46.3372 46.8584 46.2736 46.9409 46.2081C47.5051 45.8166 47.5051 45.8166 47.7986 45.2464C47.7391 44.8127 47.52 44.5717 47.2416 44.2523C47.1328 44.1222 47.0242 43.9918 46.9159 43.8613C46.8601 43.7947 46.8044 43.7281 46.747 43.6595C46.4901 43.3462 46.2494 43.0216 46.0087 42.6959C45.4731 41.9753 44.9234 41.2662 44.3707 40.5586C43.9942 40.0763 43.6225 39.5905 43.2515 39.104C42.9979 38.7609 42.9979 38.7609 42.6125 38.6268C42.147 38.6936 41.8976 38.9292 41.5471 39.2291Z" fill="url(#paint1_linear_7236_83847)"/>
<path d="M21.075 6.23905C21.4028 6.55694 21.3645 6.78392 21.3867 7.22782C21.4548 7.23776 21.5229 7.24771 21.593 7.25795C22.5477 7.4866 23.3994 8.14917 24.121 8.79032C24.1831 8.84545 24.2452 8.90059 24.3091 8.9574C25.6615 10.2348 26.5096 12.0975 26.6113 13.9478C26.6128 14.0877 26.6128 14.0877 26.6143 14.2305C26.637 14.3413 26.637 14.3413 26.6601 14.4544C26.8411 14.5729 26.8411 14.5729 27.0507 14.6497C27.5855 15.2226 27.788 15.6596 27.7717 16.4369C27.6892 17.0183 27.4143 17.5044 27.008 17.9212C26.5274 18.2025 26.0922 18.2874 25.5394 18.2891C25.414 18.2899 25.2886 18.2908 25.1594 18.2916C25.0216 18.2915 24.8839 18.2915 24.7461 18.2913C24.6001 18.2919 24.4541 18.2926 24.3081 18.2933C23.9124 18.2951 23.5167 18.2955 23.121 18.2956C22.8736 18.2958 22.6261 18.2962 22.3787 18.2967C21.5148 18.2985 20.6508 18.2993 19.7869 18.2992C18.9826 18.299 18.1784 18.3011 17.3742 18.3042C16.6827 18.3068 15.9913 18.3078 15.2998 18.3077C14.8873 18.3076 14.4747 18.3082 14.0622 18.3102C13.6741 18.3121 13.286 18.3121 12.8978 18.3107C12.7558 18.3105 12.6138 18.311 12.4718 18.3122C11.5882 18.3191 10.9522 18.2889 10.2516 17.7087C9.81559 17.1807 9.64009 16.7163 9.67402 16.023C9.752 15.414 10.0173 14.9637 10.4675 14.552C10.6445 14.4544 10.6445 14.4544 10.8398 14.4544C10.8317 14.3436 10.8237 14.2328 10.8154 14.1187C10.8261 12.4075 11.5883 10.7488 12.6953 9.47391C12.7698 9.37522 12.8443 9.27652 12.9211 9.17484C13.6816 8.34361 14.7365 7.60675 15.8061 7.22629C15.8753 7.19457 15.9444 7.16284 16.0156 7.13016C16.0829 6.90294 16.1479 6.67502 16.2109 6.44657C16.5663 6.07027 16.9962 5.91412 17.4804 5.76297C17.565 5.73578 17.565 5.73578 17.6513 5.70804C18.7722 5.49009 20.115 5.59817 21.075 6.23905ZM17.6757 7.32547C17.7147 8.05837 17.7646 8.77864 17.8771 9.50443C18.0604 10.7384 18.0604 10.7384 17.9687 11.1341C17.7932 11.3073 17.7932 11.3073 17.5781 11.427C17.2241 11.4209 17.2241 11.4209 16.8945 11.3294C16.7161 11.0581 16.6638 10.8023 16.6229 10.4837C16.6112 10.3981 16.5995 10.3126 16.5874 10.2245C16.5642 10.0452 16.5411 9.86588 16.518 9.68658C16.5063 9.60117 16.4946 9.51575 16.4825 9.42775C16.4725 9.34995 16.4625 9.27214 16.4522 9.19198C16.413 8.95767 16.413 8.95767 16.2109 8.69266C14.6704 9.37439 13.5264 10.4957 12.7929 12.013C12.5119 12.7409 12.3917 13.3776 12.3046 14.1614C13.0136 14.1614 13.7226 14.1614 14.4531 14.1614C14.4774 13.5363 14.4774 13.5363 14.4998 12.911C14.5032 12.8327 14.5067 12.7544 14.5103 12.6737C14.5134 12.5939 14.5164 12.5141 14.5196 12.4319C14.5535 12.1882 14.6162 12.026 14.746 11.8177C15.0193 11.681 15.225 11.6953 15.5273 11.72C15.8203 12.013 15.8203 12.013 15.9179 14.1614C17.7548 14.1614 19.5917 14.1614 21.4843 14.1614C21.5165 13.4847 21.5488 12.8079 21.582 12.1106C21.9726 11.72 21.9726 11.72 22.2717 11.6773C22.5937 11.7252 22.6605 11.7591 22.8515 12.013C22.8937 12.2435 22.8937 12.2435 22.9015 12.5116C22.9047 12.5981 22.9079 12.6846 22.9113 12.7737C22.9137 12.8832 22.9161 12.9927 22.9186 13.1055C22.9287 13.454 22.9388 13.8024 22.9492 14.1614C23.6581 14.1614 24.3671 14.1614 25.0976 14.1614C25.0265 12.4082 24.2706 10.9959 23.0129 9.79244C22.4284 9.29403 21.83 8.91655 21.0937 8.69266C21.0839 8.76508 21.0741 8.83751 21.064 8.91212C21.0187 9.24004 20.9708 9.56752 20.9228 9.89505C20.9074 10.009 20.8921 10.123 20.8763 10.2405C20.8599 10.3497 20.8435 10.4589 20.8267 10.5714C20.8123 10.6721 20.798 10.7729 20.7833 10.8767C20.6867 11.1865 20.5971 11.277 20.3124 11.427C19.9584 11.4148 19.9584 11.4148 19.6289 11.3294C19.404 10.9922 19.4153 10.925 19.4518 10.5359C19.4622 10.4255 19.4725 10.3151 19.4831 10.2014C19.5866 9.24159 19.7051 8.28343 19.8242 7.32547C19.4274 7.15588 19.1288 7.10374 18.695 7.10575C18.5861 7.10524 18.4772 7.10474 18.365 7.10422C18.0795 7.12902 17.9169 7.17691 17.6757 7.32547ZM11.2926 15.8742C11.2398 15.9535 11.1871 16.0328 11.1328 16.1145C11.2376 16.3992 11.3064 16.5811 11.5234 16.7981C11.782 16.8285 11.782 16.8285 12.0892 16.8242C12.2097 16.8251 12.3302 16.8259 12.4544 16.8268C12.5886 16.8267 12.7229 16.8266 12.8571 16.8265C12.998 16.8271 13.1388 16.8278 13.2796 16.8285C13.6628 16.8302 14.0459 16.8307 14.4291 16.8308C14.7487 16.831 15.0683 16.8317 15.388 16.8324C16.142 16.834 16.896 16.8345 17.65 16.8343C18.4283 16.8342 19.2065 16.8363 19.9848 16.8393C20.6525 16.8419 21.3202 16.843 21.9879 16.8428C22.387 16.8428 22.7859 16.8433 23.1849 16.8454C23.5602 16.8473 23.9355 16.8473 24.3108 16.8459C24.4486 16.8457 24.5864 16.8461 24.7242 16.8473C24.9122 16.8488 25.1002 16.8477 25.2882 16.8464C25.3935 16.8465 25.4987 16.8466 25.6071 16.8467C25.9455 16.7862 26.0634 16.678 26.2695 16.4075C26.2853 16.153 26.2853 16.153 26.1718 15.9192C25.8583 15.6174 25.6277 15.5892 25.1999 15.5877C25.081 15.5866 24.962 15.5855 24.8394 15.5844C24.7078 15.5846 24.5763 15.5849 24.4447 15.5852C24.306 15.5845 24.1672 15.5837 24.0284 15.5827C23.6517 15.5806 23.275 15.5803 22.8983 15.5805C22.5838 15.5805 22.2693 15.5796 21.9548 15.5788C21.2127 15.577 20.4707 15.5767 19.7287 15.5773C18.9633 15.578 18.1979 15.5757 17.4325 15.5721C16.7752 15.5691 16.1179 15.568 15.4606 15.5684C15.0681 15.5686 14.6756 15.5681 14.2831 15.5657C13.914 15.5635 13.5449 15.5637 13.1758 15.5657C13.0404 15.566 12.905 15.5655 12.7696 15.5641C11.9673 15.519 11.9673 15.519 11.2926 15.8742Z" fill="url(#paint2_linear_7236_83847)"/>
<path d="M37.9345 22.9332C39.4326 24.2177 40.4197 25.9803 40.5982 27.9637C40.7387 30.051 40.1422 31.9866 38.7713 33.578C37.4196 35.0833 35.5491 35.9307 33.5362 36.0524C31.6482 36.1131 29.8297 35.4972 28.4054 34.2488C28.2452 34.0978 28.0864 33.9453 27.9293 33.791C27.8609 33.7249 27.7924 33.6588 27.7218 33.5908C26.3458 32.1637 25.8288 30.2079 25.8576 28.2689C25.9282 26.2233 26.8883 24.4802 28.3375 23.0916C31.0724 20.7279 35.1389 20.6929 37.9345 22.9332ZM28.7335 24.7929C27.7136 26.0489 27.1816 27.6901 27.3434 29.2988C27.5749 30.7607 28.1532 31.8628 29.1989 32.9121C29.2589 32.9744 29.319 33.0367 29.3808 33.1009C30.423 34.1029 31.8372 34.5431 33.2577 34.6089C34.8907 34.541 36.4918 33.8327 37.6129 32.6405C38.6993 31.3304 39.2145 29.8399 39.1445 28.1487C38.9603 26.545 38.1572 25.0572 36.9137 24.0254C34.2941 22.1134 30.9773 22.43 28.7335 24.7929Z" fill="url(#paint3_linear_7236_83847)"/>
<path d="M13.0868 40.2952C13.1662 40.2947 13.2456 40.2941 13.3275 40.2936C13.5939 40.2922 13.8603 40.2929 14.1268 40.2936C14.3177 40.293 14.5085 40.2923 14.6994 40.2915C15.2182 40.2898 15.7369 40.2899 16.2556 40.2905C16.6884 40.2908 17.1211 40.2902 17.5538 40.2896C18.5744 40.2882 19.595 40.2884 20.6156 40.2895C21.6694 40.2906 22.7231 40.2892 23.7769 40.2866C24.681 40.2844 25.585 40.2838 26.4891 40.2844C27.0294 40.2847 27.5696 40.2845 28.1099 40.2828C28.6178 40.2813 29.1256 40.2817 29.6335 40.2835C29.8201 40.2839 30.0067 40.2835 30.1933 40.2825C30.4476 40.2812 30.7018 40.2824 30.9562 40.2841C31.0675 40.2827 31.0675 40.2827 31.181 40.2812C31.5166 40.286 31.7056 40.309 31.9794 40.51C32.1985 40.8232 32.1821 41.0346 32.1289 41.4073C31.9797 41.6208 31.9797 41.6208 31.7383 41.7979C31.4636 41.8365 31.2271 41.8511 30.9525 41.8481C30.8327 41.8492 30.8327 41.8492 30.7106 41.8502C30.4428 41.852 30.175 41.851 29.9072 41.85C29.7154 41.8507 29.5235 41.8515 29.3317 41.8525C28.8103 41.8547 28.289 41.8544 27.7676 41.8536C27.3327 41.8531 26.8978 41.8538 26.4629 41.8545C25.4371 41.8562 24.4114 41.8558 23.3856 41.8542C22.3265 41.8525 21.2675 41.8541 20.2084 41.8572C19.2997 41.8598 18.3911 41.8605 17.4824 41.8597C16.9395 41.8592 16.3965 41.8594 15.8535 41.8614C15.3431 41.8632 14.8327 41.8627 14.3222 41.8603C14.1347 41.8598 13.9471 41.8601 13.7596 41.8613C13.5039 41.8629 13.2485 41.8614 12.9929 41.8592C12.9183 41.8604 12.8437 41.8615 12.7668 41.8627C12.3977 41.8562 12.2378 41.8263 11.9626 41.572C11.8164 41.3096 11.8164 41.3096 11.8164 40.9556C11.9141 40.626 11.9141 40.626 12.0666 40.4613C12.4016 40.2808 12.7157 40.2922 13.0868 40.2952Z" fill="url(#paint4_linear_7236_83847)"/>
<path d="M8.99908 21.8271C9.1223 21.8262 9.24553 21.8252 9.37249 21.8242C9.50881 21.8251 9.64513 21.8261 9.78145 21.8271C9.92519 21.8267 10.0689 21.8262 10.2127 21.8255C10.6029 21.8241 10.9931 21.8252 11.3833 21.8268C11.7916 21.8282 12.1999 21.8275 12.6082 21.8272C13.2938 21.8269 13.9795 21.8282 14.6651 21.8305C15.4579 21.8331 16.2507 21.8333 17.0436 21.8321C17.8061 21.8311 18.5686 21.8317 19.3311 21.8331C19.6557 21.8336 19.9803 21.8336 20.3049 21.8332C20.6871 21.8327 21.0692 21.8337 21.4514 21.8358C21.5917 21.8363 21.732 21.8364 21.8723 21.8359C22.0637 21.8353 22.2552 21.8367 22.4466 21.8382C22.6073 21.8386 22.6073 21.8386 22.7713 21.8389C23.0826 21.8809 23.2158 21.9497 23.4377 22.169C23.5542 22.5263 23.5672 22.6866 23.4072 23.0296C23.2424 23.2433 23.2424 23.2433 23.0471 23.3409C22.8564 23.3511 22.6654 23.355 22.4745 23.3559C22.3525 23.3568 22.2305 23.3576 22.1048 23.3585C21.9688 23.3589 21.8329 23.3593 21.6969 23.3598C21.5543 23.3605 21.4117 23.3613 21.2691 23.3622C20.8002 23.3647 20.3312 23.3662 19.8622 23.3676C19.7008 23.3681 19.5395 23.3687 19.3781 23.3692C18.707 23.3713 18.0359 23.3731 17.3648 23.3742C16.4025 23.3758 15.4402 23.3791 14.4779 23.3846C13.8016 23.3884 13.1253 23.3903 12.4489 23.3908C12.0448 23.3912 11.6408 23.3924 11.2367 23.3955C10.8565 23.3985 10.4764 23.3991 10.0962 23.3979C9.95668 23.3979 9.8172 23.3987 9.67773 23.4004C9.48719 23.4027 9.29663 23.4016 9.10608 23.4003C8.99949 23.4006 8.89289 23.4009 8.78306 23.4013C8.3991 23.3205 8.25127 23.1536 8.008 22.8526C7.95306 22.5536 7.95306 22.5536 8.008 22.2667C8.30733 21.8764 8.51636 21.8272 8.99908 21.8271Z" fill="url(#paint5_linear_7236_83847)"/>
<path d="M12.7527 33.8497C12.8421 33.8486 12.9315 33.8475 13.0236 33.8463C13.1697 33.8468 13.1697 33.8468 13.3187 33.8472C13.4218 33.8464 13.5249 33.8456 13.6311 33.8447C13.9722 33.8424 14.3133 33.8423 14.6544 33.8424C14.8913 33.8418 15.1283 33.841 15.3652 33.8402C15.8619 33.8389 16.3587 33.8387 16.8554 33.8393C17.4923 33.8399 18.1291 33.8369 18.766 33.8329C19.2553 33.8304 19.7446 33.8301 20.234 33.8305C20.4688 33.8303 20.7036 33.8294 20.9385 33.8276C21.2667 33.8255 21.5948 33.8264 21.9231 33.8281C22.0203 33.8268 22.1174 33.8256 22.2175 33.8242C22.6705 33.8297 22.8832 33.8396 23.2574 34.114C23.4377 34.3765 23.4377 34.3765 23.4438 34.7305C23.3287 35.0963 23.2695 35.1637 22.9495 35.3531C22.7365 35.3905 22.7365 35.3905 22.5017 35.3916C22.4123 35.3927 22.3229 35.3938 22.2308 35.3949C22.1334 35.3947 22.036 35.3944 21.9357 35.3941C21.8326 35.3949 21.7295 35.3957 21.6233 35.3966C21.2822 35.3989 20.9411 35.399 20.6 35.3988C20.3631 35.3995 20.1261 35.4003 19.8892 35.4011C19.3925 35.4024 18.8957 35.4026 18.399 35.402C17.7621 35.4014 17.1253 35.4044 16.4884 35.4084C15.9991 35.4109 15.5098 35.4112 15.0204 35.4108C14.7856 35.411 14.5508 35.4119 14.3159 35.4136C13.9877 35.4158 13.6596 35.4149 13.3313 35.4132C13.2341 35.4144 13.137 35.4157 13.0369 35.4171C12.5839 35.4115 12.3712 35.4017 11.997 35.1273C11.8167 34.8648 11.8167 34.8648 11.8105 34.5108C11.9698 34.0048 12.2326 33.8522 12.7527 33.8497Z" fill="url(#paint6_linear_7236_83847)"/>
<path d="M36.4254 26.0736C36.7334 26.2762 36.8027 26.413 36.8954 26.7694C36.6854 27.771 35.3484 28.7282 34.6352 29.439C34.4337 29.64 34.2327 29.8416 34.0317 30.0432C33.9032 30.1716 33.7746 30.3001 33.646 30.4285C33.5862 30.4885 33.5264 30.5485 33.4648 30.6103C33.409 30.6658 33.3532 30.7213 33.2957 30.7785C33.2226 30.8515 33.2226 30.8515 33.148 30.9259C32.9261 31.1283 32.7467 31.2427 32.452 31.3043C32.1013 31.2448 32.0268 31.1874 31.7723 30.9564C31.7038 30.8944 31.6353 30.8323 31.5648 30.7684C31.493 30.7015 31.4212 30.6347 31.3473 30.5658C31.2398 30.4656 31.2398 30.4656 31.13 30.3634C30.9092 30.1545 30.6916 29.9425 30.4745 29.7296C30.3997 29.6584 30.3248 29.5872 30.2477 29.5139C29.7134 28.9881 29.7134 28.9881 29.583 28.5783C29.5916 28.2354 29.6502 28.0855 29.8825 27.8314C30.2059 27.7277 30.2059 27.7277 30.5661 27.7338C31.0388 28.003 31.3997 28.3478 31.7746 28.7347C31.8278 28.7889 31.8811 28.843 31.9359 28.8988C32.0657 29.0308 32.1948 29.1635 32.3239 29.2963C32.6068 29.1683 32.8071 29.0321 33.0247 28.8114C33.1117 28.7239 33.1117 28.7239 33.2004 28.6347C33.2619 28.5719 33.3233 28.5091 33.3866 28.4444C33.4507 28.3799 33.5147 28.3154 33.5806 28.2489C33.7847 28.0431 33.9882 27.8366 34.1915 27.63C34.3957 27.4232 34.6 27.2165 34.8046 27.01C34.9318 26.8816 35.0587 26.753 35.1854 26.624C35.2428 26.566 35.3002 26.508 35.3593 26.4482C35.4097 26.3969 35.4601 26.3457 35.5121 26.2929C35.7974 26.0301 36.0497 26.036 36.4254 26.0736Z" fill="url(#paint7_linear_7236_83847)"/>
<path d="M13.1305 27.3042C13.2136 27.3034 13.2967 27.3026 13.3823 27.3017C13.6568 27.2995 13.9313 27.2994 14.2059 27.2995C14.3968 27.2988 14.5878 27.298 14.7787 27.2972C15.1789 27.2959 15.5791 27.2958 15.9793 27.2963C16.492 27.2969 17.0047 27.2939 17.5174 27.29C17.9118 27.2874 18.3061 27.2872 18.7004 27.2875C18.8895 27.2874 19.0785 27.2864 19.2675 27.2847C19.532 27.2825 19.7962 27.2835 20.0606 27.2852C20.1386 27.2839 20.2166 27.2826 20.297 27.2812C20.6905 27.2872 20.8786 27.3299 21.1953 27.571C21.387 27.8335 21.387 27.8335 21.387 28.1875C21.2909 28.5119 21.252 28.6093 20.9964 28.8101C20.7116 28.84 20.4475 28.8521 20.1625 28.8511C20.0774 28.8519 19.9923 28.8528 19.9045 28.8536C19.6226 28.8559 19.3408 28.856 19.0589 28.8559C18.8632 28.8566 18.6675 28.8573 18.4718 28.8581C18.0614 28.8594 17.6511 28.8596 17.2407 28.859C16.7144 28.8584 16.1883 28.8614 15.6621 28.8654C15.2579 28.8679 14.8537 28.8682 14.4494 28.8678C14.2554 28.868 14.0614 28.8689 13.8674 28.8707C13.5961 28.8728 13.3251 28.8719 13.0538 28.8702C12.9735 28.8715 12.8932 28.8728 12.8105 28.8741C12.4278 28.8685 12.2468 28.846 11.9591 28.5843C11.7637 28.2241 11.7994 28.0263 11.9144 27.6382C12.2535 27.2658 12.6601 27.3025 13.1305 27.3042Z" fill="url(#paint8_linear_7236_83847)"/>
<path d="M9.66821 32.7157C9.85132 32.8255 9.85132 32.8255 9.96118 33.0086C10.0266 33.3421 10.0386 33.5724 9.84903 33.8658C9.66625 34.0767 9.47295 34.2742 9.27759 34.4735C9.18421 34.5757 9.09129 34.6783 8.99873 34.7813C7.5856 36.3504 7.5856 36.3504 7.03149 36.512C6.56973 36.3774 6.29357 36.0769 5.95728 35.743C5.87746 35.6657 5.79765 35.5884 5.71542 35.5088C4.99286 34.8 4.99286 34.8 4.9502 34.3392C4.98071 33.9852 4.98071 33.9852 5.1394 33.7472C5.37134 33.5946 5.37134 33.5946 5.63989 33.5274C6.05485 33.6152 6.25131 33.818 6.55008 34.1095C6.73511 34.2751 6.90304 34.374 7.12915 34.4735C7.84012 33.7903 7.84012 33.7903 8.49023 33.0514C8.86173 32.6123 9.11194 32.5618 9.66821 32.7157Z" fill="url(#paint9_linear_7236_83847)"/>
<path d="M9.26694 39C9.57059 39.0614 9.57059 39.0614 9.80862 39.214C10.0214 39.5459 10.0049 39.7459 9.96121 40.1356C9.79973 40.3654 9.65818 40.5347 9.46072 40.7277C9.40864 40.7807 9.35655 40.8337 9.30289 40.8883C9.19113 41.0018 9.07869 41.1146 8.96567 41.2268C8.78372 41.4108 8.60898 41.6001 8.43457 41.7912C8.31692 41.9169 8.19917 42.0426 8.08133 42.1681C8.02731 42.2283 7.97329 42.2886 7.91763 42.3507C7.6267 42.6523 7.46399 42.7627 7.04526 42.8589C6.48037 42.8108 6.13428 42.3789 5.76199 41.9911C5.64851 41.8822 5.64851 41.8822 5.53273 41.771C4.93283 41.1626 4.93283 41.1626 4.91895 40.6823C4.98074 40.3309 4.98074 40.3309 5.18826 40.0807C5.46902 39.9403 5.46902 39.9403 5.74368 39.922C6.13104 40.0663 6.35775 40.286 6.64777 40.5755C6.84792 40.7615 6.84792 40.7615 7.22684 40.7216C7.42249 40.5688 7.42249 40.5688 7.60411 40.3584C7.70995 40.2461 7.70995 40.2461 7.81792 40.1314C7.96452 39.972 8.1105 39.8121 8.25585 39.6516C8.80168 39.0752 8.80168 39.0752 9.26694 39Z" fill="url(#paint10_linear_7236_83847)"/>
<path d="M9.28958 26.2148C9.57034 26.2698 9.57034 26.2698 9.80228 26.4224C10.0314 26.7661 10.0356 26.9369 9.96097 27.344C9.76852 27.6397 9.52776 27.878 9.27737 28.1252C9.15917 28.2436 9.15917 28.2436 9.03857 28.3644C8.87232 28.5304 8.70548 28.6959 8.53809 28.8607C8.26594 29.1372 8.01568 29.4269 7.77057 29.7274C7.51337 29.9885 7.33144 30.0734 6.96338 30.091C6.45755 29.9182 6.14542 29.5677 5.77396 29.1934C5.69742 29.1212 5.62088 29.049 5.54202 28.9746C4.93152 28.3667 4.93152 28.3667 4.9248 27.8876C4.9805 27.5393 4.9805 27.5393 5.07816 27.344C5.41614 27.175 5.69857 27.1362 6.05472 27.2463C6.38365 27.5091 6.66005 27.8061 6.93362 28.1252C7.33548 27.9715 7.57388 27.6785 7.84915 27.3623C8.77179 26.308 8.77179 26.308 9.28958 26.2148Z" fill="url(#paint11_linear_7236_83847)"/>
<defs>
<linearGradient id="paint0_linear_7236_83847" x1="18.7979" y1="1.375" x2="18.7979" y2="48" gradientUnits="userSpaceOnUse">
<stop stop-color="#2E6AC0"/>
<stop offset="1" stop-color="#19B9C4"/>
</linearGradient>
<linearGradient id="paint1_linear_7236_83847" x1="36.0434" y1="18.2617" x2="36.0434" y2="48.5534" gradientUnits="userSpaceOnUse">
<stop stop-color="#2E6AC0"/>
<stop offset="1" stop-color="#19B9C4"/>
</linearGradient>
<linearGradient id="paint2_linear_7236_83847" x1="18.7213" y1="5.60547" x2="18.7213" y2="18.3129" gradientUnits="userSpaceOnUse">
<stop stop-color="#2E6AC0"/>
<stop offset="1" stop-color="#19B9C4"/>
</linearGradient>
<linearGradient id="paint3_linear_7236_83847" x1="33.2373" y1="21.2852" x2="33.2373" y2="36.0565" gradientUnits="userSpaceOnUse">
<stop stop-color="#2E6AC0"/>
<stop offset="1" stop-color="#19B9C4"/>
</linearGradient>
<linearGradient id="paint4_linear_7236_83847" x1="21.9896" y1="40.2812" x2="21.9896" y2="41.8627" gradientUnits="userSpaceOnUse">
<stop stop-color="#2E6AC0"/>
<stop offset="1" stop-color="#19B9C4"/>
</linearGradient>
<linearGradient id="paint5_linear_7236_83847" x1="15.7465" y1="21.8242" x2="15.7465" y2="23.4017" gradientUnits="userSpaceOnUse">
<stop stop-color="#2E6AC0"/>
<stop offset="1" stop-color="#19B9C4"/>
</linearGradient>
<linearGradient id="paint6_linear_7236_83847" x1="17.6272" y1="33.8242" x2="17.6272" y2="35.4171" gradientUnits="userSpaceOnUse">
<stop stop-color="#2E6AC0"/>
<stop offset="1" stop-color="#19B9C4"/>
</linearGradient>
<linearGradient id="paint7_linear_7236_83847" x1="33.2392" y1="26.0547" x2="33.2392" y2="31.3043" gradientUnits="userSpaceOnUse">
<stop stop-color="#2E6AC0"/>
<stop offset="1" stop-color="#19B9C4"/>
</linearGradient>
<linearGradient id="paint8_linear_7236_83847" x1="16.6037" y1="27.2812" x2="16.6037" y2="28.8741" gradientUnits="userSpaceOnUse">
<stop stop-color="#2E6AC0"/>
<stop offset="1" stop-color="#19B9C4"/>
</linearGradient>
<linearGradient id="paint9_linear_7236_83847" x1="7.47738" y1="32.6367" x2="7.47738" y2="36.512" gradientUnits="userSpaceOnUse">
<stop stop-color="#2E6AC0"/>
<stop offset="1" stop-color="#19B9C4"/>
</linearGradient>
<linearGradient id="paint10_linear_7236_83847" x1="7.45369" y1="39" x2="7.45369" y2="42.8589" gradientUnits="userSpaceOnUse">
<stop stop-color="#2E6AC0"/>
<stop offset="1" stop-color="#19B9C4"/>
</linearGradient>
<linearGradient id="paint11_linear_7236_83847" x1="7.46446" y1="26.2148" x2="7.46446" y2="30.091" gradientUnits="userSpaceOnUse">
<stop stop-color="#2E6AC0"/>
<stop offset="1" stop-color="#19B9C4"/>
</linearGradient>
</defs>
</svg>
