<svg width="60" height="60" viewBox="0 0 60 60" fill="none" xmlns="http://www.w3.org/2000/svg">
<rect width="60" height="60" rx="8" fill="#E7ECFD" fill-opacity="0.4"/>
<path fill-rule="evenodd" clip-rule="evenodd" d="M31.626 14.999L46.236 25.6142C47.23 26.3363 47.454 27.7302 46.7327 28.7257C46.3836 29.2075 45.8669 29.5246 45.2794 29.6183C44.6925 29.7118 44.1024 29.5723 43.6215 29.2228L30.44 19.6455C30.3919 19.6106 30.334 19.5917 30.2746 19.5917C30.2151 19.5917 30.1572 19.6106 30.1092 19.6455L16.9273 29.2227C15.9332 29.945 14.5367 29.7201 13.8161 28.7256C13.0947 27.73 13.319 26.3358 14.3131 25.6135L28.9671 14.9674C29.7656 14.3873 30.8339 14.3987 31.6204 14.9947L31.626 14.999ZM32.0642 32.295C32.84 32.295 33.4713 32.9253 33.4713 33.7012V45.4567H27.0778V39.6229L28.0148 38.3209L28.9085 39.5618C28.9345 39.5979 28.9687 39.6273 29.0084 39.6476C29.048 39.6679 29.0919 39.6784 29.1364 39.6784H30.6185C30.6737 39.6785 30.7276 39.6624 30.7737 39.6321C30.8198 39.6017 30.8559 39.5585 30.8775 39.5078L31.7055 37.5629C31.7257 37.515 31.7322 37.4623 31.7244 37.4109C31.7166 37.3594 31.6947 37.3112 31.6612 37.2713L30.2212 35.5726C30.1948 35.5414 30.162 35.5164 30.1249 35.4992C30.0879 35.482 30.0476 35.473 30.0068 35.473H27.0778V33.7012C27.0778 32.9259 27.7086 32.295 28.484 32.295H32.0642ZM16.6548 37.5762C16.6548 38.1204 16.2122 38.5627 15.668 38.5627C15.1239 38.5627 14.6818 38.1202 14.6818 37.5762C14.6818 37.0321 15.1239 36.5896 15.668 36.5896C16.2122 36.5896 16.6548 37.0319 16.6548 37.5762Z" fill="#2D76E0"/>
<path fill-rule="evenodd" clip-rule="evenodd" d="M15.6677 38.2815C15.2789 38.2815 14.9628 37.9651 14.9628 37.5762C14.9628 37.1873 15.2789 36.8709 15.6677 36.8709C16.0568 36.8709 16.3733 37.1873 16.3733 37.5762C16.3733 37.965 16.0568 38.2815 15.6677 38.2815ZM15.6677 35.7459C14.6589 35.7459 13.8376 36.5671 13.8376 37.5762C13.8376 38.5852 14.6589 39.4065 15.6677 39.4065C16.6768 39.4065 17.4981 38.5852 17.4981 37.5762C17.4981 36.5671 16.6768 35.7459 15.6677 35.7459ZM46.5047 28.5606C46.1996 28.9819 45.7491 29.2589 45.2349 29.3404C44.721 29.4227 44.2069 29.2995 43.7866 28.9952L30.605 19.418C30.5088 19.3481 30.3929 19.3105 30.274 19.3104C30.1579 19.3104 30.0418 19.3462 29.9436 19.418L16.7618 28.9952C15.893 29.6245 14.6736 29.4297 14.0436 28.5606C13.4137 27.6909 13.6084 26.4717 14.4781 25.8411L29.1322 15.1949C29.8311 14.6881 30.7626 14.6977 31.4502 15.2189C31.4529 15.2218 31.4566 15.2238 31.4595 15.2259L46.0705 25.8417C46.9399 26.4717 47.135 27.6909 46.5047 28.5606ZM41.3727 42.15V28.6318L30.274 20.5683L19.1756 28.6318V33.6471C19.7764 34.0317 20.2895 34.5562 20.667 35.1918H26.2336V33.7012C26.2336 32.4609 27.2434 31.4512 28.4837 31.4512H32.0639C33.3052 31.4512 34.3146 32.4609 34.3146 33.7012V45.1755H38.3473C40.0156 45.1755 41.3727 43.8184 41.3727 42.15ZM19.1756 42.15V41.5052C19.7764 41.1207 20.2895 40.5961 20.667 39.9598H24.6503C24.7394 39.9599 24.8273 39.9387 24.9066 39.8981C24.9859 39.8575 25.0544 39.7986 25.1064 39.7263L25.7719 38.8023L26.2336 39.4436V45.1755H22.2013C20.5327 45.1755 19.1756 43.8184 19.1756 42.15ZM33.1898 45.1755H27.3588V39.7137L28.0146 38.8023L28.6801 39.7263C28.7321 39.7986 28.8006 39.8575 28.8799 39.8982C28.9592 39.9388 29.0471 39.9599 29.1362 39.9598H30.6183C30.7286 39.9599 30.8366 39.9276 30.9286 39.8668C31.0207 39.8061 31.0929 39.7195 31.1361 39.618L31.9641 37.6732C32.0047 37.5772 32.0179 37.4719 32.0023 37.3689C31.9867 37.2659 31.9428 37.1692 31.8755 37.0896L30.4355 35.3909C30.3827 35.3286 30.317 35.2785 30.2429 35.2442C30.1689 35.2098 30.0882 35.1919 30.0066 35.1918H27.3588V33.7012C27.3588 33.0811 27.8637 32.5762 28.4837 32.5762H32.0639C32.6849 32.5762 33.1898 33.0811 33.1898 33.7012V45.1755ZM13.1254 37.5762C13.1254 39.5259 14.7117 41.1123 16.6606 41.1123C18.013 41.1123 19.227 40.3591 19.8298 39.147C19.8763 39.0532 19.948 38.9743 20.037 38.9192C20.1259 38.864 20.2284 38.8348 20.3331 38.8348H24.3621L25.3155 37.5108C25.3675 37.4383 25.4361 37.3793 25.5154 37.3386C25.5948 37.2979 25.6827 37.2766 25.7719 37.2766C25.8611 37.2767 25.9489 37.298 26.0283 37.3387C26.1076 37.3794 26.1761 37.4384 26.2281 37.5108L26.8935 38.4348L27.5586 37.5108C27.6106 37.4384 27.6791 37.3794 27.7584 37.3387C27.8377 37.298 27.9256 37.2767 28.0147 37.2766C28.1039 37.2767 28.1918 37.2979 28.2712 37.3386C28.3506 37.3793 28.4191 37.4383 28.4712 37.5108L29.4245 38.8348H30.2466L30.7929 37.5523L29.746 36.3169H20.333C20.2283 36.317 20.1258 36.2877 20.0369 36.2326C19.9479 36.1774 19.8762 36.0985 19.8298 36.0047C19.227 34.7933 18.013 34.0402 16.6605 34.0402C14.7117 34.0401 13.1254 35.6264 13.1254 37.5762ZM46.7313 24.9312L32.1253 14.3189C31.0403 13.5005 29.5728 13.4856 28.4711 14.2844L13.818 24.9305C12.446 25.9246 12.1388 27.8491 13.1324 29.2209C14.1265 30.592 16.0512 30.8992 17.4228 29.9058V29.905L18.0508 29.4494V33.1247C17.6006 32.9853 17.1319 32.9147 16.6606 32.9152C14.0907 32.9152 12.0006 35.0063 12.0006 37.5762C12.0006 40.1462 14.0908 42.2373 16.6606 42.2373C17.1318 42.2374 17.6005 42.1667 18.0508 42.0278V42.1501C18.0508 44.4387 19.9127 46.3007 22.2013 46.3007H38.3474C40.6359 46.3007 42.4979 44.4388 42.4979 42.1501V29.4496L43.1255 29.906C43.6559 30.2899 44.2795 30.491 44.9214 30.491C45.0846 30.491 45.2482 30.4775 45.413 30.4516C46.2228 30.3222 46.9347 29.8848 47.4153 29.2211C48.4098 27.8491 48.1023 25.9246 46.7313 24.9312Z" fill="#2D76E0"/>
</svg>
