<svg width="40" height="47" viewBox="0 0 40 47" fill="none" xmlns="http://www.w3.org/2000/svg">
<g id="Vector">
<path d="M29.7792 39.8711C17.7343 40.5904 9.07791 33.471 0 26.6436L0 43.9406C0.00205333 44.5815 0.25474 45.1953 0.7029 45.6482C1.15106 46.1014 1.7583 46.3567 2.39209 46.3588H37.6082C38.2418 46.3567 38.849 46.1011 39.2973 45.6482C39.7453 45.195 39.9979 44.5812 40 43.9406V37.7376C37.1604 38.2086 35.0452 39.5567 29.7792 39.8711Z" fill="url(#paint0_linear_3265_103341)"/>
<path d="M33.8271 5.23545H31.1032C30.1212 5.23545 29.3253 6.04013 29.3253 7.03276V9.06779L21.6919 1.35032C21.2425 0.898291 20.6343 0.644531 20.0004 0.644531C19.3664 0.644531 18.7583 0.898291 18.3089 1.35032L1.69303 18.1493C0.679074 19.2893 0.081625 20.7458 0 22.2766L0 25.2357C9.07785 32.0633 20.0953 35.7421 31.41 35.7238C34.2875 35.7243 37.1604 35.4878 40 35.0168V22.2766C39.9174 20.7462 39.3207 19.2901 38.308 18.1493L35.605 15.4166V7.03276C35.605 6.04013 34.8091 5.23545 33.8271 5.23545Z" fill="url(#paint1_linear_3265_103341)"/>
</g>
<defs>
<linearGradient id="paint0_linear_3265_103341" x1="-12.553" y1="23.7407" x2="54.5421" y2="23.7407" gradientUnits="userSpaceOnUse">
<stop offset="0.423152" stop-color="#10C8F0"/>
<stop offset="1" stop-color="#2D76E0"/>
</linearGradient>
<linearGradient id="paint1_linear_3265_103341" x1="-12.553" y1="23.7407" x2="54.5421" y2="23.7407" gradientUnits="userSpaceOnUse">
<stop offset="0.423152" stop-color="#10C8F0"/>
<stop offset="1" stop-color="#2D76E0"/>
</linearGradient>
</defs>
</svg>
