<svg width="60" height="60" viewBox="0 0 60 60" fill="none" xmlns="http://www.w3.org/2000/svg">
<rect width="60" height="60" rx="8" fill="#E7F0FA" fill-opacity="0.4"/>
<g clip-path="url(#clip0_1_222)">
<path d="M26.2812 25.7188H40.4687V26.9688H26.2812V25.7188Z" fill="#94C1FF" stroke="#2D76E0" stroke-width="0.4375"/>
<path d="M26.2812 27.4063H40.4687V28.6562H26.2812V27.4063Z" fill="#94C1FF" stroke="#2D76E0" stroke-width="0.4375"/>
<path d="M26.2812 24.0313H40.4687V25.2812H26.2812V24.0313Z" fill="#94C1FF" stroke="#2D76E0" stroke-width="0.4375"/>
<path d="M25.8437 27.1875V28.6562H24.5937V16.1563H42.1562V28.6562H40.9062V27.1875V25.5V23.8125V22.125V20.4375V18.75V18.5312H40.6874H26.0624H25.8437V18.75V20.4375V22.125V23.8125V25.5V27.1875Z" fill="white" stroke="#2D76E0" stroke-width="0.4375"/>
<path d="M26.2812 22.3438H40.4687V23.5938H26.2812V22.3438Z" fill="#94C1FF" stroke="#2D76E0" stroke-width="0.4375"/>
<path d="M26.2812 18.9688H40.4687V20.2188H26.2812V18.9688Z" fill="#94C1FF" stroke="#2D76E0" stroke-width="0.4375"/>
<path d="M24.0312 14.4688H42.7187V15.7188H42.3749H24.3749H24.0312V14.4688Z" fill="#94C1FF" stroke="#2D76E0" stroke-width="0.4375"/>
<path d="M40.6874 20.4375H26.0624V22.125H40.6874V20.4375Z" fill="#94C1FF"/>
<path d="M18.7499 30.5625V31.125V44.0625V44.625H17.068H17.0624V30.5625H17.068H18.7499Z" fill="white"/>
<path d="M17.0624 44.625V45.75H12.5624V29.4375H17.0624V30.5625V44.625Z" fill="#94C1FF"/>
<path d="M45.1874 33.375C45.6826 33.3747 46.164 33.5378 46.557 33.8391C46.95 34.1404 47.2325 34.563 47.3607 35.0413C47.489 35.5196 47.4557 36.0268 47.2662 36.4843C47.0766 36.9417 46.7414 37.3238 46.3124 37.5712L31.1249 45.75L18.7499 44.0625V31.125H23.2499L32.0755 32.8463C32.5971 32.9374 33.0698 33.2096 33.4104 33.615C33.751 34.0204 33.9376 34.533 33.9374 35.0625L44.8049 33.4088C44.9312 33.3861 45.0592 33.3748 45.1874 33.375Z" fill="#D7E9FF"/>
<path d="M14.2599 44.0625C14.1107 44.0632 13.9674 44.0047 13.8614 43.8997C13.7554 43.7947 13.6954 43.6519 13.6947 43.5027C13.6939 43.3536 13.7525 43.2102 13.8575 43.1042C13.9624 42.9982 14.1052 42.9382 14.2544 42.9375H14.2599C14.4091 42.9375 14.5522 42.9968 14.6577 43.1023C14.7631 43.2077 14.8224 43.3508 14.8224 43.5C14.8224 43.6492 14.7631 43.7923 14.6577 43.8977C14.5522 44.0032 14.4091 44.0625 14.2599 44.0625ZM46.3136 38.1365C46.1899 38.1366 46.0695 38.0958 45.9712 38.0206C45.8729 37.9453 45.8022 37.8397 45.77 37.7202C45.7379 37.6006 45.746 37.4738 45.7933 37.3594C45.8405 37.245 45.9241 37.1493 46.0313 37.0873C46.353 36.9015 46.6044 36.6147 46.7465 36.2714C46.8887 35.9282 46.9136 35.5476 46.8175 35.1888C46.7214 34.8299 46.5095 34.5128 46.2148 34.2866C45.9201 34.0603 45.559 33.9376 45.1875 33.9375C45.0383 33.9375 44.8953 33.8782 44.7898 33.7727C44.6843 33.6673 44.625 33.5242 44.625 33.375C44.625 33.2258 44.6843 33.0827 44.7898 32.9773C44.8953 32.8718 45.0383 32.8125 45.1875 32.8125C45.8066 32.8126 46.4083 33.0169 46.8995 33.3937C47.3906 33.7705 47.7437 34.2989 47.9041 34.8968C48.0644 35.4947 48.023 36.1289 47.7863 36.7009C47.5496 37.2729 47.1309 37.7509 46.5949 38.0607C46.5095 38.1104 46.4125 38.1366 46.3136 38.1365Z" fill="#2D76E0"/>
<path d="M31.1255 46.3125C31.0001 46.3127 30.8783 46.271 30.7794 46.194C30.6804 46.117 30.6101 46.0092 30.5794 45.8877C30.5487 45.7661 30.5595 45.6378 30.6101 45.5231C30.6607 45.4084 30.7481 45.3139 30.8585 45.2545L46.046 37.0774C46.1774 37.0069 46.3315 36.9914 46.4743 37.0344C46.6171 37.0773 46.737 37.1753 46.8076 37.3066C46.8783 37.438 46.8939 37.592 46.8509 37.7349C46.808 37.8777 46.7102 37.9977 46.5788 38.0684L31.3913 46.2455C31.3097 46.2896 31.2183 46.3126 31.1255 46.3125Z" fill="#2D76E0"/>
<path d="M31.1255 46.3125C31.0999 46.3125 31.0744 46.3109 31.0491 46.3076L18.6747 44.6201C18.5269 44.5998 18.3933 44.5218 18.3031 44.403C18.2128 44.2843 18.1735 44.1346 18.1935 43.9868C18.2136 43.839 18.2916 43.7053 18.4102 43.615C18.5288 43.5246 18.6785 43.4851 18.8263 43.505L31.2007 45.1925C31.342 45.2117 31.4708 45.2838 31.5609 45.3943C31.6511 45.5048 31.6959 45.6454 31.6864 45.7877C31.6768 45.9299 31.6136 46.0633 31.5094 46.1607C31.4053 46.2582 31.2681 46.3124 31.1255 46.3125Z" fill="#2D76E0"/>
<path d="M18.7505 45.1864H17.0668C16.9176 45.1864 16.7746 45.1271 16.6691 45.0217C16.5636 44.9162 16.5043 44.7731 16.5043 44.6239C16.5043 44.4747 16.5636 44.3316 16.6691 44.2262C16.7746 44.1207 16.9176 44.0614 17.0668 44.0614H18.188V31.125H17.0668C16.9176 31.125 16.7746 31.0657 16.6691 30.9602C16.5636 30.8548 16.5043 30.7117 16.5043 30.5625C16.5043 30.4133 16.5636 30.2702 16.6691 30.1648C16.7746 30.0593 16.9176 30 17.0668 30H18.7505C18.8244 30 18.8975 30.0145 18.9658 30.0427C19.0341 30.071 19.0961 30.1124 19.1483 30.1647C19.2006 30.2169 19.242 30.2789 19.2703 30.3472C19.2985 30.4155 19.313 30.4886 19.313 30.5625V44.6239C19.313 44.6978 19.2985 44.7709 19.2703 44.8392C19.242 44.9075 19.2006 44.9695 19.1483 45.0217C19.0961 45.074 19.0341 45.1154 18.9658 45.1437C18.8975 45.1719 18.8244 45.1864 18.7505 45.1864ZM33.9369 35.625C33.7951 35.6248 33.6586 35.5712 33.5548 35.4747C33.4509 35.3782 33.3873 35.2461 33.3767 35.1047C33.3661 34.9634 33.4092 34.8232 33.4975 34.7123C33.5858 34.6014 33.7127 34.5279 33.8528 34.5066L44.7189 32.852C44.8663 32.8296 45.0166 32.8667 45.1367 32.9551C45.2568 33.0434 45.3369 33.1759 45.3594 33.3234C45.3818 33.4708 45.3448 33.6211 45.2564 33.7412C45.168 33.8613 45.0355 33.9414 44.8881 33.9639L34.022 35.6184C33.9938 35.6228 33.9654 35.625 33.9369 35.625Z" fill="#2D76E0"/>
<path d="M31.6874 37.875C31.5382 37.875 31.3952 37.8157 31.2897 37.7102C31.1842 37.6048 31.1249 37.4617 31.1249 37.3125C31.1249 37.1633 31.1842 37.0202 31.2897 36.9147C31.3952 36.8093 31.5382 36.75 31.6874 36.75C32.1097 36.7499 32.5166 36.5915 32.8279 36.306C33.1391 36.0206 33.332 35.6288 33.3684 35.2081C33.4049 34.7874 33.2824 34.3682 33.025 34.0335C32.7676 33.6987 32.394 33.4726 31.978 33.3997C31.8311 33.3743 31.7004 33.2915 31.6145 33.1697C31.5286 33.0478 31.4946 32.8969 31.5199 32.75C31.5452 32.6031 31.6278 32.4723 31.7496 32.3862C31.8713 32.3002 32.0222 32.266 32.1692 32.2912C32.8628 32.4119 33.486 32.7883 33.9155 33.3462C34.3451 33.904 34.5499 34.6026 34.4893 35.3041C34.4288 36.0055 34.1074 36.6588 33.5887 37.1348C33.0699 37.6108 32.3915 37.8749 31.6874 37.875Z" fill="#2D76E0"/>
<path d="M32.0747 33.408C32.0383 33.408 32.0021 33.4045 31.9664 33.3975L23.1422 31.6771C22.9958 31.6485 22.8667 31.563 22.7834 31.4392C22.7 31.3155 22.6693 31.1638 22.6978 31.0173C22.7264 30.8709 22.8119 30.7418 22.9357 30.6585C23.0594 30.5752 23.2111 30.5444 23.3576 30.5729L32.1818 32.2934C32.3189 32.3202 32.4412 32.3971 32.5248 32.5091C32.6083 32.6211 32.6472 32.7602 32.6338 32.8993C32.6205 33.0384 32.5558 33.1675 32.4524 33.2615C32.3491 33.3556 32.2144 33.4078 32.0747 33.408Z" fill="#2D76E0"/>
<path d="M23.2499 31.6875H18.7505C18.6013 31.6875 18.4582 31.6282 18.3527 31.5227C18.2473 31.4173 18.188 31.2742 18.188 31.125C18.188 30.9758 18.2473 30.8327 18.3527 30.7273C18.4582 30.6218 18.6013 30.5625 18.7505 30.5625H23.2499C23.3991 30.5625 23.5422 30.6218 23.6477 30.7273C23.7532 30.8327 23.8124 30.9758 23.8124 31.125C23.8124 31.2742 23.7532 31.4173 23.6477 31.5227C23.5422 31.6282 23.3991 31.6875 23.2499 31.6875ZM31.4512 37.8618C31.4369 37.8618 31.4221 37.8613 31.4073 37.8602L24.3315 37.3109C24.1828 37.2993 24.0447 37.2292 23.9477 37.1159C23.8506 37.0026 23.8026 36.8554 23.8141 36.7066C23.8256 36.5579 23.8957 36.4198 24.009 36.3227C24.1223 36.2257 24.2696 36.1776 24.4183 36.1891L31.4941 36.7385C31.6391 36.7496 31.7742 36.8164 31.8709 36.925C31.9677 37.0336 32.0187 37.1754 32.0131 37.3208C32.0076 37.4661 31.946 37.6036 31.8412 37.7045C31.7364 37.8054 31.5967 37.8618 31.4512 37.8618ZM44.8024 33.9694C44.6613 33.9693 44.5253 33.9161 44.4216 33.8205C44.3178 33.7249 44.2538 33.5938 44.2422 33.4532C44.2306 33.3125 44.2722 33.1727 44.3589 33.0613C44.4456 32.95 44.5709 32.8753 44.7101 32.852C44.8678 32.8257 45.0275 32.8125 45.1874 32.8125C45.3366 32.8125 45.4797 32.8718 45.5852 32.9773C45.6907 33.0827 45.7499 33.2258 45.7499 33.375C45.7499 33.5242 45.6907 33.6673 45.5852 33.7727C45.4797 33.8782 45.3366 33.9375 45.1874 33.9375C45.0897 33.9374 44.9921 33.9455 44.8957 33.9617C44.8649 33.9669 44.8336 33.9695 44.8024 33.9694Z" fill="#2D76E0"/>
<path d="M31.6874 37.875C31.5876 37.8752 31.4878 37.8695 31.3886 37.858C31.3152 37.8497 31.2442 37.8271 31.1796 37.7913C31.1149 37.7556 31.058 37.7075 31.012 37.6498C30.966 37.592 30.9318 37.5257 30.9114 37.4548C30.891 37.3838 30.8848 37.3095 30.8931 37.2361C30.9006 37.1624 30.9227 37.091 30.9582 37.026C30.9937 36.9609 31.0418 36.9037 31.0997 36.8575C31.1576 36.8113 31.2242 36.7772 31.2955 36.7572C31.3668 36.7371 31.4414 36.7315 31.5149 36.7407C31.5722 36.7468 31.6298 36.7499 31.6874 36.75C31.8366 36.75 31.9797 36.8093 32.0852 36.9148C32.1907 37.0202 32.2499 37.1633 32.2499 37.3125C32.2499 37.4617 32.1907 37.6048 32.0852 37.7102C31.9797 37.8157 31.8366 37.875 31.6874 37.875ZM17.063 46.3119H12.5624C12.4132 46.3119 12.2702 46.2527 12.1647 46.1472C12.0592 46.0417 11.9999 45.8986 11.9999 45.7494C11.9999 45.6003 12.0592 45.4572 12.1647 45.3517C12.2702 45.2462 12.4132 45.1869 12.5624 45.1869H16.5005V30H12.5624C12.4132 30 12.2702 29.9407 12.1647 29.8352C12.0592 29.7298 11.9999 29.5867 11.9999 29.4375C11.9999 29.2883 12.0592 29.1452 12.1647 29.0398C12.2702 28.9343 12.4132 28.875 12.5624 28.875H17.063C17.1369 28.875 17.21 28.8895 17.2783 28.9177C17.3466 28.946 17.4086 28.9874 17.4608 29.0397C17.5131 29.0919 17.5545 29.1539 17.5828 29.2222C17.611 29.2905 17.6255 29.3636 17.6255 29.4375V45.7494C17.6255 45.8233 17.611 45.8965 17.5828 45.9647C17.5545 46.033 17.5131 46.095 17.4608 46.1473C17.4086 46.1995 17.3466 46.241 17.2783 46.2692C17.21 46.2975 17.1369 46.312 17.063 46.3119ZM42.3749 29.4375H24.3749C24.301 29.4375 24.2279 29.423 24.1596 29.3948C24.0913 29.3665 24.0293 29.3251 23.9771 29.2728C23.9248 29.2206 23.8834 29.1586 23.8552 29.0903C23.8269 29.022 23.8124 28.9489 23.8124 28.875V15.9375C23.8124 15.8636 23.8269 15.7905 23.8552 15.7222C23.8834 15.6539 23.9248 15.5919 23.9771 15.5397C24.0293 15.4874 24.0913 15.446 24.1596 15.4177C24.2279 15.3895 24.301 15.375 24.3749 15.375H42.3749C42.4488 15.375 42.522 15.3895 42.5902 15.4177C42.6585 15.446 42.7205 15.4874 42.7728 15.5397C42.825 15.5919 42.8664 15.6539 42.8947 15.7222C42.9229 15.7905 42.9375 15.8636 42.9374 15.9375V28.875C42.9375 28.9489 42.9229 29.022 42.8947 29.0903C42.8664 29.1586 42.825 29.2206 42.7728 29.2728C42.7205 29.3251 42.6585 29.3665 42.5902 29.3948C42.522 29.423 42.4488 29.4375 42.3749 29.4375ZM24.9374 28.3125H41.8124V16.5H24.9374V28.3125Z" fill="#2D76E0"/>
<path d="M40.6874 29.4375H26.0624C25.9885 29.4375 25.9154 29.423 25.8471 29.3948C25.7788 29.3665 25.7168 29.3251 25.6646 29.2728C25.6123 29.2206 25.5709 29.1586 25.5427 29.0903C25.5144 29.022 25.4999 28.9489 25.4999 28.875V18.75C25.4999 18.6761 25.5144 18.603 25.5427 18.5347C25.5709 18.4664 25.6123 18.4044 25.6646 18.3522C25.7168 18.2999 25.7788 18.2585 25.8471 18.2302C25.9154 18.202 25.9885 18.1875 26.0624 18.1875H40.6874C40.7613 18.1875 40.8345 18.202 40.9027 18.2302C40.971 18.2585 41.033 18.2999 41.0853 18.3522C41.1375 18.4044 41.1789 18.4664 41.2072 18.5347C41.2354 18.603 41.25 18.6761 41.2499 18.75V28.875C41.25 28.9489 41.2354 29.022 41.2072 29.0903C41.1789 29.1586 41.1375 29.2206 41.0853 29.2728C41.033 29.3251 40.971 29.3665 40.9027 29.3948C40.8345 29.423 40.7613 29.4375 40.6874 29.4375ZM26.6249 28.3125H40.1249V19.3125H26.6249V28.3125Z" fill="#2D76E0"/>
<path d="M40.6874 21H26.0624C25.9132 21 25.7702 20.9407 25.6647 20.8352C25.5592 20.7298 25.4999 20.5867 25.4999 20.4375C25.4999 20.2883 25.5592 20.1452 25.6647 20.0398C25.7702 19.9343 25.9132 19.875 26.0624 19.875H40.6874C40.8366 19.875 40.9797 19.9343 41.0852 20.0398C41.1907 20.1452 41.2499 20.2883 41.2499 20.4375C41.2499 20.5867 41.1907 20.7298 41.0852 20.8352C40.9797 20.9407 40.8366 21 40.6874 21ZM40.6874 22.6875H26.0624C25.9132 22.6875 25.7702 22.6282 25.6647 22.5227C25.5592 22.4173 25.4999 22.2742 25.4999 22.125C25.4999 21.9758 25.5592 21.8327 25.6647 21.7273C25.7702 21.6218 25.9132 21.5625 26.0624 21.5625H40.6874C40.8366 21.5625 40.9797 21.6218 41.0852 21.7273C41.1907 21.8327 41.2499 21.9758 41.2499 22.125C41.2499 22.2742 41.1907 22.4173 41.0852 22.5227C40.9797 22.6282 40.8366 22.6875 40.6874 22.6875ZM40.6874 24.375H26.0624C25.9132 24.375 25.7702 24.3157 25.6647 24.2102C25.5592 24.1048 25.4999 23.9617 25.4999 23.8125C25.4999 23.6633 25.5592 23.5202 25.6647 23.4148C25.7702 23.3093 25.9132 23.25 26.0624 23.25H40.6874C40.8366 23.25 40.9797 23.3093 41.0852 23.4148C41.1907 23.5202 41.2499 23.6633 41.2499 23.8125C41.2499 23.9617 41.1907 24.1048 41.0852 24.2102C40.9797 24.3157 40.8366 24.375 40.6874 24.375ZM40.6874 26.0625H26.0624C25.9132 26.0625 25.7702 26.0032 25.6647 25.8977C25.5592 25.7923 25.4999 25.6492 25.4999 25.5C25.4999 25.3508 25.5592 25.2077 25.6647 25.1023C25.7702 24.9968 25.9132 24.9375 26.0624 24.9375H40.6874C40.8366 24.9375 40.9797 24.9968 41.0852 25.1023C41.1907 25.2077 41.2499 25.3508 41.2499 25.5C41.2499 25.6492 41.1907 25.7923 41.0852 25.8977C40.9797 26.0032 40.8366 26.0625 40.6874 26.0625ZM40.6874 27.75H26.0624C25.9132 27.75 25.7702 27.6907 25.6647 27.5852C25.5592 27.4798 25.4999 27.3367 25.4999 27.1875C25.4999 27.0383 25.5592 26.8952 25.6647 26.7898C25.7702 26.6843 25.9132 26.625 26.0624 26.625H40.6874C40.8366 26.625 40.9797 26.6843 41.0852 26.7898C41.1907 26.8952 41.2499 27.0383 41.2499 27.1875C41.2499 27.3367 41.1907 27.4798 41.0852 27.5852C40.9797 27.6907 40.8366 27.75 40.6874 27.75ZM42.9374 16.5H23.8124C23.7385 16.5 23.6654 16.4855 23.5971 16.4573C23.5288 16.429 23.4668 16.3876 23.4146 16.3353C23.3623 16.2831 23.3209 16.2211 23.2927 16.1528C23.2644 16.0845 23.2499 16.0114 23.2499 15.9375V14.25C23.2499 14.1761 23.2644 14.103 23.2927 14.0347C23.3209 13.9664 23.3623 13.9044 23.4146 13.8522C23.4668 13.7999 23.5288 13.7585 23.5971 13.7302C23.6654 13.702 23.7385 13.6875 23.8124 13.6875H42.9374C43.0113 13.6875 43.0845 13.702 43.1527 13.7302C43.221 13.7585 43.283 13.7999 43.3353 13.8522C43.3875 13.9044 43.4289 13.9664 43.4572 14.0347C43.4854 14.103 43.5 14.1761 43.4999 14.25V15.9375C43.5 16.0114 43.4854 16.0845 43.4572 16.1528C43.4289 16.2211 43.3875 16.2831 43.3353 16.3353C43.283 16.3876 43.221 16.429 43.1527 16.4573C43.0845 16.4855 43.0113 16.5 42.9374 16.5ZM24.3749 15.375H42.3749V14.8125H24.3749V15.375ZM42.9374 29.4375H23.8124C23.6632 29.4375 23.5202 29.3782 23.4147 29.2727C23.3092 29.1673 23.2499 29.0242 23.2499 28.875C23.2499 28.7258 23.3092 28.5827 23.4147 28.4773C23.5202 28.3718 23.6632 28.3125 23.8124 28.3125H42.9374C43.0866 28.3125 43.2297 28.3718 43.3352 28.4773C43.4407 28.5827 43.4999 28.7258 43.4999 28.875C43.4999 29.0242 43.4407 29.1673 43.3352 29.2727C43.2297 29.3782 43.0866 29.4375 42.9374 29.4375Z" fill="#2D76E0"/>
</g>
<defs>
<clipPath id="clip0_1_222">
<rect width="36" height="36" fill="white" transform="translate(12 12)"/>
</clipPath>
</defs>
</svg>
