<svg width="40" height="53" viewBox="0 0 40 53" fill="none" xmlns="http://www.w3.org/2000/svg">
<g id="Keywords_Doc_Group_2_">
<g id="Doc_Background_3_">
<path id="Vector" d="M1.44238 52.0912V0.953125H29.761L38.551 9.69986V52.0912H1.44238Z" fill="url(#paint0_linear_3779_80074)"/>
<path id="Vector_2" d="M1.44336 52.0912V0.953125L1.83281 51.5286L38.552 9.69986V52.0912H1.44336Z" fill="#2D76E0"/>
<g id="Group">
<path id="Vector_3" d="M29.5879 1.38554L38.1181 9.87247V51.6576H1.87545V1.38554H29.5879ZM29.9776 0.519531H1.05273V52.5236H38.9841V9.52607L29.9776 0.519531Z" fill="white"/>
</g>
</g>
<path id="Fold_Background_3_" d="M29.8906 0.5625V9.61234H38.9405L29.8906 0.5625Z" fill="#BDDEE0"/>
<path id="Fold_3_" d="M38.8533 10.0011H29.9766C29.7168 10.0011 29.457 9.78462 29.457 9.48151V0.648182C29.457 0.388378 29.6735 0.171875 29.9766 0.171875C30.2364 0.171875 30.4529 0.388378 30.4529 0.648182V9.00521H38.8533C39.1131 9.00521 39.3729 9.22171 39.3729 9.48151C39.3729 9.78462 39.1564 10.0011 38.8533 10.0011Z" fill="#2D76E0"/>
<path id="Document_3_" d="M38.9842 53H1.00951C0.749709 53 0.533203 52.7835 0.533203 52.5237V0.519608C0.533203 0.259804 0.749709 0 1.00951 0H29.9344C30.0643 0 30.1941 0.0433007 30.2808 0.129902L39.3306 9.13644C39.4172 9.22304 39.4605 9.35294 39.4605 9.48284V52.4804C39.5038 52.7835 39.2873 53 38.9842 53ZM1.52912 52.0041H38.5079V9.69935L29.7611 0.995915H1.52912V52.0041Z" fill="#2D76E0"/>
<g id="Paragraph_Group_1_">
<path id="Line_6_2_" d="M33.1403 31.6947H6.77021C6.64031 31.6947 6.55371 31.6081 6.55371 31.4782C6.55371 31.3483 6.64031 31.2617 6.77021 31.2617H33.1403C33.2702 31.2617 33.3568 31.3483 33.3568 31.4782C33.3568 31.6081 33.2702 31.6947 33.1403 31.6947Z" fill="#BDDEE0"/>
<path id="Line_5_1_" d="M33.1403 28.2299H6.77021C6.64031 28.2299 6.55371 28.1433 6.55371 28.0134C6.55371 27.8835 6.64031 27.7969 6.77021 27.7969H33.1403C33.2702 27.7969 33.3568 27.8835 33.3568 28.0134C33.3568 28.1 33.2702 28.2299 33.1403 28.2299Z" fill="#BDDEE0"/>
<path id="Line_4_1_" d="M33.1403 24.7221H6.77021C6.64031 24.7221 6.55371 24.6355 6.55371 24.5056C6.55371 24.3757 6.64031 24.2891 6.77021 24.2891H33.1403C33.2702 24.2891 33.3568 24.3757 33.3568 24.5056C33.3568 24.6355 33.2702 24.7221 33.1403 24.7221Z" fill="#BDDEE0"/>
<path id="Line_3_2_" d="M33.1403 21.2572H6.77021C6.64031 21.2572 6.55371 21.1706 6.55371 21.0407C6.55371 20.9108 6.64031 20.8242 6.77021 20.8242H33.1403C33.2702 20.8242 33.3568 20.9108 33.3568 21.0407C33.3568 21.1706 33.2702 21.2572 33.1403 21.2572Z" fill="#BDDEE0"/>
<path id="Line_2_2_" d="M33.1403 17.7924H6.77021C6.64031 17.7924 6.55371 17.7058 6.55371 17.5759C6.55371 17.446 6.64031 17.3594 6.77021 17.3594H33.1403C33.2702 17.3594 33.3568 17.446 33.3568 17.5759C33.3568 17.7058 33.2702 17.7924 33.1403 17.7924Z" fill="#BDDEE0"/>
<path id="Line_1_2_" d="M33.1403 14.3275H6.77021C6.64031 14.3275 6.55371 14.2409 6.55371 14.111C6.55371 13.9811 6.64031 13.8945 6.77021 13.8945H33.1403C33.2702 13.8945 33.3568 13.9811 33.3568 14.111C33.3568 14.2409 33.2702 14.3275 33.1403 14.3275Z" fill="#BDDEE0"/>
<path id="Title_2_" d="M25.5636 8.65714H14.392C13.9157 8.65714 13.5693 8.26744 13.5693 7.83443C13.5693 7.40142 13.9157 7.01172 14.392 7.01172H25.5636C25.9966 7.01172 26.3863 7.40142 26.3863 7.83443C26.3863 8.31074 26.0399 8.65714 25.5636 8.65714Z" fill="white"/>
</g>
</g>
<defs>
<linearGradient id="paint0_linear_3779_80074" x1="-10.2033" y1="26.7895" x2="52.042" y2="26.7895" gradientUnits="userSpaceOnUse">
<stop stop-color="#10C8F0"/>
<stop offset="1" stop-color="#2D76E0"/>
</linearGradient>
</defs>
</svg>
