<svg width="72" height="47" viewBox="0 0 72 47" fill="none" xmlns="http://www.w3.org/2000/svg">
<g id="Ticketing">
<g id="Group 1000004599">
<path id="Vector" d="M4.16353 24.1129C5.86431 23.5541 7.7174 23.6939 9.31513 24.5014C10.9129 25.309 12.1244 26.7181 12.6831 28.4189C13.2419 30.1197 13.1021 31.9728 12.2946 33.5705C11.487 35.1682 10.0779 36.3797 8.3771 36.9385L9.78162 41.2137C10.1541 42.3475 10.9618 43.287 12.0269 43.8253C13.0921 44.3637 14.3275 44.4569 15.4613 44.0844L49.6629 32.8482C50.7968 32.4757 51.7362 31.668 52.2746 30.6029C52.8129 29.5377 52.9061 28.3023 52.5336 27.1685L51.1291 22.8933C49.4283 23.452 47.5752 23.3123 45.9775 22.5047C44.3798 21.6972 43.1683 20.288 42.6095 18.5873C42.0507 16.8865 42.1905 15.0334 42.998 13.4357C43.8056 11.8379 45.2147 10.6264 46.9155 10.0677L45.511 5.79249C45.1385 4.65864 44.3308 3.7192 43.2657 3.18084C42.2005 2.64249 40.9651 2.54931 39.8313 2.92181L5.62969 14.158C4.49584 14.5305 3.5564 15.3381 3.01804 16.4033C2.47969 17.4685 2.38651 18.7038 2.75901 19.8377L4.16353 24.1129Z" stroke="#D5E6FF" stroke-width="4.5" stroke-linecap="round" stroke-linejoin="round"/>
<path id="Vector_2" d="M41.1455 9.00391V14.0039M41.1455 39.0039V44.0039M41.1455 24.0039V29.0039M68.6455 19.0039C66.6564 19.0039 64.7487 19.7941 63.3422 21.2006C61.9357 22.6071 61.1455 24.5148 61.1455 26.5039C61.1455 28.493 61.9357 30.4007 63.3422 31.8072C64.7487 33.2137 66.6564 34.0039 68.6455 34.0039V39.0039C68.6455 40.33 68.1187 41.6018 67.181 42.5394C66.2434 43.4771 64.9716 44.0039 63.6455 44.0039H23.6455C22.3194 44.0039 21.0477 43.4771 20.11 42.5394C19.1723 41.6018 18.6455 40.33 18.6455 39.0039V34.0039C20.6346 34.0039 22.5423 33.2137 23.9488 31.8072C25.3553 30.4007 26.1455 28.493 26.1455 26.5039C26.1455 24.5148 25.3553 22.6071 23.9488 21.2006C22.5423 19.7941 20.6346 19.0039 18.6455 19.0039V14.0039C18.6455 12.6778 19.1723 11.4061 20.11 10.4684C21.0477 9.53069 22.3194 9.00391 23.6455 9.00391H63.6455C64.9716 9.00391 66.2434 9.53069 67.181 10.4684C68.1187 11.4061 68.6455 12.6778 68.6455 14.0039V19.0039Z" stroke="url(#paint0_linear_4541_164568)" stroke-width="5" stroke-linecap="round" stroke-linejoin="round"/>
</g>
</g>
<defs>
<linearGradient id="paint0_linear_4541_164568" x1="84.3368" y1="26.6869" x2="0.467844" y2="26.6869" gradientUnits="userSpaceOnUse">
<stop stop-color="#10C8F0"/>
<stop offset="1" stop-color="#2D76E0"/>
</linearGradient>
</defs>
</svg>
