<svg width="56" height="55" viewBox="0 0 56 55" fill="none" xmlns="http://www.w3.org/2000/svg">
<g id="Group">
<g id="Group_2">
<path id="Vector" d="M55.1763 23.162C54.6886 20.0424 53.6503 17.0142 52.0874 14.2963C50.5261 11.5792 48.4832 9.16151 46.0948 7.18239C43.7086 5.20174 40.9761 3.66114 38.0723 2.6543C35.1693 1.64362 32.0988 1.17284 29.053 1.2312C28.8763 1.23504 28.7312 1.37636 28.7258 1.55453C28.7204 1.73885 28.8656 1.89245 29.0492 1.89783H29.0522C34.995 2.07293 40.7626 4.43297 45.028 8.40043C47.1669 10.3719 48.9394 12.7188 50.2419 15.2886C51.546 17.8606 52.337 20.666 52.6273 23.4999C53.211 29.1739 51.7618 34.9945 48.494 39.5525C45.2623 44.1259 40.3863 47.4191 35.0641 48.6894C32.4083 49.323 29.6428 49.5211 26.9472 49.1717C24.2569 48.8299 21.6503 48.0135 19.2787 46.7678C14.5233 44.2911 10.7686 40.0717 8.86475 35.1803C7.92549 32.7289 7.44781 30.127 7.43245 27.5273C7.35872 26.2279 7.53612 24.9299 7.71353 23.6558C7.95468 22.3879 8.25574 21.1345 8.70732 19.9326C10.4606 15.1096 14.0026 11.0223 18.4086 8.60471C18.4693 8.57091 18.5422 8.52868 18.6021 8.49182C20.5459 7.28377 21.1427 4.72941 19.9354 2.78562C18.7281 0.841832 16.173 0.245107 14.2292 1.45239L14.1946 1.4739C8.23807 5.17486 3.75222 11.0247 1.74699 17.6325C1.23167 19.2798 0.909874 20.9763 0.688692 22.6767C0.531253 24.3831 0.41375 26.0958 0.582709 27.7976C0.787763 31.1998 1.60338 34.566 2.98884 37.6625C5.78664 43.8533 10.8347 48.8852 16.9026 51.6461C19.93 53.0354 23.1986 53.8633 26.4917 54.1006C29.7849 54.3456 33.1011 53.9355 36.2383 53.0063C42.5274 51.1439 47.9978 46.9491 51.4269 41.5017C54.9044 36.062 56.1586 29.3889 55.1763 23.162Z" fill="url(#paint0_linear_3265_77289)"/>
<path id="Vector_2" d="M19.6545 10.8475C18.1762 11.7522 16.8168 12.8443 15.6379 14.1092C14.2671 15.6083 13.145 17.3294 12.321 19.1818C11.5084 21.0396 11.0192 23.0333 10.8526 25.0462C10.6752 27.0606 10.891 29.0958 11.374 31.0488C12.331 34.9771 14.7233 38.486 17.8874 40.9359C21.0415 43.4373 25.0735 44.6914 29.0525 44.7053C29.3681 44.706 29.6285 44.4534 29.6354 44.1362C29.6423 43.8152 29.3873 43.5494 29.0663 43.5433H29.0525C25.3262 43.465 21.6022 42.24 18.7191 39.8738C15.8269 37.556 13.6796 34.2882 12.8655 30.6802C12.4538 28.8869 12.2833 27.023 12.4761 25.189C12.6589 23.3573 13.1312 21.5572 13.8938 19.8868C14.668 18.2226 15.7071 16.6843 16.9643 15.3518C18.0179 14.2582 19.2206 13.3166 20.5193 12.5379L27.0319 24.2275C26.3307 24.8104 25.8753 25.6782 25.8753 26.6613C25.8753 28.4161 27.2976 29.8392 29.0532 29.8392C30.4886 29.8392 31.6882 28.8808 32.0822 27.5736L41.0601 27.2181C41.219 27.7503 41.7067 28.1404 42.2904 28.1404C43.0023 28.1404 43.5798 27.5629 43.5798 26.851C43.5798 26.139 43.0023 25.5615 42.2904 25.5615C41.7198 25.5615 41.2413 25.9347 41.0716 26.4485L32.1099 25.8357C31.7451 24.4832 30.5217 23.4833 29.054 23.4833C28.7476 23.4833 28.458 23.5401 28.1777 23.6208L22.1206 11.561C22.1498 11.4527 22.1713 11.3406 22.1713 11.2231C22.1713 10.5111 21.5937 9.93359 20.8818 9.93359C20.3012 9.93359 19.8158 10.3199 19.6545 10.8475Z" fill="url(#paint1_linear_3265_77289)"/>
</g>
</g>
<defs>
<linearGradient id="paint0_linear_3265_77289" x1="0.500764" y1="27.5002" x2="55.5001" y2="27.5002" gradientUnits="userSpaceOnUse">
<stop stop-color="#10C8F0"/>
<stop offset="1" stop-color="#2D76E0"/>
</linearGradient>
<linearGradient id="paint1_linear_3265_77289" x1="0.501024" y1="27.5012" x2="55.5003" y2="27.5012" gradientUnits="userSpaceOnUse">
<stop stop-color="#10C8F0"/>
<stop offset="1" stop-color="#2D76E0"/>
</linearGradient>
</defs>
</svg>
