<svg width="73" height="73" viewBox="0 0 73 73" fill="none" xmlns="http://www.w3.org/2000/svg">
<rect width="73" height="72.0852" rx="36.0426" fill="#E48900" fill-opacity="0.05"/>
<circle cx="4.82269" cy="4.82269" r="4.82269" transform="matrix(-1 0 0 1 42.1241 26.0833)" stroke="#E48900" stroke-width="2.125"/>
<path d="M28.8617 42.8841C28.8617 41.8468 29.5138 40.9215 30.4907 40.5726V40.5726C34.8949 38.9996 39.7079 38.9996 44.1122 40.5726V40.5726C45.089 40.9215 45.7411 41.8468 45.7411 42.8841V44.4702C45.7411 45.9018 44.4731 47.0016 43.0558 46.7991L42.5833 46.7316C39.0798 46.2311 35.523 46.2311 32.0195 46.7316L31.547 46.7991C30.1297 47.0016 28.8617 45.9018 28.8617 44.4702V42.8841Z" stroke="#E48900" stroke-width="2.125"/>
<path d="M44.5355 35.8621C46.6282 35.8621 48.3247 34.1656 48.3247 32.0729C48.3247 29.9801 46.6282 28.2836 44.5355 28.2836" stroke="#E48900" stroke-width="2.125" stroke-linecap="round"/>
<path d="M48.6855 44.5071L49.0568 44.5601C50.1704 44.7192 51.1667 43.8551 51.1667 42.7302V41.484C51.1667 40.669 50.6543 39.9419 49.8868 39.6678C49.1211 39.3944 48.3398 39.1814 47.5496 39.029" stroke="#E48900" stroke-width="2.125" stroke-linecap="round"/>
<path d="M29.4645 35.8621C27.3718 35.8621 25.6753 34.1656 25.6753 32.0729C25.6753 29.9801 27.3718 28.2836 29.4645 28.2836" stroke="#E48900" stroke-width="2.125" stroke-linecap="round"/>
<path d="M25.3145 44.5071L24.9432 44.5601C23.8296 44.7192 22.8333 43.8551 22.8333 42.7302V41.484C22.8333 40.669 23.3457 39.9419 24.1132 39.6678C24.8789 39.3944 25.6602 39.1814 26.4504 39.029" stroke="#E48900" stroke-width="2.125" stroke-linecap="round"/>
</svg>
