<svg xmlns="http://www.w3.org/2000/svg" xmlns:xlink="http://www.w3.org/1999/xlink" width="816" height="644" fill="none" xmlns:v="https://vecta.io/nano"><style><![CDATA[.B{fill:#263238}.C{fill:#455a64}.D{fill:#fff}.E{fill:#000}.F{opacity:.2}.G{fill:#ebebeb}.H{fill:#2196f3}.I{fill:#af7e69}.J{fill:#7c5142}.K{fill:#e0e0e0}.L{fill:#f5f5f5}.M{fill:#fafafa}]]></style><g clip-path="url(#A)"><path d="M228.689 537.523l-2.265 2.424-67.721 80.714 150.166.101 41.288-82.806-121.468-.433z" class="G"/><path d="M199.673 541.301l-2.264 2.495-75.436 83.455 146.316.1 52.854-85.603-121.47-.447z" class="M"/><g class="K"><path d="M199.674 541.301h.549 1.658 31.121l88.127.187h.577l-.304.49-52.795 85.56-.115.174H248.23l-126.271-.145h-.721l.476-.533 56.488-62.284 15.863-17.306 4.182-4.557 1.442-1.543-1.442 1.615-4.11 4.615-15.647 17.435-56.242 62.458-.231-.534h126.256 20.06l-.317.173 52.882-85.589.289.504-87.969-.476-24.732-.129-6.518-.072h-1.673l-.621-.043zm55.777 70.666c-.344.033-.693.033-1.038 0h-2.884-10.874l-35.864-.216-35.88-.433-10.903-.173-2.884-.087c-.348.008-.696-.021-1.038-.087.342-.063.691-.088 1.038-.072h2.884 10.86l35.879.217 35.865.432 10.874.217 2.884.101a4.9 4.9 0 0 1 1.081.101zm4.342-9.029c-.334.055-.672.079-1.01.072h-2.885-10.599l-35-.202-34.985-.375-10.6-.216-2.884-.101c-.338-.002-.675-.027-1.01-.072a4.28 4.28 0 0 1 1.01-.072h2.884l10.6-.101 34.999.216 35 .418 10.614.216 2.885.101a4.51 4.51 0 0 1 .981.116zm6.535-9.027c-.331.031-.664.031-.995 0h-2.884-10.412l-34.365-.203-34.351-.417-10.355-.072-2.884-.087a5.97 5.97 0 0 1-.98-.087 4.13 4.13 0 0 1 .98-.072h2.884 10.412l34.366.202 34.351.433 10.412.202 2.884.101c.311-.033.626-.033.937 0zm7.555-8.366a6.23 6.23 0 0 1-.966 0h-2.769-10.209l-33.644-.187-33.674-.289-10.196-.216-2.783-.1c-.323-.003-.646-.027-.966-.072.316-.08.64-.118.966-.116h2.783 10.196l33.659.202 33.659.404 10.195.216 2.769.101c.328-.018.657.001.98.057zm5.58-8.794c-.318.064-.642.088-.966.072h-2.784-10.195l-33.659-.202-33.658-.404-10.196-.216-2.769-.087a4.17 4.17 0 0 1-.966-.087 6.23 6.23 0 0 1 .966 0h2.769 10.21l33.659.188 33.644.418 10.21.217 2.769.086.966.015zm8.234-8.728a6.23 6.23 0 0 1-.966 0h-2.783-10.196l-33.659-.187-33.644-.418-10.21-.217-2.769-.101a7.09 7.09 0 0 1-.966-.072c.318-.064.642-.088.966-.072h2.769 10.21l33.658.187 33.645.419 10.21.217 2.769.1c.327.011.65.059.966.144zm6.044-8.535c-.321.035-.645.035-.966 0h-2.783-10.195l-33.646-.345-33.658-.534-10.196-.26-2.768-.101a4.69 4.69 0 0 1-.967-.1c.322-.025.645-.025.967 0h2.768 10.196l33.658.345 33.66.577 10.195.245 2.769.116a4.28 4.28 0 0 1 .966.057zm9.301-8.091a3.91 3.91 0 0 1-.967 0h-2.739-10.24l-33.658-.347-33.645-.577-10.195-.259-2.784-.101c-.324.008-.649-.021-.966-.087.319-.054.643-.078.966-.072h2.784 10.195l33.659.347 33.644.576 10.211.26 2.768.101a5.64 5.64 0 0 1 .967.159z"/></g><path d="M156.824 280.844c0-10.095 6.129-16.627 14.796-16.627s14.71 6.374 14.71 16.627-6.043 16.627-14.71 16.627-14.796-6.46-14.796-16.627zm20.997 0c0-6.461-2.466-9.561-6.201-9.561s-6.201 3.187-6.201 9.561 2.538 9.561 6.201 9.561 6.201-3.1 6.201-9.561zm29.246-15.95h10.095l-40.61 60.324h-10.095l40.61-60.324zm-9.778 44.373c0-10.094 6.13-16.626 14.71-16.626s14.796 6.46 14.796 16.626-6.129 16.643-14.796 16.643-14.71-6.475-14.71-16.643zm20.911 0c0-6.374-2.466-9.561-6.201-9.561s-6.201 3.101-6.201 9.561 2.552 9.577 6.201 9.577 6.201-3.187 6.201-9.577z" class="G"/><path d="M649.023 46.096c1.983 12.931.085 26.159-5.454 38.011s-14.471 21.793-25.663 28.566a66.1 66.1 0 0 1-37.21 9.482c-13.069-.59-25.668-5.045-36.204-12.801s-18.533-18.461-22.981-30.764-5.144-25.648-2.002-38.348 9.979-24.181 19.649-32.991a66.11 66.11 0 0 1 34.673-16.503c17.311-2.627 34.956 1.727 49.056 12.106a66.04 66.04 0 0 1 26.136 43.242z" class="L"/><path d="M633.478 48.447c1.516 9.856.073 19.941-4.147 28.976a50.38 50.38 0 0 1-47.917 29.017 50.38 50.38 0 0 1-27.599-9.751 50.39 50.39 0 0 1-19.053-52.679c2.393-9.681 7.606-18.433 14.977-25.15s16.569-11.095 26.43-12.581c13.19-1.999 26.634 1.319 37.38 9.225s17.913 19.754 19.929 32.942z" class="G"/><g class="K"><path d="M633.219 46.89c-.288 0-.836-2.105-2.22-5.769a53.03 53.03 0 0 0-8.047-14.421 51.57 51.57 0 0 0-8.003-8.061 50.46 50.46 0 0 0-11.047-6.749 48.08 48.08 0 0 0-6.576-2.394 46.05 46.05 0 0 0-7.139-1.442c-2.5-.324-5.021-.459-7.542-.404a52.42 52.42 0 0 0-7.73.793c-2.548.486-5.058 1.151-7.513 1.99a48.85 48.85 0 0 0-6.85 3.057c-2.156 1.128-4.221 2.425-6.173 3.879a45.4 45.4 0 0 0-5.306 4.557c-3.076 3.05-5.742 6.487-7.932 10.224-1.909 3.27-3.447 6.743-4.586 10.354-1.63 5.281-2.429 10.784-2.365 16.31 0 3.951.274 6.158 0 6.201s-.98-2.077-1.442-6.115a46.52 46.52 0 0 1 1.297-17.147 50.59 50.59 0 0 1 4.414-11.162 51.31 51.31 0 0 1 8.19-11.147 49.63 49.63 0 0 1 5.611-5.018c4.24-3.267 8.971-5.841 14.017-7.629a55.4 55.4 0 0 1 8.104-2.178c2.755-.484 5.54-.764 8.336-.836a52.19 52.19 0 0 1 8.134.49 50.25 50.25 0 0 1 7.671 1.702 49.23 49.23 0 0 1 7.024 2.682 50.48 50.48 0 0 1 19.598 16.368 46.59 46.59 0 0 1 7.297 15.575c.966 3.995 1.01 6.244.778 6.288zm-39.442 37.926l1.442 8.653-7.729 1.283-1.443-8.422c-7.73.793-15.459-.375-20.262-3l2.683-10.095a31.73 31.73 0 0 0 15.863 3.014l-2.134-12.907c-8.927-.678-18.978-1.947-20.81-12.979-1.356-8.206 3.433-16.224 15.416-19.627l-1.442-8.653 7.729-1.283 1.443 8.422c5.58-.606 11.224.12 16.469 2.12l-2.293 10.095c-3.977-1.478-8.206-2.154-12.446-1.99l2.178 13.138c8.913.591 18.747 1.889 20.622 12.792 1.327 8.032-3.404 15.964-15.286 19.44zm-13.441-32.88l-1.831-10.974c-3.937 1.601-5.191 4.11-4.759 6.663s3.057 3.793 6.59 4.312zm16.368 16.426c-.446-2.711-2.884-3.807-6.446-4.413l1.774 10.657c3.779-1.485 5.148-3.778 4.73-6.244h-.058z"/></g><path d="M750.103 431.905c-3.551 9.856-9.948 18.436-18.379 24.654s-18.517 9.797-28.982 10.28-20.839-2.149-29.807-7.565a52.94 52.94 0 0 1-20.573-22.856 52.93 52.93 0 0 1-4.399-30.435 52.95 52.95 0 0 1 13.261-27.745c7.068-7.733 16.272-13.194 26.446-15.694s20.86-1.923 30.707 1.654a52.86 52.86 0 0 1 17.661 10.665c5.129 4.681 9.285 10.327 12.232 16.614a52.87 52.87 0 0 1 4.94 20.032 52.85 52.85 0 0 1-3.107 20.396z" class="L"/><path d="M738.306 427.607c-2.704 7.522-7.58 14.072-14.011 18.821s-14.126 7.482-22.111 7.852a40.38 40.38 0 0 1-38.442-23.207 40.38 40.38 0 0 1-3.35-23.223c1.207-7.902 4.732-15.268 10.128-21.165a40.38 40.38 0 0 1 20.188-11.96c7.764-1.901 15.918-1.454 23.428 1.283a40.29 40.29 0 0 1 22.771 20.794c4.532 9.676 5.036 20.757 1.399 30.805z" class="G"/><g class="K"><path d="M738.724 426.409c-.23-.073.217-1.803.664-4.918.631-4.385.577-8.841-.159-13.209-.521-2.967-1.362-5.868-2.509-8.653a40.2 40.2 0 0 0-5.191-8.97c-2.313-3.046-5.063-5.733-8.163-7.975-1.632-1.183-3.354-2.239-5.149-3.158a41.11 41.11 0 0 0-5.768-2.408 41.83 41.83 0 0 0-6.056-1.442c-1.994-.325-4.009-.494-6.029-.505a36.99 36.99 0 0 0-5.768.404c-1.85.247-3.679.643-5.465 1.182a40.15 40.15 0 0 0-9.504 4.154c-2.601 1.568-5.019 3.42-7.211 5.522-3.181 3.085-5.862 6.647-7.946 10.557-1.442 2.783-2.163 4.427-2.394 4.326s.102-1.832 1.299-4.859c1.761-4.274 4.299-8.186 7.484-11.537 2.212-2.34 4.69-4.411 7.383-6.173 3.118-2.004 6.489-3.585 10.023-4.701a38.02 38.02 0 0 1 5.855-1.37 39 39 0 0 1 6.273-.505 39.84 39.84 0 0 1 6.447.404c4.436.696 8.731 2.103 12.719 4.168 1.933 1.008 3.784 2.166 5.537 3.461a41.22 41.22 0 0 1 8.653 8.652c4.176 5.597 6.829 12.18 7.701 19.108a37.37 37.37 0 0 1-.822 13.758c-.894 3.144-1.73 4.745-1.904 4.687zm-42.252 11.596l-2.308 6.633-5.927-2.062 2.249-6.461c-5.768-2.394-10.743-6.172-13.123-9.864l5.769-6.099c2.597 3.563 6.075 6.391 10.094 8.205l3.433-9.893c-6.028-3.894-12.619-8.653-9.676-17.103 2.177-6.288 8.652-10.095 18.358-7.917l2.278-6.577 5.927 2.062-2.25 6.461a28.32 28.32 0 0 1 10.787 7.787l-5.494 6.259a25.81 25.81 0 0 0-8.004-6.23l-3.49 10.095c6.043 3.822 12.503 8.523 9.604 16.888-2.177 6.142-8.537 9.921-18.227 7.816zm3.158-28.251l2.884-8.422c-3.389-.375-5.235.908-5.913 2.884s.707 3.792 3.029 5.538zm5.249 17.81c.707-2.077-.62-3.794-2.884-5.567l-2.884 8.177c3.259.374 5.104-.707 5.768-2.61z"/></g><path d="M390.508 24.061H62.688v213.62h327.821V24.061z" class="L"/><path d="M376.296 12.51H48.477v213.158h327.819V12.51z" class="G"/><path d="M808 523.232c0 .203-179.111.376-400.018.376S8 523.435 8 523.232s179.073-.388 400.057-.388l399.943.388z" class="B"/><g class="L"><path d="M679.26 616.045l-128.65 4.167-99.751-92.554h125.002l103.399 88.387z"/><path d="M633.213 629.833L504.563 634l-99.751-92.555h125.002l103.399 88.388z"/></g><path d="M654.858 620.66l-128.65 4.168-99.751-92.555h125.002l103.399 88.387z" class="K"/><path d="M535.526 527.658H410.523l99.752 92.554 132.774-4.297-107.523-88.257z" class="L"/><g class="B"><path d="M535.527 527.659l.505.376 1.442 1.196 5.768 4.702 21.949 17.882 77.989 63.842.678.548h-.879l-127.325 4.182-5.436.173h-.159l-.115-.101-99.563-92.568-.592-.563h.808l90.766.144 25.309.087h6.663 2.264-2.307-6.677l-25.338.086-90.68.144.216-.562 99.795 92.526-.275-.102 5.437-.173 127.338-4.081-.201.577-77.745-63.986-21.848-18.055-5.768-4.788-1.442-1.24-.577-.246zm44.821 53.371c0 .217-19.93 1.009-44.533 1.774l-44.561 1.024c-.014-.202 19.93-1.009 44.532-1.774l44.562-1.024zm10.627 7.861c0 .202-20.189.996-45.239 1.76l-45.267 1.009c-.015-.216 20.189-.995 45.253-1.759l45.253-1.01zm11.206 7.96c0 .202-20.392 1.038-45.557 1.846l-45.585 1.096c-.014-.217 20.392-1.024 45.556-1.846l45.586-1.096zm-27.977-22.973c0 .217-20.521 1.039-45.83 1.832l-45.858 1.082c0-.217 20.506-1.024 45.83-1.832l45.858-1.082zm-42.4-29.593c0 .202-19.035.735-42.528 1.197l-42.542.433c-.014-.216 19.037-.735 42.528-1.183l42.542-.447zm10.63 7.905c0 .202-19.613.75-43.826 1.211l-43.854.462c-.014-.216 19.627-.75 43.839-1.211l43.841-.462zm10.629 7.858c0 .216-20.579.778-45.989 1.268l-46.004.505c0-.201 20.58-.779 45.989-1.254l46.004-.519zm10.638 7.931c0 .203-20.593.765-45.988 1.256l-46.018.504c0-.216 20.593-.764 46.004-1.255l46.002-.505zm-38.039-30.846a3.72 3.72 0 0 1-.893.086l-2.553.116-9.403.245-31.019.562-31.034.275h-9.403-2.552a3.83 3.83 0 0 1-.895 0 3.59 3.59 0 0 1 .895-.086l2.552-.117 9.403-.244 31.019-.563 31.006-.346h9.402 2.567c.305-.011.61.013.908.072z"/></g><path d="M485.554 559.702l-32.808-30.038 113.58-4.514 33.371 18.488-114.143 16.064z" class="C"/><path d="M465.987 533.861l6.389 5.466-.029-3.894-6.749-5.048.389 3.476z" class="B"/><path d="M472.275 535.677l9.201-.302-7.398-5.379-8.48.389 6.677 5.292z" class="H"/><g class="B"><path d="M472.273 535.678l.101 3.649 8.984-.578.117-3.374-9.202.303zm9.203-.317c-2.601-1.374-5.08-2.966-7.412-4.759l-.433-.318.23.073a46.92 46.92 0 0 1-8.263 0 47.99 47.99 0 0 1 8.234-.779h.13l.102.072.446.303c2.464 1.612 4.794 3.42 6.966 5.408z"/></g><path d="M472.391 539.324c-.202 0-.39-.807-.419-1.802s.131-1.817.332-1.817.39.807.419 1.802-.173 1.803-.332 1.817z" class="C"/><path d="M481.392 533.572l6.374 5.465-.029-3.894-6.749-5.047.404 3.476z" class="B"/><path d="M487.68 535.389l9.186-.303-7.398-5.379-8.48.39 6.692 5.292z" class="K"/><g class="B"><path d="M487.68 535.388l.086 3.649 8.984-.577.115-3.374-9.185.302z"/><path d="M496.906 535.072a51.61 51.61 0 0 1-7.398-4.759l-.447-.317h.244a47.09 47.09 0 0 1-8.278 0 48 48 0 0 1 8.235-.779h.13l.101.072.447.303c2.475 1.624 4.805 3.458 6.966 5.48z"/></g><path d="M487.733 539.038c-.216 0-.404-.807-.433-1.802s.131-1.818.332-1.818.404.794.419 1.803-.115 1.802-.318 1.817z" class="C"/><path d="M496.127 533.385l6.374 5.466-.029-3.908-6.749-5.033.404 3.475z" class="B"/><path d="M502.414 535.202l9.187-.318-7.398-5.364-8.48.389 6.691 5.293z" class="C"/><g class="B"><path d="M502.414 535.202l.087 3.649 8.985-.591.115-3.375-9.187.317z"/><path d="M511.601 534.884a52.4 52.4 0 0 1-7.398-4.774l-.447-.302.245.072c-2.755.239-5.524.239-8.278 0 2.717-.495 5.473-.751 8.234-.765h.159l.101.073.447.317a51.5 51.5 0 0 1 6.937 5.379z"/></g><path d="M502.475 538.835c-.217 0-.404-.794-.433-1.789s.13-1.817.332-1.831.404.808.418 1.802-.115 1.818-.317 1.818z" class="C"/><path d="M511.47 532.939l6.374 5.465-.028-3.893-6.75-5.048.404 3.476z" class="B"/><path d="M517.758 534.754l9.186-.302-7.398-5.38-8.48.39 6.692 5.292z" class="C"/><g class="B"><path d="M517.758 534.753l.086 3.649 8.984-.577.116-3.374-9.186.302zm9.186-.316a51.61 51.61 0 0 1-7.398-4.759l-.447-.317h.245a47.09 47.09 0 0 1-8.278 0 47.98 47.98 0 0 1 8.234-.779h.131l.1.072.448.303a51.8 51.8 0 0 1 6.965 5.48z"/></g><path d="M517.815 538.417c-.216 0-.404-.808-.433-1.804s.131-1.816.332-1.816.404.793.419 1.802-.115 1.818-.318 1.818z" class="C"/><path d="M527.032 532.548l6.374 5.465-.029-3.893-6.748-5.048.403 3.476z" class="B"/><path d="M533.32 534.38l9.201-.318-7.413-5.378-8.479.389 6.691 5.307z" class="C"/><g class="B"><path d="M533.32 534.38l.088 3.633 8.984-.576.129-3.375-9.201.318z"/><path d="M542.506 534.092a51.84 51.84 0 0 1-7.398-4.759l-.432-.303h.23a47.08 47.08 0 0 1-8.277 0c2.717-.493 5.472-.749 8.234-.764h.129.116l.433.317c2.473 1.636 4.803 3.479 6.965 5.509z"/></g><path d="M533.377 538.015c-.202 0-.404-.793-.419-1.803s.116-1.803.318-1.817.404.808.433 1.803-.13 1.817-.332 1.817z" class="C"/><path d="M541.886 531.857l6.388 5.465-.029-3.893-6.749-5.048.39 3.476z" class="B"/><path d="M548.173 533.672l9.2-.302-7.397-5.38-8.48.39 6.677 5.292z" class="C"/><g class="B"><path d="M548.172 533.673l.102 3.649 8.984-.577.115-3.374-9.201.302zm9.201-.318a51.57 51.57 0 0 1-7.397-4.759l-.448-.317h.232a46.93 46.93 0 0 1-8.264 0 47.98 47.98 0 0 1 8.235-.779h.129l.101.072.447.303c2.468 1.634 4.797 3.466 6.965 5.48z"/></g><path d="M548.23 537.321c-.202 0-.389-.807-.418-1.802s.13-1.818.331-1.818.39.794.418 1.803-.115 1.803-.331 1.817z" class="C"/><path d="M556.42 531.02l6.375 5.466-.029-3.894-6.735-5.047.389 3.475z" class="B"/><path d="M562.708 532.836l9.201-.303-7.413-5.379-8.465.389 6.677 5.293z" class="C"/><g class="B"><path d="M562.707 532.836l.086 3.649 8.986-.577.129-3.375-9.201.303zm9.189-.317a50.23 50.23 0 0 1-7.413-4.759l-.432-.317.23.072a47.08 47.08 0 0 1-8.277 0 48.38 48.38 0 0 1 8.234-.779h.13l.115.072.433.304c2.475 1.601 4.81 3.411 6.98 5.407z"/></g><path d="M562.767 536.485c-.201 0-.404-.808-.418-1.803s.116-1.817.317-1.817.404.793.433 1.802-.129 1.804-.332 1.818z" class="C"/><path d="M476.256 544.128l6.388 5.465-.029-3.893-6.748-5.048.389 3.476z" class="B"/><path d="M482.543 545.945l9.202-.303-7.398-5.378-8.48.388 6.676 5.293z" class="C"/><g class="B"><path d="M482.543 545.945l.101 3.648 8.984-.576.115-3.374-9.2.302zm9.202-.317c-2.601-1.374-5.081-2.966-7.413-4.759l-.433-.317h.231a46.92 46.92 0 0 1-8.263 0 48.08 48.08 0 0 1 8.234-.779h.13l.101.072.447.304c2.467 1.633 4.797 3.466 6.966 5.479z"/></g><path d="M482.601 549.592c-.202 0-.389-.807-.418-1.802s.13-1.817.332-1.817.389.793.418 1.803-.116 1.802-.332 1.816z" class="C"/><path d="M491.658 543.838l6.374 5.466-.029-3.894-6.749-5.047.404 3.475z" class="B"/><path d="M497.946 545.656l9.186-.303-7.398-5.378-8.48.388 6.692 5.293z" class="C"/><g class="B"><path d="M497.945 545.656l.087 3.648 8.984-.576.115-3.374-9.186.302zm9.187-.317a51.69 51.69 0 0 1-7.398-4.758l-.447-.318.245.072a46.9 46.9 0 0 1-8.278 0 48 48 0 0 1 8.235-.778h.129l.102.072.446.302c2.476 1.596 4.807 3.406 6.966 5.408z"/></g><path d="M498.003 549.305c-.216 0-.404-.808-.433-1.802s.13-1.817.332-1.817.404.793.418 1.803-.116 1.802-.317 1.816z" class="C"/><path d="M506.396 543.652l6.374 5.465-.029-3.908-6.749-5.033.404 3.476z" class="B"/><path d="M512.684 545.469l9.186-.317-7.398-5.365-8.48.39 6.692 5.292z" class="C"/><g class="B"><path d="M512.684 545.47l.086 3.648 8.984-.592.116-3.374-9.186.318z"/><path d="M521.87 545.151a54.18 54.18 0 0 1-7.398-4.773l-.448-.303.246.073c-2.754.239-5.524.239-8.278 0a47.1 47.1 0 0 1 8.235-.765h.129l.101.072.447.317a51.56 51.56 0 0 1 6.966 5.379z"/></g><path d="M512.767 549.104c-.216 0-.403-.793-.432-1.788s.13-1.817.332-1.831.404.807.418 1.802-.144 1.817-.318 1.817z" class="C"/><path d="M521.739 543.204l6.374 5.466-.029-3.894-6.748-5.047.403 3.475z" class="B"/><path d="M528.027 545.021l9.186-.302-7.398-5.379-8.479.388 6.691 5.293z" class="C"/><g class="B"><path d="M528.027 545.021l.087 3.649 8.984-.577.115-3.374-9.186.302z"/><path d="M537.285 544.705c-2.597-1.374-5.072-2.966-7.398-4.759l-.448-.318.245.072a46.9 46.9 0 0 1-8.278 0 48 48 0 0 1 8.235-.778h.13l.101.072.446.302c2.47 1.607 4.799 3.416 6.967 5.409z"/></g><path d="M528.081 548.671c-.216 0-.404-.808-.433-1.803s.13-1.817.332-1.817.404.793.418 1.803-.116 1.802-.317 1.817z" class="C"/><path d="M537.299 542.817l6.374 5.465-.029-3.893-6.749-5.034.404 3.462z" class="B"/><path d="M543.586 544.648l9.201-.318-7.413-5.379-8.479.404 6.691 5.293z" class="C"/><g class="B"><path d="M543.586 544.648l.086 3.634 8.985-.577.13-3.375-9.201.318zm9.186-.332a51.53 51.53 0 0 1-7.398-4.76l-.432-.302h.23a47.08 47.08 0 0 1-8.277 0c2.717-.494 5.472-.754 8.234-.779h.13.115l.433.317c2.474 1.64 4.804 3.489 6.965 5.524z"/></g><path d="M543.642 548.282c-.201 0-.404-.794-.418-1.803s.115-1.802.317-1.817.404.807.433 1.803-.13 1.817-.332 1.817z" class="C"/><path d="M552.155 542.122l6.389 5.466-.029-3.894-6.749-5.048.389 3.476z" class="B"/><path d="M558.442 543.941l9.201-.302-7.398-5.379-8.479.388 6.676 5.293z" class="C"/><g class="B"><path d="M558.441 543.939l.101 3.649 8.985-.577.115-3.374-9.201.302zm9.202-.316a52.21 52.21 0 0 1-7.412-4.759l-.433-.318.23.072a46.72 46.72 0 0 1-8.262 0c2.716-.496 5.472-.756 8.233-.778h.131l.101.072.447.302c2.468 1.607 4.798 3.415 6.965 5.409z"/></g><path d="M558.5 547.589c-.202 0-.39-.808-.419-1.803s.131-1.817.333-1.817.389.793.418 1.803-.115 1.802-.332 1.817z" class="C"/><path d="M566.689 541.287l6.374 5.467-.029-3.895-6.749-5.047.404 3.475z" class="B"/><path d="M572.977 543.104l9.2-.303-7.412-5.379-8.48.389 6.692 5.293z" class="C"/><g class="B"><path d="M572.977 543.103l.086 3.649 8.984-.577.131-3.374-9.201.302zm9.186-.359a51.61 51.61 0 0 1-7.398-4.759l-.433-.317.231.072a47.09 47.09 0 0 1-8.278 0c2.717-.503 5.472-.763 8.235-.779h.129.116l.432.303c2.479 1.618 4.809 3.452 6.966 5.48z"/></g><path d="M573.037 546.753c-.203 0-.404-.807-.419-1.803s.115-1.817.318-1.817.403.793.432 1.803-.13 1.802-.331 1.817z" class="C"/><g class="B"><path d="M631.597 535.373l-128.781 7.008-17.103 16.181-32.967-28.9v8.379l34.149 32.721 18.849-18.329 127.813-7.614-1.96-9.446z"/><path d="M486.898 570.764l116.364-6.806 30.299-19.138-130.886 5.134-15.777 20.81z"/></g><g class="C"><path d="M633.561 544.807c-.125.045-.257.07-.389.072l-1.168.1-4.486.332-16.497 1.111-54.468 3.359-50.792 2.885.173-.072-13.858 13.31-3.807 3.606-1.01.909a1.87 1.87 0 0 1-.361.302s.087-.13.304-.36l.952-.981 3.706-3.706 13.685-13.484.072-.072h.101l50.791-3.115 54.469-3.144 16.526-.865 4.485-.187h1.168.404z"/><path d="M505.743 552.434a18.36 18.36 0 0 1-1.832-4.917c-.601-1.654-.975-3.381-1.11-5.134a18.43 18.43 0 0 1 1.832 4.917c.6 1.654.974 3.381 1.11 5.134zM673.878 337.33l-115.585-22.122c-.84-.161-1.642-.486-2.357-.957a6.5 6.5 0 0 1-1.812-1.786c-.48-.708-.817-1.504-.99-2.342a6.54 6.54 0 0 1-.018-2.544l37.192-194.324a9.27 9.27 0 0 1 3.896-5.915c2.03-1.379 4.523-1.896 6.935-1.44l110.205 21.098a9.26 9.26 0 0 1 5.921 3.893c1.379 2.03 1.895 4.526 1.434 6.938l-37.163 194.367a6.53 6.53 0 0 1-2.766 4.153c-.711.476-1.508.808-2.348.977a6.54 6.54 0 0 1-2.544.004z"/></g><g opacity=".4" class="E"><path d="M673.792 337.301l-115.584-22.122a6.51 6.51 0 0 1-2.357-.957c-.716-.47-1.331-1.076-1.812-1.786s-.818-1.503-.99-2.342a6.52 6.52 0 0 1-.019-2.544l37.192-194.324c.462-2.411 1.862-4.541 3.893-5.92a9.26 9.26 0 0 1 6.938-1.435l110.206 21.098c2.409.465 4.536 1.866 5.914 3.895a9.28 9.28 0 0 1 1.441 6.936l-37.192 194.396c-.342 1.685-1.335 3.166-2.764 4.123a6.52 6.52 0 0 1-4.866.982z"/></g><g class="C"><path d="M663.812 335.369l-115.585-22.136a6.52 6.52 0 0 1-2.356-.952 6.5 6.5 0 0 1-1.812-1.782c-.48-.708-.817-1.502-.991-2.34s-.179-1.701-.018-2.541l37.206-194.338c.227-1.195.687-2.333 1.354-3.348a9.23 9.23 0 0 1 2.536-2.573 9.22 9.22 0 0 1 3.329-1.402c1.191-.244 2.418-.25 3.612-.018l110.206 21.084a9.25 9.25 0 0 1 3.346 1.363 9.23 9.23 0 0 1 2.57 2.539 9.26 9.26 0 0 1 1.402 3.33 9.25 9.25 0 0 1 .022 3.613l-37.192 194.324a6.54 6.54 0 0 1-2.746 4.164c-1.429.97-3.186 1.334-4.883 1.013z"/><path d="M608.27 275.895l-36.443-6.978a3.49 3.49 0 0 0-4.085 2.771l-2.351 12.28a3.49 3.49 0 0 0 2.772 4.084l36.442 6.978a3.49 3.49 0 0 0 4.084-2.771l2.352-12.28a3.49 3.49 0 0 0-2.771-4.084z"/></g><g class="F E"><path d="M608.27 275.897l-36.443-6.979a3.49 3.49 0 0 0-4.085 2.772l-2.351 12.28a3.49 3.49 0 0 0 2.772 4.084l36.442 6.978a3.49 3.49 0 0 0 4.084-2.771l2.352-12.28a3.49 3.49 0 0 0-2.771-4.084z"/></g><path d="M588.105 125.025l-8.246 43.059 109.77 21.019 8.245-43.058-109.769-21.02z" class="M"/><path d="M689.584 189.082s0-.275.13-.779.231-1.255.404-2.221l1.615-8.566 5.956-31.524.101.158-109.759-20.954.216-.144-8.249 43.047-.144-.202 78.653 15.142 22.843 4.413 6.114 1.197 1.586.317.548.116-.533-.087-1.558-.288-6.085-1.154-22.829-4.327-78.796-14.997h-.188v-.173l8.234-43.061v-.188h.188l109.745 21.069h.129v.13l-6.115 31.568-1.658 8.522-.447 2.207-.101.779z" class="B"/><use xlink:href="#B" class="C"/><g class="F E"><path d="M598.343 189.462l-12.761-2.443a3 3 0 0 0-3.51 2.382l-2.444 12.761a3 3 0 0 0 2.382 3.511l12.762 2.443a3 3 0 0 0 3.51-2.382l2.443-12.761a3 3 0 0 0-2.382-3.511z"/></g><path d="M595.457 188.915l-12.762-2.443a3 3 0 0 0-3.51 2.382l-2.443 12.761a3 3 0 0 0 2.382 3.511l12.761 2.443a3 3 0 0 0 3.51-2.382l2.445-12.761c.31-1.628-.756-3.199-2.383-3.511z" class="B"/><path d="M589.4 193.249l-1.443 7.772-1.802-.331 1.211-6.331-1.557-.303.274-1.443 3.317.636z" class="D"/><use xlink:href="#C" class="C"/><g class="F E"><use xlink:href="#D"/></g><path d="M621.472 193.893l-12.761-2.445a3 3 0 0 0-3.51 2.382l-2.444 12.763a3 3 0 0 0 2.382 3.509l12.762 2.444a3 3 0 0 0 3.51-2.382l2.443-12.761a3 3 0 0 0-2.382-3.51z" class="B"/><path d="M617.017 205.074l-.274 1.441-5.884-1.124.232-1.168 3.532-2.25c.823-.533 1.01-.908 1.082-1.284.13-.605-.231-1.052-1.053-1.211-.31-.068-.632-.059-.938.023a1.97 1.97 0 0 0-.821.453l-1.154-1.096c.449-.408.993-.699 1.581-.848a3.7 3.7 0 0 1 1.793-.003c1.732.332 2.711 1.442 2.438 2.885a3.15 3.15 0 0 1-.62 1.31 3.14 3.14 0 0 1-1.139.896l-2.12 1.341 3.345.635z" class="D"/><path d="M651.332 199.605l-12.762-2.443a3 3 0 0 0-3.509 2.381l-2.445 12.762a3 3 0 0 0 2.382 3.51l12.762 2.443a3 3 0 0 0 3.51-2.381l2.444-12.762a3 3 0 0 0-2.382-3.51z" class="C"/><g class="F E"><path d="M651.336 199.607l-12.762-2.444a3 3 0 0 0-3.51 2.383l-2.443 12.761a3 3 0 0 0 2.381 3.51l12.762 2.444a3 3 0 0 0 3.51-2.382l2.443-12.761a3 3 0 0 0-2.381-3.511z"/></g><path d="M648.461 199.047l-12.762-2.444a3 3 0 0 0-3.51 2.382l-2.443 12.762a3 3 0 0 0 2.381 3.509l12.762 2.445c1.626.31 3.198-.756 3.51-2.382l2.443-12.763a3 3 0 0 0-2.381-3.509z" class="B"/><path d="M644.043 209.314c-.259 1.312-1.442 2.322-3.707 1.903-1.053-.196-2.025-.697-2.797-1.441l.952-1.255a3.76 3.76 0 0 0 2.091 1.124c.895.174 1.529-.086 1.644-.72s-.246-1.039-1.27-1.226l-.821-.159.23-1.197 1.947-1.442-3.316-.634.273-1.443 5.452 1.039-.231 1.168-2.077 1.702c.547.146 1.018.493 1.32.972a2.25 2.25 0 0 1 .31 1.609z" class="D"/><path d="M678.304 204.761l-12.761-2.443a3 3 0 0 0-3.51 2.382l-2.444 12.761a3 3 0 0 0 2.382 3.51l12.761 2.444a3 3 0 0 0 3.511-2.382l2.444-12.761a3 3 0 0 0-2.383-3.511z" class="C"/><g class="F E"><path d="M678.3 204.761l-12.761-2.443a3 3 0 0 0-3.51 2.382l-2.444 12.761a3 3 0 0 0 2.382 3.51l12.762 2.444a3 3 0 0 0 3.51-2.382l2.443-12.761a3 3 0 0 0-2.382-3.511z"/></g><use xlink:href="#E" class="B"/><g class="D"><path d="M663.229 210.848l-.135.708 8.328 1.595.135-.708-8.328-1.595zm6.108-2.254c-.042.287-.171.554-.368.767s-.454.362-.737.426-.579.043-.85-.063a1.45 1.45 0 0 1-.665-.532 1.44 1.44 0 0 1 .674-2.156c.272-.104.567-.125.85-.058.352.083.659.295.863.594a1.45 1.45 0 0 1 .233 1.022zm-1.383 7.266c-.042.288-.171.556-.367.769s-.455.362-.738.426-.579.042-.85-.064a1.46 1.46 0 0 1-.665-.532c-.163-.241-.249-.524-.248-.815s.089-.573.254-.812.398-.424.669-.528a1.44 1.44 0 0 1 1.712.535c.204.3.287.664.233 1.021z"/></g><g class="F E"><path d="M590.569 235.575l-14.767-2.883a2 2 0 0 1-1.265-.838 1.99 1.99 0 0 1-.307-1.485l2.884-14.767a1.98 1.98 0 0 1 2.308-1.572l14.781 2.885c.256.044.501.14.72.281a1.95 1.95 0 0 1 .853 1.252 1.96 1.96 0 0 1-.001.774l-2.885 14.781c-.1.516-.402.971-.836 1.265a1.99 1.99 0 0 1-1.485.307z"/></g><path d="M590.222 216.24l-12.761-2.444a3 3 0 0 0-3.51 2.383l-2.444 12.761a3 3 0 0 0 2.382 3.51l12.762 2.444a3 3 0 0 0 3.51-2.382l2.443-12.761a3 3 0 0 0-2.382-3.511z" class="B"/><path d="M585.261 227.169l-1.269-.245-.318 1.63-1.744-.332.303-1.63-4.182-.807.23-1.212 4.615-4.225 1.89.36-4.327 4.024 2.091.403.274-1.441 1.702.317-.274 1.442 1.254.245-.245 1.471z" class="D"/><path d="M619.125 221.779l-12.762-2.444a3 3 0 0 0-3.51 2.382l-2.443 12.762a3 3 0 0 0 2.381 3.51l12.762 2.444a3 3 0 0 0 3.51-2.382l2.444-12.762a3 3 0 0 0-2.382-3.51z" class="C"/><g class="F E"><use xlink:href="#F"/></g><path d="M616.254 221.221l-12.762-2.444a3 3 0 0 0-3.51 2.382l-2.443 12.762a3 3 0 0 0 2.381 3.51l12.762 2.443a3 3 0 0 0 3.51-2.381l2.443-12.762a3 3 0 0 0-2.381-3.51z" class="B"/><path d="M611.119 231.248c-.274 1.441-1.514 2.393-3.736 1.96-1.053-.194-2.027-.695-2.797-1.441l.966-1.241a3.82 3.82 0 0 0 2.077 1.125c.909.173 1.529-.101 1.658-.735s-.216-1.082-1.615-1.356l-1.99-.375 1.241-4.326 4.73.908-.275 1.443-3.244-.62-.404 1.442.634.13c2.308.519 3.014 1.73 2.755 3.086z" class="D"/><path d="M646.114 226.935l-12.762-2.443a3 3 0 0 0-3.51 2.381l-2.444 12.762a3 3 0 0 0 2.382 3.51l12.762 2.444a3 3 0 0 0 3.51-2.382l2.443-12.762a3 3 0 0 0-2.381-3.51z" class="C"/><g class="F E"><path d="M646.113 226.935l-12.761-2.443a3 3 0 0 0-3.511 2.382l-2.443 12.761a3 3 0 0 0 2.382 3.51l12.761 2.444a3 3 0 0 0 3.511-2.382l2.444-12.762a3 3 0 0 0-2.383-3.51z"/></g><path d="M643.226 226.388l-12.761-2.443a3 3 0 0 0-3.51 2.382l-2.444 12.761a3 3 0 0 0 2.382 3.51l12.761 2.444a3 3 0 0 0 3.511-2.382l2.443-12.762a3 3 0 0 0-2.382-3.51z" class="B"/><path d="M638.637 236.527c-.082.366-.237.712-.458 1.014a2.73 2.73 0 0 1-.825.747 2.71 2.71 0 0 1-1.055.355c-.372.044-.75.011-1.109-.097-2.134-.403-3.216-2.005-2.726-4.513.045-.557.21-1.097.484-1.584s.65-.907 1.103-1.233.97-.551 1.518-.657 1.112-.092 1.654.041c.76.128 1.472.457 2.063.952l-.924 1.197a2.57 2.57 0 0 0-1.369-.678c-.296-.074-.604-.083-.903-.028s-.583.175-.832.351a2.1 2.1 0 0 0-.611.665c-.154.263-.249.555-.279.858.303-.188.639-.315.991-.372a2.69 2.69 0 0 1 1.057.041c.344.036.676.143.977.312a2.52 2.52 0 0 1 .772.677c.208.275.357.591.438.927a2.51 2.51 0 0 1 .034 1.025zm-1.759-.245c.035-.168.033-.341-.004-.509s-.11-.326-.215-.463a1.2 1.2 0 0 0-.388-.33 1.17 1.17 0 0 0-.49-.14 1.24 1.24 0 0 0-.984.112 1.26 1.26 0 0 0-.376.337 1.23 1.23 0 0 0-.212.46c-.129.663.275 1.239 1.14 1.442a1.21 1.21 0 0 0 .483.03 1.2 1.2 0 0 0 .456-.164 1.21 1.21 0 0 0 .353-.331c.094-.133.159-.285.193-.444h.044z" class="D"/><path d="M673.071 232.104l-12.763-2.445a3 3 0 0 0-3.509 2.382l-2.444 12.762a3 3 0 0 0 2.382 3.51l12.761 2.444a3 3 0 0 0 3.51-2.382l2.444-12.762a3 3 0 0 0-2.381-3.509z" class="C"/><g class="F E"><path d="M673.074 232.103l-12.761-2.443a3 3 0 0 0-3.511 2.381l-2.443 12.762a3 3 0 0 0 2.382 3.51l12.761 2.444a3 3 0 0 0 3.51-2.382l2.444-12.762a3 3 0 0 0-2.382-3.51z"/></g><path d="M670.183 231.557l-12.761-2.445c-1.627-.31-3.199.756-3.511 2.382l-2.443 12.763a3 3 0 0 0 2.382 3.509l12.761 2.444a3 3 0 0 0 3.511-2.382l2.443-12.762a3 3 0 0 0-2.382-3.509z" class="B"/><g class="D"><path d="M665.411 237.004l-7.087 4.656.397.603 7.087-4.656-.397-.603z"/><path d="M659.968 235.914l-.597.405 4.763 7.016.597-.405-4.763-7.016z"/></g><path d="M587.906 243.896l-12.761-2.443a3 3 0 0 0-3.511 2.381l-2.443 12.762a3 3 0 0 0 2.382 3.51l12.761 2.443a3 3 0 0 0 3.511-2.381l2.443-12.762a3 3 0 0 0-2.382-3.51z" class="C"/><g class="F E"><path d="M587.91 243.896l-12.762-2.443a3 3 0 0 0-3.51 2.381l-2.443 12.762a3 3 0 0 0 2.382 3.51l12.761 2.444a3 3 0 0 0 3.51-2.382l2.444-12.762a3 3 0 0 0-2.382-3.51z"/></g><path d="M585.047 243.353l-12.762-2.443a3 3 0 0 0-3.509 2.381l-2.445 12.762a3 3 0 0 0 2.382 3.51l12.762 2.444a3 3 0 0 0 3.51-2.382l2.444-12.762a3 3 0 0 0-2.382-3.51z" class="B"/><path d="M580.213 247.934l-.216 1.168-4.153 6.057-1.962-.375 3.995-5.768-2.581-.491-.23 1.269-1.601-.302.519-2.74 6.229 1.182z" class="D"/><path d="M613.95 248.877l-12.763-2.444a3 3 0 0 0-3.509 2.382l-2.444 12.762a3 3 0 0 0 2.381 3.509l12.762 2.445a3 3 0 0 0 3.51-2.382l2.444-12.762a3 3 0 0 0-2.381-3.51z" class="C"/><g class="F E"><path d="M613.949 248.877l-12.761-2.444a3 3 0 0 0-3.511 2.382l-2.443 12.762a3 3 0 0 0 2.382 3.509l12.761 2.445a3 3 0 0 0 3.51-2.382l2.444-12.763a3 3 0 0 0-2.382-3.509z"/></g><path d="M611.062 248.329l-12.761-2.443a3 3 0 0 0-3.511 2.382l-2.443 12.761a3 3 0 0 0 2.382 3.511l12.761 2.443a3 3 0 0 0 3.511-2.382l2.443-12.761a3 3 0 0 0-2.382-3.511z" class="B"/><path d="M606.549 258.648c-.274 1.442-1.759 2.134-3.735 1.759s-3.101-1.558-2.812-3.013c.063-.389.24-.75.506-1.04s.612-.495.993-.591c-.25-.214-.437-.492-.541-.804s-.121-.648-.05-.969c.26-1.356 1.644-1.976 3.404-1.644s2.883 1.442 2.595 2.797a1.85 1.85 0 0 1-.416.889c-.215.253-.495.445-.81.554a1.98 1.98 0 0 1 .75.898 2 2 0 0 1 .116 1.164zm-1.803-.404c.13-.692-.36-1.226-1.255-1.443s-1.529.145-1.658.837.346 1.226 1.225 1.443 1.529-.116 1.66-.794l.028-.043zm-2.033-3.807c-.116.577.273 1.038 1.009 1.182s1.298-.129 1.442-.72-.302-1.082-1.038-1.213-1.327.174-1.442.794l.029-.043z" class="D"/><path d="M640.922 254.044l-12.762-2.443a3 3 0 0 0-3.51 2.382l-2.444 12.761c-.311 1.627.756 3.199 2.382 3.511l12.762 2.443a3 3 0 0 0 3.51-2.382l2.444-12.761a3 3 0 0 0-2.382-3.511z" class="C"/><g class="F E"><path d="M640.922 254.044l-12.762-2.443a3 3 0 0 0-3.51 2.382l-2.444 12.761c-.311 1.627.756 3.199 2.382 3.511l12.762 2.443a3 3 0 0 0 3.51-2.382l2.443-12.761a3 3 0 0 0-2.381-3.511z"/></g><path d="M638.032 253.496l-12.762-2.444a3 3 0 0 0-3.51 2.383l-2.444 12.761a3 3 0 0 0 2.381 3.511l12.763 2.443a3 3 0 0 0 3.509-2.382l2.444-12.761a3 3 0 0 0-2.381-3.511z" class="B"/><path d="M633.545 261.993c-.047.558-.213 1.098-.488 1.584s-.654.907-1.108 1.234-.972.55-1.521.656a3.87 3.87 0 0 1-1.656-.041 4.23 4.23 0 0 1-2.034-1.01l.923-1.196c.374.364.854.601 1.37.677.295.074.604.084.903.028s.582-.175.832-.35.458-.402.611-.665a2.11 2.11 0 0 0 .279-.859c-.306.187-.645.311-.999.365s-.715.039-1.064-.048a2.48 2.48 0 0 1-1.729-.965 2.5 2.5 0 0 1-.443-.909 2.49 2.49 0 0 1-.048-1.009 2.73 2.73 0 0 1 .457-1.015c.221-.303.502-.557.826-.746s.682-.311 1.054-.355.751-.012 1.11.097c2.134.418 3.201 2.019 2.725 4.527zm-1.76-1.744c.131-.664-.273-1.24-1.125-1.443a1.19 1.19 0 0 0-.5-.047c-.168.02-.331.076-.476.163s-.27.205-.367.344a1.19 1.19 0 0 0-.193.464c-.032.166-.027.338.013.503s.117.319.22.452.236.244.387.323a1.22 1.22 0 0 0 .485.135 1.22 1.22 0 0 0 .496.042c.167-.019.328-.072.474-.155a1.28 1.28 0 0 0 .373-.33 1.23 1.23 0 0 0 .213-.451z" class="D"/><path d="M667.879 259.197l-12.762-2.444a3 3 0 0 0-3.51 2.382l-2.443 12.762a3 3 0 0 0 2.381 3.51l12.762 2.444a3 3 0 0 0 3.51-2.382l2.443-12.762a3 3 0 0 0-2.381-3.51z" class="C"/><g class="F E"><path d="M667.879 259.198l-12.762-2.445a3 3 0 0 0-3.51 2.382l-2.443 12.762a3 3 0 0 0 2.381 3.51l12.762 2.444a3 3 0 0 0 3.51-2.383l2.443-12.761a3 3 0 0 0-2.381-3.509z"/></g><path d="M664.988 258.65l-12.761-2.444a3 3 0 0 0-3.511 2.382l-2.443 12.762a3 3 0 0 0 2.382 3.51l12.761 2.444a3 3 0 0 0 3.511-2.382l2.443-12.762a3 3 0 0 0-2.382-3.51z" class="B"/><path d="M653.305 267.516l-.137.707 8.31 1.611.138-.707-8.311-1.611z" class="D"/><path d="M635.679 281.4l-12.761-2.443a3 3 0 0 0-3.51 2.381l-2.444 12.762a3 3 0 0 0 2.382 3.51l12.761 2.443a3 3 0 0 0 3.511-2.381l2.444-12.762a3 3 0 0 0-2.383-3.51z" class="C"/><g class="F E"><path d="M635.683 281.398l-12.761-2.443a3 3 0 0 0-3.511 2.381l-2.443 12.762a3 3 0 0 0 2.382 3.51l12.761 2.444a3 3 0 0 0 3.511-2.382l2.443-12.762a3 3 0 0 0-2.382-3.51z"/></g><path d="M632.797 280.838l-12.762-2.444a3 3 0 0 0-3.51 2.382l-2.444 12.761a3 3 0 0 0 2.382 3.51l12.762 2.445a3 3 0 0 0 3.51-2.383l2.444-12.762a3 3 0 0 0-2.382-3.509z" class="B"/><path d="M662.641 286.565l-12.761-2.445a3 3 0 0 0-3.511 2.382l-2.444 12.762a3 3 0 0 0 2.383 3.51l12.761 2.444a3 3 0 0 0 3.51-2.382l2.444-12.762a3 3 0 0 0-2.382-3.509z" class="H"/><g opacity=".4" class="E"><path d="M662.637 286.566l-12.761-2.444a3 3 0 0 0-3.511 2.382l-2.444 12.761a3 3 0 0 0 2.383 3.511l12.761 2.444a3 3 0 0 0 3.51-2.383l2.444-12.761a3 3 0 0 0-2.382-3.51z"/></g><path d="M659.754 285.99l-12.762-2.444a3 3 0 0 0-3.51 2.382l-2.443 12.762a3 3 0 0 0 2.381 3.51l12.762 2.443a3 3 0 0 0 3.51-2.382l2.443-12.761a3 3 0 0 0-2.381-3.51z" class="H"/><g class="D"><path d="M647.733 291.906l-.135.708 8.328 1.594.136-.708-8.329-1.594zm-.613 3.164l-.136.709 8.329 1.593.135-.709-8.328-1.593z"/></g><path d="M604.668 275.204l-37.959-7.268c-1.956-.374-3.844.908-4.219 2.864l-2.308 12.053c-.375 1.956.907 3.844 2.863 4.218l37.959 7.269c1.956.374 3.844-.907 4.218-2.863l2.308-12.053c.375-1.956-.906-3.844-2.862-4.22z" class="B"/><g class="D"><path d="M582.235 280.396c.49-2.567 2.192-3.749 4.11-3.375s3.042 2.091 2.553 4.658-2.179 3.749-4.096 3.375-3.058-2.091-2.567-4.658zm4.86.938c.332-1.775-.144-2.625-1.039-2.799s-1.658.447-1.99 2.222.145 2.61 1.024 2.783 1.658-.375 2.005-2.206zm38.064 3.35l-1.718 8.303.707.146 1.717-8.304-.706-.145z"/><path d="M620.542 287.73l-.136.709 8.329 1.593.135-.709-8.328-1.593z"/></g><g class="B"><path d="M628.092 155.207l-2.235 11.623-.548-.1 2.134-11.106-2.884-.562.101-.519 3.432.664zm8.566 13.152l-.1.519-7.874-1.443v-.404l5.941-4.066c1.701-1.154 2.163-1.932 2.351-2.884.288-1.543-.591-2.755-2.625-3.144-.64-.173-1.311-.196-1.96-.068a4.33 4.33 0 0 0-1.789.804l-.318-.433c.594-.436 1.278-.734 2-.874s1.469-.117 2.182.066c2.221.433 3.418 1.846 3.058 3.721-.203 1.096-.736 1.99-2.553 3.23l-5.35 3.634 7.037 1.342zm9.448-.996c-.375 1.932-1.99 3.029-4.543 2.539-.757-.105-1.483-.372-2.127-.782s-1.193-.956-1.608-1.598l.375-.347c.379.594.882 1.098 1.475 1.479a4.89 4.89 0 0 0 1.957.729c2.235.431 3.605-.448 3.923-2.12s-.592-2.986-3.057-3.462l-.649-.115v-.404l4.528-4.024-6.403-1.225.086-.519 7.211 1.37-.086.403-4.587 4.024c2.783.533 3.879 2.12 3.505 4.052zm11.451 2.061l-2.523-.49-.65 3.359-.548-.1.65-3.36-6.677-1.284.072-.389 7.931-6.648.649.129-7.831 6.562 5.957 1.125.562-2.957.548.116-.562 2.884 2.523.476-.101.577zm2.174 3.375c-.053.203-.125.401-.216.591l-1.024 2.12-.432-.087.952-2.192c-.132-.043-.242-.133-.311-.253a.56.56 0 0 1-.065-.395c.015-.071.043-.139.082-.2a.55.55 0 0 1 .152-.152.53.53 0 0 1 .2-.082c.071-.014.144-.013.215.001a.56.56 0 0 1 .357.233c.084.121.116.271.09.416zm11.709-.678l-2.523-.49-.635 3.361-.548-.101.635-3.361-6.678-1.283.087-.39 7.931-6.648.65.13-7.831 6.562 5.941 1.139.563-2.884.548.101-.563 2.956 2.524.475-.101.433zm8.656 1.688c-.361 1.889-1.947 3.101-4.586 2.596-.755-.105-1.478-.373-2.12-.783a5.3 5.3 0 0 1-1.601-1.597l.39-.332a4.92 4.92 0 0 0 3.418 2.208c2.278.431 3.619-.548 3.936-2.193s-.519-3.071-3.835-3.706l-2.265-.432 1.674-5.351 5.984 1.14-.086.519-5.539-1.068-1.355 4.327 1.803.345c3.576.708 4.6 2.265 4.182 4.327z"/></g><path d="M360.377 8.848H38.816v214.441h321.561V8.848z" class="M"/><g class="H"><path d="M151.388 85.566H98.492v21.228h52.896V85.566zm158.703 0h-52.896v21.228h52.896V85.566zm0 42.153h-52.896v21.228h52.896v-21.228z"/><path d="M310.091 148.789h-52.896v21.227h52.896v-21.227z"/></g><g class="C"><path d="M204.287 128.094h-52.896v21.227h52.896v-21.227zm52.821 21.488h-52.897v21.227h52.897v-21.227z"/></g><path d="M204.287 191.678h-52.896v22.078h52.896v-22.078z" class="G"/><path d="M310.091 191.98h-52.896v21.229h52.896V191.98z" class="H"/><g class="K"><path d="M350.599 64.828H64.961v20.737h285.638V64.828z"/><path d="M98.491 64.828H48.406v149.373h50.085V64.828z"/><path d="M99.214 214.925H47.688V64.109h51.527v150.816zm-50.084-1.442h48.642V65.551H49.13v147.932z"/></g><path d="M360.377 8.848H38.816v24.328h321.561V8.848z" class="H"/><g class="G"><path d="M98.492 42.043H48.984v13.916h49.508V42.043zm53.546 0h-47.749v13.916h47.749V42.043zm52.363 0h-47.749v13.916h47.749V42.043zm52.359 0h-47.748v13.916h47.748V42.043zm52.363 0h-47.748v13.916h47.748V42.043zm43.855 0h-39.24v13.916h39.24V42.043z"/></g><g class="B"><path d="M48.405 213.755h1.442 4.326 16.7l62.602-.101 217.095-.173-.346.361V64.93l.375.375-302.194-.202.274-.274-.144 108.836v29.679 7.743 2.668-2.61-7.686-29.622l-.144-109.008v-.288h.274l302.193-.101h.375v.389V213.74v.347h-.36l-217.615-.144-62.515-.101H54.116h-4.326l-1.384-.087z"/><path d="M351.178 85.594c0 .202-67.664.375-151.09.375s-151.104-.202-151.104-.375 67.635-.375 151.104-.375l151.09.375zm0 21.186c0 .216-67.664.375-151.09.375s-151.104-.159-151.104-.375 67.635-.376 151.104-.376l151.09.376z"/><use xlink:href="#G"/><path d="M351.178 149.222c0 .217-67.664.375-151.09.375s-151.104-.158-151.104-.375 67.635-.374 151.104-.374l151.09.374zm0 21.227c0 .202-67.664.376-151.09.376s-151.104-.145-151.104-.376 67.635-.375 151.104-.375l151.09.375zm0 21.227c0 .202-67.664.375-151.09.375s-151.104-.173-151.104-.375 67.635-.375 151.104-.375l151.09.375z"/><path d="M98.488 214.204c-.216 0-.375-33.255-.375-74.268l.375-74.284c.216 0 .375 33.255.375 74.284l-.375 74.268zm52.898-.447c-.202 0-.374-33.169-.374-74.053l.374-74.052c.202 0 .375 33.168.375 74.052l-.375 74.053zm52.898.447c-.216 0-.374-33.255-.374-74.268l.374-74.284c.217 0 .376 33.255.376 74.284l-.376 74.268zm52.912 0c-.202 0-.376-33.255-.376-74.268l.376-74.284c.201 0 .375 33.255.375 74.284l-.375 74.268zm52.914 0c-.217 0-.376-33.255-.376-74.268l.376-74.284c.216 0 .374 33.255.374 74.284l-.374 74.268z"/></g><g class="D"><path d="M57.61 21.004a3.07 3.07 0 0 1-5.286 2.012 3.07 3.07 0 0 1 2.229-5.198c.41.007.815.096 1.191.26a3.11 3.11 0 0 1 1 .698c.284.296.507.646.656 1.028a3.12 3.12 0 0 1 .211 1.201zm10.426 0c-.023.602-.222 1.184-.573 1.674a3.07 3.07 0 0 1-1.401 1.08c-.563.215-1.177.259-1.765.128a3.07 3.07 0 0 1-1.027-5.559 3.07 3.07 0 0 1 1.694-.511c.412.006.818.093 1.196.256a3.1 3.1 0 0 1 1.664 1.727 3.12 3.12 0 0 1 .212 1.204zm10.426 0a3.07 3.07 0 0 1-1.974 2.754c-.563.215-1.177.259-1.765.128a3.07 3.07 0 0 1-1.028-5.559 3.07 3.07 0 0 1 1.694-.511c.412.006.818.093 1.196.256a3.1 3.1 0 0 1 1.005.697 3.12 3.12 0 0 1 .659 1.03 3.1 3.1 0 0 1 .212 1.204z"/></g><path d="M360.377 223.274l-.302-214.426.302.288-321.546.029.375-.375v214.427l-.346-.346 231.703.173 66.178.086h17.594 4.528 1.557-1.514-4.499-17.522l-66.091.087-231.934.174h-.418v-.347V8.617v-.375h.389H360.42h.289v.303l-.332 214.729z" class="B"/><path d="M393.711 262.455l-16.685 20.709-69.553 19.353 10.397 112.355c3.202 44.028 7.702 54.8 10.817 84.103v23.867h197.568l27.588-228.055-68.154-15.661-14.652-16.671h-77.326z" class="H"/><path d="M390.75 302.576l8.508 112.513 9.1 57.107 66.784-186.378-53.877 63.857-30.515-47.099z" class="D"/><g class="B"><path d="M407.395 480.214l.259-.548.836-1.557 3.331-6.028 12.172-21.963 40.379-72.308 22.035-39.24.073.433-9.591-8.104-.345-.289.403-.246 13.657-8.046-.144.288-3.563-31.726-.936-8.653-.217-2.279c-.058-.548 0-.778 0-.778s0 .259.13.778l.303 2.265 1.096 8.652 3.807 31.727v.187l-.159.101-13.628 8.105v-.519l9.604 8.061.232.187-.145.246-21.963 39.24-40.61 72.249-12.387 21.848-3.404 5.927-.893 1.528c-.092.168-.203.323-.332.462z"/><path d="M407.397 480.213c-.08-.166-.142-.34-.187-.519l-.491-1.572-1.817-6.072-6.533-22.323-9.517-33.168c-3.216-12.604-6.288-26.55-9.533-41.187l-11.696-54.8v-.274l.26-.101 9.1-3.187v.548l-11.076-5.869-.216-.101.087-.217 8.249-20.708 2.264-5.582.591-1.442c.068-.162.145-.321.23-.475a2.79 2.79 0 0 1-.158.505l-.534 1.441-2.134 5.625-8.018 20.795-.13-.332 11.119 5.769.606.317-.649.231-9.086 3.215.217-.36 11.796 54.8 9.474 41.172c3.187 12.59 6.706 23.752 9.36 33.168l6.302 22.411 1.673 6.1.418 1.587a3.22 3.22 0 0 1 .029.605z"/></g><g class="H"><path d="M307.47 302.531s-15.287 7.456-26.074 41.734c-7.83 24.92-39.672 110.711-39.672 110.711l-35.274-10.297s-25.958 32.332-20.074 43.596 48.844 34.61 48.844 34.61h50.301a41.38 41.38 0 0 0 14.421-20.968l28.77-96.881-21.242-102.505zm246.344-7.728a62.02 62.02 0 0 1 22.136 22.741c8.782 15.619 78.912 129.791 84.724 156.801 8.653 40.379-8.653 48.469-8.653 48.469h-24.227l-59.992-.259-7.571-46.94 26.665-5.697-49.422-54.8-3.273 5.581-9.662-78.22 29.275-47.676z"/></g><g class="B"><path d="M313.831 349.66c.216 0 2.004 19.397 3.995 43.349l3.244 43.408c-.201.014-1.989-19.396-3.994-43.35l-3.245-43.407zm236.433-21.718c.201 0-2.567 24.242-6.173 54.079l-6.907 54.007c-.217 0 2.552-24.228 6.172-54.079l6.908-54.007zm18.254 194.915l.678-.865c.649-.816 1.252-1.668 1.802-2.553 2.018-3.272 3.58-6.804 4.644-10.499a50.54 50.54 0 0 0 1.673-7.773 36.55 36.55 0 0 0 .389-9.041 21.22 21.22 0 0 0-3.346-9.301c-1.977-2.992-4.567-5.528-7.599-7.442l-.635-.418-.808-.433.866-.26c12.086-3.539 24.498-5.854 37.048-6.907a204.37 204.37 0 0 1 11.378-.678h3.1c.36-.041.723-.041 1.082 0-.357.068-.719.107-1.082.115l-3.086.202a315.72 315.72 0 0 0-11.334.909c-12.492 1.212-24.843 3.592-36.89 7.11l.072-.693.693.404c3.124 1.968 5.79 4.584 7.816 7.672 1.882 2.892 3.053 6.188 3.417 9.619.232 3.083.077 6.184-.461 9.23-.388 2.648-.986 5.261-1.788 7.815-1.116 3.723-2.768 7.266-4.903 10.514-.586.875-1.231 1.708-1.933 2.494a4.15 4.15 0 0 1-.793.779zm-160.951.001c-.203 0-.376-9.663-.376-21.632s.173-21.632.376-21.632.375 9.662.375 21.632-.159 21.632-.375 21.632zm112.554-95.728c-.018-.341-.018-.683 0-1.024v-2.884l-.129-10.715.23.231-59.761.144c.159-.159-.389.375.361-.375v14.595l-.375-.361 42.542.158 12.604.102h3.418.894.317a11.11 11.11 0 0 1-1.125 0h-3.33l-12.518.101-42.802.172h-.361v-.375-7.21-7.398l.39-.375 59.761.158h.216v.217l-.116 10.844v2.885a7.09 7.09 0 0 1-.216 1.11zm-206.29-83.902c-.202 0-2.163-8.292-4.326-18.617l-3.649-18.748c.203 0 2.163 8.293 4.326 18.618l3.649 18.747z"/></g><g opacity=".3" class="E"><path d="M410.711 474.315l85.3-130.842-12.301-11.883 7.023-8.985-13.642 8.076 9.604 8.091-75.984 135.543z"/></g><g opacity=".3" class="E"><path d="M199.988 478.699v7.269l96.824.303v-7.572h-96.824z"/></g><path d="M317.982 211.404c2.58.312 5.195-.082 7.568-1.142a14.32 14.32 0 0 0 5.901-4.872c-3.475.534-7.21 1.024-10.354-.577s-4.904-6.215-2.452-8.652c1.919-1.976 5.077-1.629 7.817-1.832 3.204-.276 6.263-1.46 8.817-3.414a16.9 16.9 0 0 0 5.603-7.618c2.323-6.662.203-13.916-.634-20.925-1.074-10.206.594-20.514 4.833-29.86a57.68 57.68 0 0 1 19.279-23.31l43.855-25.352c15.863 20.363 20.866 47.791 17.564 73.403s-14.161 49.709-27.227 71.99c-3.807 6.489-7.859 12.979-13.238 18.199s-12.215 9.33-19.699 10.095c-.962-3.095-1.171-6.375-.605-9.565s1.884-6.202 3.85-8.778c-5.941.344-11.891-.512-17.494-2.519a44.24 44.24 0 0 1-15.112-9.163l9.387-7.21c-4.98.631-10.039.161-14.818-1.376s-9.163-4.105-12.841-7.522z" class="B"/><path d="M486.809 139.875c-.778-18.314-12.186-33.659-29.822-38.691l-54.93-15.705c-23.852-3.274-40.667 25.713-42.932 49.68-2.495 26.636-4.326 54.801-1.817 74.774 5.119 40.235 35.649 46.277 35.649 46.277l-1.327 47.964 27.962 58.464 54.239-74.789 13.152-147.455c.028-.706-.087.404-.174-.519z" class="I"/><g class="B"><path d="M369.699 168.343a5.15 5.15 0 0 0 1.313 3.638 5.14 5.14 0 0 0 3.475 1.698c.652.072 1.312.013 1.94-.175a4.95 4.95 0 0 0 1.721-.914 4.94 4.94 0 0 0 1.229-1.512c.305-.58.492-1.215.547-1.869a5.13 5.13 0 0 0-4.787-5.336c-.653-.072-1.312-.012-1.941.175a4.92 4.92 0 0 0-1.721.915c-.505.416-.924.93-1.229 1.511s-.491 1.216-.547 1.869zm-5.004-17.318c.62.692 4.601-2.077 10.095-1.889s9.489 3.071 10.094 2.423c.303-.304-.302-1.529-2.033-2.885-2.339-1.725-5.155-2.688-8.061-2.754a13.59 13.59 0 0 0-8.09 2.337c-1.688 1.268-2.308 2.45-2.005 2.768zm51.727 17.319c-.052 1.337.418 2.642 1.313 3.638a5.15 5.15 0 0 0 3.475 1.698c.651.072 1.311.012 1.94-.175s1.213-.499 1.72-.915a4.9 4.9 0 0 0 1.23-1.511 4.92 4.92 0 0 0 .546-1.869c.056-1.339-.414-2.646-1.308-3.643a5.14 5.14 0 0 0-3.48-1.694 4.94 4.94 0 0 0-3.656 1.095c-.506.417-.924.929-1.23 1.509a4.94 4.94 0 0 0-.55 1.867zm.75-15.82c.62.692 4.6-2.077 10.094-1.89s9.489 3.072 10.095 2.424c.303-.304-.303-1.529-2.033-2.885-2.337-1.73-5.154-2.693-8.062-2.754a13.53 13.53 0 0 0-8.09 2.335c-1.687 1.27-2.308 2.452-2.004 2.77zm-18.504 42.902c0-.302-3.389-1.01-8.926-1.889-1.443-.188-2.741-.519-2.885-1.442s.332-2.524 1.067-4.153l4.5-10.614c6.273-15.114 10.844-27.574 10.238-27.818s-6.244 11.767-12.473 26.938l-4.327 10.685c-.577 1.587-1.558 3.39-.894 5.524.187.503.488.957.878 1.327a3.53 3.53 0 0 0 1.372.807c.776.238 1.581.375 2.393.404 5.538.419 9.014.548 9.057.231z"/></g><path d="M446.433 243.479s-13.816 27.14-53.777 22.15l.26-9.417a100.81 100.81 0 0 0 53.517-12.733z" class="J"/><g class="B"><path d="M419.479 134.699c.505 1.441 6.042.981 12.502 1.961s11.639 2.884 12.547 1.586c.404-.634-.462-2.077-2.538-3.605-2.767-1.867-5.923-3.08-9.228-3.547a22 22 0 0 0-9.851.85c-2.437.894-3.634 2.033-3.432 2.755zm-52.493-.533c.923 1.284 4.773.102 9.359.188s8.422 1.096 9.36-.188c.404-.62-.159-1.903-1.818-3.144-2.231-1.494-4.856-2.292-7.542-2.292s-5.311.798-7.542 2.292c-1.688 1.241-2.236 2.524-1.817 3.144z"/></g><path d="M419.392 206.214a7.21 7.21 0 0 0-7.297-5.682c-1.234.123-2.418.548-3.45 1.237a7.55 7.55 0 0 0-2.462 2.714c-.566 1.105-.906 2.313-.997 3.551s.066 2.484.463 3.66l.101.519a8.22 8.22 0 0 0 4.24 2.57c1.643.401 3.371.283 4.947-.335 1.544-.691 2.817-1.874 3.622-3.362s1.099-3.201.833-4.872z" class="J"/><g class="B"><path d="M401.727 212.213c0-.836 5.594-.418 9.936-4.875s4.181-10.455 4.96-10.44c.361 0 .981 1.442.851 3.923-.205 3.272-1.558 6.367-3.822 8.739a12.18 12.18 0 0 1-8.307 3.735c-2.335.029-3.618-.707-3.618-1.082zm66.653-136.12c-6.187-9.821-20.796-20.074-32.246-22.079-12.978-2.278-20.881 0-29.462 7.787 0 0-6.662 6.432-12.979 7.643s-11.536.188-18.935 4.009c-10.196 5.206-14.667 18.834-19.382 29.26-5.869 12.979-14.219 24.876-18.055 38.576s-1.788 30.515 9.749 38.836c-1.976-10.499-3.62-22.05.706-31.539a27.52 27.52 0 0 0 .692 11.364c2.163-6.172 4.442-12.532 8.912-17.305 4.226-4.5 10.096-7.211 14.422-11.537 6.388-6.417 9.331-16.18 17.088-20.839 8.077-4.845 18.301-2.422 27.704-2.379a53.08 53.08 0 0 0 22.943-5.228 53.1 53.1 0 0 0 18.431-14.63l-2.336-.203c4.746-3.335 9.032-7.282 12.748-11.738z"/><path d="M527.263 174.055c-3.591-11.783-9.908-22.555-13.845-34.221-3.85-11.364-5.437-23.507-10.542-34.352-6.879-14.594-19.713-33.514-39.715-32.461l-1.442 1.197c-6.826-.831-13.751-.005-20.19 2.408l-.317 15.589-3.821 3.374 4.599 9.029c1.169 5.863 2.873 11.607 5.091 17.16 2.203 5.454 5.467 10.414 9.604 14.594 34.467 82.517 3.202 87.724 18.748 135.01l9.763-27.068c8.381-4.839 15.11-12.09 19.309-20.81l1.732 8.654c7.91-8.376 12.666-19.239 13.454-30.732l4.615 8.191c7.052-10.095 6.548-23.795 2.957-35.562z"/></g><path d="M468.469 171.04c.533-1.341 25.438-9.533 25.02 16.685-.404 25.467-25.958 19.713-25.958 18.978s.938-35.663.938-35.663z" class="I"/><path d="M475.549 197.215c.115-.086.433.318 1.182.678a4.4 4.4 0 0 0 3.303.13c2.711-.938 5.062-5.163 5.278-9.749a14.67 14.67 0 0 0-1.124-6.374c-.222-.802-.636-1.538-1.207-2.144a5.11 5.11 0 0 0-2.068-1.332 2.28 2.28 0 0 0-1.527.113c-.481.213-.874.586-1.112 1.055-.36.707-.201 1.212-.331 1.255s-.548-.432-.317-1.442a2.88 2.88 0 0 1 1.024-1.572 3.36 3.36 0 0 1 2.466-.605c1.042.225 2.008.715 2.807 1.423a6.21 6.21 0 0 1 1.749 2.615c1.056 2.22 1.551 4.666 1.443 7.123-.259 5.134-2.986 9.893-6.692 10.874a4.65 4.65 0 0 1-2.105.092c-.7-.129-1.361-.417-1.932-.842-.808-.678-.938-1.255-.837-1.298z" class="J"/><path d="M478.3 201.8c1.262-.2 2.552.089 3.607.807a5.02 5.02 0 0 1 1.495 6.709 5.01 5.01 0 0 1-2.923 2.262 5.02 5.02 0 0 1-3.679-.353c-1.137-.581-2.009-1.574-2.44-2.777s-.386-2.523.123-3.694 1.447-2.103 2.62-2.608" class="D"/><path d="M477.106 202.148c-1.126.836-1.959 2.007-2.38 3.345-.199.691-.223 1.42-.069 2.123a4.34 4.34 0 0 0 .949 1.901c.549.685 1.289 1.193 2.126 1.459s1.734.28 2.578.038a4.46 4.46 0 0 0 2.168-1.398c.569-.669.928-1.492 1.031-2.364.102-.715.025-1.445-.228-2.123a4.31 4.31 0 0 0-1.215-1.756c-1.075-.905-2.405-1.454-3.806-1.572 0-.072.404-.26 1.211-.246 1.152.038 2.259.459 3.143 1.198a5.1 5.1 0 0 1 1.563 2.072c.333.813.451 1.699.341 2.572-.103 1.093-.533 2.129-1.235 2.974s-1.64 1.459-2.695 1.763-2.178.282-3.221-.061-1.958-.993-2.626-1.864c-.557-.681-.928-1.495-1.077-2.361s-.071-1.758.226-2.585a5.23 5.23 0 0 1 2.034-2.698c.792-.432 1.168-.49 1.182-.417z" class="B"/><path d="M439.51 101.978c.505.201 2.885-8.436 9.951-16.44s15.214-11.537 14.955-12.085c-.072-.187-2.221.418-5.379 2.149a41.22 41.22 0 0 0-18.113 20.766c-1.283 3.345-1.601 5.567-1.414 5.61z" class="C"/><path d="M211.166 485.968l-19.006-22.339s-13.34 0-20.002-6.345-19.007-12.331-14.003-23.665c0 0-5.999-7.009-1.168-14.666l.158-2.005s-14.998-6.345-10.671-14.003 12.676-4.326 12.676-4.326-16.382-11.076-19.339-14.104c-7.903-8.104.591-13.571 9.374-8.652 14.594 7.96 63.625 31.077 66.986 47.748v7.211s13.657 16.742 13.657 17.737-.995 27.069-18.662 37.409z" class="I"/><path d="M115.078 317.587c-.592-.75 74.585 120.445 74.585 120.445l3.418 40.667h117.33l-10.888-46.291-20.045-55.002c.447-1.24-37.971-61.65-37.971-61.65l-126.429 1.831z" class="D"/><g class="B"><path d="M115.078 317.586l2.308-.072 6.676-.13 25.468-.461 91.977-1.443h.145l.087.145 32.562 51.915 4.226 7.211.995 1.875c.09.172.168.35.23.534.02.085.02.174 0 .259v.13.116l.318.98 1.442 3.994 5.884 16.181 12.401 33.472 10.297 43.753.591 2.538.116.462h-.476-117.33-.317v-.318l-3.389-40.667v.144L135.34 350.74l-15.041-24.515-3.923-6.447-.981-1.673a3.84 3.84 0 0 1-.317-.577l74.86 120.272v.072.073l3.447 40.667-.346-.318h117.329l-.36.462-.606-2.538-10.282-43.754-12.388-33.486-5.869-16.179-1.442-4.01-.318-1.024v-.129c-.015-.087-.015-.174 0-.26v-.13c-.26-.115.39.087.231 0a.46.46 0 0 0-.202 0 2.67 2.67 0 0 0-.187-.433l-.966-1.831-4.211-7.21-32.477-52.017.26.144-92.194 1.356-25.424.288h-6.648l-2.207.043zm153.974 62.833H268h-3l-11.047-.217-36.398-.792c-14.219-.231-27.097-.203-36.399.101-4.658.115-8.422.317-11.018.461l-2.999.173a8.41 8.41 0 0 1-1.053 0 4.73 4.73 0 0 1 1.038-.158l2.985-.318c2.596-.245 6.36-.519 11.033-.706 9.316-.433 22.194-.534 36.427-.318l36.399 1.024 11.032.447 3 .144a4.67 4.67 0 0 1 1.052.159zm14.423 53.964c0 .202-16.628-1.601-37.062-4.053l-36.975-4.787c.028-.202 16.612 1.6 37.061 4.052l36.976 4.788z"/></g><path d="M175.316 442.575l21.949-1.443c2.308-.144 4.845-.388 6.461-2.047 1.99-2.076 1.009-6.763-1.514-8.148l-25.151-6.072" class="I"/><path d="M177.031 424.908a13.38 13.38 0 0 1 1.947.332l5.307 1.168 17.983 4.211h.101a5.25 5.25 0 0 1 2.105 2.438 7.06 7.06 0 0 1 .649 3.201c.009 1.201-.458 2.357-1.297 3.216-.809.762-1.804 1.299-2.885 1.557-1.992.381-4.014.588-6.042.62l-10.182.563-6.85.317a15.4 15.4 0 0 1-2.523 0c.823-.162 1.657-.263 2.495-.303l6.85-.548 10.094-.735c1.985-.05 3.963-.262 5.913-.634a5.87 5.87 0 0 0 2.61-1.443 3.82 3.82 0 0 0 1.068-2.711 5.66 5.66 0 0 0-.54-2.788c-.413-.867-1.042-1.616-1.826-2.173h.086l-17.925-4.456-5.249-1.442a10.06 10.06 0 0 1-1.889-.39z" class="J"/><path d="M185.412 417.035a107.78 107.78 0 0 1 19.512 5.494 4.33 4.33 0 0 1 2.884 5.033 3.51 3.51 0 0 1-.416 1.505 3.52 3.52 0 0 1-1.025 1.178c-.95.519-2.006.81-3.087.85-6.316.605-12.373-.259-18.661-1.139s-14.998 0-18.646 1.933" class="I"/><path d="M166.012 431.89s.202-.159.62-.376c.625-.295 1.271-.546 1.932-.749 2.446-.701 4.96-1.135 7.499-1.298a47.66 47.66 0 0 1 5.264-.101 58.28 58.28 0 0 1 5.999.605c4.513.699 9.077 1.002 13.642.909a30.52 30.52 0 0 0 3.534-.317 3.38 3.38 0 0 0 1.485-.506c.449-.283.824-.668 1.096-1.124.822-1.903.548-4.484-1.168-5.523-.874-.494-1.797-.895-2.755-1.196l-2.739-.967c-1.775-.62-3.433-1.153-4.962-1.601-3.056-.923-5.566-1.528-7.311-1.947a25.56 25.56 0 0 1-2.697-.663 2.72 2.72 0 0 1 .721 0c.476 0 1.154.173 2.048.331 1.76.318 4.327.851 7.384 1.703 1.543.432 3.23.936 5.018 1.528l2.77.937a15.06 15.06 0 0 1 2.883 1.241c.491.328.909.753 1.229 1.249a4.34 4.34 0 0 1 .632 1.635 6.2 6.2 0 0 1-.418 3.547 3.2 3.2 0 0 1-1.327 1.443 5.79 5.79 0 0 1-1.774.62c-1.207.194-2.426.309-3.649.346a76.8 76.8 0 0 1-13.772-.966c-1.963-.327-3.941-.553-5.927-.679a48.09 48.09 0 0 0-5.206 0c-2.507.114-4.998.462-7.441 1.039-1.702.476-2.581.937-2.61.88z" class="J"/><path d="M160.272 398.85l17.306 9.647c2.61 1.442 5.336 3.029 6.907 5.581s1.442 6.403-1.081 8.032c-1.961 1.299-4.557.809-6.836.232-6.453-1.639-12.805-3.657-19.021-6.043" class="I"/><path d="M157.547 416.299c.825.188 1.635.438 2.423.749l6.59 2.15c2.798.865 6.143 1.817 9.893 2.754 1.856.634 3.851.75 5.768.331.947-.311 1.744-.963 2.236-1.831a5.47 5.47 0 0 0 .663-2.971c-.074-1.038-.359-2.051-.837-2.976s-1.141-1.742-1.946-2.403a27.32 27.32 0 0 0-4.976-3.331l-8.941-5.076-5.999-3.49a16.88 16.88 0 0 1-2.149-1.355 14.01 14.01 0 0 1 2.293 1.11l6.115 3.273 9.013 4.933a26.93 26.93 0 0 1 5.134 3.345c.838.735 1.549 1.602 2.105 2.567a7.53 7.53 0 0 1 .938 3.317c.071 1.179-.194 2.354-.764 3.389a4.78 4.78 0 0 1-2.582 2.264 11.25 11.25 0 0 1-6.186-.346c-3.75-.981-7.096-2.005-9.879-2.884s-5.004-1.774-6.533-2.38l-1.745-.721a2.25 2.25 0 0 1-.634-.418z" class="J"/><g class="I"><path d="M571.607 518.762l-8.22-2.337-26.103-2.437-7.311-9.706 5.091-20.968 32.663-7.773c15.056 10.73 10.975 28.612 3.88 43.221zm-75.999-52.637a22.54 22.54 0 0 0-9.171.721c-1.917.834-3.588 2.148-4.851 3.815a12.18 12.18 0 0 0-2.36 5.702c-.85 6.721-1.11 12.173-1.586 18.43a5.86 5.86 0 0 0 1.701 4.428c2.063 2.106 5.769 1.443 7.918-.634s3.071-4.947 4.095-7.701 2.106-9.345 3.706-9.922c4.558-1.644 10.745 6.187 14.162 2.351l6.216-15.142-19.83-2.048z"/></g><path d="M495.607 466.124h.345 1.038l3.938.332 14.42 1.442h.376l-.144.346-6.144 15.171a3.54 3.54 0 0 1-1.352.942c-.519.202-1.079.28-1.633.226a9.74 9.74 0 0 1-3.071-.923 33.98 33.98 0 0 0-5.769-2.538l-.779-.115h-.764a6.21 6.21 0 0 0-.736.144c-.259 0-.317.158-.505.346-.583.91-1.016 1.908-1.283 2.956l-1.932 6.706c-.657 2.054-1.553 4.024-2.668 5.869-.598.916-1.355 1.717-2.235 2.366a7.47 7.47 0 0 1-2.957 1.24c-1.062.208-2.162.113-3.173-.275a5.19 5.19 0 0 1-2.35-2.091c-.557-.865-.884-1.857-.952-2.884 0-1.052.115-1.932.173-2.884l.851-10.585.519-4.774a12.98 12.98 0 0 1 1.14-4.326c.907-2.101 2.415-3.889 4.333-5.139s4.164-1.904 6.453-1.883a27.14 27.14 0 0 1 3.663.072l.938.1.317.072a12.21 12.21 0 0 1-1.269 0 29.53 29.53 0 0 0-3.619.072c-1.9.053-3.761.547-5.438 1.443a12.09 12.09 0 0 0-4.902 5.479c-.585 1.329-.936 2.749-1.039 4.197l-.476 4.773c-.303 3.318-.519 6.851-.779 10.586 0 .908-.187 1.917-.158 2.783.068.911.365 1.789.865 2.553.462.793 1.163 1.419 2.005 1.787a4.99 4.99 0 0 0 2.769.232 7.23 7.23 0 0 0 4.701-3.303 26.05 26.05 0 0 0 2.581-5.769c.793-2.177 1.24-4.47 1.918-6.662a10.33 10.33 0 0 1 1.442-3.216c.103-.142.229-.264.375-.36.142-.105.304-.179.476-.217a6.61 6.61 0 0 1 .895-.173h.893l.866.144a32.4 32.4 0 0 1 5.955 2.596c.905.456 1.88.753 2.885.88.447.046.9-.014 1.32-.174a2.87 2.87 0 0 0 1.102-.749l-.072.1 6.273-15.112.232.374-14.422-1.629-3.922-.476-1.024-.144a.99.99 0 0 1-.49.072z" class="J"/><path d="M550.712 468.044s-3.246-1.01-7.615 2.191c0 0-1.644-7.21-7.398-8.653-4.182-1.024-9.503 3.26-9.503 3.26s-3.606-7.211-13.224-4.212c-7.946 2.495-24.646 51.844-26.074 55.147-1.644 3.793 5.105 8.537 8.826 4.716s17.016-25.958 17.016-25.958l-8.724 30.746a5.98 5.98 0 0 0 .101 3.042 6.41 6.41 0 0 0 11.436.909c5.422-7.341 10.93-22.44 10.93-22.44l5.323-11.537s-9.937 30.718-6.317 33.515 8.234 1.717 11.537-5.494 15.33-30.068 15.33-30.068l5.768-2.999-2.106 7.21s-10.931 5.769-8.479 10.816 7.628 3.605 12.69 1.212 9.475-14.264 12.172-19.138c2.423-4.326 2.653-17.204-7.716-17.695a7.95 7.95 0 0 0-3.22.558c-1.023.407-1.95 1.023-2.721 1.808l-.519.519s-1.759-6.431-7.513-7.455z" class="I"/><g class="J"><path d="M550.711 468.042l.693.145c.286.061.566.148.835.259a6.08 6.08 0 0 1 1.111.505c2.4 1.465 4.157 3.783 4.918 6.49h-.188c1.353-1.583 3.242-2.611 5.307-2.884a9.66 9.66 0 0 1 7.052 2.148c2.113 2.103 3.338 4.938 3.417 7.917a18.29 18.29 0 0 1-.302 4.831c-.172.842-.427 1.663-.765 2.452l-1.168 2.307c-1.528 3.13-3.014 6.519-4.902 9.908-.952 1.751-2.063 3.412-3.318 4.961a11.09 11.09 0 0 1-2.278 2.134 16.81 16.81 0 0 1-2.884 1.442 13.7 13.7 0 0 1-6.375 1.312c-1.173-.121-2.274-.628-3.128-1.442a6.57 6.57 0 0 1-1.112-1.341l-.431-.765-.289-.864a4.93 4.93 0 0 1 .706-3.49c.622-1.02 1.39-1.944 2.279-2.74a29.65 29.65 0 0 1 5.884-4.154l-.159.188 2.106-7.21.447.36-5.768 3.014.144-.13-8.841 17.06-4.528 8.984-2.149 4.558a16.23 16.23 0 0 1-3.014 4.326 6.88 6.88 0 0 1-2.26 1.582 6.86 6.86 0 0 1-2.701.566 6.26 6.26 0 0 1-2.696-.778 7.56 7.56 0 0 1-1.168-.779 2.5 2.5 0 0 1-.693-1.37c-.247-1.831-.214-3.688.102-5.509.245-1.802.577-3.591.951-5.393 1.543-7.211 3.605-14.334 5.884-21.632l.692.274-5.307 11.537a154.86 154.86 0 0 1-4.167 10.095c-1.139 2.523-2.351 5.004-3.678 7.413-.663 1.211-1.37 2.379-2.12 3.532-.705 1.243-1.594 2.371-2.639 3.346-1.103.925-2.483 1.458-3.923 1.515-1.432.011-2.834-.411-4.022-1.212a5.98 5.98 0 0 1-2.553-3.302c-.173-.688-.231-1.4-.174-2.106.088-.677.243-1.343.462-1.99l8.422-29.664.649.288-10.023 16.109c-1.687 2.581-3.374 5.134-5.177 7.57-.84 1.302-1.94 2.417-3.231 3.275a5.41 5.41 0 0 1-2.278.502c-.787 0-1.564-.171-2.278-.502-1.436-.581-2.617-1.655-3.332-3.029-.335-.715-.461-1.511-.36-2.293.216-.808.505-1.442.735-2.076l2.885-7.874c1.903-5.178 3.793-10.096 5.768-14.912l5.769-13.599c1.817-4.117 3.893-8.115 6.215-11.97a19.21 19.21 0 0 1 3.966-4.86c.433-.329.921-.577 1.442-.735l1.442-.375a14.05 14.05 0 0 1 2.884-.302 10.08 10.08 0 0 1 5.177 1.294 10.09 10.09 0 0 1 3.793 3.753h-.288a17.92 17.92 0 0 1 6.302-3.187 6.96 6.96 0 0 1 3.173-.101 7.84 7.84 0 0 1 2.696 1.168c1.359.971 2.475 2.244 3.259 3.72.682 1.206 1.201 2.495 1.543 3.836h-.144a11.24 11.24 0 0 1 5.769-2.278 5.13 5.13 0 0 1 1.96.172h-.476a7.08 7.08 0 0 0-1.441 0 11.55 11.55 0 0 0-5.596 2.337l-.115.087v-.144a15.95 15.95 0 0 0-1.557-3.764 10.78 10.78 0 0 0-3.347-3.663c-.79-.521-1.67-.893-2.594-1.096a6.83 6.83 0 0 0-3.043.13c-2.235.63-4.319 1.705-6.13 3.158l-.187.129-.102-.201c-.885-1.495-2.155-2.728-3.676-3.569a9.77 9.77 0 0 0-4.976-1.219c-.945.014-1.887.12-2.812.317l-1.442.361a3.93 3.93 0 0 0-1.225.677c-1.53 1.362-2.826 2.964-3.837 4.745a107.15 107.15 0 0 0-6.143 11.926c-1.923 4.297-3.846 8.831-5.768 13.599s-3.818 9.715-5.682 14.839l-2.885 7.889c-.23.648-.548 1.37-.692 1.961a3.5 3.5 0 0 0 .303 1.903c.653 1.224 1.714 2.177 2.999 2.698a4.74 4.74 0 0 0 1.998.443c.69 0 1.372-.152 1.997-.443a10.51 10.51 0 0 0 2.986-3.072c1.773-2.423 3.46-4.962 5.147-7.543 3.347-5.191 6.673-10.561 9.98-16.108l1.442-2.308-.735 2.596-8.393 29.65a8.38 8.38 0 0 0-.433 1.86c-.06.624-.011 1.254.144 1.861a5.25 5.25 0 0 0 2.249 2.884 6.52 6.52 0 0 0 3.577 1.096 5.95 5.95 0 0 0 3.49-1.37c.983-.879 1.828-1.9 2.51-3.028a57.8 57.8 0 0 0 2.091-3.491c1.312-2.379 2.508-4.845 3.648-7.354 1.529-3.403 2.884-6.85 4.154-10.095l5.321-11.537.692.275c-2.264 7.209-4.326 14.42-5.869 21.502-.376 1.773-.708 3.561-.952 5.335-.297 1.729-.336 3.494-.115 5.235.051.369.212.716.461.995.321.267.669.498 1.038.692.729.413 1.544.65 2.379.692.832-.007 1.653-.183 2.414-.518a6.13 6.13 0 0 0 2.014-1.428c2.451-2.38 3.533-5.769 5.119-8.783l4.557-8.984 8.869-17.046v-.087h.087l5.768-3 .663-.345-.216.721-2.105 7.21v.13h-.115a28.82 28.82 0 0 0-5.769 4.053 11.6 11.6 0 0 0-2.177 2.595c-.585.904-.812 1.995-.635 3.058a5.28 5.28 0 0 0 1.621 2.655 5.27 5.27 0 0 0 2.835 1.281c2.105.065 4.196-.37 6.1-1.268.958-.364 1.885-.807 2.769-1.327.81-.582 1.542-1.265 2.178-2.034a32.28 32.28 0 0 0 3.273-4.874c1.89-3.345 3.375-6.72 4.933-9.864.374-.778.836-1.543 1.168-2.293a11.39 11.39 0 0 0 .749-2.351 17.48 17.48 0 0 0 .318-4.716 11.22 11.22 0 0 0-3.245-7.685 9.39 9.39 0 0 0-6.778-2.12 8.35 8.35 0 0 0-5.192 2.768l-.129.159v-.202c-.727-2.668-2.424-4.967-4.76-6.446-.857-.489-1.772-.867-2.725-1.126z"/><path d="M537.185 480.213c.231 0-.707 4.484-2.755 9.618a169.14 169.14 0 0 1-2.696 6.534c-.334.922-.775 1.803-1.312 2.624.857-3.226 1.965-6.379 3.316-9.431a165.68 165.68 0 0 0 2.424-6.591 15.82 15.82 0 0 1 1.023-2.754zm-17.061-3.086c.203.101-1.629 4.125-3.663 9.2a61.16 61.16 0 0 1-3.965 9.085c.154-.963.43-1.904.822-2.797l2.451-6.561 2.885-6.419a11 11 0 0 1 1.47-2.508z"/></g><path d="M130.103 467.905c-3.551 9.856-9.948 18.436-18.379 24.654s-18.517 9.797-28.982 10.28-20.839-2.149-29.807-7.565a52.94 52.94 0 0 1-20.573-22.856c-4.446-9.487-5.977-20.078-4.399-30.435a52.94 52.94 0 0 1 39.707-43.439c10.173-2.499 20.86-1.923 30.707 1.654a52.86 52.86 0 0 1 17.661 10.665c5.129 4.681 9.285 10.327 12.232 16.614a52.87 52.87 0 0 1 4.94 20.032 52.85 52.85 0 0 1-3.107 20.396z" class="L"/><path d="M118.306 463.607c-2.704 7.522-7.58 14.072-14.011 18.821s-14.126 7.482-22.111 7.852a40.38 40.38 0 0 1-22.745-5.766c-6.843-4.132-12.306-10.201-15.697-17.441s-4.556-15.321-3.35-23.223a40.38 40.38 0 0 1 10.128-21.165c5.397-5.897 12.423-10.06 20.187-11.96a40.38 40.38 0 0 1 23.429 1.283 40.29 40.29 0 0 1 22.771 20.794c4.532 9.676 5.036 20.757 1.399 30.805z" class="G"/><g class="K"><path d="M118.724 462.409c-.23-.073.217-1.803.664-4.918.631-4.385.577-8.841-.159-13.209-.521-2.967-1.362-5.868-2.509-8.653a40.2 40.2 0 0 0-5.191-8.97c-2.313-3.046-5.063-5.733-8.163-7.975a39.28 39.28 0 0 0-5.149-3.158 41.17 41.17 0 0 0-5.768-2.408 41.8 41.8 0 0 0-6.056-1.442 38.76 38.76 0 0 0-6.028-.505 37.01 37.01 0 0 0-5.769.404 34.94 34.94 0 0 0-5.465 1.182c-3.334.968-6.529 2.364-9.503 4.154a41.01 41.01 0 0 0-7.211 5.522 42.63 42.63 0 0 0-7.946 10.557c-1.442 2.783-2.163 4.427-2.394 4.326s.102-1.832 1.298-4.859a37.48 37.48 0 0 1 7.484-11.537 41.17 41.17 0 0 1 7.384-6.173 41.84 41.84 0 0 1 10.022-4.701c1.913-.61 3.87-1.069 5.855-1.37a39.01 39.01 0 0 1 6.273-.505 39.84 39.84 0 0 1 6.447.404c4.437.696 8.731 2.103 12.719 4.168 1.933 1.008 3.784 2.166 5.537 3.461a41.22 41.22 0 0 1 8.653 8.652c4.176 5.597 6.829 12.18 7.701 19.108a37.37 37.37 0 0 1-.822 13.758c-.894 3.144-1.73 4.745-1.904 4.687zm-42.252 11.596l-2.308 6.633-5.927-2.062 2.249-6.461c-5.768-2.394-10.743-6.172-13.123-9.864l5.768-6.099a25.44 25.44 0 0 0 10.095 8.205l3.433-9.893c-6.028-3.894-12.618-8.653-9.676-17.103 2.177-6.288 8.652-10.095 18.358-7.917l2.278-6.577 5.927 2.062-2.249 6.461a28.32 28.32 0 0 1 10.787 7.787l-5.494 6.259a25.82 25.82 0 0 0-8.003-6.23l-3.49 10.095c6.043 3.822 12.503 8.523 9.604 16.888-2.177 6.142-8.537 9.921-18.227 7.816zm3.158-28.251l2.884-8.422c-3.388-.375-5.235.908-5.912 2.884s.706 3.792 3.029 5.538zm5.249 17.81c.706-2.077-.62-3.794-2.885-5.567l-2.884 8.177c3.259.374 5.104-.707 5.768-2.61z"/></g></g><defs><clipPath id="A"><path d="M0 0h816v644H0z" class="D"/></clipPath><path id="B" d="M598.347 189.462l-12.761-2.443a3 3 0 0 0-3.51 2.382l-2.444 12.761a3 3 0 0 0 2.382 3.511l12.762 2.443a3 3 0 0 0 3.51-2.382l2.443-12.761a3 3 0 0 0-2.382-3.511z"/><path id="C" d="M624.359 194.439l-12.761-2.443a3 3 0 0 0-3.51 2.381l-2.444 12.762a3 3 0 0 0 2.382 3.51l12.761 2.443a3 3 0 0 0 3.511-2.381l2.444-12.762a3 3 0 0 0-2.383-3.51z"/><path id="D" d="M624.363 194.439l-12.761-2.443a3 3 0 0 0-3.511 2.381l-2.443 12.762a3 3 0 0 0 2.382 3.51l12.761 2.443a3 3 0 0 0 3.511-2.381l2.443-12.762a3 3 0 0 0-2.382-3.51z"/><path id="E" d="M675.488 204.21l-12.761-2.443a3 3 0 0 0-3.511 2.382l-2.443 12.761a3 3 0 0 0 2.382 3.511l12.761 2.443a3 3 0 0 0 3.511-2.382l2.443-12.761a3 3 0 0 0-2.382-3.511z"/><path id="F" d="M619.129 221.781l-12.762-2.444a3 3 0 0 0-3.51 2.382l-2.443 12.762a3 3 0 0 0 2.381 3.51l12.762 2.443a3 3 0 0 0 3.51-2.382l2.443-12.761a3 3 0 0 0-2.381-3.51z"/><path id="G" d="M351.178 128.008c0 .202-67.664.375-151.09.375s-151.104-.173-151.104-.375 67.635-.375 151.104-.375l151.09.375z"/></defs></svg>