<svg xmlns="http://www.w3.org/2000/svg" xmlns:xlink="http://www.w3.org/1999/xlink" width="402" height="300" fill="none" xmlns:v="https://vecta.io/nano"><style><![CDATA[.B{fill:#263238}.C{fill:#2196f3}.D{fill:#fff}.E{fill:#f0f0f0}.F{fill:#000}.G{fill:#f5f5f5}.H{opacity:.3}.I{opacity:.5}.J{fill:#ffc3bd}.K{fill:#b55b52}.L{fill:#e6e6e6}.M{fill:#e0e0e0}]]></style><g clip-path="url(#B)"><path d="M0 0h402v300H0z" class="D"/><g clip-path="url(#C)"><mask id="A" maskUnits="userSpaceOnUse" x="0" y="0" width="402" height="300"><path d="M402 0H0V299.578H402V0Z" class="D"/></mask><g mask="url(#A)"><path d="M402 263.271H0v.202h402v-.202zm-346.908 7.653H42.18v.201h12.912v-.201zm125.544-2.178h-43.038v.201h43.038v-.201zm-95.596 9.649H55.895v.201H85.04v-.201zm254.513-9.752h-34.725v.201h34.725v-.201zm12.255 0h-5.089v.201h5.089v-.201zm-53.613 5h-43.328v.201h43.328v-.201zm-107.649-46.231H35.302a4.59 4.59 0 0 1-4.583-4.59V4.592A4.59 4.59 0 0 1 35.302.041h155.245a4.59 4.59 0 0 1 4.591 4.591v218.19a4.59 4.59 0 0 1-4.591 4.59zM35.302.202a4.39 4.39 0 0 0-4.382 4.39v218.23a4.39 4.39 0 0 0 4.382 4.389h155.245c1.164-.002 2.279-.465 3.102-1.288s1.286-1.938 1.288-3.101V4.592c-.002-1.164-.465-2.279-1.288-3.102a4.4 4.4 0 0 0-3.102-1.288H35.302zm329.159 227.21H209.208a4.6 4.6 0 0 1-3.244-1.346c-.86-.861-1.344-2.027-1.347-3.244V4.592a4.6 4.6 0 0 1 4.591-4.551h155.253a4.59 4.59 0 0 1 3.221 1.336c.857.852 1.343 2.007 1.353 3.215v218.23a4.59 4.59 0 0 1-1.339 3.24c-.857.861-2.021 1.346-3.235 1.35zM209.208.202c-1.163.002-2.279.465-3.101 1.288a4.4 4.4 0 0 0-1.289 3.102v218.23a4.4 4.4 0 0 0 1.289 3.101c.822.823 1.938 1.286 3.101 1.288h155.253c1.163-.002 2.279-.465 3.101-1.288a4.4 4.4 0 0 0 1.289-3.101V4.592a4.4 4.4 0 0 0-1.289-3.102c-.822-.823-1.938-1.286-3.101-1.288H209.208z" fill="#ebebeb"/><path d="M318.666 196.057h-5.338v67.206h5.338v-67.206z" class="G"/><path d="M320.987 196.057h-4.647v67.206h4.647v-67.206z" class="E"/><path d="M194.143 196.057h-5.338v67.206h5.338v-67.206z" class="G"/><path d="M196.463 196.057h-4.647v67.206h4.647v-67.206z" class="E"/><path d="M338.902 196.057h-5.34v67.206h5.34v-67.206z" class="G"/><path d="M341.225 196.057h-4.647v67.206h4.647v-67.206z" class="E"/><path d="M214.378 196.057h-5.339v67.206h5.339v-67.206z" class="G"/><path d="M188.812 197.334h152.415v-2.549H188.812v2.549z" class="E"/><path d="M188.805 197.334h23.251v-2.549h-23.251v2.549z" class="L"/><path d="M216.703 196.057h-4.648v67.206h4.648v-67.206z" class="E"/><path d="M265.029 145.838h-14.416v48.948h14.416v-48.948z" fill="#ebebeb"/><path d="M304.121 194.785h-47.854l-7.228-57.293h47.854l7.228 57.293z" class="M"/><path d="M306.935 194.785h-49.43l-7.228-57.293h49.43l7.228 57.293z" class="E"/><path d="M279.204 194.785h-9.591l2.701-57.293h9.592l-2.702 57.293zm10.993 0h-9.439l2.701-57.293h9.439l-2.701 57.293z" fill="#fafafa"/><path d="M346.482 14.119H222.16v97.276h124.322V14.119z" class="L"/><path d="M350.214 14.119H223.906v97.276h126.308V14.119z" class="E"/><path d="M346.482 111.395H222.16v3.256h124.322v-3.256z" class="L"/><path d="M352.199 111.395H225.891v3.256h126.308v-3.256z" class="E"/><path d="M344.998 106.17V19.338H229.133v86.832h115.865z" fill="#fafafa"/><path d="M292.535 106.17l8.362-86.832h14.472l-8.362 86.832h-14.472zm-36.515 0l8.361-86.832h14.472l-8.361 86.832H256.02z" class="D"/><path d="M231.55 76.743c-.105-.002-.205-.045-.279-.121s-.115-.176-.115-.281V22.738c0-.107.043-.209.118-.284s.178-.118.284-.118.209.042.285.118.117.178.117.284v53.603c0 .053-.01.106-.031.156a.41.41 0 0 1-.089.131c-.038.037-.084.067-.133.087s-.103.029-.157.028z" class="E"/><path d="M310.109 106.17l8.361-86.832h5.645l-8.362 86.832h-5.644z" class="D"/><path d="M344.995 106.177V19.346h-.659v86.831h.659z" class="L"/><use xlink:href="#D" class="I M"/><path d="M351.453 41.037H227.13l-.482-7.437H350.97l.483 7.437zm0 12.228H227.13l-.482-7.445H350.97l.483 7.445zm0 12.221H227.13l-.482-7.437H350.97l.483 7.437zm0 12.23H227.13l-.482-7.437H350.97l.483 7.437zm0 12.229H227.13l-.482-7.437H350.97l.483 7.437z" class="I M"/><path d="M351.453 34.926H227.13l-.482-7.445H350.97l.483 7.445zm0 12.222H227.13l-.482-7.437H350.97l.483 7.437zm0 12.229H227.13l-.482-7.437H350.97l.483 7.437zm0 12.228H227.13l-.482-7.437H350.97l.483 7.437zm0 12.229H227.13l-.482-7.445H350.97l.483 7.445zm0 12.22H227.13l-.482-7.437H350.97l.483 7.437z" class="I M"/><use xlink:href="#E" class="G"/><path d="M79.758 48.161h16.876c2.14 0 3.875-1.735 3.875-3.875v-6.48c0-2.14-1.735-3.875-3.875-3.875H79.758c-2.14 0-3.875 1.735-3.875 3.875v6.48c0 2.14 1.735 3.875 3.875 3.875z" class="G"/><path d="M85.272 33.921h5.845c.742 0 1.343-.601 1.343-1.343v-2.243c0-.742-.601-1.343-1.343-1.343h-5.845c-.742 0-1.343.601-1.343 1.343v2.243c0 .742.601 1.343 1.343 1.343z" class="M"/><path d="M79.758 76.621h16.876c2.14 0 3.875-1.735 3.875-3.875v-6.48c0-2.14-1.735-3.875-3.875-3.875H79.758c-2.14 0-3.875 1.735-3.875 3.875v6.48c0 2.14 1.735 3.875 3.875 3.875z" class="G"/><path d="M169.256 66.773s-.804 9.889-32.071 9.889-32.08-9.889-32.08-9.889h64.151zM73.357 78.625H48.578v175.457h24.779V78.625z" class="E"/><path d="M175.521 254.08H53.328v9.182h122.193v-9.182z" class="E"/><path d="M73.356 254.082h106.923V78.625H73.356v175.457z" class="G"/><path d="M83.094 182.381h87.443v-41.406H83.094v41.406zm0 50.642h87.443v-41.406H83.094v41.406zm0 14.932h87.443v-6.312H83.094v6.312z" class="E"/><path d="M149.036 144.255h-44.445a3.48 3.48 0 0 1-2.454-1.02c-.651-.651-1.017-1.533-1.02-2.453.005-.919.372-1.8 1.023-2.449s1.532-1.014 2.451-1.017h44.445c.919.003 1.8.368 2.451 1.017s1.018 1.53 1.022 2.449a3.48 3.48 0 0 1-3.473 3.473z" class="G"/><path d="M83.094 131.736h87.443V90.33H83.094v41.406z" class="E"/><path d="M149.036 93.618h-44.445a3.48 3.48 0 0 1-2.454-1.02c-.651-.651-1.017-1.533-1.02-2.454.003-.921.369-1.803 1.02-2.454a3.48 3.48 0 0 1 2.454-1.02h44.445a3.48 3.48 0 0 1 3.473 3.473 3.48 3.48 0 0 1-3.473 3.473zm0 101.28h-44.445a3.48 3.48 0 0 1-2.454-1.02c-.651-.651-1.017-1.533-1.02-2.454.003-.92.369-1.802 1.02-2.453a3.48 3.48 0 0 1 2.454-1.02h44.445a3.48 3.48 0 0 1 3.473 3.473 3.48 3.48 0 0 1-3.473 3.474z" class="G"/><path d="M183.577 76.631H73.348v2.002h110.229v-2.002z" class="E"/><path d="M45.121 78.623h28.237v-2.002H45.121v2.002z" class="L"/><path d="M201.001 299.58c86.094 0 155.888-4.075 155.888-9.102s-69.794-9.101-155.888-9.101-155.888 4.075-155.888 9.101 69.794 9.102 155.888 9.102z" class="G"/><path d="M355.416 210.778H46.583l-5.692-5.395h320.217l-5.692 5.395z" class="C"/><path d="M355.416 210.778H46.583l-5.692-5.395h320.217l-5.692 5.395z" class="D I"/><path d="M328.932 213.68H73.067l-4.719-2.903h265.304l-4.72 2.903z" class="C"/><path d="M328.932 213.68H73.067l-4.719-2.903h265.304l-4.72 2.903z" class="F I"/><path d="M71.042 290.478h-3.674L78.76 213.68h8.193l-15.911 76.798z" class="C"/><path d="M71.042 290.478h-3.674L78.76 213.68h8.193l-15.911 76.798z" class="F I"/><path d="M90.932 290.478h-3.666l11.393-76.798h8.193l-15.919 76.798z" class="C"/><path d="M90.932 290.478h-3.666l11.393-76.798h8.193l-15.919 76.798z" class="F I"/><path d="M330.958 290.478h3.674L323.24 213.68h-8.193l15.911 76.798z" class="C"/><path d="M330.958 290.478h3.674L323.24 213.68h-8.193l15.911 76.798z" class="F I"/><path d="M311.067 290.478h3.666L303.34 213.68h-8.192l15.919 76.798z" class="C"/><path d="M311.067 290.478h3.666L303.34 213.68h-8.192l15.919 76.798z" class="F I"/><path d="M180.322 32.313l10.38.699c.402.025.79.159 1.122.389a2.21 2.21 0 0 1 .759.913l1.094 2.412c.237.521.666.93 1.198 1.142a30.08 30.08 0 0 1 3.778 1.873c.485.285 1.059.377 1.608.257l2.605-.611c.393-.09.802-.073 1.186.05a2.23 2.23 0 0 1 .993.65l6.85 7.831c.266.305.444.676.515 1.074a2.23 2.23 0 0 1-.113 1.185l-.949 2.492c-.2.537-.185 1.13.041 1.656.543 1.307.995 2.65 1.35 4.02a2.19 2.19 0 0 0 .973 1.335l2.268 1.407c.343.212.621.513.806.871a2.22 2.22 0 0 1 .239 1.163l-.692 10.388a2.2 2.2 0 0 1-1.31 1.873l-2.412 1.093c-.518.242-.925.669-1.142 1.198-.529 1.303-1.152 2.566-1.865 3.779a2.21 2.21 0 0 0-.257 1.608l.603 2.597c.093.392.077.803-.046 1.187a2.22 2.22 0 0 1-.654.992l-7.831 6.85a2.21 2.21 0 0 1-2.251.402l-2.501-.949c-.529-.209-1.118-.209-1.648 0a31.16 31.16 0 0 1-4.02 1.351 2.22 2.22 0 0 0-1.334.973l-1.407 2.267a2.23 2.23 0 0 1-.877.806c-.359.184-.762.267-1.166.239l-10.379-.691c-.402-.027-.79-.162-1.121-.391s-.594-.544-.761-.911l-1.093-2.412c-.237-.521-.666-.93-1.198-1.142-1.302-.535-2.565-1.161-3.779-1.873-.484-.286-1.059-.378-1.608-.257l-2.597.611c-.392.092-.802.076-1.186-.047s-.727-.349-.993-.652l-6.858-7.831c-.264-.306-.441-.677-.511-1.074s-.033-.807.109-1.185l.949-2.492a2.2 2.2 0 0 0-.04-1.648 30.92 30.92 0 0 1-1.351-4.02c-.137-.555-.486-1.034-.973-1.335l-2.267-1.407a2.21 2.21 0 0 1-1.045-2.034l.691-10.388a2.23 2.23 0 0 1 .396-1.121c.231-.331.547-.594.915-.76l2.412-1.085c.521-.237.93-.666 1.141-1.198a30.3 30.3 0 0 1 1.874-3.787c.287-.484.381-1.058.265-1.608l-.611-2.597c-.092-.392-.076-.803.047-1.186s.349-.727.653-.992l7.831-6.85c.302-.266.672-.445 1.068-.518a2.22 2.22 0 0 1 1.183.108l2.5.949a2.2 2.2 0 0 0 1.648 0 29.97 29.97 0 0 1 4.02-1.351 2.26 2.26 0 0 0 1.335-.965l1.407-2.267c.212-.343.514-.622.872-.807s.76-.27 1.162-.246zM163.639 64.77a19.69 19.69 0 0 0 10.915 18.964 19.69 19.69 0 0 0 21.696-2.829 19.69 19.69 0 0 0 6.048-9.702c1.013-3.761.887-7.737-.361-11.427s-3.562-6.926-6.65-9.3a19.69 19.69 0 0 0-10.696-4.038 19.7 19.7 0 0 0-20.952 18.331z" class="C"/><use xlink:href="#F" class="C"/><use xlink:href="#F" class="D I"/><path d="M200.918 114.805l4.422-7.662a1.89 1.89 0 0 0 .251-.937 1.88 1.88 0 0 0-.247-.938c-.162-.286-.396-.524-.679-.692a1.88 1.88 0 0 0-.933-.264h-8.844a1.88 1.88 0 0 0-.937.26c-.284.167-.519.406-.682.692a1.88 1.88 0 0 0-.246.941c.002.33.091.653.257.938l4.422 7.662a1.9 1.9 0 0 0 .687.658 1.89 1.89 0 0 0 1.842 0 1.9 1.9 0 0 0 .687-.658zM56.03 202.183h108.387a2.76 2.76 0 0 0 1.996-.841c.259-.267.462-.584.595-.931a2.76 2.76 0 0 0 .183-1.09l-2.565-77.49a3 3 0 0 0-2.966-2.87H53.28c-.373-.002-.743.071-1.087.215a2.77 2.77 0 0 0-.914.626c-.259.269-.461.587-.594.936a2.75 2.75 0 0 0-.178 1.093l2.557 77.49c.031.767.357 1.493.909 2.026a2.98 2.98 0 0 0 2.057.836z" class="C"/><use xlink:href="#G" class="C"/><g opacity=".6" class="B"><use xlink:href="#G"/></g><path d="M58.313 202.045h130.899a3.44 3.44 0 0 1 1.821.522 3.43 3.43 0 0 1 1.267 1.408.98.98 0 0 1 .094.486.99.99 0 0 1-.152.471c-.09.141-.215.258-.362.338s-.313.121-.481.12H56.126a.99.99 0 0 1-.848-.455c-.091-.141-.144-.304-.155-.472a.99.99 0 0 1 .095-.488c.283-.58.724-1.068 1.271-1.409a3.44 3.44 0 0 1 1.824-.521z" class="C"/><path opacity=".6" d="M189.214 202.045H84.758a3.44 3.44 0 0 0-1.824.521c-.547.341-.988.829-1.271 1.409a.99.99 0 0 0-.095.488c.011.168.064.331.155.472a.99.99 0 0 0 .848.455H191.4c.168.001.334-.04.481-.12s.272-.197.362-.338a1 1 0 0 0 .153-.471.99.99 0 0 0-.095-.486 3.43 3.43 0 0 0-1.267-1.408c-.546-.341-1.177-.522-1.82-.522z" class="B"/><path d="M126.777 204.168h27.175a1.22 1.22 0 0 1 .859.361c.227.229.355.538.355.861h-29.611a1.22 1.22 0 0 1 1.222-1.222z" class="D H"/><path opacity=".9" d="M165.485 196.515l-2.412-71.878c-.014-.298-.142-.58-.357-.788a1.17 1.17 0 0 0-.8-.329H55.056c-.147-.002-.293.027-.429.085s-.258.143-.359.25-.179.234-.229.373a1.07 1.07 0 0 0-.06.434l2.412 71.877c.01.299.136.582.35.79a1.16 1.16 0 0 0 .8.328h106.931c.142-.009.281-.045.408-.106s.242-.149.336-.255.166-.229.213-.364a1.07 1.07 0 0 0 .056-.417z" class="D"/><path d="M77.394 197.633H62.656l16.989-74.113h14.737l-16.989 74.113zm9.389 0h-5.306l16.989-74.113h5.306l-16.988 74.113zm54.215 0h-5.307l16.989-74.113h5.298l-16.98 74.113z" class="D"/><path opacity=".4" d="M107.59 121.365a.88.88 0 0 0 .279.569.89.89 0 0 0 .589.235.8.8 0 0 0 .568-.235c.151-.151.236-.355.236-.569a.87.87 0 0 0-.868-.804c-.214 0-.418.085-.569.236a.8.8 0 0 0-.235.568z" class="D"/><path d="M142.1 113.453l4.495 7.035 4.719 6.946c3.12 4.537 6.494 8.893 10.106 13.049 1.697 1.94 3.538 3.749 5.508 5.411l.691.547c.151.129.31.25.474.362a12.9 12.9 0 0 0 1.295.747c1.085.528 2.209.975 3.361 1.335 1.214.41 2.492.804 3.795 1.101l4.02.925c2.693.571 5.507 1.093 8.216 1.56v5.628c-1.543.225-2.99.337-4.494.442s-2.991.145-4.502.153c-3.087.01-6.168-.234-9.214-.732-1.65-.287-3.275-.695-4.864-1.222-.89-.305-1.755-.676-2.589-1.11-.442-.209-.909-.506-1.359-.804l-1.037-.723a55.85 55.85 0 0 1-7.156-6.263c-4.148-4.33-7.987-8.945-11.489-13.813a189.42 189.42 0 0 1-5.033-7.236c-1.608-2.476-3.216-4.904-4.711-7.542l9.768-5.796z" class="J"/><path d="M128.567 115.012c-.804 7.06 16.023 23.927 16.023 23.927l11.385-9.503c-3.336-5.645-7.029-11.073-11.055-16.249-6.472-8.016-15.477-6.158-16.353 1.825z" class="C"/><path d="M137.765 120.021c-4.495-4.824-6.641-6.07-9.23-4.148.346 7.453 16.08 23.05 16.08 23.05 1.029-8-3.047-13.145-6.85-18.902z" class="F H"/><path d="M155.049 126.182l1.198 3.473-12.735 10.452-2.516-2.621 14.053-11.304z" class="C"/><path d="M155.049 126.182l1.198 3.473-12.735 10.452-2.516-2.621 14.053-11.304z" class="B H"/><path d="M188.175 152.359l8.844 1.519-4.864 7.767c-1.158.185-5.773-2.316-7.815-5.419l3.835-3.867z" class="J"/><path d="M202.447 159.121l-3.529 4.004-6.77-1.52 4.856-7.734 5.443 5.25z" class="J"/><path d="M137.727 108.251s9.648 22.689 2.701 64.947h-40.2c-.49-6.167 2.34-36.26-4.615-65.333a102.76 102.76 0 0 1 13.403-1.696c5.69-.33 11.395-.33 17.085 0a76.41 76.41 0 0 1 11.626 2.082z" class="C"/><path d="M104.591 115.013c.804 4.824-.273 16.225-4.374 29.459-.314-11.351-1.635-22.651-3.948-33.768v-.056c2.621-.218 7.526-.089 8.322 4.365z" class="F H"/><path d="M110.037 86.93c1.27 5.499 2.693 15.573-1.021 19.239 0 0 1.608 4.551 11.819 4.551 11.256 0 5.266-4.551 5.266-4.551-6.183-1.463-6.183-6.014-5.266-10.283l-10.798-8.957z" class="J"/><path d="M121.524 111.146l2.412 2.549a.52.52 0 0 1 .096.579l-1.206 2.516a.5.5 0 0 1-.178.212.52.52 0 0 1-.264.086l-1.825.088c-.087.004-.173-.015-.25-.055a.5.5 0 0 1-.192-.17l-1.689-2.412a.53.53 0 0 1-.104-.314c0-.113.037-.223.104-.313l2.316-2.742c.046-.059.104-.107.17-.141s.14-.052.214-.054a.49.49 0 0 1 .217.041c.069.03.13.074.179.13z" class="D"/><path d="M121.131 110.719c-1.161 1.867-1.833 3.996-1.954 6.191 0 0-13.049-4.462-12.454-10.991 1.159-.562 2.274-1.209 3.337-1.937 0 0 .426 4.124 11.071 6.737z" class="B"/><path d="M121.129 110.72c1.161 1.77 1.996 3.733 2.468 5.797 0 0 6.046-4.141 4.326-10.597l-3.554-.764s.748 4.165-3.24 5.564z" class="B"/><path d="M122.611 116.815c.804 2.67 6.866 22.464 7.019 27.2a.6.6 0 0 1 0 .12c-.563 2.549-3.087 7.019-4.116 8.772-.04.069-.098.126-.168.164s-.15.055-.229.05a.42.42 0 0 1-.367-.262l-3.538-8.29c-.02-.045-.034-.094-.04-.144-.531-8.643-.675-22.086-.941-27.457-.003-.058.006-.116.026-.17a.42.42 0 0 1 .09-.147c.04-.042.088-.076.142-.099s.111-.034.169-.034h1.551c.09.001.177.03.249.083s.126.129.153.214z" class="D"/><path opacity=".2" d="M114.44 90.58l6.391 5.298a17.31 17.31 0 0 0-.426 3.031c-2.355-.338-5.628-2.902-5.989-5.355a8.02 8.02 0 0 1 .024-2.975z" class="F"/><path d="M125.777 70.584c1.52 1.134 4.117 5.926.804 7.18s-4.526-9.961-.804-7.18z" class="B"/><path d="M108.057 80.337c1.519 7.324 2.042 11.674 6.327 15.043a9.72 9.72 0 0 0 9.969 1.345 9.72 9.72 0 0 0 4.054-3.29c1.027-1.446 1.638-3.145 1.768-4.913.627-6.794-1.978-17.624-9.648-19.762a9.83 9.83 0 0 0-9.571 2.195c-1.263 1.173-2.196 2.657-2.705 4.303s-.576 3.398-.194 5.079z" class="J"/><path d="M109.013 85.851l3.071-2.05.201-1.785c.282-2.588-.201-5.202-1.391-7.517 0 0 14.93.555 16.78-4.117s-3.409-8.185-3.409-8.185-5.283 3.031-8.844 3.272-14.472-4.213-14.472 5.009c-4.824 1.487-4.663 9.423 8.04 15.373" class="B"/><path d="M101.487 70.842s-1.977-1.568-.506-6.36c-1.809.9-2.677 5.797.506 6.36z" class="B"/><path d="M105.895 88.834c1.216 1.454 2.942 2.389 4.824 2.613 2.492.265 3.216-2.034 2.139-4.149-.997-1.897-3.49-4.326-5.789-3.61s-2.661 3.337-1.174 5.146z" class="J"/><path d="M143.818 197.633H118.13l-4.165-24.434h26.46l3.393 24.434z" class="B"/><path d="M101.208 197.633l-1.013-24.434h25.937l.185 24.434h-25.109zM119.58 81.164c.089.603.475 1.053.869 1.013s.643-.571.554-1.166-.474-1.053-.868-1.013-.643.563-.555 1.166zm6.809-.722c.088.603.474 1.053.868 1.005s.643-.563.555-1.158-.474-1.053-.868-1.013-.644.539-.555 1.166z" class="B"/><path d="M124.266 80.955c.986 1.761 2.203 3.383 3.618 4.824-.917 1.11-2.798.852-2.798.852l-.82-5.676z" fill="#ed847e"/><path d="M122.322 88.481c.414.044.832.044 1.246 0 .023-.002.046-.009.067-.02a.19.19 0 0 0 .054-.043c.015-.017.026-.039.033-.061s.009-.046.007-.069c-.006-.048-.03-.091-.068-.121s-.085-.044-.133-.04a4.99 4.99 0 0 1-4.165-1.431c-.015-.018-.034-.033-.055-.043s-.044-.017-.067-.019a.18.18 0 0 0-.07.008c-.022.007-.043.019-.061.034s-.033.034-.043.055a.2.2 0 0 0-.02.067.17.17 0 0 0 .009.07.18.18 0 0 0 .034.061c.858.886 2.004 1.436 3.232 1.552zm-5.203-9.279c.068.008.138-.004.2-.035s.112-.081.146-.142c.206-.389.504-.721.869-.968a2.69 2.69 0 0 1 1.221-.447.36.36 0 0 0 .246-.12c.063-.071.096-.163.092-.258-.002-.047-.014-.092-.033-.134s-.048-.08-.082-.111a.36.36 0 0 0-.119-.071.35.35 0 0 0-.136-.021c-.558.055-1.093.246-1.56.556a3.44 3.44 0 0 0-1.118 1.221.35.35 0 0 0-.045.133c-.007.047-.003.095.01.141s.034.088.064.126a.35.35 0 0 0 .108.091c.042.023.088.039.137.04zm11.817-1.439a.38.38 0 0 0 .241-.064.36.36 0 0 0 .096-.49 3.66 3.66 0 0 0-1.209-1.183 3.67 3.67 0 0 0-1.613-.514.36.36 0 0 0-.361.345.35.35 0 0 0 .103.253.36.36 0 0 0 .25.109c.454.043.892.19 1.28.43a2.95 2.95 0 0 1 .955.953.39.39 0 0 0 .112.107c.045.028.094.046.146.053z" class="B"/><path d="M103.289 119.161l-1.785 3.087-1.761 3.216-3.329 6.481-2.935 6.568-1.23 3.297-.571 1.648-.474 1.608-.121.41-.064.209v.048c0 .049 0 .089-.056.177-.033.316-.033.633 0 .949.101.956.3 1.899.595 2.814a49.3 49.3 0 0 0 2.573 6.432c2.034 4.366 4.511 8.772 6.947 13.073l-4.446 3.473c-1.897-1.905-3.602-3.843-5.274-5.885s-3.216-4.165-4.736-6.432c-1.548-2.316-2.893-4.761-4.02-7.308-.643-1.454-1.138-2.967-1.479-4.519a13.92 13.92 0 0 1-.306-2.854 10.05 10.05 0 0 1 .129-1.721l.064-.418.056-.257.105-.523a60.94 60.94 0 0 1 2.115-8.04c.852-2.589 1.849-5.081 2.91-7.541s2.227-4.824 3.473-7.188l1.93-3.481a77.07 77.07 0 0 1 2.123-3.482l9.568 6.159z" class="J"/><path d="M95.621 107.867c-7.075 1.037-14.367 25.671-14.367 25.671l15.228 8.434s6.166-11.722 9.109-20.421c3.079-9.118-2.387-14.794-9.97-13.684z" class="C"/><path d="M81.565 130.064l-.643 3.618 15.646 8.603 2.082-2.975-17.085-9.246z" class="C"/><path d="M81.565 130.064l-.643 3.618 15.646 8.603 2.082-2.975-17.085-9.246z" class="B H"/><path d="M99.053 167.505l7.477-1.302-3.835 8.659s-6.834-.04-6.52-3.562l2.878-3.795z" class="J"/><path d="M112.118 170.553l-3.522 6.994-5.901-2.685 3.835-8.659 5.588 4.35z" class="J"/><use xlink:href="#H" class="C"/><use xlink:href="#H" opacity=".6" class="B"/><path d="M345.085 202.183H236.698c-.372.001-.741-.072-1.084-.217a2.76 2.76 0 0 1-.912-.624 2.77 2.77 0 0 1-.595-.931 2.76 2.76 0 0 1-.183-1.09l2.565-77.49c.035-.766.361-1.491.913-2.024a3 3 0 0 1 2.054-.846h108.379c.373-.001.742.073 1.085.218s.655.358.914.626.461.586.594.934a2.77 2.77 0 0 1 .181 1.092l-2.565 77.49a2.98 2.98 0 0 1-.907 2.023c-.551.533-1.285.833-2.052.839z" class="C"/><path d="M343.685 202.045H212.786a3.44 3.44 0 0 0-1.821.522 3.43 3.43 0 0 0-1.267 1.408.98.98 0 0 0-.094.486.99.99 0 0 0 .152.471c.09.141.215.258.362.338s.313.121.481.12h135.273a.99.99 0 0 0 .483-.117c.148-.08.274-.196.365-.338a.99.99 0 0 0 .155-.472.98.98 0 0 0-.095-.488 3.43 3.43 0 0 0-1.271-1.409 3.44 3.44 0 0 0-1.824-.521z" class="C"/><path opacity=".6" d="M343.687 202.045h-20.1a3.44 3.44 0 0 0-1.824.521 3.43 3.43 0 0 0-1.271 1.409.98.98 0 0 0-.095.488.99.99 0 0 0 .52.81.99.99 0 0 0 .483.117h24.434c.168.003.334-.038.483-.117s.274-.196.365-.338a.99.99 0 0 0 .06-.96c-.28-.574-.714-1.058-1.254-1.398a3.44 3.44 0 0 0-1.801-.532z" class="B"/><path opacity=".2" d="M275.226 204.168H248.05a1.22 1.22 0 0 0-1.214 1.222h29.612a1.22 1.22 0 0 0-1.222-1.222z" class="F"/><path opacity=".9" d="M236.512 196.515l2.412-71.878c.015-.299.143-.581.358-.788s.501-.326.8-.329h106.932a1.06 1.06 0 0 1 .779.327 1.07 1.07 0 0 1 .231.364c.051.136.074.281.068.426l-2.412 71.878a1.16 1.16 0 0 1-.351.79c-.214.208-.5.325-.799.327H237.598a1.06 1.06 0 0 1-.424-.083 1.08 1.08 0 0 1-.358-.243c-.101-.105-.18-.229-.233-.365a1.09 1.09 0 0 1-.071-.426z" class="D"/><path d="M312.531 197.633h-14.738l16.989-74.113h14.737l-16.988 74.113zm-63.99 0h-5.307l16.989-74.113h5.298l-16.98 74.113zm76.075 0h-5.307l16.989-74.113h5.306l-16.988 74.113z" class="D"/><path opacity=".4" d="M294.41 121.365c-.02.217-.12.42-.28.568a.88.88 0 0 1-.588.236c-.214 0-.418-.085-.569-.236a.8.8 0 0 1-.235-.568c.016-.219.114-.424.276-.573s.372-.232.592-.231c.213 0 .418.085.568.235s.236.356.236.569z" class="F"/><path d="M286.594 86.93c-1.263 5.499-2.694 15.573 1.029 19.239 0 0-1.608 4.551-11.819 4.551-11.256 0-5.266-4.551-5.266-4.551 6.182-1.463 6.182-6.014 5.258-10.283l10.798-8.957z" class="K"/><path d="M302.954 113.051l2.123 3.482 1.937 3.481 3.474 7.188 2.902 7.541c.89 2.629 1.599 5.315 2.123 8.04l.104.523.049.257.072.418a12.09 12.09 0 0 1 .129 1.721c-.012.959-.114 1.914-.306 2.854-.344 1.552-.842 3.066-1.487 4.518a47.68 47.68 0 0 1-4.02 7.309l-4.744 6.432a78.65 78.65 0 0 1-5.274 5.885l-4.438-3.473c2.412-4.302 4.912-8.708 6.946-13.073 1.005-2.081 1.862-4.231 2.565-6.432.295-.915.494-1.858.595-2.814.036-.315.036-.634 0-.949 0-.088 0-.169-.064-.177v-.048l-.057-.209-.12-.41-.483-1.608-.562-1.648c-.378-1.102-.804-2.203-1.239-3.297-.892-2.203-1.889-4.39-2.926-6.568s-2.179-4.334-3.329-6.481l-1.76-3.216-1.785-3.079 9.575-6.167z" fill="#b65b52"/><path d="M301.016 107.867c7.076 1.037 14.36 25.671 14.36 25.671l-15.22 8.434s-6.175-11.682-9.109-20.421c-3.088-9.118 2.412-14.794 9.969-13.684z" class="B"/><path d="M296.411 121.365l-1.149 10.532 3.151 6.633c.33-4.221.322-11.087-2.002-17.165z" class="F H"/><path d="M315.065 130.064l.651 3.618-15.646 8.603-2.082-2.975 17.077-9.246z" class="C"/><path d="M315.065 130.064l.651 3.618-15.646 8.603-2.082-2.975 17.077-9.246z" class="B H"/><path d="M297.584 167.505l-7.486-1.302 3.843 8.659s6.826-.04 6.513-3.562l-2.87-3.795z" class="K"/><path d="M284.52 170.553l3.513 6.994 5.91-2.685-3.843-8.659-5.58 4.35z" class="K"/><path d="M258.889 108.251s-9.648 22.689-2.693 64.947h40.2c.49-6.167-2.348-36.26 4.615-65.333-4.421-.857-8.892-1.424-13.387-1.696-5.69-.33-11.395-.33-17.085 0a76.47 76.47 0 0 0-11.65 2.082z" class="B"/><path d="M254.588 127.659a136.35 136.35 0 0 0-.893 15.317c5.467-3.562 7.413-11.731 8.185-17.648l-7.292 2.331z" class="F H"/><path d="M264.34 119.258l-4.711 7.541-5.033 7.236c-3.505 4.868-7.347 9.483-11.497 13.813-2.202 2.285-4.593 4.38-7.148 6.263l-1.045.724c-.45.273-.917.57-1.351.804-.838.432-1.706.802-2.597 1.109-1.589.527-3.215.935-4.864 1.222a55.87 55.87 0 0 1-9.214.732c-1.503 0-3.007 0-4.494-.153s-2.959-.217-4.503-.442v-5.628a217.86 217.86 0 0 0 8.209-1.56 92.76 92.76 0 0 0 4.02-.925c1.327-.337 2.589-.691 3.795-1.101 1.153-.359 2.276-.805 3.361-1.335.445-.224.877-.473 1.294-.747.201-.121.322-.25.483-.362l.691-.547a52.59 52.59 0 0 0 5.507-5.411 148.92 148.92 0 0 0 10.107-13.049c1.608-2.283 3.159-4.615 4.719-6.946s3.063-4.752 4.495-7.035l9.776 5.797z" fill="#b65b52"/><path d="M268.061 115.014c.804 7.059-14.939 24.185-14.939 24.185l-12.454-9.745c3.333-5.646 7.022-11.073 11.047-16.249 6.465-8.032 15.453-6.174 16.346 1.809z" class="B"/><path d="M241.585 126.182l-1.198 3.473 12.728 10.452 2.524-2.621-14.054-11.304z" class="C"/><path d="M241.585 126.182l-1.198 3.473 12.728 10.452 2.524-2.621-14.054-11.304z" class="B H"/><path d="M207.882 152.496l-8.964.136 3.61 8.394c1.109.362 6.062-1.399 8.554-4.149l-3.2-4.381z" class="K"/><path d="M192.734 156.982l4.896 6.143 4.897-2.107-3.61-8.385-6.183 4.349z" class="K"/><path d="M268.013 80.442c-.089.603-.475 1.053-.869 1.005s-.643-.563-.563-1.158.483-1.053.877-1.013.643.539.555 1.166z" class="B"/><path d="M268.185 80.955a22.65 22.65 0 0 1-3.626 4.824c.924 1.11 2.806.852 2.806.852l.82-5.676z" fill="#a02724"/><path d="M267.16 85.394c-1.342 0-2.556-1.938-2.773-4.414-.205-1.377.129-2.779.932-3.915a1.52 1.52 0 0 1 .504-.395 1.51 1.51 0 0 1 .622-.151c1.342 0 2.557 1.93 2.774 4.406.213 1.377-.115 2.783-.917 3.923a1.54 1.54 0 0 1-.505.393c-.194.094-.405.147-.621.154h-.016zm-.723-8.474a1.13 1.13 0 0 0-.445.12 1.11 1.11 0 0 0-.359.29 5.03 5.03 0 0 0-.804 3.618c.193 2.195 1.278 4.02 2.412 4.02a1.13 1.13 0 0 0 .804-.418c.722-1.055 1.01-2.348.804-3.61-.233-2.171-1.319-4.02-2.412-4.02zm3.706.843a.35.35 0 0 0 .233-.064c.04-.025.073-.058.1-.096a.37.37 0 0 0 .055-.127.36.36 0 0 0 .001-.138.35.35 0 0 0-.051-.129 3.67 3.67 0 0 0-1.21-1.183 3.66 3.66 0 0 0-1.612-.514.36.36 0 0 0-.362.346c0 .095.037.185.103.253a.36.36 0 0 0 .251.109c.454.043.892.19 1.279.43a2.96 2.96 0 0 1 .956.953.37.37 0 0 0 .112.107.38.38 0 0 0 .145.053z" class="B"/><path d="M288.579 80.337c-1.528 7.325-2.042 11.674-6.336 15.043a9.72 9.72 0 0 1-9.962 1.338c-1.625-.706-3.026-1.843-4.052-3.287s-1.637-3.142-1.768-4.909c-.627-6.794 1.97-17.624 9.648-19.762a9.84 9.84 0 0 1 5.077-.177c1.679.386 3.226 1.206 4.489 2.378s2.195 2.655 2.704 4.3.579 3.396.2 5.076z" class="K"/><use xlink:href="#I" class="C"/><use xlink:href="#I" class="D H"/><path d="M272.692 82.539c-1.432-.716-3.216-7.863-2.726-10.404s6.255-5.274 11.923-4.245 8.105 3.015 9.206 8.177c1.134 5.355-2.999 14.271-5.041 14.962-1.21.429-2.498.595-3.778.486s-2.522-.488-3.643-1.114c-1.825-1.118-2.774-9.335-5.941-7.863z" class="B"/><path d="M271.19 74.7c-2.766.161-5.403-4.245-2.862-8.177.73-1.121 1.767-2.007 2.988-2.553a6.95 6.95 0 0 1 3.894-.526s-1.158 2.259 2.702 1.785 11.047.603 13.555 3.305c3.104 3.329 1.23 9.873-3.441 8.265S271.19 74.7 271.19 74.7z" class="B"/><path d="M270.449 74.814a4.08 4.08 0 0 1-1.66-.441c-.515-.263-.969-.634-1.33-1.086-.723-.864-1.191-1.911-1.353-3.026s-.011-2.252.436-3.286a.2.2 0 0 1 .044-.066c.018-.019.041-.034.065-.045s.051-.016.078-.016a.2.2 0 0 1 .078.015c.025.01.048.025.067.044s.034.041.045.066.016.051.016.078a.21.21 0 0 1-.015.078c-.424.963-.57 2.026-.421 3.067a5.63 5.63 0 0 0 1.265 2.826 3.39 3.39 0 0 0 1.451 1.118c.578.233 1.207.302 1.821.2a.21.21 0 0 1 .149.026c.045.027.078.069.093.119s.004.107-.023.154a.21.21 0 0 1-.122.096 2.84 2.84 0 0 1-.684.08z" class="B"/><path d="M277.233 81.616a7.46 7.46 0 0 1-1.712 5.234c-1.608 1.906-3.755.756-4.406-1.536-.587-2.066-.45-5.539 1.712-6.609s4.238.587 4.406 2.91z" class="K"/><path d="M252.816 197.632h28.823a94.7 94.7 0 0 0 1.021-24.433h-26.451l-3.393 24.433z" class="C"/><path d="M252.816 197.632h28.823a94.7 94.7 0 0 0 1.021-24.433h-26.451l-3.393 24.433z" class="D H"/></g></g></g><defs><clipPath id="B"><path d="M0 0h402v300H0z" class="D"/></clipPath><clipPath id="C"><path d="M0 0h402v300H0z" class="D"/></clipPath><path id="D" d="M351.453 28.808H227.13l-.482-7.437H350.97l.483 7.437z"/><path id="E" d="M79.758 62.399h16.876c2.14 0 3.875-1.735 3.875-3.875v-6.48c0-2.14-1.735-3.875-3.875-3.875H79.758c-2.14 0-3.875 1.735-3.875 3.875v6.48c0 2.14 1.735 3.875 3.875 3.875z"/><path id="F" d="M221.46 76.195l3.562-1.206c.188-.062.39-.072.583-.03a1.11 1.11 0 0 1 .518.271l.587.563c.206.184.472.287.748.289a11 11 0 0 1 1.463.096c.14.023.283.017.421-.016s.269-.093.383-.177l.659-.474c.163-.114.353-.183.551-.198a1.11 1.11 0 0 1 .575.11l3.369 1.672a1.1 1.1 0 0 1 .435.386c.108.166.168.357.176.555v.804c.01.278.125.542.321.74a10.53 10.53 0 0 1 .965 1.101c.168.219.412.368.683.418l.804.129a1.09 1.09 0 0 1 .853.732l1.206 3.562a1.09 1.09 0 0 1-.233 1.102l-.563.587a1.12 1.12 0 0 0-.29.748c0 .489-.032.978-.096 1.463a1.08 1.08 0 0 0 .012.42c.032.138.091.268.173.384l.474.659a1.08 1.08 0 0 1 .097 1.118l-1.673 3.377a1.09 1.09 0 0 1-.94.611h-.804a1.07 1.07 0 0 0-.732.322c-.35.341-.718.663-1.102.965a1.12 1.12 0 0 0-.418.683l-.128.804a1.09 1.09 0 0 1-.732.852l-3.562 1.206c-.188.064-.39.076-.584.033s-.373-.137-.517-.275l-.595-.554a1.06 1.06 0 0 0-.748-.29c-.486 0-.973-.032-1.455-.096a1.07 1.07 0 0 0-.421.012c-.138.032-.268.091-.383.173l-.659.474c-.161.117-.351.188-.55.205s-.397-.021-.576-.109l-3.369-1.672a1.1 1.1 0 0 1-.437-.389 1.09 1.09 0 0 1-.174-.559v-.804a1.11 1.11 0 0 0-.321-.732c-.345-.346-.667-.714-.965-1.101a1.05 1.05 0 0 0-.3-.277c-.117-.072-.248-.12-.383-.141l-.804-.129c-.196-.035-.378-.122-.529-.25s-.266-.295-.332-.481l-1.206-3.57a1.1 1.1 0 0 1 .241-1.093l.563-.587a1.14 1.14 0 0 0 .29-.756 11.19 11.19 0 0 1 .096-1.463c.044-.283-.025-.572-.193-.804l-.466-.659a1.08 1.08 0 0 1-.097-1.118l1.673-3.377a1.07 1.07 0 0 1 .94-.603h.804a1.11 1.11 0 0 0 .74-.322 11.33 11.33 0 0 1 1.102-.965c.219-.168.368-.412.418-.683l.128-.804c.031-.196.114-.38.242-.531s.294-.265.482-.329zm2.13 13.009a4.02 4.02 0 0 0 3.543 2.716 4.02 4.02 0 0 0 3.867-2.23c.352-.712.485-1.513.383-2.3a4.03 4.03 0 0 0-.959-2.126 4.02 4.02 0 0 0-4.309-1.166 4.01 4.01 0 0 0-1.363.783c-.399.348-.725.771-.959 1.246a4.02 4.02 0 0 0-.203 3.077z"/><path id="G" d="M56.916 202.183h108.388a2.76 2.76 0 0 0 1.995-.841c.259-.267.462-.584.595-.931a2.76 2.76 0 0 0 .183-1.09l-2.564-77.49a3.01 3.01 0 0 0-.913-2.024c-.552-.534-1.287-.837-2.054-.846H54.166a2.77 2.77 0 0 0-1.999.844c-.259.268-.461.586-.594.934s-.194.72-.18 1.092l2.565 77.49a2.98 2.98 0 0 0 .907 2.023c.551.533 1.286.833 2.052.839z"/><path id="H" d="M345.967 202.183H237.58c-.372.001-.741-.072-1.084-.217a2.76 2.76 0 0 1-.912-.624 2.77 2.77 0 0 1-.595-.931 2.76 2.76 0 0 1-.183-1.09l2.565-77.49c.035-.766.361-1.491.913-2.024a3 3 0 0 1 2.054-.846h108.379c.373-.002.743.071 1.087.215s.655.358.914.626a2.74 2.74 0 0 1 .594.936 2.75 2.75 0 0 1 .179 1.093l-2.557 77.49c-.031.767-.357 1.493-.909 2.026s-1.29.833-2.058.836z"/><path id="I" d="M298.563 197.632a92.54 92.54 0 0 0-2.13-24.433h-25.937a97.79 97.79 0 0 1 2.967 24.433h25.1z"/></defs></svg>