<svg xmlns="http://www.w3.org/2000/svg" xmlns:xlink="http://www.w3.org/1999/xlink" width="816" height="644" fill="none" xmlns:v="https://vecta.io/nano"><style><![CDATA[.B{fill:#fff}.C{opacity:.2}.D{fill:#2196f3}.E{fill:#000}.F{fill:#263238}.G{opacity:.4}.H{fill:#e0e0e0}.I{fill:#ebebeb}.J{opacity:.6}.K{fill:#ebb376}.L{fill:#407bff}.M{fill:#f0f0f0}.N{fill:#f5f5f5}.O{fill:#e6e6e6}.P{fill:#515b60}]]></style><g clip-path="url(#A)"><g class="I"><path d="M816 508.316H0v.408h816v-.408zm-81.761 26.26h-54.051v.408h54.051v-.408zm-193.69 4.438h-14.182v.408h14.182v-.408zm138.003-19.584h-31.318v.408h31.318v-.408zm-522.449 2.742H85.617v.408h70.486v-.408zm24.872 0h-10.33v.408h10.33v-.408zm186.473 6.889H214.562v.408h152.886v-.408zm19.337-93.531H71.662c-2.469-.005-4.835-.989-6.579-2.736a9.32 9.32 0 0 1-2.724-6.583V-16.763A9.32 9.32 0 0 1 71.662-26h315.123a9.32 9.32 0 0 1 6.589 2.729c1.748 1.748 2.729 4.118 2.729 6.589V426.21c0 2.471-.981 4.842-2.729 6.589a9.32 9.32 0 0 1-6.589 2.73zM71.662-25.674a8.91 8.91 0 0 0-8.894 8.911v442.974a8.91 8.91 0 0 0 2.604 6.295c1.668 1.671 3.93 2.611 6.29 2.616h315.123a8.93 8.93 0 0 0 6.296-2.615c1.67-1.671 2.61-3.934 2.614-6.296V-16.763c-.004-2.362-.944-4.626-2.614-6.296a8.93 8.93 0 0 0-6.296-2.615H71.662zm668.14 461.204H424.663a9.34 9.34 0 0 1-6.585-2.734c-1.747-1.747-2.73-4.115-2.734-6.585V-16.763c.026-2.456 1.018-4.803 2.762-6.532s4.1-2.701 6.557-2.705h315.139a9.32 9.32 0 0 1 9.286 9.237v442.974c0 2.466-.977 4.831-2.719 6.578a9.32 9.32 0 0 1-6.567 2.741zM424.663-25.674a8.93 8.93 0 0 0-6.297 2.615c-1.67 1.67-2.61 3.934-2.614 6.296v442.974c.004 2.362.944 4.625 2.614 6.296a8.93 8.93 0 0 0 6.297 2.615h315.139a8.93 8.93 0 0 0 8.911-8.911V-16.763a8.93 8.93 0 0 0-8.911-8.911H424.663z"/></g><g class="H"><path d="M194.108 403.836v23.175l-9.792 7.115h45.696l-14.59-5.402v-23.256l-21.314-1.632z"/><path d="M113.375 433.475v72.999h204v-72.999h-204zm200.328 28.592H154.028v-23.86h159.675v23.86z"/></g><path d="M149.117 433.475v72.999h168.259v-72.999H149.117zm164.587 28.592H154.029v-23.86h159.675v23.86z" class="I"/><g class="H"><path d="M313.702 438.205h-32.917v23.86h32.917v-23.86zm-118.956 11.93h-40.719v11.931h40.719v-11.931zm33.653 4.832H197.75v7.083h30.649v-7.083zm36.282-7.41h-29.197v14.492h29.197v-14.492zm-81.718 19.699l-.865 2.839H170.38l-.881-2.839h-15.472v31.66h51.359v-31.66h-22.423zm61.034 0l-.881 2.839h-11.719l-.881-2.839h-22.407v31.66h51.359v-31.66h-15.471zm47.133 0l-.864 2.839h-11.719l-.881-2.839h-15.471v31.66h51.359v-31.66H291.13zm-3.589-148.235H135.78a5.76 5.76 0 0 0-5.76 5.761v87.133a5.76 5.76 0 0 0 5.76 5.76h151.761a5.76 5.76 0 0 0 5.76-5.76v-87.133a5.76 5.76 0 0 0-5.76-5.761z"/></g><path d="M291.376 319.021h-151.76c-3.181 0-5.761 2.579-5.761 5.761v87.133c0 3.181 2.58 5.76 5.761 5.76h151.76a5.76 5.76 0 0 0 5.761-5.76v-87.133a5.76 5.76 0 0 0-5.761-5.761z" class="O"/><path d="M292.338 412.911v-89.075H138.652v89.075h153.686z" class="M"/><path d="M507.339 310.486h146.13c3.769-.002 7.502.738 10.984 2.179s6.648 3.554 9.314 6.219a28.69 28.69 0 0 1 6.223 9.309c1.443 3.482 2.185 7.214 2.185 10.983v114.11H478.648v-114.11c0-7.609 3.024-14.906 8.404-20.287s12.678-8.403 20.287-8.403z" class="O"/><path d="M435.449 395.057h26.112c4.524 0 8.861 1.796 12.06 4.994a17.06 17.06 0 0 1 4.995 12.06v94.363h-60.221v-94.363a17.06 17.06 0 0 1 4.995-12.06c3.198-3.198 7.536-4.994 12.059-4.994z" class="H"/><path d="M435.449 395.057h.539c4.523 0 8.861 1.796 12.059 4.994a17.06 17.06 0 0 1 4.995 12.06v94.363h-34.647v-94.363a17.06 17.06 0 0 1 4.995-12.06c3.198-3.198 7.536-4.994 12.059-4.994z" class="I"/><path d="M660.879 463.127H460.34v43.346h200.539v-43.346z" class="O"/><path d="M653.467 423.469H460.058c-9.572 0-17.331 7.76-17.331 17.331v10.821c0 9.572 7.759 17.332 17.331 17.332h193.409c9.572 0 17.332-7.76 17.332-17.332V440.8c0-9.571-7.76-17.331-17.332-17.331z" class="N"/><g class="H"><path d="M653.158 423.469h-24.006c-9.572 0-17.332 7.76-17.332 17.331v10.821c0 9.572 7.76 17.332 17.332 17.332h24.006c9.573 0 17.332-7.76 17.332-17.332V440.8c0-9.571-7.759-17.331-17.332-17.331z"/><path d="M655.723 395.057h26.112c4.522 0 8.86 1.796 12.058 4.994s4.996 7.537 4.996 12.06v94.363h-60.221v-94.363a17.05 17.05 0 0 1 1.298-6.526 17.07 17.07 0 0 1 3.697-5.534c1.584-1.583 3.464-2.839 5.533-3.696s4.286-1.298 6.527-1.298z"/></g><path d="M655.723 395.057h.554a17.06 17.06 0 0 1 17.055 17.054v94.363h-34.664v-94.363a17.05 17.05 0 0 1 1.298-6.526 17.07 17.07 0 0 1 3.697-5.534c1.584-1.583 3.464-2.839 5.533-3.696s4.286-1.298 6.527-1.298z" class="M"/><path d="M499.508 257.902h193.604V57.852H499.508v200.05z" class="I"/><path d="M492.734 257.902h193.605V57.852H492.734v200.05z" class="M"/><path d="M681.459 62.584h-183.6v190.667h183.6V62.584z" class="H"/><path d="M681.459 62.584H502.445V253.251H681.459V62.584Z" class="N"/><path d="M590.102 253.253h3.639V62.586h-3.639v190.667z" class="I"/><path d="M569.24 62.584l-51.016 190.667h-4.896l51.016-190.667h4.896z" class="B"/><path d="M588.547 256.906h3.117V59.647h-3.117v197.26z" class="M"/><g class="B"><path d="M550.72 62.584l-48.275 180.434v-99.177l21.739-81.257h26.536zm130.736 17.299v18.295l-41.501 155.073h-4.896l46.397-173.368zm.004 36.967v99.177l-9.955 37.225h-26.536L681.46 116.85z"/></g><path d="M159.383 211.881H276.61V69.244H159.383v142.637z" class="O"/><path d="M186.211 176.546l61.592-60.547-66.635-10.983 5.043 71.53z" class="H"/><path d="M246.316 162.202l3.052-46.431-46.381 11.392-3.362 35.528 46.691-.489z" class="M"/><path d="M198.882 110.102c7.31-7.311 7.31-19.163 0-26.473s-19.163-7.31-26.474 0-7.31 19.162 0 26.473 19.162 7.31 26.474 0z" fill="#fafafa"/><path d="M240.266 178.75a9.09 9.09 0 0 1 5.615-8.399c1.662-.688 3.491-.867 5.254-.515a9.09 9.09 0 0 1 7.138 7.151c.349 1.765.167 3.592-.524 5.253a9.09 9.09 0 0 1-3.355 4.077 9.08 9.08 0 0 1-5.054 1.523 9.06 9.06 0 0 1-3.477-.692c-1.102-.456-2.103-1.127-2.946-1.971s-1.511-1.846-1.965-2.949a9.06 9.06 0 0 1-.686-3.478z" class="H"/><path d="M247.183 194.713l-26.21-15.961 22.032-18.164 4.178 34.125z" class="N"/><path d="M216.223 87.391h-5.157v113.897h5.157V87.391z" class="H"/><g class="I"><path d="M265.608 87.391h-6.674v108.854h6.674V87.391zm-60.384 75.3h-34.076v34.077h34.076v-34.077z"/></g><path d="M407.999 582.019c174.758 0 316.428-8.271 316.428-18.474s-141.67-18.475-316.428-18.475S91.57 553.342 91.57 563.545s141.67 18.474 316.429 18.474z" class="N"/><path d="M325.356 269.457h340.043a6.97 6.97 0 0 1 2.667.53 6.96 6.96 0 0 1 3.771 3.772 6.95 6.95 0 0 1 .531 2.666V522.27H318.387V276.425a6.95 6.95 0 0 1 .531-2.666 6.96 6.96 0 0 1 1.51-2.261 6.97 6.97 0 0 1 2.26-1.511c.846-.35 1.752-.53 2.668-.53z" class="F"/><path d="M665.399 285.076H325.355V502.409H665.399V285.076Z" class="D"/><g class="B"><path d="M492.278 281.273c1.874 0 3.394-1.519 3.394-3.394s-1.52-3.395-3.394-3.395-3.395 1.52-3.395 3.395 1.52 3.394 3.395 3.394zm7.034-.847c1.405 0 2.545-1.14 2.545-2.546s-1.14-2.546-2.545-2.546-2.546 1.139-2.546 2.546 1.14 2.546 2.546 2.546zm-2.547 226.439c-.446-.156-.915-.239-1.388-.244a4.46 4.46 0 0 0-4.115 2.75 4.44 4.44 0 0 0-.254 2.574 4.45 4.45 0 0 0 1.219 2.282c.623.623 1.417 1.047 2.281 1.219a4.46 4.46 0 0 0 5.325-4.37c.009-.081.009-.164 0-.245a4.44 4.44 0 0 1-2.148-1.508c-.548-.708-.868-1.564-.92-2.458z" class="C"/></g><use xlink:href="#B" class="F"/><g class="B"><use xlink:href="#B" class="C"/><path d="M698.76 518.893v3.264a4.65 4.65 0 0 1-.67 2.398H292.685a4.64 4.64 0 0 1-.669-2.398v-3.264H698.76z" class="C"/></g><path d="M524.004 518.893v1.403a1.38 1.38 0 0 1-.106.531 1.36 1.36 0 0 1-.3.449 1.38 1.38 0 0 1-.45.302c-.169.069-.349.105-.531.105h-54.444a1.38 1.38 0 0 1-.535-.101c-.171-.068-.325-.17-.456-.299a1.39 1.39 0 0 1-.305-.453c-.071-.169-.107-.35-.107-.534v-1.403h57.234z" class="C E"/><path opacity=".1" d="M665.399 285.076S618.381 471.76 325.355 502.409V285.076h340.044z" class="B"/><path d="M633.218 199.984v204.424l-34.044 34.044H464.567a5.26 5.26 0 0 1-3.706-1.545c-.982-.985-1.533-2.319-1.533-3.711V199.984c0-1.391.551-2.725 1.533-3.71s2.315-1.541 3.706-1.545H627.93c.693-.005 1.38.128 2.021.39a5.26 5.26 0 0 1 1.716 1.138 5.25 5.25 0 0 1 1.148 1.708 5.26 5.26 0 0 1 .403 2.019z" class="D"/><g class="B"><path d="M633.218 208.91v195.498l-34.044 34.043H464.567c-1.391-.004-2.723-.559-3.706-1.545a5.25 5.25 0 0 1-1.533-3.71V208.91h173.89zm-4.571-7.687c.002.504-.144.999-.422 1.419a2.54 2.54 0 0 1-2.611 1.096c-.496-.096-.95-.337-1.308-.693a2.55 2.55 0 0 1-.702-1.302c-.098-.495-.049-1.008.143-1.474s.518-.864.937-1.145a2.55 2.55 0 0 1 1.417-.431 2.56 2.56 0 0 1 .973.188 2.54 2.54 0 0 1 .826.548c.236.235.424.514.553.823a2.54 2.54 0 0 1 .194.971zm-9.693 0a2.52 2.52 0 0 1-.427 1.406 2.53 2.53 0 0 1-1.135.931 2.54 2.54 0 0 1-1.462.145 2.53 2.53 0 0 1-1.295-.693 2.52 2.52 0 0 1-.692-1.295 2.53 2.53 0 0 1 1.075-2.597c.416-.278.906-.427 1.406-.427.333-.001.663.063.97.188a2.51 2.51 0 0 1 1.372 1.372c.125.307.189.637.188.97zm-9.679 0a2.54 2.54 0 0 1-.422 1.42c-.279.422-.676.751-1.142.946a2.56 2.56 0 0 1-1.475.149c-.494-.098-.95-.341-1.307-.699s-.599-.811-.697-1.307a2.54 2.54 0 0 1 1.093-2.616c.421-.279.916-.426 1.421-.423.671 0 1.314.267 1.788.742a2.53 2.53 0 0 1 .741 1.788z" class="J"/></g><g class="D"><path d="M564.999 224.659h-93.187c-.433 0-.848-.173-1.154-.479a1.63 1.63 0 0 1 1.154-2.785h93.187a1.63 1.63 0 0 1 1.154 2.785c-.306.306-.721.479-1.154.479zm-26.342 8.927h-66.912a1.63 1.63 0 1 1 0-3.264h66.912a1.63 1.63 0 1 1 0 3.264z"/><use xlink:href="#C"/><path d="M590.979 407.084H471.843a1.63 1.63 0 1 1 0-3.264h119.136a1.63 1.63 0 1 1 0 3.264zm19.929-26.715H471.812a1.63 1.63 0 1 1 0-3.264h139.096a1.63 1.63 0 0 1 1.153.478c.306.306.479.721.479 1.154s-.173.848-.479 1.154a1.63 1.63 0 0 1-1.153.478zm0 8.893H471.812a1.63 1.63 0 0 1-1.154-.478c-.306-.306-.478-.722-.478-1.154a1.64 1.64 0 0 1 .478-1.155c.306-.307.721-.477 1.154-.477h139.096c.432 0 .847.172 1.153.477s.479.722.479 1.155-.173.848-.479 1.154a1.63 1.63 0 0 1-1.153.478z"/><use xlink:href="#D"/><path opacity=".5" d="M633.18 404.408l-34.043 34.044v-34.044h34.043z"/></g><path d="M633.187 208.91h-9.613v195.498h9.613V208.91z" class="E G"/><g class="D"><use xlink:href="#E"/><path d="M610.905 322.463H491.769c-.433 0-.848-.171-1.155-.477a1.63 1.63 0 0 1-.477-1.155c0-.433.171-.847.477-1.154a1.64 1.64 0 0 1 1.155-.478h119.136a1.64 1.64 0 0 1 1.154 2.787c-.307.306-.722.477-1.154.477zm-19.926 35.66H471.843a1.63 1.63 0 0 1-1.154-2.785c.306-.306.721-.479 1.154-.479h119.136c.433 0 .848.173 1.154.479a1.63 1.63 0 0 1-1.154 2.785zm19.929-26.714H471.812c-.433 0-.848-.173-1.154-.479a1.63 1.63 0 0 1 1.154-2.785h139.096a1.63 1.63 0 0 1 1.153.477c.306.306.479.721.479 1.155a1.63 1.63 0 0 1-1.632 1.632zm0 8.894H471.812a1.63 1.63 0 0 1-1.632-1.632c0-.432.172-.848.478-1.154a1.63 1.63 0 0 1 1.154-.478h139.096a1.63 1.63 0 0 1 1.153.478c.306.306.479.722.479 1.154s-.173.848-.479 1.154a1.63 1.63 0 0 1-1.153.478zm0 8.91H471.812a1.63 1.63 0 0 1-1.632-1.632c0-.432.172-.848.478-1.154a1.63 1.63 0 0 1 1.154-.478h139.096c.432 0 .847.173 1.153.478s.479.722.479 1.154-.173.848-.479 1.154a1.63 1.63 0 0 1-1.153.478zm-.018-105.002H471.387v52.06H610.89v-52.06z"/></g><path d="M471.387 287.915h3.803v-9.465h4.373v-18.687h6.104v11.49h8.388v15.308h10.005v-10.657h8.273l5.468-5.483V257.74h3.345v18.164h8.422v6.463h8.714v-32.966l2.415-2.415v9.04h5.566v4.064l5.337 5.337v9.645h7.67v-7.622h20.008v-5.695h4.521v-9.956h1.615v15.651h2.546l5.762-5.76h5.417v-5.206h2.743v5.271h3.541v21.575h3.851v-10.771l1.632.098v-28.446H471.387v43.704z" class="C E"/><path d="M610.906 304.512H573.37a1.63 1.63 0 0 1-1.632-1.632c0-.432.172-.848.478-1.154a1.63 1.63 0 0 1 1.154-.478h37.536a1.63 1.63 0 0 1 1.154.478c.306.306.478.722.478 1.154a1.63 1.63 0 0 1-1.632 1.632z" class="D"/><path d="M526.648 194.729v168.944l-25.622 25.687h-41.698V200.048a5.26 5.26 0 0 1 5.239-5.255l62.081-.064z" class="C E"/><use xlink:href="#E" class="B G"/><path d="M427.158 225.421v204.425l-34.043 34.043H258.54c-1.391-.004-2.724-.559-3.706-1.544a5.26 5.26 0 0 1-1.533-3.71V225.421a5.26 5.26 0 0 1 1.533-3.71c.982-.985 2.315-1.541 3.706-1.545h163.363a5.26 5.26 0 0 1 3.716 1.539c.986.986 1.539 2.323 1.539 3.716z" class="D"/><g class="B"><path d="M427.158 234.367v195.497l-34.043 34.043H258.54c-1.391-.004-2.724-.559-3.706-1.544a5.26 5.26 0 0 1-1.533-3.71V234.367h173.857zm-4.469-7.689c.004.504-.143.999-.421 1.419a2.54 2.54 0 0 1-3.919.403c-.357-.355-.602-.809-.701-1.302s-.05-1.008.142-1.474a2.55 2.55 0 0 1 .938-1.145c.418-.281.911-.431 1.415-.431a2.56 2.56 0 0 1 .974.188 2.53 2.53 0 0 1 .826.548 2.51 2.51 0 0 1 .552.823c.129.307.194.637.194.971zm-9.793 0c.004.505-.143 1-.422 1.421a2.55 2.55 0 0 1-2.616 1.094c-.495-.098-.951-.341-1.308-.699a2.54 2.54 0 0 1-.548-2.781c.195-.466.523-.864.944-1.142a2.55 2.55 0 0 1 1.421-.423 2.57 2.57 0 0 1 .971.188c.307.127.587.313.823.549a2.52 2.52 0 0 1 .547.823 2.48 2.48 0 0 1 .188.97zm-9.643 0c.002.504-.144.999-.422 1.419a2.55 2.55 0 0 1-1.139.945 2.54 2.54 0 0 1-1.472.151c-.496-.096-.95-.337-1.308-.693a2.55 2.55 0 0 1-.702-1.302c-.099-.495-.049-1.008.142-1.474s.519-.864.938-1.145.912-.431 1.417-.431a2.55 2.55 0 0 1 .972.188c.309.127.59.312.827.548a2.52 2.52 0 0 1 .552.823 2.53 2.53 0 0 1 .195.971z" class="J"/></g><g class="D"><path d="M294.74 250.996h-28.952a1.63 1.63 0 0 1-1.154-2.785c.306-.306.721-.479 1.154-.479h28.952c.432 0 .848.173 1.154.479a1.63 1.63 0 0 1 .478 1.153 1.64 1.64 0 0 1-.478 1.154 1.63 1.63 0 0 1-1.154.478zm13.71 8.911h-42.595c-.433 0-.848-.173-1.154-.479a1.63 1.63 0 0 1-.478-1.153c0-.434.172-.848.478-1.155a1.63 1.63 0 0 1 1.154-.477h42.595a1.63 1.63 0 0 1 1.154.477c.306.307.478.721.478 1.155a1.63 1.63 0 0 1-.478 1.153c-.306.306-.721.479-1.154.479zm-13.239 8.91h-29.376a1.63 1.63 0 1 1 0-3.264h29.376c.432 0 .848.172 1.154.478a1.63 1.63 0 0 1 0 2.308c-.306.306-.722.478-1.154.478zM404.87 414.83H285.734a1.63 1.63 0 0 1-1.632-1.632c0-.433.171-.848.477-1.153s.721-.479 1.155-.479H404.87a1.63 1.63 0 0 1 1.153 2.786c-.306.307-.721.478-1.153.478zm-65.283 8.912h-73.799a1.63 1.63 0 1 1 0-3.263h73.799a1.63 1.63 0 1 1 0 3.263z"/><path opacity=".5" d="M427.157 429.846l-34.044 34.044v-34.044h34.044z"/></g><path d="M427.16 234.35h-9.613v195.497h9.613V234.35z" class="E G"/><g class="D"><use xlink:href="#F"/><path d="M404.868 250.996H382.46a1.63 1.63 0 0 1-1.154-.478c-.305-.306-.478-.72-.478-1.154a1.63 1.63 0 0 1 .478-1.153c.305-.305.722-.479 1.154-.479h22.408c.432 0 .847.173 1.154.479a1.63 1.63 0 0 1-1.154 2.785zm-.002 8.911h-11.554c-.433 0-.848-.173-1.155-.479a1.63 1.63 0 0 1-.477-1.153c0-.434.171-.848.477-1.155a1.63 1.63 0 0 1 1.155-.477h11.587c.433 0 .848.171 1.153.477a1.63 1.63 0 0 1 .479 1.155c0 .432-.172.848-.479 1.153a1.63 1.63 0 0 1-1.153.479h-.033zm.004 32.525H285.734c-.434 0-.848-.172-1.155-.477s-.477-.722-.477-1.155.171-.847.477-1.154a1.63 1.63 0 0 1 1.155-.478H404.87a1.63 1.63 0 0 1 1.153.478c.306.307.479.722.479 1.154a1.64 1.64 0 0 1-.479 1.155c-.306.307-.721.477-1.153.477zm-.003 8.912H265.788a1.63 1.63 0 1 1 0-3.264h139.079a1.63 1.63 0 1 1 0 3.264zm-81.6 8.91h-57.479a1.63 1.63 0 0 1-1.154-.477c-.306-.307-.478-.722-.478-1.155s.172-.847.478-1.154a1.63 1.63 0 0 1 1.154-.478h57.479c.433 0 .848.173 1.154.478a1.63 1.63 0 0 1 .478 1.154 1.64 1.64 0 0 1-.478 1.155 1.63 1.63 0 0 1-1.154.477z"/><path opacity=".7" d="M343.665 322.086h-54.802v14.688h54.802v-14.688z"/><path opacity=".3" d="M313.685 340.037h-24.822v54.232h24.822v-54.232zm61.741 0h-28.512v54.232h28.512v-54.232z"/><path opacity=".7" d="M404.867 322.086h-57.953v14.688h57.953v-14.688z"/><path opacity=".3" d="M404.884 340.037h-26.177v54.232h26.177v-54.232z"/><path opacity=".5" d="M285.601 340.037h-19.812v54.232h19.812v-54.232z"/><path d="M285.601 322.086h-19.812v14.688h19.812v-14.688z"/><path opacity=".3" d="M343.649 340.037h-26.7v54.232h26.7v-54.232z"/></g><use xlink:href="#F" class="B G"/><path d="M427.162 225.421v170.054h-98.459c-1.39-.004-2.723-.559-3.705-1.544s-1.533-2.319-1.533-3.71V220.166h98.442c1.394 0 2.731.554 3.716 1.539a5.26 5.26 0 0 1 1.539 3.716z" class="C E"/><path d="M513.607 132.795v204.423l-34.044 34.044H344.989c-1.391-.004-2.723-.56-3.706-1.545a5.26 5.26 0 0 1-1.533-3.71V132.795a5.26 5.26 0 0 1 1.533-3.711c.983-.985 2.315-1.541 3.706-1.545h163.363a5.26 5.26 0 0 1 3.716 1.539c.986.986 1.539 2.323 1.539 3.717z" class="D"/><g class="B"><path d="M513.607 141.721v195.497l-34.044 34.043H344.989c-1.391-.004-2.723-.56-3.706-1.545a5.25 5.25 0 0 1-1.533-3.71V141.721h173.857zm-7.085-5.156a2.53 2.53 0 1 0-2.53-2.53 2.53 2.53 0 0 0 2.53 2.53zm-9.692 0a2.53 2.53 0 1 0-2.529-2.53 2.53 2.53 0 0 0 2.529 2.53zm-7.149-2.53c.004.505-.143 1-.422 1.421a2.54 2.54 0 0 1-1.141.944c-.466.195-.98.247-1.475.149a2.55 2.55 0 0 1-1.308-.697 2.56 2.56 0 0 1-.697-1.307 2.55 2.55 0 0 1 1.093-2.617c.421-.278.916-.426 1.421-.422a2.48 2.48 0 0 1 .97.188 2.52 2.52 0 0 1 .823.547c.236.236.422.516.548.823s.191.639.188.971z" class="J"/></g><g class="D"><path d="M438.387 158.416h-33.243a1.63 1.63 0 0 1-1.632-1.632c0-.432.171-.848.478-1.153a1.64 1.64 0 0 1 1.154-.479h33.243a1.63 1.63 0 0 1 1.154 2.786c-.305.307-.721.478-1.154.478zm13.679 8.846h-60.547a1.63 1.63 0 0 1-1.154-.477c-.306-.307-.478-.722-.478-1.155s.172-.847.478-1.154a1.63 1.63 0 0 1 1.154-.478h60.547a1.63 1.63 0 0 1 1.154.478c.306.307.478.722.478 1.154a1.64 1.64 0 0 1-.478 1.155 1.63 1.63 0 0 1-1.154.477zm-13.187 8.928h-34.142c-.433 0-.848-.173-1.154-.478a1.63 1.63 0 0 1 1.154-2.786h34.272a1.63 1.63 0 0 1 1.154 2.786c-.306.305-.721.478-1.154.478h-.13zm52.435 23.597H372.097a1.63 1.63 0 0 1-1.632-1.632c0-.433.171-.848.478-1.153a1.63 1.63 0 0 1 1.154-.479h119.136a1.63 1.63 0 0 1 1.632 1.632c0 .433-.173.848-.478 1.154a1.63 1.63 0 0 1-1.154.478h.081zm-19.929 35.659H352.249a1.63 1.63 0 1 1 0-3.264h119.136c.432 0 .848.172 1.154.478a1.63 1.63 0 0 1-1.154 2.786z"/><use xlink:href="#G"/><path d="M491.313 217.625H352.218a1.63 1.63 0 0 1-1.154-2.786c.306-.305.721-.478 1.154-.478h139.095a1.64 1.64 0 0 1 1.155.478c.305.306.477.721.477 1.154s-.172.848-.477 1.154a1.63 1.63 0 0 1-1.155.478zm0 8.912H352.218a1.63 1.63 0 1 1 0-3.264h139.095c.433 0 .848.172 1.155.478s.477.721.477 1.154-.172.848-.477 1.154-.722.478-1.155.478zm.001 63.01H372.097a1.63 1.63 0 0 1-1.154-2.787c.306-.305.721-.477 1.154-.477h119.136c.432 0 .848.172 1.154.477a1.64 1.64 0 0 1 0 2.309c-.306.306-.722.478-1.154.478h.081zm-19.929 35.66H352.249a1.63 1.63 0 1 1 0-3.264h119.136a1.63 1.63 0 0 1 1.154 2.786c-.306.306-.722.478-1.154.478zm19.928-26.748H352.218a1.63 1.63 0 1 1 0-3.264h139.095c.433 0 .848.172 1.155.478s.477.721.477 1.154-.172.848-.477 1.154-.722.478-1.155.478zm0 8.926H352.218a1.63 1.63 0 1 1 0-3.264h139.095c.433 0 .848.172 1.155.478s.477.721.477 1.154-.172.848-.477 1.154-.722.478-1.155.478zm0 8.912H352.218a1.63 1.63 0 0 1-1.154-.478c-.306-.306-.478-.722-.478-1.154a1.63 1.63 0 0 1 1.632-1.632h139.095c.433 0 .848.172 1.155.478s.477.721.477 1.154-.172.848-.477 1.154-.722.478-1.155.478zm.003-161.537h-16.695v22.228h16.695V154.76zm-129.828 18.507c5.11 0 9.253-4.143 9.253-9.253s-4.143-9.254-9.253-9.254-9.254 4.143-9.254 9.254 4.143 9.253 9.254 9.253zm-9.792 73.849c.044.486.269.939.63 1.268a1.96 1.96 0 0 0 3.27-1.268c.025-.272-.007-.544-.094-.803s-.226-.495-.41-.696a1.96 1.96 0 0 0-1.446-.638 1.95 1.95 0 0 0-.79.167 1.96 1.96 0 0 0-.657.471c-.184.201-.323.438-.41.696a1.97 1.97 0 0 0-.093.803zm-.001 8.91c-.003.389.11.769.323 1.094a1.96 1.96 0 0 0 2.014.844c.381-.075.732-.262 1.006-.537s.462-.625.537-1.007.035-.776-.115-1.134-.404-.665-.728-.879a1.96 1.96 0 0 0-1.095-.323 1.94 1.94 0 0 0-1.942 1.942zm.001 8.927a1.96 1.96 0 0 0 1.95 1.781 1.96 1.96 0 0 0 1.95-1.781 1.95 1.95 0 0 0-.094-.802c-.087-.258-.226-.495-.41-.696s-.407-.362-.655-.472-.518-.167-.791-.167a1.97 1.97 0 0 0-.79.167 1.96 1.96 0 0 0-.657.472c-.184.201-.323.438-.41.696a1.95 1.95 0 0 0-.093.802zm0 8.911c.044.486.269.939.63 1.268a1.96 1.96 0 0 0 3.27-1.268c.025-.272-.007-.544-.094-.803s-.226-.495-.41-.696-.407-.362-.655-.471a1.96 1.96 0 0 0-.791-.167 1.95 1.95 0 0 0-.79.167c-.25.109-.473.27-.657.471s-.323.438-.41.696a1.97 1.97 0 0 0-.093.803zm29.933-25.116h-21.216a1.63 1.63 0 1 1 0-3.264h21.216a1.63 1.63 0 1 1 0 3.264zm19.924 8.911h-41.175c-.433 0-.848-.173-1.154-.479a1.63 1.63 0 0 1 1.154-2.785h41.175c.433 0 .848.171 1.155.477a1.63 1.63 0 0 1 0 2.308c-.307.306-.722.479-1.155.479zm-24.48 8.927h-16.695a1.63 1.63 0 0 1-1.154-2.786c.306-.305.721-.478 1.154-.478h16.695a1.64 1.64 0 0 1 1.155.478 1.63 1.63 0 0 1-1.155 2.786zm17.952 8.91h-34.647a1.63 1.63 0 1 1 0-3.264h34.647c.433 0 .848.172 1.155.479s.477.72.477 1.153a1.63 1.63 0 0 1-.477 1.154c-.307.306-.722.478-1.155.478z"/><path opacity=".5" d="M513.606 337.217l-34.044 34.044v-34.044h34.044z"/></g><g class="E"><path d="M491.316 154.76l-16.695 22.228h16.695V154.76zm-124.425 3.851H356.07v10.821h10.821v-10.821z" class="C"/><path d="M513.589 141.721h-9.612v195.497h9.612V141.721z" class="G"/></g><use xlink:href="#H" class="D"/><use xlink:href="#H" class="B G"/><use xlink:href="#I" class="D"/><use xlink:href="#I" class="B J"/><g class="N"><path d="M160.605 249.662v4.423l2.285.212c.278 1.452.832 2.837 1.632 4.08l-1.452 1.762 3.117 3.117 1.779-1.452c1.245.796 2.629 1.349 4.08 1.632l.212 2.268h4.406l.229-2.268c1.448-.289 2.832-.842 4.08-1.632l1.763 1.452 3.116-3.117-1.452-1.762c.793-1.248 1.347-2.631 1.632-4.08l2.268-.212v-4.423l-2.268-.213c-.285-1.449-.839-2.833-1.632-4.08l1.452-1.762-3.068-3.134-1.763 1.47a12 12 0 0 0-4.079-1.632l-.229-2.286h-4.406l-.212 2.286a11.71 11.71 0 0 0-4.08 1.632l-1.779-1.47-3.036 3.134 1.453 1.762a11.56 11.56 0 0 0-1.632 4.08l-2.416.213zm13.905-3.77c1.186-.004 2.346.345 3.334 1.002a5.99 5.99 0 0 1 .918 9.222c-.839.839-1.908 1.409-3.071 1.641a5.98 5.98 0 0 1-3.464-.345 5.99 5.99 0 0 1-2.687-2.213c-.657-.988-1.006-2.148-1.003-3.335a5.99 5.99 0 0 1 5.973-5.972zm-11.048 36.001a9.55 9.55 0 0 0 3.264-1.321l1.387 1.142 2.448-2.448-1.142-1.388c.639-.996 1.087-2.103 1.321-3.264l1.779-.162v-3.427l-1.779-.164c-.228-1.162-.676-2.27-1.321-3.264l1.142-1.387-2.448-2.448-1.387 1.143a8.92 8.92 0 0 0-3.264-1.322l-.164-1.796h-3.459l-.18 1.796a8.92 8.92 0 0 0-3.264 1.322l-1.371-1.143-2.448 2.448 1.143 1.387a8.99 8.99 0 0 0-1.339 3.264l-1.778.164v3.459l1.778.163c.233 1.164.687 2.273 1.339 3.264l-1.143 1.387 2.448 2.448 1.371-1.142a9.53 9.53 0 0 0 3.264 1.322l.18 1.779h3.459l.164-1.812zm-6.528-9.106a4.7 4.7 0 0 1 5.68-4.531c.909.194 1.741.653 2.389 1.319s1.084 1.51 1.253 2.424.062 1.858-.306 2.712a4.69 4.69 0 0 1-1.76 2.085c-.78.506-1.692.769-2.621.757a4.72 4.72 0 0 1-1.817-.36 4.67 4.67 0 0 1-1.535-1.036 4.66 4.66 0 0 1-1.014-1.549 4.69 4.69 0 0 1-.335-1.821h.066zm-2.482-10.412l.963 1.159 2.399-1.632-.735-1.321a7.5 7.5 0 0 0 1.632-2.432l1.502.146.538-2.856-1.452-.424a7.89 7.89 0 0 0-.588-2.84l1.159-.962-1.632-2.399-1.322.718c-.695-.699-1.521-1.255-2.432-1.632l.147-1.502-2.856-.505-.424 1.436a7.54 7.54 0 0 0-2.84.604l-.963-1.159-2.399 1.632.718 1.321a7.83 7.83 0 0 0-1.632 2.432l-1.501-.13-.539 2.856 1.436.408c.018.982.223 1.951.604 2.856l-1.158.962 1.632 2.4 1.322-.735c.701.692 1.526 1.245 2.431 1.632l-.13 1.502 2.856.538.408-1.452c.981-.031 1.95-.241 2.856-.621zm-6.871-7.947c.192-1.026.785-1.934 1.646-2.523a3.94 3.94 0 0 1 2.948-.619c1.026.193 1.933.785 2.522 1.647a3.94 3.94 0 0 1 .047 4.372c-.282.433-.647.806-1.074 1.098s-.906.496-1.412.602-1.028.113-1.535.017a3.95 3.95 0 0 1-1.425-.572c-.433-.283-.806-.648-1.098-1.075s-.496-.906-.603-1.411a3.95 3.95 0 0 1-.016-1.536z"/></g><path d="M230.701 427.893s4.014 36.131 5.321 40.44 19.697 27.32 19.697 27.32l-5.206 2.725s-19.584-20.139-22.701-26.112-7.785-37.144-7.785-37.144l10.674-7.229z" class="K"/><use xlink:href="#J" class="F"/><use xlink:href="#J" opacity=".1" class="B"/><path d="M227.5 478.223l11.946-9.465 2.563 5.369-11.016 7.866-3.493-3.77z" class="L"/><path d="M227.5 478.223l11.946-9.465 2.563 5.369-11.016 7.866-3.493-3.77z" class="G P"/><use xlink:href="#K" class="L"/><use xlink:href="#K" fill="#0872c6" class="C"/><g class="D"><path d="M310.081 551.728c-.052.031-.111.048-.172.048s-.12-.017-.172-.048a.24.24 0 0 1-.091-.134c-.015-.052-.012-.11.01-.16.147-.539 1.713-5.092 3.264-5.565.168-.042.345-.039.511.011s.316.14.436.266a1.63 1.63 0 0 1 .491.69 1.64 1.64 0 0 1 .08.844c-.262.85-.781 1.596-1.485 2.138a18.35 18.35 0 0 1-2.872 1.91zm.408-.882a6.82 6.82 0 0 0 3.378-3.264c.038-.195.02-.397-.052-.581s-.196-.346-.356-.463c-.045-.054-.104-.093-.171-.113s-.138-.021-.205-.001c-.128.054-.249.126-.359.212a13.34 13.34 0 0 0-2.203 4.161l-.032.049z"/><path d="M310.081 551.73c-.05.024-.108.03-.162.014s-.101-.049-.132-.097c-.146-.13-2.333-2.888-1.974-4.749.041-.231.128-.452.258-.648s.297-.364.492-.494c.166-.159.381-.256.609-.277a1.01 1.01 0 0 1 .648.163c1.159.799 1.012 4.504.458 5.892v.146l-.197.05zm-1.239-5.402c-.195.169-.327.399-.376.652a6.41 6.41 0 0 0 1.452 3.803c.36-1.632.245-4.162-.424-4.636 0 0-.212-.146-.555.098l-.097.083zm-81.993 13.103a.29.29 0 0 1 .132-.123c.055-.026.117-.035.178-.024.054.007.104.031.143.07s.062.089.069.142c.115.539.947 5.288-.212 6.528-.122.121-.275.205-.443.242s-.342.028-.503-.029c-.282-.053-.545-.179-.762-.364s-.383-.427-.478-.698c-.186-.865-.095-1.767.26-2.577a18.06 18.06 0 0 1 1.616-3.167zm0 .963a6.82 6.82 0 0 0-1.387 4.471c.061.19.174.359.327.486a1.04 1.04 0 0 0 .538.232.3.3 0 0 0 .201.025c.069-.015.13-.052.175-.106.095-.103.167-.225.212-.359.296-1.568.307-3.177.032-4.749h-.098z"/></g><path d="M257.868 535.475l-19.486 6.936-9.351 3.329 2.4 10.233 9.057-1.926 22.13-4.717-4.75-13.855z" class="K"/><path d="M233.981 556.461l-1.632-12.077a1.2 1.2 0 0 0-.16-.456c-.082-.139-.193-.26-.324-.356s-.279-.165-.438-.202-.322-.042-.482-.014l-5.957.995s-8.16.768-9.792 2.84c-4.716 6.088-1.779 32.885 1.371 33.832 1.142.342 2.35-1.224 2.856-2.318 1.632-3.46 4.39-12.485 5.745-15.357 1.632-3.346 5.94-4.978 7.899-5.565.287-.07.54-.243.708-.487s.242-.541.206-.835z" class="F"/><path d="M226.93 559.333a.28.28 0 0 1 .146-.042c.052 0 .104.015.148.042.195 0 3.443 1.404 4.031 3.264a1.82 1.82 0 0 1-.114 1.372 1.03 1.03 0 0 1-.399.539c-.189.129-.416.193-.646.179-1.388-.147-3.068-3.461-3.264-4.896v-.147c-.016-.056-.015-.115.002-.17s.051-.104.096-.141zm3.705 4.145a1.25 1.25 0 0 0 0-.766c-.376-1.143-2.187-2.155-3.118-2.611.458 1.55 1.812 3.77 2.628 3.851 0 0 .245 0 .424-.343v-.131h.066z" class="D"/><path d="M257.873 535.475l-19.486 6.936 2.106 11.636 22.129-4.717-4.749-13.855z" class="C E"/><path d="M243.937 555.792l5.614.408-3.753-19.274-6.349 3.509 4.488 15.357z" class="L"/><path d="M243.937 555.792l5.614.408-3.753-19.274-6.349 3.509 4.488 15.357z" class="B J"/><path d="M162.676 480.898l29.18 32.362s32.265-.718 71.433 18.426c0 0 42.024-17.364 45.891-31.792 5.059-18.898-96.646-4.128-96.646-4.128l-49.858-14.868z" class="C D"/><use xlink:href="#L" class="F"/><use xlink:href="#L" class="B G"/><path d="M299.536 503.746v4.798c0 1.224-1.452 1.73-2.66 1.73h-63.191c-1.224 0-2.693-.506-2.693-1.73v-4.798h68.544z" class="C E"/><path d="M315.564 453.972l-11.424 51.735c-.211.827-.688 1.564-1.357 2.094a3.9 3.9 0 0 1-2.348.844h-62.277a2.51 2.51 0 0 1-1.119-.286 2.49 2.49 0 0 1-.87-.759 2.48 2.48 0 0 1-.436-1.068c-.06-.386-.029-.78.091-1.151l11.424-51.344c.23-.781.723-1.459 1.394-1.92a3.54 3.54 0 0 1 2.294-.609h62.311c1.729.016 2.692.783 2.317 2.464z" class="F"/><path d="M315.565 453.972l-11.424 51.734a3.91 3.91 0 0 1-1.357 2.094c-.67.531-1.494.827-2.348.844H240.28c-.39-.008-.773-.107-1.12-.288s-.644-.44-.874-.756a2.54 2.54 0 0 1-.447-1.066 2.53 2.53 0 0 1 .075-1.154l11.424-51.342c.235-.765.72-1.427 1.377-1.883a3.57 3.57 0 0 1 2.245-.631h60.189c1.827 0 2.791.767 2.416 2.448z" class="B G"/><path d="M284.849 480.263c0 4.439-4.749 8.03-8.16 8.03s-5.549-3.591-4.553-8.03 4.455-7.882 7.867-8.013c-.997 4.439 1.126 8.013 4.601 8.013a1.67 1.67 0 0 0 .245 0z" class="C E"/><path d="M271.402 557.635l20.4 3.362 9.792 1.599 2.856-10.117-8.861-2.693-21.641-6.577-2.546 14.426z" class="K"/><path d="M302.456 550.831l-4.406 11.424a1.19 1.19 0 0 0-.109.488c-.001.168.033.335.101.489s.168.292.293.406a1.21 1.21 0 0 0 .433.249l5.695 2.007s7.459 3.264 9.875 2.22c7.066-3.036 17.461-27.924 15.177-30.257-.832-.866-2.66 0-3.623.635-3.069 2.253-9.89 8.814-12.453 10.658-3.018 2.154-7.621 1.485-9.611 1.061-.265-.074-.548-.052-.798.061s-.454.311-.574.559z" class="F"/><path d="M271.402 557.635l20.4 3.362 3.787-11.211-21.641-6.577-2.546 14.426z" class="C E"/><g class="L"><path d="M292.127 547.68s-83.232-46.773-111.89-45.435-32.852 26.634-21.003 42.432 33.717 19.682 33.717 19.682-14.9-21.036-12.746-26.96 10.575 2.35 10.575 2.35 52.289 16.874 98.083 20.824l3.264-12.893z"/><path d="M293.419 546.393l-4.7-3.166-6.055 18.588h7.263l3.492-15.422z"/></g><path d="M293.419 546.393l-4.7-3.166-6.055 18.588h7.263l3.492-15.422z" class="B J"/><path d="M147.352 471.596l52.991 4.896s8.306-17.201 14.688-23.909 12.011-40.8 12.011-40.8a113.11 113.11 0 0 0-13.285-5.418c-13.072-4.383-26.752-6.684-40.538-6.822h-.229c-3.949 0-6.234.196-6.234.196a11.26 11.26 0 0 0-3.77 4.292c-5.679 9.792-10.2 32.64-12.876 49.042-1.812 10.608-2.758 18.523-2.758 18.523z" class="F"/><path d="M150.027 453.09c11.686-5.352 27.63-14.411 26.798-23.599-.898-10.085-9.074-20.236-13.921-25.442-5.679 9.792-10.2 32.64-12.877 49.041z" class="C E"/><use xlink:href="#M" class="F"/><use xlink:href="#M" opacity=".1" class="B"/><use xlink:href="#N" class="L"/><use xlink:href="#N" class="G P"/><path d="M204.667 403.037c.098 3.264 1.975 4.08 1.975 4.08.162 1.011.09 2.046-.211 3.024a6.68 6.68 0 0 1-1.522 2.622c-.702.745-1.565 1.32-2.524 1.68s-1.987.494-3.006.393c-10.395-1.06-13.676-13.577-13.676-13.577 7.556-3.003 9.254-11.343 9.58-16.32.092-1.293.092-2.592 0-3.884l14.134 8.893a49.47 49.47 0 0 0-3.15 6.186 17.68 17.68 0 0 0-1.6 6.903z" class="K"/><path d="M208.553 388.855a51.24 51.24 0 0 0-2.514 6.528 17.53 17.53 0 0 0-.881 7.001c-7.948.621-11.114-16.923-11.114-16.923v-.115c-.036-1.296-.167-2.59-.392-3.867l14.901 7.376z" class="C E"/><path d="M217.594 349.656s10.379-11.947-2.04-21.951-36.949-5.5-41.47 17.103 1.632 32.151 1.632 32.151 0-14.395 4.146-18.589c0 0-1.241 6.888 0 11.016s0 1.518 0 1.518 3.818-18.034 22.228-12.86 15.504-8.388 15.504-8.388z" class="F"/><path d="M220.074 353.539c13.676 4.178 15.847 12.828 12.55 27.222-4.113 17.952-11.832 29.376-27.744 20.334-21.705-12.19-7.506-54.476 15.194-47.556z" class="K"/><path d="M224.027 377.301c.466 2.377 1.217 4.69 2.236 6.886a3.91 3.91 0 0 1-1.967.802 3.92 3.92 0 0 1-2.097-.344l1.828-7.344z" fill="#d58745"/><g class="F"><path d="M215.998 373.644c-.327 1.126-1.191 1.877-1.942 1.632s-1.11-1.305-.8-2.432 1.191-1.877 1.942-1.632 1.11 1.289.8 2.432z"/><path d="M214.867 371.18l2.725-.278s-1.794 1.73-2.725.278zm15.247 6.153c-.31 1.126-1.175 1.877-1.926 1.632s-1.109-1.305-.799-2.431 1.191-1.877 1.942-1.632 1.11 1.305.783 2.431z"/><path d="M229.004 374.869l2.726-.277s-1.812 1.73-2.726.277zm-16.844-9.857a.6.6 0 0 1-.346-.127c-.098-.077-.17-.183-.207-.303a.61.61 0 0 1 .226-.663 7.89 7.89 0 0 1 3.531-.996c1.239-.051 2.472.189 3.601.702a.58.58 0 0 1 .303.323c.055.144.051.303-.009.444-.031.073-.075.139-.131.193a.55.55 0 0 1-.195.127.57.57 0 0 1-.23.042c-.078-.002-.156-.02-.227-.052-.949-.421-1.981-.621-3.017-.587s-2.053.301-2.973.783c-.092.075-.207.116-.326.114zm21.786 4.977c-.086-.002-.171-.022-.25-.059a.61.61 0 0 1-.206-.153 6.03 6.03 0 0 0-2.011-1.824 6.01 6.01 0 0 0-2.608-.754c-.155.004-.306-.05-.421-.154s-.187-.247-.199-.401a.59.59 0 0 1 .032-.228c.025-.073.065-.14.117-.198a.57.57 0 0 1 .184-.137c.069-.034.144-.053.222-.058a7.12 7.12 0 0 1 5.598 2.987.6.6 0 0 1 .174.425c0 .158-.062.311-.174.424-.064.05-.138.089-.216.11a.6.6 0 0 1-.242.02z"/><path d="M198.109 372.029s9.792-9.286 11.424-18.246c0 0 30.469-2.806 23.419 25.101 0 0 10.102-23.615-13.235-31.319s-33.669 26.701-24.643 40.638c0 0-3.052-10.363 3.035-16.174zm20.938 18.768a7.57 7.57 0 0 1-4.973-1.8c-1.388-1.178-2.304-2.816-2.583-4.614a.62.62 0 0 1 .129-.438c.097-.124.237-.207.393-.232.155-.014.31.033.431.13a.6.6 0 0 1 .222.393 6.31 6.31 0 0 0 6.414 5.385c.156 0 .305.062.415.172a.59.59 0 0 1 .172.415c0 .155-.061.306-.172.416a.59.59 0 0 1-.415.173h-.033z"/><use xlink:href="#O"/></g><g opacity=".3" class="B"><use xlink:href="#O"/></g><g class="K"><path d="M199.465 375.585a6.27 6.27 0 0 0-.854-4.708c-.896-1.395-2.309-2.377-3.928-2.733-4.374-.833-9.057 7.246.849 12.55 1.42.767 2.725-.457 3.933-5.109zm-26.476 42.026s1.632 34.893 4.585 42.726 33.767 36.687 33.767 36.687 8.6-1.909 10.02-1.354 9.629 8.16 9.629 8.16h-23.729l-2.073-3.656s-31.889-23.631-35.398-29.262c-2.595-4.161-10.935-46.544-10.935-46.544l14.134-6.757z"/></g><use xlink:href="#P" class="F"/><use xlink:href="#P" opacity=".1" class="B"/><path d="M170.645 480.084l15.063-13.48 3.557 4.993-13.463 13.219-5.157-4.732z" class="L"/><path d="M170.645 480.084l15.063-13.48 3.557 4.993-13.463 13.219-5.157-4.732z" class="G P"/></g><defs><clipPath id="A"><path d="M0 0h816v644H0z" class="B"/></clipPath><path id="B" d="M698.76 518.893v3.264a4.75 4.75 0 0 1-.94 2.806c-.606.81-1.455 1.406-2.422 1.699l-24.644 7.213c-3.061.913-6.239 1.374-9.433 1.371H329.47c-3.188.002-6.361-.46-9.416-1.371l-24.66-7.278c-.971-.291-1.823-.885-2.432-1.696s-.939-1.795-.946-2.809v-3.264l406.744.065z"/><path id="C" d="M610.905 371.424H491.769c-.433 0-.848-.171-1.155-.477s-.477-.722-.477-1.155.171-.847.477-1.154a1.64 1.64 0 0 1 1.155-.478h119.136a1.64 1.64 0 0 1 1.632 1.632 1.64 1.64 0 0 1-.478 1.155c-.307.306-.722.477-1.154.477z"/><path id="D" d="M610.908 398.172H471.812a1.63 1.63 0 0 1-1.632-1.632c0-.432.172-.848.478-1.154s.721-.478 1.154-.478h139.096c.432 0 .847.173 1.153.478s.479.722.479 1.154-.173.848-.479 1.154-.721.478-1.153.478z"/><path id="E" d="M628.322 311.057c-.939 0-1.839-.373-2.504-1.037a3.54 3.54 0 0 1-1.037-2.505V287.54a3.54 3.54 0 0 1 1.066-2.452c.662-.646 1.55-1.008 2.475-1.008a3.55 3.55 0 0 1 1.355.269 3.56 3.56 0 0 1 1.15.769 3.53 3.53 0 0 1 .767 1.148c.178.43.27.891.27 1.355v19.977a3.54 3.54 0 0 1-1.066 2.451c-.662.646-1.55 1.008-2.476 1.008z"/><path id="F" d="M422.346 416.481c-.939 0-1.84-.374-2.504-1.038a3.54 3.54 0 0 1-1.037-2.504v-19.976c0-.939.373-1.84 1.037-2.503a3.54 3.54 0 0 1 2.504-1.038c.465 0 .926.092 1.356.269s.82.439 1.148.769.59.719.768 1.148a3.54 3.54 0 0 1 .27 1.355v20.009c-.009.933-.386 1.826-1.049 2.483s-1.559 1.026-2.493 1.026z"/><path id="G" d="M491.313 208.698H352.218a1.63 1.63 0 0 1-1.632-1.632 1.63 1.63 0 0 1 1.632-1.632h139.095c.433 0 .848.172 1.155.478s.477.721.477 1.154-.172.848-.477 1.154-.722.478-1.155.478z"/><path id="H" d="M508.795 178.588c-.939 0-1.84-.374-2.504-1.037a3.54 3.54 0 0 1-1.037-2.504v-19.894c0-.939.373-1.84 1.037-2.505a3.54 3.54 0 0 1 5.008 0 3.54 3.54 0 0 1 1.037 2.505v19.975c-.02.925-.403 1.805-1.065 2.452a3.54 3.54 0 0 1-2.476 1.008z"/><path id="I" d="M136.809 225.213h56.989a8.27 8.27 0 0 1 5.84 2.429c1.548 1.551 2.418 3.654 2.418 5.845v55.39c0 2.19-.87 4.291-2.418 5.84a8.26 8.26 0 0 1-5.84 2.418h-23.142l2.497 16.695-11.424-16.695h-24.92c-1.085.003-2.16-.209-3.163-.624a8.22 8.22 0 0 1-4.471-4.471c-.414-1.003-.626-2.077-.624-3.163v-55.39c-.002-1.085.21-2.161.624-3.165s1.022-1.916 1.789-2.684 1.678-1.379 2.681-1.794a8.24 8.24 0 0 1 3.164-.631z"/><path id="J" d="M227.029 411.801c6.773 3.59 8.992 53.741 8.992 53.741l3.427 5.272-10.411 7.474c-2.507-4.133-4.69-8.454-6.528-12.925-2.073-5.581-6.986-33.129-6.986-33.129l11.506-20.433z"/><path id="K" d="M200.33 476.462l12.207 19.306c24.203-5.63 101.772-17.462 111.286 9.156 11.849 33.064-73.717 59.437-121.061 61.052s-85.354-25.344-55.407-94.378l52.975 4.864z"/><path id="L" d="M299.536 503.746v4.798c0 1.224-1.452 1.73-2.661 1.73h-95.814c-1.224 0-2.709-.506-2.709-1.73v-4.798h101.184z"/><path id="M" d="M175.801 399.609s6.039 19.878 22.554 22.032 19.258-13.872 19.258-13.872-21.266-11.669-41.812-8.16z"/><path id="N" d="M179.258 400.164s7.785 18.408 21.819 18.408 14.476-10.33 14.476-10.33-14.035-9.204-36.295-8.078z"/><path id="O" d="M195.741 369.287c-.021.088-.011.182.028.265s.103.15.184.191h.098l13.922 3.264c-.224 1.324-.001 2.684.635 3.866s1.646 2.119 2.873 2.662c1.596.796 3.428.977 5.149.511s3.21-1.548 4.186-3.04a5.2 5.2 0 0 0 .425-.914 2.36 2.36 0 0 1 .844-.444c.308-.09.632-.116.951-.078a1.28 1.28 0 0 1 .452.336 1.29 1.29 0 0 1 .266.496c-.19 1.307.051 2.64.688 3.798s1.632 2.076 2.837 2.616c1.599.79 3.431.967 5.15.497a7.29 7.29 0 0 0 4.185-3.043c.421-.726.683-1.533.768-2.368s-.008-1.679-.274-2.475-.697-1.527-1.266-2.144a5.93 5.93 0 0 0-2.035-1.434 7.28 7.28 0 0 0-5.148-.51c-1.721.466-3.211 1.548-4.187 3.04-.171.29-.313.596-.424.914-.197-.204-.437-.36-.702-.458-.607-.156-1.251-.086-1.811.196a6.06 6.06 0 0 0-.646-3.867c-.638-1.182-1.652-2.118-2.88-2.661-1.596-.794-3.428-.975-5.148-.509s-3.21 1.548-4.187 3.039c-.222.381-.403.787-.538 1.208l-13.856-3.264a.44.44 0 0 0-.334.043c-.1.059-.174.154-.205.267zm31.498 5.402a6.38 6.38 0 0 1 8.16-2.22c.675.289 1.283.718 1.78 1.259a5.19 5.19 0 0 1 1.105 1.878c.231.697.312 1.436.237 2.167s-.305 1.438-.674 2.072c-.854 1.302-2.157 2.247-3.661 2.652s-3.105.247-4.499-.448c-.675-.287-1.282-.714-1.779-1.254s-.874-1.178-1.105-1.874-.313-1.433-.237-2.163a5.16 5.16 0 0 1 .673-2.069zm-15.798-3.264a6.38 6.38 0 0 1 3.66-2.656c1.503-.409 3.104-.254 4.5.436.676.289 1.282.718 1.78 1.259a5.19 5.19 0 0 1 1.105 1.878c.232.697.312 1.436.237 2.167a5.17 5.17 0 0 1-.674 2.072 6.36 6.36 0 0 1-3.658 2.662 6.37 6.37 0 0 1-4.502-.442c-.676-.29-1.282-.721-1.78-1.263a5.21 5.21 0 0 1-1.105-1.883 5.2 5.2 0 0 1 .437-4.247v.017z"/><path id="P" d="M166.675 399.757c5.532-2.872 8.16 6.382 11.538 25.1 2.01 11.832 2.933 23.823 2.758 35.823l4.733 8.405-11.946 10.999c-5.617-5.426-9.921-12.062-12.583-19.404-3.688-11.261-13.856-50.821 5.5-60.923z"/></defs></svg>