<svg width="716" height="628" viewBox="0 0 716 628" fill="none" xmlns="http://www.w3.org/2000/svg">
<g clip-path="url(#clip0_43_3018)">
<path d="M620.811 86.9288C635.518 72.2223 635.518 48.3783 620.811 33.6718C606.105 18.9653 582.261 18.9653 567.554 33.6718C552.848 48.3783 552.848 72.2223 567.555 86.9288C582.261 101.635 606.105 101.635 620.811 86.9288Z" fill="#B3DDFF"/>
<path d="M598.051 77.1508V82.3736H591.432V77.3856C586.737 77.1021 582.183 75.8396 579.365 74.0986L582.909 66.023C586.211 67.9271 589.943 68.9621 593.754 69.0309C596.903 69.0309 598.029 68.3708 598.029 67.2589C598.029 63.1258 579.866 66.4571 579.866 54.2085C579.866 48.8927 583.716 44.4406 591.415 43.3642V38.2344H598.033V43.2534C601.506 43.5812 604.886 44.4761 607.562 45.9778L604.248 54.0225C601.005 52.379 597.958 51.5816 595.092 51.5816C591.853 51.5816 590.821 52.5207 590.821 53.6503C590.821 57.5929 608.984 54.306 608.984 66.4172C608.988 71.4673 605.325 75.8839 598.051 77.1508Z" fill="white"/>
<path d="M528.71 134.27C541.31 134.27 551.524 124.055 551.524 111.456C551.524 98.856 541.31 88.6418 528.71 88.6418C516.11 88.6418 505.896 98.856 505.896 111.456C505.896 124.055 516.11 134.27 528.71 134.27Z" fill="#B3DDFF"/>
<path d="M531.058 121.666V124.82H527.044V121.799C524.2 121.626 521.445 120.86 519.739 119.806L521.897 114.933C523.897 116.086 526.158 116.713 528.466 116.754C530.375 116.754 531.058 116.355 531.058 115.673C531.058 113.17 520.049 115.19 520.049 107.765C520.049 104.554 522.384 101.852 527.044 101.196V98.095H531.058V101.134C533.069 101.289 535.028 101.852 536.817 102.786L534.797 107.659C533.091 106.734 531.19 106.227 529.25 106.179C527.288 106.179 526.663 106.747 526.663 107.429C526.663 109.816 537.667 107.827 537.667 115.163C537.68 118.224 535.465 120.913 531.058 121.666Z" fill="white"/>
<path d="M606.781 130.093C608.978 120.622 603.081 111.163 593.61 108.966C584.139 106.769 574.68 112.666 572.483 122.137C570.286 131.608 576.182 141.067 585.653 143.264C595.125 145.461 604.583 139.564 606.781 130.093Z" fill="#B3DDFF"/>
<path d="M591.397 133.964V136.418H588.296V134.092C586.081 133.959 583.977 133.366 582.657 132.555L584.327 128.781C585.871 129.669 587.614 130.152 589.395 130.185C590.866 130.185 591.393 129.88 591.393 129.352C591.393 127.421 582.901 128.976 582.901 123.252C582.901 120.772 584.699 118.685 588.296 118.18V115.788H591.397V118.136C592.954 118.254 594.47 118.688 595.854 119.412L594.294 123.164C592.978 122.449 591.512 122.057 590.015 122.021C588.5 122.021 588.017 122.464 588.017 122.987C588.017 124.829 596.509 123.297 596.509 128.958C596.509 131.306 594.799 133.37 591.397 133.964Z" fill="white"/>
<path d="M518.729 49.3708H516.156V67.8213H518.729V49.3708Z" fill="#2196F3"/>
<path d="M526.668 57.3093H508.218V59.8831H526.668V57.3093Z" fill="#2196F3"/>
<path d="M541.694 0H537.827V27.7133H541.694V0Z" fill="#2196F3"/>
<path d="M553.619 11.9209H525.906V15.7882H553.619V11.9209Z" fill="#2196F3"/>
<path d="M628.599 141.712H625.671V162.696H628.599V141.712Z" fill="#2196F3"/>
<path d="M637.627 150.74H616.643V153.668H637.627V150.74Z" fill="#2196F3"/>
<path opacity="0.4" d="M304.339 93.4927C317.68 80.1512 317.68 58.5202 304.339 45.1787C290.997 31.8371 269.366 31.8371 256.025 45.1787C242.683 58.5202 242.683 80.1512 256.025 93.4927C269.366 106.834 290.997 106.834 304.339 93.4927Z" fill="#2196F3"/>
<path opacity="0.4" d="M361.713 519.908C382.946 519.908 400.159 502.694 400.159 481.461C400.159 460.227 382.946 443.014 361.713 443.014C340.479 443.014 323.266 460.227 323.266 481.461C323.266 502.694 340.479 519.908 361.713 519.908Z" fill="#2196F3"/>
<path d="M290.507 537.853H289.302V536.746C291.122 536.772 292.974 536.746 294.79 536.631L294.857 537.734C293.43 537.809 291.964 537.853 290.507 537.853ZM283.733 537.543C281.886 537.375 280.026 537.136 278.205 536.83L278.387 535.74C280.159 536.041 282.015 536.276 283.835 536.44L283.733 537.543ZM300.425 537.193L300.279 536.095C302.086 535.851 303.907 535.536 305.688 535.155L305.918 536.241C304.111 536.626 302.259 536.945 300.447 537.193H300.425ZM272.743 535.7C270.944 535.257 269.141 534.735 267.383 534.154L267.733 533.104C269.46 533.676 271.237 534.185 273.009 534.624L272.743 535.7ZM311.323 534.876L311.013 533.813C312.762 533.299 314.517 532.71 316.218 532.068L316.612 533.104C314.88 533.778 313.104 534.354 311.323 534.876ZM262.151 532.218C260.441 531.505 258.736 530.717 257.083 529.875L257.584 528.887C259.21 529.715 260.889 530.491 262.576 531.195L262.151 532.218ZM321.737 530.943L321.272 529.941C322.92 529.166 324.564 528.325 326.145 527.43L326.69 528.391C325.086 529.29 323.421 530.15 321.742 530.934L321.737 530.943ZM252.188 527.16C250.607 526.198 249.043 525.162 247.532 524.059L248.179 523.173C249.663 524.236 251.205 525.255 252.764 526.203L252.188 527.16ZM331.456 525.463L330.841 524.541C332.356 523.527 333.853 522.446 335.271 521.321L335.953 522.207C334.504 523.337 332.989 524.435 331.456 525.463ZM243.16 520.652C241.743 519.465 240.347 518.207 239.023 516.913L239.798 516.12C241.105 517.392 242.456 518.632 243.873 519.806L243.16 520.652ZM340.228 518.597L339.483 517.777C340.812 516.55 342.141 515.252 343.399 513.927L344.206 514.685C342.925 516.032 341.588 517.347 340.219 518.597H340.228ZM235.178 512.878C233.955 511.487 232.768 510.034 231.634 508.558L232.52 507.89C233.618 509.343 234.788 510.773 235.997 512.142L235.178 512.878ZM347.878 510.485L347.014 509.79C348.166 508.368 349.278 506.888 350.314 505.391L351.223 506.025C350.164 507.544 349.034 509.046 347.869 510.485H347.878ZM228.453 503.991C227.447 502.432 226.495 500.819 225.613 499.198L226.588 498.667C227.474 500.266 228.395 501.856 229.383 503.393L228.453 503.991ZM354.226 501.333L353.269 500.775C354.191 499.198 355.068 497.568 355.865 495.929L356.862 496.416C356.038 498.069 355.152 499.721 354.217 501.32L354.226 501.333ZM223.142 494.214C222.389 492.527 221.684 490.786 221.06 489.049L222.101 488.673C222.721 490.387 223.43 492.097 224.156 493.763L223.142 494.214ZM359.117 491.313L358.089 490.901C358.762 489.209 359.378 487.463 359.923 485.718L360.982 486.05C360.419 487.804 359.808 489.576 359.108 491.3L359.117 491.313ZM219.381 483.72C218.889 481.948 218.459 480.105 218.105 478.289L219.19 478.076C219.54 479.848 219.961 481.665 220.448 483.423L219.381 483.72ZM362.439 480.65L361.358 480.407C361.766 478.635 362.111 476.814 362.386 475.011L363.48 475.175C363.192 477.009 362.838 478.847 362.426 480.65H362.439ZM217.241 472.783C217.024 470.944 216.878 469.075 216.798 467.223L217.905 467.179C217.981 469 218.131 470.842 218.348 472.65L217.241 472.783ZM364.105 469.633L363.002 469.553C363.134 467.737 363.205 465.89 363.205 464.065H364.313C364.3 465.921 364.238 467.795 364.091 469.633H364.105ZM363.219 463.325C363.219 461.495 363.112 459.648 362.957 457.836L364.06 457.743C364.22 459.582 364.308 461.456 364.326 463.312L363.219 463.325ZM217.897 461.682L216.789 461.646C216.847 459.794 216.98 457.921 217.175 456.087L218.278 456.206C218.052 458.027 217.923 459.856 217.866 461.682H217.897ZM362.288 452.379C362 450.576 361.633 448.764 361.208 446.992L362.284 446.735C362.727 448.534 363.086 450.372 363.383 452.202L362.288 452.379ZM219.071 450.762L217.981 450.558C218.317 448.737 218.729 446.908 219.203 445.118L220.271 445.402C219.775 447.174 219.381 448.977 219.04 450.771L219.071 450.762ZM359.719 441.707C359.161 439.971 358.527 438.234 357.836 436.546L358.86 436.103C359.564 437.822 360.189 439.581 360.773 441.344L359.719 441.707ZM221.879 440.152L220.834 439.785C221.445 438.035 222.127 436.285 222.867 434.588L223.881 435.031C223.124 436.715 222.451 438.434 221.848 440.161L221.879 440.152ZM355.568 431.549C354.753 429.924 353.863 428.307 352.91 426.739L353.863 426.172C354.815 427.758 355.714 429.401 356.543 431.044L355.568 431.549ZM226.269 430.079L225.29 429.56C226.176 427.926 227.102 426.3 228.09 424.732L229.024 425.326C228.019 426.876 227.093 428.475 226.238 430.088L226.269 430.079ZM349.894 422.145C348.839 420.652 347.719 419.186 346.558 417.781L347.413 417.077C348.591 418.504 349.73 419.992 350.797 421.507L349.894 422.145ZM232.099 420.816L231.213 420.156C232.316 418.672 233.494 417.206 234.704 415.806L235.541 416.532C234.345 417.892 233.184 419.336 232.099 420.816ZM342.903 413.728C341.636 412.399 340.307 411.128 338.947 409.914L339.687 409.09C341.065 410.322 342.416 411.624 343.701 412.962L342.903 413.728ZM239.289 412.537L238.504 411.752C239.833 410.423 241.198 409.174 242.606 407.974L243.324 408.815C241.942 409.958 240.582 411.212 239.289 412.497V412.537ZM334.717 406.406C333.273 405.298 331.762 404.226 330.234 403.229L330.841 402.303C332.391 403.318 333.942 404.403 335.39 405.528L334.717 406.406ZM247.634 405.409L246.979 404.523C248.472 403.429 250.027 402.383 251.599 401.422L252.184 402.361C250.633 403.26 249.105 404.292 247.634 405.369V405.409ZM325.525 400.399C323.926 399.513 322.273 398.684 320.612 397.931L321.055 396.921C322.738 397.688 324.417 398.534 326.043 399.428L325.525 400.399ZM256.95 399.615L256.441 398.631C258.084 397.776 259.777 396.974 261.473 396.243L261.916 397.262C260.237 397.94 258.572 398.733 256.95 399.575V399.615ZM315.509 395.8C313.799 395.176 312.04 394.604 310.286 394.108L310.587 393.045C312.359 393.546 314.153 394.126 315.903 394.764L315.509 395.8ZM267.015 395.256L266.656 394.21C268.428 393.612 270.2 393.072 271.999 392.611L272.278 393.683C270.528 394.139 268.756 394.68 267.033 395.256H267.015ZM304.948 392.819C303.176 392.46 301.342 392.164 299.526 391.933L299.663 390.834C301.506 391.06 303.358 391.362 305.165 391.72L304.948 392.819ZM277.642 392.513L277.447 391.424C279.264 391.1 281.12 390.839 282.967 390.653L283.082 391.752C281.279 391.938 279.45 392.194 277.66 392.513H277.642ZM294.055 391.468C292.23 391.379 290.378 391.357 288.562 391.406L288.531 390.299C290.378 390.25 292.257 390.272 294.108 390.361L294.055 391.468Z" fill="#2196F3"/>
<path d="M230.548 100.093V98.9857C232.372 98.9686 234.193 98.8444 236.001 98.6136L236.143 99.7122C234.287 99.9485 232.419 100.076 230.548 100.093ZM224.958 99.8096C223.102 99.6045 221.261 99.2894 219.443 98.8661L219.695 97.7852C221.47 98.203 223.269 98.5122 225.082 98.711L224.958 99.8096ZM241.632 98.6623L241.362 97.5903C243.128 97.1418 244.867 96.587 246.567 95.9291L246.97 96.9612C245.226 97.632 243.444 98.1956 241.632 98.649V98.6623ZM214.065 97.2447C212.31 96.5996 210.595 95.8496 208.93 94.9988L209.435 94.0154C211.06 94.8451 212.733 95.5759 214.446 96.2037L214.065 97.2447ZM252.046 94.6134L251.528 93.6344C253.14 92.783 254.698 91.8332 256.193 90.7904L256.826 91.6764C255.296 92.7495 253.703 93.7302 252.055 94.6134H252.046ZM204.106 92.1548C202.564 91.1109 201.085 89.9763 199.676 88.7571L200.403 87.9198C201.784 89.1093 203.234 90.2172 204.744 91.2378L204.106 92.1548ZM261.207 88.2078L260.468 87.3838C261.825 86.1649 263.111 84.8677 264.317 83.4988L265.146 84.2298C263.916 85.6326 262.604 86.9609 261.216 88.2078H261.207ZM195.645 84.8499C194.387 83.4699 193.212 82.0158 192.128 80.4954L193.014 79.853C194.071 81.3386 195.218 82.7587 196.447 84.1057L195.645 84.8499ZM268.596 79.8132L267.666 79.1841C268.697 77.6805 269.638 76.117 270.484 74.5018L271.467 75.0156C270.605 76.6698 269.647 78.2718 268.596 79.8132ZM189.164 75.751C188.271 74.1123 187.476 72.4215 186.785 70.6876L187.818 70.2757C188.491 71.9697 189.267 73.6208 190.143 75.2194L189.164 75.751ZM273.775 69.8991L272.738 69.5093C273.38 67.8021 273.918 66.0581 274.351 64.2865L275.427 64.5478C274.986 66.3636 274.434 68.1507 273.775 69.8991ZM185.036 65.3673C184.561 63.5616 184.195 61.7287 183.942 59.8787L185.04 59.7281C185.289 61.5348 185.647 63.3248 186.112 65.0883L185.036 65.3673ZM276.424 59.0415L275.325 58.9086C275.542 57.0975 275.65 55.275 275.649 53.451C275.649 52.9017 275.649 52.348 275.622 51.7987L276.73 51.7588C276.73 52.3214 276.756 52.8884 276.756 53.451C276.757 55.3194 276.646 57.1862 276.424 59.0415ZM183.499 54.2971C183.499 54.018 183.499 53.7345 183.499 53.451C183.498 51.8665 183.578 50.283 183.738 48.7066L184.836 48.8173C184.686 50.3456 184.606 51.9183 184.606 53.451C184.606 53.7301 184.606 54.0047 184.606 54.2794L183.499 54.2971ZM275.099 46.3588C274.819 44.5572 274.429 42.7745 273.93 41.0208L274.998 40.7151C275.505 42.5134 275.904 44.3402 276.194 46.186L275.099 46.3588ZM185.713 43.4218L184.633 43.1781C185.043 41.3542 185.564 39.5569 186.192 37.7958L187.233 38.1679C186.622 39.8873 186.115 41.6417 185.713 43.4218ZM272.127 35.86C271.421 34.1801 270.615 32.544 269.713 30.9605L270.678 30.4112C271.599 32.0295 272.423 33.701 273.146 35.417L272.127 35.86ZM189.377 33.14L188.371 32.6439C189.205 30.9725 190.139 29.3526 191.167 27.7932L192.093 28.4C191.094 29.9246 190.187 31.5074 189.377 33.14ZM266.731 26.38C265.644 24.9155 264.471 23.5162 263.219 22.1894L264.025 21.4319C265.308 22.7881 266.51 24.2201 267.622 25.72L266.731 26.38ZM195.41 24.0278L194.564 23.3101C195.772 21.8863 197.063 20.5357 198.432 19.2657L199.185 20.0763C197.843 21.3171 196.577 22.6366 195.393 24.0278H195.41ZM259.249 18.4506C257.847 17.2836 256.377 16.2008 254.846 15.2079L255.444 14.2776C257.014 15.2919 258.521 16.3999 259.958 17.5956L259.249 18.4506ZM203.389 16.6033L202.737 15.7173C204.248 14.6193 205.824 13.6134 207.455 12.705L207.996 13.6707C206.404 14.5568 204.865 15.5361 203.389 16.6033ZM250.071 12.5189C248.431 11.7179 246.745 11.0167 245.021 10.4192L245.384 9.37373C247.149 9.98747 248.877 10.7049 250.558 11.5222L250.071 12.5189ZM212.917 11.2963L212.497 10.2686C214.23 9.561 216.005 8.96037 217.812 8.47005L218.105 9.53764C216.342 10.0194 214.61 10.6067 212.917 11.2963ZM239.754 8.94847C237.97 8.5647 236.166 8.28955 234.349 8.12452L234.451 7.02147C236.312 7.18983 238.162 7.4724 239.988 7.86758L239.754 8.94847ZM223.443 8.41688L223.279 7.3227C225.127 7.05083 226.989 6.88959 228.856 6.83984L228.887 7.94731C227.064 7.99464 225.246 8.15144 223.443 8.41688Z" fill="#2196F3"/>
<path d="M44.1792 338.283C41.0031 338.283 37.8984 337.341 35.2576 335.577C32.6169 333.812 30.5586 331.304 29.3432 328.37C28.1278 325.436 27.8098 322.207 28.4294 319.092C29.049 315.977 30.5784 313.115 32.8242 310.87C35.07 308.624 37.9313 307.094 41.0463 306.475C44.1613 305.855 47.3901 306.173 50.3244 307.389C53.2587 308.604 55.7666 310.662 57.5311 313.303C59.2956 315.944 60.2374 319.049 60.2374 322.225C60.2328 326.482 58.5394 330.564 55.5289 333.574C52.5184 336.585 48.4366 338.278 44.1792 338.283ZM44.1792 308.381C41.4412 308.381 38.7647 309.193 36.4882 310.714C34.2117 312.235 32.4373 314.397 31.3896 316.927C30.3418 319.456 30.0676 322.24 30.6018 324.925C31.1359 327.611 32.4544 330.077 34.3904 332.013C36.3265 333.949 38.7931 335.268 41.4785 335.802C44.1638 336.336 46.9472 336.062 49.4768 335.014C52.0063 333.966 54.1684 332.192 55.6895 329.916C57.2106 327.639 58.0225 324.963 58.0225 322.225C58.0178 318.555 56.5578 315.036 53.9627 312.441C51.3676 309.846 47.8492 308.386 44.1792 308.381Z" fill="#2196F3"/>
<path d="M581.302 132.001H121.042V472.287H581.302V132.001Z" fill="white"/>
<path d="M582.409 473.394H119.93V130.894H582.409V473.394ZM122.145 471.179H580.194V133.109H122.145V471.179Z" fill="#2196F3"/>
<path d="M190.591 361.766H152.937V434.633H190.591V361.766Z" fill="#BAE0FF"/>
<path d="M250.394 325.427H212.74V434.633H250.394V325.427Z" fill="#BAE0FF"/>
<path d="M310.198 250.483H272.544V434.633H310.198V250.483Z" fill="#BAE0FF"/>
<path d="M370.001 303.69H332.347V434.633H370.001V303.69Z" fill="#BAE0FF"/>
<path d="M429.804 245.942H392.15V434.633H429.804V245.942Z" fill="#BAE0FF"/>
<path d="M489.608 255.799H451.954V434.633H489.608V255.799Z" fill="#BAE0FF"/>
<path d="M549.411 190.458H511.757V434.633H549.411V190.458Z" fill="#BAE0FF"/>
<path d="M164.291 405.719L163.285 403.743L226.176 371.746L291.034 283.406L350.412 345.561L411.46 284.513L470.661 291.707L530.079 223.487L531.749 224.944L471.56 294.046L412.262 286.843L350.377 348.728L291.26 286.843L227.651 373.483L164.291 405.719Z" fill="#2196F3"/>
<path d="M443.829 174.01H258.514V176.225H443.829V174.01Z" fill="#2196F3"/>
<path d="M381.279 198.374H321.068V200.589H381.279V198.374Z" fill="#2196F3"/>
<path d="M113.604 537.353C117.202 518.175 114.903 498.358 107.012 480.513C99.1583 462.975 85.8421 448.259 69.6598 439.231C77.8551 449.628 79.9681 463.897 80.8009 477.43C81.6338 490.963 81.5717 504.944 86.48 517.463C91.3883 529.981 102.986 540.817 115.664 539.249L113.604 537.353Z" fill="#2196F3"/>
<path d="M113.87 542.155C110.274 522.977 112.574 503.16 120.466 485.315C128.32 467.777 141.632 453.061 157.819 444.029C149.619 454.43 147.506 468.694 146.678 482.232C145.849 495.769 145.907 509.741 140.994 522.26C136.081 534.779 124.493 545.619 111.815 544.046L113.87 542.155Z" fill="#2196F3"/>
<path d="M99.3311 533.1C91.1624 519.504 88.9342 502.055 93.3906 486.639C97.8471 471.223 108.922 458.12 122.867 451.75C119.93 471.241 134.416 490.072 131.829 509.626C130.154 522.278 120.648 533.348 108.944 536.276L99.3311 533.1Z" fill="#AFDCFF"/>
<path d="M105.289 559.263C105.347 539.565 111.939 520.444 124.032 504.895C136.13 489.333 153.579 477.673 172.978 472.189C161.96 480.677 156.76 494.228 153.101 507.327C149.442 520.426 146.651 534.145 138.77 545.424C130.889 556.702 116.102 564.915 102.667 560.711L105.289 559.263Z" fill="#76C2FF"/>
<path d="M111.394 560.304C111.425 540.879 105.289 521.498 94.1836 505.936C83.0779 490.374 67.0595 478.714 49.2736 473.23C59.3825 481.718 64.1579 495.269 67.5202 508.372C70.8825 521.476 73.4385 535.186 80.6769 546.443C87.9154 557.699 101.497 565.934 113.821 561.73L111.394 560.304Z" fill="#76C2FF"/>
<path d="M143.98 626.588H73.8194L61.7568 553.535H156.042L143.98 626.588Z" fill="white"/>
<path d="M144.684 627.416H73.1152L60.7913 552.702H157.017L144.684 627.416ZM74.5239 625.755H143.271L155.059 554.363H62.736L74.5239 625.755Z" fill="#2196F3"/>
<path d="M236.905 75.7507H23.1283V243.674H236.905V75.7507Z" fill="white"/>
<path d="M238.013 244.782H22.0209V74.6433H238.013V244.782ZM24.2358 242.567H235.798V76.8582H24.2358V242.567Z" fill="#2196F3"/>
<path d="M100.385 103.26H52.1707V130.562H100.385V103.26Z" fill="#BAE0FF"/>
<path d="M208.434 105.896H120.718V107.057H208.434V105.896Z" fill="#2196F3"/>
<path d="M208.434 116.333H120.718V117.493H208.434V116.333Z" fill="#BAE0FF"/>
<path d="M208.434 126.77H120.718V127.93H208.434V126.77Z" fill="#BAE0FF"/>
<path d="M84.9031 185.036H74.834V216.231H84.9031V185.036Z" fill="#BAE0FF"/>
<path d="M94.9722 169.855H84.9031V216.227H94.9722V169.855Z" fill="#2196F3"/>
<path d="M122.468 164.61H112.399V216.036H122.468V164.61Z" fill="#BAE0FF"/>
<path d="M132.537 197.001H122.468V216.032H132.537V197.001Z" fill="#2196F3"/>
<path d="M160.033 180.575H149.964V216.187H160.033V180.575Z" fill="#BAE0FF"/>
<path d="M170.103 172.703H160.034V216.187H170.103V172.703Z" fill="#2196F3"/>
<path d="M197.599 191.122H187.53V215.956H197.599V191.122Z" fill="#BAE0FF"/>
<path d="M207.668 156.707H197.599V215.961H207.668V156.707Z" fill="#2196F3"/>
<path d="M207.668 216.541H52.6624V153.996H53.823V215.376H207.668V216.541Z" fill="#2196F3"/>
<path d="M650.567 596.602L657.212 626.314L612.08 626.225L630.907 609.976L629.525 595.216L650.567 596.602Z" fill="#1B1B43"/>
<path d="M631.44 609.312L630.371 610.584L637.846 616.865L638.915 615.593L631.44 609.312Z" fill="#EBEBFF"/>
<path d="M561.69 596.133L565.013 626.313H516.563L538.712 609.976V595.025L561.69 596.133Z" fill="#1B1B43"/>
<path d="M539.243 609.314L538.175 610.586L545.65 616.867L546.718 615.595L539.243 609.314Z" fill="#EBEBFF"/>
<path d="M658.594 600.199L651.395 600.301L630.03 600.589L618.171 600.753C606.543 560.565 595.654 521.17 586.75 483.95C585.002 476.65 583.338 469.439 581.758 462.319C575.897 435.953 571.223 410.866 568.247 387.623C567.606 382.626 567.045 377.719 566.563 372.902C566.173 369.063 565.841 365.275 565.566 361.54L618.725 370.399C619.256 375.44 619.821 380.498 620.417 385.572C628.426 454.204 642.101 526.331 658.594 600.199Z" fill="#2196F3"/>
<path d="M590.485 368.738L588.801 386.812L582.01 459.551L581.758 462.319L568.911 600.199H529.206C529.995 520.461 532.595 444.622 543.05 388.62C543.817 384.485 544.63 380.469 545.486 376.57L566.563 372.902L590.485 368.738Z" fill="#2196F3"/>
<path d="M571.625 410.527L570.54 410.738L585.616 488.499L586.701 488.288L571.625 410.527Z" fill="#1B1B43"/>
<path opacity="0.3" d="M620.417 385.572L588.801 386.812L568.246 387.623L543.049 388.619C543.817 384.485 544.629 380.468 545.486 376.57L566.563 372.902C566.173 369.063 565.841 365.275 565.566 361.54L618.725 370.399C619.256 375.44 619.821 380.498 620.417 385.572Z" fill="#1B1B43"/>
<path d="M561.27 285.705L581.647 283.157L624.174 292.07L624.417 368.707C624.42 369.747 624.21 370.776 623.8 371.731C623.39 372.687 622.789 373.548 622.034 374.262C620.628 375.588 618.771 376.33 616.838 376.34L545.517 376.584L531.784 335.089L544.976 295.893L561.27 285.705Z" fill="#263238"/>
<path d="M586.67 302.481C582.23 302.508 577.949 300.83 574.71 297.794L575.281 297.187C581.607 303.141 591.548 303.132 598.915 297.187L599.437 297.834C595.84 300.801 591.333 302.441 586.67 302.481Z" fill="#1B1B43"/>
<path d="M632.196 297.865C631.438 294.451 629.652 291.351 627.08 288.982C624.508 286.612 621.272 285.087 617.808 284.611L590.666 280.881L607.097 308.935L612.169 326.491L637.747 322.885L632.196 297.865Z" fill="#263238"/>
<path d="M643.222 352.901C642.58 362.395 636.843 366.435 629.556 368.096C621.959 369.824 612.687 368.982 605.723 368.982C594.272 369.013 582.821 368.539 571.379 367.897L542.31 368.171L538.987 363.002C542.775 357.65 553.017 350.642 570.913 354.882L617.338 344.361L612.169 326.477L637.751 322.876L642.987 346.5C643.284 348.62 643.363 350.765 643.222 352.901Z" fill="#FFBC96"/>
<path d="M518.499 333.578L536.772 356.556L540.095 357.389L542.832 330.641L524.134 321.817L518.499 333.578Z" fill="#FFBC96"/>
<path d="M579.41 280.695L552.72 284.921C549.081 285.495 545.636 286.946 542.682 289.147C539.728 291.349 537.353 294.236 535.762 297.559L524.156 321.817L542.855 330.641L544.822 311.429L579.41 280.695Z" fill="#263238"/>
<path opacity="0.2" d="M643.222 352.901C642.58 362.395 636.843 366.435 629.556 368.096C627.994 366.184 627.168 363.777 627.227 361.309C627.285 358.841 628.225 356.476 629.876 354.64C631.526 352.805 633.779 351.621 636.227 351.302C638.675 350.983 641.156 351.55 643.222 352.901Z" fill="#FE5B52"/>
<path d="M544.426 311.404L538.586 362.988L539.413 363.082L545.254 311.498L544.426 311.404Z" fill="#1B1B43"/>
<path d="M607.484 308.858L606.688 309.088L616.931 344.529L617.727 344.299L607.484 308.858Z" fill="#1B1B43"/>
<path d="M596.691 220.072C596.505 218.178 596.68 216.265 597.209 214.437C597.765 212.553 598.993 210.939 600.66 209.901C601.506 209.406 602.435 209.068 603.402 208.904C604.361 208.745 605.339 208.726 606.304 208.846C608.225 209.083 610.068 209.756 611.69 210.813C613.339 211.857 614.674 213.328 615.553 215.07C616.429 216.847 616.612 218.885 616.067 220.789C615.487 222.629 614.47 224.301 613.103 225.662C611.774 226.998 610.286 228.168 608.674 229.144L608.496 228.874C610.025 227.832 611.432 226.623 612.691 225.268C613.948 223.946 614.866 222.339 615.367 220.586C615.829 218.85 615.641 217.005 614.84 215.398C614.008 213.797 612.765 212.447 611.238 211.487C609.728 210.483 608.008 209.839 606.211 209.604C604.428 209.335 602.607 209.646 601.014 210.49C599.458 211.415 598.293 212.877 597.741 214.601C597.441 215.462 597.236 216.353 597.129 217.259C597.031 218.178 596.992 219.103 597.014 220.027L596.691 220.072Z" fill="#1B1B43"/>
<path d="M605.754 229.374C610.657 229.374 614.632 225.4 614.632 220.497C614.632 215.594 610.657 211.619 605.754 211.619C600.852 211.619 596.877 215.594 596.877 220.497C596.877 225.4 600.852 229.374 605.754 229.374Z" fill="#1B1B43"/>
<path d="M612.479 269.62L607.717 262.333L609.555 270.395L593.12 274.736L562.244 275.99L564.734 251.48C556.849 247.603 551.258 222.619 581.191 218.411C586.631 217.649 592.212 218.136 597.262 220.271C612.656 226.783 617.861 244.051 619.279 267.826L612.479 269.62Z" fill="#1B1B43"/>
<path d="M586.821 295.552C583.622 295.552 580.554 294.281 578.292 292.019C576.029 289.757 574.759 286.689 574.759 283.49V257.354H598.879V283.49C598.879 286.688 597.609 289.756 595.348 292.018C593.087 294.28 590.02 295.551 586.821 295.552Z" fill="#FFBC96"/>
<path d="M591.092 268.326C588.509 275.941 582.458 279.503 574.754 281.434V270.08L591.092 268.326Z" fill="#1B1B43"/>
<path d="M598.37 231.966L597.59 265.837C597.59 265.837 583.352 276.198 573.385 273.221C570.041 272.225 567.768 268.424 566.231 263.697C565.489 261.34 564.907 258.935 564.49 256.498C563.52 250.54 563.024 244.514 563.006 238.478L598.37 231.966Z" fill="#FFBC96"/>
<path d="M569.239 252.795C569.239 253.805 568.637 254.62 567.91 254.62C567.184 254.62 566.581 253.805 566.581 252.795C566.581 251.785 567.184 250.974 567.91 250.974C568.637 250.974 569.239 251.789 569.239 252.795Z" fill="#1B1B43"/>
<path d="M578.138 254.111C578.98 254.111 579.662 253.165 579.662 251.998C579.662 250.831 578.98 249.885 578.138 249.885C577.297 249.885 576.615 250.831 576.615 251.998C576.615 253.165 577.297 254.111 578.138 254.111Z" fill="#1B1B43"/>
<path d="M583.104 247.696C583.051 248.215 581.332 248.334 579.401 247.998C577.469 247.661 575.857 247.759 576.149 246.483C576.402 245.437 577.921 245.526 579.844 245.863C581.766 246.199 583.153 247.245 583.104 247.696Z" fill="#1B1B43"/>
<path d="M564.317 248.857C564.384 249.371 565.859 249.349 567.476 248.857C569.093 248.365 570.488 248.33 570.174 247.085C569.921 246.066 568.632 246.279 567.015 246.77C565.398 247.262 564.26 248.414 564.317 248.857Z" fill="#1B1B43"/>
<path opacity="0.2" d="M589.718 256.401C589.718 257.182 589.487 257.945 589.053 258.594C588.619 259.243 588.003 259.749 587.282 260.048C586.561 260.346 585.767 260.425 585.001 260.272C584.236 260.12 583.532 259.744 582.98 259.192C582.428 258.64 582.052 257.937 581.9 257.171C581.748 256.406 581.826 255.612 582.125 254.891C582.424 254.169 582.929 253.553 583.579 253.119C584.228 252.686 584.991 252.454 585.771 252.454C586.29 252.454 586.803 252.555 587.282 252.753C587.762 252.952 588.197 253.242 588.564 253.609C588.93 253.975 589.221 254.411 589.419 254.89C589.617 255.369 589.719 255.883 589.718 256.401Z" fill="#FE5B52"/>
<path opacity="0.2" d="M568.012 260.419C568.011 261.069 567.849 261.71 567.54 262.282C567.231 262.854 566.784 263.341 566.24 263.697C565.498 261.34 564.916 258.935 564.499 256.499C565.464 256.604 566.357 257.063 567.005 257.787C567.654 258.51 568.012 259.447 568.012 260.419Z" fill="#FE5B52"/>
<path d="M572.357 254.408C572.39 254.761 572.329 255.117 572.18 255.44C572.045 255.739 571.877 256.023 571.68 256.286C571.337 256.681 571.063 257.13 570.869 257.615C570.82 257.81 570.82 258.014 570.869 258.208C570.924 258.415 571.032 258.603 571.183 258.753C571.575 259.122 572.044 259.398 572.557 259.56L572.517 260.003C571.82 260.095 571.114 259.915 570.545 259.502C570.225 259.264 569.982 258.938 569.846 258.563C569.708 258.174 569.687 257.754 569.784 257.353C570.014 256.7 570.411 256.119 570.935 255.666C571.354 255.311 571.686 254.866 571.905 254.363L572.357 254.408Z" fill="#1B1B43"/>
<path d="M571.308 263.392C572.765 268.03 578.993 265.673 579.476 261.314L571.308 263.392Z" fill="white"/>
<path d="M561.81 243.873C572.233 243.851 580.978 242.894 589.218 238.89C590.104 245.69 593.027 248.972 596.97 250.793L605.276 243.873L601.005 229.888L578.44 228.644L560.995 237.366L561.81 243.873Z" fill="#1B1B43"/>
<path d="M603.535 255.796C605.781 252.604 605.8 248.75 603.579 247.188C601.358 245.625 597.738 246.945 595.492 250.137C593.247 253.328 593.227 257.182 595.448 258.745C597.669 260.308 601.29 258.987 603.535 255.796Z" fill="#FFBC96"/>
<path d="M597.546 255.214C597.384 254.629 597.337 254.018 597.408 253.415C597.475 252.779 597.701 252.17 598.064 251.643C598.443 251.106 598.965 250.685 599.57 250.429C600.139 250.188 600.756 250.081 601.373 250.119L601.448 250.562C600.955 250.775 600.479 251.024 600.022 251.306C599.612 251.566 599.253 251.9 598.963 252.29C598.682 252.696 598.47 253.144 598.334 253.619C598.184 254.115 598.091 254.651 597.98 255.209L597.546 255.214Z" fill="#1B1B43"/>
<path d="M608.572 229.002C607.488 228.337 606.452 227.597 605.471 226.787L602.662 224.47C601.741 223.709 600.828 222.951 599.88 222.224C598.932 221.498 597.953 220.798 596.859 220.045C598.189 219.942 599.524 220.171 600.744 220.709C601.952 221.226 603.077 221.921 604.08 222.769C605.074 223.6 605.966 224.546 606.738 225.587C607.511 226.63 608.129 227.781 608.572 229.002Z" fill="#2196F3"/>
<path d="M569.257 368.003H539.909V376.677H569.257V368.003Z" fill="#1B1B43"/>
<path d="M549.322 376.681H482.874L453.712 313.688H520.16L549.322 376.681Z" fill="#EBEBFF"/>
<path d="M524.728 373.859C524.004 373.993 523.351 374.377 522.882 374.944C522.413 375.511 522.159 376.224 522.163 376.96V370.089C522.177 369.415 521.945 368.759 521.51 368.244C521.075 367.729 520.468 367.39 519.802 367.29C519.437 367.245 519.068 367.277 518.716 367.382C518.365 367.488 518.039 367.665 517.759 367.902C517.48 368.14 517.252 368.433 517.091 368.763C516.931 369.093 516.84 369.452 516.825 369.819V367.05C516.839 366.369 516.602 365.706 516.159 365.187C515.717 364.669 515.099 364.331 514.424 364.237C514.051 364.195 513.673 364.233 513.315 364.348C512.958 364.462 512.628 364.651 512.349 364.903C512.07 365.154 511.847 365.461 511.696 365.805C511.544 366.148 511.467 366.52 511.469 366.895V369.815C511.454 369.448 511.363 369.088 511.202 368.758C511.041 368.429 510.814 368.136 510.534 367.898C510.255 367.66 509.929 367.483 509.577 367.378C509.226 367.272 508.856 367.241 508.492 367.285C507.825 367.385 507.218 367.724 506.784 368.24C506.349 368.755 506.117 369.411 506.131 370.085V375.538C506.056 374.143 504.997 372.437 503.548 372.282C500.571 372.003 501.227 377.235 501.227 377.235C502.113 382.524 503.655 383.109 506.826 383.335C511.831 383.684 516.853 383.684 521.857 383.335C525.047 383.122 525.547 382.776 526.943 378.019C527.412 375.972 527.009 373.447 524.728 373.859Z" fill="#FFBC96"/>
<path d="M506.202 371.781C506.405 372.89 506.519 374.013 506.543 375.139C506.543 375.702 506.543 376.264 506.543 376.827C506.527 377.393 506.474 377.956 506.383 378.515H506.06C505.942 377.961 505.859 377.4 505.812 376.836C505.759 376.278 505.732 375.715 505.719 375.157C505.68 374.03 505.732 372.901 505.874 371.781H506.202Z" fill="#D28572"/>
<path d="M511.633 369.797C511.837 370.977 511.954 372.17 511.983 373.367C511.983 373.961 511.983 374.559 511.983 375.139C511.967 375.732 511.917 376.324 511.832 376.911H511.504C511.386 376.326 511.302 375.734 511.252 375.139C511.199 374.546 511.172 373.948 511.154 373.367C511.115 372.171 511.167 370.973 511.309 369.784L511.633 369.797Z" fill="#D28572"/>
<path d="M516.984 369.792C517.204 370.907 517.338 372.037 517.383 373.172C517.409 373.74 517.418 374.307 517.383 374.874C517.375 375.443 517.332 376.011 517.254 376.575H516.927C516.8 376.02 516.708 375.458 516.652 374.891C516.594 374.324 516.554 373.762 516.532 373.195C516.479 372.061 516.515 370.925 516.639 369.797L516.984 369.792Z" fill="#D28572"/>
<path d="M523.921 374.2C523.675 374.541 523.475 374.914 523.328 375.308C523.164 375.711 523.004 376.123 522.849 376.539C522.694 376.956 522.539 377.372 522.366 377.789C522.2 378.212 522.008 378.625 521.791 379.025L521.48 378.94C521.499 378.477 521.563 378.018 521.671 377.567C521.776 377.115 521.912 376.671 522.079 376.238C522.246 375.799 522.453 375.376 522.699 374.976C522.944 374.541 523.302 374.18 523.735 373.93L523.921 374.2Z" fill="#D28572"/>
<path d="M661.868 232.112V262.528L647.838 272.495H661.868H714.051V232.112H661.868Z" fill="white"/>
<path d="M714.601 273.044H646.102L661.309 262.226V231.558H714.601V273.044ZM649.57 271.936H713.493V232.666H662.417V262.811L649.57 271.936Z" fill="#2196F3"/>
<path d="M687.246 263.037L678.723 254.833L680.26 253.238L686.692 259.431L697.625 239.386L699.57 240.445L687.246 263.037Z" fill="#2196F3"/>
<path d="M715.894 625.76H0V627.421H715.894V625.76Z" fill="#1B1B43"/>
</g>
<defs>
<clipPath id="clip0_43_3018">
<rect width="715.894" height="627.421" fill="white"/>
</clipPath>
</defs>
</svg>
