<svg xmlns="http://www.w3.org/2000/svg" xmlns:xlink="http://www.w3.org/1999/xlink" width="816" height="644" fill="none" xmlns:v="https://vecta.io/nano"><style><![CDATA[.B{fill:#2196f3}.C{fill:#455a64}.D{fill:#e0e0e0}.E{fill:#000}.F{fill:#263238}.G{fill:#37474f}.H{opacity:.3}.I{fill:#fff}.J{fill:#ffa8a7}.K{fill:#f0f0f0}.L{fill:#fafafa}]]></style><g clip-path="url(#A)"><g class="D"><path d="M455.527 537.216c-.035-3.399-.978-6.708-2.739-9.608l-1.157-1.779-.089-.089c-.391-.552-.818-1.068-1.263-1.566l-.125-.142-1.387-1.335-.125-.106c-.463-.409-.961-.783-1.477-1.121l-.889-.481-.392-.177-.462-.214-.659-.214h-.16l-.783-.142c-.96-.142-1.939.018-2.811.445-7.81 3.914-52.824 32.559-73.552 45.476l-10.248 6.227a2.32 2.32 0 0 0-.783.712c-.018.036-.035.071-.071.107-.089.142-.16.302-.231.445l-.107.32a1.43 1.43 0 0 0-.107.391v.267l-1.708.925-1.476.837c-3.523-3.363-7.455-6.281-11.69-8.683-14.216-8.202-33.022-12.721-52.984-12.721s-38.787 4.519-52.985 12.721c-14.767 8.487-22.809 19.963-22.809 32.292s8.095 23.788 22.809 32.293c14.198 8.202 33.022 12.703 52.985 12.703s38.768-4.501 52.984-12.703c14.767-8.505 22.792-19.963 22.792-32.293-.036-5.675-1.708-11.208-4.804-15.959l1.352-.729c.427.302.925.48 1.441.516.516.053 1.032-.018 1.512-.232 7.028-3.878 75.545-33.075 89.565-40.601 1.477-.978 2.527-2.936 2.633-5.782zm-121.092 83.782c-12.258 7.081-28.787 10.978-46.508 10.978s-34.249-3.897-46.508-10.978c-10.515-6.085-16.333-13.575-16.333-21.066 0-7.508 5.818-14.998 16.333-21.083 12.259-7.081 28.77-10.978 46.508-10.978s34.25 3.897 46.508 10.978c10.533 6.085 16.333 13.557 16.333 21.083 0 7.509-5.853 14.981-16.404 21.066h.071zm131.572-257.252l-69.495-40.21a13.97 13.97 0 0 0-6.388-1.53c-2.224 0-4.412.516-6.405 1.53L30.656 527.325c-3.541 2.029-3.541 5.338 0 7.384l69.514 40.21c1.975.996 4.163 1.53 6.387 1.53s4.412-.534 6.387-1.53l132.301-76.399 20.354 11.814c10.764 6.227 28.218 6.227 39 0l60.618-34.748c10.781-6.209 10.781-16.244 0-22.524l-20.337-11.814 121.092-70.19c3.559-1.974 3.559-5.248.036-7.312zm116.574 190.356c37.648 0 68.161-17.614 68.161-39.356 0-21.724-30.513-39.355-68.161-39.355-37.63 0-68.143 17.631-68.143 39.355 0 21.742 30.513 39.356 68.143 39.356z"/></g><path d="M304.565 504.623l52.255-30.211c5.373-3.096 8.06-7.188 8.06-11.262v-7.259l-49.16-27.898c-1.512-.996-2.775-2.313-3.665-3.879-.907-1.566-1.423-3.327-1.53-5.124v-64.496l-91.13 52.736v64.407a11.35 11.35 0 0 0 1.53 5.124 11.46 11.46 0 0 0 3.683 3.878l40.957 23.984c10.764 6.138 28.236 6.138 39 0z" class="G"/><path d="M241.225 483.041v7.224l-16.725-9.626a11.25 11.25 0 0 1-3.665-3.878 11.59 11.59 0 0 1-1.53-5.124V407.23l17.382-10.017 1.104 13.415-12.188 7.046v50.333a11.6 11.6 0 0 0 1.53 5.124c.89 1.566 2.153 2.9 3.683 3.879l10.409 6.031z" class="F"/><path d="M225.602 468.006c.106 1.815.622 3.576 1.53 5.124.907 1.566 2.153 2.9 3.665 3.897l34.765 20.212c10.764 6.209 28.218 6.209 39 0l52.273-30.194c10.764-6.227 10.764-16.244 0-22.506l-34.783-20.248c-1.513-.996-2.776-2.313-3.683-3.878s-1.423-3.327-1.53-5.124v-50.334l-91.237 52.736v50.315z" class="C"/><path opacity=".15" d="M332.638 430.412l-10.586-6.103c-1.513-.996-2.776-2.313-3.683-3.878s-1.423-3.328-1.53-5.142v-50.334l-91.237 52.736v50.315c.106 1.815.622 3.576 1.53 5.124.907 1.566 2.153 2.9 3.665 3.897l10.426 5.996 91.415-52.611z" class="E"/><path d="M364.894 455.891v7.259c0 4.092-2.705 8.149-8.078 11.28l-52.255 30.175c-5.711 3.06-12.116 4.662-18.592 4.626v-7.241a38.77 38.77 0 0 0 18.592-4.626l52.255-30.211c5.373-3.167 8.078-7.241 8.078-11.262z" class="G"/><path d="M79.103 537.501c1.975.943 4.145 1.405 6.334 1.37a13.78 13.78 0 0 0 6.263-1.619l352.94-203.789c1.886-1.228 3.469-2.883 4.59-4.84 1.139-1.957 1.779-4.145 1.904-6.405V13.421c-.071-2.188-.676-4.323-1.726-6.245a14.04 14.04 0 0 0-4.377-4.768c-1.957-.961-4.128-1.441-6.316-1.405a13.85 13.85 0 0 0-6.281 1.619L79.494 206.41c-1.886 1.228-3.452 2.9-4.59 4.857A14.42 14.42 0 0 0 73 217.655V526.47c.089 2.188.676 4.323 1.744 6.227 1.05 1.922 2.544 3.558 4.359 4.804z" class="C"/><path d="M91.702 537.236l352.94-203.701c1.886-1.245 3.469-2.9 4.59-4.857 1.139-1.957 1.779-4.145 1.904-6.405V13.422c0-4.163-2.954-5.836-6.494-3.754L91.773 213.457a14.4 14.4 0 0 0-4.59 4.84c-1.139 1.957-1.779 4.163-1.904 6.405v308.797c-.071 4.146 2.829 5.836 6.423 3.737z" class="G"/><use xlink:href="#B" class="B"/><use xlink:href="#B" opacity=".7" class="I"/><path d="M267.47 422.886c-.694 0-1.37-.16-1.957-.498-.73-.516-1.317-1.192-1.708-2.01-.374-.801-.534-1.691-.445-2.58a14.09 14.09 0 0 1 1.868-6.388c1.121-1.957 2.705-3.594 4.59-4.821.712-.57 1.566-.925 2.456-1.014.907-.071 1.815.124 2.598.587.782.445 1.423 1.138 1.797 1.957a4.32 4.32 0 0 1 .355 2.633 13.78 13.78 0 0 1-1.868 6.388 14.34 14.34 0 0 1-4.59 4.821c-.943.569-2.011.89-3.096.925zm5.444-15.728c-.836.036-1.637.303-2.348.73-1.673 1.103-3.06 2.562-4.057 4.288s-1.565 3.665-1.672 5.64c-.196.64-.178 1.334.071 1.957s.694 1.156 1.263 1.476c.587.338 1.263.463 1.922.374.676-.107 1.281-.427 1.725-.925a12.58 12.58 0 0 0 4.057-4.27c.996-1.726 1.566-3.665 1.673-5.658a3.69 3.69 0 0 0-.285-1.85c-.267-.57-.676-1.086-1.192-1.459-.356-.196-.748-.303-1.157-.303z" class="B"/><path d="M496.824 78.967L153.172 277.205V530.42c.018.765.231 1.513.605 2.171.391.658.943 1.21 1.601 1.601a4.47 4.47 0 0 0 2.188.587c.765.018 1.513-.178 2.189-.551l6.12-3.523 324.544-187.136c1.868-1.21 3.416-2.864 4.537-4.786 1.103-1.921 1.743-4.092 1.868-6.316v-253.5z" class="K"/><path d="M495.347 81.529v250.938c-.125 1.957-.694 3.861-1.69 5.569a12.49 12.49 0 0 1-3.986 4.252L165.146 529.424l-6.138 3.523c-.445.267-.961.409-1.477.391-.747 0-1.477-.302-2.028-.818-.285-.267-.499-.605-.659-.961-.142-.356-.231-.747-.213-1.139V278.006L495.329 81.6m1.477-2.562L153.172 277.205V530.42c0 1.175.462 2.295 1.299 3.132s1.957 1.298 3.131 1.298c.765 0 1.53-.195 2.188-.587l6.139-3.54 324.49-187.154c1.868-1.21 3.416-2.864 4.537-4.786a14.32 14.32 0 0 0 1.868-6.316v-253.5l-.018.071z" class="D"/><path opacity=".8" d="M488.68 74.27l-343.688 198.15 8.184 4.732L496.828 78.967l-8.148-4.697z" class="C"/><path d="M155.487 534.284c-.694-.374-1.281-.926-1.69-1.62-.392-.676-.623-1.441-.623-2.241V277.207l-8.184-4.732v251.827a8.24 8.24 0 0 0 0 .943c.142 1.014.516 2.011 1.103 2.865.569.854 1.352 1.565 2.242 2.099l6.743 3.914.338.161h.071z" fill="#ebebeb"/><use xlink:href="#C" class="B"/><use xlink:href="#C" class="E H"/><use xlink:href="#D" class="B"/><use xlink:href="#D" opacity=".4" class="E"/><use xlink:href="#E" class="B"/><use xlink:href="#E" opacity=".5" class="E"/><g class="L"><path d="M481.828 78.327c0 1.904 1.335 2.687 2.954 1.744a6.72 6.72 0 0 0 2.099-2.26c.516-.907.801-1.904.854-2.953 0-1.904-1.352-2.687-2.953-1.726a6.71 6.71 0 0 0-2.1 2.26 6.54 6.54 0 0 0-.854 2.936zm-11.996 6.903c0 1.904 1.334 2.686 2.954 1.726.871-.569 1.583-1.334 2.099-2.242s.8-1.921.854-2.953c0-1.904-1.352-2.687-2.953-1.726a6.5 6.5 0 0 0-2.1 2.242c-.516.907-.801 1.922-.854 2.954zm-12.012 6.957c0 1.904 1.353 2.686 2.954 1.726a6.65 6.65 0 0 0 2.099-2.242c.516-.907.801-1.922.854-2.954 0-1.904-1.334-2.686-2.953-1.726a6.5 6.5 0 0 0-2.1 2.242c-.516.907-.8 1.922-.854 2.954zM153.172 277.206v253.215a4.63 4.63 0 0 0 .605 2.171c.391.658.943 1.209 1.601 1.601.658.373 1.423.587 2.188.587.765.018 1.513-.178 2.189-.552l6.12-3.522 75.1-43.324V226.623l-87.803 50.583zm93.801-46.296v245.885L489.62 336.701V90.816L246.973 230.91z"/></g><use xlink:href="#F" class="B"/><use xlink:href="#F" opacity=".8" class="L"/><g class="C"><path d="M233.322 258.668l-1.637-1.601c.339-.836.516-1.726.516-2.633.071-.534-.018-1.086-.231-1.584s-.551-.925-.978-1.245c-.321-.178-.676-.267-1.032-.249s-.694.124-.979.338a6.41 6.41 0 0 0-1.939 2.366c-.463.925-.694 1.957-.658 2.989a3.02 3.02 0 0 0 .231 1.584c.213.498.569.925.996 1.245.267.16.569.249.872.249.409-.018.8-.124 1.139-.338a4.51 4.51 0 0 0 1.476-1.477l1.37 1.299c.054.071.107.125.196.16.071.018.16.036.231.036.089 0 .178-.018.267-.053a.91.91 0 0 0 .214-.143.62.62 0 0 0 .142-.231.56.56 0 0 0 .053-.249 1.39 1.39 0 0 0-.071-.267.62.62 0 0 0-.178-.196zm-4.341 0c-.107.071-.231.125-.356.125a.78.78 0 0 1-.356-.036c-.284-.178-.587-.711-.587-1.725-.018-.801.143-1.602.481-2.331a5.29 5.29 0 0 1 1.459-1.904.88.88 0 0 1 .462-.142.3.3 0 0 1 .249 0c.267.16.57.694.57 1.708a5.25 5.25 0 0 1-.463 2.384 5.36 5.36 0 0 1-1.459 1.921zm-64.617 57.325l-1.263.711s-.124 0-.124-.106v-3.381c0-.053 0-.107.035-.16.018-.035.053-.089.089-.107l1.263-.729s.125 0 .125.107v3.398c0 .053-.018.089-.036.142s-.053.089-.089.125zm1.868-1.105l-1.264.73c-.071 0-.124 0-.124-.107v-3.398c0-.053.018-.089.035-.142.018-.036.054-.072.089-.107l1.264-.694c.071 0 .124 0 .124.089v3.416c0 .035-.018.089-.035.125s-.054.071-.089.088zm1.886-1.085l-1.245.729c-.089 0-.143.001-.143-.106v-3.399c0-.053.018-.106.036-.142.036-.053.053-.089.107-.107l1.245-.729c.071 0 .143 0 .143.107v3.398c0 .035-.018.089-.036.142a.3.3 0 0 1-.107.107zm-3.754 6.567l-1.263.729s-.124 0-.124-.107v-3.398c0-.053 0-.107.035-.142.018-.054.053-.089.089-.125l1.263-.729s.125 0 .125.106v3.399c0 .053-.018.106-.036.142-.018.053-.053.089-.089.125zm1.868-1.087l-1.264.711c-.071 0-.124 0-.124-.089v-3.398c0-.053.018-.107.035-.142.018-.054.054-.089.089-.107l1.264-.658c.071 0 .124 0 .124.089v3.416c-.018.071-.071.124-.124.178zm1.886-1.101l-1.245.747c-.089 0-.143 0-.143-.107v-3.416c0-.053.018-.089.036-.142.036-.036.053-.071.107-.107l1.245-.729c.071 0 .143 0 .143.106v3.399c0 .053-.018.106-.036.142-.018.053-.053.089-.107.107zm-3.575 13.769l-1.477-.925v-.285l1.477-2.74c0-.125.196-.107.196 0v3.683c.018.16-.125.302-.196.267z"/><path d="M163.902 329.87l2.028-1.175v.961l-2.028 1.192c-.16.089-.32 0-.32-.32 0-.125.036-.249.089-.356.053-.124.125-.231.231-.302zm2.414-1.387l.694-.409v.961l-.694.409v-.961zm2.565-1.069v3.558c.018.125-.018.249-.071.374a.64.64 0 0 1-.249.285c-.16.106-.302 0-.302-.285v-3.078l-.872.498v-.961l1.174-.694c.178-.035.32.09.32.303zm-3.738 12.527c-.783.712-1.388 1.619-1.762 2.616s-.498 2.081-.373 3.149c.249 1.833 1.334 1.761 1.476 2.615 0 .107.071.143.125.107l1.388-.783a.49.49 0 0 0 .089-.106c.035-.054.053-.089.053-.143.142-1.139 1.548-2.508 1.548-5.266.018-2.117-1.157-3.149-2.544-2.189zm.84 9.927l-1.335.765c-.089 0-.16 0-.16-.143v-1.209a.62.62 0 0 1 .036-.178c.035-.054.071-.107.124-.143l1.335-.765c.089 0 .16 0 .16.125v1.245c0 .054-.018.107-.053.16-.018.054-.072.107-.107.143zm-.498-38.698c-1.405 1.353-2.259 3.167-2.42 5.107a5.48 5.48 0 0 0 .356 2.775l-.444 2.331c0 .196 0 .285.177.16l1.335-1.477c.356.089.711.072 1.05-.017.338-.107.658-.285.907-.534 1.388-1.352 2.242-3.167 2.402-5.106.338-3.238-1.37-4.84-3.363-3.239zm.463 7.615c-1.228.712-2.224-.249-2.224-2.152-.018-.908.178-1.797.569-2.616a5.61 5.61 0 0 1 1.655-2.099c1.245-.712 2.241.249 2.241 2.153.018.907-.16 1.814-.551 2.633a5.91 5.91 0 0 1-1.69 2.117v-.036zm-.463 37.237a7.95 7.95 0 0 0-2.42 5.089c-.124.943.001 1.903.356 2.793l-.444 2.313c0 .196 0 .302.177.178l1.335-1.477c.356.089.711.071 1.05-.018.338-.106.658-.284.907-.533a8.14 8.14 0 0 0 2.402-5.124c.338-3.221-1.37-4.858-3.363-3.221zm.463 7.615c-1.228.712-2.224-.249-2.224-2.153a5.86 5.86 0 0 1 .569-2.633c.374-.818.943-1.53 1.655-2.099 1.245-.712 2.241.249 2.241 2.153.018.907-.177 1.814-.569 2.633a6 6 0 0 1-1.672 2.099zm1.422 8.809c0 .481-.089.943-.302 1.388-.196.427-.499.8-.89 1.103-.64.391-1.174-.142-1.174-1.139 0-.48.107-.943.302-1.387.214-.427.498-.801.872-1.104.658-.373 1.192.125 1.192 1.139zm2.029.356c0 .32-.071.623-.214.925a1.89 1.89 0 0 1-.569.73c-.445.249-.801-.089-.801-.748a1.85 1.85 0 0 1 .196-.925c.142-.284.338-.551.605-.747.427-.249.783.089.783.765zm-1.816 6.797l-2.829 1.602v-3.577c0-.373.107-.747.284-1.085s.427-.622.73-.854l.765-.445c.552-.302 1.014.001 1.014.783l.036 3.576z"/><path d="M168.726 374.883l-.765.445v4.056l1.477-.854v-3.149c-.036-.498-.338-.711-.712-.498zm-5.749 1.619c0 .659.355.997.782.748a1.95 1.95 0 0 0 .588-.73 1.85 1.85 0 0 0 .195-.925c0-.676-.356-1.014-.783-.765-.249.196-.444.463-.569.747a2.08 2.08 0 0 0-.213.925z"/><path d="M163.648 377.8l.747-.445v4.075l-1.477.836v-3.167c0-.267.071-.516.196-.747.142-.214.32-.409.534-.552z"/></g><g class="D"><path d="M176.566 308.003l32.808-18.983c.89-.516 1.602-.143 1.602.818-.036.534-.214 1.05-.481 1.512a3.42 3.42 0 0 1-1.121 1.139l-32.808 18.984c-.889.516-1.601.16-1.601-.801.035-.534.213-1.067.48-1.53.285-.462.659-.854 1.121-1.139zm0 15.443l32.791-18.93c.889-.516 1.601-.16 1.601.8a3.31 3.31 0 0 1-.48 1.531c-.285.462-.659.853-1.121 1.138l-32.791 18.931c-.889.498-1.601.142-1.601-.819.035-.533.213-1.049.48-1.512.285-.462.659-.854 1.121-1.139zm0 15.445l32.808-18.859c.89-.516 1.602-.142 1.602.801-.036.533-.214 1.049-.481 1.512-.284.462-.658.854-1.121 1.138l-32.808 18.86c-.889.516-1.601.142-1.601-.818.035-.534.213-1.05.48-1.513a3.56 3.56 0 0 1 1.121-1.121zm0 15.424l32.791-18.93c.889-.516 1.601-.142 1.601.818-.036.534-.196 1.05-.48 1.513a3.38 3.38 0 0 1-1.121 1.12l-32.791 18.949c-.889.516-1.601.16-1.601-.801.035-.551.213-1.067.48-1.53.285-.462.659-.854 1.121-1.139zm0 15.444l32.791-18.931c.889-.516 1.601-.16 1.601.801-.036.534-.196 1.067-.48 1.53s-.659.836-1.121 1.139l-32.791 18.895c-.889.498-1.601.142-1.601-.819.053-.533.213-1.032.498-1.494.267-.463.641-.836 1.103-1.121z"/></g><path d="M182.586 382.355l32.79-18.931c.89-.516 1.601-.142 1.601.801-.035.534-.195 1.068-.48 1.53a3.43 3.43 0 0 1-1.121 1.139l-32.79 18.93c-.89.516-1.602.143-1.602-.8.036-.534.196-1.068.481-1.53a3.42 3.42 0 0 1 1.121-1.139z" class="C"/><g class="D"><path d="M182.586 392.78l32.79-18.93c.89-.516 1.601-.143 1.601.818-.035.534-.213 1.05-.48 1.512a3.43 3.43 0 0 1-1.121 1.139l-32.79 18.931c-.89.516-1.602.142-1.602-.801a3.36 3.36 0 0 1 .481-1.53 3.42 3.42 0 0 1 1.121-1.139zm0 10.428l32.79-18.931c.89-.516 1.601-.142 1.601.819-.035.534-.213 1.05-.48 1.512a3.43 3.43 0 0 1-1.121 1.139l-32.79 18.931c-.89.516-1.602.16-1.602-.801a3.59 3.59 0 0 1 .481-1.53 3.42 3.42 0 0 1 1.121-1.139zm6.369 6.635l32.808-18.93c.889-.516 1.583-.143 1.583.8-.035.534-.195 1.05-.462 1.512a3.6 3.6 0 0 1-1.121 1.139l-32.808 18.931c-.872.516-1.584.16-1.584-.801a3.29 3.29 0 0 1 .481-1.512c.266-.463.658-.854 1.103-1.139z"/></g><path d="M181.305 418.811l2.668-4.697c.107-.178.107-.409 0-.48l-2.668-1.619c-.125-.071-.321.16-.321.409v6.334c.018.214.196.285.321.053z" class="C"/><path d="M188.955 420.236l32.808-18.984c.889-.498 1.583-.142 1.583.818a3.28 3.28 0 0 1-.48 1.513c-.267.462-.658.854-1.103 1.138l-32.808 18.984c-.872.516-1.584.143-1.584-.818.036-.534.196-1.05.481-1.512.266-.463.658-.854 1.103-1.139z" class="D"/><path d="M181.305 429.203l2.668-4.697c.107-.178.107-.41 0-.481l-2.668-1.619c-.125-.089-.321.178-.321.427v6.316c.018.249.196.285.321.054z" class="C"/><path d="M188.955 430.626l32.808-18.93c.889-.516 1.583-.142 1.583.801-.035.551-.195 1.067-.48 1.53-.267.462-.658.854-1.103 1.138l-32.808 18.931c-.872.498-1.584.142-1.584-.819.036-.533.196-1.049.481-1.512.266-.462.658-.854 1.103-1.139z" class="D"/><path d="M181.305 439.647l2.668-4.715c.107-.178.107-.409 0-.462l-2.668-1.637c-.125-.072-.321.178-.321.427v6.334c.018.195.196.231.321.053z" class="C"/><path d="M188.955 441.017l32.808-18.931c.889-.516 1.583-.142 1.583.801-.035.534-.195 1.05-.462 1.512a3.6 3.6 0 0 1-1.121 1.139l-32.808 18.931c-.872.516-1.584.16-1.584-.783a3.29 3.29 0 0 1 .481-1.53c.266-.463.658-.854 1.103-1.139z" class="D"/><path d="M181.305 449.983l2.668-4.697c.107-.178.107-.41 0-.481l-2.668-1.619c-.125-.089-.321.16-.321.41v6.387c.018.196.196.231.321 0z" class="C"/><path d="M188.955 451.46l32.808-18.931c.889-.498 1.583-.142 1.583.819a3.28 3.28 0 0 1-.48 1.512c-.267.463-.658.854-1.103 1.139l-32.808 18.93c-.872.499-1.584.143-1.584-.818.036-.534.196-1.05.481-1.512.266-.463.658-.854 1.103-1.139z" class="D"/><path d="M181.305 460.319l2.668-4.697c.107-.178.107-.409 0-.481l-2.668-1.636c-.125-.072-.321.177-.321.427v6.387c.018.249.196.285.321 0z" class="C"/><path d="M188.955 461.796l32.808-18.931c.889-.516 1.583-.142 1.583.819a3.28 3.28 0 0 1-.48 1.512c-.267.445-.658.836-1.103 1.121l-32.808 18.948c-.872.498-1.584.143-1.584-.818.036-.534.196-1.05.481-1.512.266-.463.658-.854 1.103-1.139z" class="D"/><path d="M181.305 470.784l2.668-4.715c.107-.178.107-.409 0-.48l-2.668-1.62c-.125-.071-.321.178-.321.427v6.263c.018.303.196.338.321.125z" class="C"/><path d="M188.955 472.134l32.808-18.93c.889-.516 1.583-.143 1.583.8-.035.534-.195 1.05-.462 1.512a3.6 3.6 0 0 1-1.121 1.139l-32.808 18.931c-.872.516-1.584.16-1.584-.801.036-.534.196-1.067.481-1.512.284-.463.658-.854 1.103-1.139z" class="D"/><path d="M181.305 481.155l2.668-4.697c.107-.178.107-.409 0-.463l-2.668-1.637c-.125-.089-.321.16-.321.427v6.316c.018.25.196.285.321.054z" class="C"/><path d="M188.955 482.579l32.808-18.93c.889-.499 1.583-.161 1.583.8-.035.552-.195 1.068-.48 1.53-.267.463-.658.854-1.103 1.139l-32.808 18.931c-.872.498-1.584.142-1.584-.819.036-.534.196-1.05.481-1.512.266-.463.658-.854 1.103-1.139z" class="D"/><path d="M181.303 491.545l2.651-4.644c.107-.178.107-.409 0-.48l-2.669-1.637c-.125-.071-.32.178-.32.427v6.334c.035.195.213.231.338 0z" class="C"/><path d="M254.566 264.627l107.802-62.236a3.44 3.44 0 0 0 1.121-1.192c.284-.481.444-1.014.48-1.566v-27.489c0-1.014-.73-1.476-1.601-.907l-107.802 62.219a3.59 3.59 0 0 0-1.139 1.174c-.284.48-.444 1.032-.462 1.583v27.489c0 1.032.712 1.441 1.601.925z" class="K"/><g class="C"><path d="M263.96 245.233l.711-2.953-.978.569v-.089-.534c-.018-.035-.018-.071 0-.106v-.09l1.566-.907v.089.481.284l-.712 2.954v.089.088l-.48.267c-.018 0-.018-.017-.036-.017s-.035-.018-.053-.036c0 0-.018-.018-.018-.036v-.053zm2.689-4.945c.125-.089.267-.142.427-.124a.48.48 0 0 1 .302.106 1.18 1.18 0 0 1 .161.338 2.45 2.45 0 0 1 0 .499v.889.57c-.036.178-.089.355-.161.533-.089.16-.195.321-.302.463-.125.142-.267.267-.427.356-.125.089-.285.124-.427.142-.107-.018-.214-.071-.285-.142a.63.63 0 0 1-.178-.338c-.017-.16-.017-.321 0-.481v-.889a3.19 3.19 0 0 1 0-.57c.036-.177.089-.373.178-.533.071-.161.178-.321.285-.463.124-.142.267-.267.427-.356zm.356 2.046v-.871-.214-.142c-.018-.018-.036-.018-.054-.018s-.035 0-.053.018h-.16c-.071.035-.125.089-.16.142-.054.053-.089.107-.107.178v.213.25.854.213c-.018.053-.018.107 0 .16h.107c.053.018.106.018.16 0 .053-.053.124-.089.16-.16.053-.053.089-.107.107-.178s.018-.142 0-.213c-.018-.089-.036-.178-.071-.249l.071.017zm1.85-2.263v-.373-.231l-.089-.179c-.054-.035-.107-.035-.16 0a.27.27 0 0 0-.232 0c-.089.036-.16.09-.213.179a.6.6 0 0 0-.16.248c-.054.089-.089.178-.089.267-.018.107-.018.196 0 .303v.391c-.018.089-.018.178 0 .267 0 .054.035.107.089.16.017 0 .053.018.071.018.035 0 .053-.018.089-.018.071.018.142.018.213 0 .089-.053.161-.124.232-.195l.16-.232c.035-.089.071-.196.089-.284v-.321zm.803-1.546v.107l-1.619 4.27.267-.142c.036-.018.053-.054.071-.089v-.089l1.619-4.217-.249.16h-.089zm-5.712-1.759l-1.067-1.655c-1.246 2.135-2.118 4.466-2.563 6.886l1.744-.142c.338-1.797.979-3.505 1.886-5.089z"/><path d="M267.005 233.474v-2.829c-1.744 1.103-3.167 2.633-4.146 4.43l1.086 1.672a9 9 0 0 1 3.06-3.273zm-5.196 11.011c0-.89.089-1.762.249-2.633l-1.744.142a18.4 18.4 0 0 0-.355 3.54c-.018 1.068.106 2.118.355 3.15l1.744-1.886c-.178-.765-.267-1.53-.249-2.313z"/></g><path d="M273.696 234.255c-.142-.782-.427-1.547-.872-2.224s-1.014-1.263-1.69-1.708c-.658-.32-1.388-.445-2.099-.391-.73.053-1.424.302-2.029.712v2.829c.445-.303.961-.481 1.495-.534a3.2 3.2 0 0 1 1.565.302c.499.338.926.765 1.246 1.281a4.1 4.1 0 0 1 .64 1.673c.178.765.25 1.548.25 2.313 0 .889-.089 1.761-.25 2.633-.338 1.797-.978 3.505-1.886 5.088a9.25 9.25 0 0 1-3.06 3.31c-.445.302-.961.48-1.494.516-.552.035-1.086-.072-1.566-.303a4.56 4.56 0 0 1-1.263-1.281c-.321-.498-.534-1.067-.623-1.672l-1.744 1.886c.125.8.41 1.565.854 2.241a5.58 5.58 0 0 0 1.709 1.708c.64.321 1.369.445 2.099.392s1.423-.302 2.028-.712c1.726-1.121 3.149-2.633 4.128-4.43 1.245-2.135 2.099-4.466 2.562-6.885.214-1.175.338-2.367.338-3.559.018-1.067-.107-2.135-.338-3.185z" class="B"/><path d="M284.564 226.515l32.773-18.93c.89-.516 1.619-.143 1.619.8-.035.534-.213 1.068-.48 1.53-.285.463-.676.854-1.139 1.139l-32.773 18.895c-.889.516-1.619.142-1.619-.801.054-.533.214-1.049.499-1.494.284-.463.658-.854 1.12-1.139z" class="C"/><path d="M284.564 233.507l56.775-32.79c.889-.516 1.601-.143 1.601.818-.036.534-.214 1.05-.48 1.512-.285.463-.659.854-1.121 1.139l-56.775 32.773c-.889.516-1.619.16-1.619-.801.054-.551.214-1.067.499-1.53.284-.445.658-.836 1.12-1.121z" class="D"/><path d="M371.5 197.088l107.801-62.218c.463-.321.854-.73 1.121-1.21a3.51 3.51 0 0 0 .481-1.566v-27.489c0-1.014-.712-1.476-1.602-.907L371.5 165.899c-.463.302-.854.729-1.139 1.21a3.72 3.72 0 0 0-.463 1.565v27.489c.036 1.014.748 1.423 1.602.925z" class="K"/><g class="C"><path d="M381.441 175.186c0-.195.036-.391.089-.587a2.66 2.66 0 0 1 .214-.516 2.68 2.68 0 0 1 .302-.427c.107-.107.232-.213.356-.302a1.34 1.34 0 0 1 .356-.107c.107-.018.214.018.32.071.089.071.16.16.214.267.053.16.071.32.071.48.018.107.018.196 0 .285.018.089.018.178 0 .267s-.036.178-.071.249l-.089.231-.623 1.69v.089c-.018.036-.035.054-.071.072l-.516.302v-.036-.035l.427-1.139a.85.85 0 0 1-.302 0 .36.36 0 0 1-.25-.107.54.54 0 0 1-.177-.267c-.125-.142-.196-.302-.25-.48zm1.317-.765c.018-.053.018-.107 0-.178 0-.018-.018-.035-.018-.053-.017-.018-.035-.018-.053-.036h-.125-.124l-.142.107-.089.16c-.054.071-.072.125-.089.196s-.018.124 0 .196c-.018.053-.018.106 0 .177 0 0 0 .072.089.089h.089.142c.053-.035.089-.071.124-.124.054-.036.089-.089.125-.142.036-.072.053-.125.071-.196s.018-.125 0-.196zm1.85-2.312c.125-.089.267-.142.409-.142.054 0 .107.018.161.035s.106.054.142.089c.071.107.142.214.178.338a2.31 2.31 0 0 1 0 .499v.427.462c.018.196.018.374 0 .569l-.178.534c-.089.16-.178.321-.303.463s-.249.267-.409.356a1.21 1.21 0 0 1-.427.142c-.106-.018-.213-.071-.302-.142a1.02 1.02 0 0 1-.178-.338 2.15 2.15 0 0 1 0-.481v-.427-.462-.57l.178-.533c.089-.178.178-.321.302-.463s.267-.267.427-.356zm.338 2.028a6.76 6.76 0 0 0 0-.854.36.36 0 0 0 0-.195c.018-.054.018-.107 0-.16-.035-.018-.071-.018-.106 0h-.161c-.053.035-.124.071-.16.142-.035.053-.089.107-.124.178v.213.249.854.214.142c.018.018.053.018.071.018s.036 0 .053-.018h.16l.161-.124c.053-.054.089-.125.106-.196v-.214-.249zm1.925-2.598a1.3 1.3 0 0 1 0 .374v.32c-.036.089-.053.178-.107.267-.035.089-.089.16-.142.249-.071.072-.142.143-.231.178-.072.054-.143.071-.232.089h-.142c-.053-.053-.089-.124-.107-.178v-.267-.178-.213-.303c.036-.089.054-.177.107-.266a1.16 1.16 0 0 1 .142-.249c.071-.072.143-.143.232-.178a.5.5 0 0 1 .231 0c.018-.018.053-.018.071-.018s.053 0 .071.018a.36.36 0 0 1 .107.178v.177zm.836-1.067v-.107h.071l.267-.16-1.619 4.217v.089.071l-.267.16 1.548-4.27zm-1.476 1.797v.178c0 .035 0 0 .071 0 .035 0 .053-.018.071-.054.018-.017.035-.035.035-.071v-.213-.32c.018-.072.018-.125 0-.178h-.106c-.036.018-.071.071-.071.124a.43.43 0 0 0 0 .214v.32zm2.17.142v.392.302l-.107.285c-.053.089-.106.178-.16.231-.071.089-.142.16-.231.196a.43.43 0 0 1-.214 0c-.035.018-.053.018-.071.018-.035 0-.053 0-.089-.018-.035-.053-.071-.107-.089-.178a.58.58 0 0 1 0-.249.68.68 0 0 1 0-.374c-.018-.107-.018-.213 0-.32.018-.089.054-.196.089-.285a.68.68 0 0 1 .16-.231.78.78 0 0 1 .214-.196.5.5 0 0 1 .231 0c.018 0 .054-.018.071-.018.036 0 .054.018.089.018l.107.178v.196.053zm-.658.748v.177c0 .018 0 0 .089 0 .018-.017.053-.035.071-.053s.035-.036.035-.071v-.214c.018-.106.018-.231 0-.338v-.177s.001 0-.106 0c-.054.035-.071.088-.089.142-.018.071-.018.142 0 .213v.321zm-2.814-7.795v-2.829a12.17 12.17 0 0 0-4.128 4.431l1.067 1.672a9.02 9.02 0 0 1 3.061-3.274z"/></g><path d="M391.62 166.147c-.124-.783-.427-1.548-.854-2.242a5.89 5.89 0 0 0-1.69-1.69c-.658-.32-1.388-.462-2.117-.409a4.36 4.36 0 0 0-2.028.729v2.829c.444-.32.96-.498 1.494-.534a3.14 3.14 0 0 1 1.566.303 4.56 4.56 0 0 1 1.263 1.281c.32.498.534 1.085.623 1.673a9.38 9.38 0 0 1 .249 2.312c0 .89-.089 1.762-.249 2.634-.339 1.796-.979 3.505-1.886 5.088-.73 1.334-1.779 2.473-3.06 3.309-.445.303-.961.481-1.495.516s-1.068-.071-1.566-.302a4.56 4.56 0 0 1-1.263-1.281c-.32-.498-.534-1.068-.623-1.673-.178-.765-.249-1.53-.249-2.313 0-.889.089-1.761.249-2.633a15.91 15.91 0 0 1 1.851-5.088l-1.086-1.655c-1.245 2.117-2.099 4.448-2.544 6.868-.231 1.174-.356 2.366-.356 3.576-.017 1.05.107 2.099.356 3.131a5.65 5.65 0 0 0 .854 2.242c.445.694 1.014 1.263 1.69 1.708.659.321 1.388.463 2.118.392.729-.054 1.423-.303 2.028-.712a12.18 12.18 0 0 0 4.128-4.43c1.245-2.135 2.099-4.466 2.562-6.886a19.96 19.96 0 0 0 .338-3.558c.017-1.068-.071-2.135-.303-3.185z" class="B"/><path d="M402.511 158.409l32.791-18.93c.872-.516 1.601-.16 1.601.8-.035.534-.213 1.068-.48 1.53-.285.463-.658.837-1.121 1.139l-32.791 18.931c-.889.516-1.601.142-1.601-.819.036-.533.214-1.049.481-1.512.284-.463.658-.854 1.12-1.139z" class="C"/><path d="M402.511 165.382l56.775-32.773c.889-.516 1.619-.142 1.619.819-.054.534-.214 1.05-.499 1.512-.266.463-.658.854-1.12 1.139l-56.775 32.773c-.889.516-1.601.16-1.601-.801a3.52 3.52 0 0 1 .481-1.53c.284-.463.658-.854 1.12-1.139z" class="D"/><path d="M265.547 272.17l23.005-13.291c.889-.516 1.583-.142 1.583.801a3.49 3.49 0 0 1-.463 1.512c-.284.463-.676.854-1.12 1.139l-23.005 13.291c-.89.516-1.602.142-1.602-.801.036-.551.196-1.068.481-1.53a3.54 3.54 0 0 1 1.121-1.121z" class="C"/><g class="D"><path d="M479.439 157.286v175.732a1.97 1.97 0 0 1-.285.818 1.89 1.89 0 0 1-.587.658L254.441 463.842V288.111a2.23 2.23 0 0 1 .267-.819c.161-.267.356-.48.606-.658l2.775-1.601c.694-.427 1.281-1.032 1.69-1.726.409-.712.641-1.513.658-2.331v-10.124a2.44 2.44 0 0 1 .267-.836 2.3 2.3 0 0 1 .605-.64l32.168-18.575v9.447c-.018.338.018.659.125.979s.267.605.498.854c.213.231.48.427.783.569s.622.214.96.214c.516 0 1.033-.143 1.477-.409l182.137-105.169m.569-1.868a1.66 1.66 0 0 0-.712.214L296.555 261.156c-.213.124-.462.213-.712.213-.533 0-.889-.427-.889-1.138v-10.177c0-.712-.374-1.121-.89-1.121-.249 0-.48.089-.694.213l-32.808 18.931a3.42 3.42 0 0 0-1.121 1.192 3.56 3.56 0 0 0-.48 1.583v10.16c-.018.551-.178 1.103-.463 1.583a3.58 3.58 0 0 1-1.139 1.174l-2.793 1.637c-.462.303-.854.694-1.139 1.175s-.444 1.032-.462 1.583v176.389c0 .73.356 1.157.872 1.157.267-.018.516-.089.729-.214l224.73-129.774a3.43 3.43 0 0 0 1.121-1.192c.285-.481.445-1.014.481-1.566V156.557c0-.73-.356-1.139-.89-1.139h.018zM267.415 295.833a1.76 1.76 0 0 1-.782-.195c-.267-.178-.499-.428-.641-.73a1.8 1.8 0 0 1-.196-.961v-6.689c.036-.676.232-1.353.57-1.94a3.95 3.95 0 0 1 1.405-1.459l17.828-10.337c.267-.196.587-.302.907-.32.338-.018.658.053.943.196a1.86 1.86 0 0 1 .658.729 1.91 1.91 0 0 1 .196.943v6.69c-.035.694-.231 1.37-.587 1.957-.338.587-.818 1.085-1.406 1.459l-17.809 10.337c-.321.196-.694.302-1.086.32zm1.086-10.693c-.356.232-.641.534-.872.908-.214.373-.338.783-.356 1.21v6.689c-.018.143.018.285.107.41.142 0 .285-.036.391-.125l17.828-10.266c.356-.231.64-.551.854-.925a2.91 2.91 0 0 0 .373-1.21v-6.69a.57.57 0 0 0-.106-.409c-.143 0-.285.035-.41.124l-17.809 10.284zm1.102 2.741l11.618-6.725c.587-.339 1.067-.107 1.067.516-.017.373-.124.711-.32 1.031-.178.303-.445.552-.747.748l-11.618 6.743c-.588.338-1.068.089-1.068-.534.036-.356.143-.712.321-1.014.195-.32.444-.569.747-.765z"/></g><path d="M283.891 280.034l.96 1.388s.089 0 .143-.089l.961-2.491v-.178l-1.922 1.103c-.054.036-.089.072-.125.107-.035.053-.035.107-.017.16z" class="C"/><g class="B"><path d="M264.957 360.721c.872-.481 1.477-.089 1.477.889-.018.534-.16 1.05-.409 1.513-.267.462-.623.871-1.068 1.174-.854.48-1.477.071-1.477-.89.036-.534.178-1.05.427-1.512a3.5 3.5 0 0 1 1.05-1.174zm12.027-13.842c.854-.481 1.548-.089 1.548.889a3.25 3.25 0 0 1-.444 1.513 3.44 3.44 0 0 1-1.104 1.156c-.836.481-1.476.089-1.476-.889a3.23 3.23 0 0 1 .427-1.513c.249-.463.605-.854 1.049-1.156zm11.978-6.922c.836-.498 1.477-.089 1.477.872-.018.534-.16 1.05-.427 1.512-.249.463-.605.872-1.05 1.175-.854.48-1.548.089-1.548-.89.036-.534.178-1.067.445-1.53.285-.463.658-.854 1.103-1.139zm11.987-3.897c.854-.48 1.477-.089 1.477.89a3.43 3.43 0 0 1-.409 1.512c-.267.463-.623.872-1.068 1.157-.854.498-1.476.089-1.476-.872a3.21 3.21 0 0 1 .427-1.512 3.18 3.18 0 0 1 1.049-1.175zm12.008-12.471c.854-.48 1.477-.089 1.477.908-.018.516-.16 1.032-.427 1.494-.249.463-.623.854-1.05 1.157-.836.498-1.477.106-1.477-.89.018-.516.178-1.032.427-1.512.25-.463.605-.854 1.05-1.157zm11.996-4.411c.854-.499 1.477-.089 1.477.889-.018.516-.16 1.05-.427 1.512-.249.463-.623.854-1.05 1.157-.854.48-1.476.089-1.476-.89a3.42 3.42 0 0 1 .409-1.512c.267-.463.622-.854 1.067-1.156zm11.992-13.913c.854-.498 1.549-.107 1.549.889a3.5 3.5 0 0 1-.463 1.513 3.39 3.39 0 0 1-1.086 1.156c-.854.481-1.476.089-1.476-.907a3.22 3.22 0 0 1 .427-1.495 3.27 3.27 0 0 1 1.049-1.156zm12.008-3.418c.836-.48 1.477-.089 1.477.907a3.62 3.62 0 0 1-.427 1.495c-.267.463-.623.872-1.05 1.156-.872.516-1.476.107-1.476-.871a3.42 3.42 0 0 1 .409-1.513 3.56 3.56 0 0 1 1.067-1.174zm11.997-38.092c.854-.498 1.476-.089 1.476.908a3.69 3.69 0 0 1-.427 1.494c-.267.463-.622.872-1.049 1.174-.872.481-1.477.089-1.477-.907.017-.534.16-1.05.409-1.512a3.5 3.5 0 0 1 1.068-1.157zm12.024 20.834c.836-.498 1.477-.107 1.477.89-.018.533-.178 1.049-.427 1.512s-.623.854-1.05 1.156c-.854.481-1.548.089-1.548-.907.035-.534.178-1.05.445-1.512.284-.463.658-.854 1.103-1.139zm11.952 0c.854-.498 1.477-.107 1.477.89a3.23 3.23 0 0 1-.427 1.512c-.249.462-.605.854-1.05 1.156-.854.481-1.477.089-1.477-.907a3.22 3.22 0 0 1 .427-1.495c.249-.462.623-.854 1.05-1.156zm11.996 0c.854-.498 1.477-.107 1.477.89a3.23 3.23 0 0 1-.427 1.512c-.249.462-.605.854-1.05 1.156-.836.481-1.477.089-1.477-.907a3.7 3.7 0 0 1 .428-1.495c.266-.462.622-.854 1.049-1.156zm12.009-20.816c.836-.516 1.476-.107 1.476.889-.017.516-.178 1.032-.427 1.495s-.604.872-1.049 1.174c-.854.48-1.548.089-1.548-.907.035-.534.178-1.05.462-1.513.267-.462.641-.854 1.086-1.138zm11.987-3.986c.854-.498 1.477-.089 1.477.872-.018.534-.16 1.05-.427 1.512-.249.481-.605.872-1.05 1.175-.854.48-1.477.089-1.477-.89.018-.534.161-1.05.427-1.512.249-.463.605-.872 1.05-1.157zm12.035-16.813c.872-.48 1.566-.089 1.566.907-.035.534-.196 1.05-.462 1.513a3.2 3.2 0 0 1-1.104 1.138c-.836.499-1.476.107-1.476-.889a3.7 3.7 0 0 1 .427-1.495c.267-.48.622-.872 1.049-1.174zm13.058 2.438c.605-1.05.623-2.171.018-2.509-.605-.356-1.584.213-2.189 1.263-.605 1.032-.605 2.171 0 2.509.605.356 1.584-.214 2.171-1.263zm12.008-.001c.605-1.05.605-2.171.018-2.526-.605-.338-1.584.231-2.189 1.263-.605 1.05-.605 2.188 0 2.526.587.356 1.566-.213 2.171-1.263zm10.939-9.358c.836-.499 1.477-.089 1.477.889-.018.534-.178 1.05-.427 1.512s-.623.854-1.05 1.157c-.854.498-1.548.107-1.548-.89.036-.533.178-1.049.463-1.512.267-.48.64-.872 1.085-1.156z"/><path d="M264.938 362.857a.42.42 0 0 1-.249-.089c-.071-.071-.107-.16-.107-.267a.39.39 0 0 1 .107-.266l12.098-13.914.107-.089 11.903-6.868 11.974-3.878 11.938-12.419.143-.089 11.902-4.43 11.939-13.771c.053-.053.107-.089.178-.125l11.814-3.416 11.902-37.843c.018-.071.054-.125.107-.178s.125-.071.196-.089a.48.48 0 0 1 .213.053c.072.018.125.071.161.143l11.885 20.585h23.627l11.832-20.514c.018-.036.053-.071.089-.107s.071-.053.107-.071l11.903-3.95 11.902-16.689a.28.28 0 0 1 .143-.107c.053-.035.106-.053.178-.053h23.894l11.903-6.868c.089-.053.178-.071.285-.053.089.036.178.089.231.178.036.089.054.196.018.285-.018.089-.089.177-.178.213l-11.992 6.939a.3.3 0 0 1-.178 0h-23.805l-11.885 16.653c-.054.054-.107.107-.178.125l-11.814 3.95-11.939 20.674c-.035.053-.089.089-.142.124s-.124.054-.178.054h-24.001c-.072 0-.125-.018-.178-.054s-.107-.071-.125-.124l-11.582-20.052-11.743 37.328c-.018.053-.053.107-.107.16a.38.38 0 0 1-.142.089l-11.903 3.434-11.921 13.771-.142.107-11.938 4.43-11.939 12.419c-.035.035-.089.071-.142.089l-12.01 3.878-11.813 6.832-12.117 13.771a.37.37 0 0 1-.231.089z"/></g><path d="M264.959 370.24c-.125 0-.249-.036-.356-.107a.49.49 0 0 1-.267-.267c-.107-.16-.124-.373-.089-.551a.77.77 0 0 1 .356-.463l203.949-117.747c.161-.071.356-.072.516-.018a.76.76 0 0 1 .427.32c.089.16.107.356.072.534s-.143.338-.285.445L265.332 370.08c-.106.089-.231.142-.373.16z" class="D"/><g class="B"><use xlink:href="#G"/><path d="M276.984 333.019c.854-.48 1.548-.089 1.548.89-.017.534-.178 1.067-.444 1.53a3.38 3.38 0 0 1-1.104 1.139c-.836.498-1.476.089-1.476-.872.018-.534.16-1.05.427-1.512a3.33 3.33 0 0 1 1.049-1.175zm13.08-.161c.605-1.05.605-2.171 0-2.526-.605-.338-1.566.213-2.171 1.263s-.604 2.171-.017 2.526c.605.338 1.583-.231 2.188-1.263z"/><use xlink:href="#H"/><path d="M312.957 312.256c.854-.498 1.477-.089 1.477.872-.018.534-.16 1.05-.427 1.512-.249.463-.623.872-1.05 1.175-.836.48-1.477.088-1.477-.89.018-.534.161-1.05.427-1.512.25-.463.605-.872 1.05-1.157zm11.996-3.469c.854-.498 1.477-.089 1.477.89-.018.533-.178 1.049-.427 1.512s-.623.854-1.05 1.156c-.854.499-1.476.089-1.476-.889a3.22 3.22 0 0 1 .427-1.513c.249-.462.604-.871 1.049-1.156zm11.992-10.391c.854-.499 1.549-.107 1.549.889a3.5 3.5 0 0 1-.463 1.513c-.267.48-.641.871-1.086 1.156-.854.48-1.476.089-1.476-.89a3.5 3.5 0 0 1 .409-1.512c.267-.463.623-.854 1.067-1.156zm12.008-13.807c.836-.498 1.477-.107 1.477.89a3.7 3.7 0 0 1-.427 1.512 3.64 3.64 0 0 1-1.05 1.156c-.872.481-1.476.089-1.476-.907.017-.516.16-1.032.409-1.495a3.49 3.49 0 0 1 1.067-1.156zm11.997-3.523c.854-.48 1.476-.089 1.476.89a3.69 3.69 0 0 1-.427 1.512c-.267.463-.622.872-1.049 1.157-.872.498-1.477.088-1.477-.872a3.42 3.42 0 0 1 .409-1.513c.267-.462.623-.871 1.068-1.174zm12.023-10.373c.854-.499 1.477-.107 1.477.889-.018.534-.178 1.05-.427 1.512s-.623.854-1.05 1.157c-.836.48-1.477.089-1.477-.908a3.22 3.22 0 0 1 .427-1.494c.249-.463.605-.854 1.05-1.156zm11.953 0c.854-.499 1.477-.107 1.477.889-.018.534-.16 1.05-.427 1.512-.249.463-.605.854-1.05 1.157-.854.48-1.477.089-1.477-.908a3.22 3.22 0 0 1 .427-1.494c.249-.463.623-.854 1.05-1.156zm11.996-27.719c.854-.48 1.477-.089 1.477.907a3.22 3.22 0 0 1-.427 1.495c-.249.462-.605.854-1.05 1.156-.836.499-1.477.107-1.477-.889a3.7 3.7 0 0 1 .428-1.495c.266-.48.622-.872 1.049-1.174zm12.009 13.772c.836-.498 1.476-.107 1.476.871a3.22 3.22 0 0 1-.427 1.513c-.249.462-.604.872-1.049 1.174-.854.48-1.548.089-1.548-.89.035-.533.178-1.067.445-1.53a3.54 3.54 0 0 1 1.103-1.138zm11.987-13.772c.854-.48 1.477-.089 1.477.907a3.22 3.22 0 0 1-.427 1.495c-.249.462-.605.854-1.05 1.156-.854.499-1.477.107-1.477-.889.018-.516.161-1.05.427-1.512.249-.463.623-.855 1.05-1.157zm12.017-6.921c.836-.499 1.476-.089 1.476.889a3.69 3.69 0 0 1-.427 1.512 3.64 3.64 0 0 1-1.049 1.157c-.854.498-1.548.107-1.548-.89a3.25 3.25 0 0 1 .445-1.512c.266-.48.64-.872 1.103-1.156zm11.991 0c.854-.499 1.477-.089 1.477.889-.018.534-.178 1.05-.427 1.512s-.623.854-1.05 1.157c-.854.498-1.477.107-1.477-.89a3.23 3.23 0 0 1 .427-1.512c.249-.463.605-.854 1.05-1.156zm11.988-6.922c.854-.498 1.548-.089 1.548.889a3.5 3.5 0 0 1-.463 1.513c-.266.462-.64.854-1.085 1.156-.854.498-1.476.089-1.476-.89a3.23 3.23 0 0 1 .426-1.512c.25-.462.605-.854 1.05-1.156zm12.044 0c.836-.498 1.477-.089 1.477.889-.018.534-.178 1.05-.427 1.513s-.623.854-1.05 1.156c-.854.498-1.548.089-1.548-.89.036-.533.178-1.067.463-1.53a3.32 3.32 0 0 1 1.085-1.138z"/><path d="M264.96 355.953a.3.3 0 0 1-.178 0c-.089-.035-.16-.124-.178-.213s-.017-.196.036-.285l12.081-20.817c.017-.053.053-.089.106-.124.036-.036.089-.054.143-.054l11.725-2.508 11.92-24.962a.34.34 0 0 1 .107-.125c.036-.035.071-.053.125-.071s.106-.018.16-.018c.035 0 .089 0 .142.018l11.814 6.85 11.814-3.399 11.92-10.337 11.974-13.824c.036-.071.107-.107.178-.124l11.921-3.434 11.921-10.338c.071-.071.16-.088.249-.088h11.814l11.849-27.489a.45.45 0 0 1 .125-.142c.053-.036.106-.072.177-.072.054-.017.125 0 .178.018a.28.28 0 0 1 .143.107l11.725 13.522 11.707-13.522c.035-.036.071-.071.107-.089l12.027-6.939c.071-.018.124-.018.178 0h11.903l11.813-6.85c.072-.018.125-.018.178 0h12.099c.089 0 .196.036.267.107s.107.16.107.267c0 .089-.036.196-.107.249-.071.071-.178.125-.267.125H457.06l-11.814 6.849h-.178-11.902l-11.903 6.868-11.939 13.807c-.035.035-.089.071-.142.089-.036.018-.089.018-.143.018s-.106 0-.16-.018a.59.59 0 0 1-.124-.089L397.137 245.5l-11.814 27.169c-.036.071-.071.125-.142.16-.054.036-.125.071-.196.071h-11.814l-12.01 10.213h-.142l-11.885 3.434-11.956 13.771-12.027 10.426-.125.071-11.992 3.469c-.036.018-.089.036-.142.036s-.089-.018-.143-.036l-11.653-6.725-11.814 24.766c-.036.036-.071.089-.107.125a.25.25 0 0 1-.16.053l-11.814 2.509-11.992 20.674a.55.55 0 0 1-.089.178.34.34 0 0 1-.16.089z"/></g><g class="E H"><use xlink:href="#G"/><path d="M276.988 333.017c.854-.48 1.548-.089 1.548.89-.018.534-.178 1.068-.445 1.53s-.658.854-1.103 1.139c-.836.498-1.476.089-1.476-.872.018-.534.16-1.05.427-1.512a3.33 3.33 0 0 1 1.049-1.175zm13.076-.159c.605-1.05.605-2.171 0-2.526-.587-.338-1.566.213-2.171 1.263s-.604 2.171-.017 2.526c.605.338 1.583-.231 2.188-1.263zm10.885-27.595c.854-.498 1.477-.107 1.477.889a3.23 3.23 0 0 1-.427 1.513c-.249.462-.605.854-1.05 1.156-.854.481-1.476.089-1.476-.907a3.21 3.21 0 0 1 .427-1.495c.249-.462.622-.854 1.049-1.156zm12.012 6.991c.854-.498 1.477-.089 1.477.872-.018.534-.16 1.05-.427 1.512-.249.463-.623.872-1.05 1.175-.836.48-1.477.089-1.477-.89.018-.534.16-1.05.427-1.512.249-.463.605-.872 1.05-1.157zm11.988-3.469c.854-.498 1.477-.089 1.477.89a3.23 3.23 0 0 1-.427 1.512c-.249.462-.623.854-1.05 1.156-.854.499-1.476.089-1.476-.889a3.21 3.21 0 0 1 .427-1.512c.249-.463.605-.872 1.049-1.157zm11.996-10.391c.854-.498 1.549-.107 1.549.889-.036.534-.178 1.05-.463 1.513-.267.48-.641.871-1.086 1.156-.836.48-1.476.089-1.476-.89a3.29 3.29 0 0 1 .427-1.512c.249-.463.605-.854 1.049-1.156zm12.012-13.807c.836-.498 1.477-.107 1.477.89-.036.533-.178 1.049-.427 1.512a3.63 3.63 0 0 1-1.05 1.156c-.872.481-1.477.089-1.477-.907.018-.516.161-1.032.41-1.495a3.5 3.5 0 0 1 1.067-1.156zm11.985-3.521c.854-.48 1.476-.089 1.476.89a3.69 3.69 0 0 1-.427 1.512c-.266.463-.622.872-1.049 1.157-.872.498-1.477.088-1.477-.872.018-.534.16-1.05.409-1.513.267-.462.623-.871 1.068-1.174zm12.031-10.373c.854-.499 1.477-.107 1.477.889-.018.534-.16 1.05-.427 1.512-.249.463-.605.854-1.05 1.157-.836.48-1.477.089-1.477-.908.018-.515.178-1.031.427-1.494s.623-.854 1.05-1.156zm11.957 0c.872-.499 1.477-.107 1.477.889-.018.534-.16 1.05-.41 1.512-.266.463-.622.854-1.067 1.157-.854.48-1.477.089-1.477-.908.036-.515.178-1.031.427-1.494s.623-.854 1.05-1.156zm11.996-27.721c.854-.48 1.477-.089 1.477.907a3.22 3.22 0 0 1-.427 1.495c-.249.463-.605.854-1.05 1.156-.836.499-1.477.107-1.477-.889.036-.516.178-1.032.427-1.495a3.53 3.53 0 0 1 1.05-1.174zm12.005 13.772c.836-.498 1.476-.107 1.476.872a3.22 3.22 0 0 1-.427 1.512c-.249.462-.604.872-1.049 1.174-.854.481-1.548.089-1.548-.889.035-.534.178-1.068.445-1.531a3.54 3.54 0 0 1 1.103-1.138zm11.991-13.772c.854-.48 1.477-.089 1.477.907a3.22 3.22 0 0 1-.427 1.495c-.249.463-.605.854-1.05 1.156-.854.499-1.477.107-1.477-.889.018-.516.16-1.05.427-1.512.249-.463.623-.854 1.05-1.157zm12.013-6.921c.836-.499 1.476-.089 1.476.889-.018.534-.178 1.05-.427 1.512s-.622.855-1.049 1.157c-.854.498-1.548.107-1.548-.89a3.27 3.27 0 0 1 .462-1.512c.267-.48.641-.872 1.086-1.156zm11.987 0c.854-.499 1.477-.089 1.477.889-.018.534-.16 1.05-.427 1.512-.249.463-.623.855-1.05 1.157-.854.498-1.477.107-1.477-.89a3.23 3.23 0 0 1 .427-1.512c.249-.462.605-.854 1.05-1.156zm11.996-6.92c.854-.498 1.548-.089 1.548.889a3.5 3.5 0 0 1-.463 1.513c-.267.462-.64.854-1.085 1.156-.854.498-1.477.089-1.477-.89a3.24 3.24 0 0 1 .427-1.512c.249-.462.605-.854 1.05-1.156zm12.044 0c.836-.498 1.477-.089 1.477.889a3.23 3.23 0 0 1-.427 1.513c-.249.462-.605.854-1.05 1.156-.854.498-1.548.089-1.548-.89.036-.533.196-1.067.463-1.53a3.32 3.32 0 0 1 1.085-1.138z"/><path d="M264.96 355.951a.3.3 0 0 1-.178 0c-.089-.035-.16-.124-.178-.213s-.017-.196.036-.285l12.081-20.817c.017-.053.053-.089.106-.124.036-.036.089-.054.143-.054l11.725-2.508 11.92-24.962a.34.34 0 0 1 .107-.125c.036-.035.071-.053.125-.071s.106-.018.16-.018c.035 0 .089 0 .142.018l11.814 6.85 11.814-3.398 11.92-10.338 11.974-13.824c.036-.071.107-.107.178-.124l11.921-3.434 11.921-10.338c.071-.071.16-.088.249-.088h11.814l11.849-27.489a.46.46 0 0 1 .125-.142c.053-.036.106-.072.177-.072.054-.017.125 0 .178.018a.28.28 0 0 1 .143.107l11.725 13.522 11.707-13.522c.035-.036.071-.071.107-.089l12.027-6.939c.071-.018.124-.018.178 0h11.903l11.813-6.85c.072-.018.125-.018.178 0h12.099c.089 0 .196.036.267.107s.107.16.107.267c0 .089-.036.196-.107.249-.071.071-.178.125-.267.125H457.06l-11.814 6.849h-.178-11.902l-11.903 6.868-11.939 13.807c-.035.035-.089.071-.142.089-.036.018-.089.018-.143.018s-.106 0-.16-.018a.59.59 0 0 1-.124-.089l-11.618-13.415-11.814 27.168c-.036.071-.071.125-.142.16-.054.036-.125.071-.196.071h-11.814l-12.01 10.213h-.142l-11.885 3.434-11.956 13.771-12.027 10.426-.125.071-11.992 3.469c-.036.018-.089.036-.142.036s-.089-.018-.143-.036l-11.653-6.725-11.814 24.766c-.036.036-.071.089-.107.125a.25.25 0 0 1-.16.053l-11.814 2.509-11.992 20.674a.55.55 0 0 1-.089.178.34.34 0 0 1-.16.089z"/></g><path d="M271.239 302.418l11.654-6.743c.587-.356 1.067-.107 1.067.533-.035.356-.142.712-.32 1.015a2.51 2.51 0 0 1-.747.747l-11.618 6.743c-.588.338-1.068.107-1.068-.534a2.31 2.31 0 0 1 .302-1.014c.196-.302.427-.551.73-.747z" class="D"/><use xlink:href="#I" class="B"/><use xlink:href="#I" class="E H"/><path d="M271.239 309.302l11.619-6.725c.604-.338 1.067-.107 1.067.534-.018.355-.125.711-.32 1.014-.178.302-.427.569-.747.747l-11.619 6.761c-.569.338-1.067.089-1.067-.551.035-.356.142-.712.338-1.015.178-.302.427-.569.729-.765z" class="D"/><g class="B"><path d="M264.958 312.255c.854-.498 1.477-.106 1.477.872-.018.534-.16 1.05-.409 1.513-.267.48-.623.871-1.068 1.174-.854.48-1.548.089-1.548-.89.036-.533.178-1.067.463-1.53.267-.462.64-.854 1.085-1.139zm.003 92.288c-.089 0-.178-.036-.249-.107-.035-.036-.053-.071-.071-.125-.035-.035-.036-.089-.036-.142 0-.036.001-.089.036-.142.018-.036.036-.089.071-.125l6.085-6.263 5.907-.747 6.049-7.793 6.032.819 5.907-5.302 5.996-3.577 6.102-8.469 6.067 1.904 5.836-5.213c.071-.071.16-.107.249-.107.107 0 .196.036.267.107.036.036.071.071.089.125a.33.33 0 0 1 .036.142c0 .053-.018.089-.036.142-.018.036-.053.072-.089.107l-6.138 5.498-5.907-1.868-5.907 8.184-5.996 3.594-6.067 5.498-5.907-.819-5.907 7.686-6.298.748-5.907 6.067a.42.42 0 0 1-.214.178z"/></g><g class="C"><path d="M267.339 384.278c.036-.054.089-.089.143-.125a.92.92 0 0 1 .16-.124 1.68 1.68 0 0 1 .907-.267c.267 0 .534.089.73.267.213.213.373.462.462.765.125.373.196.783.178 1.192 0 .463-.053.925-.178 1.37-.106.445-.267.89-.462 1.317-.196.391-.445.765-.73 1.103-.249.302-.551.569-.907.765-.267.177-.587.266-.908.284-.267 0-.516-.107-.711-.284a1.75 1.75 0 0 1-.481-.748 3.45 3.45 0 0 1-.16-1.192 2.8 2.8 0 0 1 0-.765c.036-.231.071-.48.143-.711 0-.249.124-.463.213-.676l.214-.659 1.601-4.555c.035-.071.071-.142.089-.213.018-.053.053-.089.071-.125.036-.035.071-.071.107-.089l.516-.267c0-.017.017-.017.017-.035h.036.036c0 .018.017.018.017.035v.161.124.071l-1.103 3.381zm-1.138 3.843a2.39 2.39 0 0 0 .106.712c.054.178.161.355.303.48a.57.57 0 0 0 .427.196c.213 0 .427-.054.605-.178.231-.143.445-.321.605-.516a2.65 2.65 0 0 0 .444-.712 3.54 3.54 0 0 0 .392-1.654c0-.232-.036-.481-.089-.712-.053-.178-.16-.338-.303-.481-.106-.106-.266-.177-.444-.195-.214.018-.41.071-.605.178-.214.142-.427.32-.605.516a3.01 3.01 0 0 0-.427.729 3.55 3.55 0 0 0-.303.819c-.071.266-.106.533-.106.818zm5.219-2.171l.124.373a.49.49 0 0 0 .232.232c.124.053.284.053.409 0 .249-.054.48-.143.676-.285.196-.107.374-.231.516-.392.178-.16.32-.355.445-.569a3 3 0 0 0 .284-.694c.072-.284.107-.551.107-.836a1.46 1.46 0 0 0-.107-.676c-.053-.142-.142-.267-.284-.32-.125-.054-.285-.054-.427 0-.178.053-.356.124-.534.231l-.712.409c-.035.018-.053.036-.089.036s-.071-.018-.089-.036c-.035-.071-.035-.142 0-.196v-.498c-.017-.071-.017-.16 0-.249l.089-.231 1.584-3.541-2.527 1.477c-.018 0-.035.018-.035.018-.018.018-.036.018-.054.018s-.035 0-.035-.018c-.018 0-.036-.018-.054-.018 0 0-.071-.107-.071-.213v-.481c0-.107.018-.213.071-.302.036-.089.089-.161.178-.214l3.452-1.993h.16c.018.036.018.072.018.125 0 .036 0 .071-.018.107v.409c.018.089.018.178 0 .267-.035.089-.071.196-.124.285l-1.548 3.487c.249-.16.533-.249.818-.267.107 0 .214.018.32.035.107.036.214.09.303.161a1.33 1.33 0 0 1 .391.64 3.01 3.01 0 0 1 .143 1.05c0 .445-.054.907-.178 1.334-.107.427-.267.819-.463 1.21-.196.338-.427.676-.694.961-.249.284-.533.498-.836.694a2.67 2.67 0 0 1-1.032.373c-.231.036-.48-.017-.694-.142-.178-.125-.32-.32-.409-.534-.089-.249-.142-.516-.142-.8-.018-.072-.018-.161 0-.232s.071-.124.124-.16l.409-.231h.161c.071.036.124.107.142.196zm5.23-3.008a1.02 1.02 0 0 0 .124.374c.036.089.125.178.231.231a.79.79 0 0 0 .41 0 2.08 2.08 0 0 0 .676-.285c.195-.106.373-.249.516-.391.178-.178.32-.374.427-.587.124-.214.231-.445.302-.694a3.24 3.24 0 0 0 .107-.818c.018-.232-.018-.463-.107-.677a.67.67 0 0 0-.285-.338.88.88 0 0 0-.427 0c-.177.054-.355.143-.533.232l-.73.427c-.035.018-.053.018-.089.018-.018 0-.053 0-.071-.018-.036-.071-.036-.143 0-.214v-.48a.3.3 0 0 1 0-.249c.018-.089.053-.16.089-.249l1.566-3.541-2.509 1.477c-.036.017-.071.035-.089.035a.14.14 0 0 1-.089-.035c-.035-.054-.035-.143 0-.196v-.498a.4.4 0 0 1 0-.285c0-.053.036-.089.054-.124.035-.036.071-.071.124-.089l3.452-2.011c.017-.018.053-.018.071-.018.035 0 .071 0 .089.018a.36.36 0 0 1 .071.232v.48c.018.089.018.178 0 .267 0 .089-.071.178-.125.284l-1.547 3.488a1.64 1.64 0 0 1 .8-.267c.231-.018.463.053.641.196a1.53 1.53 0 0 1 .391.622c.107.356.16.712.142 1.068 0 .445-.053.907-.177 1.334-.107.409-.267.819-.463 1.192-.178.356-.427.676-.694.979-.249.267-.534.498-.836.694-.32.195-.659.32-1.032.373-.232.036-.48-.018-.712-.142a1.34 1.34 0 0 1-.409-.534c-.089-.249-.125-.534-.125-.801a.53.53 0 0 1 0-.231c.018-.071.072-.142.125-.178l.409-.213c.018-.036.054-.036.071-.036.036 0 .072 0 .089.036.036.035.054.089.072.142z"/></g><g class="D"><path d="M266.04 409.311l51.846-30.051c.569-.338 1.067-.088 1.067.552-.035.356-.142.694-.32 1.014-.195.303-.445.569-.747.747l-51.846 30.015c-.569.339-1.067.107-1.067-.551.035-.338.142-.676.338-.979a2.26 2.26 0 0 1 .729-.747zm0-34.641l11.618-6.725c.587-.356 1.068-.107 1.068.516-.036.373-.142.711-.32 1.014a2.2 2.2 0 0 1-.748.765l-11.618 6.725c-.569.356-1.067.107-1.067-.516.035-.356.142-.712.32-1.014.196-.32.445-.569.747-.765z"/></g><use xlink:href="#J" class="B"/><g class="H E"><use xlink:href="#J"/></g><g class="C"><path d="M268.017 431.355a.85.85 0 0 1 0 .302c-.035.089-.089.143-.178.196l-.355.196c-.018.035-.054.035-.072.035-.035 0-.071 0-.089-.035-.017-.071-.017-.142 0-.214v-7.383l-1.476 2.473c-.054.107-.125.178-.178.178-.018.017-.054.035-.072.035-.035 0-.071-.018-.088-.035l-.214-.285c-.018-.036-.018-.089-.018-.125a.34.34 0 0 1 .018-.124c0-.089.036-.196.089-.285l1.886-3.309a.71.71 0 0 1 .142-.178l.143-.089.338-.213c.035-.018.071-.036.089-.036.035 0 .071.018.089.036.017.035.035.071.035.106s-.018.072-.035.107l-.054 8.647zm3.847-6.834a4.53 4.53 0 0 0 .391-.96c.107-.338.142-.694.142-1.068a1.6 1.6 0 0 0-.284-1.05c-.178-.195-.463-.195-.854 0-.196.125-.374.267-.516.445a3.32 3.32 0 0 0-.374.588 4.19 4.19 0 0 0-.213.676 4.52 4.52 0 0 0-.143.711c-.018.089-.035.196-.089.285-.035.053-.089.107-.142.16l-.392.213h-.142c-.018-.053-.018-.124 0-.177.018-.374.053-.748.142-1.104.107-.409.232-.8.41-1.174a5.73 5.73 0 0 1 .64-1.05c.249-.321.534-.569.872-.782.267-.16.552-.249.854-.267a.95.95 0 0 1 .605.267 1.65 1.65 0 0 1 .391.711c.089.356.125.694.125 1.05a6.2 6.2 0 0 1 0 .818l-.142.748a8.07 8.07 0 0 1-.267.765l-.374.836-1.975 3.932 2.687-1.548c.035-.018.053-.035.089-.035s.053.017.071.035v.214.48c.035.107.035.196 0 .302 0 .036-.018.09-.053.125-.018.036-.054.054-.107.071l-3.772 2.189c-.018.018-.054.035-.089.035-.018 0-.053-.017-.071-.035-.054-.054-.089-.125-.071-.196v-.498c-.018-.089-.018-.178 0-.267.035-.125.088-.249.142-.356l2.509-5.089zm6.938-4.892v1.139 1.139c0 .516-.036 1.049-.125 1.547-.089.516-.231.997-.427 1.477a4.01 4.01 0 0 1-.694 1.192c-.266.338-.605.641-.978.854-.303.196-.659.303-1.015.285-.124 0-.249-.053-.373-.107a1.4 1.4 0 0 1-.302-.267c-.214-.284-.356-.605-.41-.943-.089-.462-.142-.925-.142-1.387v-2.331c0-.534.053-1.05.142-1.566.071-.516.214-1.014.41-1.477a6.11 6.11 0 0 1 .675-1.192 3.67 3.67 0 0 1 1.015-.871 1.74 1.74 0 0 1 .978-.285 1.28 1.28 0 0 1 .392.124.94.94 0 0 1 .302.285c.214.285.356.605.427.943.089.481.143.961.125 1.441zm-3.648 4.431c-.053.587.072 1.174.374 1.672.231.285.587.285 1.05 0s.836-.694 1.032-1.21c.266-.676.391-1.388.373-2.117v-2.26a2.79 2.79 0 0 0-.373-1.69c-.232-.285-.587-.285-1.032 0-.481.285-.854.694-1.05 1.21-.267.676-.391 1.388-.374 2.117v2.278z"/></g><g class="D"><path d="M266.04 450.818l51.846-30.033c.569-.338 1.067-.106 1.067.552a2.42 2.42 0 0 1-.32.996c-.195.303-.445.57-.747.765l-51.846 30.051c-.569.338-1.067.089-1.067-.552.035-.355.142-.711.32-1.014a2.57 2.57 0 0 1 .747-.765zm0-34.641l11.618-6.743c.587-.338 1.068-.089 1.068.552-.036.356-.142.694-.32.996-.178.32-.445.57-.748.765l-11.618 6.743c-.569.339-1.067.089-1.067-.533.035-.356.142-.712.32-1.014.196-.303.445-.57.747-.766z"/></g><path d="M336.942 362.857c-.053 0-.107-.018-.16-.036-.053-.035-.089-.071-.124-.106s-.072-.072-.089-.125c-.018-.036-.018-.089-.018-.142s0-.089.018-.143a.44.44 0 0 1 .089-.106l5.996-4.786 6.031-6.904 6.138-.907 5.907-1.299 6.067-7.152 5.907 1.05 5.907-9.466 6.085.089 5.907-5.249c.035-.035.071-.053.124-.088.036-.018.089-.018.143-.018s.089 0 .142.018c.053.035.089.053.125.088.071.072.106.161.106.267a.35.35 0 0 1-.106.249l-6.103 5.445-5.907-.089-6.014 9.536-6.031-1.067-5.907 7.01-6.138 1.388-5.907.854-5.907 6.743-6.05 4.946a.5.5 0 0 1-.231 0z" class="B"/><g class="C"><path d="M339.314 342.643l.16-.142.16-.107c.267-.142.552-.213.854-.213a1.12 1.12 0 0 1 .73.267 1.82 1.82 0 0 1 .462.747 3.43 3.43 0 0 1 .16 1.192 6.14 6.14 0 0 1-.16 1.388 7.15 7.15 0 0 1-.462 1.316c-.196.392-.445.765-.73 1.104a3.68 3.68 0 0 1-.907.764c-.285.178-.587.267-.907.285-.267-.018-.516-.107-.73-.285-.213-.249-.356-.551-.409-.871-.125-.392-.178-.783-.178-1.192-.018-.249-.018-.499 0-.765 0-.249.089-.481.142-.712l.214-.694.231-.641 1.601-4.554.089-.214c.036-.089.089-.16.178-.213l.498-.267h.125c.036.053.036.107 0 .178.018.035.018.071 0 .106.018.036.018.054 0 .072l-1.121 3.451zm-1.121 3.843c0 .232.036.481.107.694.053.196.142.356.285.498.124.107.284.178.462.196.196-.018.409-.071.587-.178.232-.142.427-.32.605-.516a4.58 4.58 0 0 0 .463-.729c.107-.267.213-.534.267-.819.071-.267.107-.551.107-.818a2.39 2.39 0 0 0-.107-.712c-.054-.178-.142-.356-.267-.48-.142-.125-.302-.196-.463-.196a1.2 1.2 0 0 0-.605.178 2.05 2.05 0 0 0-.587.516 2.58 2.58 0 0 0-.462.712 4.43 4.43 0 0 0-.285.818c-.071.267-.107.552-.107.836zm7.199-6.012a5.12 5.12 0 0 0 .409-.978c.089-.356.125-.712.125-1.068.035-.355-.071-.729-.285-1.032-.16-.213-.462-.213-.854 0-.196.107-.373.267-.533.427a3.83 3.83 0 0 0-.339.588c-.106.213-.178.444-.231.676 0 .231-.107.462-.142.711a.8.8 0 0 1-.089.267c-.036.071-.071.125-.142.16l-.392.249c-.018.018-.053.018-.071.018-.036 0-.054 0-.071-.018a.16.16 0 0 1 0-.178c0-.373.053-.747.142-1.103.089-.391.231-.783.392-1.156.177-.392.391-.747.658-1.068a2.81 2.81 0 0 1 .872-.782c.249-.161.533-.249.836-.249.124 0 .231.017.338.071.107.035.196.106.284.195.178.196.303.427.374.694a4.18 4.18 0 0 1 .125 1.068c.017.267.017.533 0 .783-.018.266-.071.516-.143.765l-.249.765-.391.818-1.957 3.95 2.686-1.548c.018-.018.054-.036.072-.036.035 0 .071.018.089.036.053.053.071.142.071.214v.498c0 .089-.036.195-.071.284a.49.49 0 0 1-.161.214l-3.789 2.171h-.178c-.018-.072-.018-.161 0-.232v-.48-.285c.053-.107.089-.231.16-.338l2.455-5.071zm5.981-7.936c.018-.018.054-.036.071-.036.036 0 .072.018.09.036.017.035.053.071.053.106.018.036.018.071.018.107v.57.266.321l-1.958 8.86c-.017.107-.053.196-.088.285s-.089.142-.178.195l-.392.232c-.018.017-.053.017-.071.017-.035 0-.053 0-.071-.017-.036-.054-.036-.125 0-.196-.018-.036-.018-.071 0-.107l1.939-8.86-2.953 1.655c-.018.017-.054.035-.071.035-.036 0-.072-.018-.089-.035-.054-.054-.071-.143-.071-.214v-.48c0-.107.035-.214.071-.303a.48.48 0 0 1 .16-.213l3.54-2.224z"/></g><g class="D"><path d="M338.034 367.677l51.846-30.051c.587-.356 1.05-.089 1.05.534-.018.356-.125.712-.321 1.014-.178.303-.427.569-.729.765l-51.846 30.033c-.587.338-1.05.089-1.05-.552.018-.355.125-.693.321-.996.178-.302.427-.569.729-.747zm0-34.658l11.618-6.743c.587-.338 1.068-.107 1.068.534-.018.356-.142.712-.32 1.014-.196.302-.445.569-.748.765l-11.618 6.726c-.587.338-1.05.106-1.05-.534a2.12 2.12 0 0 1 .321-1.014 2.1 2.1 0 0 1 .729-.748z"/></g><path d="M336.945 404.419h-.196c-.071-.072-.142-.143-.16-.25a.44.44 0 0 1 .036-.266l6.138-10.053 6.174 1.139 5.8-1.602 5.996-7.294 5.907-1.477 6.049-10.817 6.209 1.796 5.818-1.103 5.907-5.248c.036-.054.072-.071.125-.107.053-.018.089-.035.142-.035s.107.017.16.035.089.053.125.089c.035.053.071.089.071.142.018.054.035.107.018.161 0 .053-.018.088-.054.142-.018.035-.053.089-.106.107l-6.067 5.408h-.089l-6.103 1.157-5.729-1.673-5.907 10.569-6.031 1.476-5.996 7.313h-.107l-6.085 1.672h-.089l-5.747-1.067-5.907 9.608c-.035.053-.071.106-.124.124-.054.036-.125.054-.178.054z" class="B"/><g class="H E"><path d="M336.941 404.419h-.196c-.071-.072-.142-.143-.16-.25a.44.44 0 0 1 .036-.266l6.138-10.053 6.174 1.139 5.8-1.602 5.996-7.294 5.907-1.477 6.049-10.817 6.209 1.796 5.818-1.103 5.907-5.248c.036-.054.072-.071.125-.107.053-.018.089-.035.142-.035s.107.017.16.035.089.053.125.089c.036.053.071.089.071.142.018.054.036.107.018.161 0 .053-.018.088-.054.142-.017.035-.053.089-.106.107l-6.067 5.408h-.089l-6.103 1.157-5.729-1.673-5.907 10.569-6.031 1.476-5.996 7.313h-.107l-6.085 1.672h-.089l-5.747-1.067-5.907 9.608c-.035.053-.071.106-.124.124a.34.34 0 0 1-.178.054z"/></g><g class="C"><path d="M339.723 386.998l-.125.089h-.107c-.249.16-.533.249-.818.267-.249.018-.516-.071-.712-.213a1.63 1.63 0 0 1-.427-.659c-.142-.409-.213-.836-.195-1.263 0-.463.071-.925.178-1.37.124-.445.266-.872.48-1.281a5.85 5.85 0 0 1 .712-1.067c.231-.285.516-.534.836-.73a1.84 1.84 0 0 1 .907-.302.98.98 0 0 1 .694.284c.214.214.374.463.445.748.107.391.16.783.142 1.192.036.231.036.48 0 .711 0 .249-.107.516-.16.783l-.249.747-.213.659-1.602 4.554-.107.214c0 .053-.035.089-.053.125-.035.035-.071.071-.125.088l-.498.303c-.018 0-.035.018-.053.018s-.053-.018-.053-.018c-.036-.071-.036-.142 0-.196v-.107-.088l1.103-3.488zm1.138-3.825c0-.249-.035-.48-.106-.729-.054-.143-.143-.285-.267-.392-.054-.053-.125-.089-.196-.124s-.16-.036-.231-.036c-.196 0-.392.071-.57.16-.195.125-.391.285-.551.48a2.32 2.32 0 0 0-.427.659c-.249.498-.392 1.067-.374 1.619 0 .249.018.498.089.747a.92.92 0 0 0 .285.445.62.62 0 0 0 .427.178c.196 0 .391-.053.551-.178.214-.125.41-.285.57-.463.16-.213.302-.427.427-.658.124-.249.213-.516.284-.783a4.03 4.03 0 0 0 .089-.925zm2.275 2.812c.017.125.071.249.124.374.054.107.125.178.231.249a.79.79 0 0 0 .41 0c.249-.053.48-.16.694-.285.177-.107.355-.249.516-.409s.302-.356.427-.551c.124-.232.213-.463.284-.712.089-.267.107-.552.107-.819a1.57 1.57 0 0 0-.107-.693c-.053-.125-.142-.25-.267-.321a.88.88 0 0 0-.427 0c-.195.054-.373.143-.533.232l-.748.427c-.018.017-.053.035-.071.035-.035 0-.071-.018-.089-.035-.018-.036-.018-.072-.018-.107s0-.071.018-.107v-.48a.58.58 0 0 1 0-.249l.107-.25 1.583-3.54-2.544 1.477a.14.14 0 0 1-.089.035c-.018 0-.053-.018-.071-.035-.053-.054-.089-.143-.071-.214v-.498c0-.107.018-.196.071-.285.036-.089.089-.16.16-.213l3.469-1.993c.018-.018.054-.036.09-.036.017 0 .053.018.071.036.053.053.071.125.071.214v.48c.018.089.018.178 0 .267l-.107.284-1.566 3.488c.25-.16.516-.249.801-.267a.87.87 0 0 1 .623.196 1.37 1.37 0 0 1 .409.64c.107.338.16.694.16 1.05 0 .445-.071.907-.178 1.334-.124.427-.284.819-.48 1.21-.196.338-.427.676-.694.961-.249.267-.534.498-.836.694-.32.195-.659.32-1.014.373-.25.036-.498-.017-.712-.142a1.57 1.57 0 0 1-.427-.534c-.089-.249-.125-.516-.125-.783-.017-.088-.017-.16 0-.249.036-.071.089-.124.143-.16l.409-.249h.142c.018.036.036.053.036.071a.16.16 0 0 1 .018.089z"/></g><g class="D"><path d="M338.034 409.186L389.88 379.1c.587-.338 1.05-.107 1.05.551-.018.356-.125.694-.321.997-.178.302-.427.569-.729.747l-51.846 30.068c-.587.338-1.05.089-1.05-.551.018-.356.143-.694.321-.997a2.21 2.21 0 0 1 .729-.729zm0-34.641l11.618-6.761c.587-.338 1.068-.089 1.068.551-.018.356-.142.712-.32 1.015-.196.302-.445.569-.748.764l-11.618 6.726c-.587.338-1.05.107-1.05-.534.018-.356.125-.712.303-1.014.196-.302.445-.569.747-.747z"/></g><g class="B"><path d="M414.925 295.495a6.74 6.74 0 0 1 3.309-1.21c1.192-.089 2.384.125 3.469.641l-6.832 18.432.054-17.863z"/><path d="M408.094 302.88c1.619-3.007 3.967-5.551 6.832-7.384v17.917l-6.832-10.533z"/><path d="M403.844 314.266c.765-4.003 2.206-7.864 4.252-11.387l6.832 10.533-11.084.854z"/></g><path d="M408.096 302.88c-2.046 3.522-3.487 7.383-4.252 11.386l11.084-.853v-17.917c-2.864 1.833-5.213 4.377-6.832 7.384z" class="E H"/><g class="B"><path d="M421.703 294.926c1.121.729 2.082 1.672 2.811 2.793a9.6 9.6 0 0 1 1.424 3.701l-11.067 11.938 6.832-18.432zm-17.863 30.423c-.391-1.708-.587-3.469-.569-5.213a31.17 31.17 0 0 1 .569-5.907l11.084-.854-11.084 11.974zm22.152-12.79c-.747 4.021-2.188 7.864-4.234 11.404l-6.832-10.55 11.066-.854z"/><path d="M414.926 331.346a6.89 6.89 0 0 1-3.345 1.175c-1.21.089-2.402-.143-3.487-.676l6.832-18.433v17.934z"/><path d="M403.844 325.35l11.084-11.938-6.832 18.433a9.56 9.56 0 0 1-2.811-2.794c-.73-1.121-1.21-2.384-1.441-3.701zm22.148-23.858c.392 1.708.588 3.452.57 5.213 0 1.975-.196 3.95-.57 5.907l-11.066.854 11.066-11.974z"/><path d="M421.703 323.963c-1.619 2.989-3.985 5.533-6.832 7.383v-17.934l6.832 10.551z"/></g><path d="M409.13 340.492l11.6-6.743c.588-.338 1.068-.107 1.068.533-.036.356-.143.712-.321 1.015s-.444.569-.747.765l-11.6 6.725c-.587.338-1.068.107-1.068-.534.018-.356.143-.694.321-1.014.178-.302.445-.569.747-.747z" class="C"/><g class="D"><path d="M406.546 348.907l16.76-9.678c.587-.338 1.05-.107 1.05.551-.018.356-.125.694-.321.997-.178.302-.427.569-.729.747l-16.76 9.732c-.587.338-1.05.089-1.05-.534.018-.373.125-.729.303-1.032.195-.32.445-.587.747-.783zm0 6.957l16.76-9.732c.587-.339 1.05-.09 1.05.551-.018.356-.125.712-.321 1.014-.178.303-.427.552-.729.748l-16.76 9.714c-.587.338-1.05.107-1.05-.534a2.07 2.07 0 0 1 .32-1.014c.178-.302.428-.569.73-.747zm0 6.992l16.76-9.715c.587-.338 1.05-.089 1.05.552a2.12 2.12 0 0 1-.321 1.014c-.178.302-.427.552-.729.747l-16.76 9.697c-.587.356-1.05.107-1.05-.516.018-.374.125-.712.32-1.014a2.15 2.15 0 0 1 .73-.765z"/></g><g class="B"><path d="M456.918 271.157c.979-.694 2.135-1.103 3.345-1.192s2.402.16 3.487.676l-6.832 18.379v-17.863z"/><path d="M450.066 278.54a20.52 20.52 0 0 1 6.85-7.384v17.863l-6.85-10.479z"/><path d="M445.848 289.928c.747-4.003 2.188-7.864 4.216-11.387l6.85 10.533-11.066.854z"/><path d="M463.75 270.641c1.121.729 2.082 1.69 2.811 2.811a9.6 9.6 0 0 1 1.424 3.701l-11.067 11.92 6.832-18.432zm-17.902 30.37a22.31 22.31 0 0 1-.57-5.213c0-1.975.196-3.968.57-5.907l11.066-.854-11.066 11.974z"/><path d="M467.985 288.219c-.748 4.021-2.189 7.864-4.235 11.404l-6.832-10.603 11.067-.801z"/><path d="M456.916 307.007c-.996.676-2.153 1.086-3.362 1.192a6.78 6.78 0 0 1-3.488-.676l6.85-18.503v17.987z"/><path d="M445.848 301.013l11.066-11.939-6.85 18.45c-1.103-.729-2.064-1.69-2.793-2.811s-1.21-2.384-1.423-3.7z"/></g><path d="M450.065 278.54a36.16 36.16 0 0 0-4.217 11.387c-.374 1.957-.57 3.932-.57 5.907a22.31 22.31 0 0 0 .57 5.213c.213 1.334.694 2.58 1.423 3.701s1.691 2.081 2.794 2.811l6.849-18.54v-17.863a20.51 20.51 0 0 0-6.849 7.384z" class="E H"/><g class="B"><path d="M467.985 277.207a23.33 23.33 0 0 1 .587 5.213c-.018 1.975-.214 3.968-.587 5.907l-11.067.854 11.067-11.974z"/><path d="M463.75 299.623a20.3 20.3 0 0 1-6.832 7.384V289.02l6.832 10.603z"/></g><path d="M451.122 316.242l11.618-6.743c.588-.338 1.068-.107 1.068.533-.036.356-.142.712-.32 1.015-.196.302-.445.569-.748.765l-11.618 6.743c-.605.338-1.067.089-1.067-.552a2.11 2.11 0 0 1 .32-1.014c.178-.302.427-.569.747-.747z" class="C"/><g class="D"><path d="M448.55 324.676l16.724-9.732c.588-.338 1.068-.089 1.068.552-.018.355-.142.711-.32 1.014s-.445.569-.748.765l-16.724 9.696c-.587.338-1.085.107-1.085-.533a2.36 2.36 0 0 1 .338-1.015c.178-.302.445-.569.747-.747zm0 6.936l16.724-9.714c.588-.338 1.068-.089 1.068.533-.018.356-.142.712-.32 1.014-.178.321-.445.57-.748.766l-16.724 9.696c-.587.356-1.085.107-1.085-.534.035-.356.142-.693.338-1.014.178-.302.445-.569.747-.747zm0 6.94l16.724-9.661c.588-.338 1.068-.106 1.068.534-.018.356-.142.712-.32 1.014a2.15 2.15 0 0 1-.748.748l-16.724 9.732c-.587.338-1.085.089-1.085-.552.018-.373.142-.729.32-1.032a2.31 2.31 0 0 1 .765-.783z"/></g><path d="M456.687 511.526c-.054-3.095-.855-6.138-2.314-8.878s-3.54-5.106-6.084-6.885c-2.384-1.477-4.591-1.69-6.227-.854-9.875 4.964-79.299 49.479-83.747 51.686-.481.302-.872.729-1.139 1.227a3.23 3.23 0 0 0-.338 1.637c.036 1.566.427 3.096 1.157 4.466.729 1.388 1.779 2.562 3.06 3.469a3.25 3.25 0 0 0 1.53.641 3.27 3.27 0 0 0 1.655-.232c7.027-3.878 75.562-33.075 89.564-40.583 1.744-.89 2.794-2.847 2.883-5.694z" class="B"/><path opacity=".1" d="M453.96 501.937c-1.37-2.491-3.327-4.608-5.675-6.174-2.384-1.477-4.573-1.69-6.21-.872l-.195.107c-9.021 4.626-60.707 37.577-78.089 48.305h-.107l-.712.445-.213.125-.392.231-.48.285c-1.833 1.121-3.078 1.85-3.559 2.081-.142.089-.266.214-.391.321-.338.338-.587.729-.765 1.174s-.249.907-.231 1.37c-.036.338-.036.658 0 .996v.391c0 .143 0 .41.106.605l.143.499c0 .177.107.356.178.551.053.143.089.285.16.427l96.432-50.867z" class="E"/><path d="M361.068 557.412c-1.281-.889-2.313-2.064-3.06-3.434a10.03 10.03 0 0 1-1.156-4.465c.089-2.847 2.135-3.932 4.572-2.438a10.08 10.08 0 0 1 3.025 3.452c.711 1.388 1.103 2.9 1.138 4.448 0 2.811-2.099 3.95-4.519 2.437z" class="B"/><path d="M340.328 559.333c.018 1.192.32 2.366.89 3.416a7.5 7.5 0 0 0 2.348 2.651 2.3 2.3 0 0 0 1.157.48c.427.071.854.018 1.263-.142l16.795-8.949c.356-.232.641-.552.837-.943.178-.392.267-.819.231-1.228-.018-1.21-.338-2.366-.889-3.434-.57-1.05-1.371-1.957-2.349-2.651-.338-.249-.747-.427-1.157-.48a2.53 2.53 0 0 0-1.263.178l-16.796 8.931a2.63 2.63 0 0 0-.818.943c-.196.374-.285.801-.249 1.228z" class="G"/><path d="M341.413 557.127c-.356.249-.64.569-.836.96a2.34 2.34 0 0 0-.249 1.246c-.018.889.16 1.761.498 2.58l21.671-11.512a6.67 6.67 0 0 0-1.868-1.868c-.338-.249-.748-.427-1.175-.48-.409-.054-.854.017-1.245.178l-16.796 8.931v-.035z" class="F"/><path d="M361.872 574.242c0-10.764-7.117-21.528-21.35-29.73-28.432-16.422-74.548-16.422-102.998 0-14.216 8.202-21.333 18.966-21.333 29.73v19.82c0 10.765 7.117 21.529 21.333 29.731 28.45 16.422 74.566 16.422 102.998 0 14.233-8.202 21.35-18.966 21.35-29.731v-19.82zm-120.807-23.627c12.685-7.384 29.73-11.37 47.967-11.37s35.281 4.021 47.985 11.37c11.493 6.618 17.81 15.016 17.81 23.627s-6.317 17.009-17.81 23.628c-12.704 7.384-29.748 11.369-47.985 11.369s-35.282-4.057-47.967-11.369c-11.494-6.636-17.828-15.034-17.828-23.628s6.334-17.009 17.828-23.627z" class="B"/><path d="M237.521 603.973c28.449 16.422 74.566 16.422 102.997 0 28.45-16.422 28.45-43.039 0-59.461-28.431-16.422-74.548-16.422-102.997 0-28.432 16.422-28.468 43.039 0 59.461zm-14.287-29.731c0-8.611 6.316-17.009 17.809-23.627 12.704-7.384 29.731-11.37 47.967-11.37s35.282 4.021 48.003 11.37c11.476 6.618 17.81 15.016 17.81 23.627s-6.334 17.009-17.81 23.628c-12.721 7.384-29.766 11.369-48.003 11.369s-35.263-4.057-47.967-11.369c-11.475-6.619-17.809-14.981-17.809-23.628z" class="H I"/><use xlink:href="#K" class="B"/><use xlink:href="#K" opacity=".1" class="E"/><path opacity=".4" d="M241.047 559.564c12.703-7.383 29.73-11.369 47.967-11.369s35.281 4.057 48.003 11.369c9.465 5.48 15.408 12.17 17.222 19.198-1.814 7.01-7.757 13.682-17.222 19.198-12.722 7.383-29.766 11.386-48.003 11.386s-35.264-4.056-47.967-11.386c-9.483-5.48-15.444-12.152-17.223-19.198 1.779-7.028 7.74-13.718 17.223-19.198z" class="I"/><path opacity=".1" d="M271.863 615.128v19.803c-12.046-1.495-23.699-5.267-34.339-11.138-14.216-8.202-21.333-18.966-21.333-29.748v-19.803c0-2.206.303-4.394.872-6.512-3.451 12.811 3.363 26.368 20.443 36.243 10.64 5.853 22.311 9.643 34.357 11.155z" class="E"/><path d="M619.016 494.071c.872.356 1.032 2.011 1.103 5.302 0 2.509.463 6.868-2.455 7.669s-7.206.267-9.021-2.118c-2.277-2.953-3.79-5.604-7.045-9.269-2.829-3.149-5.907-6.121-6.957-10.497-.961-3.95 0-5.64 2.669-6.726 3.718-1.477 9.394 3.772 12.276 4.644 2.473.747 8.523 10.64 9.43 10.995z" class="F"/><path d="M619.088 491.029l-.089 4.039c-1.548.925-3.309 1.423-5.106 1.423-1.815 0-3.576-.498-5.124-1.423-.178-.392-.925-5.8-.925-5.8l11.244 1.761z" class="J"/><path d="M585.752 516.651s1.085 3.54 1.637 6.618c.444 2.456 1.067 6.566.178 8.381-.908 1.814-4.27 2.953-9.448 2.775-3.345-.107-8.611 2.046-12.259 3.968-3.629 1.921-11.44 2.633-15.336 2.081-4.591-.64-9.305-3.416-9.999-5.337s.32-3.897 11.28-8.274c.106 0 15.212-4.572 20.585-10.248l13.362.036z" class="F"/><path d="M585.858 512.273l-.106 4.715c-.036 1.743-2.1 4.216-7.384 3.914-3.683-.214-6.245-1.264-6.014-4.288l.107-4.43 13.397.089z" class="J"/><path d="M622.934 437.439a111.38 111.38 0 0 0-4.306-21.155s1.85-18.13 2.953-35.353c1.175-18.574 2.26-28.146-1.405-54.994 0 0-56.988-5.125-58.536 16.368-1.548 21.475.658 76.292 1.157 85.757s1.921 17.863 3.54 33.218c1.601 15.354 6.192 50.956 6.192 50.956 2.046 1.103 4.341 1.673 6.672 1.673s4.626-.57 6.69-1.673c0 0 5.177-42.914 4.981-53.803a93.57 93.57 0 0 0-3.594-23.894l2.954-33.111 2.953-29.535 1.299-.605 1.228 36.082c.498 9.519 1.779 18.575 4.11 36.171 2.046 15.302 8.309 47.79 8.309 47.79 6.778 3.86 10.959-.232 10.959-.232s5.391-40.405 3.844-53.66z" class="B"/><path d="M593.117 371.965s14.767-6.85 22.151-13.149c0 0-6.974 9.377-15.959 13.398l-3.879 32.328-1.085-32.595-1.228.018z" class="F"/><path d="M582.898 249.361l2.224 19.678 18.575-.925-2.064-22.969-18.735 4.216z" class="J"/><path d="M610.729 256.904c6.904-.338 10.427.712 13.54 6.69 3.114 5.96 4.306 23.788 5.409 32.986 1.085 9.199 1.334 15.675-2.438 16.618-3.789.943-18.521 1.352-18.521 1.352l2.01-57.646z" class="G"/><path d="M622.385 267.081c-.996-5.48-8.237-11.28-15.016-10.177l-4.591.783c-.818 3.309-9.892 5.373-18.556 3.327-2.616.694-11.209 2.313-13.398 3.024-6.209 2.082-8.86 8.202-9.75 28.503l.249 55.155c15.373 6.512 31.51 6.672 40.477 4.929 18.664-3.63 21.066-11.281 21.066-11.281l-2.776-21.047s4.573-40.744 2.295-53.216z" class="C"/><path d="M583.631 255.855l.142 1.246c3.755.782 7.651.782 11.405 0 6.031-1.353 7.259-3.043 7.259-3.043l-.124-1.476s1.476-.552 2.277 1.743c.356.925.658 1.868.89 2.829 0 0 .694 4.234-6.405 6.387a21.7 21.7 0 0 1-9.057.908c-3.06-.321-6.013-1.299-8.664-2.829l-2.776.587s2.402-5.551 3.132-6.672a1.74 1.74 0 0 1 .729-.747c.303-.178.658-.249 1.014-.232l.178 1.299z" class="G"/><path d="M526.91 234.754l-36.848 19.233 18.309 50.049 34.374-19.251-15.835-50.031z" class="C"/><path d="M525.219 239.646l-30.922 16.138 16.226 43.039 28.841-16.156-14.145-43.021z" fill="#f5f5f5"/><path opacity=".15" d="M518.694 244.308l-.605-1.477c-.338-.783-2.954-.338-5.747 1.121l-5.427 2.811c-2.846 1.477-4.892 3.345-4.554 4.181l.605 1.477 15.728-8.113z" class="E"/><g class="B"><path d="M518.085 238.169c-.178-.533-1.317-.444-2.491.196l-2.117 1.157s-1.317-3.31-6.227-1.014c-4.893 2.277-3.772 6.12-3.772 6.12l-2.26 1.246c-1.263.693-2.152 1.672-1.992 2.206l.267.978 18.983-9.892-.391-.997z"/><use xlink:href="#L"/></g><use xlink:href="#L" class="E H"/><path d="M519.046 244.378l-.587-1.476c-.338-.854-2.954-.356-5.747 1.12l-5.444 2.811c-2.829 1.477-4.876 3.328-4.555 4.182l.605 1.476 15.728-8.113z" class="B"/><g class="J"><path d="M570.859 264.039c-8.505.747-12.117 2.295-18.504 13.807-6.939 12.507-20.265 35.103-21.937 37.968-2.349 3.985-2.794 10.017-.783 13.664 1.904 3.416 7.917 4.964 14.767-2.722 8.113-9.163 23.201-31.528 23.201-31.528s12.721-16.884 3.256-31.189z"/><path d="M533.137 332.093c-6.529-.783-21.741-21.439-26.083-28.182a47.83 47.83 0 0 0-13.201-13.931c-6.886-5.089-5.907-12.935-2.883-20.123 1.05-2.473 4.591-.854 4.591-.854l1.227 3.398 2.171 5.907c1.477 1.37 2.295 1.815 2.384 1.406.196-.765-1.068-3.95-1.032-7.242 0-3.985 2.829-1.37 3.647 0 1.157 2.1 2.135 4.306 2.954 6.566 1.388 3.558.836 7.152 2.509 9.59 1.69 2.419 24.41 24.197 24.41 24.197l-.694 19.268z"/></g><path d="M572.456 263.595c-5.142-.124-11.334.712-16.138 6.939s-24.001 40.103-24.001 40.103l-10.764-9.661a18.8 18.8 0 0 0-8.291 11.672 116.79 116.79 0 0 0 9.75 13.29c4.554 5 9.643 8.469 13.806 6.921 4.164-1.53 8.416-4.821 17.383-17.311 8.949-12.49 18.753-27.222 18.753-27.222s6.191-14.376-.498-24.731z" class="G"/><path d="M569.805 225.287s-4.644 7.028-4.11 7.722 3.95 1.317 3.95 1.317l.16-9.039z" fill="#f28f8f"/><path d="M571.979 229.807c-1.103 0-2.17-.338-3.078-.943s-1.619-1.477-2.046-2.491c-.409-1.014-.516-2.117-.302-3.202.213-1.068.747-2.046 1.512-2.829.783-.765 1.761-1.299 2.847-1.513 1.067-.213 2.188-.106 3.202.321s1.868 1.138 2.473 2.046a5.58 5.58 0 0 1 .926 3.078c0 1.477-.588 2.882-1.62 3.914-1.049 1.032-2.455 1.619-3.914 1.619zm0-9.839a4.41 4.41 0 0 0-2.402.712c-.711.48-1.263 1.156-1.583 1.939a4.27 4.27 0 0 0-.267 2.491c.178.836.587 1.601 1.192 2.206.587.605 1.37 1.014 2.206 1.192.837.16 1.69.089 2.491-.249.783-.32 1.459-.872 1.94-1.583.462-.712.729-1.548.729-2.402 0-1.139-.463-2.224-1.263-3.043a4.33 4.33 0 0 0-3.043-1.263z" class="F"/><path d="M582.672 205.806c-9.394 1.975-12.116 6.12-13.006 21.012-.907 15.604.694 20.479 2.723 22.578 1.387 1.477 9.074 1.69 12.934.605 4.858-1.334 15.817-5.213 20.942-13.059 6.049-9.199 7.614-21.724 1.174-26.848-9.074-7.206-20.924-5.107-24.767-4.288z" class="J"/><path d="M583.029 250.447l-.445-2.865c-2.953 1.584-6.28 2.331-9.607 2.171 1.779.871 6.44 1.138 10.052.694z" fill="#f28f8f"/><g class="F"><path d="M566.977 223.119l16.688 2.171-.676 1.156-16.012-2.082v-1.245z"/><path d="M568.114 211.838c.712.089 1.423.035 2.117-.143-.267.694-.302 1.442-.089 2.153a3.27 3.27 0 0 0 1.228 1.762c.605.409 1.316.676 2.046.782a5.01 5.01 0 0 0 2.17-.213c-.533.89-.693 1.939-.462 2.954a4.69 4.69 0 0 0 1.797 2.633c.889.64 1.975.943 3.06.871.107 2.189.125 4.324 2.456 5.302 0 0 1.476-5.764 6.351-5.035s5.534 6.957 2.455 10.747c-3.06 3.807-5.906 2.348-5.906 2.33.284.143.391 1.993.48 2.331.32 1.086.729 2.153 1.245 3.15 1.068 2.028 2.58 3.789 4.431 5.141a10.97 10.97 0 0 0 4.163 2.224c1.53.427 3.131.498 4.697.232 1.388-.321 2.687-.961 3.807-1.851 1.104-.889 2.011-2.01 2.616-3.309a5.81 5.81 0 0 1 1.032-1.868c.729-.516 1.548-.872 2.402-1.032a6.95 6.95 0 0 0 2.58-1.548 7.26 7.26 0 0 0 1.708-2.491c.373-.943.533-1.957.498-2.971-.054-1.032-.32-2.011-.801-2.918 1.157-.303 2.206-.908 3.043-1.762.818-.871 1.405-1.939 1.654-3.113.249-1.157.178-2.366-.213-3.505a6.4 6.4 0 0 0-2.011-2.865 7.97 7.97 0 0 0 3.007-3.665c.587-1.512.694-3.167.303-4.732-.392-1.281-1.104-2.456-2.082-3.381-.961-.925-2.153-1.601-3.47-1.939-1.903-.534-1.156-.836-1.743-2.705-.409-1.263-1.157-2.402-2.189-3.256-.907-.711-1.957-1.192-3.078-1.405a7.23 7.23 0 0 0-3.38.213 6.44 6.44 0 0 0-1.637-3.184 6.47 6.47 0 0 0-3.06-1.851 6.33 6.33 0 0 0-3.309-.142c-.783.196-2.367.925-2.669 1.672-.996-.978-1.317-2.259-2.509-3.131-.818-.605-1.744-1.032-2.74-1.245s-2.01-.214-3.007-.018c-.996.213-1.939.64-2.757 1.245-.801.605-1.495 1.37-1.975 2.242a9.12 9.12 0 0 0-2.99-2.064 9.13 9.13 0 0 0-3.576-.676c-1.227.053-2.419.409-3.469 1.05s-1.904 1.53-2.509 2.597a6.1 6.1 0 0 0-.658 3.541c.16 1.21.658 2.366 1.459 3.292-1.53.587-2.811 1.69-3.63 3.131-.409.765-.569 1.654-.48 2.526s.445 1.691.996 2.367a3.78 3.78 0 0 0 1.833 1.37c.249.071.498.124.765.16z"/><path d="M582.346 231.177l.16-6.53c-.872-.018-1.708.303-2.331.908-.623.587-.996 1.405-1.014 2.277s.302 1.708.889 2.331c.605.622 1.424.996 2.296 1.014z"/></g><use xlink:href="#M" class="B"/><use xlink:href="#M" opacity=".2" class="E"/><use xlink:href="#N" class="B"/><use xlink:href="#N" opacity=".7" class="E"/><path d="M721.727 61.456v-8.82l-7.332 31.654.012 8.815 7.32-31.649z" class="B"/><path opacity=".7" d="M721.727 61.456v-8.82l-7.332 31.654.012 8.815 7.32-31.649z" class="E"/><use xlink:href="#O" class="B"/><use xlink:href="#O" opacity=".6" class="E"/><path d="M681.991 137.363v-36.007l-46.569-3.362v36.013l46.569 3.356z" class="B"/><path opacity=".8" d="M681.991 137.363v-36.007l-46.569-3.362v36.013l46.569 3.356z" class="E"/><use xlink:href="#P" class="B"/><use xlink:href="#P" opacity=".8" class="I"/><path d="M738.09 112.514v38.347l46.876.569v-38.352l-46.876-.564z" class="B"/><path opacity=".6" d="M738.09 112.514v38.347l46.876.569v-38.352l-46.876-.564z" class="I"/><use xlink:href="#Q" class="B"/><use xlink:href="#Q" opacity=".6" class="I"/><path d="M738.118 129.594h-56.266v44.88h56.266v-44.88z" class="D"/><path d="M690.081 143.458c-10.988-7.526-10.988-19.736 0-27.261s28.816-7.526 39.806 0 10.974 19.735 0 27.261-28.816 7.526-39.806 0z" class="L"/><g class="G"><path d="M738.084 150.861c-.143 4.807-2.903 23.457-8.201 27.106l33.171 8.834c14.517-9.919 21.599-21.37 21.947-35.405l-46.917-.535z"/><path d="M784.967 121.486v29.947l-21.951 35.404V156.91l21.951-35.424z"/></g><path d="M738.084 120.916c-.143 4.806-2.903 9.574-8.201 13.241l33.171 22.718c14.517-9.919 21.599-21.37 21.947-35.409l-46.917-.55z" class="C"/><path d="M763.011 156.91v29.927l-33.171-22.713.045-29.966 33.126 22.752z" class="F"/><path d="M763.006 166.361l-31.092 12.794v20.475l31.092-12.794v-20.475z" class="B"/><path opacity=".2" d="M763.006 166.361l-31.092 12.794v20.475l31.092-12.794v-20.475z" class="E"/><g class="B"><path d="M718.199 148.418l13.721 30.734c10.921-2.053 21.447-6.382 31.092-12.794l-33.171-22.678c-3.621 2.359-7.562 3.959-11.642 4.738z"/><path d="M718.188 148.42v9.33l13.733 41.879v-20.475l-13.733-30.734z"/></g><path opacity=".4" d="M718.188 148.42v9.33l13.733 41.879v-20.475l-13.733-30.734z" class="E"/><use xlink:href="#R" class="B"/><use xlink:href="#R" opacity=".5" class="E"/><use xlink:href="#S" class="B"/><use xlink:href="#S" class="E H"/><path d="M757.164 355.435c-10.592 6.116-19.172 20.985-19.172 33.204s8.58 17.18 19.172 11.07 19.172-20.985 19.172-33.204-8.586-17.187-19.172-11.07zm-1.62 34.778a9.1 9.1 0 0 1-4.343 1.388c-3.719 0-4.124-4.39-4.124-6.276 0-7.371 5.392-16.702 11.774-20.387 1.303-.826 2.796-1.304 4.337-1.388 3.725 0 4.124 4.389 4.124 6.275-.034 7.365-5.419 16.702-11.768 20.388z" class="C"/><path d="M763.684 363.591a4.3 4.3 0 0 0-.532-.04 7.55 7.55 0 0 0-2.709.604c.085.596.127 1.198.126 1.8 0 7.364-5.392 16.702-11.774 20.381-.521.302-1.065.564-1.627.783.122 1.11.514 2.172 1.142 3.095.326.447.757.807 1.255 1.049s1.048.358 1.601.339a9.02 9.02 0 0 0 4.343-1.388c6.382-3.686 11.767-13.023 11.767-20.388 0-1.793-.365-5.837-3.592-6.235z" class="F"/><g class="G"><path d="M770.687 354.081l-9.509-5.492c-3.487-2.039-8.295-1.76-13.607 1.281-10.626 6.117-19.173 20.986-19.173 33.205 0 6.043 2.099 10.3 5.499 12.332l.093.066h.053l9.377 5.413h.047c-1.632-1.017-2.941-2.478-3.772-4.211-.73-1.491-1.216-3.09-1.441-4.735-.174-1.116-.262-2.244-.266-3.373 0-12.226 8.58-27.095 19.172-33.205a22.25 22.25 0 0 1 3.055-1.454 15.73 15.73 0 0 1 4.821-1.122c1.965-.155 3.932.27 5.658 1.222l-.007.073z"/><path d="M755.277 307.827l-8.945-5.167-13.474 7.777-31.272 111.055 8.952 5.167 13.288-7.677 31.451-111.155z"/></g><path d="M723.828 418.981l-13.289 7.677 31.319-111.082 13.421-7.75-31.451 111.155z" class="C"/><path d="M710.538 426.657l31.318-111.082-8.998-5.139-31.272 111.055 8.952 5.166z" class="F"/><path d="M705.071 337.538c-10.586 6.116-19.173 20.985-19.173 33.204s8.6 17.187 19.173 11.077 19.172-20.985 19.172-33.204-8.547-17.187-19.172-11.077zm-1.634 34.778c-1.306.825-2.801 1.303-4.343 1.388-3.726 0-4.124-4.39-4.124-6.276 0-7.364 5.386-16.701 11.767-20.387 1.306-.827 2.801-1.305 4.344-1.388 3.719 0 4.124 4.389 4.124 6.276 0 7.364-5.393 16.701-11.768 20.387z" class="C"/><path d="M711.616 345.692a4.5 4.5 0 0 0-.531-.04c-.936.032-1.857.239-2.717.611.085.594.127 1.193.127 1.793 0 7.365-5.386 16.702-11.768 20.381-.518.301-1.057.563-1.614.784a6.78 6.78 0 0 0 1.149 3.101c.327.446.758.805 1.256 1.046s1.047.356 1.6.335c1.542-.085 3.037-.563 4.343-1.388 6.375-3.685 11.768-13.022 11.768-20.387-.021-1.793-.392-5.837-3.613-6.236z" class="F"/><path d="M718.618 336.183l-9.509-5.492c-3.473-2.026-8.282-1.747-13.594 1.328-10.626 6.109-19.179 20.978-19.179 33.204 0 6.043 2.105 10.3 5.499 12.332l.093.067h.053l9.363 5.452h.053c-1.633-1.014-2.944-2.472-3.778-4.204-.728-1.494-1.215-3.095-1.441-4.741-.174-1.117-.263-2.244-.266-3.374 0-12.226 8.587-27.095 19.172-33.204a23.03 23.03 0 0 1 3.055-1.455 15.77 15.77 0 0 1 4.828-1.122c1.963-.154 3.928.271 5.651 1.222v-.013z" class="G"/></g><defs><clipPath id="A"><path d="M0 0h816v644H0z" class="I"/></clipPath><path id="B" d="M97.395 492.683V228.685c.071-1.352.463-2.669 1.121-3.843.676-1.174 1.619-2.17 2.74-2.918L434.997 29.291c2.135-1.245 3.897-.231 3.897 2.242v264.032c-.072 1.352-.463 2.669-1.139 3.843s-1.619 2.171-2.758 2.9L101.255 494.942c-2.117 1.246-3.861.249-3.861-2.259z"/><path id="C" d="M144.992 272.544v-17.098c.071-1.103.391-2.188.943-3.149s1.334-1.779 2.26-2.402l337.3-194.448a7.06 7.06 0 0 1 3.185-.765c1.103 0 2.206.267 3.184.765l1.762 1.014c.943.605 1.708 1.424 2.259 2.384a6.82 6.82 0 0 1 .943 3.149V79.11L153.176 277.206l-8.184-4.662z"/><path id="D" d="M153.172 260.159c.071-1.103.374-2.188.943-3.149.551-.961 1.316-1.797 2.259-2.402L493.639 60.124c1.761-1.032 3.185-.213 3.185 1.833v17.152L153.172 277.204v-17.045z"/><path id="E" d="M154.113 257.012c-.587.943-.907 2.046-.943 3.149v17.045l-8.166-4.715v-17.045a6.32 6.32 0 0 1 .943-3.149l8.166 4.715z"/><path id="F" d="M220.871 256.336l-56.009 32.381a4.15 4.15 0 0 0-1.334 1.388c-.32.569-.516 1.21-.551 1.85v5.836c0 1.192.853 1.672 1.885 1.085l56.009-32.381c.552-.356.997-.836 1.335-1.388a4.28 4.28 0 0 0 .534-1.85v-5.818c0-1.21-.837-1.69-1.869-1.103z"/><path id="G" d="M264.957 353.799c.872-.481 1.477-.089 1.477.889-.018.534-.16 1.05-.409 1.513-.267.462-.623.854-1.068 1.156-.854.498-1.477.089-1.477-.89.036-.516.178-1.031.427-1.512.25-.462.623-.854 1.05-1.156z"/><path id="H" d="M300.949 305.265c.854-.498 1.477-.107 1.477.889a3.23 3.23 0 0 1-.427 1.513c-.249.462-.605.854-1.05 1.156-.854.481-1.476.089-1.476-.907a3.21 3.21 0 0 1 .427-1.495c.249-.462.622-.854 1.049-1.156z"/><path id="I" d="M264.958 305.265c.854-.498 1.477-.107 1.477.889-.018.534-.16 1.05-.409 1.513-.267.462-.623.854-1.068 1.156-.854.481-1.548.089-1.548-.889.036-.534.178-1.05.463-1.513.267-.462.64-.872 1.085-1.156z"/><path id="J" d="M264.961 446.07c-.035 0-.089-.018-.124-.035-.054-.018-.089-.054-.125-.089-.035-.018-.053-.071-.071-.107-.035-.053-.036-.089-.036-.143s.001-.106.036-.142c.018-.053.036-.089.071-.124l6.085-6.263 6.032-.747 6.049-5.302 5.907-1.584 6.102-12.134 6.103 2.953 5.907-5.195h.107l5.818-1.103 5.907-10.213c.035-.053.053-.088.089-.124a.51.51 0 0 1 .142-.071c.053-.018.107-.018.16-.018.036 0 .089.018.142.053a.3.3 0 0 1 .107.107c.036.036.053.089.071.125v.16c-.018.053-.035.107-.071.142l-6.067 10.497-6.067 1.157-6.12 5.373-5.907-2.953-5.907 11.813-6.067 1.655-6.032 5.302-5.978.765-5.907 6.067c-.035.054-.089.107-.142.143-.071.017-.143.035-.214.035z"/><path id="K" d="M223.238 574.243a19.51 19.51 0 0 0 2.829 9.91c2.954-5 7.971-9.697 14.999-13.736 12.686-7.383 29.712-11.368 47.967-11.368s35.281 4.038 47.967 11.368c6.992 4.039 12.099 8.736 14.999 13.736a19.87 19.87 0 0 0 2.829-9.91c0-8.612-6.317-17.009-17.828-23.628-12.686-7.383-29.748-11.369-47.967-11.369s-35.281 4.039-47.967 11.369c-11.512 6.619-17.828 15.016-17.828 23.628z"/><path id="L" d="M516.057 240.395c-1.78.872-2.473 1.299-1.975 2.598l1.138 2.544-8.397 4.43-.997-2.598c-.32-.729-.943-1.085-2.259-.391l-.516-.534 13.29-6.743-.284.694z"/><path id="M" d="M718.199 168.895l13.721 30.734c10.921-2.048 21.447-6.382 31.092-12.794l-33.171-8.834c-3.379 2.292-7.385-9.987-11.642-9.106z"/><path id="N" d="M690.075 150.727c6.635-4.549 15.722-6.319 24.317-5.39l7.332-49.94-7.332-15.499-37.831 5.891-40.647 70.605 1.263 2.15 44.799 3.858c.725-4.271 3.338-8.387 8.099-11.675z"/><path id="O" d="M690.076 89.681c6.635-4.529 15.722-6.324 24.318-5.39l7.332-31.654c-40.91-4.427-79.321 14.672-85.796 42.692a34.68 34.68 0 0 0-.508 2.666l46.569 3.361c.712-4.271 3.325-8.406 8.085-11.675z"/><path id="P" d="M729.883 98.498c5.635 3.877 8.362 8.955 8.202 14.02l46.876.564c.668-25.914-25.856-47.561-63.234-51.662l-7.332 31.654c5.425.491 10.707 2.34 15.488 5.424z"/><path id="Q" d="M738.108 112.517v38.056c0-4.923-2.731-9.866-8.218-13.641-4.355-2.996-9.813 9.112-15.476 8.494V93.107c12.807 1.294 23.924 8.956 23.694 19.41z"/><path id="R" d="M696.71 174.679c-6.213-4.271-15.547-6.664-14.72-12.225L635 135.709v15.104c.101 25.831 28.699 48.097 67.156 50.85 9.948.812 19.946.156 29.759-1.96V184.7c-9.624 1.931-27.598-4.855-35.205-10.021z"/><path id="S" d="M690.076 149.089c-6.212-4.256-8.912-10.026-8.085-15.586l-46.57-3.357c-4.355 28.205 25.55 53.487 66.776 56.449a102.37 102.37 0 0 0 29.76-1.965l-13.717-30.74c-9.67 2-20.558.414-28.164-4.801z"/></defs></svg>