<svg xmlns="http://www.w3.org/2000/svg" xmlns:xlink="http://www.w3.org/1999/xlink" width="155" height="164" fill="none" xmlns:v="https://vecta.io/nano"><style><![CDATA[.B{fill:#2196f3}.C{fill:#fff}.D{fill:#f0f0f0}.E{fill:#000}.F{fill:#7f3e3b}.G{fill:#263238}.H{fill:#f5f5f5}.I{fill:#e0e0e0}.J{opacity:.2}.K{fill:#ebebeb}.L{fill:#fafafa}]]></style><g clip-path="url(#B)"><path d="M0 0h155v164H0z" class="C"/><mask id="A" maskUnits="userSpaceOnUse" x="-38" y="0" width="222" height="165"><path d="M183.411 0H-38V165H183.411V0Z" class="C"/></mask><g mask="url(#A)"><path d="M183.411 145.002H-38v.111h221.411v-.111zm-24.242 5.069h-22.54v.111h22.54v-.111zm-153.033-1.31H-14.77v.11H6.136v-.11zm132.109-.744h-8.499v.11h8.499v-.11zm-29.577 2.935h-6.234v.111h6.234v-.111zm-10.174 0H82.801v.111h15.693v-.111zm-24.812-1.872H48.445v.111h25.236v-.111zm89.054-23.828H77.228c-.67-.002-1.313-.268-1.787-.743a2.53 2.53 0 0 1-.742-1.786V2.528a2.53 2.53 0 0 1 .75-1.772c.474-.469 1.112-.733 1.779-.734h85.508a2.53 2.53 0 0 1 2.52 2.506v120.195a2.53 2.53 0 0 1-.737 1.785c-.472.473-1.114.741-1.783.744zM77.228.11a2.42 2.42 0 0 0-2.418 2.418v120.195a2.42 2.42 0 0 0 2.417 2.418h85.508a2.42 2.42 0 0 0 1.708-.71c.454-.452.71-1.067.711-1.708V2.528a2.42 2.42 0 0 0-2.419-2.417H77.228z" class="K"/><path d="M107.754 106.48h13.276V67.773h-13.276v38.707z" fill="#e6e6e6"/><path d="M148.562 67.777h-27.531v38.707h27.531V67.777z" class="H"/><path d="M140.59 96.906h7.971v-5.261h-7.971v5.261zm0 6.719h7.971v-5.261h-7.971v5.261z" class="D"/><path d="M107.164 67.774h13.661v-1.962h-13.661v1.962z" class="I"/><path d="M149.146 65.813h-28.318v1.962h28.318v-1.962z" class="D"/><path d="M97.754 144.997h18.461v-35.788H97.754v35.788z" fill="#e6e6e6"/><path d="M154.493 109.209h-38.278v35.788h38.278v-35.788z" class="H"/><path d="M119.328 124.964h13.227v-11.655h-13.227v11.655zm0 14.884h13.227v-11.657h-13.227v11.657z" class="D"/><path d="M96.934 109.209h18.993v-2.728H96.934v2.728z" class="I"/><path d="M155.301 106.481h-39.375v2.728h39.375v-2.728z" class="D"/><path d="M77.119 10.756H41.613v134.246h35.505V10.756z" class="K"/><path d="M74.722 142.287V13.471h-30.71v128.816h30.71z" class="L"/><path d="M40.548 10.756H5.043v134.246h35.505V10.756z" class="K"/><path d="M40.543 144.475h1.067V11.287h-1.067v133.188z" class="I"/><path d="M38.147 142.287V13.471H7.438v128.816h30.71z" class="L"/><path d="M93.711 8.072H1.819c-.258 0-.468.399-.468.89V9.2c0 .492.209.89.468.89H93.71c.258 0 .468-.399.468-.89v-.237c0-.492-.21-.89-.468-.89zm-18.993 7.963v-2.564h-30.71v2.564h30.71z" class="I"/><path d="M74.718 39.265V13.466h-30.71v25.799h30.71zM38.147 69.873V13.471H7.438v56.402h30.71z" class="I"/><g opacity=".5"><path d="M81.349 5.73H71.199v137.621h10.149V5.73z" class="H"/><path d="M78.67 5.73h-4.791v137.621h4.791V5.73z" class="D"/><path d="M86.79 5.73h-10.15v137.621h10.15V5.73z" class="H"/><path d="M84.116 5.73h-4.791v137.621h4.791V5.73z" class="D"/><path d="M91.865 5.73h-10.15v137.621h10.15V5.73z" class="H"/></g><path d="M110.812 50.636h38.933v-39.34h-38.933v39.34z" class="L"/><path d="M122.877 40.761h14.799c1.266 0 2.293-1.027 2.293-2.294V23.465c0-1.267-1.027-2.294-2.293-2.294h-14.799c-1.267 0-2.295 1.027-2.295 2.294v15.003c0 1.267 1.028 2.294 2.295 2.294z" class="D"/><path d="M131.725 31.201h10.344c.885 0 1.603-.718 1.603-1.603V19.112c0-.885-.718-1.603-1.603-1.603h-10.344c-.886 0-1.604.718-1.604 1.603v10.486c0 .885.718 1.603 1.604 1.603z" class="C"/><path d="M123.136 45.907h7.177a1.11 1.11 0 0 0 1.112-1.111V37.52a1.11 1.11 0 0 0-1.112-1.111h-7.177a1.11 1.11 0 0 0-1.113 1.111v7.276a1.11 1.11 0 0 0 1.113 1.111zm-12.329-34.611h-2.174v39.34h2.174v-39.34z" class="D"/><path d="M78.537 162.447c43.187 0 78.196-.904 78.196-2.018s-35.009-2.018-78.196-2.018S.34 159.315.34 160.429s35.01 2.018 78.197 2.018z" class="H"/><path d="M131.942 26.649l-.443-.027a6.21 6.21 0 0 0-.352-2.517 6.22 6.22 0 0 0-1.327-2.167 6.23 6.23 0 0 0-2.083-1.456 6.22 6.22 0 0 0-2.491-.502h-8.019v-.474h8.01c.92-.006 1.832.177 2.677.54a6.7 6.7 0 0 1 2.237 1.567c.631.671 1.113 1.464 1.421 2.331a6.69 6.69 0 0 1 .37 2.706zm-.664 3.12l-.255 4.208.455.028.256-4.208-.456-.028zM118.21 134.98H64.871c-.703.007-1.4-.132-2.047-.407s-1.229-.683-1.71-1.197-.851-1.119-1.085-1.782a5.09 5.09 0 0 1-.276-2.07l6.354-102.973a5.91 5.91 0 0 1 5.792-5.456h53.337a5.09 5.09 0 0 1 4.838 3.389 5.08 5.08 0 0 1 .277 2.067l-6.355 102.973c-.108 1.469-.762 2.842-1.834 3.852a5.89 5.89 0 0 1-3.952 1.604z" class="B"/><path d="M86.331 44.552H74.694c-.403.004-.803-.075-1.175-.234s-.705-.392-.981-.687a2.92 2.92 0 0 1-.78-2.21l.598-9.68a3.39 3.39 0 0 1 1.053-2.21 3.38 3.38 0 0 1 2.268-.921h11.642a2.92 2.92 0 0 1 1.174.235c.37.159.704.392.979.687a2.94 2.94 0 0 1 .623 1.023 2.9 2.9 0 0 1 .159 1.186l-.597 9.68a3.39 3.39 0 0 1-3.326 3.131zm3.38 81.361c.476-.006.932-.193 1.276-.521s.551-.776.579-1.251l1.236-19.958a1.65 1.65 0 0 0-.09-.664 1.63 1.63 0 0 0-.348-.571 1.61 1.61 0 0 0-.549-.384 1.63 1.63 0 0 0-.657-.13H61.424l-1.444 23.469 29.731.01z" class="E J"/><use xlink:href="#C" class="B"/><use xlink:href="#C" opacity=".4" class="C"/><path d="M125.12 23.371c.408-.007.811.072 1.186.23s.713.394.992.691.491.649.625 1.033a2.92 2.92 0 0 1 .155 1.198l-2.339 37.897a1.42 1.42 0 0 1-1.394 1.329H67.221a1.17 1.17 0 0 1-.474-.093c-.15-.064-.285-.158-.396-.277a1.17 1.17 0 0 1-.312-.892l2.338-37.897c.065-.864.451-1.672 1.082-2.265a3.47 3.47 0 0 1 2.327-.941h53.334m0-.443H71.786a3.92 3.92 0 0 0-3.861 3.636l-2.338 37.897c-.017.224.012.449.087.661s.193.406.346.57.34.294.547.381.43.132.654.128h57.124a1.88 1.88 0 0 0 1.263-.511c.343-.322.552-.761.588-1.23l2.338-37.897c.035-.468-.027-.938-.182-1.38s-.403-.848-.724-1.19-.71-.613-1.142-.797a3.38 3.38 0 0 0-1.366-.269zM96.544 70.644H67.499a2.48 2.48 0 0 0-2.44 2.298l-1.213 19.427a2.13 2.13 0 0 0 2.152 2.293h29.045c.619-.007 1.214-.247 1.666-.672a2.47 2.47 0 0 0 .774-1.622l1.2-19.427c.022-.294-.017-.589-.114-.867a2.13 2.13 0 0 0-.453-.749 2.14 2.14 0 0 0-1.572-.682zm-8.705 28.18H58.79a2.47 2.47 0 0 0-2.436 2.294l-1.2 19.427a2.13 2.13 0 0 0 .114.871c.098.279.253.535.456.751a2.13 2.13 0 0 0 1.582.676h29.049c.621-.009 1.214-.25 1.666-.674s.725-1.006.77-1.624l1.181-19.427a2.14 2.14 0 0 0-.112-.867 2.15 2.15 0 0 0-.451-.748c-.201-.216-.444-.387-.714-.504a2.13 2.13 0 0 0-.857-.175z" class="C"/><path d="M111.01 85.044c-.538.006-1.055.215-1.446.584a2.15 2.15 0 0 0-.671 1.409l-1.04 16.853c-.02.256.016.513.101.755a1.83 1.83 0 0 0 .397.651 1.85 1.85 0 0 0 .624.435 1.84 1.84 0 0 0 .747.148h15.738l1.27-20.835h-15.72z" class="E J"/><use xlink:href="#D" class="B"/><use xlink:href="#D" opacity=".7" class="C"/><use xlink:href="#E" class="B"/><use xlink:href="#E" opacity=".7" class="C"/><use xlink:href="#F" class="B"/><use xlink:href="#F" opacity=".4" class="C"/><path d="M106.998 75.434c6.711-6.509 7.193-16.901 1.073-23.211s-16.52-6.149-23.232.36-7.193 16.901-1.073 23.211 16.521 6.149 23.233-.36z" class="B"/><path d="M105.993 74.398c6.103-5.918 6.54-15.367.976-21.104s-15.022-5.591-21.125.327-6.54 15.367-.976 21.104 15.022 5.591 21.125-.327z" class="C"/><path d="M99.871 63.826c2.248-2.179 2.408-5.66.358-7.773s-5.534-2.061-7.781.118-2.407 5.66-.358 7.773 5.534 2.061 7.781-.119zm-4.181 3.947c-4.287 0-8.125 1.669-10.233 4.14 1.01 1.645 2.431 3 4.122 3.931a11.16 11.16 0 0 0 5.526 1.383 12.86 12.86 0 0 0 5.784-1.43 12.85 12.85 0 0 0 4.52-3.884c-1.798-2.48-5.437-4.14-9.72-4.14z" class="B"/><path d="M84.216 42.422H72.557a2.92 2.92 0 0 1-2.154-.922 2.92 2.92 0 0 1-.782-2.209l.598-9.68a3.39 3.39 0 0 1 3.326-3.131h11.633c.404-.004.803.076 1.174.234a2.92 2.92 0 0 1 .982.687c.276.294.488.643.622 1.023s.189.785.158 1.187l-.594 9.68c-.063.839-.437 1.624-1.048 2.203s-1.414.909-2.256.928z" class="C"/><path d="M82.111 34.452l-5.863-3.915-.483 7.829 6.346-3.915z" class="B"/><path d="M121.932 35.104H94.158c-.17.002-.341-.032-.498-.099s-.299-.167-.416-.291-.207-.273-.264-.434a1.25 1.25 0 0 1-.067-.504l.102-1.691a1.44 1.44 0 0 1 1.413-1.329h27.774a1.24 1.24 0 0 1 1.181.825 1.25 1.25 0 0 1 .068.504l-.106 1.691a1.44 1.44 0 0 1-1.413 1.328zm-.453 7.309H93.705a1.24 1.24 0 0 1-1.177-.826 1.24 1.24 0 0 1-.068-.503l.102-1.691a1.44 1.44 0 0 1 .45-.937 1.45 1.45 0 0 1 .962-.392h27.774a1.24 1.24 0 0 1 .915.391 1.23 1.23 0 0 1 .265.434 1.25 1.25 0 0 1 .069.504l-.106 1.691c-.027.358-.186.693-.448.939s-.606.385-.965.389zm9.202 45.62h-22.253a.83.83 0 0 1-.332-.065.79.79 0 0 1-.276-.195c-.078-.084-.136-.182-.174-.29a.8.8 0 0 1-.041-.336l.04-.633c.015-.238.12-.462.293-.626a.95.95 0 0 1 .641-.26h22.252a.82.82 0 0 1 .332.065.81.81 0 0 1 .45.485.8.8 0 0 1 .041.336l-.04.633a.94.94 0 0 1-.293.626.95.95 0 0 1-.64.26zm-.311 5.066h-22.239a.82.82 0 0 1-.332-.065.81.81 0 0 1-.277-.194.82.82 0 0 1-.176-.29.8.8 0 0 1-.042-.336l.039-.629a.94.94 0 0 1 .294-.626.95.95 0 0 1 .64-.26h22.253a.82.82 0 0 1 .331.065.81.81 0 0 1 .277.195c.078.084.136.182.174.29a.8.8 0 0 1 .041.336l-.036.629c-.016.24-.123.465-.299.629a.96.96 0 0 1-.648.257zm-.315 5.065h-22.252c-.114.002-.227-.02-.332-.065s-.198-.111-.276-.194a.79.79 0 0 1-.174-.29.83.83 0 0 1-.041-.336l.04-.633a.94.94 0 0 1 .929-.886h22.252a.83.83 0 0 1 .333.065.82.82 0 0 1 .278.194.84.84 0 0 1 .175.29.8.8 0 0 1 .042.336l-.04.633a.95.95 0 0 1-.934.886zm-12.845 32.143c.873-.845.936-2.196.14-3.016s-2.146-.799-3.02.048-.934 2.196-.14 3.016 2.148.799 3.02-.048zm1.165-9.032a2.3 2.3 0 0 1-.719 1.508 2.31 2.31 0 0 1-1.547.627c-.275.003-.548-.052-.801-.159a1.97 1.97 0 0 1-.67-.468c-.188-.201-.332-.438-.424-.698a2.01 2.01 0 0 1-.107-.81c.042-.574.297-1.113.716-1.508s.971-.619 1.547-.626a1.97 1.97 0 0 1 .802.157 1.99 1.99 0 0 1 1.096 1.166c.093.26.129.536.107.811zm.463-7.558a2.31 2.31 0 0 1-.719 1.508c-.42.395-.973.619-1.549.626-.275.003-.548-.051-.801-.159a1.97 1.97 0 0 1-.669-.468 1.96 1.96 0 0 1-.425-.698c-.091-.259-.128-.535-.107-.809.043-.575.298-1.114.718-1.509a2.31 2.31 0 0 1 1.55-.626c.275-.003.548.051.801.159a1.99 1.99 0 0 1 .669.468 1.98 1.98 0 0 1 .425.698c.091.259.127.535.107.81zm-8.07 16.594c.873-.845.936-2.197.14-3.016s-2.146-.799-3.019.047-.935 2.197-.141 3.017 2.148.798 3.02-.048zm1.163-9.036a2.31 2.31 0 0 1-.719 1.508 2.32 2.32 0 0 1-1.548.627c-.276.003-.549-.052-.802-.159a1.99 1.99 0 0 1-.669-.468 1.98 1.98 0 0 1-.424-.698c-.092-.26-.128-.535-.107-.81.041-.574.296-1.113.716-1.508a2.3 2.3 0 0 1 1.546-.626c.277-.004.549.049.803.157a1.98 1.98 0 0 1 1.097 1.166 2.01 2.01 0 0 1 .107.811zm.464-7.558c-.041.575-.298 1.113-.718 1.508a2.3 2.3 0 0 1-1.549.626c-.275.003-.548-.051-.801-.159s-.481-.267-.67-.468a1.97 1.97 0 0 1-.423-.698 1.95 1.95 0 0 1-.107-.809c.041-.575.298-1.114.718-1.509s.972-.618 1.549-.626c.275-.003.548.051.801.159s.481.267.67.468a1.99 1.99 0 0 1 .53 1.508z" class="C"/><path d="M22.754 65.051l2.502 1.948-3.303 1.736s-1.546-1.661-.762-3.073l1.563-.611z" class="F"/><path d="M25.363 70.378l-1.519.443a1 1 0 0 1-1.204-.549l-.691-1.554 3.303-1.736.762 2.077c.05.129.073.267.067.405a1 1 0 0 1-.356.721 1 1 0 0 1-.363.193z" class="F"/><path d="M33.254 47.204l-1.328.828-1.36.886-2.657 1.829c-1.711 1.2-3.325 2.533-4.827 3.985l-.266.266-.066.066c.001-.009.001-.018 0-.027 0-.022-.049.035-.093.137a3.43 3.43 0 0 0-.226 1.019c-.068.979-.043 1.962.075 2.936.204 2.081.638 4.278 1.063 6.408l-2.524.956a32.09 32.09 0 0 1-2.617-6.598c-.346-1.235-.553-2.505-.616-3.786a8.26 8.26 0 0 1 .23-2.325c.129-.494.329-.967.593-1.404a3.61 3.61 0 0 1 .253-.367l.124-.164.075-.089.301-.363 1.236-1.39c.416-.456.859-.886 1.302-1.271.886-.837 1.798-1.59 2.728-2.329l2.874-2.077 1.483-.956 1.563-.917 2.679 4.747z" class="B"/><path d="M23.361 65.011c-.872.373-1.771.682-2.688.925-.073.024-.135.072-.176.137a.33.33 0 0 0-.05.217c.058.443.146.744.385.771s2.887-.886 3.073-1.222c.106-.19 0-.474-.12-.691-.04-.073-.106-.128-.185-.154s-.165-.02-.24.017z" class="G"/><use xlink:href="#G" class="B"/><use xlink:href="#G" opacity=".7" class="C"/><path d="M47.324 33.141c-.062.261 0 .509.195.549s.359-.133.443-.394-.022-.509-.195-.553-.376.137-.443.399z" class="G"/><path d="M47.322 33.641a9.66 9.66 0 0 0 .695 2.546 1.54 1.54 0 0 1-1.306-.075l.611-2.471z" fill="#630f0f"/><path d="M46.755 31.462c.03.011.063.011.093 0 .182-.08.381-.116.579-.105s.392.07.563.171c.017.012.036.021.057.026s.042.005.063.002.04-.012.058-.023.032-.027.044-.044.02-.036.025-.056.005-.041.001-.061-.011-.039-.023-.056-.026-.032-.043-.044c-.214-.131-.456-.209-.707-.227s-.501.023-.732.121c-.02.008-.037.019-.052.034s-.027.032-.035.051-.013.04-.013.061a.16.16 0 0 0 .012.061c.01.023.025.043.044.059s.042.026.067.03z" class="G"/><path d="M38.136 34.075c-.12 2.484-.731 6.943-2.776 8.117 0 0 .053 2.568 4.459 3.653 4.844 1.2 2.909-1.833 2.909-1.833-2.489-1.284-1.935-3.228-1.019-4.96l-3.574-4.977z" class="F"/><path d="M34.52 42.86c-.159-.846-.328-1.811.532-1.891.943-.084 5.783.784 7.289 1.771.202.113.38.265.522.448a1.74 1.74 0 0 1 .308.615c.061.223.077.457.047.686s-.106.451-.222.651L34.52 42.86z" class="G"/><path d="M11.545 150.342a1.06 1.06 0 0 0 .341.251c.129.06.269.093.412.099.089 0 .199-.084.239-.288a.37.37 0 0 0-.001-.157c-.011-.052-.034-.101-.066-.143-.301-.403-1.413-.519-1.457-.524-.016-.001-.031.003-.046.009s-.026.018-.034.031-.012.027-.012.043.004.029.012.041c.182.233.387.447.611.638zm.731-.217c.024.022.047.045.066.071a.23.23 0 0 1 .04.084c.007.032.007.063 0 .094-.027.146-.093.159-.12.163-.23.053-.748-.385-1.076-.774a2.68 2.68 0 0 1 1.089.376v-.014z" class="B"/><path d="M10.952 149.717h.035c.385.08 1.368-.044 1.554-.372a.26.26 0 0 0 .028-.172c-.011-.058-.041-.112-.086-.151a.43.43 0 0 0-.323-.142c-.5 0-1.182.678-1.213.704-.006.013-.009.026-.009.041s.003.026.009.038c-.003.019-.002.037.005.054zm1.391-.594l.026.023c.071.079.049.12.035.137-.111.196-.793.342-1.222.32a1.89 1.89 0 0 1 .979-.545c.066 0 .131.023.182.065zm24.216 7.627c.443 0 .833-.062.952-.253a.3.3 0 0 0 .036-.179.29.29 0 0 0-.076-.165c-.063-.095-.16-.162-.27-.186-.571-.151-1.669.513-1.718.54-.013.008-.024.022-.029.036s-.006.032-.002.048a.09.09 0 0 0 .027.04c.013.011.028.018.044.022a5.81 5.81 0 0 0 1.036.097zm.443-.651c.052-.005.104-.005.155 0a.28.28 0 0 1 .164.111c.066.102.053.146.035.176-.133.218-.979.222-1.607.134a3.24 3.24 0 0 1 1.271-.421h-.018z" class="B"/><path d="M35.54 156.657h.031c.381-.182 1.107-.886 1.005-1.279 0-.089-.097-.2-.314-.221-.079-.013-.16-.007-.237.017a.53.53 0 0 0-.206.119c-.39.345-.385 1.249-.385 1.285 0 .014.003.028.01.04s.017.023.03.03.02.012.032.014.024 0 .034-.005zm.673-1.354h.049c.142 0 .159.065.164.087.057.226-.443.793-.81 1.042-.006-.371.111-.734.332-1.032a.39.39 0 0 1 .266-.097z" class="B"/><path d="M31.898 156.573h3.339l.337-7.731h-3.343l-.332 7.731zm-24.32-7.829l3.233.846 3.578-7.06-3.233-.845-3.578 7.059z" class="F"/><path d="M11.061 149.204l-2.856-2.427c-.053-.04-.117-.062-.184-.062s-.131.022-.184.062l-2.44 1.825a.49.49 0 0 0-.186.386c0 .075.017.147.049.213s.079.125.137.171l2.807 2.25c.775.656 2.427 2.537 3.423 3.52s2.103.12 1.771-.371c-1.054-1.517-1.756-3.251-2.055-5.075a.8.8 0 0 0-.284-.492zm24.077 6.984h-3.649a.25.25 0 0 0-.175.064c-.048.043-.079.102-.087.166l-.35 2.966a.55.55 0 0 0 .025.224.54.54 0 0 0 .113.193.55.55 0 0 0 .402.177l4.871-.098 4.53.106c1.368 0 1.607-1.386 1.018-1.513-2.657-.572-3.454-.629-5.858-2.025-.252-.159-.543-.25-.841-.26z" class="G"/><path d="M47.61 48.334c-.257 3.37-1.523 10.53-6.346 25.073l-17.554-3.303c.332-2.347 3.489-12.24 4.207-23.39.047-.735.244-1.452.58-2.107s.802-1.235 1.371-1.702a5.38 5.38 0 0 1 4.115-1.177h.089c2.512.324 5.004.794 7.462 1.408a31.46 31.46 0 0 1 3.795 1.422 3.8 3.8 0 0 1 2.281 3.777z" class="B"/><path d="M44.278 50.376c-.115 1.895.593 5.921 1.213 8.981l1.328-5.615-2.542-3.365z" class="E J"/><path d="M47.547 47.307l1.328 3.264 1.466 3.237a43.39 43.39 0 0 0 3.335 6.018l.956 1.258.062.071h-.022-.031v.031c.097.071.204.125.319.159.417.131.848.208 1.284.23a15.79 15.79 0 0 0 1.603.031c2.343-.131 4.675-.408 6.983-.828l.886 2.56c-1.156.566-2.346 1.057-3.565 1.47a26.65 26.65 0 0 1-3.804 1.027 16.8 16.8 0 0 1-2.081.261c-.794.051-1.591.007-2.374-.133a5.55 5.55 0 0 1-1.417-.443c-.27-.124-.528-.272-.77-.443-.134-.096-.263-.199-.385-.31l-.186-.177-.097-.097a19.93 19.93 0 0 1-1.404-1.576c-1.602-2.081-2.998-4.313-4.167-6.664l-1.63-3.458-1.426-3.574 5.137-1.913z" class="B"/><path d="M79.18 58.372l-6.302-1.258c-.228-.043-.464.002-.661.125s-.34.316-.402.539l-1.86 7.036c-.03.107-.038.218-.023.328s.053.215.112.309.136.175.227.238a.8.8 0 0 0 .304.126l6.301 1.258a.93.93 0 0 0 1.063-.664l1.851-7.05c.028-.105.035-.215.019-.322s-.053-.211-.111-.303-.133-.172-.222-.235-.19-.105-.297-.127z" class="E J"/><path d="M76.989 55.14l-6.275-1.395a.93.93 0 0 0-1.076.642l-2.015 6.992a.8.8 0 0 0 .079.639c.057.095.132.178.222.242s.193.11.301.133l6.253 1.395c.227.047.464.008.663-.111s.347-.308.413-.531l2.024-6.992c.033-.105.043-.216.031-.326a.8.8 0 0 0-.322-.554c-.089-.065-.191-.111-.298-.135z" class="C"/><path d="M64.289 61.246l1.984-2.909 3.149 2.878s-1.638 2.214-4.065 2.095l-1.067-2.064z" class="F"/><path d="M63.646 61.131c.392.861.724 1.749.992 2.657.024.073.074.135.139.174s.143.055.219.043c.443-.071.74-.164.762-.403s-.957-2.865-1.297-3.042a.79.79 0 0 0-.359-.012c-.119.024-.231.075-.327.149-.038.02-.071.046-.097.079s-.047.07-.059.111-.016.083-.011.125.018.082.039.119z" class="G"/><path d="M70.131 57.891l.389.757a1.55 1.55 0 0 1-.319 1.842l-.779.726-3.148-2.878 1.656-1.045c.181-.115.384-.191.597-.223s.428-.02.636.037.4.155.567.29.304.303.402.494z" class="F"/><path d="M35.572 148.845l-.186 4.345h-3.339l.186-4.345h3.339zm-24.413-7.16l3.233.845-1.984 3.906-3.095-1.111 1.847-3.64z" class="E J"/><path d="M38.738 30.434c-.593 3.259-1.107 5.137.106 7.187 1.829 3.1 6.155 2.59 7.714-.443 1.399-2.715 2.139-7.59-.686-9.645-.623-.455-1.352-.744-2.118-.838s-1.543.009-2.258.299-1.343.759-1.826 1.361-.803 1.318-.932 2.078z" class="F"/><path d="M44.326 33.628c1.661.642 2.657-1.745 2.214-2.604.549-.332 2.741-.841 2.489-2.524s-1.913-2.17-3.126-4.388c-.412.217-.301 1.568-.301 1.568s-.996-1.771-3.578-1.74-3.543-1.036-3.543-1.036.195 1.683 1.151 2.095c-1.448.407-1.448 2.657-3.503 2.932.469.886 1.616.886 1.616.886s-1.187 1.027-.952 2.312 1.607 4.38-.035 5.456c3.556 1.271 8.272-.164 7.568-2.954z" class="G"/><path d="M43.55 33.097a3.77 3.77 0 0 0 .248 2.396c.443.979 1.329.726 1.745-.173.368-.806.571-2.285-.146-2.971s-1.612-.217-1.847.748z" class="F"/><use xlink:href="#H" class="B"/><use xlink:href="#H" opacity=".5" class="E"/><path d="M15.786 143.966c.022 0-1.328 2.033-1.328 2.033l-6.536-2.153.775-1.952 7.09 2.072z" class="B"/><path opacity=".3" d="M32.977 80.948c-4.251.682-3.941 13.285-3.445 20.343l3.892-20.343c-.149-.012-.298-.012-.447 0z" class="E"/><use xlink:href="#I" class="B"/><use xlink:href="#I" opacity=".5" class="E"/><path d="M37.725 149.807c.026 0-.319 2.347-.319 2.347h-6.868l-.186-2.095 7.373-.252z" class="B"/><path d="M23.715 69.461c-.58-.026-.62 1.364-.443 1.771s2.728.655 9.494 2.174l8.653 1.506c.213-.093.642-1.971.226-2.028s-7.369-1.173-10.313-1.855-6.793-1.528-7.617-1.568z" class="G"/></g></g><defs><clipPath id="B"><path d="M0 0h155v164H0z" class="C"/></clipPath><path id="C" d="M58.603 93.457h-9.096a1.33 1.33 0 0 0-1.289 1.213l-.633 10.264c-.012.156.009.313.061.46s.134.283.241.397.236.205.38.266a1.13 1.13 0 0 0 .455.09h9.096a1.3 1.3 0 0 0 .882-.354c.239-.224.384-.531.407-.859l.633-10.264c.012-.156-.008-.313-.06-.461s-.134-.283-.241-.397a1.12 1.12 0 0 0-.381-.266c-.144-.061-.3-.092-.456-.089z"/><path id="D" d="M132.726 81.35h-25.52c-.545.007-1.067.219-1.463.593s-.637.883-.676 1.426l-1.053 17.066a1.86 1.86 0 0 0 .099.766c.086.246.222.471.401.661s.393.341.632.443a1.88 1.88 0 0 0 .758.15h25.52a2.18 2.18 0 0 0 1.464-.593 2.17 2.17 0 0 0 .679-1.427l1.055-17.066c.019-.26-.016-.521-.103-.766a1.87 1.87 0 0 0-.401-.66c-.179-.19-.394-.341-.634-.443a1.88 1.88 0 0 0-.758-.15z"/><path id="E" d="M151.793 53.777h-15.121c-.546.007-1.068.218-1.464.591s-.639.881-.68 1.424l-1.054 17.071c-.02.259.016.52.102.765s.224.469.403.659a1.88 1.88 0 0 0 .633.441c.239.102.497.153.758.15h15.121a2.17 2.17 0 0 0 2.139-2.015l1.054-17.071c.02-.259-.015-.52-.101-.765a1.88 1.88 0 0 0-.401-.659c-.177-.19-.393-.34-.632-.442s-.497-.153-.757-.149z"/><path id="F" d="M138.037 106.441h-6.292a.9.9 0 0 0-.606.249c-.164.156-.264.367-.28.592l-.443 7.085a.78.78 0 0 0 .043.318c.035.102.092.195.167.274a.77.77 0 0 0 .264.183c.1.042.207.063.315.062h6.292c.227 0 .445-.086.609-.242a.88.88 0 0 0 .276-.595l.443-7.085c.009-.108-.005-.217-.041-.32a.77.77 0 0 0-.167-.275.79.79 0 0 0-.264-.185.78.78 0 0 0-.316-.061z"/><path id="G" d="M35.875 63.106l-5.314-13.054a2.03 2.03 0 0 0-2.493-1.142l-15.105 5.07a1.77 1.77 0 0 0-.619.362c-.179.161-.324.358-.425.577s-.156.457-.161.698a1.77 1.77 0 0 0 .129.705l5.314 13.054c.197.468.563.845 1.024 1.056a2.03 2.03 0 0 0 1.469.086l15.105-5.07a1.77 1.77 0 0 0 1.044-.939 1.77 1.77 0 0 0 .032-1.404z"/><path id="H" d="M35.042 72.233l-6.616 34.483c-2.276 10.468-13.869 38.48-13.869 38.48l-5.819-1.877L19.3 106.122c.686-11.221 2.081-28.978 4.428-36.023l11.314 2.134z"/><path id="I" d="M41.263 73.407s.943 23.195.58 33.375c-.377 10.597-5.199 45.279-5.199 45.279h-5.659s-.12-33.34 1.182-44.411c-.274-11.341-2.444-36.418-2.444-36.418l11.54 2.174z"/></defs></svg>