<svg xmlns="http://www.w3.org/2000/svg" xmlns:xlink="http://www.w3.org/1999/xlink" width="155" height="164" fill="none" xmlns:v="https://vecta.io/nano"><style><![CDATA[.B{fill:#263238}.C{fill:#fff}.D{fill:#e0e0e0}.E{opacity:.3}.F{fill:#000}.G{fill:#2196f3}.H{fill:#fafafa}.I{fill:#455a64}.J{fill:#ba7f72}.K{fill:#f5f5f5}.L{fill:#ebebeb}.M{fill:#8b5d54}]]></style><g clip-path="url(#A)"><path d="M0 0h155v164H0z" class="C"/><path d="M155 161.037c0 1.086-34.699 1.963-77.5 1.963S0 162.126 0 161.037s34.698-1.964 77.5-1.964 77.5.878 77.5 1.964z" class="K"/><path d="M153.999 3.746h-23.62v24.173h23.62V3.746z" class="D"/><path d="M152.397 3.746h-23.62v24.173h23.62V3.746z" class="H"/><path d="M152.408 27.926h-23.631V3.738h23.631v24.187zm-23.631 0h23.606V3.756h-23.595l-.011 24.17z" class="D"/><path d="M149.221 6.997h-17.268v17.674h17.268V6.997z" class="C"/><g class="D"><path d="M131.956 24.787a2.75 2.75 0 0 1-.426.489l-1.096 1.09-1.128 1.054a2.76 2.76 0 0 1-.501.408 2.85 2.85 0 0 1 .423-.485l1.102-1.093 1.128-1.055a2.87 2.87 0 0 1 .498-.408zm17.267-.043c.183.119.35.259.497.418l1.114 1.076 1.074 1.111c.159.145.299.309.415.489a2.76 2.76 0 0 1-.487-.418l-1.117-1.083-1.074-1.107a2.8 2.8 0 0 1-.422-.485zm-.047-17.712a2.85 2.85 0 0 1 .426-.485l1.099-1.093 1.128-1.055a2.85 2.85 0 0 1 .498-.404 2.4 2.4 0 0 1-.422.485l-1.1 1.097-1.131 1.055c-.148.153-.315.288-.498.401z"/><path d="M131.92 7.089a3.08 3.08 0 0 1-.505-.408l-1.114-1.079-1.073-1.107c-.157-.147-.296-.311-.416-.489.182.117.349.256.495.415L130.42 5.5l1.073 1.111a2.46 2.46 0 0 1 .427.478z"/><path d="M149.178 24.671v-.088-.246-.953l-.018-3.603-.032-12.784.064.067h-17.218l.079-.074v17.674l-.097-.056 12.471.035h3.501.928.25c.028-.004.055-.004.083 0h-.308-.913-3.488l-12.513.032h-.065v-.063V6.937v-.074h.079 17.218.068v.067l-.035 12.826v3.585.942.239c-.003.053-.022.105-.054.148z"/></g><path d="M143.468 13.004h-5.761v5.656h5.761v-5.656z" class="L"/><path d="M29.238 8.998H2.75v27.108h26.488V8.998z" class="D"/><path d="M27.445 8.998H.957v27.108h26.488V8.998z" class="H"/><path d="M27.452 36.112H.957V8.986h26.495v27.126zm-26.495 0h26.47V9.004H.968L.957 36.112z" class="D"/><path d="M23.886 12.639H4.52v19.818h19.367V12.639z" class="C"/><g class="D"><path d="M4.522 32.591c-.138.199-.299.382-.48.545L2.81 34.363l-1.264 1.188a3.02 3.02 0 0 1-.559.457c.135-.198.294-.38.473-.541l1.235-1.227 1.267-1.192a2.89 2.89 0 0 1 .559-.457zm19.365-.05a3.36 3.36 0 0 1 .555.471l1.246 1.209 1.214 1.241a3.18 3.18 0 0 1 .465.548c-.204-.131-.391-.287-.555-.464l-1.25-1.213-1.214-1.244a2.74 2.74 0 0 1-.462-.548zm-.055-19.85c.137-.199.297-.382.476-.545l1.232-1.223 1.268-1.192c.168-.172.356-.325.558-.457-.136.2-.296.383-.476.545l-1.235 1.227-1.267 1.192a2.79 2.79 0 0 1-.555.454zm-19.375.05a3.02 3.02 0 0 1-.555-.467l-1.25-1.209-1.21-1.241c-.178-.165-.334-.35-.465-.552a3.46 3.46 0 0 1 .551.468l1.253 1.213 1.21 1.244a3.06 3.06 0 0 1 .465.545z"/><path d="M23.832 32.461a.45.45 0 0 1 0-.098v-.274-1.055-4.039l-.075-14.338.075.074H4.52l.086-.084v19.821l-.072-.074 13.982.039 3.939.018h1.042.268-.254-1.024l-3.91.021-14.032.035h-.09v-.07l-.021-19.779v-.084h.086 19.313.075v.084l-.039 14.387v4.021 1.054.271a.75.75 0 0 1-.036.07z"/></g><path d="M17.435 19.377h-6.463v6.345h6.463v-6.345z" class="L"/><g class="D"><path d="M9.11 124.215a13.45 13.45 0 0 0-5.668-1.917c-.927-.091-1.937-.066-2.682.485a.55.55 0 0 0-.206.205.52.52 0 0 0-.07.277.59.59 0 0 0 .261.327c2.306 1.726 5.797 1.944 8.364.623zm-.155-.158c-1.313-.947-2.537-2.005-3.659-3.164A9.05 9.05 0 0 1 3 116.724c-.077-.232-.1-.48-.069-.722s.116-.476.248-.684c2.918 2.236 5.213 5.128 5.775 8.721"/><path d="M9.069 124.193c-.269-1.563-.246-3.161.068-4.717a6.38 6.38 0 0 1 2.56-3.895c.505 1.157.29 2.489-.068 3.698a17.73 17.73 0 0 1-2.539 5.248m2.838 4.697c-1.737.207-3.247 1.107-4.544 2.26-1.303 1.164-2.211 2.693-2.599 4.38 1.701-.102 3.147-1.28 4.196-2.604s1.79-2.771 2.925-4.008m.644.777a10.82 10.82 0 0 1-.698-5.366c.226-1.817.91-3.551 1.99-5.043.992 3.456.627 7.357-1.293 10.409zm3.778 4.417c-1.586-.095-3.166.269-4.544 1.048a8.03 8.03 0 0 0-3.204 3.332c-.097.191-.183.429-.054.598.067.064.149.112.239.137s.185.03.277.01c1.525-.094 2.864-.998 3.996-2.024s2.091-2.215 3.326-3.104m-.153-.236a13.92 13.92 0 0 1-.143-7.916c.283-1.019.759-2.091 1.719-2.569a.33.33 0 0 1 .128-.05.35.35 0 0 1 .137.004c.077.042.135.109.165.19a4.65 4.65 0 0 1 .405 2.271 13.58 13.58 0 0 1-.358 2.298c-.301 1.407-.462 2.915-1.246 4.128a8.38 8.38 0 0 0-.501.907c-.147.309-.15.414-.286.66m9.984 1.554c-.741-2.767.047-6.123 1.822-8.391.129-.169.304-.351.519-.327.326.029.412.458.397.777-.136 2.847-1.085 5.599-2.739 7.941zm.902.59c3.427.875 7.354.025 10.204-2.035-1.708-.841-3.66-1.078-5.524-.667-1.844.414-3.53 1.226-4.68 2.702zm.758-1.843c1.919-3.072 5.596-5.075 9.263-5.272-.422 1.466-1.647 2.601-3.029 3.29s-2.925.985-4.447 1.276c-.591.112-1.404.236-1.79.703m-1.467-8.937c.519-1.759 1.042-3.516 1.185-5.326s-.122-3.708-1.074-5.272c-1.79 3.401-1.973 7.38-.158 10.773m6.079-3.17c2.094-3.74 6.391-6.724 10.688-7.142-1.669 4.077-6.219 7.23-10.698 7.142"/><path d="M31.121 123.231c3.126.467 5.79 2.425 8.708 3.612.614.284 1.293.405 1.969.352a1.56 1.56 0 0 0 .879-.281 1.52 1.52 0 0 0 .556-.724 1.49 1.49 0 0 0 .033-.908c-.084-.298-.259-.564-.502-.761a4.23 4.23 0 0 0-1.432-.852c-3.179-1.3-6.591-1.335-9.943-.544m-2.076 2.256c.716.196.949.558 1.511 1.026 1.911 1.594 4.17 2.734 6.602 3.333.254.059.584.084.716-.142s-.029-.432-.172-.604a9.06 9.06 0 0 0-3.985-2.657c-1.525-.559-2.864-1.23-4.655-1.087m-2.06-12.867c1.281 1.159 2.796 2.044 4.446 2.596s3.399.758 5.136.605a.7.7 0 0 0 .437-.154c.24-.256-.047-.654-.329-.872-2.818-2.155-6.23-3.047-9.689-2.175zm2.421-.868a13.46 13.46 0 0 1 5.741-2.378 13.58 13.58 0 0 1 6.214.441c-1.504 1.454-3.58 2.239-5.696 2.46-2.101.189-4.219.014-6.258-.517m-.965-5.979c-.276-2.762-.097-4.942-.29-7.715 0-.222-.064-.489-.276-.566-.294-.112-.541.243-.637.538a8.68 8.68 0 0 0-.307 3.977 8.74 8.74 0 0 0 1.506 3.704"/><path d="M28.527 105.845c1.905-1.156 3.333-2.668 4.655-4.443.92-1.237 1.694-2.718 1.486-4.218a4.53 4.53 0 0 0-1.865.456 4.46 4.46 0 0 0-1.497 1.182 9.16 9.16 0 0 0-1.711 3.381l-1.074 3.656m4.579-1.263a37.67 37.67 0 0 0 11.457-6.633c-1.368-.541-2.936-.218-4.296.323-3.129 1.241-5.686 3.332-7.218 6.281m-3.23 2.788c2.116.229 4.264.376 6.366.032s4.014-1.143 5.94-1.94a.68.68 0 0 0 .405-.3c.03-.087.033-.181.008-.271s-.078-.168-.151-.227c-.149-.116-.323-.197-.508-.236-2.095-.573-4.357-.305-6.42.38a30.14 30.14 0 0 0-5.639 2.562zm-12.085 5.13c-1.432-2.862-1.35-6.201-.1-9.139.877 1.314.985 2.987.823 4.548s-.645 3.163-.677 4.742m-5.798-3.013a13.2 13.2 0 0 0-5.268 1.016 13 13 0 0 0-4.399 3.023c1.79.277 3.652-.179 5.288-.963s3.09-1.885 4.533-2.977m-4.044-1.374c-1.765-.141-3.462-.352-5.156.158s-3.222 1.667-3.938 3.269a9.44 9.44 0 0 0 4.834-.896c1.492-.717 2.916-1.564 4.254-2.531"/><path d="M13.825 108.408c-1.586-1.02-3.222-2.061-5.063-2.482s-3.989-.12-5.274 1.254c1.493.861 3.308.963 5.041.963s3.86-.02 5.492.549"/><path d="M13.837 108.488c-2.714-2.612-3.742-7.311-2.649-10.897a16.35 16.35 0 0 1 2.649 10.897zm7.448-7.407c.512-1.166.874-2.393 1.332-3.581a10.2 10.2 0 0 1 1.89-3.294c.849-.978 2.055-1.591 3.358-1.708a13.17 13.17 0 0 1-2.335 4.979c-1.123 1.483-2.548 2.719-4.185 3.629m-1.401 1.536c-.849-1.143-1.826-2.696-2.975-3.55s-2.642-1.371-4.042-1.055a9.33 9.33 0 0 0 2.954 3.118c1.218.799 2.61 1.308 4.064 1.487z"/><path d="M20.209 101.175a19.57 19.57 0 0 1-1.339-4.253c-.222-1.469-.086-3.041.68-4.324 1.489 2.763 1.966 5.727.716 8.608m1.038-8.606c.845-2.742 3.398-4.756 6.155-5.68a2.34 2.34 0 0 1 1.074-.162.95.95 0 0 1 .498.209.92.92 0 0 1 .297.444c.1.464-.29.882-.659 1.192a21.12 21.12 0 0 1-7.372 3.997m.043-2.243c.107-1.758.218-3.557.802-5.23s1.715-3.241 3.355-3.972c.279 1.782-.523 3.557-1.489 5.09s-2.13 2.984-2.714 4.696"/><path d="M21.282 91.572c-.695-1.996-.766-4.531-1.983-6.271-.852-1.213-2.216-2.042-2.947-3.329a4.99 4.99 0 0 0 .175 3.796 11.07 11.07 0 0 0 2.249 3.163l2.506 2.654"/><path d="M21.307 150.352c-.054 0-.1-13.315-.104-29.734l.09-29.741c.054 0 .104 13.311.107 29.741l-.093 29.734z"/><path d="M33.157 110.466a2.69 2.69 0 0 1-.508.19l-1.403.464-4.572 1.68c-1.765.71-3.394 1.333-4.314 2.145-.375.306-.673.693-.87 1.132-.136.312-.161.502-.179.498-.006-.046-.006-.094 0-.14a2.04 2.04 0 0 1 .1-.387 3.01 3.01 0 0 1 .849-1.206 7.6 7.6 0 0 1 1.88-1.145l2.47-1.055 4.604-1.631 1.432-.405c.167-.06.338-.107.512-.14z"/><path d="M37.038 101.099s-.043.056-.14.151l-.437.4-1.626 1.448-5.406 4.729-5.199 4.92-1.472 1.596-.394.439c-.104.116-.14.151-.147.145.033-.059.071-.116.114-.169l.358-.464 1.432-1.638a68.09 68.09 0 0 1 5.17-4.988l5.449-4.685 1.665-1.406.458-.373c.054-.041.112-.076.172-.105z"/><path d="M27.157 109.704c-.057-.024.383-1.027.823-2.288l.716-2.324c-.047.817-.224 1.621-.523 2.384a15.49 15.49 0 0 1-.659 1.602c-.089.224-.21.435-.358.626zm-5.836 8.052a2.04 2.04 0 0 1-.326-.369l-.834-1.054-2.753-3.455-2.803-3.416-.838-1.027a2.69 2.69 0 0 1-.294-.394 2.15 2.15 0 0 1 .358.351l.899.995 2.864 3.385 2.71 3.494.784 1.087a2.7 2.7 0 0 1 .233.403z"/><path d="M18.722 114.487c-.519-.572-.887-1.259-1.074-2.004a5.62 5.62 0 0 1-.247-2.017h.086c-.039.155-.068.235-.082.235s-.018-.087 0-.245h.086c.048.665.168 1.323.358 1.965.322 1.198.931 2.031.874 2.066zm-3.358-4.144a3.37 3.37 0 0 0-.759-.432 5.18 5.18 0 0 0-2.113-.165 13.38 13.38 0 0 0-2.123.352 5.98 5.98 0 0 1-.877.207 3.17 3.17 0 0 1 .838-.352 9.98 9.98 0 0 1 2.148-.397 4.68 4.68 0 0 1 2.177.232 1.35 1.35 0 0 1 .709.555zm-.794-1.005c0 .031-.444-.173-1.164-.415-1.886-.634-3.906-.785-5.868-.439l-1.217.238a1.04 1.04 0 0 1 .308-.129 7.6 7.6 0 0 1 .881-.243c1.983-.428 4.049-.274 5.943.443.285.106.562.231.831.372a1.29 1.29 0 0 1 .287.173zm6.715-4.236a24.23 24.23 0 0 1-.849-2.897 23.04 23.04 0 0 1-.659-2.941 22.78 22.78 0 0 1 .849 2.896c.285.965.505 1.948.659 2.942z"/><path d="M21.347 105.102c-.061.021-.304-.847-.942-1.733a7.67 7.67 0 0 0-1.386-1.406 1.23 1.23 0 0 1 .534.271c.395.278.738.622 1.013 1.016a3.79 3.79 0 0 1 .781 1.852zm-.039 38.154c-.021 0-.061-.319-.211-.886-.226-.795-.531-1.567-.909-2.306-.934-1.88-2.639-4.263-4.809-6.65l-2.997-3.427c-.795-.957-1.514-1.972-2.148-3.037a14.6 14.6 0 0 1-1.074-2.253l-.211-.647a1.42 1.42 0 0 1-.057-.229l.358.848a16.67 16.67 0 0 0 1.106 2.228 25.78 25.78 0 0 0 2.148 2.995l3.008 3.413c2.195 2.38 3.888 4.791 4.801 6.7a11.32 11.32 0 0 1 .856 2.359 5.84 5.84 0 0 1 .122.667 1.05 1.05 0 0 1 .018.225z"/><path d="M32.025 131.378a4.88 4.88 0 0 1-.559.309 12.33 12.33 0 0 0-1.457.946 16.62 16.62 0 0 0-1.912 1.711l-2.07 2.37-3.52 4.502-.881 1.483a4.53 4.53 0 0 1-.311.556c.012-.055.03-.108.054-.158l.186-.433c.248-.522.528-1.029.838-1.518.766-1.258 2.073-2.812 3.484-4.57l2.091-2.373a15.7 15.7 0 0 1 1.958-1.697c.473-.345.976-.647 1.504-.903l.437-.191c.051-.018.104-.03.157-.034z"/><path d="M32.225 135.231c-.39.086-.786.142-1.185.169-.953.098-1.895.28-2.814.545-.903.292-1.75.73-2.506 1.296-.58.443-.852.806-.881.784s.046-.105.175-.267c.187-.225.394-.433.619-.622.751-.614 1.615-1.08 2.546-1.374a13.06 13.06 0 0 1 2.864-.496 6.76 6.76 0 0 1 1.181-.035z"/><path d="M25.173 137.603c-.065-.035.473-.836.888-1.915s.48-2.042.548-2.033a1.83 1.83 0 0 1-.018.627c-.062.502-.182.996-.358 1.472a7.09 7.09 0 0 1-.687 1.35 1.91 1.91 0 0 1-.372.499zm10.31-16.566a1.04 1.04 0 0 1-.19.099l-.559.25-.874.404-1.131.586-.648.353-.684.421c-.476.285-.956.636-1.464.991-1.084.806-2.106 1.69-3.058 2.643a26.98 26.98 0 0 0-2.585 3.091l-.96 1.472-.408.686-.358.647c-.233.407-.397.797-.559 1.132l-.383.871-.233.555a1.26 1.26 0 0 1-.093.191.74.74 0 0 1 .054-.205l.201-.569.358-.886.534-1.149.337-.658.401-.703c.269-.485.605-.97.949-1.49a23.97 23.97 0 0 1 5.686-5.776l1.486-.984.691-.415.659-.351c.415-.235.813-.404 1.153-.562a9.28 9.28 0 0 1 .892-.38l.573-.215a.87.87 0 0 1 .215-.049z"/><path d="M27.012 126.612a1.31 1.31 0 0 1 .465-.682 2.95 2.95 0 0 1 1.88-.703c.677-.003 1.347.125 1.973.38a2.79 2.79 0 0 1 .748.351c-.271-.051-.536-.128-.791-.229a6.21 6.21 0 0 0-1.926-.316c-.648.017-1.274.233-1.79.619a5.56 5.56 0 0 0-.558.58zm-1.27 1.282c.252-.543.432-1.116.534-1.704.038-.594-.002-1.191-.118-1.775.021 0 .125.169.218.496a3.46 3.46 0 0 1-.304 2.551c-.165.292-.311.447-.329.432zm-13.804 17.281c.293 5.089 1.855 10.264 4.257 15.498h10.458c2.292-5.182 3.745-10.349 4.003-15.498H11.938z"/></g><g class="H"><path d="M28.953 153.397c0 .052-3.441.094-7.684.094s-7.68-.042-7.68-.094 3.437-.095 7.68-.095l7.684.095zm-.233 1.842c0 .052-3.222.098-7.204.098s-7.2-.046-7.2-.098 3.222-.095 7.2-.095l7.204.095zm-12.354-6.736a28.88 28.88 0 0 1 0 4.724 28.88 28.88 0 0 1 0-4.724z"/><path d="M21.96 148.503a29.83 29.83 0 0 1 0 4.893 30.98 30.98 0 0 1 0-4.893zm5.258-.042a32.27 32.27 0 0 1 0 4.992 32.27 32.27 0 0 1 0-4.992z"/><path d="M30.313 148.503c0 .053-4.035.096-9.008.096s-9.012-.043-9.012-.096 4.035-.094 9.012-.094l9.008.094z"/></g><g class="D"><path d="M21.901 56.813a1.65 1.65 0 0 1-.293.928 1.7 1.7 0 0 1-.769.611 1.74 1.74 0 0 1-.986.089 1.71 1.71 0 0 1-.87-.464c-.237-.235-.397-.535-.46-.86a1.64 1.64 0 0 1 .105-.966 1.68 1.68 0 0 1 .634-.746 1.72 1.72 0 0 1 2.15.225c.317.316.493.742.49 1.185zm-5.113-2.155a4.73 4.73 0 0 1 1.546-1.082 4.8 4.8 0 0 1 1.854-.398 4.81 4.81 0 0 1 1.864.35c.591.239 1.127.593 1.574 1.041.87.861 2.234-.464 1.36-1.325a6.67 6.67 0 0 0-2.195-1.446 6.77 6.77 0 0 0-2.596-.494c-.89.007-1.77.189-2.587.536s-1.555.85-2.171 1.481c-.849.875.498 2.218 1.35 1.336zm-3.506-3.473c.865-.947 1.92-1.707 3.099-2.234a9.53 9.53 0 0 1 3.752-.826c1.295-.018 2.58.227 3.774.72a9.39 9.39 0 0 1 3.163 2.146c.859.872 2.223-.457 1.361-1.325-1.069-1.098-2.356-1.969-3.782-2.558a11.46 11.46 0 0 0-4.507-.867c-1.547.018-3.074.346-4.486.967a11.28 11.28 0 0 0-3.722 2.642c-.838.886.508 2.229 1.35 1.336z"/></g><path d="M130.281 117.011H71.383v26.669h58.898v-26.669z" class="K"/><g class="D"><path d="M128.879 142.424H72.731v-24.009h56.148v24.009zm-55.78-.352h55.414v-23.295H73.099v23.295zm71.572-25.061h-14.39v26.669h14.39v-26.669z"/><path d="M72.914 125.842h55.783c.017-.003.032-.013.043-.026s.016-.029.016-.046-.006-.033-.016-.046-.026-.023-.043-.027H72.914c-.017.004-.032.013-.042.027s-.016.029-.016.046.006.033.016.046.026.023.042.026z"/><path d="M100.987 125.772c.156-2.412.162-4.832.018-7.244-.004-.017-.013-.032-.027-.043s-.03-.015-.047-.015a.08.08 0 0 0-.073.058c-.145 2.412-.139 4.832.018 7.244.003.012.01.023.02.03s.023.012.035.012.025-.004.035-.012.018-.018.021-.03zm15.015-3.621c.001.149-.043.294-.127.418a.76.76 0 0 1-.341.277.79.79 0 0 1-.441.044.76.76 0 0 1-.391-.205c-.107-.105-.18-.237-.21-.382s-.015-.297.043-.434a.74.74 0 0 1 .281-.336c.125-.083.273-.127.424-.127a.76.76 0 0 1 .291.056c.093.038.177.092.248.161s.127.151.165.243a.74.74 0 0 1 .058.285zm-29.273 0a.74.74 0 0 1-.128.415.76.76 0 0 1-.341.274c-.139.056-.291.071-.439.042s-.282-.099-.389-.203-.178-.238-.208-.382a.73.73 0 0 1 .043-.431c.057-.136.155-.253.279-.334a.76.76 0 0 1 .712-.069.75.75 0 0 1 .411.403c.038.091.058.187.058.285zm14.839 8.261c0 .148-.044.294-.127.417s-.202.22-.342.277a.77.77 0 0 1-.44.044.76.76 0 0 1-.392-.204.74.74 0 0 1-.21-.383c-.029-.145-.014-.296.043-.433a.75.75 0 0 1 .281-.336c.125-.082.273-.127.424-.127a.77.77 0 0 1 .292.056.75.75 0 0 1 .247.161c.071.069.127.151.166.242a.74.74 0 0 1 .058.286zm-23.145 13.27l-3.033 16.741h1.708l5.589-16.741h-4.264zm47.693 0l2.535 16.77h-1.704l-5.095-16.77h4.264zm11.387 0l2.875 16.77h-1.708l-5.432-16.77h4.265zm-35.989-5.716c0 .147-.044.291-.127.413a.76.76 0 0 1-.779.317c-.148-.028-.283-.099-.389-.203s-.179-.238-.208-.382a.74.74 0 0 1 .322-.765.77.77 0 0 1 .422-.125c.201 0 .394.078.536.218a.74.74 0 0 1 .223.527zm-28.6-3.863h55.783c.017-.004.032-.012.043-.026s.016-.03.016-.046-.006-.033-.016-.046a.08.08 0 0 0-.043-.026H72.914c-.017.004-.032.013-.042.026s-.016.029-.016.046.006.033.016.046.026.022.042.026zm39.59-26.147l-.019-3.56-17.809.091.019 3.561 17.809-.092z"/></g><path d="M114.641 116.932l-.03-5.53-19.849.102.029 5.53 19.85-.102z" class="K"/><g class="D"><path d="M110.824 116.899c-.097-.919-.129-1.842-.097-2.766-.032-.922 0-1.845.097-2.763a20.56 20.56 0 0 1 .096 2.763c.031.924-.002 1.847-.096 2.766zm.831 0c-.092-.919-.123-1.842-.093-2.766-.03-.922.001-1.845.093-2.763.097.918.129 1.841.097 2.763.032.924 0 1.847-.097 2.766zm-13.87 0a19.79 19.79 0 0 1-.097-2.766 19.78 19.78 0 0 1 .097-2.763c.097.918.129 1.841.097 2.763.032.924 0 1.847-.097 2.766zm.836 0c-.097-.919-.129-1.842-.097-2.766a19.78 19.78 0 0 1 .097-2.763c.097.918.129 1.841.097 2.763.032.924 0 1.847-.097 2.766zm1.817-2.657c0-.053 2.001-.099 4.472-.099l4.472.099c0 .052-2.002.094-4.472.094s-4.472-.06-4.472-.094z"/></g><path d="M122.091 111.37l-.019-3.56-24.494.125.019 3.561 24.494-.126z" class="L"/><g class="D"><path d="M118.594 110.934a1.19 1.19 0 0 1-.657-.187c-.196-.124-.349-.303-.441-.513a1.14 1.14 0 0 1-.073-.669c.043-.224.154-.432.318-.595s.373-.274.602-.319a1.2 1.2 0 0 1 .681.064c.216.087.4.236.529.426a1.14 1.14 0 0 1 .198.643c.001.15-.029.299-.086.438a1.14 1.14 0 0 1-.25.372 1.16 1.16 0 0 1-.376.25 1.19 1.19 0 0 1-.445.09zm-3.183-.797v-.71H99.016v.71h16.395z"/></g><use xlink:href="#B" class="I"/><g class="E F"><use xlink:href="#B"/></g><g class="I"><path d="M104.027 139.029s-8.03-9.438-7.937-18.462h3.248s-3.527-2.273-3.248-3.55.358-6.094.358-6.094l2.969.727s-2.227-1.093-2.507-2.812.648-9.736.648-9.736 3.616 3.728 4.726 7.553 4.031 8.281 3.175 19.931-1.432 12.443-1.432 12.443zm4.07.894s8.704-5.69 10.637-12.956l-2.61-.703s3.341-1.072 3.402-2.155 1.074-4.984 1.074-4.984l-2.55-.053s2.034-.397 2.643-1.729 1.647-7.969 1.647-7.969-3.738 2.225-5.482 5.058-5.102 5.786-7.01 15.351-1.751 10.14-1.751 10.14z"/></g><path d="M99.766 107.335a.49.49 0 0 1 .029.099l.072.288.258 1.121.386 1.775.473 2.359 1.074 6.169 1.049 7.599.745 7.631.379 6.25.086 2.404.036 1.815v1.149.299a.35.35 0 0 1 0 .102.35.35 0 0 1 0-.102c0-.078 0-.176-.018-.299l-.043-1.145-.068-1.815-.114-2.4-.419-6.243-.759-7.624-1.032-7.593-1.045-6.172-.448-2.362-.358-1.782-.222-1.129-.053-.292c-.007-.033-.01-.068-.008-.102z" class="B"/><path d="M102.919 144.823s-7.35-8.186-9.631-13.135l1.722-.704c-1.25.201-2.528-.327-3.498-1.124-.929-.849-1.73-1.823-2.377-2.894l2.27-.376c-2.089-.593-3.864-1.953-4.955-3.8 2.678.433 5.102 1.874 7.1 3.681a34.99 34.99 0 0 1 4.296 4.893c.643.844 1.201 1.747 1.668 2.696 1.232 2.506 3.405 7.744 3.405 10.763z" class="I"/><g class="B"><path d="M118.852 114.147c-.006.03-.017.058-.032.085l-.111.238-.444.911-1.626 3.35c-1.35 2.837-3.125 6.798-4.883 11.248s-3.155 8.566-4.1 11.557l-1.096 3.551-.293.966c-.032.102-.061.183-.083.25-.006.029-.017.058-.032.084-.005-.028-.005-.059 0-.087l.065-.257.261-.977c.226-.848.58-2.067 1.038-3.568a161.35 161.35 0 0 1 4.05-11.599c1.754-4.479 3.559-8.437 4.941-11.249l1.675-3.325.477-.897.129-.231c.019-.02.04-.036.064-.05zm-15.315 34.192a3.34 3.34 0 0 1-.114-.588l-.29-1.588c-.358-1.743-.857-3.454-1.493-5.118a33.62 33.62 0 0 0-2.323-4.808l-.852-1.382c-.118-.162-.221-.334-.308-.513.132.148.251.305.358.471.233.309.54.774.906 1.357a28.72 28.72 0 0 1 3.856 9.951l.232 1.606c.028.203.038.407.029.612z"/></g><g class="G"><path d="M113.236 146.395H97.148v3.224h16.088v-3.224z"/><path d="M98.684 149.614l1.74 10.838h9.721l1.621-10.838H98.684z"/></g><path d="M112.25 149.615c0 .053-3.044.091-6.803.091s-6.803-.038-6.803-.091 3.04-.092 6.803-.092l6.803.092z" class="B"/><path d="M93.568 91.361c19.927 0 36.081-15.966 36.081-35.66s-16.154-35.66-36.081-35.66-36.08 15.966-36.08 35.661 16.154 35.66 36.08 35.66z" class="G"/><g class="E F"><path d="M80.209 71.597c.19-1.55 1.432-3.125.716-4.527-.795-1.564-3.108-1.311-4.733-2.011-2.27-.981-2.975-3.75-4.458-5.705-1.332-1.758-4.436-3.673-6.803-3.146-1.711.383-2.299 1.385-2.478 2.619l-.215-.035c-.634-.067-1.378-.098-1.726-.615-.405-.601 0-1.49-.422-2.081-.261-.269-.566-.492-.902-.661-.308-.211-.569-.615-.383-.942s.555-.331.755-.58a.57.57 0 0 0 0-.703c-.652-.756-1.375.787-1.736 1.149-.092.095-.189.185-.29.271-.004.066-.004.131 0 .197v.64.64.517.52a6.11 6.11 0 0 1 1.114.538c.716.397 1.482.925 1.529 1.719-.012.13.014.261.075.376a.55.55 0 0 0 .337.169c.602.139 1.215.223 1.833.25l.05 2.165c-.018 1.026-.358 2.039-.247 3.055.168 1.434 1.185 2.612 2.07 3.765 3.366 4.415 5.181 9.491 7.161 14.672a29.76 29.76 0 0 0 1.264.928c.297.211.569.394.874.594s.576.373.888.562c.215.137.261.172.487.302.025.042-.029-.063 0 0-.795-1.708-.795-4.077.909-4.921a3.92 3.92 0 0 0 .967-.499c.759-.703.136-2.162.895-2.868.43-.394 1.096-.352 1.626-.601.956-.432 1.264-1.631 1.189-2.661s-.462-2.063-.344-3.09z"/></g><g class="E F"><path d="M59.731 45.494c.673-.566 1.837-.633 2.356.074.358.503.286 1.195.19 1.81l-.401 2.489a1.29 1.29 0 0 0 .036.745c.251.527 1.132.425 1.468-.046s.301-1.114.211-1.687-.211-1.181 0-1.719c.573-1.336 2.599-1.132 3.774-2 .716-.538 1.056-1.441 1.49-2.232s1.16-1.582 2.073-1.54c.308 0 .612.123.92.112.902-.028 1.432-1.325.788-1.951-.15-.118-.284-.254-.401-.404-.063-.156-.069-.329-.017-.49a.73.73 0 0 1 .303-.389 2.14 2.14 0 0 1 .96-.302l2.309-.351c.852-.13 1.941-.562 1.822-1.406-.104-.724-1.103-1.054-1.25-1.757-.013-.179-.045-.356-.097-.527-.236-.457-.938-.274-1.389-.028-.058-.159-.152-.303-.276-.421a1.12 1.12 0 0 0-.437-.257c-.164-.052-.338-.065-.508-.04a1.13 1.13 0 0 0-.473.186c-.458.351-.516 1.019-.673 1.575-.38 1.346-1.468 2.366-2.506 3.311-.315.355-.745.594-1.217.675-.473.021-.97-.478-.752-.886.147-.281.559-.443.519-.759-.057-.39-.755-.352-.892-.738.276-1.111 1.572-1.568 2.564-2.162 1.217-.729 2.142-1.846 2.621-3.164.052-.1.082-.21.087-.322a.78.78 0 0 0-.055-.329c-.147-.278-.53-.323-.856-.323-.766 0-1.719.091-1.998.791-.147.376-.039.801-.132 1.192-.265 1.167-1.894 1.297-2.886 1.989a8.94 8.94 0 0 1-1.121.854 4.28 4.28 0 0 1-1.518.239h-.415l-.852 1.262-.856 1.406a34.69 34.69 0 0 0-3.065 6.872l-.738 2.605c-.215.847-.358 1.687-.512 2.573a9.97 9.97 0 0 0 .652-2.228c.2-.851.48-1.747 1.149-2.302z"/></g><g class="E F"><path d="M90.047 29.472c.34-.439.24-1.055.462-1.578.358-.844 1.507-1.146 1.905-1.975.15-.32.19-.703.455-.949s.551-.236.788-.415c.534-.401.311-1.311-.254-1.663-1.414-.889-4.017.137-5.238 1.005-1.572 1.118-3.111 2.461-5.202 2.331-.576-.039-1.174-.193-1.715 0s-.874.998-.408 1.332c.258.186.627.137.917.267.541.246.594 1.012.329 1.536s-.738.914-1.049 1.406c-.301.487-.437 1.056-.387 1.624.005.199.05.395.135.577a1.47 1.47 0 0 0 .356.478c.648.51 1.64.074 2.191-.538s.931-1.406 1.643-1.824c.368-.192.764-.327 1.174-.401l2.725-.636c.447-.056.861-.259 1.174-.576z"/></g><g class="E F"><path d="M129.644 55.431l-.047-1.518-.1-1.511-.133-1.206-.182-1.318a31.98 31.98 0 0 0-.795-3.564c-.136-.461-.358-.953-.516-1.406l-.483-1.353c-.183-.352-.376-.664-.587-.991-2.005-3.114-4.916-5.557-7.122-8.538-.716-.97-1.278-1.758-2.549-1.961-1.883-.288-2.839.766-4.175-.988-.358-.471-.984-.907-1.518-.629l.43 1.121a.51.51 0 0 1 .043.25c-.029.264-.426.334-.655.19a2.24 2.24 0 0 1-.502-.633c-.156-.198-.353-.363-.578-.482s-.473-.192-.728-.212-.511.011-.753.093a1.85 1.85 0 0 0-.651.383 1 1 0 0 0-.187-.494 1.02 1.02 0 0 0-.414-.335c-.028.169-.091.331-.187.474a1.22 1.22 0 0 1-.367.358c-.147.093-.312.154-.484.179a1.26 1.26 0 0 1-.516-.03c-.108-.351.515-.404.734-.703s-.043-.657-.298-.886c-.691-.589-1.569-.924-2.484-.946-.577 0-1.2.095-1.701-.197-.29-.169-.498-.45-.795-.612-.634-.352-1.432-.028-2.066.32-.873.475-1.79 1.076-2.084 2.011s.379 2.194 1.371 2.074c.245-.076.503-.105.759-.084.167.073.308.194.405.347s.143.331.135.511a2.45 2.45 0 0 0 .169 1.055c.172.316.691.471.888.176.469-.439.411-1.174.293-1.796s-.247-1.322.129-1.831 1.468-.352 1.393.281c-.043.352-.473.64-.455 1.012s.491.583.877.566.784-.151 1.16-.053.684.576.412.851c-.476.527-1.708-.376-1.951.281-.072.165 0 .351 0 .538-.047.548-.748.749-1.307.816a3.12 3.12 0 0 1-1.661-.116c-.509-.236-.856-.893-.566-1.36-.078-.039-.163-.062-.25-.067s-.174.007-.257.036-.157.075-.22.134a.62.62 0 0 0-.147.21c-.12.327-.143.681-.064 1.019-.591-.13-1.124.351-1.461.851s-.666 1.055-1.242 1.241-1.382-.063-1.686.453c-.394.671.748 1.522.358 2.19-.229.376-.777.352-1.21.482-1.149.32-1.547 1.968-.766 2.847s2.345.829 3.172 0c.58-.576.813-1.389 1.228-2.084s1.207-1.318 1.994-1.093c.303.112.581.283.816.503l1.146.949c.247.2.515.453.49.766-.021.253-.222.45-.308.685-.24.678.759 1.322 1.389.953s.695-1.318.265-1.902c-.59-.805-1.933-1.209-1.897-2.207.684-.548 1.761.028 2.148.808s.412 1.691.748 2.492 1.279 1.518 2.066 1.128l-.612-2.074c.505-.369 1.074.703 1.679.527.358-.113.412-.629.251-.977s-.441-.636-.509-1.012c-.114-.685.663-1.297 1.365-1.184a1.8 1.8 0 0 1 .891.525c.238.258.392.579.444.923.028.273.089.543.183.801.265.538.941.703 1.503.925s1.146.777.913 1.329c-.111.239-.358.467-.275.703s.419.313.419.548c0 .155-.172.264-.323.323-.376.151-.787.204-1.152.376a1.04 1.04 0 0 0-.471.356 1.01 1.01 0 0 0-.195.551c.043.563.716.83 1.041 1.297s.265 1.03.459 1.536c.23.445.52.858.863 1.227.945 1.265 1.17 2.896 1.632 4.397.204.678.58 1.434 1.289 1.564.394.031.789-.045 1.142-.218 1.021-.397 2.084-.826 2.797-1.638s.959-2.144.222-2.946c-.086-.116-.214-.195-.358-.218a1.06 1.06 0 0 0-.537.183 1.56 1.56 0 0 1-.849.051 1.54 1.54 0 0 1-.745-.402 4.36 4.36 0 0 1-.945-1.406l-.845-1.673a1.01 1.01 0 0 1 .63-.15 1 1 0 0 1 .591.263 6.32 6.32 0 0 1 .834 1.009c.849 1.055 2.249 1.501 3.602 1.659a3.43 3.43 0 0 1 1.013.207c1.014.453 1.304 1.916 2.371 2.229.307.048.61.115.909.2.199.122.369.285.5.476a1.62 1.62 0 0 1 .259.635c.233.826.312 1.694.666 2.478s1.074 1.494 1.93 1.508a2.06 2.06 0 0 0 .779-.165c.245-.105.468-.257.653-.447.043-.773.097-1.575.097-2.359-.015-.137-.015-.299-.025-.461z"/></g><g class="E F"><path d="M115.043 70.131c-.537.102-.644.415-.938.805-.379.506-.924 1.016-1.271 1.519-.584.851-.057 2.179-.827 2.896a6.17 6.17 0 0 0-.498.401c-.139.189-.198.425-.163.656s.16.44.349.581c.199.13.431.202.67.206s.473-.059.677-.182a1.95 1.95 0 0 0 .823-1.107c.052-.333.195-.645.415-.903.444-.38 1.128-.099 1.712-.179 2.463-.341 1.403-5.15-.949-4.693z"/></g><g class="E F"><path d="M115.882 63.442c1.432-1.209 1.998-3.94.229-4.57-.67-.239-1.432-.046-2.105-.299-.867-.33-1.271-1.283-1.583-2.144l-2.467-6.763c-.494-1.357-1.246-2.932-2.699-3.132-.827-.112-1.626.274-2.446.418-2.818.506-7.558-6.194-9.703-1.684-.301-1.227-2.327-.766-2.975.323s-.788 2.527-1.815 3.283c-.784.576-1.933.612-2.571 1.339-.451.513-.53 1.234-.587 1.909l-.326 3.867c-.086 1.037-.157 2.148.358 3.055s1.894 1.406 2.678.703c.358-.323.512-.812.806-1.195a2.04 2.04 0 0 1 .947-.658c.374-.125.776-.14 1.159-.045.63.213 1.186.597 1.604 1.107 3.67 3.867 4.984 9.403 5.145 14.693.032.97.032 1.965.394 2.865.426 1.055 1.321 1.912 1.586 3.016.204.851 0 1.782.383 2.577.684 1.459 2.965 1.518 4.207.474s1.672-2.731 1.926-4.32.412-3.258 1.318-4.594c.562-.833 1.386-1.497 1.79-2.415.548-1.283.143-2.812.652-4.106.673-1.729 2.671-2.496 4.096-3.705z"/></g><path d="M70.268 124.035c-1.964.157-3.929-.282-5.631-1.255a9.52 9.52 0 0 1-3.885-4.195c-.827-1.756-1.085-3.718-.74-5.623s1.278-3.659 2.671-5.026 3.181-2.282 5.121-2.621 3.939-.083 5.727.729 3.279 2.145 4.271 3.816a9.31 9.31 0 0 1 1.277 5.529c-.188 2.231-1.177 4.326-2.79 5.909s-3.747 2.554-6.021 2.737z" class="H"/><g class="B"><path d="M70.266 124.035l.154-.028.455-.064a6.26 6.26 0 0 0 .716-.144 7.97 7.97 0 0 0 .97-.278c2.046-.707 3.79-2.068 4.952-3.866a9.45 9.45 0 0 0 .945-1.866 10.28 10.28 0 0 0 .311-1.055l.118-.559.075-.579a4.04 4.04 0 0 0 .032-.591v-.601l-.114-1.223-.125-.619-.068-.309-.1-.306-.2-.619-.269-.598-.136-.302-.168-.292-.358-.58-.408-.548-.204-.278-.236-.256a9.29 9.29 0 0 0-2.177-1.81l-.637-.352-.673-.299-.358-.144-.358-.108c-.235-.083-.474-.154-.716-.212a10.71 10.71 0 0 0-3.04-.242c-1.949.168-3.799.914-5.304 2.141a9.43 9.43 0 0 0-3.121 4.723 9.48 9.48 0 0 0-.329 2.542 3.47 3.47 0 0 0 .029.619l.054.611.247 1.168a9.48 9.48 0 0 0 2.105 3.788 9.84 9.84 0 0 0 2.893 2.173l.716.313c.229.098.466.154.684.232.401.127.812.226 1.228.295a9.65 9.65 0 0 0 1.747.138h.612-.154l-.458.02c-.588.023-1.177-.013-1.758-.105a8.51 8.51 0 0 1-1.242-.285l-.695-.225-.716-.31a9.74 9.74 0 0 1-3.206-2.472c-.88-1.036-1.527-2.243-1.9-3.542-.107-.383-.175-.783-.258-1.184l-.054-.618c-.027-.209-.038-.42-.032-.63a9.25 9.25 0 0 1 .844-4.003 9.41 9.41 0 0 1 2.496-3.273 9.86 9.86 0 0 1 5.614-2.32 10.71 10.71 0 0 1 3.097.249l.734.215.358.112c.122.042.233.099.358.148l.688.306.644.351a9.55 9.55 0 0 1 2.22 1.853l.236.26.211.281.412.559.358.594.168.296.14.309.272.612c.093.203.132.418.201.625l.1.313c.029.101.047.21.068.316l.129.629.111 1.244-.018.612a4.73 4.73 0 0 1-.036.601l-.079.587c-.025.193-.082.38-.122.566a10.95 10.95 0 0 1-.322 1.083 9.84 9.84 0 0 1-.97 1.891 9.72 9.72 0 0 1-5.038 3.856 8.34 8.34 0 0 1-.985.264 5.99 5.99 0 0 1-.716.126l-.455.046a.87.87 0 0 1-.19.028zm62.222-64.129a17.42 17.42 0 0 1 .079-2.081 15.87 15.87 0 0 1 .15-2.077 9.23 9.23 0 0 1 .036 2.088c-.007.698-.095 1.393-.265 2.07zm-1.812 8.119a17.31 17.31 0 0 1 .53-2.014 17.64 17.64 0 0 1 .602-1.997 8.89 8.89 0 0 1-.419 2.046 9.26 9.26 0 0 1-.713 1.965zm-3.559 7.552a16.47 16.47 0 0 1 .963-1.852 17.31 17.31 0 0 1 1.024-1.821 14.55 14.55 0 0 1-1.987 3.673zm-5.125 6.601a16.82 16.82 0 0 1 1.346-1.606 16.46 16.46 0 0 1 1.4-1.564 9.1 9.1 0 0 1-1.26 1.68c-.436.551-.935 1.051-1.486 1.49zm-6.449 5.385a16.35 16.35 0 0 1 1.662-1.29c.545-.444 1.116-.856 1.711-1.234a9.22 9.22 0 0 1-1.597 1.378c-.547.445-1.143.829-1.776 1.146zm-7.481 3.898a17.18 17.18 0 0 1 1.909-.907 17.53 17.53 0 0 1 1.94-.844 9.62 9.62 0 0 1-1.861 1.009 9.48 9.48 0 0 1-1.988.742zm-8.156 2.218c.677-.2 1.366-.36 2.063-.478a16.72 16.72 0 0 1 2.08-.411 15.06 15.06 0 0 1-4.143.889zm-8.445.446c.704-.072 1.413-.084 2.12-.035a12.45 12.45 0 0 1 2.12.035c-1.406.197-2.833.197-4.239 0zM83.094 92.8a17.5 17.5 0 0 1 2.08.411 18.31 18.31 0 0 1 2.062.478 9.47 9.47 0 0 1-2.102-.299 9.63 9.63 0 0 1-2.041-.59zm-7.863-3.09c.662.242 1.309.524 1.937.844a16.79 16.79 0 0 1 1.908.907 15.27 15.27 0 0 1-3.845-1.758v.007zm-7-4.667a18.05 18.05 0 0 1 1.708 1.23 16.21 16.21 0 0 1 1.661 1.29c-.638-.314-1.239-.697-1.79-1.142a9.29 9.29 0 0 1-1.579-1.378zm-5.825-6.036a17.68 17.68 0 0 1 1.4 1.564 17.47 17.47 0 0 1 1.346 1.606 9.12 9.12 0 0 1-1.486-1.487c-.484-.512-.907-1.077-1.26-1.684zm-4.371-7.119a16.53 16.53 0 0 1 1.028 1.824 17.21 17.21 0 0 1 .963 1.863c-.442-.542-.821-1.132-1.128-1.758a9.34 9.34 0 0 1-.863-1.93zm-2.703-7.873a16.97 16.97 0 0 1 .598 1.997c.219.66.397 1.333.533 2.014-.314-.626-.555-1.285-.716-1.965a8.83 8.83 0 0 1-.415-2.046zm-.908-8.264c.093.689.144 1.383.15 2.078a16.39 16.39 0 0 1 .075 2.081 9.29 9.29 0 0 1-.261-2.07 9 9 0 0 1 .036-2.088zm.907-8.264a16.37 16.37 0 0 1-.304 2.06 16.19 16.19 0 0 1-.376 2.049 9.03 9.03 0 0 1 .193-2.078 9.19 9.19 0 0 1 .487-2.032zm2.702-7.878a16.39 16.39 0 0 1-.752 1.947c-.232.655-.505 1.296-.816 1.919a8.84 8.84 0 0 1 .645-1.989c.235-.658.545-1.288.924-1.877zm4.371-7.118c-.354.602-.742 1.182-1.164 1.74a17.08 17.08 0 0 1-1.217 1.701 9.14 9.14 0 0 1 1.074-1.803 9.3 9.3 0 0 1 1.307-1.638zm5.824-6.031a17.7 17.7 0 0 1-1.514 1.459c-.49.501-1.013.971-1.565 1.406a9.42 9.42 0 0 1 1.432-1.536c.495-.504 1.048-.949 1.647-1.329zm7.001-4.665a18.06 18.06 0 0 1-1.79 1.107c-.59.386-1.202.739-1.833 1.055a9.16 9.16 0 0 1 1.736-1.202c.59-.389 1.223-.711 1.887-.96zm7.859-3.082c-.65.272-1.316.507-1.994.703a17.31 17.31 0 0 1-2.019.622c.62-.339 1.277-.608 1.959-.801a9.38 9.38 0 0 1 2.055-.524zm8.372-1.339a17.81 17.81 0 0 1-2.105.26c-.698.104-1.403.166-2.109.186a15.33 15.33 0 0 1 4.214-.446zm8.441.447a18.18 18.18 0 0 1-2.112-.19 17.56 17.56 0 0 1-2.105-.256 9.43 9.43 0 0 1 2.127.077 9.33 9.33 0 0 1 2.091.369zm8.163 2.217a17.34 17.34 0 0 1-2.019-.633 17.37 17.37 0 0 1-1.998-.703 9.57 9.57 0 0 1 2.055.524 9.35 9.35 0 0 1 1.962.812zm7.473 3.898a17.38 17.38 0 0 1-1.833-1.055c-.619-.332-1.217-.701-1.79-1.104a9.36 9.36 0 0 1 1.894.946 9.11 9.11 0 0 1 1.729 1.213zm6.448 5.382a17.31 17.31 0 0 1-1.564-1.406c-.534-.454-1.039-.94-1.511-1.455a9.36 9.36 0 0 1 1.639 1.322c.537.458 1.018.975 1.436 1.54zm5.134 6.612c-.444-.541-.852-1.109-1.221-1.701-.425-.561-.814-1.148-1.164-1.758a9.15 9.15 0 0 1 1.318 1.638 9.32 9.32 0 0 1 1.067 1.821zm3.558 7.543a16.9 16.9 0 0 1-.82-1.923 17.66 17.66 0 0 1-.752-1.944 9.08 9.08 0 0 1 .927 1.877c.29.638.506 1.305.645 1.99zm1.814 8.116c-.162-.675-.281-1.36-.359-2.049a16.29 16.29 0 0 1-.304-2.06 9.3 9.3 0 0 1 .491 2.032 8.95 8.95 0 0 1 .172 2.078z"/><path d="M73.017 105.805c-.046-.021 1.382-3.206 3.194-7.115l3.362-7.03c.047.032-1.382 3.206-3.194 7.115l-3.362 7.03z"/></g><path d="M70.377 114.777a2.52 2.52 0 0 0 1.108-.928 2.45 2.45 0 0 0 .403-1.375c.019-.317-.028-.634-.138-.933a2.33 2.33 0 0 0-.502-.804c-.222-.231-.489-.417-.785-.544s-.617-.193-.94-.194-.644.062-.942.186-.567.307-.79.537a2.32 2.32 0 0 0-.51.799 2.3 2.3 0 0 0-.147.932c-.009.491.13.973.399 1.387a2.53 2.53 0 0 0 1.115.937c-3.659.541-3.495 4.447-3.495 4.447l8.658.038s.197-3.948-3.434-4.485z" class="G"/><path d="M141.878 100.34a9.8 9.8 0 0 1-5.731.718c-1.94-.343-3.727-1.262-5.118-2.632s-2.32-3.129-2.661-5.035a9.3 9.3 0 0 1 .753-5.624 9.52 9.52 0 0 1 3.897-4.188c1.705-.971 3.672-1.406 5.637-1.244s3.831.911 5.347 2.148 2.61 2.9 3.132 4.766c.602 2.16.405 4.46-.558 6.491a9.55 9.55 0 0 1-4.698 4.599z" class="H"/><path d="M141.88 100.34c.04-.032.085-.06.132-.081l.405-.211c.218-.115.429-.242.634-.38a7.98 7.98 0 0 0 .816-.591 9.84 9.84 0 0 0 1.862-2 9.55 9.55 0 0 0 1.675-5.361c-.005-.371-.031-.742-.078-1.111l-.083-.566-.136-.566a4.01 4.01 0 0 0-.172-.566l-.197-.569-.537-1.114-.333-.538-.172-.267-.2-.253-.405-.513-.462-.471-.232-.239-.258-.218-.523-.429-.573-.38-.293-.19-.308-.162a9.48 9.48 0 0 0-2.682-.96l-.716-.123-.738-.056-.358-.021h-.358c-.25.018-.501 0-.752.046-1.013.121-2.002.389-2.935.794-1.783.806-3.271 2.128-4.266 3.789a9.29 9.29 0 0 0-1.298 5.501c.078.855.272 1.695.576 2.499.066.197.148.388.243.573l.262.552.641 1.016c.864 1.186 1.995 2.16 3.304 2.847a9.91 9.91 0 0 0 3.477 1.072l.777.053h.716c.423-.016.844-.06 1.26-.134a9.47 9.47 0 0 0 1.705-.481l.429-.155c.048-.021.099-.036.151-.045 0 0-.047.025-.143.063l-.423.172c-.545.221-1.111.388-1.69.496-.415.087-.837.144-1.26.172l-.716.021-.792-.049c-1.365-.142-2.685-.566-3.873-1.243a9.71 9.71 0 0 1-3.019-2.687c-.236-.323-.437-.678-.655-1.03l-.269-.562a4.11 4.11 0 0 1-.25-.58c-.312-.817-.512-1.672-.595-2.541a9.46 9.46 0 0 1 1.299-5.596 9.72 9.72 0 0 1 4.315-3.871c.954-.41 1.964-.683 2.997-.808.251-.039.509-.028.763-.046h.379c.129 0 .255 0 .38.021l.752.056.737.127c.956.192 1.876.527 2.729.991l.315.165.293.193.584.39.533.439.262.221.236.243.469.482.412.524.2.257c.065.088.119.183.176.274l.34.548.537 1.132.201.58c.07.188.127.381.171.576l.133.58c.043.193.057.383.082.573a9.2 9.2 0 0 1 .075 1.125c-.005.71-.089 1.417-.25 2.109a9.43 9.43 0 0 1-3.405 5.276 7.46 7.46 0 0 1-.831.58c-.207.131-.422.247-.644.351l-.412.198-.143.084z" class="B"/><path d="M138.749 91.524c.453-.197.838-.52 1.106-.929a2.45 2.45 0 0 0 .404-1.373c.02-.317-.027-.635-.137-.934a2.32 2.32 0 0 0-.502-.804c-.221-.232-.488-.417-.785-.544s-.616-.194-.94-.195a2.42 2.42 0 0 0-.942.185 2.37 2.37 0 0 0-.79.536 2.33 2.33 0 0 0-.511.799 2.3 2.3 0 0 0-.147.932c-.011.492.127.975.397 1.389a2.51 2.51 0 0 0 1.117.938c-3.67.541-3.494 4.44-3.494 4.44l8.654.039s.197-3.94-3.43-4.478z" class="G"/><path d="M130.243 85.985c-.032.039-1.593-1.121-3.487-2.594l-3.369-2.738c.032-.039 1.593 1.121 3.483 2.594l3.373 2.738z" class="B"/><path d="M49.397 25.279a9.77 9.77 0 0 1-5.631-1.256c-1.702-.975-3.058-2.439-3.885-4.194s-1.086-3.718-.741-5.622 1.277-3.659 2.67-5.026 3.18-2.283 5.12-2.621 3.938-.085 5.727.727 3.279 2.143 4.272 3.814a9.31 9.31 0 0 1 1.279 5.528 9.39 9.39 0 0 1-2.79 5.911c-1.614 1.584-3.747 2.555-6.021 2.739z" class="H"/><path d="M49.396 25.28c.05-.014.102-.024.154-.028l.455-.067c.242-.033.481-.081.716-.144a7.58 7.58 0 0 0 .97-.278c1.351-.47 2.581-1.227 3.6-2.216a9.55 9.55 0 0 0 2.297-3.509 9.27 9.27 0 0 0 .312-1.055l.118-.559.075-.576a4.63 4.63 0 0 0 .036-.591v-.601l-.111-1.227-.129-.619-.068-.309-.1-.306-.2-.615-.247-.626-.136-.302-.165-.288-.358-.584-.405-.548-.208-.278-.236-.253c-.627-.71-1.361-1.322-2.177-1.814l-.637-.351-.673-.299-.358-.144-.358-.112-.716-.211c-.995-.225-2.018-.305-3.036-.239-2.008.175-3.91.966-5.435 2.26-1.422 1.216-2.452 2.813-2.965 4.594a9.5 9.5 0 0 0-.329 2.545 3.97 3.97 0 0 0 .029.619l.054.608.247 1.167a9.44 9.44 0 0 0 2.109 3.789 9.8 9.8 0 0 0 2.893 2.172l.716.316c.229.098.465.155.684.229a9.02 9.02 0 0 0 1.228.299c.577.098 1.162.144 1.747.137h.458a.72.72 0 0 1 .154 0 .84.84 0 0 1-.154 0l-.458.021a9.08 9.08 0 0 1-3-.387l-.695-.225-.716-.313a9.73 9.73 0 0 1-3.207-2.47 9.52 9.52 0 0 1-1.899-3.541c-.107-.383-.175-.784-.254-1.188l-.057-.619c-.027-.209-.038-.419-.032-.629a9.67 9.67 0 0 1 .329-2.587c.533-1.889 1.642-3.572 3.178-4.824s3.426-2.012 5.415-2.178c1.038-.067 2.08.016 3.093.246.254.049.491.144.716.214l.358.112.358.148.687.306.637.383c.831.502 1.578 1.125 2.216 1.849l.24.26.208.281.412.563.358.591.168.295.14.309.272.612.2.629.1.309c.029.106.047.211.068.316l.129.629.111 1.248v.612c.003.2-.009.399-.036.598l-.079.587c-.025.193-.082.38-.122.569-.088.366-.196.728-.322 1.082a9.64 9.64 0 0 1-.97 1.891c-.677 1.029-1.55 1.921-2.571 2.626-.771.529-1.615.947-2.506 1.241-.322.109-.651.196-.985.26a4.85 4.85 0 0 1-.734.127l-.455.049a.87.87 0 0 1-.147.011z" class="B"/><path d="M49.514 15.991a2.53 2.53 0 0 0 1.106-.93 2.46 2.46 0 0 0 .405-1.373 2.3 2.3 0 0 0-.129-.944c-.108-.303-.279-.58-.501-.815s-.491-.423-.79-.552-.622-.196-.948-.198a2.42 2.42 0 0 0-.95.189c-.3.126-.571.312-.795.545s-.397.509-.508.811a2.3 2.3 0 0 0-.137.942c-.009.491.13.973.399 1.387s.658.739 1.115.937c-3.659.541-3.491 4.446-3.491 4.446l8.654.039s.208-3.955-3.43-4.485z" class="G"/><path d="M64.298 30.231c-.036.039-2.148-1.606-4.69-3.673l-4.572-3.814c.032-.039 2.13 1.607 4.69 3.673l4.572 3.814z" class="B"/><path d="M111.893 13.711c-1.417.114-2.835-.201-4.063-.904s-2.207-1.759-2.805-3.025-.784-2.682-.535-4.056.921-2.64 1.926-3.627S108.711.452 110.11.208a7.06 7.06 0 0 1 4.132.526c1.29.586 2.366 1.547 3.081 2.753s1.038 2.598.921 3.989c-.135 1.609-.848 3.119-2.011 4.261s-2.701 1.842-4.34 1.975z" class="H"/><path d="M111.895 13.711c.036-.012.073-.019.111-.021l.326-.053a4.23 4.23 0 0 0 .523-.105 5.82 5.82 0 0 0 .698-.172 7.07 7.07 0 0 0 2.585-1.602c.733-.713 1.297-1.575 1.654-2.525a6.88 6.88 0 0 0 .358-1.589 6.57 6.57 0 0 0-.598-3.498 7.63 7.63 0 0 0-.462-.844l-.293-.394-.147-.2-.168-.183c-.453-.509-.982-.948-1.569-1.301-.607-.365-1.267-.638-1.958-.808a7.55 7.55 0 0 0-2.184-.172c-1.273.102-2.492.55-3.52 1.296s-1.822 1.758-2.295 2.923-.604 2.437-.381 3.671a6.68 6.68 0 0 0 1.649 3.317c.584.64 1.285 1.168 2.066 1.557l.512.229c.168.07.336.109.494.165.289.093.584.165.884.214.415.073.835.108 1.257.106h.329.115-.111-.333c-.733.03-1.465-.062-2.166-.271l-.505-.162-.523-.225c-.811-.386-1.54-.919-2.148-1.571-.734-.793-1.269-1.742-1.565-2.773-.272-.977-.322-2.002-.145-3s.573-1.946 1.165-2.777a6.99 6.99 0 0 1 2.255-2.029 7.13 7.13 0 0 1 2.919-.897 7.83 7.83 0 0 1 2.242.179 7.18 7.18 0 0 1 2.044.861c.601.364 1.142.816 1.604 1.339l.172.19.154.204.297.408a8.19 8.19 0 0 1 .473.865c.762 1.64.84 3.507.214 5.202a6.84 6.84 0 0 1-1.69 2.561 7.01 7.01 0 0 1-2.656 1.587 6 6 0 0 1-.716.19 4.54 4.54 0 0 1-.53.088l-.33.032c-.036.002-.072-.002-.107-.011z" class="B"/><path d="M111.973 7.032c.324-.143.599-.377.79-.672s.289-.638.284-.987a1.67 1.67 0 0 0-.094-.679c-.078-.218-.201-.417-.361-.586a1.72 1.72 0 0 0-.568-.397 1.75 1.75 0 0 0-1.367-.007 1.71 1.71 0 0 0-.572.391 1.67 1.67 0 0 0-.367.582 1.65 1.65 0 0 0-.101.678c-.006.356.096.706.294 1.005s.482.533.816.672c-2.639.39-2.507 3.206-2.507 3.206l6.241.032s.129-2.837-2.488-3.237z" class="G"/><path d="M109.505 13.504c-.347 1.02-.753 2.02-1.218 2.995-.408.999-.874 1.974-1.396 2.921.351-1.02.76-2.02 1.225-2.995a29.15 29.15 0 0 1 1.389-2.921z" class="B"/><path d="M145.496 52.958a9.05 9.05 0 0 1-5.217-1.163 8.82 8.82 0 0 1-3.6-3.885 8.61 8.61 0 0 1-.686-5.208 8.7 8.7 0 0 1 2.473-4.657 8.97 8.97 0 0 1 4.743-2.428c1.798-.314 3.649-.078 5.306.674s3.037 1.986 3.957 3.534a8.63 8.63 0 0 1 1.184 5.122c-.174 2.068-1.09 4.007-2.584 5.474a9 9 0 0 1-5.576 2.537z" class="H"/><path d="M145.496 52.957a.95.95 0 0 1 .14-.028l.419-.06c.228-.03.454-.075.677-.134a7.71 7.71 0 0 0 .898-.257c.807-.282 1.57-.674 2.267-1.163a8.69 8.69 0 0 0 2.511-2.702 8.5 8.5 0 0 0 1.144-3.481c.163-1.541-.102-3.097-.766-4.503l-.129-.281c-.046-.091-.1-.179-.154-.267l-.315-.538-.376-.524-.19-.257-.218-.235a8.54 8.54 0 0 0-2.019-1.677c-.775-.477-1.621-.833-2.507-1.054-.92-.21-1.867-.285-2.81-.225-1.804.155-3.517.846-4.911 1.982s-2.4 2.661-2.887 4.374c-.209.767-.313 1.558-.308 2.352a3.43 3.43 0 0 0 .028.573c0 .19.033.376.047.562l.229 1.083a8.74 8.74 0 0 0 1.951 3.515c.757.828 1.666 1.51 2.678 2.011l.659.292c.215.091.433.144.634.214a8.42 8.42 0 0 0 1.139.274 8.87 8.87 0 0 0 1.618.13h.422l-.422.018a8.1 8.1 0 0 1-1.629-.095c-.39-.06-.776-.147-1.153-.26l-.641-.211-.673-.285a9.14 9.14 0 0 1-2.728-2.021 8.83 8.83 0 0 1-2.005-3.554c-.097-.351-.162-.724-.237-1.1l-.053-.573a4.38 4.38 0 0 1-.029-.584 9.15 9.15 0 0 1 .304-2.397c.494-1.749 1.52-3.308 2.941-4.468a9.16 9.16 0 0 1 5.011-2.024c.961-.062 1.926.015 2.865.228a9.26 9.26 0 0 1 2.574 1.055 8.77 8.77 0 0 1 2.055 1.715l.222.243.194.26.383.52.322.548.154.274.129.288c.675 1.434.939 3.021.766 4.591-.185 1.67-.854 3.252-1.927 4.561a8.95 8.95 0 0 1-4.128 2.821c-.296.102-.6.183-.909.243-.224.054-.451.093-.68.116l-.423.046-.154.07z" class="B"/><path d="M145.598 44.381a2.33 2.33 0 0 0 1.027-.86c.249-.38.378-.822.373-1.274a2.15 2.15 0 0 0-.126-.866c-.102-.277-.26-.531-.465-.746s-.453-.387-.728-.505a2.24 2.24 0 0 0-.872-.181c-.3-.002-.597.057-.874.173a2.22 2.22 0 0 0-.733.498 2.17 2.17 0 0 0-.472.742c-.104.276-.15.571-.134.865-.01.455.119.903.369 1.286s.609.686 1.034.869c-3.39.503-3.222 4.12-3.222 4.12l8.016.035s.169-3.656-3.193-4.155z" class="G"/><path d="M136.122 46.38a13.43 13.43 0 0 1-2.148.636c-.713.212-1.442.366-2.181.46a13.46 13.46 0 0 1 2.149-.636c.712-.212 1.442-.366 2.18-.46z" class="B"/><path d="M30.507 144.929l-5.643 7.276-2.764 7.005a.93.93 0 0 1-.21.32c-.092.092-.202.163-.323.211a.96.96 0 0 1-.382.067c-.131-.004-.259-.033-.377-.088a.93.93 0 0 1-.351-.273c-.093-.118-.155-.255-.182-.402-.358-1.901-1.604-8.896-1.16-9.403.512-.59 5.421-8.053 5.421-8.053l5.972 3.34z" class="G"/><g opacity=".6" class="C"><path d="M20.822 159.713l-1.328-10.576-.233.313c-.2.27-.295.602-.268.935.068.889.319 3.349 1.267 8.636a.92.92 0 0 0 .188.421c.098.123.225.22.37.282l.004-.011z"/></g><g opacity=".6" class="C"><path d="M22.801 147.849c.048.135.042.282-.016.413a.57.57 0 0 1-.299.29.56.56 0 0 1-.421-.004c-.134-.056-.24-.162-.295-.294a.59.59 0 0 1 .027-.427.61.61 0 0 1 .309-.301c.144-.036.297-.015.426.057a.57.57 0 0 1 .265.333"/></g><g class="B"><path d="M21.486 155.259a3.04 3.04 0 0 1 1.074-.105 2.93 2.93 0 0 1 .988.457c.018 0-.032-.141-.19-.292-.215-.186-.48-.308-.763-.351a1.48 1.48 0 0 0-.841.095c-.19.076-.283.179-.269.196zm-.201 1.371l.902.158c.473.158.756.468.802.429s-.197-.436-.716-.618a1.08 1.08 0 0 0-.498-.102 1.09 1.09 0 0 0-.49.133zm.137-3.349a9.23 9.23 0 0 1 1.407.151 10.02 10.02 0 0 1 1.318.531c-.314-.384-.759-.644-1.253-.731a2.16 2.16 0 0 0-1.471.049zm1.527-2.349c0 .057.526.183 1.074.549s.888.801.938.766a1.82 1.82 0 0 0-.813-.931 1.85 1.85 0 0 0-1.2-.384zm1.598-2.175a4.82 4.82 0 0 1 1.146.544 4.52 4.52 0 0 1 .816.957c.021 0 0-.158-.093-.38a2.03 2.03 0 0 0-.598-.735 2.11 2.11 0 0 0-.874-.393c-.244-.039-.398-.018-.398.007z"/><path d="M25.982 148.879s.1-.08.218-.274a2.39 2.39 0 0 0 .312-.893c.053-.228.028-.466-.072-.678-.04-.066-.099-.119-.17-.153s-.15-.043-.228-.03a.62.62 0 0 0-.358.249 1.31 1.31 0 0 0-.192.875c.041.304.189.586.418.795a1.58 1.58 0 0 0 .825.375c.307.042.619-.007.898-.139.071-.035.134-.084.183-.144a.53.53 0 0 0 .103-.208.36.36 0 0 0-.039-.223.37.37 0 0 0-.165-.159c-.214-.092-.449-.126-.68-.1-.323.013-.641.084-.938.208-.211.088-.311.162-.304.172a4.4 4.4 0 0 1 1.221-.214 1.22 1.22 0 0 1 .591.102c.039.018.071.048.091.085s.027.08.02.123c-.016.047-.042.091-.077.128s-.077.066-.124.086a1.42 1.42 0 0 1-.777.106c-.264-.039-.511-.152-.712-.324-.191-.177-.315-.413-.354-.667a1.13 1.13 0 0 1 .142-.739c.057-.089.145-.153.247-.183.042-.01.087-.007.127.011s.073.046.095.084a.92.92 0 0 1 .072.573 3.52 3.52 0 0 1-.372 1.156z"/></g><path d="M36.368 148.805l.573 7.421s-7.519 2.523-7.519 3.906l14.712-.033-.408-11.599-7.358.305z" class="G"/><g opacity=".6" class="C"><path d="M41.458 155.425c.143.038.267.125.349.247s.116.267.095.411a.57.57 0 0 1-.242.346.59.59 0 0 1-.417.09c-.153-.039-.285-.134-.372-.263s-.12-.287-.094-.44c.048-.145.151-.266.288-.337a.61.61 0 0 1 .446-.043"/></g><g opacity=".6" class="C"><path d="M44.116 160.099l-.043-1.17-14.196.516c-.149.078-.276.191-.37.329s-.151.296-.167.461l14.776-.136z"/></g><g class="B"><path d="M36.696 156.163c0 .069.358.087.716.302s.562.499.627.47-.057-.436-.501-.685-.859-.151-.841-.087zm-1.512.686c0 .07.301.176.559.467s.337.601.408.594.104-.407-.222-.758-.745-.376-.745-.303zm-.804 1.844c.064 0 .15-.352-.05-.703s-.541-.52-.569-.461.19.261.358.573.19.587.261.591zm2.377-4.234c.032.063.358-.049.766-.036s.716.123.763.06-.279-.298-.759-.306-.806.226-.77.282z"/></g><g class="E F"><path d="M36.484 150.276l.1 1.321 7.222-.345-.039-1.194-7.283.218z"/></g><g class="B"><path d="M36.68 152.958c.243.058.497.046.734-.032a3.26 3.26 0 0 0 .763-.264 3.07 3.07 0 0 0 .412-.235.86.86 0 0 0 .218-.179c.045-.052.071-.117.074-.186s-.017-.134-.056-.19c-.038-.048-.087-.085-.143-.112s-.117-.037-.179-.036a.89.89 0 0 0-.276.049c-.156.043-.307.101-.451.173a2.4 2.4 0 0 0-.659.464c-.329.319-.437.59-.412.601s.19-.204.53-.475a2.8 2.8 0 0 1 .641-.386 2.44 2.44 0 0 1 .415-.145c.154-.049.286-.053.329 0s0 .036 0 .081a.73.73 0 0 1-.161.131 3.69 3.69 0 0 1-.38.231 3.76 3.76 0 0 1-.716.296 4.96 4.96 0 0 0-.684.214z"/><path d="M36.769 153.056c.129-.211.187-.458.165-.703a2.23 2.23 0 0 0-.132-.787c-.053-.15-.122-.293-.204-.429a.6.6 0 0 0-.194-.239c-.085-.061-.184-.1-.289-.113-.065.006-.128.029-.181.066a.35.35 0 0 0-.12.149 1.04 1.04 0 0 0-.065.267c-.018.161-.011.325.021.485.055.27.178.523.358.735.301.351.605.435.609.411s-.233-.162-.465-.514a1.6 1.6 0 0 1-.261-.667c-.021-.139-.021-.28 0-.418 0-.156.072-.282.129-.267s.204.105.269.224c.078.123.144.253.197.387a2.47 2.47 0 0 1 .172.703c.021.432-.047.699-.007.71z"/><path d="M31.611 85.316s-3.462 6.517-3.462 11.793c0 1.114 7.025 56.445 7.025 56.445l9.943-.819-4.823-51.123 1.561-10.39-10.243-5.905z"/><path d="M53.748 91.091l-3.412 26.391c-1.142 7.684-3.387 9.139-3.387 9.139l-19.81 24.606-6.509-5.677 17.057-25.165 3.469-29.294c-.147.745 12.592 0 12.592 0z"/></g><g class="I"><path d="M46.596 126.938a1.36 1.36 0 0 1-.165.235l-.512.647-1.89 2.387-6.158 7.916-6.212 7.888-1.937 2.344-.544.63a1.59 1.59 0 0 1-.197.207 1.35 1.35 0 0 1 .168-.236l.512-.646 1.887-2.387 6.162-7.919 6.209-7.885 1.937-2.344.544-.629a1.49 1.49 0 0 1 .197-.208zM42.98 97.722c.029.049-.881.604-1.887 1.438l-1.765 1.574c.112-.204.256-.39.426-.551a11.68 11.68 0 0 1 1.221-1.164 12.28 12.28 0 0 1 1.375-.981 2.48 2.48 0 0 1 .63-.316z"/><path d="M39.407 100.614a2.85 2.85 0 0 1-1.138-.383 2.78 2.78 0 0 1-.87-.816c.039-.035.415.334.967.661s1.056.485 1.042.538zm13.558-4.454c0 .053-.981-.067-2.188-.13l-2.188-.112a8.47 8.47 0 0 1 2.198-.07 8.34 8.34 0 0 1 2.177.313zm-13.106 6.085c.005.029.005.057 0 .085l-.021.257-.1.97-.398 3.578-1.382 11.786-.179 1.477v.02.018l-6.137 9.044-1.865 2.689-.505.72-.136.187a.37.37 0 0 1-.054.06.49.49 0 0 1 .039-.071l.118-.193.48-.741 1.79-2.721 6.087-9.076v.038l.175-1.475 1.432-11.783.455-3.568.136-.97c0-.098.029-.183.039-.249a.24.24 0 0 1 .025-.082zm-4.434-47.503s-3.477 2.049-4.519 3.867-6.613 14.092-6.38 16.264 5.449 4.57 5.449 4.57l5.449-6.939-3.244-2.162 3.244-3.983V54.742z"/><path d="M41.043 52.974l-5.614 1.758s-2.549 23.776-3.824 27.189-2.8 8.19-2.8 8.19 1.883 5.863 9.764 6.773 15.704-3.821 15.704-3.821 2.571-11.009 3.96-21.02.358-15.973.358-15.973l-8.836-3.343-8.711.246z"/><path d="M29.977 79.443s12.625 2.461 17.208-2.858l-1.328-4.524s-8.339 1.937-10.945 1.104l-4.934 6.278z"/></g><path d="M46.973 71.385l2.607-4.612c.254-.042 3.96-1.332 3.96-1.332.111.296.111.621 0 .918l1.328.165s-.197.805-.652.917l.483.415c-.24.315-.55.572-.906.752a1.01 1.01 0 0 1-.877 0s.168.302-.594.773-2.302 2.661-2.302 2.661l-3.047-.657z" class="J"/><g class="M"><path d="M53.422 66.373a16.84 16.84 0 0 1-2.424.928l-.942.334a1.24 1.24 0 0 0-.551.517l-.337.664a1.69 1.69 0 0 1 .211-.731c.125-.262.334-.477.594-.612a7.87 7.87 0 0 1 .956-.352 17.04 17.04 0 0 1 2.492-.749zm.863 1.068c-.206.121-.433.202-.669.239l-1.658.376a4.33 4.33 0 0 0-1.5.703c-.337.257-.487.481-.516.464a1.23 1.23 0 0 1 .422-.569 3.72 3.72 0 0 1 1.54-.777c.655-.172 1.253-.246 1.683-.323a3.95 3.95 0 0 1 .698-.112z"/></g><path d="M50.891 69.362a1.62 1.62 0 0 1 .888-.591c.335-.155.716-.189 1.074-.095 0 .056-.465.091-.999.281s-.927.45-.963.404z" fill="#eb996e"/><path d="M56.543 55.927c-.333.095-2.578 3.026-3.734 6.893l-2.435 7.849-.358 1.374-14.322-3.434-3.19 4.194s9.273 7.916 16.112 8.211c1.675-.144 3.292-.671 4.722-1.539a10.67 10.67 0 0 0 3.513-3.459c3.015-4.889 4.869-10.921 4.869-10.921s-.197-10.609-5.177-9.167z" class="I"/><path d="M35.012 65.295a9.69 9.69 0 0 1 .312-1.93 9.54 9.54 0 0 1 .508-1.891 9.7 9.7 0 0 1-.312 1.93c-.104.646-.274 1.279-.508 1.891z" class="B"/><g class="E F"><path d="M44.944 80.345c-.748-.309-1.464-.728-2.266-.847-.974-.144-1.79.141-2.761.288-2.904.446-5.066.106-7.805 0l-.147.826c1.203.921 2.717 1.216 4.243 1.188 1.389-.025 2.746-.468 4.132-.429a14.19 14.19 0 0 1 3.222.633c1.765.457 3.609.742 5.414.475 4.54-.671 6.971-4.812 7.727-6.447-.603.808-1.25 1.584-1.937 2.323-2.9 2.942-7.426 2.981-9.821 1.99z"/></g><path d="M47.992 67.941a10.05 10.05 0 0 1-1.79-.478 9.42 9.42 0 0 1-1.737-.654 9.23 9.23 0 0 1 1.79.478 9.17 9.17 0 0 1 1.736.654z" class="C"/><g class="B"><path d="M58.9 72.232a.28.28 0 0 1-.018.081l-.079.232a8 8 0 0 1-.387.861 21.56 21.56 0 0 1-1.873 2.918l-1.529 1.852-.956.949c-.371.308-.783.565-1.224.763-.934.433-1.921.747-2.936.935a9.08 9.08 0 0 1-3.315-.035 16.54 16.54 0 0 1-3.154-.988c-.501-.183-.97-.422-1.432-.626l-1.343-.672c-1.527-.818-3.001-1.731-4.411-2.731l-2.768-2.109-.716-.619c-.086-.07-.165-.148-.236-.232.025.014.047.03.068.049l.193.155.738.594 2.8 2.067a43.59 43.59 0 0 0 4.411 2.686l1.339.664 1.432.619a16.82 16.82 0 0 0 3.122.974 8.86 8.86 0 0 0 3.248.035 12.13 12.13 0 0 0 2.896-.907c.428-.191.828-.436 1.189-.731.34-.302.655-.615.949-.931l1.536-1.828a23.32 23.32 0 0 0 1.916-2.875l.415-.84.097-.221c.008-.03.017-.059.029-.088zm-5.394-11.613c-.013.078-.031.156-.054.232l-.183.661-.716 2.432-2.442 8.123-.025.084-.097-.025-1.135-.25-9.18-2.109-2.753-.756-.738-.232a1.34 1.34 0 0 1-.254-.095 1.34 1.34 0 0 1 .265.06l.748.2 2.764.703 9.187 2.046 1.16.26-.122.06 2.506-8.109.763-2.418.218-.65a.98.98 0 0 1 .086-.218zM32.968 72.722l-4.082.148c-.408 0-.788-.352-.96-.924l-3.197-10.992c-.2-.759.229-1.371.924-1.406l5.396-.331c.866 0 1.328.352 1.486 1.009l2.102 8.7c.444 1.835-.394 3.751-1.668 3.796z"/></g><path d="M36.458 67.533l-1.074-2.257-1.79-.584.544 2.155c-.716.33-1.751.503-2.356.176s-2.972-2.64-3.419-2.419-.845.752-.437 1.259 2.628 2.081 2.17 2.548-3.015-1.575-3.767-1.424-1.21.58-.791.896 1.432 1.325 1.629 1.758c-.043.555-.312 1.343-.064 1.476.601.283 1.233.498 1.883.643l1.966.703a4.44 4.44 0 0 0 3.086.07l.512-.176c.389-.134.725-.384.961-.715a1.91 1.91 0 0 0 .356-1.131l-.018-1.663.609-1.318z" class="J"/><path d="M33.719 67.013a2.78 2.78 0 0 1-.172-.531l-.405-1.452-.576-2.179-.333-1.286c-.129-.436-.179-.946-.487-1.276s-.841-.352-1.293-.327l-1.346.102-2.288.158-1.54.095c-.189.018-.38.018-.569 0 .185-.04.373-.067.562-.081l1.54-.148 2.284-.2 1.35-.112a3.25 3.25 0 0 1 .716.032c.271.037.523.16.716.352.174.193.297.424.358.675l.179.685.322 1.29.537 2.186.358 1.48a3.36 3.36 0 0 1 .086.538z" class="I"/><path d="M28.802 61.699a.39.39 0 0 1-.067.219.4.4 0 0 1-.18.145.41.41 0 0 1-.232.022c-.078-.015-.149-.053-.205-.108a.39.39 0 0 1-.087-.429c.03-.072.082-.133.148-.177s.143-.066.223-.066c.106 0 .208.041.284.115a.39.39 0 0 1 .117.278z" class="C"/><path d="M50.084 45.81a24.25 24.25 0 0 0 .716-4.165c.112-1.411-.134-2.828-.716-4.123-.093-.193-.859-1.473-1.074-1.434-.154.028.358 1.241.294 1.381a7.12 7.12 0 0 0-.451 4.281 18.62 18.62 0 0 0 1.239 4.06" class="B"/><path d="M49.668 40.53c.154-3.677-1.898-6.833-5.65-6.879h-.358a6.76 6.76 0 0 0-4.455 1.939c-1.184 1.172-1.877 2.738-1.94 4.388l-.1 8.419c.208 3.515 3.828 3.916 3.828 3.916l.039 1.209c.019.591.161 1.171.42 1.705s.627 1.009 1.081 1.396.986.677 1.561.853a4.44 4.44 0 0 0 1.779.166c1.07-.118 2.057-.621 2.772-1.412s1.106-1.813 1.098-2.87l-.075-12.83z" class="J"/><path d="M40.996 52.337a8.47 8.47 0 0 0 4.633-1.515s-.988 2.591-4.59 2.429l-.043-.914z" class="M"/><g class="B"><path d="M38.617 42.735c.004.131.06.255.156.346a.51.51 0 0 0 .359.139c.065.003.131-.007.192-.03a.51.51 0 0 0 .165-.101.48.48 0 0 0 .111-.157.47.47 0 0 0 .04-.187.5.5 0 0 0-.156-.348c-.096-.091-.225-.142-.359-.141a.5.5 0 0 0-.192.031c-.061.023-.117.058-.165.102a.48.48 0 0 0-.111.157c-.026.059-.04.123-.04.187zm-.553-1.215c.068.063.444-.236.995-.26s.97.228 1.028.162-.043-.148-.226-.267a1.43 1.43 0 0 0-.823-.208c-.288.012-.565.113-.791.288-.161.134-.215.246-.183.285zm5.495.995c.004.131.06.256.156.346s.226.141.359.139a.5.5 0 0 0 .192-.031.49.49 0 0 0 .165-.102.48.48 0 0 0 .111-.157c.026-.059.04-.123.04-.187a.5.5 0 0 0-.157-.345c-.096-.091-.225-.141-.358-.14a.5.5 0 0 0-.192.031.49.49 0 0 0-.165.102.48.48 0 0 0-.111.157c-.026.059-.04.123-.04.187zm.007-1.387c.057.07.465-.19 1.017-.151s.938.33 1.003.267-.025-.148-.193-.285c-.229-.177-.508-.281-.799-.299a1.4 1.4 0 0 0-.816.204c-.175.109-.243.225-.211.264zm-1.824 4.545a3.66 3.66 0 0 0-.902-.119c-.143 0-.279-.032-.304-.123a.66.66 0 0 1 .075-.415l.358-1.072.813-2.812c-.061-.032-.53 1.202-1.038 2.728l-.358 1.079a.81.81 0 0 0-.05.548c.023.047.057.089.1.122a.36.36 0 0 0 .144.068 1.02 1.02 0 0 0 .24.025c.308.027.618.018.924-.028zm1.636-6.89c.061.148.609.053 1.26.098s1.185.2 1.264.063c.036-.063-.061-.2-.279-.334a2.23 2.23 0 0 0-1.922-.119c-.218.102-.347.225-.322.292zm-5.24 1.664c.104.12.48-.025.934-.053s.849.046.934-.088c.036-.063-.032-.183-.208-.292a1.3 1.3 0 0 0-.77-.169 1.32 1.32 0 0 0-.734.281c-.154.134-.204.264-.157.32z"/></g><path d="M49.496 43.156c.061-.028 2.435-.826 2.467 1.589s-2.442 1.951-2.449 1.88-.018-3.469-.018-3.469z" class="J"/><path d="M50.257 45.698s.043.028.115.06c.103.041.219.041.322 0a1.06 1.06 0 0 0 .366-.408 1.04 1.04 0 0 0 .11-.534c.003-.207-.041-.413-.129-.601-.023-.075-.065-.143-.122-.199s-.127-.096-.203-.118c-.049-.012-.101-.007-.147.014s-.082.057-.104.102c-.032.07 0 .116-.029.123s-.054-.042-.036-.141c.014-.06.048-.115.097-.155a.34.34 0 0 1 .236-.063c.101.018.196.062.275.126s.14.148.176.243c.107.208.161.438.158.671.016.216-.034.431-.143.619a1.1 1.1 0 0 1-.469.436c-.065.019-.135.024-.202.014a.46.46 0 0 1-.188-.074c-.079-.053-.093-.116-.082-.116z" class="M"/><path d="M37.131 46.493c.092-.067.198-.114.31-.136s.229-.019.34.008.215.079.303.151.159.162.207.264c.094-.151.229-.273.39-.352s.342-.112.521-.095a.97.97 0 0 1 .493.191c.143.108.252.253.315.419a.77.77 0 0 1 .212-.324.79.79 0 0 1 .345-.182c.129-.031.264-.03.392.004a.79.79 0 0 1 .341.189c.061-.111.157-.2.272-.256a.63.63 0 0 1 .373-.054c-.023-.117-.01-.238.038-.348a.6.6 0 0 1 .23-.267.62.62 0 0 1 .343-.095c.121.002.239.041.338.109a.98.98 0 0 1 .266-.31c.11-.084.236-.145.371-.178s.275-.038.413-.015.267.075.383.151c.02-.123.083-.235.178-.318s.216-.13.343-.135.251.034.352.11a.54.54 0 0 1 .201.304c.108-.154.264-.27.445-.331a.9.9 0 0 1 .558-.003c-.003-.088.015-.176.052-.256s.092-.151.161-.208.15-.097.237-.118.178-.023.266-.005c-.111-.292.326-.461.537-.703.093-.102.15-.239.251-.33s.294-.13.376 0c-.036-.118-.027-.244.024-.357s.142-.203.255-.255a.54.54 0 0 1 .365-.008.53.53 0 0 1 .283.226 1.48 1.48 0 0 1 .115.418c.104.453.408.984.093 1.332-.057.063-.133.116-.15.197-.036.137.107.253.129.394s-.118.299-.175.45c-.038.236-.016.477.064.703.036.239-.082.555-.329.552.096.171.13.369.095.561s-.137.366-.288.493c.05.099.08.208.087.319s-.01.222-.048.327-.097.201-.174.282a.84.84 0 0 1-.273.193c.078.068.129.162.142.264a.42.42 0 0 1-.07.291c-.121.17-.285.305-.476.394.041.023.078.055.106.093s.05.08.061.126.014.093.007.139-.024.091-.049.131c-.109.158-.271.272-.458.323a.36.36 0 0 0-.208.127c-.079.134.054.295.039.447 0 .232-.358.32-.426.541s.061.45-.082.601-.251.095-.376.148c-.226.098-.308.351-.44.559-.288.354-.689.602-1.139.703l-.677.197-1.371.295c-.225.042-.508.067-.644-.116-.079.094-.18.169-.294.219a.82.82 0 0 1-.363.067c-.125-.005-.246-.039-.355-.099a.8.8 0 0 1-.273-.244 1.96 1.96 0 0 1-1.257-.141l-.419-.144c-.419-.144-.884-.352-1.035-.742-.13-.019-.254-.066-.363-.137s-.202-.165-.27-.275-.111-.233-.125-.361 0-.258.042-.38c-.183.067-.358-.102-.419-.288a1.67 1.67 0 0 1 .032-.562c.082-.763-.383-1.504-.337-2.271.036-.538.319-1.086.125-1.589a.93.93 0 0 1-.1-.316c0-.109.093-.232.204-.207-.036-.075-.053-.158-.047-.241s.032-.163.077-.234a.5.5 0 0 1 .183-.168.51.51 0 0 1 .242-.06" class="B"/><path d="M43.385 45.976c-.09 0-.064.587-.559 1.026s-1.135.404-1.135.489.147.105.419.102a1.51 1.51 0 0 0 .949-.373 1.28 1.28 0 0 0 .43-.861c.011-.246-.064-.39-.104-.383z" class="C"/><g class="I"><path d="M47.199 49.856a3.93 3.93 0 0 0-.136-2.499c.082.105.141.224.175.352a2.88 2.88 0 0 1 .193.896 3.06 3.06 0 0 1-.093.914 1.1 1.1 0 0 1-.14.337z"/><path d="M47.698 48.967s.068-.098.118-.278c.05-.232.05-.471 0-.703-.086-.566-.279-.995-.251-1.009a2.43 2.43 0 0 1 .358.995 1.49 1.49 0 0 1-.036.749c-.079.176-.183.253-.19.246zm.565-.531c.257-.685.233-1.441-.068-2.109a.85.85 0 0 1 .172.281 2.13 2.13 0 0 1 .172.77c.009.265-.032.53-.122.78a.8.8 0 0 1-.154.278z"/></g><path d="M38.297 36.741c-.079-.703.913-2.218 1.901-2.703 1.497-.735 3.806-1.237 5.224-.9 1.711.408 3.147 1.181 4.053 2.661a9.66 9.66 0 0 1 1.31 4.953c.041.528-.063 1.057-.301 1.533-.329.562-.995.931-.938 1.691.015.136.002.275-.038.406a1.03 1.03 0 0 1-.195.36c-.444.503-1.031.07-1.307-.376-.594-.956-.716-2.109-.795-3.23a7.11 7.11 0 0 1 .072-2.369c.108-.418.29-.819.358-1.241.055-.21.062-.43.023-.643s-.125-.416-.252-.594c-.066-.071-.138-.137-.215-.197a2.66 2.66 0 0 0-1.265-.547 2.68 2.68 0 0 0-1.373.157c-1.407.548-3.813 1.378-4.468.924-.942-.65-1.042-.9-1.042-.9l-.752 1.016z" class="B"/><g class="I"><path d="M38.862 52.901a2.83 2.83 0 0 1-.954-1.07 2.77 2.77 0 0 1-.299-1.391 10.56 10.56 0 0 0 .469 1.308 11.44 11.44 0 0 0 .784 1.153zm1.804 1.078a2.89 2.89 0 0 1-1.246-.91c-.368-.371-.626-.832-.748-1.336.054-.021.337.598.888 1.216s1.135.981 1.106 1.03zm1.159-.548a1.82 1.82 0 0 1-1.001-.168 1.78 1.78 0 0 1-.747-.675c.043-.035.358.281.831.51s.92.285.917.334zm8.624-15.297a2.75 2.75 0 0 1-1.486.619 2.85 2.85 0 0 1-1.604-.186c0-.063.716.123 1.579 0s1.482-.492 1.511-.432zm.294 1.352a3.85 3.85 0 0 1-1.817.566c-.645.034-1.288-.094-1.868-.372a9.13 9.13 0 0 0 1.858.19 8.76 8.76 0 0 0 1.826-.383z"/></g></g><defs><clipPath id="A"><path d="M0 0h155v164H0z" class="C"/></clipPath><path id="B" d="M116.93 100.533c-3.183 1.617-5.622 4.4-7.372 7.465s-2.886 6.43-4.003 9.773l-.981 17.224c3.698-6.18 6.67-13.446 7.472-20.571l-2.463-.218c1.65-.245 3.039-1.406 3.92-2.812s1.336-2.998 1.79-4.569l-3.004.439c2.37-1.576 4.032-3.986 4.641-6.731z"/></defs></svg>