<svg xmlns="http://www.w3.org/2000/svg" xmlns:xlink="http://www.w3.org/1999/xlink" width="402" height="300" fill="none" xmlns:v="https://vecta.io/nano"><style><![CDATA[.B{fill:#fff}.C{fill:#2196f3}.D{fill:#263238}.E{opacity:.3}.F{fill:#000}.G{opacity:.2}.H{fill:#ebb376}.I{fill:#407bff}.J{opacity:.7}.K{fill:#de5753}.L{fill:#e4897b}.M{fill:#9f5b53}.N{fill:#eec1bb}]]></style><g clip-path="url(#A)"><g class="B"><path d="M0 0h402v300H0z"/><path d="M0 0h402v300H0z"/></g><path d="M209.116 296.319c82.454 0 149.295-3.901 149.295-8.714s-66.841-8.714-149.295-8.714-149.296 3.902-149.296 8.714 66.843 8.714 149.296 8.714z" fill="#f5f5f5"/><g fill="#ebebeb"><path d="M394 261.148H9v.193h385v-.193zm-38.575 12.395h-25.503v.193h25.503v-.193zm-91.386 2.086h-6.691v.193h6.691v-.193zm65.112-9.238h-14.776v.192h14.776v-.192zm-246.5 1.293H49.395v.193h33.256v-.193zm11.735 0h-4.874v.193h4.874v-.193zm87.978 3.257H110.23v.193h72.134v-.193zm9.126-44.117H42.811c-1.165-.002-2.281-.466-3.104-1.29s-1.285-1.941-1.285-3.106V13.486c.01-1.158.477-2.265 1.299-3.081a4.39 4.39 0 0 1 3.09-1.276H191.49a4.4 4.4 0 0 1 3.109 1.287c.824.824 1.288 1.942 1.288 3.108v208.904c0 1.166-.464 2.284-1.288 3.108a4.4 4.4 0 0 1-3.109 1.288zM42.811 9.283c-1.114.002-2.181.446-2.968 1.234a4.2 4.2 0 0 0-1.229 2.969v208.942a4.2 4.2 0 0 0 1.229 2.97c.787.788 1.854 1.231 2.968 1.233H191.49a4.21 4.21 0 0 0 2.97-1.233c.789-.788 1.232-1.856 1.234-2.97V13.486c-.002-1.114-.445-2.182-1.234-2.97a4.21 4.21 0 0 0-2.97-1.233H42.811zm315.238 217.541H209.362c-1.166-.002-2.283-.466-3.107-1.29a4.4 4.4 0 0 1-1.29-3.106V13.486a4.4 4.4 0 0 1 1.304-3.081c.823-.816 1.934-1.274 3.093-1.276h148.687a4.4 4.4 0 0 1 3.085 1.279c.82.815 1.286 1.921 1.296 3.078v208.942c0 1.163-.461 2.279-1.282 3.103s-1.936 1.289-3.099 1.293zM209.362 9.283c-1.115.002-2.183.446-2.971 1.233a4.21 4.21 0 0 0-1.233 2.97v208.942a4.21 4.21 0 0 0 4.204 4.203h148.687a4.21 4.21 0 0 0 4.204-4.203V13.486a4.21 4.21 0 0 0-4.204-4.203H209.362z"/></g><g fill="#f0f0f0"><path d="M312.325 79.409l-83.807-28.297-.069-.062-44.275-45.371-35.513 32.423-.516-.57 36.06-32.931 44.729 45.841 83.098 28.059 34.111-46.911.624.454-34.442 47.365zM51.82 149.067a4.14 4.14 0 0 1-7.072 2.928 4.14 4.14 0 0 1-.898-4.513 4.15 4.15 0 0 1 1.526-1.859c.681-.456 1.482-.697 2.301-.697a4.14 4.14 0 0 1 4.143 4.141z"/><path d="M188.333 5.141a4.14 4.14 0 0 1-.698 2.301 4.15 4.15 0 0 1-1.859 1.525c-.757.313-1.59.395-2.394.236a4.14 4.14 0 0 1-2.121-1.133c-.579-.579-.974-1.317-1.134-2.12s-.078-1.636.236-2.393a4.14 4.14 0 0 1 6.756-1.344 4.14 4.14 0 0 1 1.214 2.928zm162.26 26.68a4.14 4.14 0 0 1-2.557 3.826c-.757.313-1.59.395-2.394.236a4.15 4.15 0 0 1-2.121-1.134c-.579-.579-.973-1.317-1.133-2.12s-.078-1.636.235-2.393a4.14 4.14 0 0 1 1.526-1.859c.681-.455 1.482-.698 2.302-.698 1.098 0 2.152.436 2.929 1.213a4.14 4.14 0 0 1 1.213 2.928zm.364 218.544c0 .819-.243 1.62-.698 2.301s-1.102 1.212-1.859 1.525-1.59.396-2.394.236a4.15 4.15 0 0 1-2.121-1.134c-.579-.579-.974-1.317-1.134-2.12a4.15 4.15 0 0 1 .236-2.393c.314-.757.845-1.404 1.526-1.859s1.482-.698 2.301-.698c1.099 0 2.153.437 2.93 1.213a4.14 4.14 0 0 1 1.213 2.929zM232.871 50.782a4.14 4.14 0 0 1-2.557 3.826c-.757.313-1.59.395-2.394.236s-1.542-.554-2.121-1.133-.974-1.317-1.134-2.12-.077-1.636.236-2.393a4.14 4.14 0 0 1 3.827-2.557c1.099 0 2.153.436 2.93 1.213a4.14 4.14 0 0 1 1.213 2.928z"/><path d="M156.341 250.473l-.316-.062-103.888-19.614.139-.754 103.573 19.552 72.518-198.95.724.269-72.749 199.559zM57.108 69.117l-.51.576 35.445 31.382.511-.576-35.445-31.383zm289.504 181.577l-51.366-31.831 1.124-.3 53.961-51.906-38.507-87.548.708-.308 38.723 88.04-.192.185-54.077 52.015 50.027 30.991-.401.662z"/><path d="M52.527 230.627l-.647-.416 31.046-47.935-35.79-33.193.262-.284 44.822-48.52.269.162 204.266 118.131-.385.67L92.367 101.257l-44.144 47.788 35.697 33.101-31.393 48.481z"/></g><use xlink:href="#B" class="C"/><g class="J B"><use xlink:href="#B"/></g><g class="C"><path d="M152.852 149.953c-.208 1.163-1.686 1.586-2.88 1.732l-5.39.67c-.847-2.225-3.48-2.24-5.328-1.378a62.59 62.59 0 0 0 20.37 31.785c9.9 8.247 22.104 13.238 34.947 14.294 2.053.17 4.106.239 6.16.208a1.04 1.04 0 0 0 .1-.154c.939-1.639-.416-3.079-1.14-4.434-.161-.3-1.701-4.18-1.193-4.187-1.647.028-3.289-.184-4.874-.632-.122-.022-.232-.087-.308-.184-.154-.262.208-.508.492-.578.77-.169 1.502-.215 2.226-.431a2.56 2.56 0 0 0 1.014-.483 2.57 2.57 0 0 0 .711-.872c.284-.708.069-1.539.231-2.263.124-.449.349-.863.657-1.213a3.07 3.07 0 0 1 1.121-.804 9.99 9.99 0 0 1 2.58-.692c-1.887-1.032-.508-3.172-1.995-4.619-.477-.454-1.17-1.016-.877-1.617s1.278-.554 1.401-1.17c.085-.431-.37-.769-.77-.885-.439-.034-.872-.127-1.286-.277-.13-.081-.244-.187-.333-.312a1.16 1.16 0 0 1-.186-.417c-.033-.149-.037-.304-.01-.456a1.16 1.16 0 0 1 .167-.424c.324-.454.924-.593 1.417-.854s.932-.863.639-1.34a.93.93 0 0 0-.285-.262c-.77-.5-1.855-.084-2.633.439s-1.54 1.186-2.518 1.178c-.051-.09-.084-.189-.096-.291s-.004-.206.025-.305a.78.78 0 0 1 .142-.272c.065-.08.146-.146.237-.194a1.48 1.48 0 0 0 .377-.2c.224-.224.062-.593-.092-.87a5.64 5.64 0 0 1-.431-4.296l5.728.108c.047-.431.093-.685.555-.816-1.286-1.539-2.68-2.956-3.85-4.619-.112-.214-.29-.387-.508-.492a3.42 3.42 0 0 0-.77 0c-.824-.116-.955-1.247-.87-2.071-.124-.254-.524-.146-.678.085s-.193.531-.377.769c-.159.134-.353.216-.559.238s-.413-.018-.596-.114a2.74 2.74 0 0 1-1.456-3.564c.055-.165.164-.306.308-.401.331-.185.724.046 1.094.108 1.463.262 1.239-1.347.893-2.117-.477-1.031-1.902-1.701-2.934-1.963-1.209-.315-9.24-1.855-7.946-4.48a1.22 1.22 0 0 1 .624-.523c.809-.212 1.633-.369 2.464-.47.77-.223 1.586-1.062 1.232-1.824-.139-.308-.432-.516-.593-.809-.455-.823.246-1.886-.077-2.763a7.35 7.35 0 0 0-.709-1.07c-.215-.377-.254-.939.116-1.163s.978.124 1.417-.077a.78.78 0 0 0 .234-.273.77.77 0 0 0 0-.7c-.056-.109-.136-.202-.234-.274-.223-.122-.476-.178-.729-.159a1.3 1.3 0 0 0-.696.267 1.68 1.68 0 0 1-.685.377c-.47.062-.824-.4-1.063-.816l-1.147-1.947a1.11 1.11 0 0 0-.909.77c-.146.4-.177.846-.339 1.247-.816 1.932-3.749 1.701-3.372 4.341a1.28 1.28 0 0 1 .562.109 1.27 1.27 0 0 1 .456.347 1.26 1.26 0 0 1 .26 1.084c-.308.939-1.709 1.447-1.54 2.409.069.339.339.608.393.947.146.932-1.294 1.278-1.918 1.486-2.055.708-2.194-.639-3.973-.724-.816 0-1.54.516-2.356.608s-1.486-.238-2.241-.192c-2.056.115-1.024 2.91-.877 4.126-1.109-.77-2.588.123-3.465 1.116-1.356 1.54-1.225 1.255-3.019 1.316-.237 0-.471.063-.675.184a1.32 1.32 0 0 0-.488.502c-.331.769.378 1.539.401 2.386 0 .4-.146.77-.116 1.178.1 1.039 1.325 1.485 2.064 2.209a2.83 2.83 0 0 1 .689 1.153c.134.434.162.894.081 1.341a6.03 6.03 0 0 1-1.54-.115l-.932-1.794c-.232-.551-.59-1.039-1.047-1.424a3.42 3.42 0 0 1-.77-.601c-.385-.538-.069-1.27 0-1.932.223-1.593-.577-4.272-.97-5.85s-1.54-2.348-1.941-3.903c-.028-.063-.069-.12-.121-.166a.5.5 0 0 0-.179-.102.51.51 0 0 0-.205-.021.5.5 0 0 0-.195.066 1.05 1.05 0 0 0-.291.306c-.075.12-.126.254-.148.394-.168.642-.109 1.322.169 1.925-.362-.77-2.31 1.278-2.464 1.67-.2.647.231 1.54.208 2.225-.038 1.663-.439 2.586-2.148 1.37-.655-.462-1.494-1.016-2.187-.608a1.04 1.04 0 0 1-.577 1.17 2.21 2.21 0 0 1-1.394.108 1.37 1.37 0 0 1-.839-.416 2.34 2.34 0 0 0-.308-.4c-.439-.347-.994.246-1.232.77m84.515-51.222c.346.547 0 1.247-.416 1.755s-.855 1.109-.685 1.725l2.233.207c.071-.015.145-.01.213.015a.38.38 0 0 1 .174.124c.046.056.075.125.084.197s-.002.145-.032.211l-.17 1.432c-.469.369-.924-.77-1.54-.67-.254.054-.385.331-.531.547-1.201 1.893-3.311.477-4.435-.508-1.309-1.14-3.203-1.209-4.936-1.232a2.31 2.31 0 0 0-.925.051 2.32 2.32 0 0 0-.831.411c-.431.431-.454 1.108-.669 1.686-.378 1-1.333 1.655-1.879 2.571-1.894 3.21 1.54 5.681 4.412 4.803 1.501-.446 1.24-.716 2.772-.269.639.185 1.424 0 1.817.77.093.18.138.381.132.584a1.19 1.19 0 0 1-.168.574 1.2 1.2 0 0 1-1.003.581 5.04 5.04 0 0 1-2.472-.285c.292 1.017 0 2.171-.108 3.249-.244-.037-.493-.01-.723.079s-.433.237-.588.428a1.41 1.41 0 0 0-.299.663c-.04.243-.016.493.07.724.485 0 1.147.192 1.109.677-.026.142-.084.277-.17.393-.383.457-.74.935-1.07 1.431-.454.77-.446 3.195-1.594 3.48-.2.054-.416 0-.616.1-.207.08-.379.232-.482.429a.92.92 0 0 0-.08.641c.061.213.177.406.337.56a1.26 1.26 0 0 0 .572.317c.285.077.593.07.87.162 1.478.516.177 1.978.531 2.702a13.35 13.35 0 0 0 2.957 1.963 3.5 3.5 0 0 0-1.671 2.633c0 1.201.886 1.786 2.025 2.147s2.68.501 3.55.839c.47.177 1.039.347 1.432.039s.385-1.309.955-1.578c.188-.066.386-.097.585-.093a2.21 2.21 0 0 0 1.887-2.486c.269-.346.77-.316 1.239-.3s1.001-.139 1.063-.577-.57-.77-1.078-.77c-.517-.032-1.035.01-1.54.123a1.8 1.8 0 0 1-1.132.046 1.54 1.54 0 0 1-.601-.623 3.4 3.4 0 0 1-.631-1.986c.017-.352.162-.686.407-.94a1.45 1.45 0 0 1 .925-.438 2.86 2.86 0 0 0 .562.038c.485-.077.693-.67.662-1.155-.1-.475-.121-.964-.061-1.447.131-.469.77-.816 1.109-.454.269-.616.446-1.54-.162-1.824-.205-.075-.421-.112-.639-.108-1.34-.131-3.15-1.94-1.656-2.971.978-.678 2.557.769 3.411-.547.416-.616.162-1.54.586-2.117.246-.177.539.185.592.493.083.482.04.976-.123 1.437s-.441.873-.808 1.195c.77.439 1.94-.061 2.456.639s-.246 1.909.424 2.448a1.33 1.33 0 0 0 .685.239c1.209.177 3.457 0 3.526 1.693-.01.209.003.418.039.624.185.608 1.016.67 1.648.6.323-.615-.1-1.339-.385-1.986s-.254-1.624.423-1.786c.493-.115 1.063.308 1.471 0 .192-.13.277-.384.485-.492.501-.262.916.5 1.455.669.77.239 1.302-.769 1.302-1.539s-.193-1.655.308-2.248c.161-.185.377-.315.554-.485.482-.593.738-1.337.724-2.101.123-1.201 4.874 1.916 5.174 1.963 2.31.384 3.681-1.879 5.244-3.118a13.97 13.97 0 0 1 2.726-1.54c-3.271-10.358-9.161-19.697-17.099-27.114s-17.657-12.66-28.216-15.223a20.42 20.42 0 0 0-2.91-.562c.292 1.455 1.193 3.749.215 5.127-1.239 1.755-3.85.223-4.828 2.309 0 .523.847.439 1.248.77a1.86 1.86 0 0 1 .392.77c.116.269.378.539.655.454.323.485-.185 1.085-.616 1.478a3.85 3.85 0 0 0-1.17 1.663c-.401 1.378.508 2.74 1.085 4.049a19.41 19.41 0 0 1 1.017 3.395c0-.546.77-.77 1.27-.516.446.317.845.695 1.186 1.124.67.647 1.54.254 2.264.77.908.685 1.486 1.909 2.595 2.094 1.355.231 2.31-1.209 2.933-2.44 1.486.77 2.403 2.687 4.081 2.81a4.31 4.31 0 0 0 1.871-.431l3.689-1.455a1.76 1.76 0 0 1 .844-.308c.304-.028.608.024.885.15a1.76 1.76 0 0 1 1.02 1.405l.77 1.94a1.44 1.44 0 0 1 .154.831 1.26 1.26 0 0 1-.593.67 6.67 6.67 0 0 1-4.782.978 26.77 26.77 0 0 0 1.309 6.55c-1.255-.323-2.703.093-3.85-.384m-10.721 44.469c-.224.291-.509.529-.835.696s-.685.262-1.052.274a9.9 9.9 0 0 1-1.332-.254c-.221-.05-.451-.039-.666.033a1.24 1.24 0 0 0-.551.375c-.315.477 0 1.116.285 1.609a1.9 1.9 0 0 0 .97.962c.341.038.682.056 1.025.054.669.108 1.101.77 1.54 1.255s1.17.97 1.763.639c.385-.216.554-.708.932-.947.924-.577 2.055.677 2.887.208.986-.562.624-2.171.216-3.079-.507-.884-1.173-1.667-1.964-2.31-2.017-1.924-1.725-1.278-3.218.485zm31.233 25.956c9.84-9.761 15.6-23.979 16.732-37.642 0-.385.062-.77.085-1.14-1.895-1.963-5.683-3.21-6.669.316-.392 0-.469-.262-.77-.485-.469-.346-1.124.123-1.386.647-.854 1.701-.977 3.849-3.334 3.371-2.81-.546-.901-1.747-1.817-3.294-.161-.207-.347-.394-.554-.555-.67-.685-.578-1.778-.447-2.725.137.063.285.096.435.098s.3-.026.439-.084a1.09 1.09 0 0 0 .368-.251c.104-.109.184-.237.237-.378.029-.228.102-.447.215-.647.324-.377.978 0 1.132.446s0 .986.139 1.463.623.955 1.047.701c.168-.124.286-.305.331-.509a2.69 2.69 0 0 0 .057-1.279 2.68 2.68 0 0 0-.542-1.161 1.08 1.08 0 0 0-.046-2.094c-.686-.146-1.664.254-1.941-.392a1.54 1.54 0 0 1-.076.857c-.106.273-.288.509-.524.682-1.818 1.317-5.899.147-5.498 4.011.131.609.221 1.226.269 1.847a1.44 1.44 0 0 1-.97 1.44c1.101.885.701 2.925 1.887 3.703.286.168.619.24.949.204a1.54 1.54 0 0 0 .883-.405.67.67 0 0 1 .262-.2c.216-.069.416.139.639.185.377.077.716-.316 1.101-.339.547 0 .847.624.947 1.163s.239 1.201.77 1.347c.177.046.37 0 .547.077.177.066.33.185.437.34a.93.93 0 0 1 .164.53 2.77 2.77 0 0 1-.247 1.093c-.231.223-.631.084-.854-.154a6.98 6.98 0 0 0-.601-.77c-.146-.108-3.419.146-3.311-.092-.485 1.124-.732 3.587-2.426 2.963-.592-.223-1.208-.631-1.817-.446.293-.77.57-1.594.847-2.394-.254-.223-.631.077-.77.392s-.123.693-.385.893a1.04 1.04 0 0 1-.67.131h-2.263c-.817 0-1.764 0-2.272.662s-.246 1.848.37 2.541a.61.61 0 0 1 .233.846.62.62 0 0 1-.233.224c-.399.355-.708.8-.902 1.297a3.39 3.39 0 0 0-.215 1.566 2.22 2.22 0 0 0 .751 1.36c.406.348.924.538 1.459.534.408-.039.916-.177 1.155.154.139.2.139.516.354.608s.508-.216.709-.447a1.22 1.22 0 0 1 1.493-.246c.239.146 1.001 2.471.77 2.81-.454.77-2.594.469-3.434.508-.161-.015-.324.003-.479.052a1.23 1.23 0 0 0-.422.233c-.331.385-.061.993.308 1.339s.863.608 1.048 1.078a3.28 3.28 0 0 1 .027 1.309 3.29 3.29 0 0 1-.489 1.216c-.216.177-.486.269-.701.454a1.71 1.71 0 0 0-.425.836 1.72 1.72 0 0 0 .078.934c.17.616.493 1.178.616 1.802.247 1.331-.485 2.779.047 4.026.254.6 1.047 1.077 1.54.654s.423-1.232.985-1.293 1.209 1.293 1.656 1.539 1.062-.138 1.717.331c.562.354.67 1.193 1.255 1.609z"/><use xlink:href="#C"/></g><g opacity=".4" class="B"><path d="M152.852 149.953c-.208 1.163-1.686 1.586-2.88 1.732l-5.39.67c-.847-2.224-3.48-2.24-5.328-1.378a62.59 62.59 0 0 0 20.37 31.785c9.9 8.247 22.104 13.239 34.947 14.295 2.053.169 4.106.238 6.16.207a.99.99 0 0 0 .1-.154c.939-1.639-.416-3.079-1.14-4.434-.161-.3-1.701-4.179-1.193-4.187-1.647.029-3.289-.184-4.874-.631-.122-.022-.232-.088-.308-.185-.154-.262.208-.508.492-.577.77-.17 1.502-.216 2.226-.432a2.56 2.56 0 0 0 1.014-.483c.299-.235.541-.532.711-.871.284-.709.069-1.54.231-2.264a3.07 3.07 0 0 1 .657-1.212 3.06 3.06 0 0 1 1.121-.804 10.03 10.03 0 0 1 2.58-.693c-1.887-1.032-.508-3.172-1.995-4.619-.477-.454-1.17-1.016-.877-1.616s1.278-.555 1.401-1.17c.085-.432-.37-.77-.77-.886-.439-.033-.872-.127-1.286-.277-.13-.081-.244-.187-.333-.312s-.152-.266-.186-.416a1.15 1.15 0 0 1-.01-.456c.027-.151.084-.296.167-.425.324-.454.924-.592 1.417-.854s.932-.862.639-1.34c-.075-.106-.172-.195-.285-.261-.77-.501-1.855-.085-2.633.438s-1.54 1.186-2.518 1.178c-.051-.089-.084-.188-.096-.291s-.004-.206.025-.305a.78.78 0 0 1 .142-.272c.065-.08.146-.146.237-.194a1.45 1.45 0 0 0 .377-.2c.224-.223.062-.593-.092-.87-.708-1.318-.863-2.863-.431-4.295l5.728.107c.047-.431.093-.685.555-.816-1.286-1.539-2.68-2.956-3.85-4.618a1.12 1.12 0 0 0-.508-.493 3.54 3.54 0 0 0-.77 0c-.824-.115-.955-1.247-.87-2.071-.124-.254-.524-.146-.678.085s-.193.531-.377.77c-.159.133-.353.216-.559.238s-.413-.018-.596-.115a2.74 2.74 0 0 1-1.456-3.564.78.78 0 0 1 .308-.401c.331-.184.724.047 1.094.108 1.463.262 1.239-1.347.893-2.117-.477-1.031-1.902-1.701-2.934-1.963-1.209-.315-9.24-1.855-7.946-4.48.142-.24.362-.425.624-.523.809-.212 1.633-.369 2.464-.47.77-.223 1.586-1.062 1.232-1.824-.139-.308-.432-.516-.593-.808-.455-.824.246-1.886-.077-2.764a7.35 7.35 0 0 0-.709-1.07c-.215-.377-.254-.939.116-1.162s.978.123 1.417-.077c.098-.072.178-.165.234-.274a.77.77 0 0 0 .084-.35c0-.122-.029-.241-.084-.35a.78.78 0 0 0-.234-.273c-.223-.123-.476-.178-.729-.159s-.495.112-.696.266a1.68 1.68 0 0 1-.685.378c-.47.061-.824-.401-1.063-.816l-1.147-1.948c-.21.028-.406.115-.568.252a1.1 1.1 0 0 0-.341.518c-.146.4-.177.847-.339 1.247-.816 1.932-3.749 1.701-3.372 4.342a1.25 1.25 0 0 1 .562.109 1.27 1.27 0 0 1 .712.858c.045.188.047.384.004.572-.308.939-1.709 1.447-1.54 2.409.069.339.339.609.393.947.146.932-1.294 1.278-1.918 1.486-2.055.708-2.194-.639-3.973-.724-.816 0-1.54.516-2.356.609s-1.486-.239-2.241-.193c-2.056.116-1.024 2.91-.877 4.126-1.109-.77-2.588.123-3.465 1.116-1.356 1.54-1.225 1.255-3.019 1.317-.237-.001-.471.063-.675.183a1.33 1.33 0 0 0-.488.502c-.331.77.378 1.539.401 2.386 0 .4-.146.77-.116 1.178.1 1.039 1.325 1.486 2.064 2.209.319.324.555.719.689 1.153s.162.894.081 1.341a6.03 6.03 0 0 1-1.54-.115l-.932-1.794a3.79 3.79 0 0 0-1.047-1.424 3.42 3.42 0 0 1-.77-.6c-.385-.539-.069-1.27 0-1.932.223-1.594-.577-4.273-.97-5.851s-1.54-2.348-1.941-3.903c-.028-.063-.069-.12-.121-.166a.5.5 0 0 0-.179-.102.49.49 0 0 0-.205-.02c-.069.007-.135.03-.195.065-.117.082-.215.186-.291.306a1.05 1.05 0 0 0-.148.395 2.86 2.86 0 0 0 .169 1.924c-.362-.77-2.31 1.278-2.464 1.67-.2.647.231 1.54.208 2.225-.038 1.663-.439 2.587-2.148 1.37-.655-.461-1.494-1.016-2.187-.608a1.04 1.04 0 0 1-.082.687c-.105.213-.28.384-.495.483a2.21 2.21 0 0 1-1.394.108 1.37 1.37 0 0 1-.839-.416 2.34 2.34 0 0 0-.308-.4c-.439-.346-.994.246-1.232.77m84.514-51.222c.347.547 0 1.248-.416 1.756s-.854 1.108-.685 1.724l2.233.208c.071-.015.145-.01.213.014a.39.39 0 0 1 .175.124c.045.057.074.125.083.197s-.002.145-.032.211l-.169 1.432c-.47.37-.924-.77-1.54-.67-.255.054-.385.331-.532.547-1.201 1.894-3.311.477-4.435-.508-1.309-1.139-3.203-1.209-4.936-1.232a2.31 2.31 0 0 0-.925.052c-.302.079-.584.219-.83.41-.431.431-.455 1.109-.67 1.686-.377 1.001-1.332 1.655-1.879 2.571-1.894 3.21 1.54 5.681 4.412 4.803 1.502-.446 1.24-.715 2.772-.269.639.185 1.425 0 1.817.77.093.18.139.381.132.584s-.064.4-.168.574a1.2 1.2 0 0 1-.426.421c-.175.102-.374.157-.577.161-.835.112-1.685.014-2.472-.285.293 1.016 0 2.17-.108 3.248-.243-.037-.493-.009-.723.08a1.42 1.42 0 0 0-.886 1.09c-.041.243-.017.493.069.724.485 0 1.148.192 1.109.677a.93.93 0 0 1-.169.393c-.383.457-.741.935-1.071 1.432-.454.769-.446 3.194-1.593 3.479-.201.054-.416 0-.616.1-.208.08-.38.232-.483.429a.92.92 0 0 0-.08.641 1.27 1.27 0 0 0 .909.878c.285.077.593.069.87.161 1.479.516.177 1.979.531 2.702a13.34 13.34 0 0 0 2.957 1.963 3.5 3.5 0 0 0-1.144 1.12c-.29.457-.47.975-.527 1.513 0 1.201.886 1.786 2.025 2.148s2.68.5 3.55.839c.47.177 1.04.346 1.432.038s.385-1.308.955-1.578c.188-.065.386-.097.585-.092a2.21 2.21 0 0 0 1.887-2.487c.269-.346.77-.315 1.24-.3s1.001-.138 1.062-.577-.57-.77-1.078-.77c-.516-.031-1.035.01-1.54.123a1.79 1.79 0 0 1-1.132.046 1.53 1.53 0 0 1-.6-.623c-.413-.58-.634-1.274-.632-1.986.018-.352.162-.686.407-.939a1.45 1.45 0 0 1 .925-.439c.186.032.374.044.562.038.486-.077.693-.669.663-1.154-.101-.476-.122-.965-.062-1.448.131-.469.77-.815 1.109-.454.269-.616.446-1.539-.162-1.824a1.76 1.76 0 0 0-.639-.108c-1.34-.131-3.149-1.94-1.655-2.971.977-.678 2.556.77 3.411-.547.415-.616.161-1.539.585-2.117.246-.177.539.185.593.493a2.87 2.87 0 0 1-.932 2.633c.77.438 1.94-.062 2.456.639s-.246 1.909.424 2.447a1.32 1.32 0 0 0 .685.239c1.209.177 3.457 0 3.527 1.694a2.77 2.77 0 0 0 .038.623c.185.608 1.017.67 1.648.601.323-.616-.1-1.34-.385-1.986s-.254-1.625.424-1.786c.492-.116 1.062.308 1.47 0 .193-.131.277-.385.485-.493.501-.262.917.5 1.456.67.77.238 1.301-.77 1.301-1.54s-.193-1.655.308-2.248c.162-.184.377-.315.554-.485.482-.593.738-1.337.724-2.101.123-1.201 4.874 1.917 5.175 1.963 2.31.385 3.68-1.878 5.243-3.118.848-.613 1.763-1.13 2.726-1.539-3.271-10.359-9.16-19.698-17.099-27.115a63.15 63.15 0 0 0-28.215-15.223c-.956-.257-1.929-.445-2.911-.562.293 1.455 1.193 3.749.216 5.127-1.24 1.755-3.85.223-4.828 2.309 0 .523.847.439 1.247.77a1.87 1.87 0 0 1 .393.77c.115.269.377.539.654.454.324.485-.185 1.085-.616 1.478a3.85 3.85 0 0 0-1.17 1.663c-.401 1.378.508 2.74 1.086 4.049.441 1.098.782 2.234 1.016 3.395 0-.547.77-.77 1.27-.516a5.82 5.82 0 0 1 1.186 1.124c.67.647 1.54.254 2.264.77.909.685 1.486 1.909 2.595 2.094 1.355.231 2.31-1.209 2.934-2.44 1.486.77 2.402 2.686 4.081 2.81a4.33 4.33 0 0 0 1.871-.431l3.688-1.455a1.76 1.76 0 0 1 .844-.308 1.75 1.75 0 0 1 .885.15c.277.126.517.322.696.568a1.76 1.76 0 0 1 .324.838l.77 1.94a1.44 1.44 0 0 1 .154.831 1.26 1.26 0 0 1-.593.67 6.66 6.66 0 0 1-4.782.978c.162 2.229.601 4.43 1.309 6.551-1.255-.324-2.702.092-3.85-.385m-10.716 44.468a2.5 2.5 0 0 1-.835.697c-.326.167-.685.261-1.052.273a9.9 9.9 0 0 1-1.332-.254c-.221-.05-.451-.038-.666.034a1.23 1.23 0 0 0-.551.374c-.315.478 0 1.117.285 1.609a1.9 1.9 0 0 0 .97.962c.341.038.682.056 1.025.054.669.108 1.101.77 1.54 1.255s1.17.97 1.763.639c.385-.216.554-.708.932-.947.924-.577 2.055.678 2.887.208.986-.562.624-2.171.216-3.079-.507-.884-1.173-1.667-1.964-2.31-2.017-1.924-1.725-1.277-3.218.485zm31.229 25.956c9.84-9.76 15.6-23.978 16.732-37.642 0-.385.062-.77.085-1.139-1.895-1.963-5.683-3.21-6.669.315-.392 0-.469-.261-.77-.485-.469-.346-1.124.124-1.386.647-.854 1.701-.977 3.849-3.334 3.372-2.81-.547-.901-1.748-1.817-3.295-.161-.207-.347-.393-.554-.554-.67-.685-.578-1.779-.447-2.725a1.11 1.11 0 0 0 .435.098 1.1 1.1 0 0 0 .439-.084 1.11 1.11 0 0 0 .368-.252c.104-.109.184-.237.237-.378.029-.228.102-.447.215-.647.324-.377.978 0 1.132.447s0 .985.139 1.462.623.955 1.047.701c.168-.124.286-.304.331-.508.122-.416.141-.855.057-1.28a2.68 2.68 0 0 0-.542-1.161 1.08 1.08 0 0 0 .8-1.065 1.08 1.08 0 0 0-.846-1.028c-.686-.147-1.664.254-1.941-.393a1.54 1.54 0 0 1-.076.857c-.106.273-.288.51-.524.683-1.818 1.316-5.899.146-5.498 4.01.131.609.221 1.227.269 1.848a1.44 1.44 0 0 1-.97 1.439c1.101.885.701 2.925 1.887 3.703.286.169.619.24.949.204s.64-.178.883-.404c.069-.088.159-.157.262-.2.216-.07.416.138.639.184.377.077.716-.315 1.101-.338.547 0 .847.623.947 1.162s.239 1.201.77 1.347c.177.046.37 0 .547.077a.92.92 0 0 1 .437.341c.107.155.165.34.164.529a2.77 2.77 0 0 1-.247 1.093c-.231.223-.631.085-.854-.154-.182-.27-.383-.527-.601-.77-.146-.107-3.419.147-3.311-.092-.485 1.124-.732 3.587-2.426 2.964-.592-.224-1.208-.632-1.817-.447.293-.77.57-1.593.847-2.394-.254-.223-.631.077-.77.393s-.123.693-.385.893a1.05 1.05 0 0 1-.67.131h-2.263c-.817 0-1.764 0-2.272.662s-.246 1.847.37 2.54a.61.61 0 0 1 .233.223c.056.095.086.202.086.312a.61.61 0 0 1-.319.535 3.38 3.38 0 0 0-.902 1.298c-.194.497-.268 1.034-.215 1.565a2.22 2.22 0 0 0 .751 1.36c.406.348.924.538 1.459.534.408-.038.916-.177 1.155.154.139.2.139.516.354.608s.508-.215.709-.446c.185-.203.433-.337.704-.382a1.22 1.22 0 0 1 .789.135c.239.147 1.001 2.471.77 2.81-.454.77-2.594.47-3.434.508-.161-.014-.324.003-.479.052a1.23 1.23 0 0 0-.422.233c-.331.385-.061.993.308 1.339s.863.609 1.048 1.078c.097.43.106.876.027 1.31s-.246.847-.489 1.215c-.216.177-.486.269-.701.454-.217.234-.364.524-.425.836s-.034.636.078.935c.17.615.493 1.177.616 1.801.247 1.332-.485 2.779.047 4.026.254.6 1.047 1.078 1.54.654s.423-1.231.985-1.293 1.209 1.293 1.656 1.54 1.062-.139 1.717.331c.562.354.67 1.193 1.255 1.608z"/><use xlink:href="#C"/></g><use xlink:href="#D" class="C"/><path d="M58.237 77.921c4.714-.765 7.915-5.206 7.15-9.918a8.65 8.65 0 0 0-9.921-7.148c-4.714.765-7.915 5.205-7.15 9.918a8.65 8.65 0 0 0 9.921 7.148z" class="B E"/><path d="M51.71 69.249c.015.299.127.586.318.816s.453.392.744.462c-.144.416-.144.869 0 1.285.254.701 1.671.701 1.671.701.054.125.143.233.257.309s.246.119.383.122c0 .046.069.077.092.115l.2.277c.177 1.393.146 2.856-.539 3.603l-1.779.239-.839.146c1.582.912 3.401 1.33 5.224 1.201s3.564-.799 5.002-1.925h-.824-1.609v-.038a1.85 1.85 0 0 1-1.663-1.216c-.094-.306-.133-.627-.115-.947a3.42 3.42 0 0 0 .77-.254 3.12 3.12 0 0 0 1.54-1.709 2.18 2.18 0 0 0 .108-.316c.223-.893.291-1.817.2-2.733.161-.093.3-.219.407-.371s.181-.324.216-.507c.064-.239.033-.493-.088-.709s-.321-.376-.559-.446c.279-.068.524-.232.695-.462s.254-.514.237-.8c.023-.138.017-.279-.02-.415a.98.98 0 0 0-.516-.626.98.98 0 0 0-.403-.099s.331-.477-.316-1.378c-.165-.242-.416-.413-.702-.477s-.586-.018-.838.131a1.81 1.81 0 0 0-1.802-.77 1.94 1.94 0 0 0-1.401.924s0-.662-1.27-.292c-.365.133-.674.386-.877.717s-.287.722-.239 1.107c-.116-.06-.242-.094-.372-.102a.93.93 0 0 0-.708.265.93.93 0 0 0-.213.322c-.439.916.516 2.517.516 2.517-.279.084-.521.264-.683.507s-.233.535-.203.825z" class="C"/><use xlink:href="#D" class="B J"/><use xlink:href="#E" class="C"/><path d="M59.896 230.427c0 1.522-.452 3.01-1.298 4.276s-2.049 2.253-3.456 2.835a7.7 7.7 0 0 1-4.449.439c-1.494-.298-2.866-1.031-3.943-2.107a7.7 7.7 0 0 1-2.107-3.942c-.297-1.493-.145-3.041.438-4.447a7.7 7.7 0 0 1 7.114-4.752c1.013-.008 2.018.185 2.956.569s1.79.951 2.507 1.667a7.64 7.64 0 0 1 1.668 2.506c.384.938.578 1.942.569 2.956z" class="B E"/><path d="M58.279 235.138a7.7 7.7 0 0 1-10.403 1.639l.416-.939c.959-.303 1.936-.542 2.926-.716.29-.247.636-.419 1.009-.5.159-.575.14-1.184-.054-1.748-.301-.207-.562-.468-.77-.769-.159-.114-.299-.252-.416-.408-.239-.1-1.871-.863-1.956-3.541-.008-.108-.008-.216 0-.324-.508-.054-1.039.108-.67 1.14.631 1.778 0 2.709 0 2.709a6.69 6.69 0 0 0-.062-1.178c0 1.84-.993 1.956-.993 1.956s.631-.662-.3-2.702-.662-4.819 1.117-4.935c.369-.03.741.029 1.082.173a2.3 2.3 0 0 1 .881.651 2.96 2.96 0 0 1 1.673-.773c.626-.073 1.259.054 1.807.365 0 0 1.594-.385 2.048 0 .092.092 0 .3-.169.577a2.11 2.11 0 0 1 .893 1.317c.102.425.115.866.04 1.296a3.2 3.2 0 0 1-.479 1.206c.216 2.016-.131 3.533-1.74 3.671v.154.201c-.018.292.021.585.116.862.228.044.452.106.67.184 1.44 0 3.08.154 3.08.154.092.086.177.178.254.278z" class="C"/><use xlink:href="#E" class="B J"/><use xlink:href="#F" class="C"/><path d="M359.28 166.749a8.46 8.46 0 0 1-5.229 7.823 8.47 8.47 0 0 1-9.23-1.835 8.46 8.46 0 0 1-2.318-4.336c-.327-1.642-.16-3.345.482-4.892a8.46 8.46 0 0 1 3.119-3.8 8.47 8.47 0 0 1 10.695 1.053c1.588 1.588 2.481 3.741 2.481 5.987z" class="B E"/><path d="M357.856 171.452c-.644.972-1.483 1.799-2.462 2.432a8.48 8.48 0 0 1-3.23 1.243 8.47 8.47 0 0 1-6.566-1.673c-.049-.465-.033-.933.046-1.394.108-1.031 1.302-1.87 1.286-2.594s-1.232-1.662-.454-2.086.947-2.032.323-2.933a1.98 1.98 0 0 1-.536-1.387c.009-.514.218-1.005.582-1.369a3.61 3.61 0 0 1 2.31-1.262c.782-.369 1.657-.495 2.511-.362a5.39 5.39 0 0 1 2.494.847 3.69 3.69 0 0 1 1.302 1.601c.547 1.147.64 2.459.262 3.672-.424 1.216 1.463 1.147 1.54 2.255s-.886 1.178-.717 1.925c.054.339.709.662 1.309 1.085z" class="C"/><use xlink:href="#F" class="B J"/><g class="I"><path d="M311.838 76.992l-68.682 29.77.307.706 68.681-29.77-.306-.706zM148.729 37.613l-.655.405 29.368 47.426.655-.405-29.368-47.426zm9.156 126.278l-76.186 15.954.158.753 76.186-15.953-.158-.754z"/></g><path opacity=".8" d="M311.838 76.992l-68.682 29.77.307.706 68.681-29.77-.306-.706z" class="B"/><path d="M252.441 151.684l-.652.408 43.839 69.948.653-.409-43.84-69.947z" class="I"/><g class="B"><path opacity=".8" d="M252.441 151.684l-.652.408 43.839 69.948.653-.409-43.84-69.947zM148.729 37.613l-.655.405 29.368 47.426.655-.405-29.368-47.426zm9.156 126.278l-76.186 15.954.158.753 76.186-15.953-.158-.754z"/></g><use xlink:href="#G" class="I"/><use xlink:href="#G" opacity=".8" class="B"/><g class="C"><path d="M178.923 85.246l-1.155 6.736-1.155-6.736h2.31z"/><path d="M181.109 85.245a3.34 3.34 0 0 1-2.063 3.087 3.34 3.34 0 0 1-3.641-.724 3.34 3.34 0 0 1-.725-3.641 3.34 3.34 0 0 1 1.231-1.499c.55-.367 1.196-.563 1.857-.563.886 0 1.736.352 2.363.979s.978 1.476.978 2.362z"/></g><path d="M178.102 82.89c.369.485.077 1.339-.663 1.894s-1.624.616-2.002.131-.077-1.339.655-1.894 1.632-.616 2.01-.131z" class="B E"/><g class="C"><path d="M244.466 107.129l-1.155 6.736-1.155-6.736h2.31z"/><path d="M243.311 110.47a3.34 3.34 0 1 0 0-6.681 3.34 3.34 0 1 0 0 6.681z"/></g><path d="M243.633 104.775c.378.485.077 1.339-.654 1.893s-1.633.616-2.002.131-.077-1.339.654-1.894 1.633-.623 2.002-.13z" class="B E"/><g class="C"><path d="M159.134 163.871l-1.155 6.736-1.155-6.736h2.31z"/><path d="M157.979 167.212c1.845 0 3.342-1.496 3.342-3.341a3.34 3.34 0 1 0-6.684 0 3.34 3.34 0 0 0 3.342 3.341z"/></g><path d="M158.311 161.547c.37.485.077 1.34-.654 1.894s-1.632.623-2.01.131-.077-1.34.662-1.894 1.625-.647 2.002-.131z" class="B E"/><g class="C"><path d="M253.267 151.893l-1.155 6.744-1.155-6.744h2.31z"/><path d="M255.453 151.9c-.002.66-.199 1.306-.567 1.854a3.35 3.35 0 0 1-1.501 1.227 3.34 3.34 0 0 1-1.931.187c-.647-.13-1.242-.448-1.709-.916s-.784-1.063-.912-1.711-.062-1.319.191-1.929a3.35 3.35 0 0 1 1.231-1.498 3.34 3.34 0 0 1 1.856-.563 3.33 3.33 0 0 1 1.281.256 3.34 3.34 0 0 1 1.085.726c.31.311.556.68.724 1.086a3.35 3.35 0 0 1 .252 1.281z"/></g><path d="M252.433 149.537c.378.492.085 1.339-.654 1.901s-1.633.616-2.002.131-.077-1.339.654-1.901 1.633-.616 2.002-.131z" class="B E"/><path d="M337.852 78.966c.009 5.551-1.788 10.955-5.12 15.396-2.196 2.899-4.97 5.311-8.147 7.082-3.498 1.925-7.397 3.007-11.388 3.16s-7.961-.63-11.596-2.283c-.3-.123-.601-.269-.893-.423-1.808-.891-3.499-2-5.036-3.302-3.299-2.78-5.843-6.346-7.398-10.37a25.65 25.65 0 0 1-1.501-12.648c.571-4.275 2.211-8.338 4.767-11.812s5.948-6.248 9.86-8.066a25.68 25.68 0 0 1 24.63 1.64c3.637 2.32 6.63 5.52 8.703 9.302s3.159 8.026 3.158 12.34l-.039-.015z" class="I"/><path d="M329.807 96.579c9.734-9.731 9.734-25.508 0-35.239s-25.516-9.731-35.249 0-9.734 25.508 0 35.239 25.515 9.73 35.249 0z" class="B J"/><path d="M295.631 90.602l2.41-10.007s1.54-1.216 1.617-2.102-.939-6.112-1.601-6.428-4.574 1.047-4.759 2.163 1.348 5.512 1.656 5.866l-3.95 11.624 4.627-1.116z" class="L"/><g class="I"><use xlink:href="#H"/><use xlink:href="#I"/></g><g class="F"><use xlink:href="#H" class="E"/><use xlink:href="#I" class="E"/></g><path d="M298.635 83.152l-.785 1.77-5.467-.908.123-1.008 6.129.146z" class="I"/><path d="M327.349 70.388c-.639 2.448 2.849 9.184 1.432 21.439s-14.853 11.501-20.898 7.421-4.997-26.257-2.918-30.63 22.384 1.77 22.384 1.77z" class="D"/><path d="M330.9 90.202l-.362 1.062-.362 1.039-.655 1.971-1.186 3.641c-1.264 1.096-2.643 2.053-4.111 2.856-3.397 1.875-7.185 2.93-11.062 3.081a24.91 24.91 0 0 1-11.268-2.21c-.293-.123-.586-.27-.863-.416v-.732-.716c0-.708.039-1.362.054-1.986 0-.408.039-.816.046-1.185v-.57l.116-1.886c0-.185 0-.377.038-.554 0-.547.085-1.032.116-1.486.285-2.848.662-3.972.908-4.426.036-.07.08-.134.131-.192.07-.085.108-.092.108-.092l1.009-.085c1.663-.146 5.113-.385 8.231-.37h.177c.416 0 .824 0 1.24.062 1.609.085 3.219.223 4.805.416l1.771.246c.639.092 1.278.2 1.917.308l.27.054a62.31 62.31 0 0 1 6.983 1.593c.64.177 1.279.37 1.91.57l.039.008z" class="I"/><path d="M330.861 90.202l-.347 1.039c-.1.346-.246.7-.361 1.039l-.655 1.971-1.186 3.641c-1.265 1.096-2.643 2.053-4.112 2.856a24.9 24.9 0 0 1-11.061 3.079c-3.877.151-7.736-.605-11.269-2.209a11.6 11.6 0 0 1-.862-.416v-.723-.716c0-.708.039-1.362.054-1.986 0-.408.038-.816.046-1.186v-.57c0-.685.069-1.301.116-1.886 0-.185 0-.377.038-.554 0-.547.085-1.032.116-1.486.285-2.848.662-3.972.908-4.426a.89.89 0 0 1 .131-.192c.069-.085.108-.092.108-.092l1.009-.085c1.663-.146 5.112-.385 8.231-.369h.177c.416 0 .824 0 1.24.062a70.96 70.96 0 0 1 4.805.416l1.771.246c.639.092 1.278.2 1.917.308l.269.054a62.28 62.28 0 0 1 6.984 1.594c.693.2 1.332.393 1.933.593z" class="E F"/><path d="M316.475 86.285c5.498.431 6.16 2.094 5.59 2.964s-8.038 8.144-10.279 13.025c0 0-8.077-16.989 4.689-15.988z" class="B"/><path d="M313.636 91.826c5.444-.701 7.084-3.025 7.084-3.025-3.457-3.256-.585-8.899-.585-8.899l-6.553 1.216c.151.914.236 1.837.254 2.763.054 3.972-1.747 4.011-1.747 4.011-1.148 2.155 1.547 3.934 1.547 3.934z" class="L"/><path d="M313.582 81.119c.151.914.236 1.837.254 2.763 4.428 0 6.299-3.98 6.299-3.98l-6.553 1.216z" class="F G"/><path d="M317.201 62.807c-5.69-.308-7.7 2.64-8.431 8.468-.924 7.305.415 12.601 7.623 11.424 9.786-1.578 10.271-19.368.808-19.891z" class="L"/><path d="M312.467 71.174c-.501.838-1.101 1.614-1.787 2.309a1.54 1.54 0 0 0 1.471.724l.316-3.033z" class="K"/><g class="D"><path d="M315.977 70.896c0 .47.192.87.5.893s.593-.339.631-.77-.184-.87-.5-.893-.593.3-.631.77z"/><path d="M316.74 70.126l-.986-.477s.478.893.986.477zm-6.564.216c-.038.47.185.87.501.893s.593-.331.631-.77-.192-.862-.5-.893-.593.308-.632.77z"/><path d="M310.939 69.579l-.986-.477s.439.893.986.477zm7.738-1.346c-.042.001-.085-.009-.123-.029s-.069-.05-.092-.086a2.74 2.74 0 0 0-.997-.691c-.38-.153-.789-.219-1.198-.194a.27.27 0 0 1-.101-.014.25.25 0 0 1-.088-.052.26.26 0 0 1-.062-.082c-.015-.031-.024-.065-.026-.099s-.001-.069.009-.102a.24.24 0 0 1 .13-.152.25.25 0 0 1 .1-.024c.498-.038.998.042 1.46.233a3.18 3.18 0 0 1 1.196.868.27.27 0 0 1 .048.196c-.01.069-.047.131-.101.174-.045.033-.099.051-.155.054zm-8.845-1.124a.26.26 0 0 1-.268-.19c-.016-.058-.012-.119.011-.174a.26.26 0 0 1 .119-.128c.368-.25.788-.412 1.229-.474a2.89 2.89 0 0 1 1.312.12c.032.013.061.033.085.058s.043.055.055.087.018.067.016.102-.01.069-.025.1a.26.26 0 0 1-.339.138 2.41 2.41 0 0 0-1.069-.074c-.357.056-.697.192-.995.397a.2.2 0 0 1-.131.038zm3.023 9.345a14.37 14.37 0 0 1 .555 2.017h.369c1.664-.077 2.411-.662 2.734-1.293a2.15 2.15 0 0 0 .223-.993 2.05 2.05 0 0 0-.077-.577 7.91 7.91 0 0 1-3.241.831l-.563.015z"/></g><path d="M313.418 76.425l.185.585c1.54-.077 2.664-.339 3.134-.839a2.05 2.05 0 0 0-.077-.577 7.91 7.91 0 0 1-3.242.831z" class="B"/><path d="M313.781 78.457c1.663-.077 2.41-.662 2.734-1.293-.631.053-1.249.215-1.825.477-.381.171-.698.456-.909.816z" class="K"/><path d="M322.898 72.743s-2.402-4.819-1.801-8.414c0 0-11.035-5.227-12.22 6.158 0 0-.547-10.23 9.24-9.923s8.978 14.626 3.688 18.621c.015.038 2.587-3.425 1.093-6.443z" class="D"/><path d="M321.903 73.898c.091-.656.439-1.25.967-1.651a2.51 2.51 0 0 1 1.851-.489c1.748.293 2.395 3.957-2.041 4.619-.639.061-.962-.57-.777-2.479z" class="L"/><g class="D"><path d="M319.579 63.784c-.393 4.71.773 9.419 3.319 13.402 3.203 4.842-.477 9.076-.477 9.076s5.69-3.618 5.89-9.076c0 0 4.697-13.048-5.059-16.566 0 0-.038-2.933-6.398-2.379s-11.481 6.012-12.451 12.956 2.649 14.687 2.649 14.687-3.85-24.633 12.527-22.101z"/><path d="M319.949 63.883a16.19 16.19 0 0 0-.478 5.042c.096 1.722.369 3.43.817 5.096a21.37 21.37 0 0 0 1.909 4.811c.813 1.537 1.904 2.91 3.219 4.049a14.06 14.06 0 0 1-3.388-3.957 21.67 21.67 0 0 1-2.11-4.796 26.12 26.12 0 0 1-1.024-5.165c-.175-1.779-.068-3.574.316-5.319l.739.239z"/></g><use xlink:href="#J" class="I"/><use xlink:href="#J" class="E F"/><use xlink:href="#K" class="C"/><path d="M262.524 25.296a13.2 13.2 0 0 1-2.224 7.342c-1.451 2.173-3.514 3.868-5.929 4.868s-5.072 1.263-7.636.754a13.21 13.21 0 0 1-10.384-10.381 13.21 13.21 0 0 1 5.624-13.562c2.174-1.451 4.73-2.225 7.344-2.223a13.17 13.17 0 0 1 9.349 3.855 13.17 13.17 0 0 1 2.861 4.288 13.16 13.16 0 0 1 .995 5.058z" class="B E"/><path d="M258.995 34.287c-1.28 1.38-2.839 2.47-4.575 3.198a13.21 13.21 0 0 1-10.907-.313 13.2 13.2 0 0 1-4.384-3.455l.215-.069a2.83 2.83 0 0 1 .655-.654c-.004-.036-.004-.072 0-.108h.231a2.72 2.72 0 0 1 1.448-.377c.141-.011.282-.011.423 0l.824-.154v.231l4.451.3a2.31 2.31 0 0 0 .816-1.155 3.97 3.97 0 0 0 .161-1.54 4.71 4.71 0 0 1-1.848-.485c-1.069-.547-1.894-1.475-2.31-2.602-.054-.154-.1-.311-.138-.47a11.88 11.88 0 0 1-.069-4.988h-.139c-.034-.006-.065-.024-.086-.051s-.032-.061-.03-.095a.15.15 0 0 1 .021-.058c.01-.018.024-.033.04-.045a.16.16 0 0 1 .056-.026c.02-.005.04-.006.061-.002h.038a10.01 10.01 0 0 1 .223-2.979c-.222-.472-.337-.987-.337-1.509s.115-1.037.337-1.509c.493-.708.108-.323 1.402-.439s.516-1.255 1.34-1.27.654.508 1.663.893.639-.77 1.794-.877 1.309.77 2.133.985a3.93 3.93 0 0 0 1.594 0c.6 0 .654 1.755.908 2.078s.686-.162 1.232.77a.84.84 0 0 1 .093.431c0 1.162-1.448 3.372-1.448 3.372l-.3 1.64c.222.225.367.515.414.827s-.006.632-.152.912c-.282.571-.727 1.045-1.279 1.363a9.38 9.38 0 0 1-.831 1.455c-.362 2.017-.539 4.396.146 5.897 2.056.151 4.099.445 6.114.878z" class="C"/><use xlink:href="#K" opacity=".5" class="B"/><use xlink:href="#L" class="C"/><path d="M169.305 248.808c.002 2.612-.771 5.166-2.221 7.339s-3.512 3.867-5.925 4.868a13.21 13.21 0 0 1-14.399-2.848c-1.85-1.845-3.111-4.196-3.624-6.757a13.21 13.21 0 0 1 .741-7.632 13.22 13.22 0 0 1 12.192-8.172 13.15 13.15 0 0 1 5.073.98c1.609.658 3.072 1.63 4.303 2.858a13.15 13.15 0 0 1 2.869 4.295c.662 1.608.999 3.33.991 5.069z" class="B G"/><path d="M165.172 258.401c-2.193 2.078-5.034 3.341-8.047 3.578s-6.016-.567-8.508-2.277l2.996-.361c.77-1.732.593-4.481.169-6.813-.363-.534-.68-1.098-.947-1.686a3.64 3.64 0 0 1-1.478-1.539 1.75 1.75 0 0 1-.179-1.056c.053-.362.218-.698.471-.961-.251-1.042-.393-2.108-.423-3.179h-.062s-1.062-4.103 2.911-5.604 7.985 1.185 7.985 1.185.862-1.601 1.886-1.185c.878.354.408 1.493.247 1.839.221-.336.534-.603.9-.769.701-.316 1.671.577-.508 2.755-.224.227-.484.414-.77.555a10.58 10.58 0 0 1 .062 2.979c.379 1.901.35 3.861-.085 5.75-.044.188-.1.374-.169.554a5.39 5.39 0 0 1-2.634 2.995c-.66.344-1.388.539-2.133.569a5.05 5.05 0 0 0 .178 1.755 2.73 2.73 0 0 0 .947 1.332l5.143-.346a2.29 2.29 0 0 0 0-.262l.955.177a3.85 3.85 0 0 1 1.093.015z" class="C"/><use xlink:href="#L" opacity=".5" class="B"/><use xlink:href="#M" class="C"/><path d="M105.512 100.772a13.2 13.2 0 0 1-2.223 7.341c-1.451 2.173-3.514 3.867-5.928 4.868s-5.071 1.264-7.635.755-4.919-1.766-6.767-3.613a13.21 13.21 0 0 1-3.618-6.763c-.511-2.563-.249-5.219.751-7.633a13.21 13.21 0 0 1 4.867-5.929c2.173-1.452 4.728-2.227 7.342-2.227a13.17 13.17 0 0 1 5.062.992c1.605.661 3.064 1.633 4.292 2.86a13.16 13.16 0 0 1 2.864 4.289c.662 1.605 1 3.324.995 5.06z" class="B G"/><path d="M102.168 109.571a13.22 13.22 0 0 1-17.633 1.885l5.236-1.616c.1.108.193.231.293.362l.67-.131 1.263-.2a3.92 3.92 0 0 0 .524-1.617h-.724c.146-.523-.631-1.609-.631-1.609l-.262 1.432c-.308-.052-.605-.156-.878-.308-.354-.223-.77-1.786-.77-1.786l-1.109 1.871c-.2.331-.724 0-.724 0-.199-.883-.17-1.803.085-2.671a.91.91 0 0 0-.059-.944.91.91 0 0 0-.379-.311.9.9 0 0 0-.486-.069c-.034.513-.151 1.017-.346 1.493-.259.618-.379 1.286-.354 1.955 0 .555.046.947-.347.947s-.447-.354-.4-.947-.57-1.162-.216-1.647.085-1.801.085-1.801c-.216.923-1.232.877-1.401 1.539s.477 1.586.169 1.917-.832 0-.832 0 .439-.724.131-1.147-.77-.631-.578-1.493.616-.855.493-1.802-.578-.9 0-1.254a4.68 4.68 0 0 0 1.317-2.741c0-.77-.308-2.394.924-2.979s1.54-1.039 1.317-2.594.963-1.44 2.464-1.132c0 0 .77-1.186 1.448-.962s1.232.085 1.378-.308 2.094-.354 2.387 0c.273.216.595.36.938.421s.695.035 1.025-.074c.639-.262 2.31.77 2.31 1.493s-.046 1.101.862 1.501 1.078.616 1.47 2.186-.261 2.209.532 2.817.7 3.033.77 3.787 0 1.54 0 1.54l-.224.061c-.215.062-.392-.808-.354-1.455s-1.332-1.539-1.447-1.593c0 .061.277.6.438 1.024.182.771.242 1.566.178 2.355-.047.77.831 1.163.831 1.163l-.962.485s-.77-1.602-.493-2.433c.048-.276.03-.56-.053-.828s-.228-.511-.424-.712v1.54l-.654 1.316c-.393.747.308.97.416 1.363s-.862.416-.862.416l-.185-.947-.331.947c-.588.32-1.235.519-1.902.585a3.22 3.22 0 0 0 .385 1.501l.939-.047h1.886l2.857.255z" class="C"/><use xlink:href="#M" opacity=".5" class="B"/><path d="M147.445 60.158c12.979 0 23.5-10.518 23.5-23.494s-10.521-23.494-23.5-23.494-23.5 10.519-23.5 23.494 10.521 23.494 23.5 23.494z" class="C"/><path d="M170.176 36.664a22.59 22.59 0 0 1-4.728 13.856c-.81 1.059-1.715 2.044-2.702 2.941a21.16 21.16 0 0 1-2.919 2.248c-.036.038-.081.067-.13.085-.808.53-1.652 1.003-2.526 1.416a22.72 22.72 0 0 1-14.5 1.678c-4.886-1.051-9.289-3.683-12.527-7.49a22.72 22.72 0 0 1-4.852-9.675 22.71 22.71 0 0 1 .176-10.821 22.72 22.72 0 0 1 5.162-9.513 22.74 22.74 0 0 1 8.979-6.047c3.437-1.263 7.127-1.678 10.758-1.209a22.73 22.73 0 0 1 10.098 3.904c3.002 2.095 5.453 4.884 7.146 8.13s2.575 6.853 2.573 10.513l-.008-.015z" class="B J"/><path d="M152.734 36.664c.5-1.108.855-.623 2.31.493a3.67 3.67 0 0 1 1.283 1.425c.294.58.427 1.228.388 1.877 0 1.185-.224 3.549-.224 3.549l3.758 4.211-1.702 2.563-4.366-4.927s-2.156-1.624-2.517-3.449 1.07-5.743 1.07-5.743z" class="H"/><path d="M152.219 35.402l3.08 5.527c.068.121.097.26.082.398a.66.66 0 0 1-.167.371l-2.387 2.756a.68.68 0 0 1-.57.233.68.68 0 0 1-.301-.1c-.091-.056-.167-.134-.222-.225l-2.757-4.542 3.242-4.419z" class="D"/><g class="C"><path opacity=".4" d="M152.067 35.994l2.718 5.111-2.587 3.048-2.78-4.519 2.649-3.641z"/><path d="M159.828 55.701c0 .115.039.223.054.331l-.184-.246c-.808.53-1.652 1.003-2.526 1.416l.624-4.149.462-2.587.208-1.047c.267.052.526.14.77.262 1.178.577 2.31 1.955 3.472 3.78a21.1 21.1 0 0 1-2.88 2.24z"/><path d="M159.922 56.032l-.185-.246c-.808.53-1.652 1.003-2.526 1.416a22.72 22.72 0 0 1-14.499 1.678c-4.887-1.051-9.29-3.683-12.528-7.49.393-.092.77-.177 1.194-.254h.123l.239-.046c1.039-.2 2.102-.377 3.164-.531l1.394-.192c.616-.085 1.232-.154 1.84-.223h.147a101.94 101.94 0 0 1 4.189-.393l1.339-.085 1.71-.108 1.663-.077h.67l1.933-.054c2.025-.046 3.803-.046 5.22 0h.94l1.355.038h1.17c.093.339.185.693.27 1.055.392 1.54.77 3.333 1.093 5.219.015.077.031.185.085.292z"/></g><path d="M159.921 56.032l-.185-.246c-.808.53-1.652 1.003-2.526 1.416a22.72 22.72 0 0 1-14.499 1.678c-4.887-1.051-9.29-3.683-12.528-7.49l-.554.115.547-.123 1.201-.246h.123l.239-.046c1.039-.2 2.102-.377 3.164-.531l1.394-.192c.616-.085 1.232-.154 1.84-.223h.147c1.409-.162 2.818-.293 4.189-.393l1.332-.092 1.724-.1 1.664-.077h.67l1.925-.062h5.228.939 1.34l1.186.046.269 1.055c.393 1.54.77 3.333 1.094 5.219a.81.81 0 0 0 .077.292z" class="F G"/><path d="M138.09 50.089c2.495 2.309 8.624 1.432 8.624 1.432s3.85-1.047 3.019-2.24c-2.249-.377-3.342-1.424-3.789-2.771a6.59 6.59 0 0 1-.231-2.571c.035-.48.097-.958.185-1.432l-7.538-5.604c.962 3.695 2.179 10.5-.27 13.186z" class="H"/><path d="M140.078 40.461c.3 4.542 4.035 5.796 5.867 6.051a6.59 6.59 0 0 1-.231-2.571l-5.636-3.479z" class="F G"/><path d="M153.145 26.111s1.078 7.067-2.68 9.784-3.75-10.438-3.75-10.438l6.43.654z" class="D"/><path d="M139.569 41.515c.786 1.164 1.933 2.038 3.264 2.487s2.773.449 4.104-.001a7.12 7.12 0 0 0 4.081-3.325c.127-.219.24-.445.339-.677 1.848-4.318 2.433-11.878-2.133-14.703-.771-.488-1.631-.819-2.531-.973a6.93 6.93 0 0 0-2.711.072c-.89.202-1.731.579-2.475 1.107s-1.377 1.199-1.861 1.972a6.87 6.87 0 0 0-1.048 3.079c-.562 5.027-1.132 7.975.971 10.962z" class="H"/><g class="D"><path d="M145.962 33.231c-.093.4.092.77.362.816s.539-.254.608-.654-.092-.77-.354-.824-.516.246-.616.662zm4.609.785c-.092.4.092.77.362.816s.539-.246.608-.654-.092-.77-.354-.816-.508.269-.616.654z"/></g><path d="M149.076 33.969a14.73 14.73 0 0 0 1.348 3.849c-.316.148-.66.225-1.009.225s-.693-.077-1.009-.225l.67-3.849z" fill="#d58745"/><g class="D"><path d="M144.789 31.491a.25.25 0 0 0 .13.007c.043-.009.083-.03.116-.061a1.97 1.97 0 0 1 .772-.466c.29-.093.598-.118.899-.073.062.015.128.005.183-.028a.24.24 0 0 0 .109-.149c.016-.062.006-.128-.028-.183a.24.24 0 0 0-.149-.11 2.41 2.41 0 0 0-1.138.069c-.369.114-.704.314-.979.585-.023.022-.04.049-.052.078a.24.24 0 0 0-.019.092.24.24 0 0 0 .019.092c.012.029.029.055.052.078s.053.05.085.069zm8.04 1.27a.22.22 0 0 0 .139 0c.031-.008.06-.022.086-.042a.25.25 0 0 0 .063-.072c.015-.028.025-.059.029-.091a.22.22 0 0 0-.009-.095 2.4 2.4 0 0 0-1.494-1.639c-.03-.009-.062-.013-.093-.01a.24.24 0 0 0-.091.027c-.028.015-.052.036-.072.06s-.035.053-.044.084c-.015.061-.007.126.023.181s.079.098.139.119c.284.113.538.291.741.52s.35.501.429.797c.011.037.03.072.057.1s.06.049.097.062zm-9.487-7.851v2.255a1.67 1.67 0 0 0-1.086 1.978c.485 1.955-.932 4.726-2.503 5.712 0 0 .054-.816-.654-.708s-1.032 4.349.054 6.528c0 0-1.794-2.071-2.395-6.635-.554-4.226-.269-7.652.77-9.137l5.814.008z"/></g><path d="M135.71 34.263c.358 1.228 1.189 2.263 2.31 2.879 1.494.77 2.61-.447 2.51-2.055-.108-1.424-.993-3.603-2.649-3.726-.36-.025-.72.04-1.048.19s-.613.38-.829.669-.356.627-.408.984a2.16 2.16 0 0 0 .114 1.059z" class="H"/><g class="D"><path d="M143.341 27.165s1.463 1.455 2.887.393c0 0 1.609 1.34 2.926.385.208.344.484.643.811.877a2.98 2.98 0 0 0 1.091.486 1.02 1.02 0 0 0 .446-.037 1.03 1.03 0 0 0 .388-.224c.111-.102.198-.228.255-.368s.082-.291.074-.441c0 0 1.863 1.07 2.556.57s-.377-2.502-.377-2.502.878-.47.308-2.078-3.15-1.239-3.15-1.239.101-1.54-1.717-3.079a1.76 1.76 0 0 0-.701-.482c-.269-.101-.561-.134-.846-.097s-.558.144-.793.31a1.77 1.77 0 0 0-.555.646s-1.755-2.379-3.935-2.063-1.925 1.809-1.925 1.809-2.51-1.54-3.634 0 0 2.309 0 2.309-2.502.839-2.379 2.548 1.409 1.455 1.409 1.455-.716.816.908 1.54 3.157-1.001 3.157-1.001a1.11 1.11 0 0 0-.118.944c.052.156.138.299.251.418s.253.211.406.27c1.171.631 2.257-1.347 2.257-1.347zm4.959 12.169a14.45 14.45 0 0 0-1.425 1.54l-.315-.185c-1.448-.839-1.841-1.701-1.841-2.409a2.15 2.15 0 0 1 .27-.978 2.07 2.07 0 0 1 .3-.462c.663.911 1.514 1.67 2.495 2.225l.516.269z"/></g><path d="M147.813 39.041l-.431.439c-1.363-.77-2.21-1.54-2.394-2.186a2.03 2.03 0 0 1 .3-.454 7.88 7.88 0 0 0 2.525 2.202z" class="B"/><path d="M146.56 40.691c-1.448-.839-1.841-1.701-1.841-2.41a5.54 5.54 0 0 1 1.425 1.247 2.05 2.05 0 0 1 .416 1.162z" class="K"/><g class="C"><path d="M146.712 51.522s-8.832-6.004-11.642-6.335-2.31 3.164-2.31 3.164-2.172 0-1.34 2.671 12.836 4.141 17.263 2.817 7.069-3.803 6.337-6.158-2.787-.331-2.787-.331-1.193-2.209-2.911-1.694-2.61 5.866-2.61 5.866z"/><path d="M165.448 50.513c-.81 1.059-1.715 2.044-2.702 2.941-.906.833-1.882 1.585-2.919 2.248 0 .115.039.223.054.331l-.184-.246-1.902-2.733a16.47 16.47 0 0 1-1.856-3.71 3.93 3.93 0 0 1-.185-.954l-.77-1.016.239-.277 1.94-2.309.424-.493.831 1.085s1.071-.385 4.497 2.563c.905.795 1.752 1.654 2.533 2.571zm-82.96 153.001c12.273 0 22.222-9.946 22.222-22.216s-9.949-22.216-22.222-22.216-22.222 9.946-22.222 22.216 9.949 22.216 22.222 22.216z"/></g><path d="M103.931 181.3c.003 4.933-1.709 9.714-4.843 13.525a21.55 21.55 0 0 1-3.08 3.079 17.56 17.56 0 0 1-1.109.847c-1.046.756-2.159 1.413-3.326 1.963a21.38 21.38 0 0 1-10.079 2.035c-3.475-.151-6.861-1.149-9.864-2.905a20.12 20.12 0 0 1-2.31-1.578l-.115-.1a19.06 19.06 0 0 1-2.425-2.233c-2.385-2.554-4.109-5.653-5.022-9.026a21.43 21.43 0 0 1-.218-10.326c.77-3.409 2.363-6.577 4.638-9.23A21.45 21.45 0 0 1 84.835 160c3.474.387 6.8 1.618 9.69 3.584a21.45 21.45 0 0 1 6.888 7.699 21.44 21.44 0 0 1 2.488 10.025l.03-.008z" class="B J"/><path d="M96.073 197.881l-1.109.847c-1.046.756-2.159 1.413-3.326 1.963a21.38 21.38 0 0 1-10.079 2.035c-3.475-.151-6.861-1.149-9.864-2.905a20.12 20.12 0 0 1-2.31-1.578l-.116-.1v-.147c.185-.692.362-1.416.524-2.17.231-1.016.439-2.071.624-3.172.509-2.994.725-6.031.647-9.068-.377-11.354 1.686-15.519 6.329-17.743.208-.101.424-.208.654-.301a6.24 6.24 0 0 1 3.272-.408c3.973.539 7.423 4.242 7.423 4.242.675.984 1.282 2.012 1.817 3.079a51.18 51.18 0 0 1 5.336 19.583c.158 1.944.217 3.894.177 5.843z" class="D"/><use xlink:href="#N" class="C"/><use xlink:href="#N" class="B G"/><path d="M83.542 194.915c-4.99-.639-6.483-2.771-6.483-2.771 2.033-1.924 1.663-4.757 1.147-6.52a10.46 10.46 0 0 0-.616-1.632l5.998 1.124c-.137.835-.214 1.679-.231 2.525-.015.623.042 1.245.169 1.855.408 1.794 1.432 1.817 1.432 1.817 1.04 1.97-1.417 3.602-1.417 3.602z" class="N"/><path d="M83.357 187.642a8.08 8.08 0 0 0 .169 1.855c-2.379-.315-4.189-2.217-5.321-3.849a10.47 10.47 0 0 0-.616-1.632l5.998 1.124a17.78 17.78 0 0 0-.231 2.502z" class="F G"/><path d="M82.373 168.473c5.221.193 6.791 3.079 6.976 8.468.231 6.736-1.44 11.454-7.916 9.776-8.786-2.278-7.754-18.544.939-18.244z" class="N"/><path d="M86 176.527c.391.793.875 1.537 1.44 2.217a1.43 1.43 0 0 1-1.401.539L86 176.527z" fill="#d4827d"/><g class="D"><path d="M80.61 173.346c-.065.004-.128-.018-.177-.061-.05-.052-.078-.121-.078-.193s.028-.141.078-.192c.335-.319.74-.555 1.183-.688a2.95 2.95 0 0 1 1.366-.082c.07.011.133.05.175.108s.059.129.048.2a.26.26 0 0 1-.035.102c-.019.031-.044.058-.073.079s-.063.036-.099.043-.072.007-.108-.001a2.48 2.48 0 0 0-1.09.078 2.47 2.47 0 0 0-.951.538.28.28 0 0 1-.111.063c-.041.012-.085.014-.128.006zm8.146-.252a.29.29 0 0 1-.162-.046c-.25-.209-.543-.36-.859-.441s-.646-.091-.966-.029a.28.28 0 0 1-.203-.023c-.062-.033-.111-.087-.135-.154s-.016-.144.017-.209.09-.114.16-.137c.401-.091.818-.089 1.218.006a2.71 2.71 0 0 1 1.092.541c.057.044.096.108.107.18s-.005.144-.045.204c-.027.034-.061.061-.099.08a.28.28 0 0 1-.124.028zm-3.526 8.214a13.39 13.39 0 0 0-.678 1.793l-.339-.046c-1.54-.208-2.141-.808-2.387-1.409a1.99 1.99 0 0 1-.115-.923c.016-.177.055-.35.115-.516a7.29 7.29 0 0 0 2.888 1.024l.516.077z"/></g><path d="M84.675 181.231l-.216.523c-1.424-.2-2.402-.539-2.787-1.031.016-.177.055-.35.116-.516a7.29 7.29 0 0 0 2.887 1.024z" class="B"/><path d="M84.176 183.054c-1.54-.208-2.141-.808-2.387-1.408a4.84 4.84 0 0 1 1.632.569c.337.189.602.484.755.839z" class="K"/><path d="M76.338 177.081s2.603-4.196 2.356-7.521c0 0 10.503-3.849 10.618 6.674 0 0 1.363-9.284-7.608-9.823s-9.409 12.586-4.943 16.689c0 0-2.033-3.394-.424-6.019z" class="D"/><path d="M77.153 178.211a2.31 2.31 0 0 0-2.387-2.178c-1.625.115-2.518 3.41 1.471 4.357.578.13.924-.416.916-2.179z" class="N"/><g class="D"><path d="M79.442 165.048c2.826-.77 10.349-.885 12.127 6.928l-1.047.523a16.77 16.77 0 0 0-5.644-1.716c-.421-.743-.91-1.444-1.463-2.094a12.15 12.15 0 0 1 0 1.986s-4.913.724-7.107 2.717c-3.45 3.141-3.665 5.127-3.665 5.127s-2.387-10.916 6.799-13.471z"/><path d="M92.299 171.876a.19.19 0 0 1-.109-.038c-.032-.024-.055-.056-.068-.093-.335-1.194-.911-2.308-1.692-3.271a9.1 9.1 0 0 0-2.851-2.333c-3.85-1.909-8.47-.354-8.47-.339-.023.008-.048.012-.072.01s-.049-.007-.071-.018-.042-.026-.058-.044a.19.19 0 0 1-.037-.063c-.008-.023-.011-.048-.01-.073a.17.17 0 0 1 .019-.07c.011-.022.026-.042.044-.059s.04-.029.063-.037c.046 0 4.774-1.616 8.786.354a9.47 9.47 0 0 1 2.967 2.425 9.46 9.46 0 0 1 1.761 3.403c.015.046.011.095-.011.139s-.059.076-.105.092l-.085.015zm-10.92 4.111s1.224-1.039 1.802.355c-.56-.273-1.181-.395-1.802-.355zm5.801.77s.678-1.416 1.54-.415a3.56 3.56 0 0 0-1.54.415z"/></g><path d="M316.342 238.924c10.753-10.751 10.753-28.18 0-38.93s-28.187-10.75-38.941 0-10.753 28.179 0 38.93 28.188 10.75 38.941 0z" class="C"/><path d="M323.636 219.464c.008 4.172-.971 8.286-2.856 12.008a29.74 29.74 0 0 1-1.186 2.11c-.331.531-.678 1.054-1.055 1.539-1.565 2.166-3.446 4.084-5.582 5.689-.486.377-.986.716-1.502 1.062-2.08 1.353-4.337 2.412-6.707 3.149a26.88 26.88 0 0 1-18.942-1.209c-.431-.2-.862-.416-1.286-.631-4.743-2.485-8.643-6.321-11.203-11.024-.354-.654-.685-1.347-.986-2.039-1.585-3.647-2.337-7.6-2.202-11.573s1.154-7.866 2.983-11.396 4.421-6.609 7.589-9.012a26.76 26.76 0 0 1 10.724-4.88c3.893-.81 7.918-.743 11.782.197a26.78 26.78 0 0 1 10.555 5.236 26.75 26.75 0 0 1 7.283 9.261c1.709 3.589 2.597 7.514 2.599 11.49l-.008.023z" class="B J"/><path d="M283.511 218.404a13.68 13.68 0 0 1-1.656 2.009l-2.31 10.923-1.54 7.128a27.12 27.12 0 0 1-4.72-6.281l.578-1.786 3.649-11.501c.247-1.031-.654-6.096-.446-7.02s4.828-2.025 5.829-2.009.993 7.875.616 8.537z" class="M"/><use xlink:href="#O" class="C"/><use xlink:href="#O" class="E F"/><use xlink:href="#P" class="C"/><use xlink:href="#P" class="E F"/><path opacity=".8" d="M312.956 240.835l-1.501 1.063a27.04 27.04 0 0 1-6.707 3.148 26.88 26.88 0 0 1-18.942-1.209l-1.286-.631.1-.662a24.99 24.99 0 0 1 1.54-2.109c2.611-3.168 5.488-6.107 8.601-8.783.787.848 1.847 1.393 2.996 1.539 2.525.501 5.39-.685 7.807-2.109a60.17 60.17 0 0 1 4.197 4.619 24.16 24.16 0 0 1 2.841 4.272l.354.862z" class="B"/><path d="M308.161 228.516a12.95 12.95 0 0 1-4.143 2.984 12.97 12.97 0 0 1-4.974 1.15c-5.182.231-3.449-3.849-3.449-3.849 1.902-.5 2.956-1.385 3.488-2.471.67-1.401.477-3.125.046-4.819l-.092-.354 7.576-6.743c-.7 4.003-1.332 11.424 1.548 14.102z" class="M"/><path d="M305.365 220.313c-.4 2.601-3.565 5.157-6.283 5.965.67-1.401.477-3.125.046-4.819l6.276-4.803c.218 1.21.205 2.451-.039 3.657z" class="F G"/><path d="M300.461 205.608c1.794 2.025.17 4.272-5.752 6.928-1.332-3.079-.377-8.214 1.54-9.068s2.641.416 4.212 2.14z" class="D"/><path d="M308.777 212.036c-1.594 5.258-2.264 8.406-5.598 10.508-5.02 3.148-11.026-.847-11.034-6.474 0-5.05 2.595-12.794 8.316-13.671a7.49 7.49 0 0 1 8.57 6.212c.179 1.146.092 2.318-.254 3.425z" class="M"/><g class="D"><path d="M300.467 211.582c-.1.431-.416.732-.701.662s-.423-.469-.323-.9.408-.77.693-.67.4.508.331.908zm-4.935-1.132c-.1.431-.416.77-.7.662s-.432-.47-.332-.909.424-.731.701-.662.439.501.331.909z"/></g><path d="M297.097 211.035a15.66 15.66 0 0 1-2.956 3.218 2.59 2.59 0 0 0 .896.657c.343.151.715.227 1.09.22l.97-4.095z" fill="#892b29"/><g class="D"><path d="M302.187 210.381c.055.016.114.016.169 0a.26.26 0 0 0 .139-.145.27.27 0 0 0 0-.201c-.159-.384-.407-.724-.725-.992a2.6 2.6 0 0 0-1.1-.548c-.065-.013-.133-.001-.189.035s-.096.093-.111.158a.27.27 0 0 0 .048.193c.04.056.1.094.167.107a2.05 2.05 0 0 1 1.425 1.232c.016.038.041.072.071.1s.067.049.106.061zm-8.504-2.124c.049.01.1.007.148-.009s.089-.045.122-.084a2.09 2.09 0 0 1 .754-.607c.296-.14.62-.209.947-.201.071.007.141-.015.195-.059a.27.27 0 0 0 .098-.179c.006-.069-.014-.137-.057-.19a.26.26 0 0 0-.174-.095 2.6 2.6 0 0 0-1.209.24c-.378.175-.708.439-.963.768a.26.26 0 0 0-.056.083c-.013.031-.019.064-.019.098s.006.067.019.098a.26.26 0 0 0 .195.137zm14.078-1.441c-2.695.262-3.026 3.018-.485 8.984 3.08-1.371 5.867-5.774 5.043-7.698s-2.194-1.517-4.558-1.286z"/></g><path d="M310.301 216.902c-.334.597-.782 1.122-1.32 1.545s-1.155.735-1.814.918c-1.763.477-2.633-1.101-2.133-2.756.454-1.493 1.917-3.541 3.681-3.287.387.056.754.209 1.067.445a2.3 2.3 0 0 1 .906 2.046c-.034.39-.168.764-.387 1.089z" class="M"/><g class="D"><path d="M302.592 204.593s-.562 5.527 4.474 7.166 6.93-1.239 6.93-1.239c-.433-.044-.862-.116-1.286-.216.622-.672 1.066-1.489 1.292-2.376a5.5 5.5 0 0 0 .002-2.704c-.855-2.879-5.306-6.782-9.433-6.413-1.082-.682-2.294-1.135-3.559-1.33a9.32 9.32 0 0 0-3.794.199c-4.074 1.155-4.62 5.812-4.62 5.812s.531-2.771 2.387-3.079c0 0-3.488 5.096-.77 7.374.023-.054 1.74-5.442 8.377-3.194zm-7.412 12.54c.387.6.729 1.228 1.024 1.878l.362-.1c1.648-.462 2.256-1.224 2.433-1.925.082-.341.082-.697 0-1.039-.043-.196-.113-.385-.208-.562-.886.738-1.921 1.276-3.034 1.578-.315.116-.577.17-.577.17z"/></g><path d="M295.738 216.971l.316.546c1.54-.439 2.572-.954 2.926-1.539-.043-.196-.113-.385-.208-.562-.888.729-1.923 1.259-3.034 1.555z" class="B"/><path d="M296.562 218.911c1.649-.462 2.257-1.224 2.434-1.925a5.73 5.73 0 0 0-1.725.878c-.338.267-.586.633-.709 1.047z" class="K"/><path d="M216.093 73.665l-10.552-.505a2.84 2.84 0 0 0-2.974 2.701l-.505 10.549a2.84 2.84 0 0 0 2.703 2.973l10.552.505a2.84 2.84 0 0 0 2.974-2.701l.505-10.549a2.84 2.84 0 0 0-2.703-2.973z" class="C"/><path opacity=".6" d="M215.052 78.539c-1.055-1.909-3.28-1.301-4.481.092-1.063-1.501-3.219-2.309-4.451-.516-2.087 3.041 1.756 6.158 3.58 7.367l.524.354.554-.3c1.933-1.047 6.053-3.764 4.274-6.997z" class="B"/><path d="M211.848 88.463s-2.364 4.765-7.207 6.058c0 0 2.71-1.393 2.748-6.474l4.459.416z" class="C"/><path d="M224.223 138.699s6.113-6.112 8.077-10.461c0 0-.77-2.44-.046-3.695s4.774-4.881 5.859-4.111 2.657 3.803 2.01 5.073-4.62 3.849-4.62 3.849-4.951 9.93-8.016 12.163-3.264-2.818-3.264-2.818z" class="H"/><use xlink:href="#Q" class="D"/><use xlink:href="#Q" opacity=".05" class="B"/><path d="M230.367 279.508l-4.674.824-1.918-6.374-1.755-5.851 5.397-1.886 1.564 7.036 1.386 6.251z" class="H"/><path d="M224.637 280.216c-.077-.523 6.329-1.232 6.329-1.232s4.62 3.272 8.54 3.495 2.225 2.864-2.002 3.61l-10.472 1.848c-3.003.531-1.579-2.356-2.395-7.721z" class="D"/><path d="M234.108 280.046a10.15 10.15 0 0 1-2.31-.369h-.054c-.019-.011-.035-.027-.046-.046v-.039c-.004-.026-.004-.052 0-.077 0-.077.285-1.639 1.078-2.147.12-.079.256-.13.398-.151a.99.99 0 0 1 .426.027c.315.084.485.239.516.455 0 .339-.355.77-.824 1.116a2.66 2.66 0 0 1 1.447-.093c.092.027.177.075.249.139a.66.66 0 0 1 .167.231c.07.104.108.225.108.349a.63.63 0 0 1-.108.351 1.35 1.35 0 0 1-.497.237 1.36 1.36 0 0 1-.55.017zm-1.733-.578c1.001.231 2.226.37 2.48.077 0 0 .092-.106 0-.345a.4.4 0 0 0-.223-.193c-.781-.057-1.561.103-2.257.461zm.932-1.954a.62.62 0 0 0-.354.108 2.88 2.88 0 0 0-.847 1.539c.878-.524 1.694-1.177 1.663-1.462 0-.092-.169-.146-.262-.177a.89.89 0 0 0-.2-.008z" class="C"/><path d="M229.004 273.403l-5.205.686-1.764-5.92 5.39-1.917 1.579 7.151z" class="F G"/><path d="M199.143 281.508h-4.751l-.777-6.612-.709-6.066 5.644-.916.316 7.198.277 6.396z" class="H"/><path d="M193.375 281.208c0-.523 6.445-.115 6.445-.115s3.958 4.026 7.808 4.934 1.694 3.21-2.603 3.21h-10.634c-3.049 0-1.139-2.602-1.016-8.029z" class="D"/><path d="M203.21 282.741c-.929-.115-1.831-.391-2.665-.816l-.061-.038v-.039c-.015-.042-.015-.088 0-.131 0-.061.562-1.539 1.44-1.924a.98.98 0 0 1 .416-.092c.143 0 .285.031.415.092.293.138.432.316.424.539 0 .338-.478.677-1.001.954a2.59 2.59 0 0 1 1.44.162c.085.043.16.103.22.178a.65.65 0 0 1 .126.253c.046.116.056.244.029.366a.62.62 0 0 1-.183.319.92.92 0 0 1-.6.177zm-2.079-.924c.947.401 2.125.77 2.433.508 0 0 .1-.084 0-.338a.34.34 0 0 0-.068-.132c-.032-.039-.072-.07-.117-.091-.74-.19-1.518-.171-2.248.053zm1.147-1.77c-.087.003-.173.022-.254.054-.508.332-.896.818-1.109 1.385.955-.361 1.879-.862 1.894-1.154 0-.085-.146-.17-.231-.216a.71.71 0 0 0-.308-.069h.008z" class="C"/><path d="M198.866 275.258l-5.251-.231-.709-6.128 5.644-.954.316 7.313z" class="F G"/><path d="M229.449 269.694l-7.7 1.355c-7.761-19.321-13.275-35.456-17.171-48.843-2.102-7.22-3.734-13.648-4.997-19.344l.377 21.038v47.788h-7.823c-18.996-90.55-5.536-111.249-5.536-111.249l22.722-3.849a102.73 102.73 0 0 1 1.902 12.655l1.024 7.506 8.886 45.856 8.316 47.087z" class="C"/><g fill="#0a79d1"><path d="M220.559 270.093l9.532-3.155-.131 4.048-7.884 2.517-1.517-3.41zm-29.446.44l9.948-1.455-.839 3.972-8.201 1.109-.908-3.626z"/></g><g class="D"><path d="M207.275 110.887a.17.17 0 0 1-.1 0c-2.895-1.748-5.482-8.175-5.59-8.468-.01-.023-.015-.048-.015-.073s.006-.05.016-.073.025-.044.043-.061.04-.031.064-.039a.2.2 0 0 1 .148.003c.048.02.086.058.106.105 0 .061 2.641 6.581 5.39 8.26a.2.2 0 0 1 .089.12c.013.05.006.104-.02.149-.032.041-.079.069-.131.077z"/><path d="M183.967 93.998s1.132-3.849 8.678-4.496 11.296 6.774 9.517 12.317c0 0 1.587 7.513 4.62 9.722 0 0-14.522 6.559-21.852 6.597-1.633 0-5.113-8.09-5.567-13.925-.416-5.635 1.278-10.038 4.604-10.215zm2.635 63.044v3.395l23.177-1.778v-4.011l-23.177 2.394z"/></g><g class="B"><path d="M186.602 157.042v3.395l23.177-1.778v-4.011l-23.177 2.394z" class="E"/><path d="M204.432 155.465l-5.069.454.344 3.842 5.069-.454-.344-3.842z"/></g><g class="I"><path d="M194.388 155.605l-1.146.058.3 5.851 1.145-.059-.299-5.85zm14.149-1.539l-1.146.058.298 5.85 1.146-.058-.298-5.85z"/></g><path d="M209.87 155.056l-23.177 2.002-.978-9.869-1.486-7.151-2.01-7.121-.131-.439c-.477-1.539-3.85-.361-4.181-2.201-1.339-8.191 7.5-8.791 10.78-9.33 3.44-.61 6.919-.976 10.411-1.093 4.504-.039 9.686.469 9.686.469s.77.177 1.202 4.958c.4 4.48.816 13.456-.116 29.775z" class="D"/><path d="M197.157 124.974c-5.706-.77-7.423-3.172-7.423-3.172 3.619-3.418.608-9.345.608-9.345l6.876 1.286c-.155.957-.245 1.924-.269 2.894-.046 4.172 1.84 4.211 1.84 4.211 1.17 2.263-1.632 4.126-1.632 4.126z" class="H"/><path d="M197.22 113.743c-.155.957-.245 1.924-.269 2.894-4.62 0-6.607-4.18-6.607-4.18l6.876 1.286z" class="F G"/><path d="M191.953 94.506c5.837-1.324 8.424 1.378 10.211 7.297 2.24 7.39 1.778 13.087-5.883 13.156-10.403.062-14.03-18.259-4.328-20.453z" class="H"/><path d="M198.312 102.328c.667.766 1.422 1.451 2.25 2.04a1.64 1.64 0 0 1-.55.681 1.65 1.65 0 0 1-.821.304l-.879-3.025z" fill="#d58745"/><g class="D"><path d="M194.63 102.657c.123.477-.038.931-.354 1.008s-.678-.239-.77-.716 0-.931.354-1.008.655.238.77.716z"/><path d="M193.715 101.996l.932-.662s-.293 1-.932.662zm6.821-.925c.123.477-.039.924-.354 1.009s-.678-.247-.77-.724.038-.924.354-1.001.654.239.77.716z"/><path d="M199.621 100.41l.931-.67s-.292.993-.931.67zm-8.291-.031c-.041.01-.083.01-.123 0-.065-.033-.115-.09-.138-.159s-.018-.145.014-.21a3.37 3.37 0 0 1 1.087-1.112c.444-.281.947-.454 1.47-.505.073-.004.145.02.201.067s.091.114.099.187c.004.037.001.073-.009.109s-.027.068-.05.097a.28.28 0 0 1-.187.103 2.85 2.85 0 0 0-1.205.408 2.84 2.84 0 0 0-.905.893c-.028.041-.066.074-.111.095s-.094.031-.143.028zm6.52-2.663c-.047 0-.093-.012-.133-.035s-.074-.056-.098-.096c-.039-.062-.053-.136-.039-.208s.056-.135.116-.177a3.08 3.08 0 0 1 2.687-.069c.036.011.069.03.098.055s.051.055.068.089.025.071.026.109-.004.075-.018.111a.29.29 0 0 1-.061.094.28.28 0 0 1-.204.083c-.038-.001-.075-.009-.109-.025a2.52 2.52 0 0 0-2.179 0c-.043.039-.097.063-.154.069zm.995 10.144a15.17 15.17 0 0 0-.223 2.179l-.385.054c-1.733.208-2.611-.262-3.08-.855a2.18 2.18 0 0 1-.401-.993c-.029-.201-.029-.406 0-.608 1.131.346 2.324.443 3.496.285l.593-.062z"/></g><path d="M198.253 107.922l-.085.639c-1.64.2-2.818.115-3.388-.316-.029-.201-.029-.406 0-.608a8.21 8.21 0 0 0 3.473.285z" class="B"/><path d="M198.236 110.094c-1.733.208-2.611-.262-3.08-.855.663-.071 1.333-.022 1.978.147.434.111.821.359 1.102.708z" class="K"/><path d="M187.793 105.782s1.648-5.388.393-9.014c0 0 10.503-7.352 13.729 4.264 0 0-1.232-10.684-11.319-8.644s-6.722 16.712-.547 19.906c0-.015-3.264-3.094-2.256-6.512z" class="D"/><path d="M189.033 106.798c-.21-.661-.675-1.213-1.291-1.533s-1.334-.384-1.997-.176c-1.763.601-1.786 4.511 2.911 4.388.677-.023.901-.731.377-2.679z" class="H"/><path d="M188.189 96.769s6.052-2.232 9.456-.554c0 0-3.666-3.295-9.887-.192l.431.747z" class="D"/><path d="M184.438 122.433s6.707 5.442 12.951 5.35 8.47-7.105 8.47-7.105-9.748-2.864-21.421 1.755z" class="H"/><path d="M204.579 222.204c-2.102-7.22-3.734-13.648-4.997-19.344a178.68 178.68 0 0 1 1.471-20.176s3.334 26.026 3.526 39.52z" class="F G"/><path d="M165.672 134.488s-4.62-7.328-5.544-12.008c0 0 1.271-2.21.87-3.588s-3.565-5.819-4.789-5.311-3.442 3.079-3.08 4.495 3.665 4.811 3.665 4.811 2.61 10.777 5.097 13.641 3.781-2.04 3.781-2.04z" class="H"/><use xlink:href="#R" class="D"/><use xlink:href="#R" opacity=".05" class="B"/><g class="D"><path d="M155.379 127.253l5.767-3.464.917 1.494-5.444 4.819-1.24-2.849zm72.785 4.395l4.666 5.781.817-1.817-4.197-4.88-1.286.916z"/></g><use xlink:href="#S" class="C"/><use xlink:href="#S" class="E F"/><path d="M230.198 123.473l7.384-8.991c.061-.073.137-.133.222-.176s.178-.068.273-.074a.7.7 0 0 1 .28.04.72.72 0 0 1 .242.148l3.288 3.079a.7.7 0 0 1 .215.462c.012.175-.043.348-.154.485l-7.492 9.237c-.066.074-.146.133-.237.174a.71.71 0 0 1-.287.061c-.098 0-.196-.021-.286-.061s-.171-.1-.237-.174l-3.172-3.31a.69.69 0 0 1-.039-.9z" class="C"/><path opacity=".6" d="M237.874 114.844l3.65 3.525-7.138 8.783-3.55-3.733 7.038-8.575z" class="B"/></g><defs><clipPath id="A"><path d="M0 0h402v300H0z" class="B"/></clipPath><path id="B" d="M194.57 197.056l6.16.208c15.535-.243 30.424-6.256 41.77-16.867a62.56 62.56 0 0 0 19.614-40.543c0-.385.062-.77.085-1.14a62.4 62.4 0 0 0-2.672-22.585 62.64 62.64 0 0 0-18.173-28.19A62.67 62.67 0 0 0 211.24 73.16c-2.086-.377-4.204-.67-6.352-.847a62.52 62.52 0 0 0-28.716 4.359c-9.097 3.687-17.197 9.465-23.644 16.864-7.622 8.723-12.672 19.39-14.588 30.813s-.622 23.153 3.736 33.884 11.611 20.043 20.949 26.898 20.398 10.983 31.945 11.925z"/><path id="C" d="M161.784 94.121c.555-.708.909-1.54 1.948-1.701 1.417-.246 1.949.547 1.333 1.894a.54.54 0 0 0-.085.377c.092.408.708.169 1.055-.062a2.8 2.8 0 0 1 1.342-.417c.475-.023.949.076 1.376.286.208.085.593-3.795.385-4.241-.709-1.54-3.981-.824-3.311-2.525 1.232 0 2.487.131 3.711.223l.208-1.77c-.054.439 2.233.346 2.495.216 1.009-.516.731-2.309 2.541-2.048 2.31.377 2.418 4.873-.185 4.134a11.72 11.72 0 0 0-.924 4.357h-1.417c-.115.165-.191.354-.22.553s-.012.402.051.594c.578.384 1.257.589 1.952.589a3.53 3.53 0 0 0 1.952-.589c.77.57 1.794 0 2.556-.516 1.071 1.724 4.143 1.486 4.928-.385s-1.17-4.242-3.157-3.849a4.54 4.54 0 0 0-.962-2.61c1.233.019 2.441-.349 3.455-1.052s1.782-1.705 2.197-2.867c.4-1.17.492-2.587 1.478-3.333.439-.331.993-.47 1.455-.77 1.024-.693 1.325-2.04 1.486-3.272l.231-2.471c-14.391 2.35-27.511 9.646-37.098 20.63a2.44 2.44 0 0 0 .092 1.27c.217.335.506.618.845.828a2.71 2.71 0 0 0 1.119.388c3.003.77 4.92.623 6.999-1.717.059-.046.115-.095.169-.146z"/><path id="D" d="M47.676 69.395c-.002 1.815.536 3.59 1.544 5.101a9.18 9.18 0 0 0 9.423 3.907 9.18 9.18 0 0 0 4.701-2.512c1.284-1.284 2.158-2.919 2.512-4.7s.171-3.626-.524-5.303-1.873-3.11-3.384-4.118a9.18 9.18 0 0 0-5.102-1.543c-1.205-.001-2.398.236-3.511.696a9.16 9.16 0 0 0-4.964 4.963 9.16 9.16 0 0 0-.696 3.51z"/><path id="E" d="M52.205 238.57c4.503 0 8.154-3.65 8.154-8.152s-3.651-8.152-8.154-8.152-8.154 3.65-8.154 8.152 3.651 8.152 8.154 8.152z"/><path id="F" d="M357.155 173.114a9 9 0 0 0 0-12.727c-3.516-3.514-9.215-3.514-12.73 0a9 9 0 0 0 0 12.727c3.515 3.514 9.214 3.514 12.73 0z"/><path id="G" d="M155.977 250.45l-74.598-70.104 10.549-79.735.085-.092 56.21-63.061h.146l101.848-14.087 62.193 53.885v.2l-16.108 144.712-.278.054-140.047 28.228zm-73.782-70.389l74.02 69.557 139.37-28.097 16.024-144.003-61.6-53.346L148.6 38.182l-55.941 62.76-10.464 79.119z"/><path id="H" d="M297.565 84.883l-1.447 13.086a24.75 24.75 0 0 1-5.575-6.674l2.217-7.244.224-.708.831.108 3.427.431.423.054-.1.947z"/><path id="I" d="M304.11 93.335l-2.233 8.306-.862-.416a24.01 24.01 0 0 1-4.882-3.218c.177-.4 4.751-10.723 6.46-10.6l1.517 5.927z"/><path id="J" d="M332.131 93.899a23.77 23.77 0 0 1-3.797 4.018c-1.264 1.096-2.643 2.053-4.111 2.856l.308-.986a25.38 25.38 0 0 1 4.104-7.036 27.06 27.06 0 0 1 2.248-2.525c.608.5.993 1.809 1.248 3.672z"/><path id="K" d="M249.319 39.313c7.739 0 14.014-6.273 14.014-14.01s-6.275-14.01-14.014-14.01-14.014 6.273-14.014 14.01 6.274 14.01 14.014 14.01z"/><path id="L" d="M165.998 258.713a14.01 14.01 0 0 0 0-19.813 14.02 14.02 0 0 0-19.819 0 14.01 14.01 0 0 0 0 19.813 14.02 14.02 0 0 0 19.819 0z"/><path id="M" d="M105.934 103.978c1.778-7.531-2.888-15.077-10.42-16.854s-15.08 2.886-16.858 10.417 2.887 15.076 10.42 16.854a14.02 14.02 0 0 0 16.859-10.417z"/><path id="N" d="M95.911 192.029a6.42 6.42 0 0 0-2.241-1.17l-8.47-.408-1.301.062-6.029.615-1.748.285c-1.922.316-3.826.73-5.706 1.24l-2.687.769c-.456.764-.769 1.604-.924 2.479.742.813 1.554 1.56 2.425 2.232l.115.101c.732.579 1.504 1.106 2.31 1.578a21.39 21.39 0 0 0 9.864 2.905 21.38 21.38 0 0 0 10.079-2.036 20.84 20.84 0 0 0 3.326-1.963l1.109-.846c1.128-.92 2.16-1.952 3.08-3.079a29.41 29.41 0 0 0-3.203-2.764z"/><path id="O" d="M287.124 230.441v.039l-.97 9.953-.339 3.402-1.286-.631c-4.744-2.484-8.643-6.321-11.204-11.023a26.27 26.27 0 0 1-.985-2.04l1.54.254 5.652.939 1.216.2-1.424 6.928s5.197-7.243 7.8-8.021z"/><path id="P" d="M320.78 231.474l-1.186 2.11-1.055 1.539c-1.565 2.166-3.447 4.084-5.583 5.689l-1.501 1.062c-2.08 1.353-4.337 2.412-6.707 3.149a26.88 26.88 0 0 1-18.942-1.209l-1.286-.631a87.44 87.44 0 0 1 2.595-12.725v-.038c2.775-.793 5.607-1.372 8.47-1.732h.139c4.121-.33 8.258-.417 12.389-.262 2.879.073 5.749.361 8.586.862 1.427.596 2.794 1.328 4.081 2.186z"/><path id="Q" d="M208.76 120.324c3.558.462 7.623 17.705 10.465 19.345s10.225-7.913 10.225-7.913l3.381 3.848s-9.772 13.626-13.622 12.379-11.111-14.626-11.111-14.626l.662-13.033z"/><path id="R" d="M178.183 126.267c2.31-.323 7.053 4.234 6.337 8.175s-7.323 15.026-12.42 14.164c-7.2-1.224-15.108-20.161-15.108-20.161l3.95-3.441s9.325 16.166 11.158 15.827 6.083-14.564 6.083-14.564z"/><path id="S" d="M230.496 123.828l7.377-8.991c.061-.073.137-.133.222-.176s.178-.068.273-.074.19.008.28.04.172.083.241.148l3.288 3.079c.129.121.207.285.219.461s-.045.35-.157.486l-7.492 9.191c-.062.077-.139.14-.227.184a.68.68 0 0 1-.282.074c-.099.005-.197-.012-.288-.049a.69.69 0 0 1-.243-.163l-3.18-3.31c-.11-.122-.174-.28-.179-.444a.7.7 0 0 1 .148-.456z"/></defs></svg>