<svg xmlns="http://www.w3.org/2000/svg" xmlns:xlink="http://www.w3.org/1999/xlink" width="816" height="644" fill="none" xmlns:v="https://vecta.io/nano"><style><![CDATA[.B{fill:#263238}.C{fill:#2196f3}.D{opacity:.3}.E{fill:#fafafa}.F{fill:#fff}.G{fill:#b78876}.H{fill:#e0e0e0}.I{fill:#455a64}.J{fill:#aa6550}.K{fill:#eb996e}.L{fill:#ebebeb}.M{fill:#ffbe9d}]]></style><g clip-path="url(#A)"><path d="M117.336 139.308c-.128-10.819 2.953-21.433 8.854-30.503s14.355-16.187 24.297-20.455 20.926-5.495 31.565-3.525a54.76 54.76 0 0 1 28.213 14.591c7.755 7.544 13.102 17.218 15.364 27.799s1.34 21.594-2.652 31.65a54.76 54.76 0 0 1-19.777 24.854c-8.904 6.148-19.429 9.521-30.247 9.692-14.543.178-28.563-5.417-38.988-15.559s-16.405-24.002-16.629-38.544zm80.916-1.252c-.11-5.17-1.748-10.192-4.709-14.431a26.18 26.18 0 0 0-27.06-10.584 26.18 26.18 0 0 0-13.25 7.408 26.17 26.17 0 0 0-6.91 13.517c-.918 5.089-.307 10.336 1.754 15.079s5.481 8.768 9.828 11.569 9.427 4.251 14.597 4.168c6.968-.141 13.595-3.044 18.423-8.069a26.29 26.29 0 0 0 7.327-18.732v.075z" fill="#f5f5f5"/><path d="M117.336 139.308c-.249-14.541 5.277-28.588 15.367-39.062s23.919-16.522 38.461-16.818l.45 28.704a26.27 26.27 0 0 0-18.464 8 26.3 26.3 0 0 0-5.561 8.621c-1.269 3.21-1.894 6.64-1.838 10.092a26.29 26.29 0 0 0 2.164 10.028c1.373 3.168 3.356 6.034 5.837 8.436s5.41 4.291 8.621 5.56a26.28 26.28 0 0 0 10.093 1.838l.45 28.691c-14.537.174-28.549-5.421-38.967-15.56a54.92 54.92 0 0 1-16.613-38.53z" class="H"/><path d="M166.281 79.009c35.314-.563 63.492 26.838 64.055 62.315l-33.424.539c-.275-16.962-13.181-27.64-30.043-27.365l-.588-35.488z" class="L"/><g class="H"><path d="M66.175 337.012H51.992v56.631h14.183v-56.631zm20.86 12.355H72.852v44.277h14.183v-44.277zm21.164 10.113H94.016v34.162h14.183V359.48zm19.592 13.87h-14.182v20.291h14.182V373.35z"/></g><path d="M310.8 314.197H138.363V420.926H310.8V314.197Z" class="E"/><path d="M269.18 391.358c-11.955-4.531-25.712 7.999-37.429 2.892-6.823-2.98-9.915-10.691-13.257-17.338s-9.101-13.67-16.499-12.894-13.507 9.426-20.717 7.335c-4.544-1.314-6.81-6.346-7.949-10.94s-1.89-9.627-5.395-12.894-10.69-2.353-11.266 2.341v56.582h134.944s-18.289-13.519-22.432-15.084z" class="L"/><g class="H"><path d="M295.154 406.443c0 .125-32.685.226-72.992.226s-73.006-.101-73.006-.226 32.673-.213 73.006-.213l72.992.213zm0-24.71c0 .125-32.685.225-72.992.225s-73.006-.1-73.006-.225 32.673-.213 73.006-.213l72.992.213zm0-24.687c0 .125-32.685.213-72.992.213s-73.006-.088-73.006-.213 32.673-.226 73.006-.226l72.992.226zm0-23.51c0 .113-32.685.213-72.992.213s-73.006-.1-73.006-.213 32.673-.225 73.006-.225l72.992.225z"/></g><path d="M768.461 113.596H501.664V214.704H768.461V113.596Z" class="E"/><g class="L"><path d="M746.014 137.505c0 .188-45.34.326-101.259.326s-101.271-.138-101.271-.326 45.341-.325 101.271-.325l101.259.325z"/><use xlink:href="#B"/><path d="M746.014 161.441c0 .175-45.34.325-101.259.325s-101.271-.15-101.271-.325 45.341-.326 101.271-.326l101.259.326zm0 11.953c0 .188-45.34.325-101.259.325s-101.271-.137-101.271-.325 45.341-.326 101.271-.326l101.259.326zm0 11.968c0 .175-45.34.326-101.259.326s-101.271-.151-101.271-.326 45.341-.325 101.271-.325l101.259.325z"/></g><g class="H"><path d="M728.326 171.428s-.138.188-.438.526a5.18 5.18 0 0 1-1.703 1.077 8.01 8.01 0 0 1-7.385-1.352 13.4 13.4 0 0 1-3.48-4.394c-.977-1.815-1.74-3.906-2.654-6.096a19.15 19.15 0 0 0-3.968-6.36c-.968-.959-2.147-1.679-3.443-2.103a9.06 9.06 0 0 0-4.231-.237 16.2 16.2 0 0 0-8.074 4.293c-2.416 2.166-4.531 4.857-7.135 7.286-2.61 2.678-6.062 4.375-9.776 4.807a9 9 0 0 1-5.608-1.49c-1.617-1.189-2.947-2.724-3.894-4.494-2.015-3.48-3.041-7.511-5.658-10.69a9.12 9.12 0 0 0-4.894-3.393 6.8 6.8 0 0 0-3.037.027 6.78 6.78 0 0 0-2.721 1.35c-1.644 1.336-2.933 3.056-3.756 5.007a32.14 32.14 0 0 0-1.79 6.259c-.412 2.24-1.019 4.439-1.815 6.572a14.64 14.64 0 0 1-1.64 3.055c-.687.933-1.49 1.774-2.391 2.503a15.01 15.01 0 0 1-6.171 3.08c-2.234.571-4.573.605-6.823.1a15.3 15.3 0 0 1-6.009-2.967c-1.777-1.327-3.392-2.791-5.082-4.118a15.13 15.13 0 0 0-5.47-2.98 7.89 7.89 0 0 0-5.859.764 13.78 13.78 0 0 0-4.369 4.068c-1.119 1.648-2.107 3.38-2.954 5.183-.85 1.78-1.829 3.495-2.929 5.132a13.43 13.43 0 0 1-4.206 3.981 8.51 8.51 0 0 1-5.483 1.252c-1.849-.295-3.535-1.235-4.757-2.654-1.167-1.336-2.06-2.888-2.629-4.569-.532-1.6-.95-3.236-1.251-4.895-.576-3.204-1.152-6.334-2.817-8.762a9.87 9.87 0 0 0-6.497-4.845 7.31 7.31 0 0 0-3.755.463 10.02 10.02 0 0 0-3.017 1.991c-3.417 3.267-5.007 7.223-7.598 9.513s-5.007 3.48-6.798 3.418a5.75 5.75 0 0 1-1.977-.351c-.413-.175-.626-.288-.626-.288a6.98 6.98 0 0 0 2.603.514c1.766 0 4.282-1.102 6.622-3.468s4.056-6.259 7.511-9.614c.904-.87 1.955-1.574 3.105-2.078 1.251-.511 2.615-.688 3.955-.513a10.35 10.35 0 0 1 3.96 1.77 10.34 10.34 0 0 1 2.888 3.237c.837 1.318 1.474 2.752 1.89 4.257.425 1.527.713 3.104 1.026 4.706.296 1.636.714 3.247 1.252 4.82a12.84 12.84 0 0 0 2.504 4.381c1.133 1.334 2.704 2.222 4.431 2.504a8.01 8.01 0 0 0 5.12-1.252c1.599-.973 2.97-2.28 4.018-3.831 1.073-1.598 2.031-3.272 2.867-5.007a41.04 41.04 0 0 1 2.992-5.27c1.194-1.735 2.754-3.187 4.569-4.256a8.56 8.56 0 0 1 6.259-.826 15.71 15.71 0 0 1 5.708 3.092c1.715 1.339 3.329 2.804 5.007 4.093 1.693 1.37 3.668 2.349 5.783 2.867 2.152.473 4.386.439 6.523-.101a14.53 14.53 0 0 0 5.908-2.954c.854-.715 1.619-1.531 2.279-2.428a15.19 15.19 0 0 0 1.564-2.917 38.93 38.93 0 0 0 1.74-6.434 33.07 33.07 0 0 1 1.841-6.434c.876-2.059 2.248-3.87 3.993-5.271.867-.698 1.878-1.195 2.96-1.455a7.51 7.51 0 0 1 3.299-.047c2.102.589 3.947 1.862 5.245 3.618 2.716 3.317 3.755 7.411 5.683 10.791a12.94 12.94 0 0 0 3.755 4.306 8.33 8.33 0 0 0 5.233 1.402 15.76 15.76 0 0 0 9.451-4.632c2.503-2.378 4.694-5.007 7.16-7.26a16.56 16.56 0 0 1 8.337-4.369 9.49 9.49 0 0 1 4.444.275c1.354.448 2.585 1.206 3.593 2.216a19.55 19.55 0 0 1 4.018 6.522c.901 2.215 1.64 4.294 2.591 6.096a13.32 13.32 0 0 0 3.355 4.331c.995.798 2.167 1.344 3.418 1.592s2.543.192 3.767-.165a5.3 5.3 0 0 0 2.341-1.477z"/><path d="M741.147 168.638h-.701c-.237 0-.525-.075-.863-.125a7.51 7.51 0 0 1-1.139-.401 19.23 19.23 0 0 1-6.022-5.082l-1.727-2.103c-.574-.809-1.197-1.583-1.865-2.316a10.02 10.02 0 0 0-5.971-2.717 8.46 8.46 0 0 0-3.631.464c-1.224.49-2.33 1.237-3.242 2.19a73.67 73.67 0 0 0-5.332 6.898c-.967 1.27-2.119 2.389-3.418 3.317a10.47 10.47 0 0 1-4.669 1.74c-3.532.239-7.068-.42-10.277-1.915-3.368-1.402-6.573-3.33-10.191-4.557a18.94 18.94 0 0 0-5.62-1.126c-1.968-.046-3.917.383-5.683 1.251-3.618 1.728-6.447 4.895-9.852 7.511-1.716 1.347-3.639 2.404-5.696 3.13a21.27 21.27 0 0 1-6.534 1.126c-4.581.061-9.083-1.185-12.981-3.592a31.56 31.56 0 0 1-9.839-9.802c-2.641-3.956-4.081-8.45-5.996-12.518a25.54 25.54 0 0 0-3.48-5.696c-1.405-1.677-3.156-3.031-5.133-3.968a9.15 9.15 0 0 0-6.183-.651c-2.018.58-3.812 1.758-5.145 3.38-1.335 1.579-2.373 3.385-3.067 5.333a41.06 41.06 0 0 0-1.59 5.846c-.426 1.977-.801 3.955-1.352 5.871a25.29 25.29 0 0 1-2.203 5.483 24.84 24.84 0 0 1-7.423 8.387 21.77 21.77 0 0 1-9.702 3.918c-3.238.407-6.527.029-9.588-1.102-2.648-.916-5.059-2.409-7.059-4.371s-3.54-4.342-4.509-6.97c-.801-2.329-1.252-4.569-1.777-6.572a15.15 15.15 0 0 0-2.304-5.133c-.763-1.059-1.767-1.921-2.929-2.515s-2.45-.904-3.755-.902c-.9.081-1.764.396-2.504.914a4.36 4.36 0 0 1 2.504-1.052 8.36 8.36 0 0 1 3.864.861 8.35 8.35 0 0 1 3.033 2.544 15.22 15.22 0 0 1 2.403 5.195c.601 2.016 1.027 4.256 1.828 6.535a18.52 18.52 0 0 0 4.445 6.791c1.965 1.907 4.329 3.354 6.921 4.237 2.995 1.086 6.205 1.442 9.365 1.039 3.416-.499 6.66-1.823 9.451-3.856a24.29 24.29 0 0 0 7.248-8.224c1.877-3.33 2.666-7.223 3.467-11.266a41.98 41.98 0 0 1 1.602-5.984c.742-1.994 1.836-3.838 3.23-5.445a10.86 10.86 0 0 1 5.445-3.58 9.83 9.83 0 0 1 6.61.688c2.062.97 3.89 2.375 5.357 4.119 1.445 1.783 2.649 3.748 3.581 5.846 1.94 4.168 3.367 8.587 5.958 12.455 2.453 3.882 5.742 7.166 9.626 9.614a23.47 23.47 0 0 0 12.631 3.505 20.78 20.78 0 0 0 6.334-1.089c1.998-.7 3.867-1.724 5.533-3.03 3.355-2.503 6.259-5.708 10.014-7.51a12.82 12.82 0 0 1 5.946-1.252 19.48 19.48 0 0 1 5.796 1.177c3.68 1.251 6.91 3.217 10.202 4.594a20.47 20.47 0 0 0 10.016 1.915c1.599-.183 3.131-.745 4.469-1.64 1.259-.897 2.377-1.977 3.317-3.205a74.79 74.79 0 0 1 5.408-6.91 9.48 9.48 0 0 1 3.392-2.253 8.76 8.76 0 0 1 3.755-.463 10.26 10.26 0 0 1 6.147 2.867 23.35 23.35 0 0 1 1.877 2.353c.576.751 1.139 1.465 1.69 2.116a19.46 19.46 0 0 0 5.846 5.069 5.15 5.15 0 0 0 2.641.614zm-211.606-30.531a11.21 11.21 0 0 1-5.357 0c1.759-.434 3.598-.434 5.357 0z"/><use xlink:href="#C"/><path d="M529.541 160.839c-1.759.434-3.598.434-5.357 0 1.759-.434 3.598-.434 5.357 0zm0 11.367c-1.759.434-3.598.434-5.357 0 1.759-.434 3.598-.434 5.357 0zm0 11.378a11.21 11.21 0 0 1-5.357 0c1.757-.451 3.6-.451 5.357 0zm24.613 14.609a44.26 44.26 0 0 1-10.716 0 44.26 44.26 0 0 1 10.716 0zm47.217 0c-3.555.434-7.149.434-10.703 0 3.554-.434 7.148-.434 10.703 0zm47.227 0c-3.558.434-7.156.434-10.715 0 3.559-.434 7.157-.434 10.715 0zm47.219 0c-3.558.434-7.157.434-10.715 0 3.558-.434 7.157-.434 10.715 0zm47.222 0c-3.555.434-7.149.434-10.703 0 3.554-.434 7.148-.434 10.703 0z"/></g><path d="M814 596.756c0 .175-182.675.325-407.975.325S-2 596.931-2 596.756s182.638-.326 408.088-.326l407.912.326z" class="B"/><path d="M544.008 37.514H210.941v218.464h333.067V37.514z" class="E"/><path d="M544.021 255.978l-.263-218.465.263.263-333.055.125.325-.325V256.04l-.3-.3 333.08.3-333.08.301h-.288v-.301V37.576v-.325h.351 333.055.25v.263l-.338 218.465z" class="B"/><path d="M334.743 154.15l32.759.463c-.25 17.451-14.959 31.684-32.759 31.684h-.188l.188-32.147z" class="I"/><g class="B"><path d="M388.905 198.513a2.74 2.74 0 0 1-.701 0l-2.003.063-7.323.075h-.088l-.062-.075-10.803-13.62-8.763-11.116.163.088-9.639-.088-2.691-.062c-.317.027-.635.027-.952 0 .314-.058.633-.083.952-.075h2.691l9.639-.088h.113v.075l8.762 11.066 10.728 13.682-.163-.063 7.323.076h2.003c.273-.016.547.005.814.062zm11.753 3.78c0 .138-4.744.251-10.603.251s-10.602-.113-10.602-.251 4.744-.25 10.602-.25 10.603.112 10.603.25zm0 3.919c0 .137-4.744.25-10.603.25s-10.602-.113-10.602-.25 4.744-.251 10.602-.251 10.603.113 10.603.251z"/></g><path d="M329.557 149.494l-.464 32.121c-17.8-.238-32.296-14.671-32.296-32.133s14.784-32.134 32.76-32.134 32.759 14.508 32.759 32.134l-32.759.012z" class="C"/><g class="B"><path d="M316.764 138.978a1.66 1.66 0 0 1-.563.137l-1.64.263-5.884.826h-.087l-.075-.075-7.849-7.636-9.601-9.526-2.879-2.917a8.93 8.93 0 0 1-1.002-1.126 8.44 8.44 0 0 1 1.139.989l2.98 2.804 9.713 9.426 7.787 7.698h-.176l5.909-.651 1.64-.15a2.97 2.97 0 0 1 .588-.062zm-37.879-21.454c0 .137-4.745.25-10.604.25s-10.59-.113-10.59-.25 4.744-.251 10.59-.251 10.604.113 10.604.251zm0 3.929c0 .138-4.745.251-10.604.251s-10.59-.113-10.59-.251 4.744-.25 10.59-.25 10.604.113 10.604.25z"/></g><use xlink:href="#D" class="C"/><g class="D F"><path d="M422.177 90.001l-.138-20.029a25.45 25.45 0 0 0-16.524 6.484 23.66 23.66 0 0 0-6.539 9.353c-1.383 3.605-1.863 7.494-1.397 11.327a27.4 27.4 0 0 0 .463 2.904c.006.025.006.05 0 .075l24.06-5.408.075-4.707z"/></g><path d="M446.972 83.855a23.69 23.69 0 0 0-7.885-9.401 23.68 23.68 0 0 0-11.53-4.194l-.764-.075h-.488-1.452-.126l.126 20.029v4.694l24.059 5.257a24.47 24.47 0 0 0 .538-5.17c.013-3.852-.834-7.658-2.478-11.141z" class="C"/><g class="D"><path d="M446.972 83.857a23.69 23.69 0 0 0-7.885-9.401 23.68 23.68 0 0 0-11.53-4.194l-.764-.075h-.488-1.452-.126l.126 20.029v4.694l24.059 5.257c.362-1.699.543-3.432.538-5.17a25.9 25.9 0 0 0-2.478-11.141z" fill="#bae0ff"/></g><path d="M423.462 97.188l-24.06 5.421a24.66 24.66 0 0 0 24.144 19.253c5.615-.019 11.056-1.954 15.422-5.484a24.66 24.66 0 0 0 8.591-13.932l-24.072-5.257" class="C"/><g class="B"><path d="M517.135 93.595c0 .175-12.443.326-27.79.326s-27.79-.15-27.79-.326 12.443-.325 27.79-.325l27.79.325zm0-6.336c0 .175-12.443.325-27.79.325s-27.79-.15-27.79-.325 12.443-.326 27.79-.326l27.79.326z"/><use xlink:href="#E"/><path d="M517.135 99.49c0 .175-12.443.325-27.79.325s-27.79-.15-27.79-.325 12.443-.325 27.79-.325l27.79.325zm-17.214 6.41c0 .175-8.55.325-19.09.325s-19.077-.15-19.077-.325 8.537-.326 19.077-.326 19.09.15 19.09.326z"/></g><g class="C"><path d="M408.991 151.754h-5.721v63.929h5.721v-63.929zm11.054 21.719h-5.721v42.211h5.721v-42.211zm11.055-13.77h-5.721v56.306h5.721v-56.306zm11.039-5.484h-5.721v61.463h5.721v-61.463zm11.051 20.554h-5.721v40.91h5.721v-40.91zm11.057 8.026h-5.72v32.884h5.72v-32.884zm11.051-24.487h-5.72v57.371h5.72v-57.371zm11.056 10.352h-5.721v47.017h5.721v-47.017zm11.039-8.273h-5.721v55.292h5.721v-55.292zm11.051 17.625h-5.721v37.666h5.721v-37.666zm11.058-7.172h-5.721v44.839h5.721v-44.839z"/></g><g class="B"><path d="M521.841 220.128c0 .137-27.151.238-60.637.238s-60.638-.101-60.638-.238 27.14-.226 60.638-.226l60.637.226zm-110.397 5.031c-2.824.317-5.675.317-8.499 0a40.11 40.11 0 0 1 8.499 0zm14.099.262c-3.376.317-6.775.317-10.152 0 3.377-.317 6.776-.317 10.152 0z"/><use xlink:href="#F"/><path d="M449.562 225.421c-3.377.317-6.775.317-10.152 0 3.377-.317 6.775-.317 10.152 0zm12.028 0c-3.381.317-6.784.317-10.164 0 3.38-.317 6.783-.317 10.164 0zm12.019 0c-3.377.317-6.776.317-10.152 0 3.376-.317 6.775-.317 10.152 0zm12.02 0c-3.377.317-6.776.317-10.152 0 3.376-.317 6.775-.317 10.152 0zm12.015 0c-3.377.317-6.776.317-10.152 0 3.376-.317 6.775-.317 10.152 0zm12.016 0c-3.376.317-6.775.317-10.152 0 3.377-.317 6.776-.317 10.152 0zm12.019 0c-3.377.317-6.776.317-10.152 0 3.376-.317 6.775-.317 10.152 0z"/></g><g class="D F"><path d="M420.049 173.471h-5.721v42.211h5.721v-42.211z"/></g><g class="D F"><path d="M442.139 154.219h-5.721v61.463h5.721v-61.463z"/></g><g class="D F"><path d="M464.247 182.797h-5.72v32.884h5.72v-32.884z"/></g><g class="D F"><path d="M486.35 168.666h-5.721v47.017h5.721v-47.017z"/></g><g class="D F"><path d="M508.448 178.016h-5.721v37.666h5.721v-37.666z"/></g><g class="C"><path d="M245.895 84.094a5.51 5.51 0 0 0 5.508-5.508 5.51 5.51 0 0 0-5.508-5.508 5.51 5.51 0 0 0-5.508 5.508 5.51 5.51 0 0 0 5.508 5.508zm100.243-9.89c0 .175-18.576.325-41.484.325s-41.498-.15-41.498-.325 18.577-.326 41.498-.326l41.484.326zm-49.67 6.684a4.57 4.57 0 0 1-1.252.125l-3.505.113-11.568.088c-4.519 0-8.6 0-11.566-.088l-3.505-.113c-.421.016-.843-.026-1.252-.125a5.26 5.26 0 0 1 1.252-.125c.826 0 2.028-.075 3.505-.1l11.566-.1 11.568.1c1.477 0 2.679 0 3.505.1a5.26 5.26 0 0 1 1.252.125z"/></g><path d="M498.834 340.334c-.412-2.078-.317-4.225.275-6.259a12.97 12.97 0 0 1 2.679-5.821c.176.1-1.252 2.504-2.04 5.883s-.714 6.184-.914 6.197z" class="K"/><path d="M501.91 328.018l-34.799-39.169c-1.252-1.014-2.667-2.416-2.805-3.855-.125-1.258-.036-2.528.263-3.756a17.54 17.54 0 0 1 1.54-4.306c.189-.233.299-.52.313-.819a1.4 1.4 0 0 0-.926-1.386c-.282-.101-.589-.109-.877-.023-1.251.488-4.168 3.655-4.857 8.212-.079.257-.213.495-.393.696a1.88 1.88 0 0 1-.648.469 1.87 1.87 0 0 1-.784.157c-.269-.004-.535-.067-.778-.183-2.992-1.052-13.144-5.195-14.959-5.658-1.615-.401-3.555-.338-2.504.863 2.273 1.803 4.67 3.443 7.173 4.907-2.691-1.627-8.512-5.007-9.151-3.868-.363.651.351 1.878 2.742 3.58-1.19-.768-2.502-1.327-3.881-1.652-3.104.313 6.46 6.434 6.46 6.434-6.748-4.231-6.422-4.494-7.173-3.755-.564.588.613 1.965 3.918 4.769 2.691 2.266 15.923 13.933 15.923 13.933l26.675 43.812a25.04 25.04 0 0 0 8.194 7.406c3.249 1.828 6.864 2.907 10.583 3.16l54.517-1.165 6.096-30.593-59.862 1.79z" class="M"/><g class="K"><path d="M447.044 291.252a20.61 20.61 0 0 1-4.731-2.704c-1.587-.907-3.047-2.018-4.344-3.304a21.16 21.16 0 0 1 4.744 2.703 20.95 20.95 0 0 1 4.331 3.305zm1.907-2.417a23.35 23.35 0 0 1-5.207-2.591 23.92 23.92 0 0 1-4.857-3.23c1.836.647 3.585 1.517 5.208 2.592 1.744.874 3.375 1.959 4.856 3.229zm1.952-2.516c-1.767-.567-3.451-1.367-5.007-2.378-1.664-.796-3.217-1.806-4.619-3.005a21.41 21.41 0 0 1 5.007 2.366c1.667.797 3.22 1.812 4.619 3.017z"/></g><path d="M416.993 557.447l-6.998 21.481s-24.185.1-25.862 3.943l41.159 15.023 12.28-33.023-20.579-7.424z" class="C"/><g class="H"><path d="M423.376 581.807a1.79 1.79 0 0 1 .678 1.082c.085.432.009.88-.215 1.259a1.73 1.73 0 0 1-1.07.701c-.433.089-.883.008-1.259-.226a1.9 1.9 0 0 1-.719-1.16c-.087-.463-.001-.941.244-1.343a1.8 1.8 0 0 1 1.206-.621c.467-.042.933.1 1.297.395m1.752 16.05l1.251-3.292-39.982-13.269s-2.128.125-2.391 1.49l41.122 15.071z"/></g><g class="B"><path d="M409.407 578.478c-.076.201.901.664 1.652 1.665s.976 2.053 1.189 2.041.338-1.252-.601-2.504-2.215-1.402-2.24-1.202zm-4.971.2c-.125.175.626.839 1.002 1.941s.237 2.065.438 2.128.751-1.014.263-2.379-1.628-1.878-1.703-1.69zm-4.344 4.269c.163.112.814-.789.701-2.079s-.901-2.077-1.039-1.94.213.939.288 2.003-.15 1.928.05 2.016zm11.453-9.189c0 .213 1.039.275 2.141.763s1.865 1.177 2.028 1.039-.413-1.164-1.728-1.727-2.491-.225-2.441-.075zm1.49-4.306a4.23 4.23 0 0 0 2.065.738c.789.142 1.592.184 2.391.125.476-.026.949-.089 1.415-.187.278-.05.547-.138.801-.263.185-.095.333-.248.421-.436a.94.94 0 0 0 .067-.603 1.17 1.17 0 0 0-.264-.474 1.16 1.16 0 0 0-.45-.302c-.26-.101-.534-.16-.813-.176-.479-.043-.961-.043-1.44 0a7.82 7.82 0 0 0-2.353.564c-1.252.525-1.89 1.164-1.828 1.251s.764-.363 2.003-.738c.721-.213 1.465-.335 2.216-.363a7.91 7.91 0 0 1 1.314.075c.476 0 .851.175.889.413s0 .113-.125.213c-.19.081-.387.144-.589.188l-1.314.225c-.758.068-1.52.068-2.278 0-.702-.137-1.414-.221-2.128-.25z"/><path d="M413.187 569.853c.063 0 .726-.513 1.252-1.79a6.89 6.89 0 0 0 .476-3.755c-.012-.311-.103-.613-.266-.879a1.81 1.81 0 0 0-.661-.636 1.04 1.04 0 0 0-.574-.03c-.19.045-.364.142-.502.28-.193.207-.357.439-.488.689a4.99 4.99 0 0 0-.59 1.874c-.071.657-.011 1.322.177 1.956.413 1.365 1.164 1.916 1.251 1.853-.276-.643-.511-1.304-.701-1.978-.133-.718-.112-1.456.063-2.165.1-.414.26-.81.476-1.177.225-.426.513-.714.663-.613s.426.538.476.938c.066.414.1.833.1 1.252-.011.749-.133 1.491-.363 2.203-.388 1.215-.939 1.891-.789 1.978zM529.906 413.24c-8.587-2.804-42.561-13.257-67.371-19.366a36.02 36.02 0 0 0-14.613-.201 35.99 35.99 0 0 0-13.491 5.622c-5.138 3.472-9.136 8.385-11.493 14.122a31.49 31.49 0 0 0-1.751 18.125l10.152 62.752 35.051-2.866-5.433-60.412 59.736 18.264 53.301-15.435-.15-2.579-43.975-18.026"/><path d="M542.971 424.281l-75.309 16.273c-5.485 1.189-10.585 3.73-14.837 7.392s-7.522 8.329-9.511 13.577l-36.978 102.071 30.657 9.451 41.66-93.434 60.637-7.51a66.04 66.04 0 0 0 41.022-21.357l10.602-11.767-47.943-14.696z"/></g><path d="M529.291 426.997l-.313.1-.939.225-3.617.839-13.332 2.966-19.778 4.319-11.68 2.504c-4.043.889-8.274 1.702-12.518 2.804-4.141.979-8.092 2.637-11.691 4.907a30.61 30.61 0 0 0-8.212 8.412c-4.219 6.321-6.259 12.943-8.124 18.389s-3.255 9.915-4.544 12.882a55.2 55.2 0 0 1-1.552 3.367l-.464.864a1.02 1.02 0 0 1-.175.275s0-.113.125-.313l.388-.876c.351-.776.852-1.915 1.44-3.417 1.252-2.98 2.641-7.411 4.344-12.92s3.755-12.142 8.074-18.577c2.191-3.394 5.028-6.325 8.349-8.624a38.99 38.99 0 0 1 11.867-5.008c4.281-1.114 8.5-1.915 12.518-2.804l11.692-2.503 19.816-4.181 13.369-2.754 3.643-.726.951-.163a1.08 1.08 0 0 1 .363.013z" class="I"/><path d="M591.117 401.422a31.46 31.46 0 0 1-5.758 2.503 29.85 29.85 0 0 1-5.996 1.865c1.829-1.027 3.758-1.866 5.758-2.503a31.44 31.44 0 0 1 5.996-1.865z" class="K"/><g class="C"><path d="M564.192 321.995l-17.212 68.849-18.714 21.844 64.855 26.827 23.321-51.174 18.627-56.819c-5.17-9.552-15.11-11.842-18.427-12.243l-26.751-1.89-25.699 4.606z"/><path d="M564.192 321.945l-45.84 4.431 3.154 35.965 34.825-2.891 6.034-29.106 1.827-8.399z"/></g><g class="B"><path d="M560.422 336.303a15.04 15.04 0 0 1-.401 2.178l-1.339 5.871-4.669 19.316-4.845 19.265-1.54 5.82c-.164.713-.382 1.411-.651 2.091.073-.736.207-1.465.401-2.178l1.339-5.871 4.67-19.315 4.857-19.24 1.539-5.821c.152-.722.366-1.43.639-2.116z"/><path d="M568.258 395.302c-.075.088-1.026-.738-2.792-1.664-2.319-1.168-4.814-1.946-7.385-2.304-2.588-.353-5.201-.487-7.811-.4a17.18 17.18 0 0 1-3.293-.088 15.32 15.32 0 0 1 3.255-.401 34.84 34.84 0 0 1 7.911.226c2.642.343 5.192 1.193 7.511 2.503a8.03 8.03 0 0 1 2.604 2.128zm8.024-70.14s.1.463.388 1.252c.413 1.089 1.039 2.085 1.84 2.929a5.58 5.58 0 0 0 4.77 1.052c.984-.276 1.94-.644 2.854-1.102l3.029-1.427 10.603-5.17 3.23-1.539a4.58 4.58 0 0 1 1.251-.489c-.343.28-.716.519-1.114.714l-3.129 1.727c-2.667 1.427-6.372 3.355-10.528 5.345-1.039.501-2.065.977-3.067 1.415a14.89 14.89 0 0 1-2.992 1.114c-.903.213-1.844.211-2.746-.006a5.91 5.91 0 0 1-2.448-1.246 7.77 7.77 0 0 1-1.766-3.179 2.74 2.74 0 0 1-.175-1.39z"/></g><g class="D"><path d="M546.977 390.845a57.35 57.35 0 0 1 20.605-1.002 8.04 8.04 0 0 1 4.381 1.59 3.07 3.07 0 0 1 1.107 1.998c.098.783-.11 1.574-.581 2.208a3.17 3.17 0 0 1-1.484.723c-.549.105-1.117.063-1.645-.122-1.077-.313-2.391-1.965-3.343-2.504-5.295-3.342-11.954-3.517-18.614-2.841" fill="#000"/></g><g class="D"><path d="M602.832 335.765c-5.458 15.472 5.533 32.809 15.848 45.565l2.641-7.886s-13.006-53.176-18.489-37.679z" fill="#000"/></g><g class="E"><path d="M617.352 382.146c-.518-.843-1.131-1.625-1.827-2.329-1.99-1.831-4.52-2.968-7.211-3.242a25.04 25.04 0 0 0-11.641 2.116c-4.206 1.577-8.763 3.968-14.07 4.594a25.72 25.72 0 0 1-14.521-2.579c-3.652-1.837-6.795-4.545-9.151-7.886a24.59 24.59 0 0 1-3.567-7.336c-.216-.707-.392-1.426-.526-2.153a3.55 3.55 0 0 1-.088-.776c.063 0 .251 1.039.851 2.854.877 2.558 2.143 4.965 3.756 7.136a24.78 24.78 0 0 0 9.038 7.623c4.386 2.186 9.312 3.056 14.183 2.504 5.169-.601 9.676-2.942 13.932-4.507s8.425-2.504 11.905-2.003a12.52 12.52 0 0 1 7.31 3.518 9.26 9.26 0 0 1 1.327 1.79 3.71 3.71 0 0 1 .3.676zm-59.043-37.017c.013-.19.06-.376.137-.55.19-.513.47-.988.827-1.402.691-.742 1.537-1.322 2.479-1.698s1.954-.541 2.966-.48c2.591.075 5.383 1.514 8.086 3.354l8.763 6.134c2.891 2.043 6.102 3.591 9.501 4.582a19.04 19.04 0 0 0 8.537.288c1.907-.375 3.704-1.176 5.258-2.341l.713-.576.489-.476a2.14 2.14 0 0 1 .425-.363s-.1.175-.325.463l-.451.514-.688.625c-1.538 1.285-3.363 2.178-5.321 2.604-2.892.632-5.893.58-8.762-.15-3.476-.98-6.76-2.542-9.714-4.619-3.18-2.116-6.021-4.344-8.763-6.184s-5.332-3.267-7.786-3.392c-.956-.078-1.918.051-2.821.377s-1.725.842-2.411 1.513a7.28 7.28 0 0 0-1.139 1.777zm-21.091 15.372c-.424-.293-.792-.657-1.089-1.077a11.11 11.11 0 0 1-1.903-3.755 11.38 11.38 0 0 1-.063-6.259c.614-2.316 2.141-4.444 3.255-6.81 1.025-2.239 1.432-4.711 1.177-7.16a15.1 15.1 0 0 0-1.74-5.734 18.9 18.9 0 0 0-3.468-4.368s.138 0 .351.2c.316.207.613.442.888.701a12.96 12.96 0 0 1 2.642 3.242 15.36 15.36 0 0 1 1.928 5.896 14.11 14.11 0 0 1-1.19 7.511c-1.151 2.441-2.666 4.519-3.267 6.697-.552 1.932-.574 3.977-.062 5.921a13.76 13.76 0 0 0 2.541 4.995zm24.269-37.791c-.508 1.321-1.163 2.581-1.953 3.755-1.87 2.819-3.471 5.807-4.781 8.925-.661 1.719-1.004 3.542-1.014 5.383.005 1.496.302 2.975.876 4.356.593 1.259 1.398 2.406 2.378 3.393a2.76 2.76 0 0 1-.939-.664 8.37 8.37 0 0 1-1.852-2.503 11.13 11.13 0 0 1-1.064-4.532 15.26 15.26 0 0 1 1.001-5.62c1.318-3.163 2.998-6.163 5.007-8.938 1.452-2.203 2.254-3.605 2.341-3.555zm5.605 91.169c-.113.075-1.089-1.49-3.155-3.568-1.216-1.211-2.54-2.309-3.955-3.28a30.59 30.59 0 0 0-5.521-2.979 31.29 31.29 0 0 0-6.046-1.727 28.98 28.98 0 0 0-5.12-.401c-2.929 0-4.719.488-4.744.351.401-.168.822-.286 1.252-.351.49-.122.987-.21 1.489-.263.663-.107 1.332-.169 2.003-.188 1.749-.089 3.502-.001 5.233.263 2.12.344 4.198.914 6.196 1.703 1.977.831 3.861 1.867 5.621 3.092a26.01 26.01 0 0 1 3.93 3.467c.448.483.866.993 1.252 1.527.323.398.62.816.889 1.252.275.335.502.705.676 1.102z"/></g><g class="I"><path d="M544.99 485.432l-1.239 96.576-39.771 15.185 91.194-.438-40.245-15.323-.363-96h-9.576z"/><path d="M516.048 477.77c11.416 4.457 23.221 8.5 35.476 8.913s25.136-3.242 33.485-12.219c6.672-7.172 9.802-16.874 12.732-26.287l6.346-20.254c1.753-5.596 4.394-12.155 1.252-15.159-4.494-4.231-16.512-5.859-21.031-1.665-6.747 6.259-7.048 8.875-10.102 14.245-7.035 12.343-13.144 23.609-26.375 28.791-6.372 2.504-13.469 2.704-19.879 5.12s-12.931 11.692-11.854 18.465"/></g><path d="M604.226 320.656l-19.866 9.789a5.51 5.51 0 0 1-2.786.461 5.5 5.5 0 0 1-4.456-3.151 5.5 5.5 0 0 1-.494-2.781l1.377-16.11s-10.765-1.59-10.978-12.343 1.464-35.452 1.464-35.452c6.089-2.669 12.78-3.664 19.381-2.883s12.876 3.311 18.173 7.327l1.603 1.252-3.418 53.891z" class="M"/><path d="M577.986 308.714a25.03 25.03 0 0 0 13.982-4.093s-3.254 7.761-13.995 6.872l.013-2.779z" class="K"/><path d="M606.43 277.869c.187-.075 7.373-2.24 7.197 5.12s-7.51 5.646-7.51 5.433.313-10.553.313-10.553z" class="M"/><path d="M608.407 285.693a1.84 1.84 0 0 0 .338.2 1.31 1.31 0 0 0 .951 0c.484-.29.881-.704 1.152-1.199a3.18 3.18 0 0 0 .388-1.617c.035-.629-.071-1.258-.313-1.84-.063-.231-.182-.442-.346-.617s-.367-.306-.593-.385c-.145-.043-.301-.034-.44.026s-.254.165-.323.3c-.1.2-.063.35-.1.363s-.151-.125-.088-.426a.83.83 0 0 1 .3-.45c.206-.151.462-.214.714-.176.291.075.559.222.777.427a1.78 1.78 0 0 1 .475.75c.304.64.441 1.346.4 2.053a3.31 3.31 0 0 1-1.94 3.129c-.2.056-.41.064-.615.025s-.396-.124-.562-.25c-.175-.125-.2-.313-.175-.313z" class="K"/><g class="B"><path d="M570.977 277.445a1.55 1.55 0 0 0 1.502 1.539c.196.014.392-.012.577-.075s.356-.164.502-.295.264-.289.348-.466a1.48 1.48 0 0 0 .138-.566 1.54 1.54 0 0 0-1.489-1.539 1.48 1.48 0 0 0-.579.075 1.5 1.5 0 0 0-.505.294c-.147.131-.266.289-.351.467a1.48 1.48 0 0 0-.143.566z"/><path d="M570.637 276.18c.188.2 1.339-.664 2.992-.676s2.879.813 3.054.6-.113-.45-.638-.826c-.74-.497-1.614-.755-2.504-.738a4.03 4.03 0 0 0-2.391.801c-.388.338-.613.751-.513.839zm16.527 1.452a1.53 1.53 0 0 0 1.49 1.527c.195.015.392-.009.578-.071a1.45 1.45 0 0 0 .504-.29 1.47 1.47 0 0 0 .352-.464 1.46 1.46 0 0 0 .143-.564c0-.4-.155-.784-.433-1.072a1.54 1.54 0 0 0-1.057-.468c-.196-.014-.392.012-.578.076s-.358.163-.505.294-.266.289-.351.466-.133.37-.143.566z"/><path d="M586.875 276.367c.2.201 1.352-.663 3.004-.676s2.867.814 3.042.601-.1-.45-.639-.826a4.24 4.24 0 0 0-2.503-.738c-.857.003-1.69.279-2.379.788-.45.401-.613.764-.525.851zm-5.908 12.307c-.871-.281-1.777-.441-2.691-.476-.426 0-.827-.113-.902-.401-.036-.435.06-.872.276-1.252l1.252-3.229c1.129-2.734 2.046-5.55 2.741-8.425a55.77 55.77 0 0 0-3.417 8.187l-1.165 3.242a2.43 2.43 0 0 0-.212 1.653 1 1 0 0 0 .274.393 1.01 1.01 0 0 0 .427.22c.232.066.472.1.713.1a11.43 11.43 0 0 0 2.704-.012zm4.879 1.1c-.275 0-.263 1.778-1.79 3.067s-3.43 1.102-3.442 1.352.425.338 1.251.363a4.54 4.54 0 0 0 2.879-1.026c.78-.648 1.278-1.572 1.39-2.579.038-.751-.175-1.189-.288-1.177zm.554-19.878c.162.45 1.815.225 3.755.438s3.518.738 3.755.338c.113-.2-.162-.614-.801-1.052-.847-.524-1.801-.85-2.792-.951a6.6 6.6 0 0 0-2.928.363c-.701.3-1.064.651-.989.864zm-15.202 1.502c.3.375 1.427 0 2.804 0s2.503.225 2.791-.163c.113-.2-.075-.576-.576-.926-.685-.416-1.478-.62-2.279-.589s-1.576.297-2.227.764c-.488.338-.638.726-.513.914zm-7.947-17.075c-.08-.666.01-1.341.262-1.963a3.97 3.97 0 0 1 1.178-1.592c.54-.399 1.204-.592 1.873-.546s1.301.328 1.782.796c-.106-.448-.115-.914-.029-1.366a3.26 3.26 0 0 1 .531-1.259c.264-.377.603-.696.998-.934a3.27 3.27 0 0 1 1.291-.446c1.753-.126 3.255 1.251 5.008 1.64 1.692.334 3.448.114 5.007-.626l4.669-2.141c3.394-1.265 7.151-1.141 10.454.345s5.89 4.213 7.196 7.591c1.197-.301 2.458-.233 3.615.196a6.11 6.11 0 0 1 2.869 2.208c1.389 2.069 1.956 4.582 1.59 7.047a23.02 23.02 0 0 1-1.252 4.832v.413c-.1 5.909-.726 12.856-3.229 12.919-4.394.1-3.418-8.199-3.418-8.199-5.407-2.041-3.455-10.14-4.819-11.354s-4.193-4.043-15.447 1.815c-4.191 1.91-8.877 2.453-13.394 1.552h-.276-.075-.087c-1.029-.261-2.009-.683-2.905-1.252-1.063-.604-1.908-1.528-2.415-2.641a3.12 3.12 0 0 1-.201-1.773 3.13 3.13 0 0 1 .801-1.594c-.878-1.039-1.427-2.316-1.577-3.668z"/></g><path d="M609.171 349.973l18.013 38.179-28.616 12.305-5.671-1.74c-2.274-.7-4.689-.804-7.015-.302s-4.484 1.593-6.266 3.169l-8.85 7.861h82.618c3.779-10.764 3.832-22.487.15-33.285l-14.183-35.864c-4.018-9.739-14.47-17.675-24.084-13.369-9.364 4.194-10.177 13.657-6.096 23.046z" class="M"/><path d="M607.654 352.038l13.671 23.071 30.806-12.768s-13.281-25.186-17.525-31.583c-1.74-2.604-5.57-7.936-16.887-9.301a24.02 24.02 0 0 0-3.504.901 15.02 15.02 0 0 0-6.785 4.275c-1.832 2.013-3.083 4.486-3.619 7.154l-.263 1.352c-.663 5.521 1.277 12.068 4.106 16.899z" class="C"/><path d="M621.326 375.096a14.61 14.61 0 0 1-1.252-1.827l-3.254-5.083-4.782-7.598c-1.79-2.829-3.756-5.971-5.633-9.451-.9-1.692-1.637-3.465-2.203-5.295a24.68 24.68 0 0 1-.927-5.27c-.3-3.013-.097-6.055.601-9.001a12.06 12.06 0 0 1 2.792-5.382l.688-.676.576-.401a2.23 2.23 0 0 1 .488-.313s-.125.163-.413.413l-.513.451-.639.688c-1.249 1.552-2.108 3.381-2.503 5.333a27.23 27.23 0 0 0-.451 8.825 24.51 24.51 0 0 0 .939 5.145 30.49 30.49 0 0 0 2.166 5.182c1.802 3.43 3.843 6.547 5.57 9.439l4.657 7.661 3.092 5.207c.382.626.716 1.278 1.001 1.953z" class="B"/><g class="E"><path d="M641.279 342.201s-.451-.35-1.315-.863c-1.232-.706-2.603-1.133-4.018-1.252a15.47 15.47 0 0 0-6.259.801 48.8 48.8 0 0 0-7.035 3.305c-2.294 1.317-4.752 2.323-7.311 2.992-2.135.487-4.357.444-6.471-.126-1.423-.381-2.719-1.132-3.756-2.178-.274-.286-.518-.601-.726-.939-.138-.225-.213-.35-.188-.363s.363.451 1.102 1.127c1.073.941 2.364 1.599 3.755 1.915a13.48 13.48 0 0 0 6.259 0c2.495-.688 4.892-1.689 7.136-2.979 2.287-1.305 4.683-2.411 7.16-3.305 2.072-.679 4.265-.914 6.434-.688 1.466.152 2.875.654 4.106 1.464a5.22 5.22 0 0 1 .901.764c.15.15.238.313.226.325zm-5.548 26.813c-.1.075-.876-.877-2.416-2.041a17.42 17.42 0 0 0-2.879-1.777c-2.5-1.211-5.246-1.828-8.024-1.803a17.23 17.23 0 0 0-3.367.363l-3.055.801c-.05-.112.251-.187.739-.438a11.42 11.42 0 0 1 2.215-.813 15.41 15.41 0 0 1 3.455-.514 17.75 17.75 0 0 1 4.269.401 18.59 18.59 0 0 1 4.031 1.464 15.61 15.61 0 0 1 2.904 1.953c.605.503 1.159 1.065 1.652 1.678.338.438.514.688.476.726z"/></g><path d="M646.849 396.991c-.1 0-.664-1.176-2.016-2.854-1.745-2.182-4.005-3.897-6.576-4.989a16.86 16.86 0 0 0-8.157-1.27c-2.142.188-3.418.639-3.455.526a2.5 2.5 0 0 1 .876-.388c.812-.282 1.651-.479 2.504-.589 2.87-.387 5.792.002 8.462 1.127 2.659 1.151 4.966 2.987 6.684 5.32.512.7.956 1.446 1.327 2.228a2.51 2.51 0 0 1 .351.889z" class="K"/><path d="M99.351 550.828l-7.373 29.242-12.518 21.456a3.08 3.08 0 0 0-.408 1.184c-.053.418-.02.842.097 1.246s.317.783.585 1.108a3.1 3.1 0 0 0 .977.781c.437.229.922.348 1.415.348s.978-.119 1.415-.348c5.62-3.03 26.2-14.271 26.625-16.437.488-2.503 9.814-30.331 9.814-30.331l-20.629-8.249z" class="C"/><path opacity=".6" d="M80.777 605.845l30.044-18.439-.338 1.251c-.295 1.064-.955 1.99-1.865 2.617-2.503 1.652-9.301 6.096-24.874 14.583-.449.24-.95.366-1.458.366s-1.01-.126-1.459-.366l-.05-.012z" class="F"/><g opacity=".6" class="F"><path d="M107.403 576.377c-.432.162-.789.478-1.001.887s-.267.882-.151 1.329c.15.435.459.797.867 1.011a1.8 1.8 0 0 0 1.324.14 1.96 1.96 0 0 0 1.086-.932c.232-.436.291-.943.166-1.421-.203-.439-.568-.782-1.018-.958a1.87 1.87 0 0 0-1.398.019"/></g><g class="B"><path d="M90.939 594.992a9.32 9.32 0 0 0-1.928-2.967 9.45 9.45 0 0 0-3.167-1.565c0-.087.425-.212 1.126-.112.932.138 1.803.547 2.504 1.177.701.62 1.209 1.428 1.465 2.328.15.688.075 1.126 0 1.139zm-3.154 3.317c-.175.087-.839-1.114-2.228-1.965s-2.742-.952-2.729-1.152a3.4 3.4 0 0 1 1.612-.083 3.39 3.39 0 0 1 1.467.671c1.578.977 2.053 2.491 1.878 2.529zm8.387-7.248a31.02 31.02 0 0 0-3.242-3.254c-1.273-.828-2.603-1.564-3.981-2.203a8.44 8.44 0 0 1 4.433 1.667 8.45 8.45 0 0 1 2.84 3.79h-.05zm2.978-8.7c-.125.15-1.552-.964-3.618-1.615s-3.855-.613-3.868-.801c1.333-.43 2.777-.368 4.068.175a5.95 5.95 0 0 1 3.418 2.241zm2.376-8.525a14.74 14.74 0 0 0-3.755-1.79c-1.363-.21-2.747-.244-4.119-.1 0 0 .388-.351 1.164-.551a6.76 6.76 0 0 1 3.109.014 6.77 6.77 0 0 1 2.775 1.4c.638.539.889.964.826 1.027zm-3.213-3.394c0-.386.09-.768.262-1.114a7.97 7.97 0 0 1 1.64-2.641c.476-.614 1.14-1.054 1.89-1.252a1.25 1.25 0 0 1 1.252.639 2.05 2.05 0 0 1 .1 1.439c-.333.962-.993 1.776-1.864 2.302s-1.899.73-2.905.577a5.1 5.1 0 0 1-2.633-1.322 5.09 5.09 0 0 1-1.46-2.558c-.054-.247-.054-.502 0-.748a1.75 1.75 0 0 1 .313-.679c.176-.186.405-.313.655-.364a1.25 1.25 0 0 1 .747.076c.673.353 1.24.88 1.639 1.527a9.04 9.04 0 0 1 1.365 2.804 2.77 2.77 0 0 1 .163 1.127c-.434-1.301-1.054-2.532-1.84-3.656-.377-.532-.881-.962-1.465-1.251a.65.65 0 0 0-.407-.052c-.137.027-.263.098-.357.202a1.19 1.19 0 0 0-.17.461 1.16 1.16 0 0 0 .033.49c.216.839.668 1.599 1.302 2.189a4.54 4.54 0 0 0 2.278 1.141c.851.13 1.721-.037 2.464-.472a3.76 3.76 0 0 0 1.617-1.919 1.45 1.45 0 0 0 0-1.002c-.063-.127-.165-.231-.291-.297a.67.67 0 0 0-.41-.066c-.635.155-1.204.505-1.628 1.002a11.68 11.68 0 0 0-2.29 3.417z"/></g><path d="M191.224 558.689l-1.565 22.533s22.395 9.163 22.532 13.357l-43.812-1.465 1.001-35.214 21.844.789z" class="C"/><g class="H"><path d="M176.173 578.882a1.78 1.78 0 0 0-1.002.758c-.23.367-.319.805-.25 1.232a1.73 1.73 0 0 0 1.978 1.315c.45-.124.839-.41 1.091-.803a1.9 1.9 0 0 0 .274-1.326c-.149-.437-.462-.8-.873-1.013a1.79 1.79 0 0 0-1.331-.126m-7.712 14.195l.237-3.542 41.923 2.716s1.915.914 1.652 2.291l-43.812-1.465z"/></g><g class="B"><path d="M190.343 581.022c0 .213-1.089.275-2.166.926s-1.665 1.54-1.865 1.453.175-1.327 1.489-2.091 2.629-.476 2.542-.288zm4.572 2.052c0 .213-.902.551-1.653 1.427s-1.001 1.828-1.252 1.815-.313-1.252.651-2.303 2.254-1.139 2.254-.939zm2.426 5.596c-.2 0-.463-1.039.126-2.204s1.602-1.577 1.689-1.402-.55.789-1.026 1.74-.576 1.841-.789 1.866zm-7.171-12.82c-.101.188-1.077-.137-2.279-.1s-2.178.401-2.278.213.826-.926 2.253-.951 2.479.676 2.304.838zm.173-4.554a4.01 4.01 0 0 1-2.191-.088 9.82 9.82 0 0 1-2.278-.776 10.39 10.39 0 0 1-1.252-.714 2.69 2.69 0 0 1-.651-.538.92.92 0 0 1-.062-1.139 1.25 1.25 0 0 1 .951-.463 2.61 2.61 0 0 1 .826.15 7.51 7.51 0 0 1 1.352.513 8.1 8.1 0 0 1 1.978 1.39c.976.976 1.252 1.79 1.252 1.827s-.576-.613-1.577-1.427a8.65 8.65 0 0 0-1.928-1.176 8.96 8.96 0 0 0-1.252-.426c-.463-.138-.864-.15-.989 0s0 .113 0 .25a2.03 2.03 0 0 0 .476.389c.361.256.737.49 1.126.701a12.82 12.82 0 0 0 2.103.888 15.16 15.16 0 0 1 2.116.639z"/><path d="M190.109 571.609c-.392-.641-.568-1.392-.501-2.14-.021-.813.106-1.624.376-2.391a7.68 7.68 0 0 1 .6-1.315 1.83 1.83 0 0 1 1.44-1.064 1.03 1.03 0 0 1 .539.196 1.04 1.04 0 0 1 .35.455 2.71 2.71 0 0 1 .2.801 4.82 4.82 0 0 1 0 1.478c-.142.821-.491 1.592-1.014 2.24-.889 1.102-1.79 1.34-1.803 1.252s.689-.501 1.377-1.577c.4-.612.661-1.305.764-2.028.06-.415.06-.837 0-1.252 0-.463-.213-.851-.388-.801s-.601.325-.789.688c-.226.377-.422.77-.588 1.177-.267.695-.431 1.424-.488 2.166-.163 1.264.037 2.115-.075 2.115zm-44.641-420.005a53.06 53.06 0 0 1-3.055-8.087c-.463-2.115-1.176-5.307-.375-7.31.367-1.124 1.11-2.086 2.105-2.724s2.178-.915 3.353-.781c.214-2.099.962-4.108 2.171-5.837s2.841-3.119 4.738-4.04a31.51 31.51 0 0 1 11.78-3.38 10.01 10.01 0 0 1 4.456.451 5.71 5.71 0 0 1 2.754 2.804 9.82 9.82 0 0 1 4.146-1.836c1.506-.281 3.057-.205 4.529.221 3.28.814 7.048 2.504 8.55 5.508a9.53 9.53 0 0 1 .451 7.223c-.589 2.003-2.617 5.182-4.595 4.506"/></g><path d="M148.698 207.209l29.418-1.352c.175-3.117-1.427-22.432-1.427-22.432s11.128-1.728 11.266-12.844-1.79-36.64-1.79-36.64a38.66 38.66 0 0 0-20.064-2.836c-6.822.856-13.291 3.516-18.742 7.705l-1.64 1.252 2.979 67.147z" class="G"/><path d="M176.715 183.261c-5.134.099-10.181-1.335-14.496-4.118 0 0 3.43 7.999 14.521 6.997l-.025-2.879z" class="J"/><path d="M147.056 151.603c-.188-.088-7.636-2.266-7.398 5.333s7.823 5.795 7.836 5.57-.438-10.903-.438-10.903z" class="G"/><path d="M145.078 159.766s-.126.1-.351.212a1.35 1.35 0 0 1-.989 0c-.5-.297-.912-.721-1.196-1.229s-.428-1.081-.419-1.662c-.035-.654.072-1.307.313-1.916.062-.239.182-.46.351-.641a1.5 1.5 0 0 1 .613-.398c.15-.046.312-.037.456.025s.263.173.333.313c.112.201.075.363.112.376s.163-.138.088-.451a.88.88 0 0 0-.313-.463.99.99 0 0 0-.352-.161c-.126-.03-.258-.035-.386-.014a1.87 1.87 0 0 0-.842.447 1.86 1.86 0 0 0-.51.805 4.51 4.51 0 0 0-.388 2.128c-.017.679.168 1.349.531 1.924a3.44 3.44 0 0 0 1.509 1.305c.214.058.438.065.655.022s.421-.137.597-.272c.175-.225.213-.35.188-.35z" class="J"/><g class="B"><path d="M183.71 151.352a1.59 1.59 0 0 1-.439 1.111c-.285.299-.675.475-1.088.492-.202.017-.406-.007-.598-.07s-.371-.164-.524-.297-.278-.296-.367-.478a1.51 1.51 0 0 1-.151-.582c-.007-.415.15-.815.435-1.114a1.58 1.58 0 0 1 1.092-.489c.202-.017.405.007.598.07s.371.164.524.297.277.295.366.478.141.38.152.582zm.375-1.778c-.2.2-1.402-.689-3.117-.676s-2.954.851-3.142.651.113-.476.651-.876a4.44 4.44 0 0 1 2.503-.776c.899-.005 1.775.275 2.504.801.488.4.664.776.601.876zm-17.113 2.179c.007.414-.15.814-.436 1.114a1.57 1.57 0 0 1-1.091.488c-.202.017-.406-.007-.598-.07s-.371-.164-.524-.297-.278-.295-.367-.477-.14-.381-.151-.583a1.6 1.6 0 0 1 1.527-1.602c.202-.017.405.006.598.069s.371.164.524.297.277.296.366.478.141.38.152.583zm.292-1.863c-.2.212-1.402-.676-3.105-.676s-2.966.863-3.154.651.113-.464.663-.864a4.34 4.34 0 0 1 2.504-.776c.899-.008 1.776.272 2.504.801.5.4.688.726.588.864zm6.193 12.667c.905-.271 1.837-.439 2.779-.501.438 0 .851-.125.927-.426a2.23 2.23 0 0 0-.301-1.251l-1.252-3.33c-1.196-2.813-2.163-5.719-2.891-8.688a57.69 57.69 0 0 1 3.592 8.437l1.252 3.343c.281.525.365 1.133.238 1.715a1.11 1.11 0 0 1-.29.402c-.126.11-.275.191-.436.236-.241.066-.489.1-.739.1-.956.12-1.925.107-2.879-.037zm-5.018 1.189c.276 0 .276 1.841 1.866 3.155s3.555 1.114 3.58 1.364-.451.363-1.252.388c-1.088.013-2.146-.354-2.992-1.039a4.05 4.05 0 0 1-1.439-2.641c-.101-.776.112-1.239.237-1.227zm-.735-20.554c-.163.476-1.865.25-3.881.488s-3.617.789-3.88.376c-.125-.201.163-.639.813-1.089a6.86 6.86 0 0 1 2.887-1.002c1.025-.113 2.062.007 3.034.351.726.3 1.14.663 1.027.876zm15.72 1.438c-.3.388-1.477 0-2.891 0s-2.604.263-2.892-.137c-.113-.201.075-.589.601-.964.705-.435 1.523-.653 2.351-.626a4.21 4.21 0 0 1 2.306.776c.5.363.663.763.525.951zm-38.332-5.056c.151 3.242-.575 6.847 0 10.015.075.488 1.327 1.765 1.44 2.24.651 2.817 1.815 4.031 3.492 1.127.619-1.776 1.039-3.615 1.252-5.483l2.016-10.277a17.78 17.78 0 0 0 8.449 2.015 8.65 8.65 0 0 0 4.218-1.17c1.284-.746 2.353-1.808 3.106-3.086a8.97 8.97 0 0 0 2.773 2.878 8.96 8.96 0 0 0 3.747 1.389c1.337.176 2.697.048 3.979-.375a8.98 8.98 0 0 0 3.421-2.064 3.76 3.76 0 0 0 2.269 1.482c.914.194 1.869.041 2.676-.431a4.43 4.43 0 0 0 1.802-4.907c-.763-2.704-3.667-4.181-6.371-5.007-10.54-3.08-22.296-.639-31.822 4.932a16.39 16.39 0 0 0-3.755 2.892c-1.089 1.251-2.592 2.591-2.642 4.193"/></g><g class="I"><path d="M153.09 139.886a5.2 5.2 0 0 0-1.715.313c-.576.266-1.105.626-1.564 1.064-.526.488-1.052 1.114-1.678 1.74a5.57 5.57 0 0 1-2.128 1.414c-.681.216-1.408.242-2.103.076-1.252-.301-1.677-.939-1.615-.977.55.217 1.115.392 1.69.526.617.089 1.245.02 1.828-.2a5.64 5.64 0 0 0 1.865-1.252c.601-.589 1.139-1.252 1.74-1.728.528-.46 1.14-.813 1.803-1.039 1.176-.438 1.927 0 1.877.063zm-1.216 3.355c-.453.095-.88.287-1.252.563-.36.334-.675.713-.938 1.127-.382.543-.862 1.011-1.415 1.377a5.18 5.18 0 0 1-3.442.814c-.914-.113-1.402-.438-1.377-.501s.563 0 1.402 0a5.76 5.76 0 0 0 3.054-.914c1.077-.638 1.59-1.802 2.441-2.328s1.577-.226 1.527-.138zm28.77-22.282s.351-.101.976 0c.874.271 1.637.815 2.179 1.552 1.414 1.878 1.802 5.257.838 8.562-.855 2.85-2.738 5.281-5.282 6.822-.752.467-1.559.837-2.404 1.102-.302.124-.625.188-.951.188a30.45 30.45 0 0 0 3.079-1.678c2.341-1.588 4.068-3.929 4.895-6.634.926-3.117.601-6.347-.589-8.087-.441-.687-1.065-1.237-1.802-1.59-.601-.237-.951-.237-.939-.237zm9.315 4.32a4.75 4.75 0 0 1 0 2.141c-.301 1.713-.944 3.348-1.891 4.807-.927 1.476-2.14 2.753-3.567 3.755a4.6 4.6 0 0 1-1.915.964 21.39 21.39 0 0 0 4.932-5.007c1.173-2.071 1.998-4.321 2.441-6.66z"/></g><path d="M202.625 311.121l-7.048 262.29-34.563-1.051 2.654-225.1-44.026 231.359-31.22-8.137 40.296-258.86 73.907-.501z" class="B"/><path d="M309.054 198.748l1.652-.601s14.184 2.14 13.433-.413c-.989-3.38-13.771-4.507-14.922-4.369-1.965.238-13.382 3.23-14.896 4.369s-9.915 12.242-9.915 12.242l14.296 11.054s3.392-.151 7.248-4.594c1.965-2.254 4.782-6.147 4.782-6.147s-.301-.939 0-1.352c.726-1.251 0-1.815 0-1.815.401-.167.747-.445.995-.802a2.28 2.28 0 0 0 .407-1.213 1.68 1.68 0 0 0-.12-.679c-.086-.215-.216-.41-.381-.573-.889-.601-1.252-.438-1.252-.438.488-.237.912-.588 1.234-1.024a3.36 3.36 0 0 0 .619-1.48c.1-1.602-2.266-1.99-2.266-1.99" class="G"/><path d="M323.964 198.385a7.26 7.26 0 0 1-2.942.763c-1.104.134-2.219.164-3.329.088l-3.981-.601-3.004-.488h.187a42.68 42.68 0 0 1-6.985 2.065 42.97 42.97 0 0 1 6.748-2.741h.087.1l2.98.463 3.93.639c1.069.109 2.145.134 3.217.075l2.992-.263z" class="J"/><path d="M308.25 199.584l-3.83 4.156a4.8 4.8 0 0 0-1.114 1.59 1.66 1.66 0 0 0-.102.952 1.67 1.67 0 0 0 .439.851c.206.162.448.27.706.316a1.59 1.59 0 0 0 .772-.053 4.18 4.18 0 0 0 1.364-.752 47.9 47.9 0 0 0 4.732-3.83" class="G"/><path d="M311.493 202.564c-.59.79-1.27 1.508-2.028 2.14-.775.75-1.613 1.432-2.503 2.041a8.81 8.81 0 0 1-1.74.889c-.357.127-.737.178-1.114.15a1.53 1.53 0 0 1-.616-.181 1.52 1.52 0 0 1-.486-.42c-.215-.337-.33-.727-.33-1.127a2.09 2.09 0 0 1 .33-1.126 9.25 9.25 0 0 1 1.189-1.54l2.191-2.341a10.3 10.3 0 0 1 2.241-1.928 21.54 21.54 0 0 1-1.903 2.254l-2.066 2.403c-.406.45-.77.936-1.089 1.452-.146.235-.224.506-.224.782s.078.548.224.783c.189.196.436.325.705.368s.544-.003.785-.13c.566-.206 1.108-.475 1.615-.802.88-.562 1.717-1.189 2.503-1.877.706-.678 1.482-1.278 2.316-1.79z" class="J"/><g class="G"><path d="M310.094 204.016s1.139-1.528 1.728-1.528a1.79 1.79 0 0 1 1.137.166c.351.179.633.468.803.823.426.889.1 1.252-1.252 3.319"/><path d="M310.094 204.018l-3.129 3.567c-.392.39-.703.854-.914 1.365a1.5 1.5 0 0 0-.082.815 1.49 1.49 0 0 0 .358.737c.169.146.375.244.595.283a1.24 1.24 0 0 0 .656-.058c.407-.143.785-.36 1.114-.638a41.99 41.99 0 0 0 3.856-3.292"/></g><path d="M313.886 204.467a5.68 5.68 0 0 1-1.314 2.503c-.638.812-1.36 1.555-2.154 2.216-.47.392-.963.755-1.477 1.089-.563.414-1.214.692-1.902.813-.21.026-.423.003-.623-.067s-.38-.183-.529-.333a1.53 1.53 0 0 1-.317-.509 1.52 1.52 0 0 1-.096-.593c.056-.673.343-1.305.814-1.79l2.015-2.303c.593-.744 1.298-1.39 2.09-1.915a18.47 18.47 0 0 1-1.74 2.203l-1.89 2.366c-.364.393-.592.894-.651 1.427-.015.117-.002.237.037.349s.104.213.189.295a.76.76 0 0 0 .301.181.78.78 0 0 0 .35.026c.581-.118 1.131-.357 1.614-.701.514-.325.989-.676 1.44-1.014a17.55 17.55 0 0 0 2.178-2.053c1.139-1.239 1.565-2.228 1.665-2.19z" class="J"/><path d="M289.387 211.866c.548.391 1.205.602 1.878.602s1.33-.211 1.878-.602c1.164-.676 2.065-1.728 3.167-2.504 3.317-2.253 8.036-1.627 11.266-4.031.438-.338.889-.901.651-1.402s-.851-.538-1.364-.538l-13.282.1" class="G"/><path d="M293.546 203.577c.471-.111.955-.162 1.439-.15l3.918-.15 5.809-.125h1.677c.336-.059.681-.05 1.014.025s.648.216.926.413c.155.165.256.373.289.597s0 .452-.1.655c-.154.334-.386.626-.677.851-.52.391-1.083.723-1.677.989-2.416 1.076-4.87 1.252-6.91 1.853a10.23 10.23 0 0 0-2.754 1.251c-.776.514-1.427 1.139-2.091 1.653a4.68 4.68 0 0 1-3.755 1.251c-.976-.2-1.252-.738-1.252-.738.387.223.811.376 1.252.451a4.51 4.51 0 0 0 1.829-.334c.58-.237 1.104-.593 1.538-1.043.626-.526 1.252-1.177 2.091-1.765.894-.593 1.873-1.045 2.904-1.34 2.116-.676 4.569-.876 6.785-1.878a7.89 7.89 0 0 0 1.527-.888c.438-.338.664-.801.427-.989s-.84-.238-1.403-.226h-1.678-5.808c-1.653 0-2.992-.062-3.918-.1-.478-.017-.951-.106-1.402-.263z" class="J"/><g class="G"><path d="M311.656 207.923s.851-1.127 1.252-1.127a1.32 1.32 0 0 1 .844.116c.261.132.47.346.595.61.313.651.075.939-.939 2.504"/><path d="M311.659 207.922l-2.316 2.642c-.287.292-.516.636-.676 1.014-.073.193-.092.402-.055.605s.131.392.268.546c.123.1.268.167.424.196a.94.94 0 0 0 .465-.033 2.5 2.5 0 0 0 .826-.476c1.003-.752 1.956-1.567 2.854-2.441"/></g><g class="J"><path d="M314.474 208.259a3.64 3.64 0 0 1-.926 1.903c-.465.613-.999 1.171-1.59 1.665a11.04 11.04 0 0 1-1.101.813c-.428.321-.926.536-1.453.626-.166.017-.335-.003-.493-.059a1.13 1.13 0 0 1-.42-.266 1.25 1.25 0 0 1-.326-.877 2.3 2.3 0 0 1 .614-1.377l1.564-1.664c.902-.927 1.477-1.465 1.54-1.403a6.67 6.67 0 0 1-1.252 1.715l-1.364 1.753c-.256.275-.414.627-.451 1.001 0 .363.188.576.551.551.42-.087.816-.262 1.164-.513l1.052-.739a12.24 12.24 0 0 0 1.627-1.502c.839-.951 1.164-1.677 1.264-1.627zm-12.28 6.01c-.194-.995-.474-1.971-.839-2.917-.726-1.502-1.953-2.241-1.853-2.403s1.59.388 2.504 2.103a3.44 3.44 0 0 1 .495 1.585c.033.561-.073 1.121-.307 1.632z"/></g><path d="M203.614 320.997l-3.13-81.368c17.525 9.752 44.59 22.22 47.569 22.846 5.258 1.101 51.925-40.396 51.925-40.396l-16.724-13.106-38.593 21.744-50.586-30.194c-3.626-2.665-7.876-4.354-12.343-4.907h-.35c-1.803-.212-2.679-.463-3.756-.6-7.998 6.008-21.668 6.396-29.517.2l-9.513 2.028c-11.267 2.14-19.253 10.302-21.494 17.825l13.958 32.322 2.691 30.706-7.085 39.483 76.948 3.442" class="C"/><g class="D"><path d="M131.022 291.68c1.512 1.404 3.334 2.431 5.317 2.999s4.074.659 6.099.268c2.867-.576 5.596-2.141 8.525-1.953 3.205.213 5.858 2.504 8.763 3.755 5.457 2.504 11.829 1.678 17.612.138 2.667-.713 5.446-1.677 7.173-3.83 1.218-1.768 1.975-3.812 2.203-5.946a62.03 62.03 0 0 0 .864-11.792c-.063-2.504-.338-5.12-1.903-7.035a8.15 8.15 0 0 0-5.282-2.667c-2.017-.181-4.05-.067-6.034.338-15.864 2.644-30.853 9.086-43.687 18.777" fill="#000"/></g><path d="M159.175 278.686s-36.741 16.436-40.472 17.25c-12.405 2.729-26.588-8.988-22.645-22.345 1.465-5.007 21.281-59.911 21.281-59.911l18.778 26-7.962 26.601 20.88-1.365 10.14 13.77z" class="C"/><g class="B"><path d="M147.281 265.068a6.92 6.92 0 0 1-1.452.2l-4.019.338-13.644.951h-.463l.137-.438 1.252-4.118 4.857-15.873 1.54-4.795a8.96 8.96 0 0 1 .651-1.728c-.082.612-.22 1.216-.413 1.803l-1.34 4.845-4.669 15.935-1.252 4.106-.338-.4 13.67-.726 4.031-.151c.484-.034.971-.017 1.452.051z"/><path d="M120.419 274.931a3.87 3.87 0 0 1 .401-1.803 11.68 11.68 0 0 1 2.378-3.755c1.016-1.099 2.236-1.987 3.593-2.617.535-.319 1.142-.5 1.765-.526a22.9 22.9 0 0 0-4.882 3.58 23.18 23.18 0 0 0-3.255 5.121zm34.659 5.844c0 .176-7.999 3.656-18.013 7.786s-18.201 7.337-18.264 7.174 7.986-3.656 18.013-7.787 18.189-7.335 18.264-7.173zm47.358 5.423a3.64 3.64 0 0 1-.075-.588c0-.451 0-1.002-.088-1.665l-.238-6.134-.951-20.242c-.463-7.899-1.026-15.022-1.59-20.179-.275-2.579-.563-4.644-.763-6.084a17.26 17.26 0 0 1-.313-2.228 3.29 3.29 0 0 0 .175.551l.388 1.627c.275 1.427.638 3.505.976 6.084.676 5.144 1.252 12.292 1.778 20.191s.676 15.022.764 20.267v6.147 1.665a1.67 1.67 0 0 1-.063.588z"/></g><g class="E"><path d="M138.485 214.846c0 .1-1.026.576-2.428 1.778a12.52 12.52 0 0 0-3.869 5.946l-.175.613-.4-.526-.251-.325c-.777-.968-1.739-1.773-2.828-2.368a9.41 9.41 0 0 0-3.519-1.1 21.91 21.91 0 0 0-3.117 0s.263-.163.801-.313c.77-.181 1.563-.249 2.353-.2a9.38 9.38 0 0 1 3.79 1.033 9.37 9.37 0 0 1 3.034 2.497l.275.363-.638.113a12.05 12.05 0 0 1 4.206-6.109c.8-.676 1.747-1.156 2.766-1.402zm23.793 15.144c0 .1-1.026.563-2.428 1.765a12.58 12.58 0 0 0-3.869 5.946l-.176.626-.4-.526-.263-.338a9.49 9.49 0 0 0-6.334-3.467c-1.038-.071-2.079-.071-3.117 0 0 0 .263-.163.801-.313a8.1 8.1 0 0 1 2.354-.2 9.36 9.36 0 0 1 3.781 1.03c1.173.606 2.206 1.454 3.028 2.487l.276.363-.576.1c.724-2.431 2.196-4.573 4.207-6.121a6.61 6.61 0 0 1 2.716-1.352zm-32.097 12.957c0 .112-1.151.2-2.879.851-2.251.867-4.206 2.361-5.633 4.306l-.388.513-.2-.625-.125-.401c-.824-2.36-2.547-4.3-4.795-5.395-.959-.412-1.952-.743-2.966-.989 0 0 .312-.075.863 0a7.84 7.84 0 0 1 2.291.601c1.215.511 2.309 1.272 3.211 2.234s1.59 2.103 2.022 3.349a3.34 3.34 0 0 0 .137.425l-.588-.1a12.06 12.06 0 0 1 6.021-4.344c.964-.369 2-.515 3.029-.425zm-7.898 18.915c0 .113-1.151.188-2.879.852-2.254.86-4.214 2.351-5.645 4.293l-.376.526-.2-.626-.125-.4a9.42 9.42 0 0 0-4.807-5.347 19.98 19.98 0 0 0-2.954-1.001c.285-.059.578-.059.863 0 .79.085 1.562.288 2.291.602 1.216.514 2.31 1.279 3.209 2.246a9.37 9.37 0 0 1 2.011 3.362c0 .15.1.3.138.438l-.576-.1c1.498-2.048 3.606-3.569 6.021-4.344a6.59 6.59 0 0 1 3.029-.501zm-1.464 19.328c0 .112-1.152.188-2.879.851a12.59 12.59 0 0 0-5.646 4.294l-.375.525-.201-.638-.125-.388c-.824-2.367-2.552-4.312-4.807-5.408a21.43 21.43 0 0 0-2.954-.989 2.13 2.13 0 0 1 .864 0 7.89 7.89 0 0 1 2.278.601c1.219.513 2.315 1.277 3.217 2.244a9.36 9.36 0 0 1 2.016 3.364l.137.438-.575-.112c1.484-2.042 3.573-3.566 5.971-4.357a6.56 6.56 0 0 1 3.079-.425zm53.252-70.1c0 .101-1.015.564-2.417 1.766a12.51 12.51 0 0 0-3.868 5.946l-.188.625-.4-.525-.251-.338a9.46 9.46 0 0 0-6.334-3.468 20.69 20.69 0 0 0-3.129.063s.275-.163.814-.313c.769-.187 1.562-.259 2.353-.213 1.319.08 2.606.435 3.779 1.043s2.205 1.455 3.031 2.487l.275.363-.576.1a11.96 11.96 0 0 1 4.206-6.121 6.61 6.61 0 0 1 2.705-1.415zm18.666-6.485c0 .112-1.165.112-2.93.663a12.68 12.68 0 0 0-5.908 3.931l-.413.501-.15-.639c-.041-.131-.074-.265-.1-.4-.676-2.413-2.278-4.46-4.457-5.697a20.91 20.91 0 0 0-2.892-1.177 2 2 0 0 1 .864 0c.781.137 1.536.39 2.241.751a9.38 9.38 0 0 1 3.067 2.441 9.36 9.36 0 0 1 1.802 3.481l.113.451-.576-.15c1.619-1.941 3.809-3.321 6.259-3.943a6.56 6.56 0 0 1 3.08-.213zm-38.698-4.056c0 .101-1.014.564-2.416 1.765-1.833 1.57-3.175 3.634-3.868 5.946l-.187.626-.401-.525-.25-.338c-1.574-1.944-3.849-3.189-6.334-3.468a20.7 20.7 0 0 0-3.13.063s.276-.163.814-.313a8.06 8.06 0 0 1 2.353-.2 9.38 9.38 0 0 1 3.78 1.032c1.174.606 2.206 1.453 3.03 2.485l.275.363-.575.1a12 12 0 0 1 4.206-6.121c.778-.676 1.704-1.161 2.703-1.415zm39.262 33.262c0 .1-1.026.563-2.428 1.765a12.61 12.61 0 0 0-3.868 5.946l-.176.613-.4-.526-.263-.325a9.44 9.44 0 0 0-6.334-3.468 18.65 18.65 0 0 0-3.117.063s.263-.175.801-.313c.77-.187 1.563-.258 2.353-.213a9.45 9.45 0 0 1 3.786 1.041 9.46 9.46 0 0 1 3.037 2.489l.262.363-.575.088c.725-2.428 2.197-4.565 4.206-6.109.782-.678 1.712-1.163 2.716-1.414zm-35.043 51.06c0 .1-1.026.563-2.428 1.765a12.61 12.61 0 0 0-3.868 5.946l-.176.613-.4-.525-.251-.326c-1.573-1.95-3.855-3.197-6.346-3.467-1.039-.066-2.082-.045-3.117.062 0 0 .263-.175.801-.313a8.07 8.07 0 0 1 2.353-.213 9.45 9.45 0 0 1 3.786 1.041 9.46 9.46 0 0 1 3.037 2.489l.275.364-.588.087c.725-2.428 2.197-4.565 4.206-6.109.782-.678 1.712-1.162 2.716-1.414zm-13.693-12.205c0 .1-1.014.563-2.416 1.765-1.835 1.568-3.179 3.633-3.868 5.946l-.187.626-.401-.526-.25-.338c-1.57-1.947-3.848-3.194-6.334-3.467-1.04-.058-2.082-.037-3.117.062 0 0 .262-.162.801-.312a7.67 7.67 0 0 1 2.353-.201c1.319.073 2.608.424 3.781 1.03a9.37 9.37 0 0 1 3.029 2.488l.275.363-.576.1c.722-2.433 2.194-4.576 4.206-6.121.78-.674 1.706-1.159 2.704-1.415zm55.867 5.381c0 .113-1.164 0-2.954.513a12.64 12.64 0 0 0-6.109 3.605l-.438.476-.125-.638-.075-.413c-.546-2.443-2.036-4.572-4.144-5.921-.908-.517-1.854-.964-2.829-1.34a2.07 2.07 0 0 1 .864.088c.773.171 1.516.458 2.203.851a9.47 9.47 0 0 1 2.927 2.611c.783 1.065 1.334 2.282 1.617 3.573l.075.45-.563-.175a12.07 12.07 0 0 1 6.497-3.605c.999-.258 2.044-.284 3.054-.075zm-26.048 24.912c0 .113-1.127.326-2.767 1.252a12.61 12.61 0 0 0-5.095 4.932l-.313.563-.275-.6-.163-.389c-1.102-2.244-3.045-3.962-5.408-4.781-1-.292-2.021-.506-3.054-.639 0 0 .3-.112.851-.125a7.54 7.54 0 0 1 2.341.326c1.275.373 2.456 1.012 3.466 1.875a9.41 9.41 0 0 1 2.393 3.132l.187.413h-.588c1.248-2.206 3.163-3.959 5.47-5.007a6.71 6.71 0 0 1 2.955-.952zm16.699-9.775c0 .112-1.164 0-2.954.513a12.62 12.62 0 0 0-6.109 3.605l-.438.476-.125-.639-.075-.413a9.44 9.44 0 0 0-1.483-3.373c-.711-1.015-1.615-1.881-2.66-2.548a22.4 22.4 0 0 0-2.817-1.339 2.09 2.09 0 0 1 .864.087c.768.174 1.506.461 2.19.852a9.38 9.38 0 0 1 2.934 2.605c.783 1.066 1.332 2.286 1.61 3.579 0 .162.063.312.088.45l-.563-.175a11.99 11.99 0 0 1 6.484-3.605 6.72 6.72 0 0 1 3.054-.075zm-42.144 15.546c0 .113-1.165 0-2.955.514a12.62 12.62 0 0 0-6.108 3.605l-.439.475-.125-.65-.075-.401a9.49 9.49 0 0 0-4.143-5.921c-.907-.512-1.848-.959-2.817-1.339a2.09 2.09 0 0 1 .851.075c.772.182 1.514.473 2.204.863 1.148.655 2.146 1.544 2.929 2.609s1.333 2.284 1.615 3.575c0 .151 0 .313.087.451l-.563-.175a11.99 11.99 0 0 1 6.484-3.605 6.52 6.52 0 0 1 3.055-.076zm50.581-2.128c0 .1-1.051.514-2.503 1.64-1.913 1.47-3.361 3.461-4.169 5.733l-.213.614-.375-.539-.238-.35c-1.475-2.012-3.683-3.361-6.146-3.755a22.72 22.72 0 0 0-3.13-.101 2.17 2.17 0 0 1 .826-.262c.78-.146 1.578-.176 2.366-.088 1.314.142 2.584.559 3.725 1.226s2.128 1.567 2.897 2.642l.251.376-.576.062a11.99 11.99 0 0 1 4.506-5.883 6.64 6.64 0 0 1 2.779-1.315zm-5.42-51.864c.063.101-1.014.576-2.416 1.778-1.818 1.557-3.152 3.604-3.843 5.896l-.175.626-.401-.526-.263-.338a9.44 9.44 0 0 0-6.334-3.455 21.91 21.91 0 0 0-3.117 0s.263-.163.802-.313c.77-.181 1.563-.249 2.353-.2 1.32.073 2.61.425 3.784 1.034a9.35 9.35 0 0 1 3.026 2.496l.275.351-.576.1a12 12 0 0 1 4.206-6.109 6.64 6.64 0 0 1 2.679-1.34zm15.526-41.058c0 .1-1.027.564-2.429 1.765-1.831 1.572-3.174 3.635-3.868 5.946l-.175.626-.401-.526-.263-.338a9.41 9.41 0 0 0-2.821-2.365 9.42 9.42 0 0 0-3.513-1.102c-1.037-.079-2.079-.079-3.117 0 0 0 .263-.163.801-.313a8.04 8.04 0 0 1 2.354-.213 9.45 9.45 0 0 1 3.786 1.041c1.175.608 2.209 1.456 3.036 2.489l.263.363-.576.1c.726-2.43 2.197-4.572 4.206-6.121a6.61 6.61 0 0 1 2.717-1.352zm37.297 20.617c0 .1-1.027.564-2.429 1.765-1.828 1.574-3.17 3.637-3.868 5.946l-.175.626-.401-.525-.25-.338a9.46 9.46 0 0 0-6.347-3.468 20.79 20.79 0 0 0-3.117 0s.263-.163.802-.313c.769-.188 1.563-.255 2.353-.2 1.321.072 2.611.423 3.787 1.03a9.39 9.39 0 0 1 3.035 2.487l.276.363-.589.101c.726-2.431 2.198-4.572 4.206-6.122.788-.655 1.719-1.118 2.717-1.352zm28.257-3.693c0 .101-1.026.564-2.428 1.766-1.828 1.574-3.169 3.637-3.868 5.946l-.175.625-.401-.525-.25-.338c-1.57-1.948-3.848-3.195-6.334-3.468a20.7 20.7 0 0 0-3.13.063s.276-.175.814-.313c.769-.188 1.563-.259 2.353-.213 1.319.08 2.606.435 3.779 1.043s2.206 1.455 3.031 2.487l.275.363-.588.1c.725-2.434 2.202-4.577 4.219-6.121.778-.676 1.704-1.161 2.703-1.415zm12.945-15.758c0 .1-1.014.576-2.416 1.778-1.835 1.567-3.179 3.632-3.868 5.946l-.187.613-.401-.526-.25-.325c-.776-.967-1.735-1.771-2.822-2.366s-2.28-.969-3.512-1.102c-1.042-.074-2.088-.074-3.13 0 0 0 .276-.163.814-.313.77-.181 1.563-.249 2.353-.2a9.35 9.35 0 0 1 3.783 1.036c1.174.608 2.205 1.458 3.027 2.494l.275.363-.576.088c.717-2.432 2.19-4.572 4.207-6.109a6.75 6.75 0 0 1 2.703-1.377zm-65.498 19.314c0 .1-1.089.413-2.653 1.414a12.52 12.52 0 0 0-4.657 5.333l-.275.588-.313-.575-.213-.363c-.633-1.065-1.47-1.994-2.462-2.735a9.43 9.43 0 0 0-3.321-1.584c-1.019-.21-2.053-.339-3.092-.388 0 0 .288-.125.838-.188.787-.081 1.58-.038 2.354.125 1.297.257 2.526.786 3.605 1.552s1.983 1.752 2.654 2.892l.212.401h-.588c1.052-2.302 2.805-4.212 5.007-5.458.872-.567 1.869-.915 2.904-1.014zm33.977 16.061c0 .113-1.089.413-2.641 1.414a12.52 12.52 0 0 0-4.669 5.333l-.263.588-.326-.575-.2-.363c-1.286-2.148-3.37-3.701-5.796-4.319-1.02-.202-2.053-.332-3.092-.388 0 0 .288-.125.839-.188a8.13 8.13 0 0 1 2.366.125c1.298.258 2.526.787 3.604 1.553s1.984 1.751 2.655 2.891l.213.401h-.589a12.07 12.07 0 0 1 5.008-5.458c.871-.559 1.862-.906 2.891-1.014z"/></g><path d="M245.313 243.123c-1.954-3.926-2.282-8.464-.914-12.631.2 0-.413 2.854-.138 6.359s1.24 6.209 1.052 6.272z" class="B"/><g class="D"><path d="M133.302 266.282c2.785-3.232 4.484-7.257 4.857-11.507a20.35 20.35 0 0 0-2.779-12.177c.076.463-3.642 12.756-3.642 12.756l.951 10.515" fill="#000"/></g><path d="M150.638 263.852l-2.855-14.108a1.8 1.8 0 0 1 .016-.8 1.81 1.81 0 0 1 .36-.716 1.82 1.82 0 0 1 .632-.491c.244-.114.511-.173.782-.171l36.515.162c.256.002.508.058.74.164s.44.259.609.45a1.82 1.82 0 0 1 .371.66 1.8 1.8 0 0 1 .07.754l-3.755 32.323a2.5 2.5 0 0 1-2.504 2.228l-23.784-.188c-.557-.003-1.097-.192-1.534-.537a2.5 2.5 0 0 1-.882-1.366l-4.781-18.364z" class="I"/><path d="M147.418 256.418c.781.003 1.543.244 2.182.691a3.84 3.84 0 0 1 1.399 1.812c.6 1.553 1.477 3.38 2.503 3.906 1.79.976 4.882 1.765 6.509.964s8.162-6.672 9.301-6.021 2.116 2.128.977 3.43-7.173 5.22-6.034 6.522 13.857-4.444 15.81-3.931 3.105 1.702 1.953 2.504-9.777 4.043-10.265 5.182c0 0 13.044-3.417 13.532-2.604s1.252 2.116 0 2.604-12.518 3.43-13.532 3.918a23.59 23.59 0 0 1-5.007 1.465 53.23 53.23 0 0 0-5.245 1.665c-2.64.914-5.523.838-8.112-.213l-1.251-.539c-1.005-.405-1.857-1.117-2.434-2.033a5.15 5.15 0 0 1-.783-3.074l.262-4.444-1.427-3.667-.338-8.137z" class="G"/><path d="M169.329 253.001c0 .262-.078.519-.223.737a1.33 1.33 0 0 1-1.362.564 1.33 1.33 0 0 1-1.043-1.043 1.33 1.33 0 0 1 .564-1.362c.218-.145.475-.223.737-.223a1.33 1.33 0 0 1 1.327 1.327z" class="E"/><g class="C"><path d="M300.188 501.681c10.477 3.655 24.147.388 33.11-6.159s15.422-15.923 21.142-25.45c2.441-4.056 4.82-8.287 5.596-12.968s-.363-9.927-3.993-12.981c-5.633-4.732-14.271-2.329-20.667 1.314-9.987 5.819-18.408 13.979-24.538 23.777s-9.786 20.942-10.65 32.467zm11.253 25.085c6.259 8.3 17.1 12.005 27.54 12.518s20.692-2.391 30.419-6.134c3.53-1.352 7.398-3.204 8.599-6.784a8.6 8.6 0 0 0 .1-4.24 8.61 8.61 0 0 0-1.94-3.772 17.99 17.99 0 0 0-7.022-4.794c-9.576-4.069-20.542-4.269-30.619-1.653s-18.878 8.45-27.052 14.897m-11.441-70.026c8.675.175 15.247-7.423 19.178-15.159 5.448-10.823 7.261-23.116 5.17-35.051-.801-4.432-2.504-9.213-6.447-11.354s-9.276-.739-12.656 2.353-5.232 7.511-6.584 11.867c-4.657 15.022-3.655 32.385 1.339 47.344zm-28.44 47.98c14.783-25.186 17.249-55.98 8.512-83.871-1.415-4.519-4.081-9.702-8.763-10.014-5.232-.338-8.512 5.495-10.014 10.54-5.07 17.701-3.993 36.49-2.867 54.854.689 11.266 4.569 20.993 13.132 28.441m-15.435 10.415c-2.751-8.627-7.405-16.526-13.616-23.114s-13.823-11.699-22.273-14.953c-3.931-1.477-8.913-2.328-11.855.676s-1.977 7.886-.137 11.566c2.979 5.947 7.811 10.716 12.63 15.31 4.382 4.168 8.938 8.349 14.471 10.778s15.723 3.042 20.792-.263"/></g><g class="B"><path d="M347.856 450.443s-.075.088-.25.225l-.802.614-3.104 2.328-2.241 1.653-2.578 2.103-6.172 5.245-3.542 3.179c-1.252 1.102-2.366 2.353-3.618 3.594-2.504 2.503-5.007 5.307-7.674 8.262-11.264 13.06-20.39 27.822-27.038 43.737-1.452 3.756-2.904 7.173-3.956 10.553-.551 1.677-1.152 3.267-1.602 4.844l-1.252 4.532c-.876 2.879-1.377 5.558-1.928 7.874l-.726 3.242c-.2 1.001-.339 1.927-.476 2.754l-.689 3.818a33.26 33.26 0 0 0-.2.989 1.53 1.53 0 0 1-.087.325.96.96 0 0 1 0-.338c0-.263.088-.601.138-1.001l.551-3.831.424-2.779c.15-1.014.426-2.09.664-3.255.526-2.34.99-5.007 1.841-7.923l1.252-4.557c.438-1.577 1.026-3.192 1.564-4.882 1.039-3.392 2.504-6.897 3.918-10.615 6.601-16.023 15.781-30.857 27.177-43.913 2.666-2.954 5.157-5.808 7.736-8.249 1.252-1.252 2.441-2.505 3.668-3.581l3.517-3.142c2.216-2.053 4.407-3.681 6.259-5.183l2.629-2.065 2.291-1.615 3.179-2.216.839-.563.288-.163z"/><path d="M367.446 520.231a5.62 5.62 0 0 1-1.014-.176l-2.879-.576c-3.534-.676-7.11-1.115-10.703-1.314-11.891-.728-23.792 1.272-34.791 5.848s-20.808 11.605-28.675 20.552c-2.386 2.696-4.593 5.543-6.609 8.525-.739 1.039-1.252 1.903-1.615 2.504-.173.298-.374.579-.601.838.132-.317.291-.623.476-.913.35-.576.801-1.465 1.514-2.504 1.934-3.06 4.097-5.968 6.472-8.7 7.829-9.105 17.68-16.249 28.767-20.862s23.098-6.565 35.074-5.701a72.8 72.8 0 0 1 10.728 1.527c1.252.251 2.216.551 2.867.714.336.049.667.128.989.238zm-54.627-114.965a1.86 1.86 0 0 1-.062.4c0 .288-.138.664-.226 1.127l-.976 4.331-3.757 15.886-12.931 52.312c-2.503 10.227-4.669 20.029-6.584 28.916s-3.48 16.976-4.669 23.785c-.639 3.393-1.114 6.472-1.577 9.176l-1.102 6.935-.676 4.381-.2 1.139c-.016.133-.045.263-.088.389a1.42 1.42 0 0 1 0-.401c0-.288.075-.676.125-1.139l.564-4.407c.237-1.902.55-4.256.976-6.959l1.477-9.201c1.127-6.797 2.679-14.871 4.532-23.785s4.08-18.715 6.534-28.954l13.119-52.263 4.007-15.835 1.101-4.306.301-1.114a1.97 1.97 0 0 1 .112-.413zM278.845 551.99a2.88 2.88 0 0 1-.088-.301l-.213-.914-.726-3.505c-.626-3.041-1.452-7.51-2.403-12.943-1.891-10.953-4.144-26.163-5.533-43.074-.664-8.462-1.039-16.549-1.252-23.897s-.063-13.983.175-19.541c.063-2.779.251-5.282.363-7.51s.276-4.094.413-5.646l.338-3.568c0-.363.075-.675.1-.926-.016-.103-.016-.209 0-.313.013.108.013.218 0 .326v.926c0 .876-.112 2.065-.2 3.58l-.288 5.646-.275 7.51c-.163 5.558-.175 12.168 0 19.516s.601 15.397 1.252 23.847c1.377 16.886 3.555 32.096 5.32 43.061l2.19 12.969.589 3.53.15.926a.88.88 0 0 1 .088.301z"/><path d="M279.946 555.195c-.158-.278-.288-.572-.388-.876l-.976-2.504-.689-1.827-.951-2.128-1.089-2.504c-.388-.914-.876-1.74-1.34-2.679l-1.514-2.866-1.803-3.105c-1.189-2.165-2.716-4.319-4.206-6.672a157.09 157.09 0 0 0-11.141-14.245c-4.041-4.478-8.307-8.748-12.781-12.794-2.128-1.79-4.08-3.58-6.046-5.094l-2.791-2.229-2.704-1.99a106.17 106.17 0 0 0-4.644-3.267c-1.39-.926-2.579-1.753-3.58-2.354l-2.304-1.452a8.24 8.24 0 0 1-.776-.55 4.1 4.1 0 0 1 .851.425l2.366 1.34c1.027.575 2.254 1.339 3.656 2.265s3.016 1.941 4.719 3.192l2.691 1.928 2.842 2.203c1.99 1.49 3.955 3.28 6.108 5.07 4.523 4.032 8.823 8.307 12.881 12.806a154.01 154.01 0 0 1 11.154 14.346c1.477 2.378 2.992 4.556 4.168 6.747l1.778 3.129 1.477 2.967c.476.939.939 1.84 1.252 2.716s.713 1.703 1.051 2.504l.889 2.165.651 1.853.851 2.591c.145.283.259.581.338.889zm62.426-75.558c0 .113-1.79.113-4.669.275a88.42 88.42 0 0 0-11.166 1.352 86.61 86.61 0 0 0-10.89 2.842l-4.444 1.452c.342-.25.717-.452 1.114-.601.726-.35 1.815-.801 3.167-1.314a66.77 66.77 0 0 1 10.916-3.067c3.715-.708 7.484-1.093 11.266-1.152 1.452 0 2.629 0 3.442.063.426-.006.851.045 1.264.15zm11.167 54.516c-.213.1-1.89-4.72-6.096-9.189a41.38 41.38 0 0 0-8.763-6.747c1.072.274 2.091.722 3.017 1.327 4.638 2.675 8.363 6.683 10.69 11.504a10.42 10.42 0 0 1 1.152 3.105zm-38.055-108.444c.137.15-2.592 2.854-5.558 6.509l-5.258 6.747c2.652-5.118 6.334-9.631 10.816-13.256zm-8.936-15.436a52.24 52.24 0 0 1 2.003 11.793 26.37 26.37 0 0 1-1.352-5.834 25.16 25.16 0 0 1-.651-5.959zm-27.682 48.432c-1.229 3.135-2.677 6.18-4.331 9.113a74.12 74.12 0 0 1-4.945 8.763c2.684-6.17 5.783-12.15 9.276-17.901v.025zm-16.471-16.435c1.423 2.077 2.651 4.281 3.668 6.585 1.226 2.205 2.249 4.518 3.054 6.91-2.657-4.279-4.907-8.797-6.722-13.495z"/><path d="M238.186 498.501c0 .201-2.98-.363-6.635-.626l-6.672-.313a18.8 18.8 0 0 1 6.71-.375c2.26.041 4.494.486 6.597 1.314zm16.533 49.722l8.237 43.312c.262 1.388 1.001 2.64 2.089 3.541a6.06 6.06 0 0 0 3.869 1.391h24.335c1.436.002 2.827-.507 3.923-1.436s1.826-2.216 2.06-3.634l7.161-43.174h-51.674z"/></g><path d="M257.385 562.306h46.529l2.479-14.083h-51.674l2.666 14.083z" class="I"/><path d="M257.387 562.305l.976 5.132h44.839l.714-5.132h-46.529z" class="E"/><path d="M766.934 311.932h-78.826a13.32 13.32 0 0 0-13.319 13.319v54.278a13.32 13.32 0 0 0 13.319 13.319h78.826a13.32 13.32 0 0 0 13.319-13.319v-54.278a13.32 13.32 0 0 0-13.319-13.319z" class="L"/><g class="H"><path d="M773.279 311.932h-78.827a13.32 13.32 0 0 0-13.319 13.319v54.278a13.32 13.32 0 0 0 13.319 13.319h78.827a13.32 13.32 0 0 0 13.319-13.319v-54.278a13.32 13.32 0 0 0-13.319-13.319z"/><path d="M719.752 377.414l-1.139 31.671h26.15v-31.333l-25.011-.338z"/></g><path d="M738.505 350.687a4.63 4.63 0 0 1-.774 2.576c-.508.764-1.23 1.359-2.076 1.712a4.64 4.64 0 0 1-2.677.269c-.9-.178-1.726-.618-2.375-1.265s-1.092-1.473-1.271-2.371a4.63 4.63 0 0 1 .261-2.678c.35-.847.944-1.571 1.706-2.081s1.658-.781 2.574-.781a4.63 4.63 0 0 1 4.632 4.619z" class="E"/><path d="M786.913 409.459h-94.624v187.295h94.624V409.459z" class="B"/><path d="M786.909 409.459H569.684v15.936h217.225v-15.936z" class="I"/><path d="M662.695 409.459H568.07v187.295h94.625V409.459z" class="B"/></g><defs><clipPath id="A"><path d="M0 0h816v644H0z" class="F"/></clipPath><path id="B" d="M746.014 149.472c0 .175-45.34.325-101.259.325s-101.271-.15-101.271-.325 45.341-.326 101.271-.326l101.259.326z"/><path id="C" d="M529.541 149.472c-1.759.434-3.598.434-5.357 0 1.759-.434 3.598-.434 5.357 0z"/><path id="D" d="M422.173 90.001l-.138-20.029a25.45 25.45 0 0 0-16.524 6.484 23.66 23.66 0 0 0-6.539 9.353c-1.383 3.605-1.863 7.494-1.397 11.327a27.4 27.4 0 0 0 .463 2.904c.006.025.006.05 0 .075l24.06-5.408.075-4.707z"/><path id="E" d="M517.135 80.927c0 .175-12.443.325-27.79.325s-27.79-.15-27.79-.325 12.443-.325 27.79-.325l27.79.325z"/><path id="F" d="M437.547 225.421c-3.377.317-6.776.317-10.152 0 3.376-.317 6.775-.317 10.152 0z"/></defs></svg>