<svg xmlns="http://www.w3.org/2000/svg" width="816" height="644" fill="none" xmlns:v="https://vecta.io/nano"><style><![CDATA[.B{fill-rule:evenodd}.C{fill:#fff}.D{fill:#48a3eb}.E{fill:#53acf2}.F{fill:#2196f3}.G{fill:#f9af79}.H{fill:#20386f}.I{fill:#f49d64}.J{fill:#839caf}.K{fill:#0872c6}.L{fill:#172b57}.M{fill:#e6e6e6}.N{fill:#ed7d57}.O{fill:#9c7357}]]></style><g clip-path="url(#B)"><mask id="A" maskUnits="userSpaceOnUse" x="0" y="-1" width="816" height="644"><path d="M816-1H0v644h816V-1z" class="C"/></mask><g mask="url(#A)"><path d="M117.589 321.681c2.337 12.741 16.02 27.559 29.811 40.309-6.989-18.583-5.262-37.324-5.262-37.324l.853.26c0 16.14 6.52 34.54 9.18 41.397l22.174 19.577c6.183 6.033 9.275 15.082 10.84 22.86l7.087-60.518c-24.379-14.003-32.327-48.415-32.327-48.415l1.07.324c11.019 29.947 26.865 40.471 31.752 43.111 2.626-27.048 3.837-49.252 1.863-57.725l2.746.465s1.117 28.485-.563 49.512c-.968 12.123-1.377 33.039-1.872 53.78 24.899 2.068 39.35-25.509 48.335-47.571-3.859-4.973-14.4-22.358-9.279-59.205l1.279.32s-5.97 33.112 9.936 53.968l6.183-15.863c7.778-17.871 17.974-23.393 17.974-23.393l1.876 1.948c-11.513 5.851-23.338 40.617-34.604 68.56-9.475 23.509-34.54 36.672-42.216 40.254l-.976 22.835c-1.68 27.129-2.797 54.258 4.482 89.548 5.475 26.536 8.293 30.11 9.193 30.498h-34.386s-3.361-26.438 3.918-79.314l5.028-36.732c-1.109-8.102-3.944-26.771-7.765-37.184-4.972-13.552-29.363-32.442-42.408-45.465-10.912-10.891-15.167-30.297-15.167-30.297l1.245-.52z" class="B J"/><path d="M321.432 265.142s9.458-.247 22.601 6.234 9.415 10.661 9.415 10.661 9.13 1.527 9.987 6.098-3.71 5.339-3.71 5.339 4.562 6.856-4.567 14.476-35.819-1.705-35.819-1.705 1.138 6.098-1.706 6.861-7.71-5.718-7.71-5.718-11.125 17.534-31.103 13.338-30.527-19.436-30.527-19.436-3.881 23.598-23.568-2.32c0 0-7.987 8.767-13.126 9.147s-6.016-5.194-6.016-5.194-13.697 14.925-34.029.853c0 0-.426 4.541-1.01 7.59s-4 1.147-4 1.147 6.848 16.392-2.281 21.748-15.407-4.955-15.407-4.955-12.272 12.958-22.54 1.526c0 0-1.706 4.192-4.572 4.192s-3.705-5.339-3.705-5.339-3.996 13.343-32.246 9.914-22.541-25.158-22.541-25.158-7.705 1.147-12.844 0-2.848-7.25-2.848-7.25-9.134 0-11.991-5.338 6.281-20.967 6.281-20.967-4.567-4.951-2.286-7.25 6.563 1.527 6.563 1.527 1.433-8.004 14.558-8.767 24.255 4.571 24.255 4.571 1.139-8.767 7.13-14.861c0 0-5.991-4.959-7.13-8.767s3.134-10.66 3.134-10.66-4.848-4.192-1.424-7.249c1.934-1.794 4.497-2.753 7.134-2.67 0 0 5.42-12.963 20.259-15.628s16.549 2.285 16.549 2.285 1.139-12.575 27.679-17.154 52.787 11.816 52.787 11.816 3.995-3.412 7.991-2.665 2.853 4.955 2.853 4.955 17.12-10.661 40.808-9.91 21.112 12.579 21.112 12.579 7.706-4.959 17.121 0 6.562 11.053 6.562 11.053 9.134 3.411 14.268 15.628-.341 25.423-.341 25.423z" class="B J"/><path d="M39.547 270.803c2.286-2.302 6.563 1.535 6.563 1.535s1.433-7.999 14.558-8.763 24.255 4.576 24.255 4.576 1.139-8.767 7.13-14.869c0 0-5.991-4.955-7.13-8.763s3.134-10.661 3.134-10.661-4.848-4.191-1.424-7.249c1.935-1.791 4.498-2.749 7.134-2.665 0 0 5.42-12.98 20.259-15.65s16.549 2.286 16.549 2.286 1.139-12.579 27.679-17.155 52.787 11.816 52.787 11.816 3.995-3.411 7.991-2.665 2.853 4.947 2.853 4.947 17.12-10.661 40.808-9.91 21.112 12.579 21.112 12.579 7.705-4.959 17.121 0c1.735.868 3.306 2.031 4.644 3.437-22.464 21.683-49.819 41.41-80.534 56.906-74.734 37.716-147.144 39.328-183.957 8.861.456-.853.755-1.348.755-1.348s-4.563-4.955-2.286-7.245z" class="B J"/><path d="M754.523 160.477H320.918V552.651H754.523V160.477Z" class="E"/><path d="M771.468 541.59H320.922v12.268h450.546V541.59z" class="J"/><path d="M344.211 170.565h433.605L627.46 63.641H344.211v106.924z" class="B F"/><path d="M190.676 171.768v-15.343L374.92-1l184.243 157.425v15.343H190.676z" class="B E"/><path d="M200.207 552.651h349.43V160.477L374.92 11.191 200.207 160.477v392.174z" fill="#80c1f5" class="B"/><path d="M509.061 204.709H391.906V314.683H509.061V204.709Z" class="C"/><path d="M504.371 208.838H396.598V310.223H504.371V208.838Z" class="E"/><path d="M499.697 214.087H396.598v-5.249h107.773v101.39h-4.674v-96.141z" class="B D"/><path d="M453.279 206.611h-5.045v105.705h5.045V206.611z" class="C"/><path d="M507.04 232.465H392.32v4.806h114.72v-4.806zm221.195-27.756H611.094v109.974h117.141V204.709z" class="C"/><path d="M723.558 208.838H615.781V310.223H723.558V208.838Z" class="E"/><path d="M718.881 214.087H615.777v-5.249h107.781v101.39h-4.677v-96.141z" class="B D"/><path d="M672.458 206.611h-5.036v105.705h5.036V206.611z" class="C"/><path d="M726.223 232.465H611.508v4.806h114.715v-4.806zM413.759 65.522h-72.193V139.8h72.193V65.522z" class="C"/><path d="M409.074 69.645h-62.82v65.695h62.82V69.645z" class="E"/><path d="M404.397 74.89h-58.151v-5.245h62.829v65.695h-4.678V74.89z" class="B D"/><path d="M722.182 381.23h-34.834v126.732h34.834V381.23z" class="C"/><path d="M718.112 384.816h-26.694V504.09h26.694V384.816z" class="E"/><path d="M714.048 389.366h-22.634v-4.55h26.698V504.09h-4.064V389.366z" class="B D"/><path d="M597.507 381.23h-34.835v126.732h34.835V381.23z" class="C"/><path d="M593.436 384.816h-26.702V504.09h26.702V384.816z" class="E"/><path d="M589.368 389.366h-22.63v-4.55h26.698V504.09h-4.068V389.366z" class="B D"/><path d="M355.791 204.709H238.645V314.683H355.791V204.709Z" class="C"/><path d="M351.101 208.838H243.328V310.223H351.101V208.838Z" class="E"/><path d="M346.419 214.087H243.328v-5.249h107.773v101.39h-4.682v-96.141z" class="B D"/><path d="M300.005 206.611h-5.04v105.705h5.04V206.611z" class="C"/><path d="M353.775 232.465H239.051v4.806h114.724v-4.806zm155.286 146.24H391.906v109.969h117.155V378.705z" class="C"/><path d="M504.371 382.834H396.598V484.219H504.371V382.834Z" class="E"/><path d="M499.697 388.083H396.598v-5.249h107.773v101.385h-4.674v-96.136z" class="B D"/><path d="M453.279 380.611h-5.045v105.705h5.045V380.611z" class="C"/><path d="M507.04 406.457H392.32v4.806h114.72v-4.806zm-151.249-27.752H238.645v109.969h117.146V378.705z" class="C"/><path d="M351.101 382.834H243.328V484.219H351.101V382.834Z" class="E"/><path d="M346.419 388.083H243.328v-5.249h107.773v101.385h-4.682v-96.136z" class="B D"/><path d="M300.005 380.611h-5.04v105.705h5.04V380.611z" class="C"/><path d="M353.775 406.457H239.051v4.806h114.724v-4.806z" class="C"/><path d="M778.291 170.545h-228.85v7.59h228.85v-7.59z" class="M"/><path d="M550.68 537.717H193.852v16.14H550.68v-16.14z" class="J"/><path d="M549.637 316.316h211.24l42.411 43.106H549.637v-43.106z" class="B F"/><path d="M803.766 359.41H549.637v5.953h254.129v-5.953zm-49.226 6.063H549.637v5.949H754.54v-5.949z" class="M"/><path d="M754.54 178.268H549.637v5.948H754.54v-5.948z" class="D"/><path d="M676.813 381.008h-64.786v127.529h64.786V381.008z" class="C"/><path d="M673.72 383.758h-16.779v25.133h16.779v-25.133zm-20.621 0h-17.138v25.133h17.138v-25.133zm-20.983 0h-17.1v25.133h17.1v-25.133zm41.604 27.922h-16.779v14.507h16.779V411.68zm-20.621 0h-17.138v14.507h17.138V411.68zm-20.983 0h-17.1v14.507h17.1V411.68z" class="E"/><path d="M671.132 387.7h-14.191v-3.944h16.775v25.133h-2.584V387.7zm-20.622 0h-14.549v-3.944h17.138v25.133h-2.589V387.7zm-20.987 0h-14.515v-3.944h17.103v25.133h-2.588V387.7zm41.609 27.924h-14.191v-3.944h16.775v14.507h-2.584v-10.563zm-20.622 0h-14.549v-3.944h17.138v14.507h-2.589v-10.563zm-20.987 0h-14.515v-3.944h17.103v14.507h-2.588v-10.563z" class="B D"/><path d="M673.72 429.312h-16.779v14.512h16.779v-14.512zm-20.621 0h-17.138v14.512h17.138v-14.512zm-20.983 0h-17.1v14.512h17.1v-14.512z" class="E"/><path d="M671.132 433.262h-14.191v-3.95h16.775v14.508h-2.584v-10.558zm-20.622 0h-14.549v-3.95h17.138v14.508h-2.589v-10.558zm-20.987 0h-14.515v-3.95h17.103v14.508h-2.588v-10.558z" class="B D"/><path d="M673.72 446.953h-16.779v14.507h16.779v-14.507zm-20.621 0h-17.138v14.507h17.138v-14.507zm-20.983 0h-17.1v14.507h17.1v-14.507z" class="E"/><path d="M671.132 450.899h-14.191v-3.94h16.775v14.503h-2.584v-10.563zm-20.622 0h-14.549v-3.94h17.138v14.503h-2.589v-10.563zm-20.987 0h-14.515v-3.94h17.103v14.503h-2.588v-10.563z" class="B D"/><path d="M673.72 464.689h-16.779v40.915h16.779v-40.915zm-20.621 0h-17.138v40.915h17.138v-40.915zm-20.983 0h-17.1v40.915h17.1v-40.915z" class="E"/><path d="M671.132 468.633h-14.191v-3.944h16.775v40.919h-2.584v-36.975zm-20.622 0h-14.549v-3.944h17.138v40.919h-2.589v-36.975zm-20.987 0h-14.515v-3.944h17.103v40.919h-2.588v-36.975z" class="B D"/><path d="M723.285 509.477H550.691v11.095h172.594v-11.095z" class="D"/><path d="M742.35 520.123H550.691v11.091H742.35v-11.091z" class="D"/><path d="M760.187 530.988H550.691v11.096h209.496v-11.096z" class="M"/><path d="M374.92 11.191l174.717 149.286v13.62L374.92 24.811 200.207 174.097v-13.62L374.92 11.191z" class="B M"/><path d="M243.199 466.43c-4.371-3.015-4.721-2.162-5.262-2.559-.657-.478-4.367-10.614-4.367-10.614l-11.692-31.401 2.23-33.018-16.098-5.484-1.215 37.841c.252 1.88 20.042 40.309 21.684 43.759l.784 7.868c.358 3.04 2.06 5.748 2.299 6.566a26.08 26.08 0 0 0 3.036 5.911c1.786 2.626 1.309-.691 1.309-.691s-2.405-5.484-1.94-5.591c.366-.106 1.505 2.951 3.445 5.889l1.446 2.175c1.211 1.77 2.661 1.535 1.705-.546-.433-.94-.929-1.85-1.484-2.725-.597-.852-.852-1.833-1.236-2.618-.763-1.586-1.343-2.712-1.279-2.716s.187-.427.737.354c.665.946 1.629 3.275 2.721 4.575.618.742 1.808 2.363 1.808 2.363s2.234 2.417 2.401 2.332c.921-.512-.171-2.699-1.135-3.599-.324-.891-1.633-2.558-1.633-2.558s-1.863-3.996-1.279-4.265c.46-.23 6.823 8.431 7.675 7.859.734-.46-1.057-3.134-1.057-3.134s-1.211-1.552-1.569-2.106c-.427-.623-1.548-2.644-1.548-2.644s-3.574-7.177-3.011-7.403 2.213-.222 2.589.137.703 1.407 1.083 1.769a1.31 1.31 0 0 0 .836.36c.313.017.621-.079.869-.27.499-.427-.635-2.908-.635-2.908s-.938-2.034-2.217-2.908z" class="B I"/><path d="M276.819 482.334l-3.045 70.657-77.079-8.119 9.129-62.538h70.995z" fill="#e5bb9a" class="B"/><path d="M286.625 544.288c-6.209 2.282-9.808 5.403-12.848 8.703l3.045-70.657 3.466-.086 6.337 62.04z" class="B O"/><path d="M276.823 482.333l-8.955 28.344c-1.279 3.143-2.614 5.894-7.837 5.459l-49.465-3.135c-4.409-.277-4.516-2.511-4.55-5.543v-25.159l70.807.034z" class="B O"/><path d="M241.113 511.109l-12.584-.828c-.343-.025-.684.076-.958.284a1.41 1.41 0 0 0-.53.846l-1.706 11.177c-.032.158-.03.321.004.478s.101.306.195.437a1.17 1.17 0 0 0 .354.322 1.16 1.16 0 0 0 .453.153l13.092 1.322c.345.035.69-.062.966-.272s.463-.516.522-.858l1.206-11.684a1.16 1.16 0 0 0-.207-.91c-.095-.129-.216-.237-.355-.318a1.17 1.17 0 0 0-.452-.149z" class="B C"/><path d="M238.787 514.11l-.814 7.889-9.223-.934 1.155-7.526 8.882.571zm23.245-31.777c-.772-2.742-2.559-5.028-5.011-6.823a19.72 19.72 0 0 0-3.471-2.021c-.746-1.928-5.219-3.557-10.66-3.766-5.778-.221-10.576 1.229-11.049 3.275-.362.158-.721.324-1.07.504-3.629 1.859-6.345 4.771-7.224 8.818h2.661c.853-2.985 2.964-5.117 5.727-6.546a14.22 14.22 0 0 1 1.151-.533c1.813 1.28 5.377 2.265 9.501 2.422 4.328.167 8.102-.601 9.923-1.855 1.065.484 2.079 1.073 3.027 1.757a10.66 10.66 0 0 1 3.787 4.755l2.708.013z" class="B O"/><path d="M329.797 451.145s1.228.469 1.74-.163a.89.89 0 0 1-.252.364c-.113.097-.25.165-.396.195a1.75 1.75 0 0 1-1.092-.396z" fill="#f27458" class="B"/><path d="M355.625 451.496c-.088.183-.137.382-.145.584-.015.219.019.438.101.641s.207.385.368.532a2.49 2.49 0 0 1-.324-1.757z" fill="#f48d80" class="B"/><path d="M315.896 642.971c102.838 0 186.205-8.919 186.205-19.922s-83.367-19.922-186.205-19.922-186.205 8.919-186.205 19.922 83.367 19.922 186.205 19.922z" fill="#f5f5f5"/><path d="M356.928 371.494c2.691 1.587 3.518 4.192 5.339 5.164 5.287.508 10.502.926 12.989 2.687 9.705 12.002 17.545 22.614 23.521 31.836 2.419 5.117 1.933 10.051-1.458 14.801-4.157-3.931-8.667-4.926-13.531-2.985.244-2.314 1.028-4.539 2.29-6.494-6.985-6.271-12.71-12.022-17.176-17.253.827 6.86-1.602 16.62-7.288 29.282-19.777 1.319-31.123.999-34.036-.959-.964-5.657-1.727-11.832-2.29-18.524-3.876 3.493-7.558 7.194-11.032 11.087a13.74 13.74 0 0 1-6.874.426c-1.725-4.15-3.459-7.911-5.202-11.283 1.202-1.108 3.283-1.995 6.243-2.66 8.076-11.781 15.05-21.293 20.92-28.537 4.548-1.088 7.948-1.657 10.2-1.705a11.42 11.42 0 0 1 4.264-2.985c-1.024 6.229-1.512 12.535-1.458 18.848 8.643-6.473 13.5-14.942 14.579-20.746z" fill="#263238" class="B"/><path d="M371.593 481.618c4.102-25.986.776-43.68-9.978-53.081-16.705 1.115-27.392 1.061-32.063-.162a63.33 63.33 0 0 1-.55 6.823c-2.904 21.914-6.396 55.929-5.914 89.343 11.791 4.23 30.251 4.051 55.379-.537a406.11 406.11 0 0 1-6.874-42.386z" class="B K"/><path d="M339.542 376.385c-1.015 3.053-1.556 5.574-1.624 7.561.818-.693 1.672-1.342 2.558-1.945.426 4.895 1.046 8.307 1.859 10.234-.04-6.309.461-12.611 1.497-18.835-1.641.65-3.11 1.672-4.29 2.985zm17.385-4.891c-1.079 5.804-5.936 14.26-14.575 20.737 5.164-1.876 10.806-6.464 14.038-12.567.537 2.064 1.214 4.481 2.03 7.25a18.47 18.47 0 0 0 3.837-10.234c-1.795-.994-2.648-3.599-5.33-5.186z" class="B F"/><path d="M384.372 422.781c-3.445 7.202-7.479 14.387-11.513 20.102-.921-1.011-1.812-3.199-3.117-4.039-.52-.337-1.343.529-1.898.26-2.631-1.279-5.543-1.633-7.91.175-.592.452-.908 1.339-.993 3.446.098 2.887 2.46 3.411 5.752 2.072 4.401 4.913 7.326 6.512 9.727 4.793 10.862-9.97 18.052-18.236 21.568-24.8-3.605-2.823-7.477-3.493-11.616-2.009z" fill="#fab688" class="B"/><path d="M272.376 421.548c16.272.569 27.894.128 34.868-1.321-1.68-4.026-3.369-7.679-5.066-10.959-12.975 1.97-24.084 3.418-33.329 4.345-3.326-2.328-6.103-3.286-8.332-2.874-.609 1.421.051 2.467 1.978 3.138a2.86 2.86 0 0 1 .623 2.081c-4.81 2.098-9.043 3.393-12.699 3.885-.426 4.429 2.252 7.249 8.034 8.46 5.896-1.561 10.537-3.812 13.923-6.755z" class="B G"/><path d="M373.293 597.318c-3.032 11.577-2.008 17.743 3.706 18.588 7.59.563 9.65-7.113 6.669-22.92.068.853.119 1.659.149 2.371.853 16.558-11.713 12.852-10.839 5.228.123-1.062.221-2.154.315-3.267z" class="B L"/><path d="M372.976 600.584c-.853 7.624 11.684 11.33 10.84-5.228a65.68 65.68 0 0 0-.149-2.371c-.512-6.746-1.906-17.547-1.8-24.361.265-17.393-1.248-32.201-4.537-44.425-6.089 1.089-11.775 1.915-17.057 2.478l7.441 27.905c2.559 10.362 7.39 25.687 6.188 36.207-.26 2.251-.427 4.435-.597 6.528l-.329 3.267z" class="B G"/><path d="M322.767 602.581c4.379.243.383 3.726 3.232 4.51 6.234-3.488 9.688-12.992 12.174-17.192 1.309-2.205 2.26.6 2.904 3.747 1.386 6.75 1.348 15.672-.222 18.448-1.142-2.034-2.132-8.291-3.159-12.111-6.115 5.565-4.781 11.705-8.409 13.794-6.644.808-13.325 1.269-20.017 1.379-1.445-5.748 10.043-3.812 13.497-12.575z" class="B L"/><path d="M326.018 525.449c.853 33.397 3.838 63.153-1.608 77.545 1.514 1.002-.742 3.454 1.591 4.097 6.234-3.488 9.688-12.993 12.174-17.193a.6.6 0 0 1 .043-.068c-.375-.986-.626-2.014-.747-3.062.107-27.696 6.874-44.774 5.565-59.204-6.575-.096-12.248-.802-17.018-2.115z" class="B G"/><path d="M313.668 420.307a438.74 438.74 0 0 1-6.576-13.369c-2.264.619-3.897 1.395-4.912 2.329 1.706 3.283 3.394 6.936 5.066 10.959.047.106.094.212.136.323 2.086.402 4.237.32 6.286-.242zm71.412-1.95a13.35 13.35 0 0 0-1.279 4.643l.584-.221c4.142-1.476 8.021-.806 11.637 2.008-.007.015-.016.03-.026.043a18.19 18.19 0 0 1 1.335 1.151 16.1 16.1 0 0 0 2.559-5.296c-5.532-3.286-10.469-4.062-14.81-2.328z" class="B F"/><path d="M343.679 369.768c.569 2.132.512 3.948-.171 5.446-.809 5.636-1.195 11.324-1.155 17.018 8.247-6.183 13.048-14.166 14.4-19.931a10.23 10.23 0 0 1-1.339-6.311c-.202-1.12.424-3.214 1.876-6.281 4.93-.874 6.162-5.117 4.107-8.477-2.307-.853-3.552 1.096-4.158 4.592-1.318-.204-.814-2.349-.678-3.355.614-2.913.098-4.482-.938-7.25-5.927 4.265-11.01 4.397-19.099 1.996.238 1.99.412 3.906.52 5.748-2.218 5.535 1.173 14.933 6.635 16.805z" class="B G"/><path d="M336.525 347.224c8.102 2.4 13.172 2.264 19.099-1.996 1.036 2.759 1.552 4.328.938 7.249-.136 1.007-.639 3.151.678 3.356.606-3.497 1.851-5.428 4.158-4.592 2.055 3.364.823 7.603-4.106 8.477-1.453 3.061-2.079 5.155-1.877 6.281a10.24 10.24 0 0 0 1.339 6.311 14.46 14.46 0 0 0 .175-.806c2.691 1.586 3.518 4.192 5.339 5.164 5.287.507 10.503.925 12.989 2.686l2.132 2.636c1.705-4.051 2.558-7.036 2.277-8.35-1.139-5.031-6.315-2.507-6.226-5.483.137-4.64-6.264-8.273-5.411-12.9 1.74-9.47-1.872-12.34-1.893-13.061-.214-7.172-4.414-7.36-8.589-9.778-7.411-4.294-13.854.956-15.96 1.101-10.708.716-4.776 5.424-9.574 9.671-3.948 3.496-2.081 6.144-1.675 8.247.183.946 1.044 4.844-1.706 6.822-4.008 2.892-.345 8.955-2.708 9.693-9.104 2.823-5.002 5.633-4.754 12.14a9.21 9.21 0 0 0 2.319 5.48c2.061-2.721 4.011-5.216 5.851-7.484 4.548-1.089 7.948-1.657 10.2-1.706a11.42 11.42 0 0 1 4.264-2.985l-.303 1.83c.668-1.501.725-3.316.171-5.446-5.463-1.872-8.853-11.27-6.635-16.796-.106-1.854-.276-3.774-.512-5.761z" class="B H"/><path d="M343.68 369.768c3.309.384 4.81.359 7.868-.887-1.791 1.973-4.29 3.058-7.497 3.254-.039-.8-.163-1.593-.371-2.367z" class="B N"/><path d="M161.67 608.836l-5.505 13.066-1.177 6.328c0 4.92 22.102-4.179 17.147-6.371-.427-.192-1.855-1.77-2-3.467-.23-2.558 1.859-5.825 1.859-5.825l-10.324-3.731z" class="B I"/><path d="M153.73 629.852s.511-7.402 2.366-8.264c1.748-.81 4.9 2.486 7.364 2.102s8.013-2.409 8.013-2.409c9.807 3.51 17.133 5.731 15.671 8.571H153.73z" class="B L"/><path d="M195.525 612.754l-3.211 9.147-1.177 6.328c0 4.921 22.101-4.179 17.151-6.371-.427-.192-1.855-1.769-2-3.467-.23-2.558 1.855-5.825 1.855-5.825l-12.618.188z" class="B I"/><path d="M226.031 439.791l8.008 20.557s5.22 49.077 2.175 78.462c-1.279 12.297-28.8 78.064-28.8 78.064l-13.68-1.944 14.187-77.042-2.614-30.638-9.531-58.884 30.255-8.575z" class="B K"/><path d="M216.441 442.199l4.899 21.496s-2.034 49.311-9.351 77.945c-3.066 11.987-39.956 73.144-39.956 73.144l-13.248-3.838 25.346-74.227-2.362-73.126 3.475-17.168 31.197-4.226z" class="B F"/><path d="M189.895 629.854s.529-7.33 2.512-8.188c1.88-.852 5.334 2.41 7.995 2.026s7.846-1.885 7.846-1.885c10.61 3.51 19.3 5.207 17.718 8.047h-36.071z" class="B L"/><path d="M232.23 393.079l-20.558 7.138s-8.839-16.025-10.579-23.475c-2.102-9.078 1.898-19.367 3.036-19.367 3.224.025 8.128-1.122 11.364 1.705 11.198 9.804 16.737 33.999 16.737 33.999z" fill="#232e34" class="B"/><path d="M190.806 356.878s-14.323 4.802-17.036 6.78c-3.061 2.222-1.756 9.693-1.756 9.693s-3.348 9.283.592 21.359c5.51 16.891 12.034 38.378 11.586 44.173-.763 9.983-2.929 24.732-2.929 24.732s38.279 2.41 52.778-3.275c0 0-4.58-22.6-4.58-28.51s-3.322-50.752-4.772-55.302c-1.07-3.412-5.147-17.88-12.136-19.39s-21.747-.26-21.747-.26z" fill="#263238" class="B"/><path d="M193.62 340.874l-2.507 16.004s7.33 12.225 12.895 10.507c4.69-1.433 3.744-10.793 3.744-10.793s-2.559-9.381-1.778-14.072-12.354-1.646-12.354-1.646z" class="B I"/><path d="M205.973 342.523c.768-4.69-12.366-1.65-12.366-1.65l-.209 1.386a7.2 7.2 0 0 0 1.425 2.315c2.925 3.105 7.505 4.968 11.466 5.117-.384-2.537-.618-5.257-.316-7.168z" fill="#f27458" class="B"/><path d="M191.471 317.424c-.375-.141-2.985 18.891 1.961 24.119s14.554 6.95 18 2.818c3.837-4.563 3.624-25.001-4.051-30.374s-15.91 3.437-15.91 3.437z" class="B I"/><path d="M204.468 303.792c-4.288.904-8.194 3.104-11.189 6.303-2.695.311-6.35 1.765-10.128 7.948-4.648 7.573-1.219 15.978 4.192 20.11s5.309 8.955 5.309 8.955l.883-2.512c.643-1.861.874-3.84.677-5.799a11.12 11.12 0 0 0-.852-3.488c-1.305-2.772 2.788-4.584 3.936-6.878.891-1.766.933-5.804 2.332-8.716l1.659-2.222s3.838-2.959 7.599-2.132 3.185-13.1-4.418-11.569z" class="B H"/><path d="M197.027 331.8c.034 2.32-1.036 4.205-2.396 4.226s-2.49-1.838-2.525-4.153 1.028-4.226 2.388-4.265 2.486 1.872 2.533 4.192zm77.122 84.064l-2.494.064c-.717 0-2.908-.251-2.908-.251s-7.556-1.143-7.433-1.706 1.54-1.053 2.021-1.151l1.553-.333c.125-.022.245-.07.351-.139a.95.95 0 0 0 .27-.266c.07-.106.119-.225.143-.351s.022-.254-.005-.378c-.064-.606-2.132-.674-2.815-.546-2.213.358-7.923 2.507-8.528 2.712-.729.247-13.479-4.128-17.974-5.288-7.287-2.132-14.681-4.643-15.449-4.869l-27.291-17.53-10.375 7.334 31.615 20.69c.781.405 18.063 4.004 18.063 4.004l17.667 2.559s4.158 1.897 6.733 3.262 5.475 1.577 6.26 1.855a19.54 19.54 0 0 0 6.26 1.194c3.019.051.158-1.382.158-1.382s-5.587-1.104-5.429-1.531c.124-.328 3.143.461 6.486.554l2.486.073c2.047.034 2.64-1.211.503-1.586a20.08 20.08 0 0 0-2.925-.329c-1.002 0-1.91-.345-2.738-.482-1.658-.285-2.865-.426-2.823-.516s-.217-.353.7-.349c1.096 0 3.411.499 5.036.375.921-.068 2.836-.106 2.836-.106s3.117-.38 3.121-.576c.119-.96-2.192-1.314-3.411-1.066-.954-.148-1.92-.195-2.883-.141 0 0-4.132-.716-4.047-1.279.06-.495 10.285-.648 10.324-1.633.025-.798-3.058-.892-3.058-.892z" class="B I"/><path d="M203.16 388.663l-11.876 18.174s-9.598-4.388-15.88-10.737c-15.423-13.889-5.543-32.212-1.279-32.502 9.531-.648 29.035 25.065 29.035 25.065z" fill="#232e34" class="B"/><path d="M202.015 569.98l35.03-44.587c-.14 4.725-.4 9.254-.852 13.39-1.28 12.298-28.801 78.065-28.801 78.065l-13.658-1.919 8.281-44.949z" class="B F"/><path d="M203.932 330.444c-.768.106-1.778-2.857.094-3.117 1.006-.137 1.168 2.933-.094 3.117zm8.498-1.332c.772-.11.973-3.232-.904-2.985-.997.154-.366 3.169.904 2.985zm-8.109-4.57c1.253-.127 1.352.904.482 1.305-.256.124-5.169 1.821-4.985 1.48.341-.708 2.136-2.537 4.503-2.785zm5.655-1.238c-1.249.163-1.125 1.194-.187 1.386.426.086 5.488.619 5.117.226a6.44 6.44 0 0 0-4.93-1.612z" class="B H"/><path d="M212.356 335.253c-2.132 1.979-2.409.687-1.638.465 2.559-.734-.362-.938-2.038-5.164-.171-.426.328-.631.52-.286.128.239.508 1.169.67 1.416 1.949 3.057 3.168 2.938 2.486 3.569z" class="B N"/><path d="M211.746 338.638c-1.932 3.181-4.397.853-6.469.639 5.484-1.023 6.9-1.496 6.469-.639z" class="B C"/><path d="M347.601 355.087c.776 0 1.279-3.104-.597-3.057-1.011.025-.678 3.083.597 3.057zm-8.599.059c-.776 0-1.479-3.032.427-3.079.993-.026.857 3.053-.427 3.079zm7.264-5.82c-1.254.073-1.186 1.109-.265 1.369.269.077 5.394.959 5.16.652-.452-.643-2.52-2.166-4.895-2.021zm-5.778-.307c1.258-.042 1.279.998.426 1.335-.426.158-5.317 1.501-5.027 1.053.56-.694 1.258-1.265 2.05-1.676s1.66-.654 2.551-.712z" class="B H"/><path d="M340.069 361.197c2.413 1.607 2.49.285 1.705.192-2.639-.312.201-.985 1.173-5.424.094-.465-.426-.576-.559-.201-.089.26-.311 1.237-.426 1.505-1.441 3.339-2.669 3.412-1.893 3.928zm1.154 3.247c2.413 2.823 4.473.145 6.481-.426-5.577-.124-7.048-.358-6.481.426z" class="B N"/><path d="M451.445 353.653v2.055s-.559 6.422 7.351 7.365 14.405.814 14.187-4.145c-.712-3.838-1.987-9.808-2.038-12.976a22.02 22.02 0 0 1 .277-3.838l-15.351-.303-4.516.734.09 11.108z" class="B G"/><path d="M451.387 342.536l.056 11.117c1.735.81 3.628 1.226 5.543 1.22 7.049 0 11.603-5.169 13.987-8.921a22.02 22.02 0 0 1 .277-3.838l-15.351-.303-4.512.725z" class="B N"/><path d="M472.407 339.641c-1.774 9.573-14.132 9.258-19.471 8.661-1.496-.171-2.447-.363-2.447-.363-1.706-.452-2.636-3.121-3.079-6.618-.853-6.916.235-17.057 1.399-19.662 1.761-3.91 5.07-8.136 17.513-5.087s8.37 10.801 6.085 23.069z" class="B G"/><path d="M482.518 623.079h-17.483a42.09 42.09 0 0 1 1.399-6.277 17.58 17.58 0 0 1 .989-2.525c1.705-3.411 12.511-1.236 12.511-1.236s1.011.852 1.791 4.144c.431 1.939.696 3.91.793 5.894zm-52.897-5.52c-.051 2.379-.35 4.635-1.211 5.518h-34.621c.426-1.249 1.684-3.13 5.236-3.71 4.043-.652 10.341-2.597 14.012-6.486a10.37 10.37 0 0 0 2.717-4.912c1.629-7.249 13.466 2.226 13.466 2.226.291 2.444.424 4.903.401 7.364z" class="B L"/><path d="M452.65 539.16c-.41 2.114-.695 4.249-.853 6.396-1.1 21.471-18.072 70.56-21.108 71.699-4.69 1.773-12.093-1.992-15.961-3.224a3.32 3.32 0 0 1-2.332-3.77c8.4-38.642 11.513-94.281 12.622-127.218.567-16.592 3.411-28.05 3.411-28.05s41.397-11.044 41.64 2.921c.2 12.371-13.731 60.855-17.419 81.246z" class="B F"/><path d="M452.649 539.157L425 483.045c.567-16.592 3.411-28.05 3.411-28.05s41.397-11.045 41.64 2.921c.217 12.366-13.714 60.85-17.402 81.241z" class="B K"/><path d="M443.438 457.968l21.888 158.594s9.607 2.324 17.082.465c0 0 6.397-84.346 5.876-104.742s4.593-54.581-1.177-58.334-43.669 4.017-43.669 4.017z" class="B F"/><path d="M444.991 312.541c4.12-.467 8.146-1.555 11.94-3.228 5.241-2.278 11.855.23 14.004 1.364a3.21 3.21 0 0 0-.525-1.279 2.89 2.89 0 0 1 1.105 1.642c.102.072.149.123.119.14.6-.11 1.218-.07 1.8.115 0 0-.495-.068-.674.248-.02.033-.046.062-.077.085 8.175 3.953 8.934 16.873 6.298 19.863-3.164 3.599-6.963 11.701-6.963 11.701s-1.382-1.915-.802-5.079-2.162-3.168-5.616-4.61-.575-5.466-3.599-7.914-14.097-1.002-13.956-2.878c-4.12-1.514-3.054-9.748-3.054-10.17z" class="B H"/><path d="M474.862 361.684l-5.04 108.088s-42.05.687-40.847-8.831 15.155-95.944 15.155-95.944l30.732-3.313z" class="B C"/><path d="M489.873 422.956c-2.499 7.505 2.217 32.689 3.897 41.222l.614 2.869c-5.82 9.475-27.146 9.352-27.146 9.352-4.106-18.127-6.238-47-6.238-47l16.366-71.733 20.587 19.032-3.483 23.419c-1.518 9.347-3.241 18.864-4.597 22.839zm-75.338-16.115c-.034-.049-.049-.108-.042-.167 0-1.556 5.944-5.006 12.366-9.061l.124-.124c-.116 3.318-.103 6.571.093 9.603.367 5.62-.038 12.332-.725 19.189-3.061-4.789-11.253-17.654-11.846-19.415l.03-.025zm16.712-43.615v.047c-.994.964-29.065 28.217-34.502 38.89-5.543 10.827 25.304 32.408 25.304 32.408s1.987.784 3.36.473c-1.454 11.978-3.083 23.027-2.132 27.717 1.744 8.529 9.633 11.39 9.633 10.729 0-.205 2.882-30.967 4.443-47.021 3.36-34.412 11.769-68.598 11.769-68.598-9.176.963-17.875 5.355-17.875 5.355z" class="B K"/><path d="M476.051 357.539c.051-1.032-4.836-2.457-4.836-2.457s-5.595 7.748-14.805 7.885c0 0 2.622 5.117 5.718 6.435 0 0 13.624-5.74 13.923-11.863zm-19.645 5.247s-4.882-2.895-4.899-6.034c0 0-3.151-.392-4.524 1.134 0 0-1.16 5.378.375 8.503.004 0 7.031-1.091 9.048-3.603z" fill="#d8e8f7" class="B"/><path d="M459.725 362.314l-6.622-1.582s-.853.072-.853 1.151 1.868 4.226 2.678 4.482 6.362-1.864 4.797-4.051z" fill="#466fb5" class="B"/><path d="M475.279 357.006c.051-1.037-3.254-3.16-3.254-3.16s-6.396 7.484-15.615 7.616c0 0 2.622 5.117 5.718 6.434 0 0 12.852-4.767 13.151-10.89z" fill="#e9f0f9" class="B"/><path d="M456.408 361.461s-4.937-2.614-4.955-5.752c0 0-2.984 1.309-4.358 2.84 0 0-1.279 3.39.265 6.511.004 0 7.032-1.066 9.048-3.599z" fill="#e9f0f9" class="B"/><path d="M443.472 436.025a10.19 10.19 0 0 0 3.245 6.597l2.934 2.703c.173.162.379.286.602.364s.462.109.698.09a1.72 1.72 0 0 0 .675-.199c.209-.113.391-.268.537-.455l3.633-4.614c.971-1.238 1.429-2.801 1.279-4.366l-1.475-16.708c-.427-5.257-.742-10.366-.768-13.474-.081-9.923 1.885-41.568 1.885-41.568l-2.375.124c-4.148 9.272-7.171 19.006-9.006 28.996a110.83 110.83 0 0 0-1.642 13.027s-1.241 18.072-.222 29.483z" class="B F"/><path d="M443.472 436.026c.223 2.526 1.38 4.878 3.245 6.596l2.934 2.704c.173.162.379.286.602.364s.462.109.698.09.466-.087.675-.2a1.69 1.69 0 0 0 .537-.455l3.633-4.613a6.13 6.13 0 0 0 1.279-4.367l-1.475-16.707c-6.576-7.386-9.236-17.59-10.264-25.922-.804 4.306-1.353 8.656-1.642 13.027 0 0-1.241 18.072-.222 29.483z" class="B K"/><path d="M420.072 436.32a4.55 4.55 0 0 1 .393-1.892c.264-.595.654-1.127 1.142-1.559s1.063-.754 1.686-.944 1.28-.244 1.926-.159c.374.04.735.154 1.064.336s.618.427.851.722c1.872 2.494 3.654 9.756.332 10.097-1.351.137-3.091-.81-4.426-1.829s-2.985-2.652-2.985-4.354l.017-.418z" class="B G"/><path d="M493.769 464.176c-6.029-6.277-16.447-18.617-16.076-28.753.491-14.191 16.776-35.308 16.776-35.308-1.518 9.347-3.241 18.865-4.597 22.839-2.499 7.505 2.217 32.69 3.897 41.222z" class="B F"/><path d="M493.581 439.496s-4.337 2.171-6.968 1.083-5.727-1.897-8.665 1.455-3.561 5.667-2.942 6.903 7.475.781 8.613 0 2.938-2.673 4.081-2.345c3.147.917 5.8-1.488 7.288-3.411.895-1.126-1.523-1.706-1.407-3.685z" class="B G"/><path d="M477.367 357.666s17.266 1.911 21.321 9.429 25.244 37.981 24.553 50.645-28.881 26.865-28.881 26.865-6.239-2.635-6.333-5.475 19.484-19.799 18.298-22.967-22.749-28.199-24.826-36.455-4.132-22.042-4.132-22.042zm-50.383 39.823l-.124.123c-6.439 4.056-12.366 7.505-12.366 9.062-.853-2.751 7.5-14.23 10.234-16.567s2.256 7.382 2.256 7.382z" class="B F"/><path d="M472.025 353.846s-13.108 54.889-11.023 75.566c0 0 4.823-22.097 16.413-40.19 0 0-4.226-3.723-4-5.096 2.018-.548 4.13-.652 6.192-.307 0 0-.337-23.658-2.234-26.161s-5.348-3.812-5.348-3.812zm-20.568 1.863c.268-.158-12.985 53.635-14.098 70.785l1.19-39.401s5.441-2.883 5.441-3.893-5.808-3.744-5.808-3.744 3.676-18.839 5.684-20.916 7.591-2.831 7.591-2.831z" class="B F"/><path d="M457.051 341.066c-2.221.046-4.437-.229-6.579-.814-1.011-.247 1.07 7.543 6.724 1.224.132-.149.064-.414-.145-.41z" fill="#eb795b" class="B"/><path d="M458.328 327.032c-1.279.094-1.194 1.101-.26 1.339 9.97 2.499 3.395-1.577.26-1.339zm-5.844-.899c1.186.456.823 1.399-.145 1.36-10.264-.503-2.784-2.494.145-1.36z" class="B H"/><path d="M451.126 337.681h-.064c-1.027-.461-1.569-.729-1.705-1.181s.162-.789.665-1.484c.912-1.226 1.694-2.544 2.332-3.932a.31.31 0 0 1 .167-.145c.072-.026.151-.025.221.004.07.035.124.095.151.168s.022.154-.01.225a22.51 22.51 0 0 1-2.392 4.029c-.324.452-.606.853-.567.985.051.205.78.533 1.364.798.036.016.068.039.094.067s.047.062.061.099.019.075.018.114a.29.29 0 0 1-.028.112.3.3 0 0 1-.131.118c-.055.025-.116.033-.176.023z" fill="#eb795b" class="B"/><path d="M449.325 332.387c-.721-.077-.998-2.878.754-2.691.934.103.423 2.819-.754 2.691zm9.353 1.174c-.72-.081-.993-2.879.755-2.691.934.102.422 2.819-.755 2.691z" class="B H"/><path d="M456.881 341.194c.891.964-5.075 1.032-6.111.086-.115-.103-.473-.649-.35-.811s.819.128 1.007.175c1.78.457 3.618.642 5.454.55z" class="B C"/></g></g><defs><clipPath id="B"><path d="M0 0h816v644H0z" class="C"/></clipPath></defs></svg>