<svg xmlns="http://www.w3.org/2000/svg" xmlns:xlink="http://www.w3.org/1999/xlink" width="155" height="164" fill="none" xmlns:v="https://vecta.io/nano"><style><![CDATA[.B{fill:#000}.C{fill:#263238}.D{fill:#2196f3}.E{opacity:.2}.F{fill:#fff}.G{fill:#e0e0e0}.H{fill:#e9b376}.I{stroke-linecap:round}.J{stroke-linejoin:round}.K{fill:#f5f5f5}.L{fill:#ebebeb}.M{stroke-width:.36}.N{stroke:#000}.O{fill:#f0f0f0}.P{fill:#e6e6e6}.Q{stroke:#e0e0e0}.R{fill:#c5c5c5}]]></style><g clip-path="url(#A)"><path d="M0 0h155v164H0z" class="F"/><g class="G"><path d="M150.253 115.317H80.118a2.28 2.28 0 0 1-2.274-2.273V10.885a2.28 2.28 0 0 1 .667-1.607c.426-.427 1.004-.666 1.607-.667h70.135a2.28 2.28 0 0 1 2.273 2.274v102.159a2.28 2.28 0 0 1-2.273 2.273zM80.118 8.708a2.18 2.18 0 0 0-2.177 2.177v102.159a2.18 2.18 0 0 0 .639 1.537c.408.409.961.638 1.538.639h70.135a2.17 2.17 0 0 0 2.176-2.176V10.885c0-.577-.229-1.131-.638-1.539s-.961-.638-1.538-.638H80.118zM69.374 115.317H-.757a2.28 2.28 0 0 1-2.278-2.273V10.885A2.28 2.28 0 0 1-.757 8.611h70.131c.603 0 1.181.24 1.608.666a2.27 2.27 0 0 1 .666 1.608v102.159a2.27 2.27 0 0 1-.666 1.607c-.426.426-1.005.666-1.608.666zM-.757 8.708a2.18 2.18 0 0 0-2.181 2.177v102.159a2.18 2.18 0 0 0 .634 1.551 2.16 2.16 0 0 0 .709.477 2.17 2.17 0 0 0 .838.167h70.131c.286 0 .569-.056.833-.165a2.19 2.19 0 0 0 1.178-1.178c.11-.264.166-.547.166-.833V10.885c0-.286-.056-.569-.166-.833a2.19 2.19 0 0 0-.472-.706 2.18 2.18 0 0 0-.706-.472c-.264-.109-.547-.166-.833-.166H-.757zm172.768 130.306H-22v.097h194.011v-.097zM4.282 144.547H-1.95v.097h6.232v-.097zm60.587-1.051H44.098v.097h20.771v-.097zm-46.135 4.655H4.668v.097h14.066v-.097zm122.833-4.706h-16.758v.097h16.758v-.097zm5.913 0h-2.457v.097h2.457v-.097zm-25.875 2.417h-20.91v.097h20.91v-.097z"/></g><g class="K"><path d="M18.353 56.652a7.96 7.96 0 0 0-1.137 2.751l-1.552.144v2.976l1.552.147c.204.98.59 1.913 1.137 2.751l-.982 1.164 2.103 2.107 1.187-.982a7.88 7.88 0 0 0 2.751 1.133l.144 1.552h2.976l.144-1.552a7.93 7.93 0 0 0 2.755-1.133l1.183.982 2.103-2.107-.978-1.164a7.93 7.93 0 0 0 1.133-2.751l1.552-.147v-2.976l-1.552-.144c-.2-.981-.584-1.914-1.133-2.751l.978-1.187-2.103-2.103-1.183.982a8.01 8.01 0 0 0-2.755-1.137l-.144-1.552h-2.976l-.144 1.552a7.96 7.96 0 0 0-2.751 1.137l-1.176-.982-2.103 2.103.97 1.187zm9.541 1.552a4.03 4.03 0 0 1 .873 4.389c-.305.736-.821 1.365-1.483 1.808s-1.441.679-2.238.679-1.575-.236-2.238-.679a4.03 4.03 0 0 1-.611-6.197 4.03 4.03 0 0 1 5.696-.016v.016zm77.064 64.043c-.547.839-.932 1.772-1.136 2.752l-1.552.147v2.976l1.552.144c.203.98.588 1.914 1.136 2.751l-.982 1.188 2.104 2.103 1.187-.982c.837.548 1.771.933 2.752 1.137l.143 1.552h2.976l.148-1.552c.979-.204 1.913-.59 2.751-1.137l1.183.982 2.107-2.103-.982-1.188c.549-.837.933-1.771 1.134-2.751l1.551-.144v-2.976l-1.551-.147c-.202-.98-.586-1.913-1.134-2.752l.982-1.182-2.107-2.107-1.183.981a7.92 7.92 0 0 0-2.751-1.132l-.148-1.553h-2.976l-.143 1.553a7.87 7.87 0 0 0-2.752 1.132l-1.187-.981-2.104 2.102.982 1.187zm9.542 1.553a4.02 4.02 0 0 1 1.102 2.062 4.03 4.03 0 0 1-.229 2.327c-.305.736-.821 1.365-1.483 1.807a4.02 4.02 0 0 1-4.476 0c-.662-.442-1.178-1.071-1.483-1.807a4.03 4.03 0 0 1-.229-2.327 4.02 4.02 0 0 1 1.102-2.062c.372-.377.815-.676 1.303-.879s1.011-.312 1.54-.314a4 4 0 0 1 1.543.301 4.03 4.03 0 0 1 1.31.868v.024zM3.107 82.145c-.437.667-.744 1.411-.904 2.192l-1.226.116v2.371l1.226.116a6.33 6.33 0 0 0 .904 2.196l-.776.943 1.68 1.68.943-.776a6.3 6.3 0 0 0 2.196.904l.113 1.226h2.375l.116-1.226c.781-.16 1.525-.467 2.192-.904l.947.776 1.676-1.68-.776-.943a6.33 6.33 0 0 0 .904-2.196l1.226-.116v-2.371l-1.226-.116c-.16-.781-.467-1.525-.904-2.192l.776-.947-1.692-1.672-.947.776a6.32 6.32 0 0 0-2.192-.904l-.116-1.226H7.255l-.113 1.226a6.3 6.3 0 0 0-2.196.904l-.943-.776-1.68 1.676.784.943zm7.609 1.222a3.21 3.21 0 0 1-2.272 5.484 3.21 3.21 0 0 1-1.785-.541c-.528-.353-.94-.855-1.183-1.442s-.307-1.233-.183-1.856a3.21 3.21 0 0 1 .879-1.645c.603-.602 1.42-.939 2.272-.939a3.22 3.22 0 0 1 2.272.939z"/></g><path d="M93.742 91.004a12.42 12.42 0 0 0-1.774 4.295l-2.397.225v4.656l2.397.225a12.46 12.46 0 0 0 1.774 4.295l-1.553 1.851 3.303 3.256 1.85-1.533a12.41 12.41 0 0 0 4.292 1.774l.229 2.397h4.656l.225-2.397a12.44 12.44 0 0 0 4.295-1.774l1.847 1.533 3.287-3.283-1.532-1.851c.854-1.307 1.456-2.765 1.772-4.295l2.395-.225v-4.656l-2.395-.229c-.317-1.529-.918-2.985-1.772-4.291l1.532-1.851-3.287-3.283-1.847 1.533a12.44 12.44 0 0 0-4.295-1.773l-.225-2.398h-4.656l-.229 2.398a12.42 12.42 0 0 0-4.292 1.773l-1.85-1.533-3.283 3.283 1.533 1.878zm14.885 2.398c.88.879 1.479 1.999 1.722 3.218s.118 2.484-.356 3.632a6.29 6.29 0 0 1-2.316 2.822 6.28 6.28 0 0 1-3.492 1.06 6.29 6.29 0 0 1-3.494-1.06 6.28 6.28 0 0 1-2.314-2.822c-.476-1.148-.6-2.413-.357-3.632s.843-2.34 1.722-3.218a6.27 6.27 0 0 1 4.444-1.842c.825 0 1.642.163 2.403.479s1.456.78 2.039 1.364z" class="L"/><path d="M25.427 29.212c5.212-2.065 7.764-7.963 5.699-13.175s-7.963-7.763-13.176-5.699-7.763 7.964-5.699 13.176 7.964 7.764 13.176 5.699z" class="G"/><path d="M27.7 26.88c4.148-3.756 4.467-10.164.71-14.312s-10.164-4.467-14.312-.711-4.467 10.164-.711 14.313 10.164 4.467 14.312.71z" class="O"/><path d="M27.223 25.144c3.139-3.44 2.895-8.773-.545-11.912s-8.773-2.895-11.912.545-2.895 8.773.545 11.912 8.773 2.895 11.912-.545z" class="F"/><path d="M19.474 26.522l.419-1.94.116.023-.388 1.967-.147-.05zm-2.976-1.412l-.128-.101 1.288-1.552.089.074-1.249 1.579zm6.43 1.315l-.535-1.94.116-.035.574 1.917-.155.058zm-8.536-4.051l-.066-.155 1.851-.776.047.113-1.832.819zm11.551 2.355l-1.37-1.459.085-.081 1.428 1.405-.039.039c-.035.023-.074.062-.116.097h.012zm-12.145-5.758v-.167l1.994.182v.116l-1.994-.132zm12.145 2.185l.035-.105 1.909.602-.054.167-1.89-.663zm-9.39-4.427l-1.711-1.032.085-.136 1.684 1.083-.058.085zm9.611 1.94v-.12l1.971-.341c0 .054.019.109.027.163l-1.998.299zm-7.853-3.694l-1.009-1.723.14-.082.989 1.75-.12.054zm6.868 1.393l-.07-.093 1.583-1.23.101.136-1.614 1.187zm-4.462-2.119l-.109-1.998h.171l.05 2.002-.113-.004zm2.561.52l-.109-.054.834-1.82.151.074-.877 1.8z" class="P"/><path d="M17.852 17.345l3.193 2.382 1.843-4.152" class="I J M Q"/><g class="G"><path d="M21.617 19.735a.63.63 0 0 1-.561.424c-.125.007-.249-.023-.357-.086a.63.63 0 0 1-.151-.967c.084-.093.193-.16.314-.191a.63.63 0 0 1 .727.338.63.63 0 0 1 .028.482zm128.929 99.181c3.668-2.174 4.88-6.91 2.706-10.579s-6.911-4.88-10.579-2.706-4.88 6.911-2.706 10.579 6.91 4.88 10.579 2.706z"/></g><path d="M151.728 117.317c2.906-3.122 2.731-8.007-.39-10.913s-8.007-2.731-10.913.39-2.731 8.008.391 10.913a7.72 7.72 0 0 0 10.912-.39z" class="O"/><path d="M151.885 114.777c1.506-3.206.127-7.026-3.079-8.532a6.42 6.42 0 0 0-8.533 3.08 6.42 6.42 0 0 0 3.081 8.533c3.206 1.505 7.026.126 8.531-3.081z" class="F"/><path d="M144.912 117.409l.322-1.49.089.02-.283 1.493-.128-.023zm-2.262-1.075l-.101-.081.982-1.165.07.054-.951 1.192zm4.893.998l-.412-1.468.094-.022.434 1.458-.116.032zm-6.499-3.082l-.047-.116 1.404-.582.039.085-1.396.613zm8.788 1.793l-1.043-1.11.065-.061 1.087 1.07-.027.027-.082.074zm-9.25-4.381v-.124l1.517.136a.66.66 0 0 1 0 .089l-1.517-.101zm9.239 1.664c.007-.027.016-.055.027-.08l1.451.457c0 .043-.027.085-.043.124l-1.435-.501zm-7.144-3.367l-1.292-.804.062-.1 1.284.822-.054.082zm7.31 1.478v-.093l1.502-.26v.125l-1.502.228zm-5.94-2.794l-.776-1.311.104-.058.757 1.319-.085.05zm5.227 1.059l-.055-.073 1.203-.931.078.101-1.226.903zm-3.412-1.61l-.081-1.521h.132l.039 1.525-.09-.004zm1.941.388l-.082-.038.637-1.386.112.055-.667 1.369z" class="P"/><path d="M143.684 110.429l2.428 1.812 1.402-3.159" class="I J M Q"/><g class="G"><path d="M146.549 112.244c-.016.065-.046.125-.087.178a.46.46 0 0 1-.153.127.45.45 0 0 1-.189.056c-.067.006-.134-.004-.197-.025s-.121-.058-.169-.104a.48.48 0 0 1-.109-.55c.049-.109.139-.197.249-.243a.48.48 0 0 1 .349-.011c.113.04.207.121.264.227a.48.48 0 0 1 .042.345zm.774-59.116a10.34 10.34 0 0 0-3.872-14.096 10.34 10.34 0 0 0-14.097 3.872A10.34 10.34 0 0 0 133.227 57a10.34 10.34 0 0 0 14.096-3.872z"/></g><path d="M147.945 48.295a10.34 10.34 0 0 0-9.715-10.923 10.34 10.34 0 0 0-10.923 9.715 10.34 10.34 0 0 0 9.715 10.923 10.34 10.34 0 0 0 10.923-9.715z" class="O"/><path d="M138.922 56.176a8.59 8.59 0 0 0 7.18-9.793c-.72-4.687-5.105-7.902-9.792-7.181a8.59 8.59 0 0 0-7.182 9.793 8.59 8.59 0 0 0 9.794 7.181z" class="F"/><path d="M136.059 54.879l.43-1.994.117.023-.388 2.006-.159-.035zm-3.031-1.439l-.132-.109 1.312-1.552c.029.028.061.054.093.078l-1.273 1.583zm6.55 1.339l-.551-1.963.124-.035.583 1.94-.156.058zm-8.699-4.125l-.066-.155 1.886-.776.046.112-1.866.819zm11.769 2.402l-1.397-1.486.089-.085 1.451 1.432-.038.035-.105.105zm-12.375-5.867v-.171l2.03.182v.12l-2.03-.132zm12.371 2.223a.83.83 0 0 0 .038-.109l1.94.617-.058.167-1.92-.675zm-9.561-4.509l-1.735-1.059.085-.14 1.72 1.102-.07.097zm9.786 1.979v-.12l2.01-.349c0 .054.019.109.027.167l-2.037.303zm-7.97-3.768l-1.045-1.75.145-.085 1.009 1.773-.109.062zm6.984 1.42l-.07-.097 1.611-1.249.104.14-1.645 1.207zm-4.563-2.157l-.109-2.037h.175l.051 2.037h-.117zm2.611.528l-.112-.05.85-1.855.154.074-.892 1.831z" class="P"/><path d="M134.418 45.532l3.252 2.429 1.877-4.233" class="I J M Q"/><path d="M138.251 47.964a.64.64 0 0 1-.571.424.64.64 0 0 1-.36-.09c-.109-.065-.196-.161-.25-.275s-.074-.242-.055-.367.074-.242.158-.336.197-.16.318-.191.253-.025.372.018c.159.058.29.176.362.33s.082.329.026.489z" class="G"/><path d="M155 161c0 1.106-34.699 2-77.5 2S0 162.11 0 161s34.698-2 77.5-2 77.5.895 77.5 2z" class="K"/><use xlink:href="#B" class="D"/><use xlink:href="#B" opacity=".3" class="B"/><path d="M139.382 152.703c5.191-1.263 8.375-6.496 7.111-11.687s-6.496-8.375-11.687-7.111-8.375 6.496-7.111 11.687 6.496 8.375 11.687 7.111z" class="D"/><path d="M137.097 151.338a8.04 8.04 0 0 0 8.036-8.036c0-4.439-3.597-8.036-8.036-8.036s-8.035 3.597-8.035 8.036a8.04 8.04 0 0 0 8.035 8.036z" class="F"/><path d="M137.374 150.181l-.077-1.908h.112l.124 1.904-.159.004zm-3.104-.593l-.148-.07.822-1.719.106.046-.78 1.743zm6.247-.323l-.955-1.653.102-.058.989 1.634-.136.077zm-8.847-1.699l-.097-.128 1.525-1.164.069.089-1.497 1.203zm11.225-.582l-1.614-1.02.058-.097 1.653.958-.027.043-.07.116zm-12.584-2.418c0-.054-.018-.104-.03-.158l1.886-.307.019.108-1.875.357zm11.726-.88a.66.66 0 0 0 0-.109l1.906.105a1.11 1.11 0 0 1 0 .163l-1.906-.159zm-9.719-1.847l-1.82-.567.047-.143 1.812.598-.039.112zm9.332-.496l-.046-.109 1.741-.776.063.143-1.758.742zm-8.106-1.553l-1.354-1.342.109-.109 1.33 1.366-.085.085zm6.674-.353l-.085-.07 1.164-1.509.128.101-1.207 1.478zm-4.656-.885l-.574-1.82.158-.046.52 1.835-.104.031zm2.487-.131l-.108-.024.333-1.878.155.031-.38 1.871z" class="B"/><path d="M133.695 142.095l3.516 1.439.709-4.272" class="I J M N"/><path d="M137.736 143.403a.61.61 0 0 1-.128.325.62.62 0 0 1-.288.198c-.113.037-.235.038-.35.005s-.215-.099-.293-.189-.124-.203-.138-.322a.61.61 0 0 1 .063-.343.6.6 0 0 1 .587-.323c.158.015.304.091.406.213a.6.6 0 0 1 .141.436z" class="B"/><g class="D"><path d="M151.652 157.996h-21.617v2.444h21.617v-2.444zm-.867-4.939h-21.617v2.445h21.617v-2.445z"/><path d="M152.851 155.532h-21.617v2.463h21.617v-2.463z"/></g><path d="M152.851 155.532h-21.617v2.463h21.617v-2.463z" class="B E"/><path d="M91.347 160.452l-1.618-20.825-13.682 11.989 4.373 8.836h10.927z" class="D"/><path d="M91.347 160.452l-1.618-20.825-13.682 11.989 4.373 8.836h10.927z" class="B E"/><path d="M21.123 88.632s-6.779-11.641-4.656-13.193 8.564-2.076 16.235 3.178c-1.097 2.403-2.699 4.542-4.697 6.27a18.38 18.38 0 0 1-6.881 3.745z" class="D"/><path d="M21.778 87.919s-3.834-8.187-2.642-8.897 5.603.648 9.926 4.893c-2.103 4.749-7.283 4.004-7.283 4.004z" class="B E"/><g class="D"><path d="M100.057 114.051c.872.844 1.93 1.471 3.089 1.828a7.7 7.7 0 0 0 3.581.231c1.195-.206 2.325-.692 3.297-1.417s1.76-1.669 2.298-2.757c.734-1.47 1.164-3.344.563-4.935-.663-1.788-2.526-2.875-4.365-2.087-1.572.671-2.608 2.328-3.104 3.915a6.73 6.73 0 0 0 .278 4.887 6.72 6.72 0 0 0 3.52 3.4 5.75 5.75 0 0 0 2.63.377 5.77 5.77 0 0 0 4.392-2.729c.469-.766.753-1.63.828-2.524 0-.309-.123-.606-.341-.824s-.514-.341-.823-.341c-.307.007-.6.131-.817.348a1.19 1.19 0 0 0-.347.817c-.129 1.901-2.251 3.337-4.101 2.898-1.026-.257-1.921-.886-2.509-1.766a4.26 4.26 0 0 1-.677-2.991c.129-1.091.61-2.112 1.37-2.906.686-.672 1.435-.718 1.831.205s.073 2.212-.318 3.019c-.432.921-1.102 1.71-1.94 2.285-1.023.665-2.237.968-3.452.863s-2.36-.612-3.253-1.44c-1.094-1.025-2.744.62-1.645 1.644h.015z"/><path d="M55.993 70.827c25.768 0 46.66 19.215 46.66 42.927s-20.887 42.93-46.659 42.93-43.621-19.218-43.621-42.93 17.853-42.927 43.621-42.927z"/></g><g class="B"><path d="M95.995 91.636s-2.999 9.266-2.436 14.159c.822 7.159 4.869 25.837 4.869 25.837 2.208-3.417 3.525-7.331 3.834-11.388.388-6.491-4.358-25.896-4.358-25.896l-1.909-2.712z" class="E"/><path opacity=".1" d="M59.969 156.52l4.109-.476-1.878-3.907-2.231 4.383z"/></g><g class="D"><path d="M79.038 161.27l-2.196-15.928-17.17 6.274 5.37 9.654h13.996zm-51.784 0l1.082-15.928 16.347 6.274-4.652 9.654H27.254zm56.6-74.441s6.682-13.499 4.113-14.745-10.015-.718-18.33 6.169c5.095 8.04 14.217 8.575 14.217 8.575z"/></g><g class="B"><path d="M83.035 86.173s3.648-9.312 2.208-9.863-6.356 1.641-10.927 6.895c2.848 4.66 8.719 2.968 8.719 2.968z" class="E"/><path opacity=".4" d="M64.247 72.743c-2.895-.555-6.732-1.199-11.714-.388-5.184.512-6.713 2.192-6.713 2.192h7.023c2.689-1.832 11.404-1.804 11.404-1.804z"/></g><g class="C"><path d="M25.952 105.927c-.194 2.456.916 4.656 2.476 4.869s2.984-1.571 3.178-4.027-.912-4.637-2.472-4.87-2.984 1.579-3.182 4.028zm-.666-4.866a.63.63 0 0 0 .272-.025.64.64 0 0 0 .236-.137 5.16 5.16 0 0 1 2.19-1.251 5.17 5.17 0 0 1 2.521-.065.65.65 0 0 0 .715-.232c.053-.072.091-.154.111-.241a.77.77 0 0 0-.096-.539.78.78 0 0 0-.428-.342c-1.049-.259-2.147-.249-3.192.029s-2.002.815-2.784 1.561c-.13.133-.203.312-.203.498s.073.366.203.499a.73.73 0 0 0 .454.244zm36.05 5.677c.194 2.461-.912 4.656-2.476 4.873s-2.984-1.551-3.178-4.027.916-4.656 2.476-4.874 2.984 1.572 3.178 4.028zm.672-4.874a.63.63 0 0 1-.272-.025c-.088-.028-.168-.075-.236-.138a5.16 5.16 0 0 0-2.199-1.256c-.826-.23-1.696-.25-2.531-.059a.64.64 0 0 1-.264.025.63.63 0 0 1-.449-.26c-.052-.072-.09-.155-.109-.242a.77.77 0 0 1 .096-.539c.097-.162.249-.283.428-.342a6.44 6.44 0 0 1 5.976 1.594c.13.134.203.313.203.499s-.073.365-.203.499c-.113.13-.268.217-.438.244z"/></g><use xlink:href="#C" class="B E"/><path d="M41.467 108.441c7.504 0 13.581 5.595 13.581 12.506s-6.08 12.503-13.581 12.503-13.616-5.596-13.616-12.503 6.111-12.506 13.616-12.506z" class="D"/><g class="B"><path d="M45.124 123.893c1.08 0 1.956-1.632 1.956-3.644s-.876-3.644-1.956-3.644-1.956 1.632-1.956 3.644.876 3.644 1.956 3.644zm-6.494-3.647c0 2.013-.877 3.643-1.94 3.643s-1.94-1.63-1.94-3.643.877-3.641 1.94-3.641 1.94 1.631 1.94 3.641z" class="E"/></g><path d="M41.47 133.45c-7.023.244-13.837-5.219-13.81-12.503s6.787-12.75 13.81-12.506c-5.106.094-10.151 2.95-12.335 7.617-3.981 8.665 3.38 17.307 12.335 17.392z" class="C"/><path d="M28.197 147.406s5.145 5.173 14.877 7.555l-1.284 2.666-13.922-5.405.33-4.816z" class="B E"/><path d="M62.493 125.46c3.162-1.428 4.842-5.413 3.682-8.68-.248-.699-1.374-.389-1.121.31.469 1.401.407 2.927-.174 4.285s-1.64 2.458-2.977 3.087c-.132.08-.228.208-.267.357s-.019.309.057.443c.081.13.209.225.358.264a.6.6 0 0 0 .441-.055v-.011z" class="C"/><g class="D"><path d="M18.586 88.256l-.388-.295a43.62 43.62 0 0 0-4.214 6.713l.435.221a43.92 43.92 0 0 1 4.167-6.639zM13.34 97.17l-.45-.198-1.222 3.162.477.159 1.195-3.123z"/></g><path d="M109.215 127.004l.276 9.013-2.977.218-2.444-8.641 5.145-.59z" class="H"/><path d="M109.926 140.419l-2.572-.02c-.254-.142-.536-.226-.827-.245-.303.035-1.365.229-1.365.229l-6.838-.049c.052-.264.12-.523.206-.777.083-.247.194-.484.33-.706.167-.288.406-.526.693-.696a1.94 1.94 0 0 1 .944-.266c.955-.054 3.986-2.042 3.986-2.042l1.284-.775c-.039-.435-.105-1.005.357-1.165.589-.221 1.102-.337 1.369.311l.287.776.68-.1s1.327-.885 1.249-.168c-.043.411.613 2.278.446 3.722l-.108.938-.121 1.033z" class="C"/><g class="E F"><path d="M98.336 140.332l6.837.051 1.366-.229c.29.019.572.103.827.245l2.572.02.12-1.048-11.516.193a5.96 5.96 0 0 0-.206.768z"/></g><g class="D"><path d="M102.991 136.581c.016-.014.037-.021.058-.021s.042.007.058.021c.17.12.304.284.389.473.049.104-.102.206-.152.101a1.04 1.04 0 0 0-.357-.42c-.01-.008-.019-.019-.025-.031a.09.09 0 0 1-.009-.04c0-.014.003-.027.009-.04s.015-.023.025-.032l.004-.011zm.542-.307c.019-.013.039-.02.061-.02s.043.007.06.02c.169.122.302.285.389.474.049.108-.105.205-.156.1-.077-.169-.199-.314-.354-.418-.009-.009-.018-.021-.024-.033a.09.09 0 0 1-.009-.04c0-.014.003-.026.009-.039s.015-.023.024-.032v-.012zm.575-.295c.016-.013.037-.021.058-.021s.041.008.059.021c.167.121.301.284.387.473.051.109-.1.206-.151.102-.08-.17-.203-.314-.357-.42-.011-.009-.019-.02-.025-.032s-.009-.026-.009-.039.004-.028.009-.04.014-.024.025-.033l.004-.011z"/></g><path d="M118.344 127.066l1.258 9.204 2.995.151.974-8.87-5.227-.485z" class="H"/><path d="M125.152 140.538h-6.689c-.103-.335-.095-.696.019-1.028.028-.131.064-.26.105-.387l.213-.758.667-2.591s1.118-2.39 2.421-1.794c1.145.525.874 2.022.874 2.022a2.94 2.94 0 0 0 .981 1.653c.539.477 1.056.866 1.316 1.448a1.73 1.73 0 0 1 .112.356v.051c.054.341.048.689-.019 1.028z" class="C"/><g class="E F"><path d="M118.462 139.51a1.67 1.67 0 0 0-.019 1.028h6.708a2.89 2.89 0 0 0 .027-1.028h-6.716z"/></g><g class="D"><path d="M122.481 136.379c-.175-.142-.397-.212-.622-.199s-.436.111-.592.272c-.019.018-.044.029-.07.029s-.052-.011-.07-.029-.029-.043-.029-.07.01-.051.029-.069a1.11 1.11 0 0 1 1.494-.075c.1.078-.043.218-.14.141zm.184.624a.9.9 0 0 0-.62-.197c-.225.015-.435.112-.59.275-.019.018-.045.029-.071.029s-.051-.011-.07-.029-.029-.044-.029-.07.011-.051.029-.07c.194-.198.456-.315.733-.329s.548.075.762.252c.097.077-.044.217-.144.139zm.19.579c-.174-.141-.396-.211-.619-.197s-.435.11-.591.271c-.018.018-.043.029-.07.029s-.051-.011-.069-.029-.029-.043-.029-.069.009-.052.029-.07c.194-.197.455-.313.732-.327a1.11 1.11 0 0 1 .761.252c.097.078-.042.218-.144.14z"/></g><path d="M124.838 68.704l-14.042.12-8.812-.268-4.435 32.469c-.528 5.025 6.317 32.451 6.317 32.451h7.372s-4.093-27.744-3.531-30.464c.489-2.371 3.62-18.322 5.002-22.183l.43 2.375 1.96 19.142s1.059 24.135 2.289 31.146h6.449c.854-9.949 1.401-44.902 1.401-44.902.485-7.59-.4-19.886-.4-19.886z" class="C"/><g opacity=".5" class="B"><path d="M106.617 72.557a8.53 8.53 0 0 1-2.151 3.534c-.995.984-2.219 1.708-3.56 2.108-.144.043-.082.272.061.229 1.384-.412 2.643-1.158 3.668-2.174a8.76 8.76 0 0 0 2.207-3.647c.005-.015.006-.03.005-.046s-.007-.03-.014-.044a.13.13 0 0 0-.03-.035c-.011-.01-.025-.017-.041-.021s-.03-.006-.045-.004-.03.006-.043.014-.026.017-.036.029-.017.026-.021.041v.016zm6.337 0l-.474 7.07c0 .151-.243.151-.236 0l.241-3.632c-.579.45-1.257-.093-1.447-.695a5.88 5.88 0 0 1 .046-3.104c.012-.026.033-.047.058-.059s.055-.015.082-.007.052.024.068.048.024.052.021.08a6.59 6.59 0 0 0-.194 2.084 2.84 2.84 0 0 0 .225 1.094c.186.365.656.675 1.032.341a.12.12 0 0 1 .062-.018c.022 0 .043.006.062.018l.218-3.209c.007-.175.244-.175.236-.012zm6.925.388a5.94 5.94 0 0 0 1.559 4.069c1.017 1.11 2.416 1.793 3.916 1.911.151 0 .148-.221 0-.233-1.438-.118-2.78-.776-3.753-1.842a5.71 5.71 0 0 1-1.493-3.905c-.005-.027-.019-.051-.04-.068s-.047-.027-.074-.027-.054.01-.075.027-.035.041-.04.068z"/></g><path d="M109.855 31.427s-.819-2.262-.306-6.596l-.238-.07.245-1.657-5.06 4.404c.354 1.3.303 3.931.202 5.044 0 0-.387 2.072 2.224 1.723 1.897-.24 2.933-2.848 2.933-2.848z" class="H"/><path d="M104.699 29.382l3.128-1.277c-.125 1.059-.823 2.41-3.07 2.883a10.14 10.14 0 0 0-.058-1.606z" class="B E"/><path d="M109.152 20.321c.217 3.644.411 5.696-1.196 7.76-2.421 3.104-6.984 2.014-8.291-1.505-1.164-3.166-1.327-8.595 2.052-10.434.75-.405 1.588-.613 2.439-.606s1.688.23 2.43.647a5.05 5.05 0 0 1 1.815 1.739c.449.723.707 1.549.751 2.399z" class="H"/><path d="M108.104 15.13c-1.553-2.076-4.769-.578-6.041.609-.191.178 2.949 1.307 2.762 1.261l.955.912c.132-.047.314 1.215.469 2.305a5.55 5.55 0 0 0 1.187 2.716c.617.777 1.314 1.487 2.08 2.119 1.192-.776.997-2.98 1.238-4.338.357-1.994.574-5.813-2.65-5.584z" class="C"/><path d="M110.936 23.166c-.084.445-.258.869-.508 1.247s-.573.702-.951.953c-1.016.667-1.551-.466-1.599-1.618-.03-1.036.117-2.328 1.289-2.526s1.971.838 1.769 1.944z" class="H"/><g class="C"><path d="M104.108 21.994c.047.388-.116.691-.357.718s-.478-.252-.524-.621.116-.694.361-.722.453.252.52.625zm-3.646.509c.047.369-.116.691-.357.718s-.478-.252-.52-.621.112-.695.357-.722.477.256.52.625z"/></g><path d="M101.621 22.157l-1.234 2.778c.574.388 1.436.078 1.436.078l-.202-2.856z" fill="#d58745"/><path d="M104.783 20.139c-.028.014-.058.022-.089.022s-.062-.007-.09-.022a1.39 1.39 0 0 0-.612-.216 1.4 1.4 0 0 0-.645.084c-.042.02-.09.023-.134.008s-.081-.047-.102-.089-.023-.089-.007-.133.047-.079.088-.1c.259-.104.538-.145.816-.119s.545.117.779.267c.019.012.036.028.05.046a.2.2 0 0 1 .03.062c.005.022.005.046.002.068s-.012.044-.024.064-.037.044-.062.058z" class="C"/><g class="I J"><path d="M103.176 26.048c.29-.05.568-.158.817-.318a2.18 2.18 0 0 0 .625-.613" stroke="#263238" stroke-width=".27"/><path d="M109.99 22.266a.66.66 0 0 0-.726-.151c-.242.107-.44.293-.562.528a1.81 1.81 0 0 0-.233.904" stroke-width=".18" class="E N"/></g><g class="C"><path d="M98.675 21.137c-.031-.003-.062-.014-.087-.033s-.045-.044-.057-.073a.17.17 0 0 1-.013-.092c.004-.031.017-.061.037-.085.167-.22.385-.397.636-.515s.524-.173.801-.161c.023.002.045.008.066.019s.038.025.052.043.026.038.032.06.008.045.005.068a.15.15 0 0 1-.018.065c-.01.02-.024.038-.041.053a.17.17 0 0 1-.059.032c-.021.007-.046.008-.068.006a1.34 1.34 0 0 0-1.133.547c-.017.023-.04.042-.067.053a.16.16 0 0 1-.084.012zm9.428-6.007a6.18 6.18 0 0 0-2.657-1.949 6.17 6.17 0 0 0-3.281-.305c-3.146.512-4.92 2.666-5.129 4.827a4.37 4.37 0 0 0 .275 2.138.45.45 0 0 0 .838-.024c.042-.11.091-.217.144-.322l.036.078a.44.44 0 0 0 .199.201.45.45 0 0 0 .651-.344 2.21 2.21 0 0 1 .078-.411c.043.076.108.137.186.177a.45.45 0 0 0 .252.045c.087-.01.169-.045.236-.101a.44.44 0 0 0 .14-.214 3.25 3.25 0 0 1 .692-1.154 3.24 3.24 0 0 1 1.1-.774c.417-.178.867-.267 1.32-.26a3.25 3.25 0 0 1 1.312.298l1.285.889c1.594-.792 2.324-2.794 2.324-2.794z"/></g><path d="M78.215 55.927c.132.105 15.956-.625 15.956-.625l1.478-11.299s6.697 2.514 6.569 2.65.019 8.773-1.618 13.263c-1.37 3.76-13.969 2.278-21.116.543l-1.269-4.532z" fill="#d58745"/><use xlink:href="#D" class="C"/><use xlink:href="#D" opacity=".5" class="F"/><use xlink:href="#E" class="C"/><path d="M98.712 50.983l-.792-9.844-.725 11.063 1.665.171-.148-1.389z" class="B E"/><use xlink:href="#E" opacity=".5" class="F"/><use xlink:href="#F" class="C"/><use xlink:href="#F" opacity=".7" class="F"/><path d="M95.641 61.373a10.35 10.35 0 0 0-14.913-14.351 10.35 10.35 0 0 0 14.913 14.351z" class="D"/><path opacity=".3" d="M95.641 61.373a10.35 10.35 0 0 0-14.913-14.351 10.35 10.35 0 0 0 14.913 14.351z" class="B"/><path d="M97.798 54.003a10.35 10.35 0 0 0-10.291-10.406 10.35 10.35 0 0 0-10.406 10.291 10.35 10.35 0 0 0 10.29 10.406 10.35 10.35 0 0 0 10.406-10.29z" class="D"/><path d="M90.86 61.845a8.6 8.6 0 0 0 4.482-11.304 8.6 8.6 0 0 0-11.304-4.482 8.6 8.6 0 0 0-4.482 11.304 8.6 8.6 0 0 0 11.304 4.482z" class="F"/><path d="M86.434 61.238l.279-2.022h.12l-.229 2.029-.17-.008zm-3.136-1.211l-.14-.097 1.191-1.657.101.07-1.153 1.684zm6.639.85l-.691-1.94.121-.043.725 1.905-.155.078zm-8.99-3.492l-.078-.151 1.824-.916.058.108-1.804.958zm11.928 1.525l-1.506-1.381.082-.093 1.551 1.323-.034.039-.093.112zM80.07 53.97V53.8l2.041.031v.12l-2.041.019zm12.517 1.304c0-.035 0-.074.028-.112l1.986.469c0 .058-.027.116-.043.171l-1.971-.528zm-9.882-3.795l-1.812-.939.078-.148 1.796.974-.062.112zm9.933 1.288l-.027-.12 1.979-.497c0 .054.027.109.039.163l-1.991.454zm-8.237-3.17l-1.164-1.672.136-.093 1.141 1.692-.112.074zm7.093.896l-.081-.089 1.517-1.37.112.132-1.548 1.327zm-4.718-1.816l-.26-2.021.175-.023.202 2.033-.117.011zm2.647.334l-.117-.043.714-1.913.155.062-.753 1.894z" class="B"/><path d="M84.102 52.03l3.395 2.262 1.56-4.361" class="I J M N"/><g class="B"><path d="M88.105 54.172c-.031.123-.099.234-.193.319s-.213.139-.339.157a.64.64 0 0 1-.368-.058c-.114-.055-.209-.143-.274-.253s-.094-.236-.086-.363.053-.248.13-.349.182-.177.303-.218a.64.64 0 0 1 .372-.012c.162.044.301.15.386.295s.109.318.068.481z"/><path opacity=".3" d="M79.859 51.503a8.6 8.6 0 0 1 6.012-5.439 8.6 8.6 0 0 1 4.179.003c1.371.344 2.637 1.021 3.685 1.971a8.59 8.59 0 0 0-2.801-1.992c-1.057-.468-2.2-.718-3.357-.735s-2.306.201-3.377.639-2.043 1.088-2.856 1.911a8.6 8.6 0 0 0-2.482 6.261c.029 1.157.291 2.296.772 3.349s1.168 1.998 2.022 2.779c-1.072-1.153-1.806-2.579-2.123-4.121s-.204-3.142.327-4.625z"/></g><path d="M77.265 55.776s4.245.128 4.792.838-.714.923-.714.923 1.397-.155 1.552.431c.175.698-1.141.923-1.141.923s1.145-.081 1.238.446-1.37.908-1.37.908.819.093.675.501-3.24 1.222-4.295.842-1.94-4.396-1.971-5.316.109-1.552 1.055-1.94l.186 1.436-.008.008z" class="H"/><g class="B"><path d="M81.355 57.603l-2.448.151c-.017 0-.033-.006-.045-.018s-.02-.027-.021-.044.002-.034.012-.048.025-.023.042-.026l2.448-.151c.017 0 .033.006.045.018s.02.027.021.044c.002.008.002.017 0 .026s-.005.016-.011.023-.012.013-.019.017-.016.007-.024.008zm.333 1.373l-2.328.334c-.009.002-.017.002-.026-.001s-.016-.006-.023-.012-.012-.013-.016-.021-.005-.017-.005-.025-.002-.017 0-.025.005-.016.01-.023.011-.013.018-.017.015-.008.023-.009l2.328-.334c.008-.001.017 0 .025.002s.015.007.022.012.011.012.015.02.005.016.005.024c.003.016.001.032-.008.046s-.022.024-.038.027zm-.142 1.347l-1.73.299c-.008.002-.017.002-.025 0a.06.06 0 0 1-.023-.011c-.007-.005-.012-.012-.016-.019s-.006-.016-.006-.024-.004-.017-.003-.026.004-.017.008-.024.01-.014.018-.019.015-.008.024-.009l1.731-.299c.018-.003.035.001.05.011s.025.026.028.043-.001.035-.011.05-.026.025-.043.028z" class="E"/></g><path d="M99.234 55.007s-1.234-1.017-2.55-.877-2.402-.093-3.372.081.175.85.858 1.09 1.451.512 1.187.997-4.268 2.965-4.567 3.678.489.512.489.512-.958.629-.815 1.075c.039.116.318.326.8.108l3.31-1.637c-.133.062-2.775 1.676-3.14 1.967-.477.388-.504.807-.275 1.079.33.388 3.678-1.506 3.88-1.486 0 0-1.963 1.021-1.975 1.672s1.257.074 2.281-.648l3.842-2.476c1.097-.943 1.622-1.82 1.242-3.104-.217-.77-.628-1.47-1.195-2.033z" class="H"/><path opacity=".3" d="M91.391 60.382l2.405-1.346" stroke-width=".09" class="I J N"/><path d="M113.825 45.784l-.361 6.558-14.337 2.53.71 4.959c-5.274.388 16.223-.233 18.897-1.187 2.328-.83 1.726-13.053 1.726-13.053l-6.635.194z" class="H"/><use xlink:href="#G" class="C"/><use xlink:href="#G" opacity=".5" class="F"/><g class="C"><path d="M98.615 142.606h-2.619v17.845h2.619v-17.845zm16.294 0h-2.62v17.845h2.62v-17.845zm11.811 0h-2.618v17.845h2.618v-17.845zm-16.875 0h-2.618v17.845h2.618v-17.845z"/><path d="M127.42 139.697H94.602v3.683h32.818v-3.683z"/></g><path d="M141.403 18.391a10 10 0 0 1-3.471 4.657c-1.592 1.175-3.497 1.85-5.473 1.942a10 10 0 0 1-5.629-1.429c-1.694-1.023-3.046-2.526-3.885-4.317a10 10 0 0 1-.831-5.749c.298-1.957 1.17-3.78 2.504-5.241a10 10 0 0 1 4.995-2.964c1.921-.472 3.939-.363 5.799.313 1.233.446 2.366 1.13 3.335 2.014s1.753 1.951 2.31 3.138.873 2.473.933 3.784a9.99 9.99 0 0 1-.587 3.853z" class="K"/><use xlink:href="#H" class="L"/><path d="M139.253 17.352c-.043-.014.041-.341.126-.929.119-.828.109-1.67-.03-2.495a7.88 7.88 0 0 0-.474-1.634 7.6 7.6 0 0 0-.98-1.694 7.34 7.34 0 0 0-1.542-1.506c-.308-.224-.633-.423-.972-.597a7.75 7.75 0 0 0-1.09-.455c-.373-.119-.756-.21-1.143-.272-.377-.061-.757-.093-1.139-.095-.364-.003-.729.022-1.089.076-.35.047-.695.121-1.032.223-.63.183-1.233.446-1.795.785a7.75 7.75 0 0 0-1.362 1.043c-.6.583-1.107 1.255-1.5 1.994-.273.526-.409.836-.452.817s.019-.346.245-.918c.332-.807.812-1.546 1.413-2.179a7.78 7.78 0 0 1 1.395-1.166c.588-.379 1.225-.677 1.892-.888.361-.115.731-.202 1.106-.259a7.37 7.37 0 0 1 1.185-.095 7.51 7.51 0 0 1 1.217.076c.838.131 1.649.397 2.402.787a7.94 7.94 0 0 1 1.046.654c.623.46 1.174 1.011 1.634 1.634a7.63 7.63 0 0 1 1.454 3.609c.11.868.057 1.75-.155 2.599-.169.594-.327.896-.36.885z" class="G"/><path d="M131.277 19.542l-.436 1.253-1.12-.39.425-1.22c-1.089-.452-2.029-1.166-2.478-1.863l1.089-1.152a4.81 4.81 0 0 0 1.907 1.55l.648-1.869c-1.138-.735-2.383-1.634-1.827-3.231.411-1.188 1.634-1.907 3.467-1.495l.43-1.242 1.119.39-.425 1.22c.786.322 1.485.826 2.037 1.471l-1.037 1.182c-.421-.488-.935-.888-1.512-1.177l-.659 1.907c1.141.722 2.361 1.61 1.814 3.19-.411 1.16-1.612 1.874-3.442 1.477zm.596-5.337l.545-1.591c-.64-.071-.989.172-1.117.545s.133.716.572 1.046zm.991 3.364c.134-.392-.117-.717-.544-1.052l-.545 1.545c.615.071.964-.134 1.089-.493z" class="R"/><path d="M149.403 90.391a10 10 0 0 1-3.471 4.657c-1.592 1.175-3.497 1.85-5.473 1.942a10 10 0 0 1-5.629-1.429c-1.694-1.023-3.046-2.526-3.885-4.317a10 10 0 0 1-.831-5.749c.298-1.957 1.17-3.78 2.504-5.241a10 10 0 0 1 4.995-2.965c1.921-.472 3.939-.363 5.799.313 1.233.446 2.366 1.13 3.335 2.014s1.753 1.951 2.31 3.138.873 2.473.933 3.784a9.99 9.99 0 0 1-.587 3.853z" class="K"/><path d="M147.176 89.579a7.62 7.62 0 0 1-6.821 5.038 7.63 7.63 0 0 1-4.296-1.089c-1.292-.78-2.324-1.927-2.964-3.294a7.64 7.64 0 0 1-.633-4.387 7.63 7.63 0 0 1 1.913-3.998c1.019-1.114 2.346-1.9 3.812-2.259s3.007-.275 4.425.242a7.61 7.61 0 0 1 4.564 9.747z" class="L"/><path d="M147.253 89.352c-.043-.014.041-.341.126-.929.119-.828.109-1.67-.03-2.495a7.88 7.88 0 0 0-.474-1.634 7.6 7.6 0 0 0-.98-1.694c-.437-.575-.957-1.083-1.542-1.506a7.4 7.4 0 0 0-.972-.597 7.75 7.75 0 0 0-1.09-.455 7.88 7.88 0 0 0-1.143-.272c-.377-.061-.757-.093-1.139-.095-.364-.003-.729.022-1.089.076-.35.047-.695.121-1.032.223-.63.183-1.233.446-1.795.784-.491.296-.948.646-1.362 1.043-.6.583-1.107 1.255-1.5 1.994-.273.526-.409.836-.452.817s.019-.346.245-.918c.332-.807.812-1.546 1.413-2.179a7.78 7.78 0 0 1 1.395-1.166c.588-.379 1.225-.677 1.892-.888.361-.115.731-.202 1.106-.259.392-.064.788-.096 1.185-.095a7.51 7.51 0 0 1 1.217.076 7.87 7.87 0 0 1 2.402.787 7.94 7.94 0 0 1 1.046.654c.623.46 1.174 1.011 1.634 1.634a7.63 7.63 0 0 1 1.454 3.609c.11.868.057 1.75-.155 2.599-.169.594-.327.896-.36.885z" class="G"/><path d="M139.277 91.542l-.436 1.253-1.12-.389.425-1.22c-1.089-.452-2.029-1.166-2.478-1.863l1.089-1.152a4.81 4.81 0 0 0 1.907 1.55l.648-1.869c-1.138-.736-2.383-1.634-1.827-3.231.411-1.188 1.634-1.907 3.467-1.495l.43-1.242 1.119.39-.425 1.22c.786.322 1.485.826 2.037 1.471l-1.037 1.182c-.421-.488-.935-.888-1.512-1.177l-.659 1.907c1.141.722 2.361 1.61 1.814 3.19-.411 1.16-1.612 1.874-3.442 1.477zm.596-5.337l.545-1.591c-.64-.071-.989.172-1.117.545s.133.716.572 1.046zm.991 3.364c.134-.392-.117-.717-.544-1.052l-.545 1.545c.615.071.964-.134 1.089-.493z" class="R"/><g class="D"><path d="M23.403 151.391c-.671 1.861-1.879 3.482-3.471 4.657a10 10 0 0 1-5.473 1.941 9.99 9.99 0 0 1-5.629-1.429c-1.694-1.022-3.046-2.525-3.885-4.317a10 10 0 0 1-.831-5.749c.298-1.956 1.17-3.78 2.504-5.241s3.073-2.492 4.994-2.964 3.939-.364 5.799.312c1.233.446 2.366 1.131 3.335 2.015a9.98 9.98 0 0 1 2.31 3.138c.556 1.188.873 2.473.933 3.784a9.99 9.99 0 0 1-.587 3.853z" fill-opacity=".3"/><path d="M21.176 150.579c-.511 1.421-1.431 2.658-2.646 3.555s-2.668 1.413-4.176 1.483a7.61 7.61 0 0 1-4.295-1.089c-1.292-.78-2.324-1.927-2.964-3.294a7.63 7.63 0 0 1-.633-4.387c.228-1.493.894-2.884 1.913-3.998s2.346-1.9 3.812-2.259 3.006-.275 4.424.242a7.61 7.61 0 0 1 4.3 3.928c.856 1.828.951 3.921.264 5.819z" fill-opacity=".3"/><path d="M21.254 150.352c-.043-.014.041-.341.125-.929a8.09 8.09 0 0 0-.03-2.495 7.9 7.9 0 0 0-.474-1.635c-.253-.604-.582-1.174-.98-1.694-.437-.575-.956-1.083-1.541-1.506-.308-.224-.633-.423-.972-.597-.351-.179-.715-.331-1.089-.455s-.756-.21-1.144-.272c-.376-.061-.757-.093-1.139-.096a6.97 6.97 0 0 0-1.089.077c-.349.047-.695.121-1.032.223a7.59 7.59 0 0 0-1.795.785 7.74 7.74 0 0 0-1.362 1.043 8.03 8.03 0 0 0-1.501 1.994c-.272.526-.408.836-.452.817s.019-.346.245-.918c.333-.807.812-1.546 1.413-2.179.418-.442.886-.833 1.394-1.166a7.89 7.89 0 0 1 1.893-.888c.361-.115.731-.202 1.106-.259.392-.063.788-.095 1.185-.095a7.51 7.51 0 0 1 1.218.076c.838.132 1.649.397 2.402.787.365.191.715.409 1.046.654a7.8 7.8 0 0 1 1.634 1.635c.788 1.057 1.29 2.3 1.454 3.609.11.868.057 1.749-.155 2.599-.169.594-.327.896-.36.885z" fill-opacity=".7"/><path d="M13.277 152.542l-.436 1.253-1.119-.389.425-1.221c-1.089-.452-2.029-1.165-2.478-1.863l1.089-1.152a4.81 4.81 0 0 0 1.906 1.55l.648-1.869c-1.138-.735-2.383-1.634-1.827-3.23.411-1.188 1.634-1.907 3.467-1.496l.43-1.242 1.119.389-.425 1.221c.786.321 1.485.826 2.037 1.471l-1.037 1.182a4.89 4.89 0 0 0-1.512-1.177l-.659 1.907c1.141.722 2.361 1.61 1.814 3.19-.411 1.16-1.612 1.874-3.442 1.476zm.596-5.336l.545-1.591c-.64-.071-.989.172-1.117.545s.133.716.572 1.046zm.991 3.364c.133-.392-.117-.716-.545-1.051l-.545 1.544c.615.071.964-.133 1.089-.493z"/><path opacity=".8" d="M25.851 157.532H4.234v2.463h21.617v-2.463z"/><path d="M23.851 159.532H2.234v2.463h21.617v-2.463z"/></g><path d="M65.254 47.738a12.5 12.5 0 0 1-4.339 5.821c-1.99 1.468-4.371 2.313-6.842 2.427s-4.919-.508-7.036-1.786a12.5 12.5 0 0 1-5.895-12.583 12.5 12.5 0 0 1 3.131-6.551c1.668-1.826 3.841-3.115 6.243-3.706s4.924-.454 7.249.391c1.542.557 2.958 1.413 4.169 2.518s2.192 2.438 2.888 3.923a12.48 12.48 0 0 1 .433 9.546z" class="K"/><path d="M62.47 46.724c-.638 1.776-1.789 3.323-3.307 4.444a9.53 9.53 0 0 1-10.589.493 9.53 9.53 0 0 1-3.706-4.118c-.801-1.709-1.076-3.617-.791-5.483s1.117-3.605 2.391-4.997a9.53 9.53 0 0 1 10.296-2.521 9.51 9.51 0 0 1 5.375 4.91c1.07 2.285 1.189 4.901.33 7.273z" class="L"/><path d="M62.567 46.44c-.054-.017.051-.426.157-1.161.149-1.035.136-2.088-.038-3.119-.123-.7-.322-1.385-.592-2.043-.316-.756-.727-1.468-1.226-2.118-.546-.719-1.195-1.354-1.927-1.883a9.27 9.27 0 0 0-1.215-.746c-.439-.224-.894-.414-1.362-.569a9.89 9.89 0 0 0-1.43-.34 9.18 9.18 0 0 0-1.423-.119c-.456-.004-.911.028-1.362.095a8.25 8.25 0 0 0-1.29.279 9.47 9.47 0 0 0-2.243.981 9.68 9.68 0 0 0-1.702 1.304 10.06 10.06 0 0 0-1.876 2.493c-.341.657-.511 1.045-.565 1.022s.024-.433.306-1.147a8.85 8.85 0 0 1 1.767-2.724c.522-.552 1.107-1.041 1.743-1.457a9.87 9.87 0 0 1 2.366-1.11c.452-.144.914-.252 1.382-.324.49-.08.985-.119 1.481-.119.509-.009 1.018.022 1.522.095 1.047.164 2.061.496 3.003.984a9.95 9.95 0 0 1 1.307.817 9.73 9.73 0 0 1 2.043 2.043 9.54 9.54 0 0 1 1.818 4.512 8.83 8.83 0 0 1-.194 3.249c-.211.742-.409 1.12-.45 1.107z" class="G"/><path d="M52.597 49.178l-.545 1.566-1.399-.487.531-1.525c-1.362-.565-2.536-1.457-3.098-2.329l1.362-1.44c.613.841 1.434 1.509 2.383 1.937l.81-2.336c-1.423-.919-2.979-2.043-2.284-4.038.514-1.485 2.043-2.383 4.334-1.869l.538-1.553 1.399.487-.531 1.525c.983.402 1.856 1.032 2.546 1.839l-1.297 1.478c-.526-.61-1.168-1.111-1.889-1.471l-.824 2.384c1.427.902 2.952 2.013 2.267 3.987-.514 1.45-2.015 2.343-4.303 1.846zm.746-6.671l.681-1.988c-.8-.089-1.236.214-1.396.681s.167.895.715 1.308zm1.239 4.205c.167-.49-.146-.896-.681-1.314l-.681 1.931c.769.088 1.205-.167 1.362-.616z" fill="#c8c8c8"/><path d="M90.105 20.086a15 15 0 0 1-5.206 6.986c-2.388 1.762-5.246 2.776-8.21 2.913s-5.903-.609-8.443-2.144a15 15 0 0 1-7.074-15.099 15 15 0 0 1 3.757-7.861c2.002-2.191 4.609-3.738 7.492-4.447s5.909-.545 8.698.469a14.97 14.97 0 0 1 5.003 3.022 14.98 14.98 0 0 1 4.864 10.383c.089 1.965-.21 3.929-.88 5.779z" class="K"/><path d="M86.765 18.869a11.44 11.44 0 0 1-3.969 5.333 11.43 11.43 0 0 1-6.263 2.225c-2.262.105-4.504-.463-6.443-1.634a11.44 11.44 0 0 1-5.395-11.522 11.44 11.44 0 0 1 2.869-5.997c1.529-1.671 3.519-2.85 5.718-3.389s4.509-.412 6.637.364c2.846 1.031 5.166 3.15 6.45 5.892a11.42 11.42 0 0 1 .396 8.728z" class="L"/><path d="M86.88 18.528c-.065-.021.061-.511.188-1.394.179-1.242.163-2.505-.045-3.743-.148-.84-.386-1.662-.711-2.451a11.4 11.4 0 0 0-1.471-2.542 10.99 10.99 0 0 0-2.312-2.26 11.14 11.14 0 0 0-1.458-.895 11.67 11.67 0 0 0-1.634-.682 11.86 11.86 0 0 0-1.716-.409 11.02 11.02 0 0 0-1.708-.143c-.547-.005-1.093.034-1.634.114-.524.07-1.042.182-1.548.335-.944.274-1.849.67-2.692 1.177a11.61 11.61 0 0 0-2.043 1.565c-.901.874-1.661 1.883-2.251 2.991-.409.788-.613 1.254-.678 1.226s.029-.519.368-1.377a10.62 10.62 0 0 1 2.12-3.269c.627-.663 1.329-1.25 2.092-1.749a11.84 11.84 0 0 1 2.839-1.332c.542-.173 1.096-.303 1.659-.388.588-.095 1.182-.143 1.777-.143a11.27 11.27 0 0 1 1.826.114c1.257.197 2.473.596 3.603 1.181a11.91 11.91 0 0 1 1.569.981 11.67 11.67 0 0 1 2.451 2.452c1.183 1.586 1.935 3.451 2.182 5.414a10.6 10.6 0 0 1-.233 3.898c-.253.891-.49 1.344-.539 1.328z" class="G"/><path d="M74.913 21.814l-.654 1.879-1.679-.584.637-1.831c-1.634-.678-3.043-1.749-3.718-2.795l1.634-1.728a7.21 7.21 0 0 0 2.86 2.325l.972-2.803c-1.707-1.103-3.574-2.452-2.741-4.846.617-1.782 2.451-2.86 5.2-2.243l.645-1.863 1.679.584-.637 1.83c1.179.482 2.227 1.239 3.056 2.206l-1.556 1.773a7.31 7.31 0 0 0-2.267-1.765l-.989 2.86c1.712 1.083 3.542 2.415 2.721 4.785-.617 1.741-2.418 2.811-5.163 2.215zm.895-8.005l.817-2.386c-.96-.106-1.483.257-1.675.817s.2 1.075.858 1.569zm1.487 5.046c.2-.588-.176-1.075-.817-1.577l-.817 2.317c.923.106 1.446-.2 1.634-.74z" class="R"/></g><defs><clipPath id="A"><path d="M0 0h155v164H0z" class="F"/></clipPath><path id="B" d="M146.244 148.176c2.622-4.655.973-10.553-3.681-13.175s-10.554-.975-13.176 3.681-.973 10.553 3.681 13.175 10.554.974 13.176-3.681z"/><path id="C" d="M43.768 108.441c7.504 0 13.581 5.595 13.581 12.506s-6.08 12.503-13.581 12.503-13.616-5.596-13.616-12.503 6.111-12.506 13.616-12.506z"/><path id="D" d="M97.864 34.229c3.069.027 4.656 5.169 4.803 18.532l-8.535-.873-.182-9.96c.457-6.969 3.914-7.698 3.914-7.698z"/><path id="E" d="M99.131 33.701c1.901-.528 9.417-2.798 17.619-2.887l6.407 28.085s1.327 5.545 1.94 9.887c-7.555 4.924-18.334 6.208-24.267 4.063.081.12-.279-3.248-.776-8.183-.896-8.696-2.258-22.257-2.476-30.204 0-.198 1.362-.706 1.553-.76z"/><path id="F" d="M109.426 28.699l-3.345 3.352-1.486-1.3-1.49 1.785 2.976 3.158 5.153-4.517-1.808-2.479z"/><path id="G" d="M116.748 30.815s4.04.338 4.268 4.373c.202 3.717.253 12.762.253 12.762l-7.993-.054-.296-9.631 3.768-7.45z"/><path id="H" d="M139.176 17.579a7.62 7.62 0 0 1-6.821 5.038 7.63 7.63 0 0 1-4.296-1.089c-1.292-.78-2.324-1.927-2.964-3.294a7.64 7.64 0 0 1-.633-4.387 7.63 7.63 0 0 1 1.913-3.998c1.019-1.114 2.346-1.9 3.812-2.259s3.007-.275 4.425.242a7.61 7.61 0 0 1 4.564 9.747z"/></defs></svg>