<svg xmlns="http://www.w3.org/2000/svg" xmlns:xlink="http://www.w3.org/1999/xlink" width="402" height="300" fill="none" xmlns:v="https://vecta.io/nano"><style><![CDATA[.B{opacity:.2}.C{fill:#263238}.D{fill:#fff}.E{fill:#000}.F{fill:#407bff}.G{fill:#ebb376}.H{fill:#2196f3}.I{fill:#e0e0e0}.J{stroke-linecap:round}]]></style><g clip-path="url(#A)"><path d="M0 0h402v300H0z" class="D"/><g fill="#ebebeb"><path d="M397.011 260.186H0v.159h397.011v-.159zm-39.78 12.794h-26.282v.16h26.282v-.16zm-94.254 2.147h-6.907v.159h6.907v-.159zm67.179-9.535H314.91v.159h15.246v-.159zm-254.245 1.349H41.609v.16h34.302v-.16zm12.068 0h-5.002v.16h5.002v-.16zm90.835 3.338h-74.4v.159h74.4v-.159zm9.366-45.537H34.854c-2.462 0-4.526-2.066-4.526-4.53V4.53c0-2.464 2.065-4.53 4.526-4.53H188.18c2.462 0 4.526 2.066 4.526 4.53v215.682c0 2.464-2.064 4.53-4.526 4.53zM34.854.159c-2.382 0-4.367 1.907-4.367 4.371v215.682c0 2.384 1.906 4.371 4.367 4.371H188.18c2.382 0 4.367-1.907 4.367-4.371V4.53c0-2.384-1.905-4.371-4.367-4.371H34.854zm325.077 224.583H206.604c-2.461 0-4.526-2.066-4.526-4.53V4.53c0-2.464 2.065-4.53 4.526-4.53h153.327a4.58 4.58 0 0 1 4.525 4.53v215.682a4.58 4.58 0 0 1-4.525 4.53zM206.604.159c-2.382 0-4.367 1.907-4.367 4.371v215.682c0 2.384 1.906 4.371 4.367 4.371h153.327c2.382 0 4.367-1.907 4.367-4.371V4.53c0-2.384-1.906-4.371-4.367-4.371H206.604z"/></g><g class="I"><path d="M351.91 18.597V15.18l-1.747-.159c-.238-1.113-.714-2.225-1.27-3.179l1.111-1.351-2.382-2.384-1.349 1.113c-.953-.636-1.985-1.113-3.176-1.272l-.159-1.748h-3.414l-.159 1.748c-1.112.238-2.223.715-3.176 1.272l-1.35-1.113-2.382 2.384 1.112 1.351c-.636.954-1.112 1.987-1.271 3.179l-1.747.159v3.417l1.747.159c.238 1.113.715 2.225 1.271 3.179l-1.112 1.351 2.382 2.384 1.35-1.113c.953.636 1.985 1.113 3.176 1.271l.159 1.748h3.414l.159-1.748c1.111-.238 2.223-.715 3.176-1.271l1.349 1.113 2.382-2.384-1.111-1.351c.635-.954 1.111-1.987 1.27-3.179l1.747-.159zm-10.719 2.861a4.61 4.61 0 0 1-4.605-4.609 4.61 4.61 0 0 1 4.605-4.609 4.61 4.61 0 0 1 4.605 4.609 4.61 4.61 0 0 1-4.605 4.609zm24.541 6.754V25.51l-1.35-.159c-.159-.874-.556-1.748-1.032-2.464l.873-1.033-1.905-1.907-1.033.874c-.714-.477-1.588-.874-2.461-1.033l-.159-1.351h-2.699l-.159 1.351c-.874.159-1.747.556-2.462 1.033l-1.032-.874-1.906 1.907.873 1.033c-.475.715-.873 1.589-1.032 2.464l-1.35.159v2.702l1.35.159c.159.874.557 1.748 1.032 2.464l-.873 1.033 1.906 1.907 1.032-.874c.715.477 1.588.874 2.462 1.033l.159 1.351h2.699l.159-1.351c.873-.159 1.747-.556 2.461-1.033l1.033.874 1.905-1.907-.873-1.033c.476-.715.873-1.589 1.032-2.464l1.35-.159zm-8.417 2.305c-1.985 0-3.652-1.589-3.652-3.656 0-1.987 1.588-3.656 3.652-3.656 1.985 0 3.653 1.589 3.653 3.656-.08 1.987-1.668 3.656-3.653 3.656z"/><path d="M351.907 35.842v-2.225l-1.191-.079a6.72 6.72 0 0 0-.873-2.066l.715-.874-1.588-1.589-.874.715c-.635-.397-1.35-.715-2.064-.874l-.08-1.192h-2.223l-.079 1.192c-.715.159-1.429.477-2.065.874l-.873-.715-1.589 1.589.716.874c-.397.636-.716 1.351-.875 2.066l-1.191.079v2.225l1.191.079c.159.715.478 1.43.875 2.066l-.716.874 1.589 1.589.873-.715c.636.397 1.35.715 2.065.874l.079 1.192h2.223l.08-1.192c.714-.159 1.429-.477 2.064-.874l.874.715 1.588-1.589-.715-.874c.397-.636.715-1.351.873-2.066l1.191-.079zm-7.066 1.907c-1.668 0-3.017-1.351-3.017-3.02s1.349-3.02 3.017-3.02a3.02 3.02 0 0 1 0 6.04zM40.021 259.472l17.786-118.014v118.014h4.764V140.743l17.786 118.729h5.082L63.206 110.783l-.635.159v-4.848h-4.764v4.768l-.635-.079L34.86 259.472h5.161z"/></g><path d="M84.563 127.311H35.492l3.97-41.086h41.13l3.97 41.086z" fill="#ebebeb"/><path d="M198.504 296.028c85.031 0 153.961-4.02 153.961-8.98s-68.93-8.98-153.961-8.98-153.961 4.021-153.961 8.98 68.93 8.98 153.961 8.98z" fill="#f5f5f5"/><g class="H"><path d="M352.546 29.881v159.975c0 3.814-3.335 7.231-7.146 7.231H115.45c-3.811 0-6.669-3.417-6.669-7.231V29.881c0-3.814 2.858-6.834 6.669-6.834H345.4c3.811 0 7.146 3.02 7.146 6.834z"/><path opacity=".1" d="M352.546 49.828v140.026c0 3.816-3.335 7.233-7.146 7.233H115.45c-3.811 0-6.669-3.417-6.669-7.233v-54.516c20.248-38.941 68.445-45.219 124.9-22.49 79.958 32.265 114.021-11.523 118.865-63.02z"/></g><path d="M289.738 178.808H173.095c-2.223 0-3.97-1.827-3.97-3.973 0-2.225 1.827-3.974 3.97-3.974h116.643c2.223 0 3.97 1.828 3.97 3.974a3.93 3.93 0 0 1-3.97 3.973z" class="B E"/><use xlink:href="#B" class="F"/><use xlink:href="#B" opacity=".7" class="D"/><use xlink:href="#C" class="C"/><use xlink:href="#C" class="B E"/><g fill="#0872c6"><use xlink:href="#D"/><use xlink:href="#D" class="B"/></g><g class="F"><path d="M171.273 277.192h-.159c-.079 0-.079-.079-.079-.159.079-.318.953-2.861 1.906-3.099.158-.08.397 0 .555.159.239.238.397.555.318.874-.159.476-.476.873-.873 1.192-.556.397-1.112.715-1.668 1.033zm.159-.477c.794-.397 1.509-1.033 1.906-1.827.079-.24-.08-.478-.239-.557-.079-.08-.158-.08-.238-.08s-.159.08-.238.159c-.476.636-.873 1.43-1.191 2.305z"/><path d="M171.195 277.192c-.08 0-.159 0-.159-.079-.079-.08-1.35-1.669-1.112-2.702.08-.238.239-.476.397-.636s.477-.238.715-.079c.635.477.556 2.543.238 3.337v.08c0 .079-.079.079-.079.079zm-.715-3.019c-.079.079-.159.238-.238.397-.159.636.476 1.669.794 2.146.238-.875.159-2.384-.238-2.622 0-.08-.08-.08-.318.079zm-53.445 12.476c0-.079.079-.159.159-.159s.159 0 .159.08c.158.239 1.349 2.702.952 3.496-.079.16-.317.239-.476.239-.318 0-.635-.079-.873-.398-.239-.476-.318-.954-.239-1.43 0-.557.08-1.192.318-1.828zm.159.477c-.318.875-.318 1.828 0 2.623.159.158.317.317.556.238.079 0 .158 0 .158-.08s.08-.159.08-.238c-.08-.874-.318-1.749-.794-2.543z"/></g><path d="M129.899 268.689l-9.369 6.914-4.526 3.258 2.938 5.166 4.605-2.464 11.195-6.119-4.843-6.755z" class="G"/><path d="M120.372 283.868l-2.859-6.279c-.158-.318-.555-.476-.952-.318l-3.097 1.51s-4.288 1.749-4.764 3.1c-1.588 4.053 4.367 18.119 6.193 18.119.715 0 1.112-1.033 1.191-1.748.318-2.146.318-7.471.635-9.219.318-2.066 2.382-3.656 3.335-4.291.397-.16.477-.557.318-.874z" class="C"/><path d="M117.037 286.57c0-.08.079-.08.159-.08s2.064.238 2.699 1.113c.159.238.238.477.159.795 0 .238-.159.476-.476.556-.794.159-2.224-1.351-2.541-2.145l-.08-.081c.08-.079.08-.079.08-.158zm2.699 1.669c0-.159 0-.319-.079-.398-.397-.556-1.509-.794-2.144-.873.477.794 1.588 1.747 2.065 1.668 0-.079.079-.079.158-.397z" class="F"/><path d="M129.902 268.689l-9.371 6.914 3.018 5.96 11.196-6.119-4.843-6.755z" class="B E"/><path d="M125.693 281.96l3.096-.715-5.161-9.854-2.858 2.94 4.923 7.629z" class="F"/><path opacity=".6" d="M125.693 281.96l3.096-.715-5.161-9.854-2.858 2.94 4.923 7.629z" class="D"/><path d="M149.352 280.532l11.513 1.908 5.558.952 1.588-5.721-5.002-1.51-12.228-3.735-1.429 8.106z" class="G"/><path d="M166.906 276.715l-2.461 6.437c-.159.397.079.795.397.875l3.176 1.112s4.208 1.828 5.558 1.272c3.971-1.749 9.846-15.735 8.576-17.086-.477-.478-1.509 0-2.065.397-1.746 1.271-5.559 5.007-7.067 6.04-1.668 1.192-4.288.874-5.399.556-.239-.079-.556.079-.715.397z" class="C"/><path d="M149.352 280.532l11.513 1.908 2.144-6.279-12.228-3.735-1.429 8.106z" class="B E"/><path d="M161.028 274.968s-47.879-28.291-64.077-27.496c-16.198.714-17.627 16.847-10.958 25.827s19.056 11.126 19.056 11.126-8.416-11.92-7.225-15.258 5.876 7.868 5.876 7.868 29.617 3.893 55.502 6.039l1.826-8.106z" class="H"/><path d="M161.825 274.253l-2.7-1.827-3.414 10.49h4.129l1.985-8.663z" class="F"/><path opacity=".6" d="M161.825 274.253l-2.7-1.827-3.414 10.49h4.129l1.985-8.663z" class="D"/><path d="M125.373 251.922c-8.655-16.689-5.876-42.04 1.588-67.312-5.241-4.371-26.124-7.311-42.083-2.701 0 0-10.084 37.51-8.893 78.516l49.389-8.503z" class="C"/><path d="M106.954 188.662c-6.987 0-11.513-7.311-11.513-7.311 9.132-3.179 9.132-12.874 9.132-12.874l3.493 3.417 5.003 4.927c-4.13 2.941-2.223 5.484-.873 6.676.476.397.873.635.873.635s.873 4.53-6.115 4.53z" class="G"/><path d="M112.275 183.497c-8.575.954-7.94-11.841-7.94-11.841 1.35 0 2.62.079 3.811.318l5.002 4.927c-4.129 2.941-2.223 5.484-.873 6.596z" class="B E"/><path d="M118.944 158.94c-3.255 1.351-2.62 4.847 2.779 11.285 3.335-2.862 5.082-9.298 3.335-11.444-1.747-2.066-3.255-1.033-6.114.159z" class="C"/><path d="M123.71 173.246c-.318.954-.635 1.748-1.032 2.543-3.176 6.517-12.387 7.788-16.437 1.351 0 0 0-.08-.08-.08-2.699-4.291-1.667-8.344-.555-15.417.238-1.51.794-2.861 1.667-4.132 3.098-4.371 9.053-5.484 13.499-2.384 5.32 3.735 5.002 12.158 2.938 18.119z" class="G"/><g class="C"><path d="M115.53 165.933c-.158.556.08 1.113.477 1.192s.794-.317.873-.874c.159-.556-.079-1.113-.397-1.192-.397-.08-.794.317-.953.874zm6.434 1.431c-.159.557.079 1.113.476 1.192s.794-.317.873-.873c.159-.557-.079-1.113-.476-1.193s-.794.319-.873.874z"/></g><path d="M119.816 167.125c.318 1.908.794 3.656 1.588 5.404-1.191.715-2.779-.079-2.779-.079l1.191-5.325z" fill="#d58745"/><g class="C"><path d="M114.26 163.47c-.08 0-.159-.08-.238-.08-.159-.158-.08-.317 0-.476a3.42 3.42 0 0 1 3.017-.795c.159.079.317.238.238.398s-.238.238-.397.238c-.873-.159-1.747.08-2.382.635-.079.08-.159.16-.238.08zm11.038 2.386c-.159 0-.239-.159-.239-.239-.158-.874-.714-1.589-1.508-1.907-.16-.079-.239-.238-.239-.398.079-.159.239-.238.398-.238 1.032.398 1.746 1.351 1.985 2.384.079.159-.08.398-.239.398h-.158zm-15.487-9.697c3.018 1.828 1.827 5.245-4.526 10.728-2.779-3.337-3.573-10.012-1.509-11.761s3.414-.556 6.035 1.033z"/></g><path d="M101.158 166.491c.079 1.749.953 3.417 2.223 4.609 1.747 1.59 3.653.239 4.05-1.986.317-1.987-.239-5.166-2.382-5.882-2.223-.714-4.05 1.034-3.891 3.259z" class="G"/><g stroke="#263238" stroke-width=".426" stroke-miterlimit="10" stroke-linejoin="round"><path d="M113.148 172.531s.715 2.544 4.13 3.1" class="J"/><path d="M119.264 167.207c0 1.35-1.112 2.384-2.382 2.384-1.35 0-2.382-1.113-2.382-2.384 0-1.352 1.112-2.385 2.382-2.385 1.27-.08 2.382 1.033 2.382 2.385zm6.43 1.349a2.39 2.39 0 0 1-2.382 2.384c-1.349 0-2.382-1.113-2.382-2.384a2.39 2.39 0 0 1 2.382-2.384c1.35-.08 2.382 1.033 2.382 2.384z"/><g class="J"><path d="M119.266 167.841s1.112-.557 1.667.477m-6.434-1.588l-8.179-3.179"/></g></g><path d="M103.697 155.206s-.715-5.642 5.002-6.517c5.717-.953 13.18.478 15.562-.476 0 0-.317 1.748-1.667 2.463 0 0 4.368 1.589 7.782.239 0 0-1.508 4.132-3.414 5.721h1.667s-3.256 3.1-7.226 3.179-7.702-5.404-11.592-3.576c-3.97 1.749-6.114-1.033-6.114-1.033z" class="C"/><path opacity=".4" d="M123.711 173.247c-.319.953-.637 1.748-1.034 2.543-3.176 6.517-12.386 7.788-16.435 1.351 0 0 0-.08-.08-.08-2.064-3.734-.397-7.788-.397-7.788l1.191-3.973.874-.874s.238 4.052.794 5.165c.635 1.112 4.208 1.51 4.922 1.669s2.462 2.305 3.335 2.781c.874.557 3.97.08 4.367.557.477.476 2.463-1.351 2.463-1.351z" class="E"/><path d="M88.055 237.219l16.436 18.278s18.183-.397 40.336 10.41c0 0 23.742-9.775 25.885-17.96 2.144-8.106-49.784-2.384-49.784-2.384l-32.873-8.344z" class="B H"/><path d="M92.661 231.895l26.441 8.662s9.449-2.067 11.116-2.067 8.18 5.325 4.526 7.153-13.736 2.067-14.848 1.51-30.411-7.471-30.411-7.471l3.176-7.787z" class="G"/><use xlink:href="#E" class="C"/><use xlink:href="#E" class="B E"/><path d="M95.441 230.465l-5.558 10.888 4.764 1.032 4.367-10.012-3.573-1.908z" class="C"/><path d="M95.441 230.465l-5.558 10.888 4.764 1.032 4.367-10.012-3.573-1.908z" class="B D"/><use xlink:href="#F" class="C"/><g class="D"><use xlink:href="#F" class="B"/><path d="M130.223 245.564v1.749c0 1.192.953 2.225 2.144 2.225h40.019c1.191 0 2.302-1.113 2.302-2.225v-1.749h-44.465z" class="B"/></g><use xlink:href="#G" class="C"/><g class="D"><use xlink:href="#G" class="B"/><path d="M133.952 247.947h40.575c1.27 0 2.699-1.032 3.096-2.305l9.687-30.356c.397-1.273-.318-2.306-1.588-2.306h-40.574c-1.271 0-2.7 1.113-3.097 2.306l-9.687 30.356c-.397 1.273.318 2.305 1.588 2.305z" class="B"/><path d="M163.011 227.125l-5.796 4.133 2.461 4.132 5.876-4.132-2.541-4.133z" class="B"/></g><path d="M192.232 98.066h-53.359a6.92 6.92 0 0 1-6.908-6.914V37.748a6.92 6.92 0 0 1 6.908-6.914h53.359c3.811 0 6.907 3.099 6.907 6.914v53.404c0 3.814-3.096 6.914-6.907 6.914z" class="B E"/><use xlink:href="#H" class="F"/><g class="D"><use xlink:href="#H" opacity=".3"/><path d="M183.262 45.06v-3.417l-1.747-.159c-.238-1.113-.715-2.225-1.27-3.179l1.111-1.351-2.382-2.384-1.35 1.113c-.952-.636-1.985-1.113-3.176-1.272l-.158-1.748h-3.415l-.158 1.748c-1.112.238-2.224.715-3.176 1.272l-1.351-1.113-2.382 2.384 1.111 1.351c-.635.954-1.111 1.987-1.27 3.179l-1.747.159v3.417l1.747.159c.238 1.113.715 2.225 1.27 3.179l-1.111 1.35 2.382 2.384 1.351-1.112c.952.636 1.985 1.112 3.176 1.271l.158 1.749h3.415l.158-1.749c1.112-.238 2.224-.715 3.176-1.271l1.35 1.112 2.382-2.384-1.111-1.35c.635-.954 1.111-1.987 1.27-3.179l1.747-.159zM172.543 48a4.61 4.61 0 0 1-4.605-4.61 4.61 4.61 0 0 1 4.605-4.609 4.61 4.61 0 0 1 4.605 4.609 4.61 4.61 0 0 1-4.605 4.61zm24.533 6.675v-2.701l-1.35-.159c-.159-.874-.556-1.748-1.032-2.463l.873-1.034-1.905-1.827-1.032.875c-.715-.477-1.588-.874-2.463-1.033l-.159-1.351h-2.699l-.159 1.351c-.873.159-1.747.556-2.461 1.033l-1.033-.875-1.905 1.907.873 1.033c-.476.716-.873 1.589-1.032 2.463l-1.35.159v2.702l1.35.159c.159.874.556 1.748 1.032 2.463l-.873 1.033 1.905 1.908 1.033-.875c.714.477 1.588.875 2.461 1.034l.159 1.35h2.699l.159-1.35c.875-.159 1.748-.556 2.463-1.034l1.032.875 1.905-1.908-.873-1.033c.476-.716.873-1.59 1.032-2.463l1.35-.239zm-8.417 2.305c-1.985 0-3.653-1.589-3.653-3.655 0-1.987 1.588-3.656 3.653-3.656 1.986 0 3.653 1.589 3.653 3.656a3.59 3.59 0 0 1-3.653 3.655z"/><path d="M183.259 62.304v-2.225L182.068 60c-.159-.716-.477-1.43-.874-2.067l.715-.874-1.588-1.59-.874.716c-.635-.397-1.349-.716-2.064-.875l-.079-1.192h-2.224l-.079 1.192c-.715.159-1.429.477-2.064.875l-.874-.716-1.588 1.59.715.874c-.397.637-.715 1.351-.874 2.067l-1.191.079v2.225l1.191.08c.159.715.477 1.43.874 2.066l-.715.875 1.588 1.589.874-.716c.635.397 1.349.716 2.064.874l.079 1.192h2.224l.079-1.192c.715-.158 1.429-.476 2.064-.874l.874.716 1.588-1.589-.715-.875c.397-.636.715-1.351.874-2.066l1.191-.08zm-7.067 1.908a3.02 3.02 0 0 1-3.017-3.02c0-1.669 1.35-3.02 3.017-3.02s3.017 1.35 3.017 3.02c.08 1.669-1.27 3.02-3.017 3.02z"/><path d="M203.664 79.788H158.96c-3.176 0-5.796-2.623-5.796-5.802V29.245c0-3.179 2.62-5.801 5.796-5.801h44.704c3.176 0 5.797 2.622 5.797 5.801v44.741c.079 3.179-2.541 5.802-5.797 5.802z" class="B"/></g><path d="M289.179 158.384h-49.388c-3.574 0-6.432-2.86-6.432-6.436v-49.431c0-3.576 2.858-6.437 6.432-6.437h49.388c3.573 0 6.432 2.861 6.432 6.437v49.431c0 3.576-2.859 6.436-6.432 6.436z" class="B E"/><use xlink:href="#I" class="F"/><g class="D"><use xlink:href="#I" class="B"/><path d="M277.112 127.231c0 1.034-.873 1.908-1.905 1.908s-1.906-.874-1.906-1.908.874-1.907 1.906-1.907 1.905.874 1.905 1.907zm-2.062-18.754c-10.322 0-18.659 8.344-18.659 18.675h14.927c0-2.384 1.668-3.655 3.732-3.655.397 0 .794.079 1.112.238l6.987-8.106-4.923 9.616c.397.556.556 1.192.556 1.987h14.928c0-10.411-8.338-18.755-18.66-18.755z"/><path d="M297.998 144.954H256.63a5.41 5.41 0 0 1-5.4-5.403V98.146a5.41 5.41 0 0 1 5.4-5.404h41.368a5.41 5.41 0 0 1 5.4 5.404v41.405a5.41 5.41 0 0 1-5.4 5.403z" class="B"/></g><path d="M304.349 101.008h-43.274c-3.096 0-5.637-2.542-5.637-5.642V52.054c0-3.1 2.541-5.642 5.637-5.642h43.274c3.097 0 5.638 2.542 5.638 5.642v43.311c0 3.1-2.541 5.642-5.638 5.642z" class="B E"/><use xlink:href="#J" class="F"/><g class="D"><use xlink:href="#J" opacity=".1"/><path d="M305.698 53.166c0-.795-.635-1.509-1.508-1.509h-22.392a1.51 1.51 0 0 0-1.509 1.509v4.927a1.51 1.51 0 0 0 1.509 1.51h22.392c.794 0 1.508-.636 1.508-1.51v-4.927zm-7.384 2.702h-1.27v-1.271h1.27v1.271zm3.414.636c-.714 0-1.27-.556-1.27-1.271s.556-1.272 1.27-1.272 1.271.557 1.271 1.272-.556 1.271-1.271 1.271zm3.97 5.405c0-.795-.635-1.51-1.508-1.51h-22.392a1.51 1.51 0 0 0-1.509 1.51v4.926a1.51 1.51 0 0 0 1.509 1.51h22.392c.794 0 1.508-.636 1.508-1.51v-4.926zm-7.384 3.179h-1.27v-1.272h1.27v1.272zm3.414.636c-.714 0-1.27-.556-1.27-1.272s.556-1.271 1.27-1.271 1.271.556 1.271 1.271-.556 1.272-1.271 1.272zm3.97 4.925c0-.795-.635-1.51-1.508-1.51h-22.392a1.51 1.51 0 0 0-1.509 1.51v4.926a1.51 1.51 0 0 0 1.509 1.51h22.392c.794 0 1.508-.636 1.508-1.51v-4.926zm-7.384 3.655h-1.27v-1.271h1.27v1.271zm3.414.636c-.714 0-1.27-.556-1.27-1.271s.556-1.272 1.27-1.272 1.271.556 1.271 1.272-.556 1.271-1.271 1.271z"/><path d="M313.002 87.338h-36.287c-2.62 0-4.684-2.146-4.684-4.689V46.331c0-2.623 2.144-4.689 4.684-4.689h36.287c2.62 0 4.686 2.146 4.686 4.689v36.318c0 2.543-2.066 4.689-4.686 4.689z" class="B"/></g><path d="M226.775 156.001h-53.359a6.92 6.92 0 0 1-6.908-6.914V95.684a6.92 6.92 0 0 1 6.908-6.914h53.359a6.92 6.92 0 0 1 6.908 6.914v53.403a6.92 6.92 0 0 1-6.908 6.914z" class="B E"/><use xlink:href="#K" class="F"/><g class="D"><use xlink:href="#K" opacity=".5"/><path d="M194.775 127.631c-1.747-1.749-1.747-4.53 0-6.2l10.242-10.251c.953-.954 2.541-.954 3.495 0l2.7 2.702a2.5 2.5 0 0 1 0 3.497l-10.244 10.252c-1.667 1.668-4.446 1.668-6.193 0zm18.977-16.927l-2.064-2.067 11.672-11.602 2.54-.556-.555 2.543-11.593 11.682zm-1.108 2.701l-3.573-3.576c-.318-.318-.318-.875 0-1.192s.873-.318 1.191 0l3.573 3.576a.87.87 0 0 1 0 1.192c-.397.318-.874.318-1.191 0zm-4.847-6.915l-4.923-4.926c.953-2.464-.952-5.484-2.937-6.279l-.08 3.814c0 .875-.714 1.589-1.588 1.589s-1.588-.715-1.588-1.589v-3.735c-1.588.637-3.255 2.464-3.255 4.61 0 2.464 1.905 4.371 4.208 4.769.794.079 1.588 0 2.382-.319l4.923 4.928 2.858-2.862zm16.278 18.676v3.735c1.588-.635 3.256-2.464 3.256-4.609 0-2.464-1.747-4.53-4.129-4.848-.794-.079-1.509-.158-2.223.239l-5.161-5.165-2.779 2.781 5.081 5.086c-1.508 3.019.794 5.562 2.859 6.357v-3.735c0-.874.714-1.59 1.588-1.59.794.16 1.508.875 1.508 1.749z"/><path d="M235.109 140.344h-44.703c-3.177 0-5.797-2.622-5.797-5.801V89.801c0-3.179 2.62-5.801 5.797-5.801h44.703c3.176 0 5.796 2.622 5.796 5.801v44.742c.08 3.179-2.541 5.801-5.796 5.801z" class="B"/></g><use xlink:href="#L" class="F"/><path d="M270.924 97.668h-64.395c-4.605 0-8.338-3.734-8.338-8.344v-64.45c0-4.609 3.733-8.344 8.338-8.344h64.395a8.34 8.34 0 0 1 8.337 8.344v64.45c.08 4.61-3.652 8.344-8.337 8.344z" class="B E"/><g class="D"><use xlink:href="#L" opacity=".5"/><path d="M247.89 18.596l-20.882 8.185s2.62 28.61 20.803 34.014c18.183-5.404 20.804-34.013 20.804-34.013l-20.725-8.185zm-.556 27.735c-.238.397-.714.556-1.111.556-.477 0-.874-.238-1.112-.636l-7.305-10.093c-.476-.636-.317-1.51.318-1.987s1.509-.318 1.985.318l6.193 8.503 10.085-13.271c.476-.636 1.35-.795 1.985-.238.635.477.794 1.43.238 2.066l-11.276 14.782z"/><path d="M223.753 73.669h53.914c3.892 0 6.988-3.179 6.988-6.993v-53.96c0-3.894-3.176-6.993-6.988-6.993h-53.914c-3.89 0-6.987 3.179-6.987 6.993v53.96c0 3.894 3.176 6.993 6.987 6.993z" class="B"/></g><g class="F"><path d="M343.811 182.701H276.16v45.696h67.651v-45.696z"/><path opacity=".7" d="M343.811 182.701H276.16v45.696h67.651v-45.696z"/></g><path d="M342.464 186.279h-65.03v40.689h65.03v-40.689z" class="C"/><g class="I"><path d="M333.809 192.557h-53.438v1.192h53.438v-1.192zm-7.941 3.418h-45.497v1.192h45.497v-1.192zm7.941 3.337h-53.438v1.193h53.438v-1.193zm-7.941 3.417h-45.497v1.192h45.497v-1.192zm-39.701 3.337h-5.796v1.192h5.796v-1.192zm23.821 3.416h-29.617v1.192h29.617v-1.192zm15.88 3.338h-45.497v1.192h45.497v-1.192zm-39.701 3.418h-5.796v1.192h5.796v-1.192zm0 3.338h-5.796v1.192h5.796v-1.192z"/></g><g class="H"><path d="M148.639 87.576H80.988v45.696h67.651V87.576z"/><path opacity=".7" d="M148.639 87.576H80.988v45.696h67.651V87.576z"/></g><path d="M147.21 91.152H82.18v40.689h65.03V91.152z" class="C"/><g class="I"><path d="M138.637 97.43H85.199v1.192h53.438V97.43zm-7.94 3.42H85.199v1.192h45.498v-1.192zm7.94 3.336H85.199v1.192h53.438v-1.192zm-7.94 3.416H85.199v1.192h45.498v-1.192zm-39.701 3.339H85.2v1.192h5.796v-1.192zm23.82 3.416H85.199v1.192h29.617v-1.192zm15.881 3.338H85.199v1.192h45.498v-1.192zm-39.701 3.418H85.2v1.192h5.796v-1.192zm0 3.338H85.2v1.192h5.796v-1.192z"/></g></g><defs><clipPath id="A"><path d="M0 0h402v300H0z" class="D"/></clipPath><path id="B" d="M173.098 178.014a3.19 3.19 0 0 1-3.176-3.179 3.19 3.19 0 0 1 3.176-3.179h69.001a3.19 3.19 0 0 1 3.176 3.179 3.19 3.19 0 0 1-3.176 3.179h-69.001z"/><path id="C" d="M126.965 184.611c7.384 5.961 4.843 34.331 6.193 38.702s7.305 7.947 7.305 7.947l-8.337 9.695s-6.908-1.192-12.228-12.556 7.067-43.788 7.067-43.788z"/><path id="D" d="M119.102 246.993s53.199-14.86 59.869 3.815-41.607 33.536-68.286 34.49-37.636-17.881-29.775-35.682l38.192-2.623z"/><path id="E" d="M84.88 181.907c5.955-1.192-4.367 35.285-1.826 40.609s12.466 8.742 12.466 8.742l-4.605 10.093s-13.498-2.543-20.803-11.92 5.002-45.617 14.769-47.524z"/><path id="F" d="M106.398 245.564v1.749c0 1.192.953 2.225 2.145 2.225h63.839c1.191 0 2.302-1.113 2.302-2.225v-1.749h-68.286z"/><path id="G" d="M132.366 247.947h42.163c1.27 0 2.699-1.032 3.096-2.305l9.687-30.356c.397-1.273-.317-2.306-1.588-2.306h-42.162c-1.271 0-2.7 1.113-3.097 2.306l-9.687 30.356c-.397 1.273.318 2.305 1.588 2.305z"/><path id="H" d="M201.281 79.788h-44.704c-3.176 0-5.796-2.623-5.796-5.802V29.245c0-3.179 2.62-5.801 5.796-5.801h44.704c3.176 0 5.797 2.622 5.797 5.801v44.741c.079 3.179-2.541 5.802-5.797 5.802z"/><path id="I" d="M295.771 144.954h-41.368c-2.938 0-5.399-2.384-5.399-5.403V98.146c0-2.941 2.382-5.404 5.399-5.404h41.368a5.41 5.41 0 0 1 5.4 5.404v41.405c0 3.019-2.382 5.403-5.4 5.403z"/><path id="J" d="M311.101 87.338h-36.287c-2.62 0-4.685-2.146-4.685-4.689V46.331c0-2.623 2.144-4.689 4.685-4.689h36.287c2.62 0 4.684 2.146 4.684 4.689v36.318c0 2.543-2.144 4.689-4.684 4.689z"/><path id="K" d="M232.73 140.344h-44.703c-3.176 0-5.797-2.622-5.797-5.801V89.801c0-3.179 2.621-5.801 5.797-5.801h44.703c3.176 0 5.796 2.622 5.796 5.801v44.742c.08 3.179-2.541 5.801-5.796 5.801z"/><path id="L" d="M220.897 73.669h53.915c3.89 0 6.987-3.179 6.987-6.993v-53.96c0-3.894-3.176-6.993-6.987-6.993h-53.915c-3.89 0-6.987 3.179-6.987 6.993v53.96a6.95 6.95 0 0 0 6.987 6.993z"/></defs></svg>