<svg width="18" height="15" viewBox="0 0 18 15" fill="none" xmlns="http://www.w3.org/2000/svg">
<path d="M4.62435 0.332031H13.3743C13.9579 0.332002 14.5195 0.554608 14.9446 0.954442C15.3697 1.35428 15.6262 1.90122 15.6618 2.4837L15.666 2.6237V5.4187C16.1203 5.54765 16.5236 5.81366 16.821 6.18042C17.1184 6.54717 17.2954 6.99679 17.3277 7.46786L17.3327 7.6237V13.8737C17.3326 14.0321 17.2725 14.1845 17.1644 14.3002C17.0563 14.4159 16.9083 14.4863 16.7503 14.4971C16.5923 14.5078 16.4361 14.4583 16.3133 14.3583C16.1904 14.2584 16.1101 14.1156 16.0885 13.9587L16.0827 13.8737V11.9987H1.91602V13.8737C1.91601 14.0247 1.86131 14.1707 1.76204 14.2845C1.66277 14.3983 1.52564 14.4723 1.37602 14.4929L1.29102 14.4987C1.13998 14.4987 0.994064 14.444 0.88024 14.3447C0.766416 14.2455 0.692389 14.1083 0.671849 13.9587L0.666016 13.8737V7.6237C0.666016 6.57453 1.37102 5.69036 2.33268 5.41786V2.6237C2.33265 2.04013 2.55526 1.47853 2.95509 1.05345C3.35493 0.628375 3.90187 0.371849 4.48435 0.336198L4.62435 0.332031ZM15.041 6.58203H2.95768C2.6998 6.58191 2.45104 6.67746 2.25954 6.85018C2.06805 7.02289 1.94742 7.26051 1.92102 7.51703L1.91602 7.6237V10.7487H16.0827V7.6237C16.0826 7.36596 15.987 7.11741 15.8143 6.92608C15.6416 6.73476 15.4041 6.61426 15.1477 6.58786L15.041 6.58203ZM13.3743 1.58203H4.62435C4.36647 1.58191 4.11771 1.67746 3.92621 1.85018C3.73471 2.02289 3.61409 2.26051 3.58768 2.51703L3.58268 2.6237V5.33203H4.83268C4.83268 5.11102 4.92048 4.89906 5.07676 4.74278C5.23304 4.5865 5.445 4.4987 5.66602 4.4987H7.33268C7.53679 4.49872 7.7338 4.57366 7.88633 4.70929C8.03886 4.84493 8.1363 5.03182 8.16018 5.23453L8.16602 5.33203H9.83268C9.83268 5.11102 9.92048 4.89906 10.0768 4.74278C10.233 4.5865 10.445 4.4987 10.666 4.4987H12.3327C12.5368 4.49872 12.7338 4.57366 12.8863 4.70929C13.0389 4.84493 13.1363 5.03182 13.1602 5.23453L13.166 5.33203H14.416V2.6237C14.4161 2.36582 14.3206 2.11706 14.1479 1.92556C13.9752 1.73406 13.7375 1.61344 13.481 1.58703L13.3743 1.58203Z" fill="black"/>
</svg>
