<svg width="19" height="20" viewBox="0 0 19 20" fill="none" xmlns="http://www.w3.org/2000/svg">
<path d="M17.6673 4.00521H12.334V2.00521C12.3333 1.65188 12.1927 1.31254 11.9427 1.06254C11.6933 0.813208 11.354 0.672542 11.0007 0.671875H1.66732C1.31399 0.672542 0.974652 0.812542 0.724652 1.06254C0.474651 1.31254 0.334651 1.65188 0.333984 2.00521V18.0052C0.334651 18.3586 0.475318 18.6979 0.724652 18.9472C0.974652 19.1972 1.31399 19.3379 1.66732 19.3386H17.6673C18.0207 19.3379 18.3593 19.1972 18.6093 18.9472C18.8593 18.6972 19 18.3586 19.0007 18.0052V5.33855C19 4.98521 18.8593 4.64588 18.6093 4.39588C18.36 4.14655 18.0207 4.00588 17.6673 4.00521ZM7.66733 18.0052H5.00066V14.6719H7.66733V18.0052ZM11.0007 18.0052H9.00066V14.6719C8.99999 14.3186 8.85933 13.9792 8.60933 13.7299C8.35999 13.4799 8.02066 13.3392 7.66733 13.3386H5.00066C4.64732 13.3392 4.30799 13.4799 4.05799 13.7299C3.80865 13.9792 3.66799 14.3186 3.66732 14.6719V18.0052H1.66732L1.66665 2.00521H11.0007V18.0052ZM17.6673 18.0052H12.334V5.33855H17.6673V18.0052ZM15.6673 10.0052C15.6673 10.1372 15.628 10.2659 15.5547 10.3759C15.482 10.4852 15.3773 10.5706 15.256 10.6212C15.134 10.6719 15 10.6846 14.8707 10.6592C14.7413 10.6332 14.6227 10.5699 14.5293 10.4766C14.436 10.3832 14.3727 10.2646 14.3467 10.1352C14.3213 10.0059 14.334 9.87189 14.3847 9.74988C14.4353 9.62855 14.5207 9.52388 14.63 9.45122C14.74 9.37788 14.8687 9.33855 15.0007 9.33855C15.1773 9.33855 15.3473 9.40855 15.472 9.53389C15.5973 9.65855 15.6673 9.82855 15.6673 10.0052ZM14.334 7.33855C14.334 7.20655 14.3733 7.07788 14.4467 6.96788C14.5193 6.85855 14.624 6.77321 14.7453 6.72255C14.8673 6.67188 15.0013 6.65921 15.1307 6.68455C15.26 6.71055 15.3787 6.77388 15.472 6.86722C15.5653 6.96055 15.6287 7.07922 15.6547 7.20855C15.68 7.33788 15.6673 7.47188 15.6167 7.59388C15.566 7.71522 15.4807 7.81988 15.3713 7.89255C15.2613 7.96588 15.1327 8.00522 15.0007 8.00522C14.824 8.00522 14.654 7.93522 14.5293 7.80988C14.404 7.68522 14.334 7.51522 14.334 7.33855ZM9.00066 10.0052C9.00066 10.1372 8.96133 10.2659 8.88799 10.3759C8.81533 10.4852 8.71066 10.5706 8.58933 10.6212C8.46733 10.6719 8.33333 10.6846 8.20399 10.6592C8.07466 10.6332 7.95599 10.5699 7.86266 10.4766C7.76933 10.3832 7.70599 10.2646 7.67999 10.1352C7.65466 10.0059 7.66733 9.87189 7.71799 9.74988C7.76866 9.62855 7.85399 9.52388 7.96333 9.45122C8.07333 9.37788 8.20199 9.33855 8.33399 9.33855C8.51066 9.33855 8.68066 9.40855 8.80533 9.53389C8.93066 9.65855 9.00066 9.82855 9.00066 10.0052ZM9.00066 7.33855C9.00066 7.47055 8.96133 7.59922 8.88799 7.70922C8.81533 7.81855 8.71066 7.90388 8.58933 7.95455C8.46733 8.00522 8.33333 8.01788 8.20399 7.99255C8.07466 7.96655 7.95599 7.90322 7.86266 7.80988C7.76933 7.71655 7.70599 7.59788 7.67999 7.46855C7.65466 7.33922 7.66733 7.20522 7.71799 7.08322C7.76866 6.96188 7.85399 6.85722 7.96333 6.78455C8.07333 6.71122 8.20199 6.67188 8.33399 6.67188C8.51066 6.67188 8.68066 6.74188 8.80533 6.86722C8.93066 6.99188 9.00066 7.16188 9.00066 7.33855ZM9.00066 4.67188C9.00066 4.80388 8.96133 4.93255 8.88799 5.04255C8.81533 5.15188 8.71066 5.23721 8.58933 5.28788C8.46733 5.33855 8.33333 5.35121 8.20399 5.32588C8.07466 5.29988 7.95599 5.23655 7.86266 5.14321C7.76933 5.04988 7.70599 4.93121 7.67999 4.80188C7.65466 4.67255 7.66733 4.53855 7.71799 4.41655C7.76866 4.29521 7.85399 4.19055 7.96333 4.11788C8.07333 4.04455 8.20199 4.00521 8.33399 4.00521C8.51066 4.00521 8.68066 4.07521 8.80533 4.20055C8.93066 4.32521 9.00066 4.49521 9.00066 4.67188ZM5.00066 10.0052C5.00066 10.1372 4.96132 10.2659 4.88799 10.3759C4.81532 10.4852 4.71066 10.5706 4.58932 10.6212C4.46732 10.6719 4.33332 10.6846 4.20399 10.6592C4.07466 10.6332 3.95599 10.5699 3.86266 10.4766C3.76932 10.3832 3.70599 10.2646 3.67999 10.1352C3.65465 10.0059 3.66732 9.87189 3.71799 9.74988C3.76866 9.62855 3.85399 9.52388 3.96332 9.45122C4.07332 9.37788 4.20199 9.33855 4.33399 9.33855C4.51066 9.33855 4.68066 9.40855 4.80532 9.53389C4.93066 9.65855 5.00066 9.82855 5.00066 10.0052ZM5.00066 7.33855C5.00066 7.47055 4.96132 7.59922 4.88799 7.70922C4.81532 7.81855 4.71066 7.90388 4.58932 7.95455C4.46732 8.00522 4.33332 8.01788 4.20399 7.99255C4.07466 7.96655 3.95599 7.90322 3.86266 7.80988C3.76932 7.71655 3.70599 7.59788 3.67999 7.46855C3.65465 7.33922 3.66732 7.20522 3.71799 7.08322C3.76866 6.96188 3.85399 6.85722 3.96332 6.78455C4.07332 6.71122 4.20199 6.67188 4.33399 6.67188C4.51066 6.67188 4.68066 6.74188 4.80532 6.86722C4.93066 6.99188 5.00066 7.16188 5.00066 7.33855ZM5.00066 4.67188C5.00066 4.80388 4.96132 4.93255 4.88799 5.04255C4.81532 5.15188 4.71066 5.23721 4.58932 5.28788C4.46732 5.33855 4.33332 5.35121 4.20399 5.32588C4.07466 5.29988 3.95599 5.23655 3.86266 5.14321C3.76932 5.04988 3.70599 4.93121 3.67999 4.80188C3.65465 4.67255 3.66732 4.53855 3.71799 4.41655C3.76866 4.29521 3.85399 4.19055 3.96332 4.11788C4.07332 4.04455 4.20199 4.00521 4.33399 4.00521C4.51066 4.00521 4.68066 4.07521 4.80532 4.20055C4.93066 4.32521 5.00066 4.49521 5.00066 4.67188Z" fill="#717171"/>
</svg>
