<svg width="21" height="20" viewBox="0 0 21 20" fill="none" xmlns="http://www.w3.org/2000/svg">
<path d="M13.9993 19.6693H7.33268V18.3359H13.9993V19.6693ZM12.666 17.0026H8.66602V15.6693H12.666V17.0026ZM19.3327 0.335938V2.33594H20.666V3.66927H19.3327V13.6693C19.3327 14.0113 19.0753 14.2933 18.744 14.3313L18.666 14.3359H2.66602C2.32402 14.3359 2.04202 14.0786 2.00402 13.7473L1.99935 13.6693V3.66927H0.666016V2.33594H17.9993V0.335938H19.3327ZM17.9993 3.66927H3.33268V13.0026H7.99935V7.66927C7.99935 7.32727 8.25668 7.04527 8.58802 7.00727L8.66602 7.0026H12.666C13.008 7.0026 13.29 7.25994 13.328 7.59127L13.3327 7.66927V13.0026H17.9993V3.66927ZM11.9993 8.33594H9.33268V13.0026H11.9993V8.33594ZM15.9993 5.0026C16.3673 5.0026 16.666 5.30127 16.666 5.66927C16.666 6.03727 16.3673 6.33594 15.9993 6.33594C15.6313 6.33594 15.3327 6.03727 15.3327 5.66927C15.3327 5.30127 15.6313 5.0026 15.9993 5.0026Z" fill="#717171"/>
</svg>
