<svg width="19" height="20" viewBox="0 0 19 20" fill="none" xmlns="http://www.w3.org/2000/svg">
<path d="M4.66732 0.664062C6.27665 0.664062 7.59065 1.9314 7.66398 3.52273L7.66732 3.66406V6.79606L11.2707 4.12806C11.4893 3.96606 11.782 3.9554 12.01 4.09206L12.084 4.1434L15.6673 7.01073V4.66406H17.0007V8.0774L18.7507 9.47673L17.9173 10.5181L17.0007 9.78406L17 12.6641H18.334C18.676 12.6641 18.958 12.9214 18.996 13.2527L19.0007 13.3307V18.6641C19.0007 19.0061 18.7433 19.2881 18.412 19.3261L18.334 19.3307H0.333984V17.9974H5.36398L6.53065 16.6641H0.333984V15.3307H7.66732V15.3654L8.86399 13.9974H0.333984V12.6641H1.66732V3.66406C1.66732 2.0074 3.01065 0.664062 4.66732 0.664062ZM12.864 13.9974H10.636L7.13598 17.9974H9.36399L12.864 13.9974ZM17.6673 15.1041L15.136 17.9974H17.6673V15.1041ZM16.864 13.9974H14.636L11.136 17.9974H13.364L16.864 13.9974ZM15.6673 8.7174L11.6513 5.50473L7.66732 8.4554V12.6641H9.66665L9.66732 9.9974C9.66732 9.6554 9.92465 9.3734 10.256 9.3354L10.334 9.33073H13.0007C13.3427 9.33073 13.6247 9.58806 13.6627 9.9194L13.6673 9.9974L13.6667 12.6641H15.6667L15.6673 8.7174ZM4.66732 1.9974C3.78398 1.9974 3.06065 2.6854 3.00398 3.55473L3.00065 3.66406V12.6641H6.33398V3.66406C6.33398 2.7434 5.58798 1.9974 4.66732 1.9974ZM12.334 10.6641H11.0007V12.6641H12.334V10.6641Z" fill="#717171"/>
</svg>
