<svg width="19" height="20" viewBox="0 0 19 20" fill="none" xmlns="http://www.w3.org/2000/svg">
<path d="M1.66667 3.9974H7V1.9974C7.00067 1.64406 7.14133 1.30473 7.39133 1.05473C7.64067 0.805396 7.98 0.664729 8.33333 0.664062H17.6667C18.02 0.664729 18.3593 0.804729 18.6093 1.05473C18.8593 1.30473 18.9993 1.64406 19 1.9974V17.9974C18.9993 18.3507 18.8587 18.6901 18.6093 18.9394C18.3593 19.1894 18.02 19.3301 17.6667 19.3307H1.66667C1.31333 19.3301 0.974667 19.1894 0.724667 18.9394C0.474667 18.6894 0.334 18.3507 0.333332 17.9974V5.33073C0.334 4.9774 0.474667 4.63806 0.724667 4.38806C0.973999 4.13873 1.31333 3.99806 1.66667 3.9974ZM11.6667 17.9974H14.3333V14.6641H11.6667V17.9974ZM8.33333 17.9974H10.3333V14.6641C10.334 14.3107 10.4747 13.9714 10.7247 13.7221C10.974 13.4721 11.3133 13.3314 11.6667 13.3307H14.3333C14.6867 13.3314 15.026 13.4721 15.276 13.7221C15.5253 13.9714 15.666 14.3107 15.6667 14.6641V17.9974H17.6667L17.6673 1.9974H8.33333V17.9974ZM1.66667 17.9974H7V5.33073H1.66667V17.9974ZM10.3333 9.9974C10.3333 10.1294 10.3727 10.2581 10.446 10.3681C10.5187 10.4774 10.6233 10.5627 10.7447 10.6134C10.8667 10.6641 11.0007 10.6767 11.13 10.6514C11.2593 10.6254 11.378 10.5621 11.4713 10.4687C11.5647 10.3754 11.628 10.2567 11.654 10.1274C11.6793 9.99806 11.6667 9.86406 11.616 9.74206C11.5653 9.62073 11.48 9.51606 11.3707 9.4434C11.2607 9.37006 11.132 9.33073 11 9.33073C10.8233 9.33073 10.6533 9.40073 10.5287 9.52606C10.4033 9.65073 10.3333 9.82073 10.3333 9.9974ZM10.3333 7.33073C10.3333 7.46273 10.3727 7.5914 10.446 7.7014C10.5187 7.81073 10.6233 7.89606 10.7447 7.94673C10.8667 7.9974 11.0007 8.01006 11.13 7.98473C11.2593 7.95873 11.378 7.8954 11.4713 7.80206C11.5647 7.70873 11.628 7.59006 11.654 7.46073C11.6793 7.3314 11.6667 7.1974 11.616 7.0754C11.5653 6.95406 11.48 6.8494 11.3707 6.77673C11.2607 6.7034 11.132 6.66406 11 6.66406C10.8233 6.66406 10.6533 6.73406 10.5287 6.8594C10.4033 6.98406 10.3333 7.15406 10.3333 7.33073ZM10.3333 4.66406C10.3333 4.79606 10.3727 4.92473 10.446 5.03473C10.5187 5.14406 10.6233 5.2294 10.7447 5.28006C10.8667 5.33073 11.0007 5.3434 11.13 5.31806C11.2593 5.29206 11.378 5.22873 11.4713 5.1354C11.5647 5.04206 11.628 4.9234 11.654 4.79406C11.6793 4.66473 11.6667 4.53073 11.616 4.40873C11.5653 4.2874 11.48 4.18273 11.3707 4.11006C11.2607 4.03673 11.132 3.9974 11 3.9974C10.8233 3.9974 10.6533 4.0674 10.5287 4.19273C10.4033 4.3174 10.3333 4.4874 10.3333 4.66406ZM14.3333 9.9974C14.3333 10.1294 14.3727 10.2581 14.446 10.3681C14.5187 10.4774 14.6233 10.5627 14.7447 10.6134C14.8667 10.6641 15.0007 10.6767 15.13 10.6514C15.2593 10.6254 15.378 10.5621 15.4713 10.4687C15.5647 10.3754 15.628 10.2567 15.654 10.1274C15.6793 9.99806 15.6667 9.86406 15.616 9.74206C15.5653 9.62073 15.48 9.51606 15.3707 9.4434C15.2607 9.37006 15.132 9.33073 15 9.33073C14.8233 9.33073 14.6533 9.40073 14.5287 9.52606C14.4033 9.65073 14.3333 9.82073 14.3333 9.9974ZM14.3333 7.33073C14.3333 7.46273 14.3727 7.5914 14.446 7.7014C14.5187 7.81073 14.6233 7.89606 14.7447 7.94673C14.8667 7.9974 15.0007 8.01006 15.13 7.98473C15.2593 7.95873 15.378 7.8954 15.4713 7.80206C15.5647 7.70873 15.628 7.59006 15.654 7.46073C15.6793 7.3314 15.6667 7.1974 15.616 7.0754C15.5653 6.95406 15.48 6.8494 15.3707 6.77673C15.2607 6.7034 15.132 6.66406 15 6.66406C14.8233 6.66406 14.6533 6.73406 14.5287 6.8594C14.4033 6.98406 14.3333 7.15406 14.3333 7.33073ZM14.3333 4.66406C14.3333 4.79606 14.3727 4.92473 14.446 5.03473C14.5187 5.14406 14.6233 5.2294 14.7447 5.28006C14.8667 5.33073 15.0007 5.3434 15.13 5.31806C15.2593 5.29206 15.378 5.22873 15.4713 5.1354C15.5647 5.04206 15.628 4.9234 15.654 4.79406C15.6793 4.66473 15.6667 4.53073 15.616 4.40873C15.5653 4.2874 15.48 4.18273 15.3707 4.11006C15.2607 4.03673 15.132 3.9974 15 3.9974C14.8233 3.9974 14.6533 4.0674 14.5287 4.19273C14.4033 4.3174 14.3333 4.4874 14.3333 4.66406Z" fill="#717171"/>
</svg>
