<svg width="19" height="20" viewBox="0 0 19 20" fill="none" xmlns="http://www.w3.org/2000/svg">
<path d="M17.6673 0.664062C18.37 0.664062 18.946 1.20806 18.9973 1.89806L19.0007 1.9974V17.9974C19.0007 18.7001 18.4567 19.2761 17.7667 19.3267L17.6673 19.3307H1.66732C0.964651 19.3307 0.388651 18.7867 0.337318 18.0967L0.333984 17.9974V1.9974C0.333984 1.29473 0.877984 0.718729 1.56798 0.667396L1.66732 0.664062H17.6673ZM9.66732 3.94073L7.60998 5.9974H1.66732V17.9974H7.00065V14.6641C7.00065 13.9614 7.54465 13.3854 8.23465 13.3341L8.33398 13.3307H11.0007C11.7033 13.3307 12.2793 13.8747 12.3307 14.5647L12.334 14.6641V17.9974H17.6673V5.9974H11.7247L9.66732 3.94073ZM11.0007 14.6641H8.33398V17.9974H11.0007V14.6641ZM15.0007 13.3307C15.3687 13.3307 15.6673 13.6294 15.6673 13.9974C15.6673 14.3654 15.3687 14.6641 15.0007 14.6641C14.6327 14.6641 14.334 14.3654 14.334 13.9974C14.334 13.6294 14.6327 13.3307 15.0007 13.3307ZM4.33398 13.3307C4.70198 13.3307 5.00065 13.6294 5.00065 13.9974C5.00065 14.3654 4.70198 14.6641 4.33398 14.6641C3.96598 14.6641 3.66732 14.3654 3.66732 13.9974C3.66732 13.6294 3.96598 13.3307 4.33398 13.3307ZM15.0007 10.6641C15.3687 10.6641 15.6673 10.9627 15.6673 11.3307C15.6673 11.6987 15.3687 11.9974 15.0007 11.9974C14.6327 11.9974 14.334 11.6987 14.334 11.3307C14.334 10.9627 14.6327 10.6641 15.0007 10.6641ZM4.33398 10.6641C4.70198 10.6641 5.00065 10.9627 5.00065 11.3307C5.00065 11.6987 4.70198 11.9974 4.33398 11.9974C3.96598 11.9974 3.66732 11.6987 3.66732 11.3307C3.66732 10.9627 3.96598 10.6641 4.33398 10.6641ZM15.0007 7.9974C15.3687 7.9974 15.6673 8.29606 15.6673 8.66406C15.6673 9.03206 15.3687 9.33073 15.0007 9.33073C14.6327 9.33073 14.334 9.03206 14.334 8.66406C14.334 8.29606 14.6327 7.9974 15.0007 7.9974ZM9.66732 7.9974C10.0353 7.9974 10.334 8.29606 10.334 8.66406C10.334 9.03206 10.0353 9.33073 9.66732 9.33073C9.29932 9.33073 9.00065 9.03206 9.00065 8.66406C9.00065 8.29606 9.29932 7.9974 9.66732 7.9974ZM4.33398 7.9974C4.70198 7.9974 5.00065 8.29606 5.00065 8.66406C5.00065 9.03206 4.70198 9.33073 4.33398 9.33073C3.96598 9.33073 3.66732 9.03206 3.66732 8.66406C3.66732 8.29606 3.96598 7.9974 4.33398 7.9974ZM17.6673 4.66406V1.9974H1.66732V4.66406H7.05665L8.72465 2.9974C9.21799 2.50406 10.0013 2.47806 10.5253 2.9194L10.61 2.9974L12.2773 4.66406H17.6673Z" fill="#717171"/>
</svg>
