<svg width="21" height="20" viewBox="0 0 21 20" fill="none" xmlns="http://www.w3.org/2000/svg">
<path d="M19.3327 0.664062C19.6694 0.664062 19.9934 0.790729 20.24 1.0194C20.486 1.24873 20.6374 1.56206 20.6627 1.8974L20.666 1.9974V3.33073C20.666 3.6674 20.5394 3.9914 20.3107 4.23807C20.0814 4.48473 19.768 4.6354 19.4327 4.66073L19.3327 4.66407V10.6641H20.666V11.9974H19.3327V17.9974C19.3327 18.3341 19.206 18.6581 18.9774 18.9047C18.748 19.1507 18.4347 19.3021 18.0994 19.3274L17.9994 19.3307H3.33268C2.99602 19.3307 2.67202 19.2041 2.42535 18.9747C2.17868 18.7461 2.02802 18.4327 2.00268 18.0974L1.99935 17.9974V11.9974H0.666016V10.6641H1.99935V4.66407L1.89935 4.66073C1.58202 4.63673 1.28335 4.50007 1.05802 4.2754C0.832682 4.05073 0.694682 3.75273 0.670015 3.4354L0.666016 3.33073V1.9974C0.666016 1.66073 0.792682 1.33673 1.02135 1.09006C1.25068 0.843396 1.56402 0.692729 1.89935 0.667396L1.99935 0.664062H19.3327ZM17.9994 11.9974H3.33268V17.9974H4.66602V15.9974C4.66602 15.3014 4.93802 14.6334 5.42335 14.1354C5.90935 13.6374 6.57069 13.3487 7.26602 13.3314C7.96136 13.3141 8.63602 13.5694 9.14602 14.0421C9.65602 14.5154 9.96136 15.1694 9.99603 15.8641L9.99936 15.9974V17.9974H11.3327V15.9974C11.3327 15.3014 11.6047 14.6334 12.09 14.1354C12.576 13.6374 13.2374 13.3487 13.9327 13.3314C14.628 13.3141 15.3027 13.5694 15.8127 14.0421C16.3227 14.5154 16.628 15.1694 16.6627 15.8641L16.666 15.9974V17.9974H17.9994V11.9974ZM7.33269 14.6641C6.99602 14.6641 6.67202 14.7907 6.42535 15.0194C6.17869 15.2487 6.02802 15.5621 6.00269 15.8974L5.99935 15.9974V17.9974H8.66602V15.9974C8.66602 15.6441 8.52536 15.3047 8.27536 15.0547C8.02536 14.8047 7.68602 14.6641 7.33269 14.6641ZM13.9994 14.6641C13.6627 14.6641 13.3387 14.7907 13.092 15.0194C12.846 15.2487 12.6947 15.5621 12.6694 15.8974L12.666 15.9974V17.9974H15.3327V15.9974C15.3327 15.6441 15.192 15.3047 14.942 15.0547C14.692 14.8047 14.3527 14.6641 13.9994 14.6641ZM17.9994 4.66407H3.33268V10.6641H4.66602V8.66407C4.66602 7.96807 4.93802 7.30007 5.42335 6.80207C5.90935 6.30407 6.57069 6.0154 7.26602 5.99807C7.96136 5.98073 8.63602 6.23607 9.14602 6.70873C9.65602 7.18207 9.96136 7.83607 9.99603 8.53074L9.99936 8.66407V10.6641H11.3327V8.66407C11.3327 7.96807 11.6047 7.30007 12.09 6.80207C12.576 6.30407 13.2374 6.0154 13.9327 5.99807C14.628 5.98073 15.3027 6.23607 15.8127 6.70873C16.3227 7.18207 16.628 7.83607 16.6627 8.53074L16.666 8.66407V10.6641H17.9994V4.66407ZM7.33269 7.33074C6.99602 7.33074 6.67202 7.4574 6.42535 7.68607C6.17869 7.9154 6.02802 8.22874 6.00269 8.56407L5.99935 8.66407V10.6641H8.66602V8.66407C8.66602 8.31074 8.52536 7.9714 8.27536 7.7214C8.02536 7.4714 7.68602 7.33074 7.33269 7.33074ZM13.9994 7.33074C13.6627 7.33074 13.3387 7.4574 13.092 7.68607C12.846 7.9154 12.6947 8.22874 12.6694 8.56407L12.666 8.66407V10.6641H15.3327V8.66407C15.3327 8.31074 15.192 7.9714 14.942 7.7214C14.692 7.4714 14.3527 7.33074 13.9994 7.33074ZM19.3327 1.9974H1.99935V3.33073H19.3327V1.9974Z" fill="#717171"/>
</svg>
