<svg width="30" height="30" viewBox="0 0 30 30" fill="none" xmlns="http://www.w3.org/2000/svg">
<path d="M16.1027 5.85717L16.2193 5.9665L24.934 14.5278L23.9993 15.4785L22.7993 14.2998L22.8 23.3365C22.8 24.0392 22.256 24.6152 21.566 24.6658L21.4667 24.6698H8.13335C7.43068 24.6698 6.85468 24.1258 6.80335 23.4358L6.80002 23.3365L6.79935 14.3005L5.60068 15.4785L4.66602 14.5278L13.3713 5.97517C14.1133 5.21783 15.31 5.17583 16.1027 5.85717ZM14.3787 6.85983L14.3147 6.91783L8.13268 12.9905L8.13335 23.3365L11.466 23.3358L11.4667 16.6698C11.4667 15.9672 12.0107 15.3912 12.7007 15.3398L12.8 15.3365H16.8C17.5027 15.3365 18.0787 15.8805 18.13 16.5705L18.1333 16.6698L18.1327 23.3358L21.4667 23.3365L21.466 12.9898L15.2667 6.89917C15.024 6.66117 14.6453 6.6465 14.3787 6.85983ZM16.8 16.6698H12.8L12.7993 23.3358H16.7993L16.8 16.6698Z" fill="#2D76E0"/>
</svg>
