<svg width="30" height="30" viewBox="0 0 30 30" fill="none" xmlns="http://www.w3.org/2000/svg">
<path fill-rule="evenodd" clip-rule="evenodd" d="M9.00039 7.5C10.0504 7.5 10.0504 9 9.00039 9C7.95039 9 7.95039 7.5 9.00039 7.5Z" fill="#717171"/>
<path fill-rule="evenodd" clip-rule="evenodd" d="M19.5 7.5H12C11.55 7.5 11.25 7.8 11.25 8.25C11.25 8.7 11.55 9 12 9H19.5C19.95 9 20.25 8.7 20.25 8.25C20.25 7.8 19.95 7.5 19.5 7.5ZM12.75 7.5H15.75C14.7 7.5 14.7 6 15.6 6H16.5C16.95 6 17.25 5.7 17.25 5.25C17.25 4.8 16.95 4.5 16.5 4.5H9C8.55 4.5 8.25 4.8 8.25 5.25C8.25 5.7 8.55 6 9 6H12.75C13.65 6 13.65 7.5 12.75 7.5ZM21 4.5H19.5C19.05 4.5 18.75 4.8 18.75 5.25C18.75 5.7 19.05 6 19.5 6H21C21.45 6 21.75 5.7 21.75 5.25C21.75 4.8 21.45 4.5 21 4.5Z" fill="#717171"/>
<path d="M7.5 16.4984L7.8 11.8484C7.8 11.5484 8.1 11.3984 8.4 11.3984H10.8C11.1 11.3984 11.4 11.5484 11.4 11.8484L11.55 16.4984" stroke="#717171" stroke-width="1.5" stroke-miterlimit="10"/>
<path d="M23.85 15.0004L21.15 16.9504C20.85 17.2504 20.25 16.9504 20.25 16.5004V15.3004C20.25 14.8504 19.65 14.5504 19.35 14.8504L16.65 16.8004C16.35 17.1004 15.75 16.8004 15.75 16.3504V15.0004C15.75 14.5504 15.3 14.2504 14.85 14.5504L11.85 16.5004H7.5C7.05 16.5004 6.75 16.8004 6.75 17.2504V25.5004C6.75 25.9504 7.05 26.2504 7.5 26.2504H24.15C24.45 26.2504 24.75 25.9504 24.75 25.6504V15.3004C24.75 14.8504 24.15 14.7004 23.85 15.0004Z" stroke="#717171" stroke-width="1.5" stroke-miterlimit="10"/>
<path d="M14.25 19.5H15.75V21H14.25V19.5ZM17.25 19.5H18.75V21H17.25V19.5ZM20.25 19.5H21.75V21H20.25V19.5ZM14.25 22.5H15.75V24H14.25V22.5ZM17.25 22.5H18.75V24H17.25V22.5ZM20.25 22.5H21.75V24H20.25V22.5Z" fill="#717171"/>
</svg>
