<svg width="25" height="24" viewBox="0 0 25 24" fill="none" xmlns="http://www.w3.org/2000/svg">
<path d="M12.6934 10.0967H17.0043M12.7376 4.26953V5.7634V14.3634M12.7376 4.7634C15.0939 4.7634 17.0043 6.6738 17.0043 9.03006V14.3634H12.7376C12.7376 14.3634 12.7376 6.43006 12.7376 4.7634Z" stroke="#3C3C3C" stroke-width="0.592593"/>
<path d="M12.7852 10.0967H8.47422M12.7409 4.26953V5.7634V14.3634M12.7409 4.7634C10.3846 4.7634 8.47422 6.6738 8.47422 9.03006V14.3634H12.7409C12.7409 14.3634 12.7409 6.43006 12.7409 4.7634Z" stroke="#3C3C3C" stroke-width="0.592593"/>
<path d="M18.0723 14.3633V19.6966" stroke="#3C3C3C" stroke-width="0.592593"/>
<path d="M15.9375 14.3633V19.6966" stroke="#3C3C3C" stroke-width="0.592593"/>
<path d="M13.8047 14.3633V19.6966" stroke="#3C3C3C" stroke-width="0.592593"/>
<path d="M11.6719 14.3633V19.6966" stroke="#3C3C3C" stroke-width="0.592593"/>
<path d="M9.53906 14.3633V19.6966" stroke="#3C3C3C" stroke-width="0.592593"/>
<path d="M7.40625 14.3633V19.6966" stroke="#3C3C3C" stroke-width="0.592593"/>
<path d="M5.80469 19.6992H19.6714" stroke="#3C3C3C" stroke-width="0.592593"/>
<path d="M5.80469 14.3633H19.6714" stroke="#3C3C3C" stroke-width="0.592593"/>
</svg>
