<svg width="21" height="20" viewBox="0 0 21 20" fill="none" xmlns="http://www.w3.org/2000/svg">
<path d="M2.97461 9.9987H3.80794M17.1413 9.9987C17.3623 9.9987 17.5743 9.9109 17.7305 9.75462C17.8868 9.59834 17.9746 9.38638 17.9746 9.16536V5.83203C17.9746 4.9987 17.4746 3.33203 15.4746 3.33203C13.4746 3.33203 12.9746 4.9987 12.9746 5.83203M17.1413 9.9987V11.6654C17.1413 12.6137 16.6554 14.372 14.8538 14.8662M17.1413 9.9987H3.80794M3.80794 9.9987V11.6654C3.80794 12.6137 4.29378 14.372 6.09544 14.8662M5.47461 16.6654L6.09544 14.8662M6.09544 14.8662C6.40378 14.9512 6.75128 14.9987 7.14128 14.9987H13.8079C14.1609 15.0018 14.5127 14.9572 14.8538 14.8662M15.4746 16.6654L14.8538 14.8662M12.9746 5.83203H11.3079M12.9746 5.83203H14.6413" stroke="black" stroke-linecap="round" stroke-linejoin="round"/>
</svg>
