<svg width="28" height="28" viewBox="0 0 28 28" fill="none" xmlns="http://www.w3.org/2000/svg">
<mask id="path-1-outside-1_2084_20848" maskUnits="userSpaceOnUse" x="1.625" y="0.3125" width="24" height="27" fill="black">
<rect fill="white" x="1.625" y="0.3125" width="24" height="27"/>
<path d="M4.375 16.0344V25.8125C4.375 25.9285 4.4211 26.0398 4.50314 26.1219C4.58519 26.2039 4.69647 26.25 4.8125 26.25H23.1875C23.3035 26.25 23.4148 26.2039 23.4969 26.1219C23.5789 26.0398 23.625 25.9285 23.625 25.8125V16.0344C24.1363 15.8536 24.5791 15.5189 24.8924 15.0763C25.2058 14.6336 25.3744 14.1048 25.375 13.5625V12.6875C25.3744 12.6382 25.3656 12.5894 25.3488 12.5431L23.5988 8.16813C23.5689 8.08275 23.5133 8.00872 23.4397 7.95623C23.366 7.90374 23.2779 7.87536 23.1875 7.875H22.75V6.125C22.75 6.00897 22.7039 5.89769 22.6219 5.81564C22.5398 5.73359 22.4285 5.6875 22.3125 5.6875H18.375C18.375 4.52718 17.9141 3.41438 17.0936 2.59391C16.2731 1.77344 15.1603 1.3125 14 1.3125C12.8397 1.3125 11.7269 1.77344 10.9064 2.59391C10.0859 3.41438 9.625 4.52718 9.625 5.6875H5.6875C5.57147 5.6875 5.46019 5.73359 5.37814 5.81564C5.2961 5.89769 5.25 6.00897 5.25 6.125V7.875H4.8125C4.72488 7.87492 4.63925 7.90114 4.56671 7.95029C4.49416 7.99943 4.43805 8.06922 4.40563 8.15062L2.65563 12.5256C2.63526 12.5772 2.62487 12.6321 2.625 12.6875V13.5625C2.62562 14.1048 2.7942 14.6336 3.10756 15.0763C3.42093 15.5189 3.86369 15.8536 4.375 16.0344ZM3.5 13.5625V13.125H7V13.5625C7 14.0266 6.81563 14.4717 6.48744 14.7999C6.15925 15.1281 5.71413 15.3125 5.25 15.3125C4.78587 15.3125 4.34075 15.1281 4.01256 14.7999C3.68438 14.4717 3.5 14.0266 3.5 13.5625ZM11.7644 8.75L11.4144 12.25H8.02375L9.07375 8.75H11.7644ZM18.9219 8.75L19.9719 12.25H16.5856L16.2356 8.75H18.9219ZM11.375 13.5625C11.375 14.0266 11.1906 14.4717 10.8624 14.7999C10.5342 15.1281 10.0891 15.3125 9.625 15.3125C9.16087 15.3125 8.71575 15.1281 8.38757 14.7999C8.05938 14.4717 7.875 14.0266 7.875 13.5625V13.125H11.375V13.5625ZM12.25 13.125H15.75V13.5625C15.75 14.0266 15.5656 14.4717 15.2374 14.7999C14.9092 15.1281 14.4641 15.3125 14 15.3125C13.5359 15.3125 13.0908 15.1281 12.7626 14.7999C12.4344 14.4717 12.25 14.0266 12.25 13.5625V13.125ZM16.625 13.125H20.125V13.5625C20.125 14.0266 19.9406 14.4717 19.6124 14.7999C19.2843 15.1281 18.8391 15.3125 18.375 15.3125C17.9109 15.3125 17.4658 15.1281 17.1376 14.7999C16.8094 14.4717 16.625 14.0266 16.625 13.5625V13.125ZM15.3519 8.75L15.7019 12.25H12.2981L12.6481 8.75H15.3519ZM7.875 25.375V20.5625C7.875 19.9823 8.10547 19.4259 8.51571 19.0157C8.92594 18.6055 9.48234 18.375 10.0625 18.375C10.6427 18.375 11.1991 18.6055 11.6093 19.0157C12.0195 19.4259 12.25 19.9823 12.25 20.5625V25.375H7.875ZM22.75 25.375H13.125V20.5625C13.125 19.7503 12.8023 18.9713 12.228 18.397C11.6537 17.8227 10.8747 17.5 10.0625 17.5C9.25028 17.5 8.47132 17.8227 7.89699 18.397C7.32266 18.9713 7 19.7503 7 20.5625V25.375H5.25V16.1875C5.68344 16.1872 6.11006 16.0795 6.49177 15.8742C6.87347 15.6688 7.19839 15.3721 7.4375 15.0106C7.67695 15.3716 8.00201 15.6677 8.38369 15.8726C8.76538 16.0774 9.19182 16.1846 9.625 16.1846C10.0582 16.1846 10.4846 16.0774 10.8663 15.8726C11.248 15.6677 11.5731 15.3716 11.8125 15.0106C12.0519 15.3716 12.377 15.6677 12.7587 15.8726C13.1404 16.0774 13.5668 16.1846 14 16.1846C14.4332 16.1846 14.8596 16.0774 15.2413 15.8726C15.623 15.6677 15.9481 15.3716 16.1875 15.0106C16.4269 15.3716 16.752 15.6677 17.1337 15.8726C17.5154 16.0774 17.9418 16.1846 18.375 16.1846C18.8082 16.1846 19.2346 16.0774 19.6163 15.8726C19.998 15.6677 20.3231 15.3716 20.5625 15.0106C20.8016 15.3721 21.1265 15.6688 21.5082 15.8742C21.8899 16.0795 22.3166 16.1872 22.75 16.1875V25.375ZM24.5 13.5625C24.5 14.0266 24.3156 14.4717 23.9874 14.7999C23.6593 15.1281 23.2141 15.3125 22.75 15.3125C22.2859 15.3125 21.8408 15.1281 21.5126 14.7999C21.1844 14.4717 21 14.0266 21 13.5625V13.125H24.5V13.5625ZM24.29 12.25H20.8863L19.8363 8.75H22.8988L24.29 12.25ZM6.125 6.5625H10.0625C10.1785 6.5625 10.2898 6.51641 10.3719 6.43436C10.4539 6.35231 10.5 6.24103 10.5 6.125C10.5 5.19674 10.8688 4.3065 11.5251 3.65013C12.1815 2.99375 13.0717 2.625 14 2.625C14.9283 2.625 15.8185 2.99375 16.4749 3.65013C17.1313 4.3065 17.5 5.19674 17.5 6.125C17.5 6.24103 17.5461 6.35231 17.6281 6.43436C17.7102 6.51641 17.8215 6.5625 17.9375 6.5625H21.875V7.875H6.125V6.5625ZM5.11 8.75H8.1725L7.1225 12.25H3.71L5.11 8.75Z"/>
</mask>
<path d="M4.375 16.0344V25.8125C4.375 25.9285 4.4211 26.0398 4.50314 26.1219C4.58519 26.2039 4.69647 26.25 4.8125 26.25H23.1875C23.3035 26.25 23.4148 26.2039 23.4969 26.1219C23.5789 26.0398 23.625 25.9285 23.625 25.8125V16.0344C24.1363 15.8536 24.5791 15.5189 24.8924 15.0763C25.2058 14.6336 25.3744 14.1048 25.375 13.5625V12.6875C25.3744 12.6382 25.3656 12.5894 25.3488 12.5431L23.5988 8.16813C23.5689 8.08275 23.5133 8.00872 23.4397 7.95623C23.366 7.90374 23.2779 7.87536 23.1875 7.875H22.75V6.125C22.75 6.00897 22.7039 5.89769 22.6219 5.81564C22.5398 5.73359 22.4285 5.6875 22.3125 5.6875H18.375C18.375 4.52718 17.9141 3.41438 17.0936 2.59391C16.2731 1.77344 15.1603 1.3125 14 1.3125C12.8397 1.3125 11.7269 1.77344 10.9064 2.59391C10.0859 3.41438 9.625 4.52718 9.625 5.6875H5.6875C5.57147 5.6875 5.46019 5.73359 5.37814 5.81564C5.2961 5.89769 5.25 6.00897 5.25 6.125V7.875H4.8125C4.72488 7.87492 4.63925 7.90114 4.56671 7.95029C4.49416 7.99943 4.43805 8.06922 4.40563 8.15062L2.65563 12.5256C2.63526 12.5772 2.62487 12.6321 2.625 12.6875V13.5625C2.62562 14.1048 2.7942 14.6336 3.10756 15.0763C3.42093 15.5189 3.86369 15.8536 4.375 16.0344ZM3.5 13.5625V13.125H7V13.5625C7 14.0266 6.81563 14.4717 6.48744 14.7999C6.15925 15.1281 5.71413 15.3125 5.25 15.3125C4.78587 15.3125 4.34075 15.1281 4.01256 14.7999C3.68438 14.4717 3.5 14.0266 3.5 13.5625ZM11.7644 8.75L11.4144 12.25H8.02375L9.07375 8.75H11.7644ZM18.9219 8.75L19.9719 12.25H16.5856L16.2356 8.75H18.9219ZM11.375 13.5625C11.375 14.0266 11.1906 14.4717 10.8624 14.7999C10.5342 15.1281 10.0891 15.3125 9.625 15.3125C9.16087 15.3125 8.71575 15.1281 8.38757 14.7999C8.05938 14.4717 7.875 14.0266 7.875 13.5625V13.125H11.375V13.5625ZM12.25 13.125H15.75V13.5625C15.75 14.0266 15.5656 14.4717 15.2374 14.7999C14.9092 15.1281 14.4641 15.3125 14 15.3125C13.5359 15.3125 13.0908 15.1281 12.7626 14.7999C12.4344 14.4717 12.25 14.0266 12.25 13.5625V13.125ZM16.625 13.125H20.125V13.5625C20.125 14.0266 19.9406 14.4717 19.6124 14.7999C19.2843 15.1281 18.8391 15.3125 18.375 15.3125C17.9109 15.3125 17.4658 15.1281 17.1376 14.7999C16.8094 14.4717 16.625 14.0266 16.625 13.5625V13.125ZM15.3519 8.75L15.7019 12.25H12.2981L12.6481 8.75H15.3519ZM7.875 25.375V20.5625C7.875 19.9823 8.10547 19.4259 8.51571 19.0157C8.92594 18.6055 9.48234 18.375 10.0625 18.375C10.6427 18.375 11.1991 18.6055 11.6093 19.0157C12.0195 19.4259 12.25 19.9823 12.25 20.5625V25.375H7.875ZM22.75 25.375H13.125V20.5625C13.125 19.7503 12.8023 18.9713 12.228 18.397C11.6537 17.8227 10.8747 17.5 10.0625 17.5C9.25028 17.5 8.47132 17.8227 7.89699 18.397C7.32266 18.9713 7 19.7503 7 20.5625V25.375H5.25V16.1875C5.68344 16.1872 6.11006 16.0795 6.49177 15.8742C6.87347 15.6688 7.19839 15.3721 7.4375 15.0106C7.67695 15.3716 8.00201 15.6677 8.38369 15.8726C8.76538 16.0774 9.19182 16.1846 9.625 16.1846C10.0582 16.1846 10.4846 16.0774 10.8663 15.8726C11.248 15.6677 11.5731 15.3716 11.8125 15.0106C12.0519 15.3716 12.377 15.6677 12.7587 15.8726C13.1404 16.0774 13.5668 16.1846 14 16.1846C14.4332 16.1846 14.8596 16.0774 15.2413 15.8726C15.623 15.6677 15.9481 15.3716 16.1875 15.0106C16.4269 15.3716 16.752 15.6677 17.1337 15.8726C17.5154 16.0774 17.9418 16.1846 18.375 16.1846C18.8082 16.1846 19.2346 16.0774 19.6163 15.8726C19.998 15.6677 20.3231 15.3716 20.5625 15.0106C20.8016 15.3721 21.1265 15.6688 21.5082 15.8742C21.8899 16.0795 22.3166 16.1872 22.75 16.1875V25.375ZM24.5 13.5625C24.5 14.0266 24.3156 14.4717 23.9874 14.7999C23.6593 15.1281 23.2141 15.3125 22.75 15.3125C22.2859 15.3125 21.8408 15.1281 21.5126 14.7999C21.1844 14.4717 21 14.0266 21 13.5625V13.125H24.5V13.5625ZM24.29 12.25H20.8863L19.8363 8.75H22.8988L24.29 12.25ZM6.125 6.5625H10.0625C10.1785 6.5625 10.2898 6.51641 10.3719 6.43436C10.4539 6.35231 10.5 6.24103 10.5 6.125C10.5 5.19674 10.8688 4.3065 11.5251 3.65013C12.1815 2.99375 13.0717 2.625 14 2.625C14.9283 2.625 15.8185 2.99375 16.4749 3.65013C17.1313 4.3065 17.5 5.19674 17.5 6.125C17.5 6.24103 17.5461 6.35231 17.6281 6.43436C17.7102 6.51641 17.8215 6.5625 17.9375 6.5625H21.875V7.875H6.125V6.5625ZM5.11 8.75H8.1725L7.1225 12.25H3.71L5.11 8.75Z" fill="#2D76E0"/>
<path d="M4.375 16.0344V25.8125C4.375 25.9285 4.4211 26.0398 4.50314 26.1219C4.58519 26.2039 4.69647 26.25 4.8125 26.25H23.1875C23.3035 26.25 23.4148 26.2039 23.4969 26.1219C23.5789 26.0398 23.625 25.9285 23.625 25.8125V16.0344C24.1363 15.8536 24.5791 15.5189 24.8924 15.0763C25.2058 14.6336 25.3744 14.1048 25.375 13.5625V12.6875C25.3744 12.6382 25.3656 12.5894 25.3488 12.5431L23.5988 8.16813C23.5689 8.08275 23.5133 8.00872 23.4397 7.95623C23.366 7.90374 23.2779 7.87536 23.1875 7.875H22.75V6.125C22.75 6.00897 22.7039 5.89769 22.6219 5.81564C22.5398 5.73359 22.4285 5.6875 22.3125 5.6875H18.375C18.375 4.52718 17.9141 3.41438 17.0936 2.59391C16.2731 1.77344 15.1603 1.3125 14 1.3125C12.8397 1.3125 11.7269 1.77344 10.9064 2.59391C10.0859 3.41438 9.625 4.52718 9.625 5.6875H5.6875C5.57147 5.6875 5.46019 5.73359 5.37814 5.81564C5.2961 5.89769 5.25 6.00897 5.25 6.125V7.875H4.8125C4.72488 7.87492 4.63925 7.90114 4.56671 7.95029C4.49416 7.99943 4.43805 8.06922 4.40563 8.15062L2.65563 12.5256C2.63526 12.5772 2.62487 12.6321 2.625 12.6875V13.5625C2.62562 14.1048 2.7942 14.6336 3.10756 15.0763C3.42093 15.5189 3.86369 15.8536 4.375 16.0344ZM3.5 13.5625V13.125H7V13.5625C7 14.0266 6.81563 14.4717 6.48744 14.7999C6.15925 15.1281 5.71413 15.3125 5.25 15.3125C4.78587 15.3125 4.34075 15.1281 4.01256 14.7999C3.68438 14.4717 3.5 14.0266 3.5 13.5625ZM11.7644 8.75L11.4144 12.25H8.02375L9.07375 8.75H11.7644ZM18.9219 8.75L19.9719 12.25H16.5856L16.2356 8.75H18.9219ZM11.375 13.5625C11.375 14.0266 11.1906 14.4717 10.8624 14.7999C10.5342 15.1281 10.0891 15.3125 9.625 15.3125C9.16087 15.3125 8.71575 15.1281 8.38757 14.7999C8.05938 14.4717 7.875 14.0266 7.875 13.5625V13.125H11.375V13.5625ZM12.25 13.125H15.75V13.5625C15.75 14.0266 15.5656 14.4717 15.2374 14.7999C14.9092 15.1281 14.4641 15.3125 14 15.3125C13.5359 15.3125 13.0908 15.1281 12.7626 14.7999C12.4344 14.4717 12.25 14.0266 12.25 13.5625V13.125ZM16.625 13.125H20.125V13.5625C20.125 14.0266 19.9406 14.4717 19.6124 14.7999C19.2843 15.1281 18.8391 15.3125 18.375 15.3125C17.9109 15.3125 17.4658 15.1281 17.1376 14.7999C16.8094 14.4717 16.625 14.0266 16.625 13.5625V13.125ZM15.3519 8.75L15.7019 12.25H12.2981L12.6481 8.75H15.3519ZM7.875 25.375V20.5625C7.875 19.9823 8.10547 19.4259 8.51571 19.0157C8.92594 18.6055 9.48234 18.375 10.0625 18.375C10.6427 18.375 11.1991 18.6055 11.6093 19.0157C12.0195 19.4259 12.25 19.9823 12.25 20.5625V25.375H7.875ZM22.75 25.375H13.125V20.5625C13.125 19.7503 12.8023 18.9713 12.228 18.397C11.6537 17.8227 10.8747 17.5 10.0625 17.5C9.25028 17.5 8.47132 17.8227 7.89699 18.397C7.32266 18.9713 7 19.7503 7 20.5625V25.375H5.25V16.1875C5.68344 16.1872 6.11006 16.0795 6.49177 15.8742C6.87347 15.6688 7.19839 15.3721 7.4375 15.0106C7.67695 15.3716 8.00201 15.6677 8.38369 15.8726C8.76538 16.0774 9.19182 16.1846 9.625 16.1846C10.0582 16.1846 10.4846 16.0774 10.8663 15.8726C11.248 15.6677 11.5731 15.3716 11.8125 15.0106C12.0519 15.3716 12.377 15.6677 12.7587 15.8726C13.1404 16.0774 13.5668 16.1846 14 16.1846C14.4332 16.1846 14.8596 16.0774 15.2413 15.8726C15.623 15.6677 15.9481 15.3716 16.1875 15.0106C16.4269 15.3716 16.752 15.6677 17.1337 15.8726C17.5154 16.0774 17.9418 16.1846 18.375 16.1846C18.8082 16.1846 19.2346 16.0774 19.6163 15.8726C19.998 15.6677 20.3231 15.3716 20.5625 15.0106C20.8016 15.3721 21.1265 15.6688 21.5082 15.8742C21.8899 16.0795 22.3166 16.1872 22.75 16.1875V25.375ZM24.5 13.5625C24.5 14.0266 24.3156 14.4717 23.9874 14.7999C23.6593 15.1281 23.2141 15.3125 22.75 15.3125C22.2859 15.3125 21.8408 15.1281 21.5126 14.7999C21.1844 14.4717 21 14.0266 21 13.5625V13.125H24.5V13.5625ZM24.29 12.25H20.8863L19.8363 8.75H22.8988L24.29 12.25ZM6.125 6.5625H10.0625C10.1785 6.5625 10.2898 6.51641 10.3719 6.43436C10.4539 6.35231 10.5 6.24103 10.5 6.125C10.5 5.19674 10.8688 4.3065 11.5251 3.65013C12.1815 2.99375 13.0717 2.625 14 2.625C14.9283 2.625 15.8185 2.99375 16.4749 3.65013C17.1313 4.3065 17.5 5.19674 17.5 6.125C17.5 6.24103 17.5461 6.35231 17.6281 6.43436C17.7102 6.51641 17.8215 6.5625 17.9375 6.5625H21.875V7.875H6.125V6.5625ZM5.11 8.75H8.1725L7.1225 12.25H3.71L5.11 8.75Z" stroke="#2D76E0" stroke-width="0.2" mask="url(#path-1-outside-1_2084_20848)"/>
<path d="M9.1875 21.4375C9.07147 21.4375 8.96019 21.4836 8.87814 21.5656C8.79609 21.6477 8.75 21.759 8.75 21.875V22.75C8.75 22.866 8.79609 22.9773 8.87814 23.0594C8.96019 23.1414 9.07147 23.1875 9.1875 23.1875C9.30353 23.1875 9.41481 23.1414 9.49686 23.0594C9.57891 22.9773 9.625 22.866 9.625 22.75V21.875C9.625 21.759 9.57891 21.6477 9.49686 21.5656C9.41481 21.4836 9.30353 21.4375 9.1875 21.4375ZM20.5625 17.5H15.3125C15.1965 17.5 15.0852 17.5461 15.0031 17.6281C14.9211 17.7102 14.875 17.8215 14.875 17.9375V23.1875C14.875 23.3035 14.9211 23.4148 15.0031 23.4969C15.0852 23.5789 15.1965 23.625 15.3125 23.625H20.5625C20.6785 23.625 20.7898 23.5789 20.8719 23.4969C20.9539 23.4148 21 23.3035 21 23.1875V17.9375C21 17.8215 20.9539 17.7102 20.8719 17.6281C20.7898 17.5461 20.6785 17.5 20.5625 17.5ZM20.125 22.75H15.75V18.375H20.125V22.75Z" fill="#2D76E0"/>
</svg>
